<svg xmlns="http://www.w3.org/2000/svg" width="352.108" height="152.65" viewBox="0 0 352.108 152.65">
  <g id="bg_l" transform="matrix(0.998, 0.07, -0.07, 0.998, 321.654, -2659.871)" opacity="0.401">
    <g id="Group_391" data-name="Group 391" transform="translate(-125.349 2801.637)">
      <path id="Path_1089" data-name="Path 1089" d="M-125.347,3121.186c-.063-.841,1.3.046,2.213-.557.393-.26.753-.708,1.312-1.041.438-.262.9-.568,1.434-.861.462-.251.68-1.048,1.214-1.314.478-.238,1.289.161,1.824-.084.491-.225.845-.8,1.384-1.023.5-.21.947-.614,1.489-.822.51-.2,1.149-.085,1.7-.276.517-.181.838-1.012,1.388-1.186.524-.167,1.306.468,1.859.31.53-.152.894-.956,1.45-1.1.534-.137,1.209.248,1.767.12.539-.123,1.037-.472,1.6-.584.542-.108,1.1-.2,1.662-.294.545-.094,1.03-.677,1.595-.76.548-.08,1.131-.052,1.7-.121.55-.066,1.107-.267,1.674-.32s1.159.362,1.727.322,1.152.679,1.721.653,1.084-.854,1.654-.867,1.123-.432,1.692-.431,1.117.594,1.686.608,1.135-.321,1.7-.294,1.111.254,1.678.294,1.054.8,1.62.852,1.187-.64,1.751-.576,1.091.318,1.654.394,1.173-.262,1.733-.175.957,1.066,1.516,1.164,1.225-.481,1.783-.372,1.1.253,1.651.374,1.165-.045,1.718.085.942.872,1.493,1.012,1.241-.3,1.789-.149.964.719,1.509.878.929.787,1.471.956,1.082.274,1.621.452,1.261-.232,1.8-.045.922.6,1.455.8c.1.821-.476.245-1.372.824-.389.251-.594.981-1.141,1.306-.431.255-1.249-.062-1.775.227-.453.249-.526,1.3-1.047,1.564-.467.238-1.331-.253-1.851-.005-.479.228-.676,1.13-1.2,1.361-.488.216-1.156.077-1.682.293-.5.2-.83.883-1.359,1.085-.5.191-1.294-.348-1.826-.161-.509.179-.848.912-1.383,1.084-.515.166-1.271-.411-1.809-.252-.52.152-1.03.348-1.571.492-.525.14-.928.792-1.472.921-.529.126-1.139-.066-1.686.05s-1.114-.013-1.663.089-1.1.009-1.649.1-1.018.555-1.57.628-1.093.053-1.647.111-1.087.1-1.642.142-1.061.583-1.617.613-1.128-.784-1.684-.769-1.08.938-1.637.94-1.1-.2-1.659-.212-1.08-.489-1.635-.516-1.112.258-1.667.217-1.115.114-1.668.06-1.041-.573-1.593-.642-1.133.2-1.683.114-1.161.25-1.708.155-1.079-.267-1.624-.374-.971-.739-1.514-.859-.948-.733-1.488-.867-1.156.116-1.693-.03-1.148.02-1.68-.139-.877-.871-1.407-1.041-1.214.18-1.739,0-1.04-.364-1.561-.558-.8-.974-1.317-1.177-1.31.309-1.823.095S-124.838,3121.412-125.347,3121.186Z" transform="translate(125.349 -3110.949)" fill="#abb5bb"/>
    </g>
    <g id="Group_392" data-name="Group 392" transform="translate(-69.33 2768.884)">
      <path id="Path_1090" data-name="Path 1090" d="M53.755,3016.418c-.063-.843.291-.335,1.2-.938.394-.262.92-.483,1.48-.817.44-.263,1.121-.181,1.662-.474.463-.251.519-1.36,1.055-1.627.48-.239,1.2-.061,1.733-.306.492-.225.85-.825,1.391-1.051.5-.211,1.2.009,1.746-.2.511-.2.911-.75,1.459-.942.519-.182,1.039-.433,1.59-.608.525-.167,1.172.006,1.726-.153.531-.153.938-.831,1.5-.975.536-.138,1.307.641,1.867.513.54-.123.995-.671,1.557-.784.544-.108,1.179.245,1.743.147.547-.095.972-1.016,1.538-1.1.55-.081,1.166.233,1.733.165.552-.066,1.07-.583,1.639-.638s1.135.011,1.705-.029,1.165.753,1.736.728,1.087-1.086,1.658-1.1,1.134.687,1.7.688,1.108.466,1.678.48,1.113-.062,1.682-.035,1.129-.212,1.7-.172,1.173-.552,1.74-.5,1.133.053,1.7.117.977,1.237,1.541,1.313,1.226-.674,1.789-.586,1.11.192,1.67.291.954.986,1.513,1.1,1.326-.876,1.884-.756,1.022.6,1.576.732,1.139.092,1.691.232.929.881,1.479,1.033,1.091.252,1.637.412.956.694,1.5.864,1.415-.735,1.956-.557.817,1.1,1.355,1.286.6.172,1.134.368c.1.824-.161-.092-1.06.487-.39.252-.338,1.394-.887,1.719-.433.256-1.058.3-1.586.593-.454.249-1.222-.02-1.744.248-.469.239-.877.646-1.4.895-.48.229-.818.822-1.342,1.054-.49.216-1.123.148-1.65.364-.5.2-.81.934-1.34,1.136-.5.192-1.177-.016-1.711.172-.511.179-1.04.345-1.577.518-.516.167-.988.527-1.528.686-.522.153-1,.549-1.538.694-.526.141-1.171-.12-1.717.011-.53.126-1.175-.235-1.723-.12s-.939.9-1.49,1.007-1.227-.676-1.779-.588-1.058.262-1.612.334-1.077.145-1.632.2-1.084.079-1.641.124-1.057.582-1.614.612-1.1.01-1.658.026-1.1-.32-1.659-.318-1.086-.234-1.644-.247-1.138,1.077-1.695,1.05-1.074-.571-1.631-.611-1.093-.132-1.647-.187-1.149.335-1.7.268-.96-1.1-1.511-1.179-1.256.88-1.806.786-.884-1.26-1.43-1.369-1.084-.131-1.628-.252-1.222.4-1.763.268-1.069-.278-1.607-.425-.9-.853-1.433-1.012-1.219.225-1.75.054-1.123-.131-1.65-.313-.987-.529-1.51-.723-1.168-.055-1.687-.259-.674-1.272-1.189-1.487S54.265,3016.645,53.755,3016.418Z" transform="translate(-53.748 -3006.232)" fill="#abb5bb"/>
    </g>
    <g id="Group_393" data-name="Group 393" transform="translate(70.406 2751.093)">
      <path id="Path_1091" data-name="Path 1091" d="M500.5,2959.542c-.063-.843.291-.335,1.2-.939.394-.261.919-.483,1.48-.816.44-.262,1.121-.181,1.662-.474.463-.252.519-1.36,1.055-1.627.479-.239,1.2-.061,1.734-.307.492-.225.85-.824,1.391-1.051.5-.211,1.2.009,1.747-.2.511-.2.911-.751,1.459-.943.519-.182,1.039-.433,1.59-.608.526-.167,1.172.006,1.726-.153.531-.152.938-.831,1.5-.975.536-.137,1.307.642,1.867.514.54-.124.995-.672,1.557-.785.544-.108,1.179.245,1.743.148.547-.095.971-1.015,1.538-1.1.55-.08,1.165.234,1.733.166.552-.066,1.07-.583,1.639-.637.554-.052,1.135.011,1.705-.029s1.165.753,1.736.727,1.087-1.086,1.658-1.1,1.134.687,1.7.688,1.107.466,1.678.48,1.113-.062,1.682-.035,1.129-.212,1.7-.172,1.173-.552,1.74-.5,1.133.053,1.7.117.977,1.237,1.541,1.313,1.226-.673,1.789-.587,1.109.192,1.67.291.954.987,1.513,1.1,1.327-.876,1.883-.756,1.022.6,1.576.733,1.139.092,1.691.232.929.881,1.479,1.032,1.091.253,1.637.412.957.694,1.5.864,1.415-.736,1.956-.557.817,1.1,1.354,1.286.6.173,1.134.369c.1.823-.161-.093-1.06.488-.39.251-.339,1.393-.888,1.719-.432.256-1.058.3-1.586.593-.454.25-1.222-.02-1.744.247-.469.24-.877.647-1.4.9-.481.229-.818.822-1.343,1.054-.489.216-1.123.148-1.65.364-.5.2-.81.934-1.34,1.135-.5.192-1.177-.016-1.711.172-.51.179-1.04.345-1.577.518-.516.166-.988.527-1.528.686-.521.153-1,.55-1.538.694-.526.14-1.171-.121-1.717.01-.53.127-1.175-.236-1.723-.119s-.939.9-1.49,1.007-1.227-.676-1.779-.589-1.058.261-1.612.335-1.077.145-1.633.2-1.084.079-1.641.124-1.057.582-1.614.613-1.1.009-1.658.026-1.1-.32-1.659-.318-1.086-.235-1.644-.247-1.138,1.076-1.695,1.05-1.074-.571-1.63-.612-1.093-.132-1.648-.186-1.149.336-1.7.267-.96-1.1-1.511-1.178-1.257.881-1.806.786-.884-1.26-1.43-1.369-1.084-.132-1.628-.253-1.222.4-1.763.268-1.069-.279-1.607-.425-.9-.853-1.433-1.012-1.219.224-1.75.053-1.123-.131-1.65-.314-.987-.529-1.51-.723-1.168-.054-1.686-.259-.674-1.272-1.189-1.487S501.01,2959.769,500.5,2959.542Z" transform="translate(-500.493 -2949.355)" fill="#abb5bb"/>
    </g>
    <g id="Group_394" data-name="Group 394" transform="translate(157.673 2714.497)">
      <path id="Path_1092" data-name="Path 1092" d="M779.5,2842.542c-.063-.844.291-.335,1.2-.939.395-.261.919-.483,1.48-.817.44-.262,1.121-.18,1.662-.474.463-.252.519-1.36,1.055-1.627.479-.239,1.2-.061,1.734-.307.492-.225.85-.824,1.391-1.051.5-.211,1.2.009,1.746-.2.511-.2.911-.751,1.459-.943.519-.182,1.039-.433,1.59-.608.526-.167,1.172.006,1.726-.153.531-.153.938-.831,1.5-.975.536-.137,1.307.641,1.867.513.54-.123.995-.671,1.557-.784.544-.109,1.178.245,1.743.147.547-.094.971-1.016,1.538-1.1.55-.08,1.165.234,1.733.166.552-.066,1.07-.583,1.639-.637.554-.053,1.135.011,1.705-.029s1.165.753,1.736.728,1.087-1.086,1.658-1.1,1.134.687,1.7.688,1.107.465,1.678.48,1.113-.062,1.682-.035,1.129-.213,1.7-.173,1.173-.552,1.74-.5,1.133.053,1.7.117.977,1.238,1.542,1.314,1.226-.674,1.789-.586,1.109.192,1.67.291.954.987,1.513,1.1,1.327-.876,1.883-.756,1.022.6,1.576.732,1.139.091,1.691.232.929.882,1.479,1.032,1.091.253,1.637.413.957.694,1.5.864,1.415-.736,1.956-.557.817,1.1,1.355,1.286.6.172,1.134.368c.1.823-.161-.092-1.06.488-.39.252-.339,1.394-.888,1.719-.432.256-1.058.3-1.586.593-.454.25-1.222-.02-1.744.248-.469.239-.877.646-1.4.9-.481.228-.818.822-1.343,1.054-.489.217-1.123.148-1.65.365-.5.2-.81.933-1.34,1.135-.5.192-1.177-.016-1.711.171-.51.18-1.04.346-1.577.519-.516.167-.988.527-1.528.686-.521.154-1,.549-1.538.694-.526.141-1.171-.121-1.717.01-.53.127-1.175-.236-1.723-.119s-.939.9-1.49,1.007-1.227-.677-1.779-.588-1.058.261-1.612.334-1.077.145-1.633.2-1.084.079-1.641.124-1.057.582-1.614.613-1.1.01-1.658.026-1.1-.321-1.659-.319-1.086-.234-1.644-.247-1.138,1.077-1.695,1.05-1.074-.571-1.63-.611-1.093-.132-1.648-.187-1.149.336-1.7.268-.96-1.1-1.511-1.179-1.256.88-1.806.785-.884-1.26-1.43-1.368-1.084-.131-1.628-.253-1.222.4-1.764.268-1.069-.278-1.607-.425-.9-.853-1.433-1.012-1.219.224-1.75.053-1.123-.13-1.65-.313-.987-.529-1.51-.723-1.168-.054-1.686-.259-.674-1.272-1.189-1.488S780.01,2842.768,779.5,2842.542Z" transform="translate(-779.493 -2832.355)" fill="#abb5bb"/>
    </g>
    <g id="Group_395" data-name="Group 395" transform="translate(125.978 2789.23)">
      <path id="Path_1093" data-name="Path 1093" d="M678.17,3081.47c-.064-.843.291-.336,1.2-.94.395-.26.92-.482,1.48-.816.44-.262,1.121-.18,1.661-.474.463-.251.519-1.36,1.055-1.627.48-.239,1.2-.061,1.734-.306.492-.225.85-.825,1.391-1.051.5-.211,1.2.009,1.746-.2.511-.2.911-.751,1.459-.942.519-.182,1.039-.433,1.59-.608.525-.167,1.172.006,1.726-.153.531-.152.938-.831,1.5-.974.536-.137,1.307.641,1.867.513.54-.124.995-.671,1.557-.784.544-.109,1.179.245,1.743.147.547-.095.971-1.016,1.538-1.1.55-.08,1.166.234,1.733.166.552-.066,1.07-.583,1.639-.637s1.135.011,1.705-.029,1.165.754,1.736.728,1.087-1.086,1.658-1.1,1.134.686,1.7.688,1.107.466,1.678.48,1.113-.062,1.682-.035,1.129-.212,1.7-.173,1.173-.553,1.74-.5,1.133.052,1.7.117.977,1.237,1.541,1.313,1.226-.674,1.789-.586,1.109.192,1.67.291.954.987,1.513,1.1,1.326-.875,1.883-.755,1.022.6,1.576.733,1.139.091,1.691.232.929.882,1.478,1.031,1.091.252,1.638.413.957.694,1.5.864,1.415-.735,1.956-.557.817,1.1,1.355,1.286.6.172,1.134.368c.1.824-.161-.092-1.06.488-.39.252-.339,1.394-.888,1.719-.432.256-1.058.3-1.586.593-.454.25-1.221-.02-1.744.248-.469.239-.877.646-1.4.9-.481.228-.818.822-1.343,1.054-.489.217-1.123.148-1.65.364-.5.206-.81.934-1.34,1.136-.5.192-1.177-.016-1.711.172-.51.179-1.04.345-1.577.518-.516.167-.988.526-1.528.686-.521.153-1,.549-1.538.694-.526.14-1.171-.12-1.716.01-.53.127-1.175-.235-1.723-.119s-.939.9-1.49,1.007-1.227-.676-1.779-.588-1.058.261-1.612.335-1.077.144-1.633.2-1.084.079-1.641.124-1.057.582-1.614.613-1.1.009-1.658.026-1.1-.321-1.659-.319-1.086-.234-1.644-.247-1.138,1.076-1.695,1.05-1.074-.571-1.631-.611-1.093-.132-1.647-.187-1.149.335-1.7.267-.96-1.1-1.512-1.178-1.256.881-1.806.785-.884-1.26-1.43-1.368-1.084-.131-1.628-.253-1.222.4-1.763.268-1.069-.278-1.607-.425-.9-.853-1.433-1.012-1.219.224-1.75.053-1.123-.131-1.65-.313-.987-.529-1.51-.723-1.168-.054-1.686-.259-.674-1.271-1.189-1.487S678.68,3081.7,678.17,3081.47Z" transform="translate(-678.163 -3071.283)" fill="#abb5bb"/>
    </g>
    <g id="Group_396" data-name="Group 396" transform="translate(-108.221 2735.915)">
      <path id="Path_1094" data-name="Path 1094" d="M-70.578,2910.7c-.064-.844.129-.271,1.042-.875.394-.261,1.114-.15,1.675-.484.439-.262.824-.69,1.364-.984.463-.251.8-.809,1.336-1.075.48-.239.8-.894,1.335-1.141.492-.225.943-.642,1.483-.869.5-.211,1.189-.049,1.732-.257.511-.2.986-.564,1.534-.756.519-.182,1.1-.247,1.652-.422.525-.167,1.18.046,1.735-.113.531-.153.9-.954,1.461-1.1.536-.138,1.323.713,1.883.585.54-.123.933-.971,1.5-1.083.544-.109,1.244.591,1.809.494.547-.1,1.061-.382,1.627-.465.55-.08.995-1.023,1.562-1.091.552-.066,1.2.676,1.771.622s1.089-.383,1.659-.422,1.129.147,1.7.122,1.112-.19,1.683-.2,1.12-.317,1.691-.316,1.121.238,1.692.253,1.138-.32,1.708-.293,1.066.942,1.635.982,1.124-.1,1.692-.046,1.137-.136,1.7-.072,1.093.274,1.658.35,1.05.513,1.613.6,1.14-.075,1.7.023,1.208-.366,1.767-.256,1,.7,1.558.824,1.057.39,1.611.521,1.317-.653,1.87-.513.95.818,1.5.969,1.152.061,1.7.222,1.01.55,1.554.719,1.271-.265,1.811-.086.8,1.141,1.342,1.328.845.213,1.38.409c.1.823-.134.4-1.033.983-.39.252-.666.881-1.215,1.207-.432.256-1.207.029-1.734.319-.454.249-.7.972-1.225,1.239-.469.239-1.008.421-1.53.67-.48.229-1.148.111-1.672.343-.49.217-1.112.154-1.639.37-.5.205-.757,1.051-1.287,1.253-.5.192-1.124.123-1.658.31-.511.18-1.119.1-1.656.273-.516.167-.931.7-1.471.856-.521.154-1.255-.433-1.8-.288-.526.141-.911.841-1.457.971-.53.127-1.121.008-1.669.124s-.931.967-1.482,1.07-1.089.225-1.641.312-1.145-.176-1.7-.1-1.145-.331-1.7-.271-1.063.408-1.619.453-1.112-.181-1.67-.151-1.087.268-1.645.285-1.1-.311-1.659-.309-1.1.515-1.661.5-1.078-.588-1.635-.615-1.1.071-1.655.031-1.082-.176-1.637-.23-1.19.725-1.743.656-1.11-.1-1.662-.18-.974-.905-1.523-1-1.127.053-1.674-.055-1.039-.4-1.583-.524-.991-.564-1.532-.7-1.152.081-1.69-.065-1.1-.152-1.636-.311-1.091-.209-1.621-.38-1.02-.429-1.547-.611-.9-.741-1.425-.935-1.086-.229-1.605-.434-.875-.755-1.389-.971S-70.068,2910.927-70.578,2910.7Z" transform="translate(70.589 -2900.828)" fill="#abb5bb"/>
    </g>
    <g id="Group_397" data-name="Group 397" transform="translate(17.208 2724.662)">
      <path id="Path_1095" data-name="Path 1095" d="M330.427,2874.885c-.073-.842.3-.461,1.143-1.143.369-.3.644-.89,1.17-1.27.416-.3,1-.475,1.508-.809.443-.289,1.1-.3,1.617-.6.463-.273.711-.99,1.23-1.267.479-.254,1.133-.225,1.659-.478.492-.236,1.155-.12,1.689-.349.5-.216.93-.635,1.471-.841.514-.2,1.129-.115,1.676-.3.523-.176.981-.554,1.534-.716.53-.154.938-.818,1.5-.956.537-.133,1.17.086,1.732-.03.542-.112,1.023-.649,1.588-.743.547-.091,1.221.623,1.789.551.55-.07,1.016-1.025,1.586-1.074.553-.049,1.145.131,1.716.1.554-.028,1.132.281,1.7.273.555-.008,1.122-.225,1.693-.212.555.012,1.129-.056,1.7-.023.555.031,1.069.694,1.638.746.554.05,1.123-.059,1.69.012.551.07,1.082.281,1.647.37.549.087,1.1.176,1.656.283s1.051.388,1.608.512,1.219-.313,1.772-.173,1.1.216,1.654.372.916.836,1.461,1.007,1.139.1,1.679.284,1.15.111,1.685.309.835.94,1.365,1.151,1.083.292,1.608.516,1.072.161,1.592.4c.11.819-.412.319-1.239.976-.364.289-.914.465-1.427.836-.408.294-.739.771-1.237,1.1-.431.285-1.034.348-1.531.651-.449.274-.636,1.039-1.137,1.32-.463.259-1,.427-1.511.687-.476.245-.908.627-1.42.867-.486.229-.922.635-1.44.855-.5.211-1.257-.192-1.782.009-.5.193-.827.929-1.357,1.11-.513.175-1.017.459-1.553.62-.519.156-1.141.023-1.682.163-.525.136-1.148-.1-1.693.02s-1.043.339-1.593.436-1.063.279-1.616.354-1.069.316-1.624.37-1.085.331-1.641.363-1.112,0-1.669.01-1.1-.534-1.655-.546-1.1.112-1.653.078-1.088-.119-1.642-.174-1.073-.22-1.625-.3-1.1-.046-1.647-.143-1.171.244-1.716.126-.858-1.13-1.4-1.267-1.285.558-1.82.4-.94-.685-1.469-.86-1.151-.038-1.675-.23-.794-.984-1.311-1.194-1.251.149-1.761-.076-.938-.6-1.441-.838-1-.463-1.494-.718S330.916,2875.154,330.427,2874.885Z" transform="translate(-330.418 -2864.854)" fill="#abb5bb"/>
    </g>
    <g id="Group_398" data-name="Group 398" transform="translate(78.827 2660.854)">
      <path id="Path_1096" data-name="Path 1096" d="M527.427,2670.885c-.072-.842.3-.461,1.143-1.143.369-.3.644-.89,1.17-1.27.416-.3,1-.475,1.508-.809.443-.289,1.1-.3,1.617-.6.463-.273.711-.99,1.23-1.266.479-.255,1.133-.226,1.659-.479.492-.236,1.155-.12,1.689-.349.5-.216.93-.635,1.471-.841.514-.2,1.129-.115,1.676-.3.523-.175.981-.554,1.534-.716.53-.154.938-.818,1.5-.957.537-.133,1.17.086,1.732-.03.542-.112,1.023-.649,1.588-.743.547-.091,1.221.623,1.789.551.55-.07,1.016-1.025,1.586-1.075.553-.049,1.144.131,1.716.1.554-.028,1.132.282,1.7.274.555-.008,1.122-.225,1.693-.213.556.012,1.13-.056,1.7-.023.555.031,1.069.694,1.638.746.554.05,1.123-.059,1.69.012.551.07,1.082.281,1.646.37s1.1.176,1.657.283,1.051.388,1.608.512,1.219-.313,1.772-.173,1.1.216,1.654.372.916.836,1.461,1.007,1.139.1,1.679.284,1.15.111,1.685.309.835.94,1.365,1.152,1.083.292,1.608.515,1.072.161,1.592.4c.11.819-.412.319-1.239.976-.364.289-.914.465-1.427.836-.408.294-.739.772-1.237,1.1-.431.285-1.034.348-1.531.651-.449.274-.636,1.039-1.137,1.32-.463.26-1,.427-1.511.687-.476.245-.908.627-1.42.867-.486.228-.921.635-1.44.855-.5.211-1.257-.192-1.782.009-.5.193-.827.929-1.357,1.11-.513.175-1.017.459-1.553.62-.519.156-1.141.023-1.682.163-.526.136-1.148-.1-1.693.02s-1.043.338-1.593.436-1.063.279-1.616.354-1.069.316-1.624.371-1.085.33-1.641.363-1.112,0-1.669.01-1.1-.534-1.655-.546-1.1.112-1.653.078-1.088-.119-1.642-.174-1.072-.22-1.625-.3-1.1-.046-1.647-.143-1.171.244-1.716.126-.858-1.129-1.4-1.267-1.285.558-1.82.4-.94-.685-1.469-.86-1.151-.038-1.675-.23-.794-.985-1.311-1.193-1.251.149-1.761-.076-.938-.6-1.441-.838-1-.463-1.494-.717S527.915,2671.154,527.427,2670.885Z" transform="translate(-527.418 -2660.854)" fill="#abb5bb"/>
    </g>
    <g id="Group_399" data-name="Group 399" transform="translate(3.095 2792.093)">
      <path id="Path_1097" data-name="Path 1097" d="M285.3,3090.357c-.073-.841,1.059-.227,1.9-.909.369-.3.718-.753,1.244-1.133.416-.3.7-.881,1.214-1.215.443-.289,1.092-.312,1.606-.615.463-.272.663-1.081,1.183-1.357.479-.255,1.253.013,1.779-.239.492-.235.971-.532,1.5-.761.5-.216.982-.534,1.522-.74.514-.2,1.193.053,1.74-.13.523-.175.814-1.128,1.367-1.29.53-.154,1.22.222,1.778.083.537-.133,1.063-.344,1.625-.46.542-.112,1.069-.365,1.634-.458.547-.091,1.125-.034,1.693-.105.55-.07,1.121.019,1.691-.032.552-.049,1.086-.5,1.657-.532.554-.027,1.128.152,1.7.144.555-.008,1.119,0,1.69.015.555.012,1.133-.216,1.7-.184.555.032,1.109.259,1.678.311.554.05,1.08.4,1.647.468.552.07,1.19-.405,1.754-.315.549.086.957,1.013,1.519,1.119s1.294-.734,1.852-.61,1.1.277,1.652.417.985.677,1.534.833.954.7,1.5.875,1.278-.306,1.818-.122.952.678,1.487.876,1.148.144,1.678.355.767,1.075,1.292,1.3,1.349,0,1.869.24c.11.818-.843.087-1.67.744-.364.289-.5,1.01-1.015,1.381-.408.294-.789.723-1.286,1.053-.431.286-1.008.412-1.505.715-.449.274-1.1.233-1.6.514-.463.26-.911.563-1.417.823-.475.244-.787.848-1.3,1.088-.486.229-1.187,0-1.705.216-.5.211-1.019.34-1.544.542-.5.193-.7,1.261-1.233,1.442-.513.174-1.076.271-1.612.432-.519.155-1.165-.089-1.706.05-.526.136-1.039.355-1.585.474s-1,.661-1.545.759-1.1.2-1.648.275-1.117.022-1.672.076-1.107.078-1.663.11-1.115-.337-1.671-.327-1.089-.2-1.646-.214-1.087,0-1.643-.033-1.145.523-1.7.468-.987-.965-1.539-1.042-1.1.04-1.65-.058-1.057-.249-1.6-.366-1.021-.382-1.561-.52-1.095-.1-1.63-.255-1.079-.194-1.608-.368-1.217.152-1.74-.04-.82-.925-1.337-1.134-1.188-.005-1.7-.23-1-.463-1.5-.7-.825-.807-1.322-1.062S285.789,3090.625,285.3,3090.357Z" transform="translate(-285.296 -3080.435)" fill="#abb5bb"/>
    </g>
  </g>
</svg>
