<svg xmlns="http://www.w3.org/2000/svg" width="136.557" height="191.084" viewBox="0 0 136.557 191.084">
  <g id="bird" transform="translate(-189.707 -304.559)">
    <g id="Group_385" data-name="Group 385" transform="translate(212.231 304.559)">
      <g id="Group_380" data-name="Group 380" transform="translate(0 0)">
        <path id="Path_1082" data-name="Path 1082" d="M385.446,396.713c-1.926-7.369-5.052-3.86-8.624-8.719-6.258-8.512-4.892-16.5-8.733-19.889a50.535,50.535,0,0,1-10.548-13.964c-3.571-7.193-6.84-14.487-7.037-16.391-.387-3.744-3.685-21.4-7.062-25.92a17.945,17.945,0,0,0-15.5-7.262c-12.471,1.024-19.459,2.056-18.242,13.822-3.788,5.573-9.847,2.477-9.815,8.419,7.2,2.627,13.192-1.942,15.306,1.623a41.509,41.509,0,0,1,3.043,6.545c.742,1.545,2.127,2.736,1.252,5.529-.431,1.377,1.143,8.7-.03,15.416-1.207,6.91-3.746,13.519-3.634,14.6.221,2.139-1.216,9.273-5.08,11.295s-9.682,7.678-13.592,20.515-4.866,22.639-8.1,25.136-23.692,9.087-15.043,14.069c5.214,3,10.681,2.322,15.486,1.671,7.266-.986,13.278-3.325,15.524-1.93,3.731,2.317,13.157,4.086,19.025,4.56.15.012.159.68.337.689,1.118,3.8,3.87,10.868,5.971,17.875,2.767,9.228,5.233,8.558,6.972,17.8.661,3.513-2.006,5.4-4.143,7.24s-6.746,1.757-6.374,5.359c.175,1.691,2.554.415,4.268-.2,2.932-1.056,1.959-3.322,5.073-3.644,7.962-.823,7.932,1.808,15.928,1.534,1.157-.04,1.343-1.78.324-2.274-3.016-1.463-7.6.029-7.022-.031.394-.041,5.653-.6,8.959-.62-.155.175-.574.709-.386.753,1.767.417,2.2,1.428,3.918.81,2.931-1.056,1.561-3.426,4.675-3.747,7.962-.824,7.847,2.35,15.844,2.075,1.156-.04,1.085-3.277.066-3.771-3.016-1.462-7.335.214-6.759.154s5.686-.8,11.435-1.678c.858-.132.827-1.157.017-1.436-5.718-1.97-6.136-.577-12.006-2.131-3.422-.906-4.152-1.875-5-4.49-2.467-7.182-3.367-6.879-5.855-14.055s-2.375-7.22-3.607-14.689c-.753-4.56-.516-4.5,1.445-8.773,4.379-2.716,6.679-7.324,9.249-11.984,6.805-3.922,11.95-2.562,13.811-7.079S387.372,404.082,385.446,396.713ZM360.7,477.849c.648,3.515,1.567,5.525-.57,7.368-1.048.9-3.047-.588-4.085.521-5.658-.592-5.705,1.019-11.165-.441-3.419-.915-4.314-1.644-5.166-4.258-4.458-12.52-5.78-12.162-8.681-25.092-1.084-4.832-1.473-5.247,1.211-9.56,5.321-.563,11.711-1.076,18.294-3.84,1.408,4.793,2.834,10.848,4.749,17.306C358.1,469.327,359,468.583,360.7,477.849Z" transform="translate(-271.897 -304.559)" fill="#d3c4b6"/>
      </g>
      <g id="Group_381" data-name="Group 381" transform="translate(42.715 92.027)">
        <path id="Path_1083" data-name="Path 1083" d="M443.92,641.935c-.468-2.317-4.25-1.967-3.777.372a46.206,46.206,0,0,1,.891,11.039A22.113,22.113,0,0,1,437.9,663.9c-1.805,2.882-4.769,4.8-8.89,5.957-2.46.688-.925,4.508,1.527,3.822A18.208,18.208,0,0,0,438,669.06a20.3,20.3,0,0,0,4.92-7.208c1.291-3.208,2.443-6.477,2.44-9.833A52.01,52.01,0,0,0,443.92,641.935Z" transform="translate(-427.762 -640.365)" fill="#af886a"/>
      </g>
      <g id="Group_382" data-name="Group 382" transform="translate(32.431 107.424)">
        <path id="Path_1084" data-name="Path 1084" d="M401.784,697.581c-2.417,4.053-6.322,6.884-10.64,9.173-2.235,1.184.09,4.114,2.31,2.938a24.524,24.524,0,0,0,11.768-10.711C406.476,696.878,403.027,695.5,401.784,697.581Z" transform="translate(-390.236 -696.548)" fill="#af886a"/>
      </g>
      <g id="Group_383" data-name="Group 383" transform="translate(82.517 86.331)">
        <path id="Path_1085" data-name="Path 1085" d="M587.256,643a39.454,39.454,0,0,1-6.842-10.191,36.743,36.743,0,0,1-3.829-11.631c-.308-2.358-3.875-2.009-3.566.358a30.044,30.044,0,0,0,5.908,16.436,41.235,41.235,0,0,0,5.571,6.779C586.191,646.484,588.971,644.755,587.256,643Z" transform="translate(-573 -619.579)" fill="#af886a"/>
      </g>
      <g id="Group_384" data-name="Group 384" transform="translate(93.494 88.461)">
        <path id="Path_1086" data-name="Path 1086" d="M621.211,635.106a18.239,18.239,0,0,1-4.2-6.629c-.863-2.23-4.692-.821-3.827,1.415a22.618,22.618,0,0,0,5.563,8.036C620.5,639.633,622.952,636.793,621.211,635.106Z" transform="translate(-613.057 -627.352)" fill="#af886a"/>
      </g>
    </g>
    <g id="Group_389" data-name="Group 389" transform="translate(189.707 378.552)">
      <g id="Group_388" data-name="Group 388" transform="translate(0 0)">
        <g id="Group_386" data-name="Group 386" transform="translate(6.809)">
          <path id="Path_1087" data-name="Path 1087" d="M251.685,574.559c-1.375.073-2.754.25-4.142.36s-2.784.052-4.154.27a32.326,32.326,0,0,0-4.095.815,24.324,24.324,0,0,0-3.931,1.457,25.778,25.778,0,0,0-3.528,2.252c-1.126.812-2.146,1.784-3.213,2.644-.876.705-1.83,1.333-2.743,2.016a30.008,30.008,0,0,1-2.885,1.76,11.364,11.364,0,0,1-3.381,1.507,6.9,6.9,0,0,1-3.617-.267c-.538-.166-1.318.491-1.428.974s.374,1.07.918,1.237a8.847,8.847,0,0,0,2.685.566,10.544,10.544,0,0,0,3.647-.957,18.508,18.508,0,0,0,3.337-1.736c1.056-.695,2.223-1.275,3.192-2.043.448-.355.7-.961,1.141-1.321.773-.624,1.5-1.338,2.307-1.949s1.738-1.052,2.579-1.582a20.234,20.234,0,0,1,3.647-2.069,29.612,29.612,0,0,1,4.126-.755A42.355,42.355,0,0,1,246.9,577c1.612-.147,3.214-.359,4.8-.444.017,0,.039.409.056.408.573-.031.982-.948.959-1.467A1,1,0,0,0,251.685,574.559Z" transform="translate(-214.553 -574.558)" fill="#d3c4b6"/>
        </g>
        <g id="Group_387" data-name="Group 387" transform="translate(0 22.674)">
          <path id="Path_1088" data-name="Path 1088" d="M223.892,659.5a10.426,10.426,0,0,0-3.987-2.037,12.6,12.6,0,0,0-4.485.094,18.4,18.4,0,0,0-4.213,1.4,28.8,28.8,0,0,0-4.019,1.834c-1.255.772-2.472,1.63-3.67,2.453-1.586,1.089-3.042,2.507-4.727,3.455a21.62,21.62,0,0,1-3.758,1.869,13.125,13.125,0,0,1-4.182.372,1.131,1.131,0,0,0-1.144.941c0,.515.6,1.345,1.17,1.351.122,0,.25-.086.371-.088a14.3,14.3,0,0,0,3.6-.72,19.7,19.7,0,0,0,3.24-1.637,34.773,34.773,0,0,0,3.382-1.4c1.023-.651,1.856-1.6,2.854-2.285,1.2-.82,2.366-1.729,3.606-2.492a28.36,28.36,0,0,1,4.013-1.771,15.834,15.834,0,0,1,4.173-1.221,10.2,10.2,0,0,1,3.611.144,8.72,8.72,0,0,1,3.3,1.5c.464.35.776.091.989-.29A1.116,1.116,0,0,0,223.892,659.5Z" transform="translate(-189.707 -657.297)" fill="#d3c4b6"/>
        </g>
      </g>
    </g>
  </g>
</svg>
