<svg xmlns="http://www.w3.org/2000/svg" width="221.518" height="152.855" viewBox="0 0 221.518 152.855">
  <g id="cat" transform="translate(-239 -288)">
    <g id="Group_378" data-name="Group 378" transform="translate(239 288)">
      <g id="Group_377" data-name="Group 377" transform="translate(64.663)">
        <path id="Path_1074" data-name="Path 1074" d="M4196.451,3092.852c-2.609,2.8-3.839-.005-7.663-.005s-5.029,2.777-7.637-.02c-2.8-3-.006-4.089-.006-8.189s-.014-4.1-.014-8.2-2.8-5.212,0-8.209c2.608-2.8,3.834.006,7.659.006s5.051-2.8,7.66-.008c2.8,3-.015,4.111-.015,8.211s-.819,4.183.021,8.2C4197.349,3088.9,4199.247,3089.854,4196.451,3092.852Z" transform="translate(-4134.986 -2988.972)" fill="#af886a"/>
        <path id="Path_1075" data-name="Path 1075" d="M4449.1,2753.5c-2.609,2.8-3.828-.014-7.652-.014s-5.056,2.822-7.664.025c-2.8-3,.016-4.115.016-8.214s0-4.1,0-8.2-2.8-5.208,0-8.206c2.608-2.8,3.83.022,7.654.022s5.041-2.814,7.649-.018c2.8,3-.006,4.1-.006,8.2s-.844,4.188,0,8.2C4449.973,2749.563,4451.892,2750.5,4449.1,2753.5Z" transform="translate(-4329.553 -2727.654)" fill="#af886a"/>
        <path id="Path_1076" data-name="Path 1076" d="M4605.049,2908.637c-2.608,2.8-3.831-.028-7.654-.028s-5.023,2.8-7.631.006c-2.8-3-.025-4.084-.025-8.184s-.007-4.1-.007-8.2-2.786-5.206.01-8.2c2.608-2.8,3.829.017,7.653.017s5.035-2.8,7.643-.008c2.8,3-.017,4.095-.017,8.194s-.829,4.189.01,8.2C4605.922,2904.7,4607.846,2905.639,4605.049,2908.637Z" transform="translate(-4449.654 -2847.123)" fill="#af886a"/>
        <path id="Path_1077" data-name="Path 1077" d="M4507.478,3088.971c-2.609,2.8-3.829,0-7.652,0s-5.027,2.781-7.635-.015c-2.8-3-.008-4.088-.008-8.187v-8.2c0-4.1-2.8-5.2,0-8.2,2.608-2.8,3.821,0,7.645,0s5.051-2.811,7.659-.015c2.8,3-.021,4.11-.021,8.21s-.83,4.187.008,8.2C4508.362,3085.033,4510.273,3085.973,4507.478,3088.971Z" transform="translate(-4374.524 -2985.994)" fill="#af886a"/>
        <path id="Path_1078" data-name="Path 1078" d="M4363.118,2943.6c-2.607,2.8-3.818,0-7.641,0s-5.038,2.8-7.646,0c-2.8-3,0-4.1,0-8.2s.014-4.1.014-8.2-2.816-5.2-.02-8.2c2.607-2.8,3.827-.018,7.651-.018s5.054-2.788,7.662.008c2.8,3-.009,4.113-.009,8.213s-.835,4.184,0,8.2C4364.019,2939.668,4365.915,2940.605,4363.118,2943.6Z" transform="translate(-4263.361 -2874.047)" fill="#af886a"/>
        <path id="Path_1079" data-name="Path 1079" d="M4001.118,2849.6c-2.608,2.8-3.818,0-7.642,0s-5.037,2.8-7.646,0c-2.8-3,0-4.1,0-8.2s.014-4.1.014-8.2-2.817-5.205-.021-8.2c2.608-2.8,3.828-.018,7.651-.018s5.054-2.788,7.662.008c2.8,3-.008,4.113-.008,8.212s-.835,4.185,0,8.2C4002.018,2845.668,4003.914,2846.605,4001.118,2849.6Z" transform="translate(-3984.587 -2801.659)" fill="#af886a"/>
        <path id="Path_1080" data-name="Path 1080" d="M4160.185,2888.617c-2.608,2.8-3.807.01-7.63.01s-5.028,2.792-7.636,0c-2.8-3-.023-4.088-.023-8.188s0-4.1,0-8.2-2.773-5.186.023-8.184c2.608-2.8,3.807-.006,7.631-.006s5.044-2.811,7.652-.015c2.8,3,.011,4.1.011,8.2s-.866,4.189-.033,8.2C4161.069,2884.692,4162.981,2885.62,4160.185,2888.617Z" transform="translate(-4107.097 -2831.723)" fill="#af886a"/>
      </g>
      <path id="Path_1081" data-name="Path 1081" d="M3730.911,3020.283c-1.984.463-1.812-.8-3.191,1.042s-2.523,4.676-4.822,5.366-4.378,6.215-4.608,10.353-1.676,10.075-3.745,11c-1.385.615-4.185.793-7.072,3.622a16.708,16.708,0,0,0-4.145,7.183c3.739,2.488,4.539-1.211,8.9-2.245,3.895-.923,7.1-2.03,8.081-1.271-.247,2.44-.708,3.494,3.2,3.035s2.473-1.406,4.819-.4c4.3,1.843,6.859,3.786,8.7,3.1a65.4,65.4,0,0,0,7.412,2.818c2.2.732,4.714,2.351,7.813,2.2,1.889-.092,4.613-1.147,7.9-1.463,2.419-.233,5.114-.492,7.935-.8,2.577-.277,5.265-.5,7.937-.8,2.692-.3,5.371-.631,7.924-.926,2.857-.331,5.51-1.025,7.879-1.3,3.569-.415,6.515.322,8.042.164,1.649-.171,4.3-.6,7.4-1.208,2.233-.441,4.718-1.049,7.285-1.635,2.392-.545,4.99-.655,7.38-1.268,2.532-.649,4.652-2.561,6.854-3.219,2.9-.868,5.873-.5,7.527-1.249,2.187-.988,4.808-3.154,7.973-4.566,2.8-1.249,5.781-2.44,8.425-3.56,4.105-1.739,7.419-3.3,8.486-3.4,1.3-.119,4.174-1.633,7.08-3.249a38.779,38.779,0,0,0,6.149-4.742c2.529-2.069,7.17-2.841,9.009-3.071s6.012-3.827,6.472-5.666,4.4-5.008,6.931-5.008c1.238,0,5.392-1.485,9.4-3.043,4.181-1.625,7.36-3.343,7.242-4.986-.23-3.219-3.767-5.454-6.525-5.454a21.9,21.9,0,0,0-6.672,1.482c-2.427.944-4.642,2.54-5.9,3.111a17.43,17.43,0,0,1-6.953,1.741c-3.115-.017-5.944-1.953-6.892-2.19-1.839-.46,1.149-6.713-1.15-8.552-1.128-.9-4.038.133-6.439.227-2.49.1-5.453-.454-6.271.716-1.609,2.3-4.862,6.863-6.241,5.484-.73-.73-3.724-1.043-6-2.425-2.025-1.229-2.7-3.372-4.218-3.589-.906-4.6-1.149-4.538-.612-9.2.5-4.319.973-8.568.973-9.231,0-1.379,2.313-5.122,3.692-5.812s2.788-7.058.029-8.438-7.344,1.968-8.264,5.187c-.477,1.669-2.043,4.339-3.047,7.241a26.493,26.493,0,0,0-1.792,7.624c-3.589.022-3.364-1.327-6.373-3.484-2.183-1.563-4.167-3.538-5.616-4.408a12.442,12.442,0,0,0-6.952-1.983c-2.576.146-5.584.555-7.264,2.236-1.662,1.662-2.086,5.376-3.384,8.392-1.4,3.241-3.124,6.295-3.481,8.2-2.889,2.42-3.163.317-7.4,1.686-2.131.689-4.289,2.391-6.851,3.282-2.325.81-5.2.451-7.542,1.352-2.463.948-4.493,2.834-6.608,3.8a32.6,32.6,0,0,0-6.378,3.425c-2.885-2.858-.586-3.969-1.966-7.792a24.9,24.9,0,0,0-3.957-7c2.439-.394,5.079-.578,5.31.112s9.988-3.171,6.31-7.769a9.846,9.846,0,0,0-6.175-3.449c-2.888-.446-5.783.184-7.082.184-2.3,0-7.262.966-8.182,3.725a26.613,26.613,0,0,0-1.222,7.21,56.942,56.942,0,0,0,.263,7.281,56.146,56.146,0,0,1,.343,7.043c-.028,3.3.084,6.086-.418,6.713-.919,1.15-4.634,1.585-6.933,3.195s-.687,4.7-3.076,3.845c-3.74-1.346-4.685-4.418-6.754-4.418S3735.51,3017.753,3730.911,3020.283Z" transform="translate(-3703.33 -2913.231)" fill="#d3c4b6"/>
    </g>
  </g>
</svg>
