<?xml version="1.0" encoding="utf-8"?>
<!-- Generator: Adobe Illustrator 22.0.1, SVG Export Plug-In . SVG Version: 6.00 Build 0)  -->
<svg version="1.1" id="圖層_1" xmlns="http://www.w3.org/2000/svg" xmlns:xlink="http://www.w3.org/1999/xlink" x="0px" y="0px"
	 viewBox="0 0 491 143" style="enable-background:new 0 0 491 143;" xml:space="preserve">
<style type="text/css">
	.st0{enable-background:new    ;}
	.st1{fill:#FEF5EF;}
</style>
<g id="Group_325" transform="translate(-200 -319)">
	<g class="st0">
		<path class="st1" d="M216.7,335.9c0.2-0.5,0.6-0.9,1.1-1.1c0.3-0.2,0.6-0.2,0.9-0.2c0.2,0,0.4,0,0.6,0.1c0.5,0.2,0.8,0.5,1.1,0.9
			s0.3,0.9,0.1,1.4c-1.4,3.4-3.2,6.8-5.2,10.3c-0.2,0.2-0.2,0.5-0.2,0.8v38.3c0,0.5-0.2,1-0.6,1.4c-0.4,0.4-0.8,0.6-1.3,0.6
			s-1-0.2-1.3-0.6c-0.4-0.4-0.6-0.8-0.6-1.4v-32.5c0,0,0-0.1-0.1-0.1c-0.1,0-0.1,0-0.1,0.1c-1.7,2.4-3.4,4.5-5.2,6.3
			c-0.4,0.4-0.8,0.5-1.4,0.5c-0.5-0.1-0.9-0.4-1.3-0.9c-0.3-0.4-0.4-0.9-0.4-1.5c0-0.1,0-0.2,0.1-0.3c0-0.6,0.3-1.2,0.8-1.6
			c2.6-2.7,5-5.8,7.3-9.3C213.2,343.4,215.1,339.7,216.7,335.9z M256,367.7c0.5,0,0.9,0.2,1.3,0.6c0.4,0.4,0.6,0.8,0.6,1.3
			c0,0.5-0.2,0.9-0.6,1.3c-0.4,0.4-0.8,0.6-1.3,0.6h-15.8c-0.3,0-0.4,0.1-0.4,0.4v14.7c0,0.5-0.2,1-0.6,1.4
			c-0.4,0.4-0.9,0.6-1.4,0.6c-0.5,0-1-0.2-1.4-0.6c-0.4-0.4-0.6-0.9-0.6-1.4v-14.7c0-0.3-0.1-0.4-0.4-0.4h-15.2
			c-0.5,0-0.9-0.2-1.3-0.6c-0.4-0.4-0.6-0.8-0.6-1.3c0-0.5,0.2-0.9,0.6-1.3c0.4-0.4,0.8-0.6,1.3-0.6h15.2c0.3,0,0.4-0.1,0.4-0.4v-10
			c0-0.3-0.1-0.5-0.4-0.5h-12.8c-0.5,0-0.9-0.2-1.3-0.6c-0.4-0.4-0.6-0.8-0.6-1.3s0.2-1,0.6-1.3c0.4-0.4,0.8-0.5,1.3-0.5h12.8
			c0.3,0,0.4-0.2,0.4-0.5v-16c0-0.5,0.2-1,0.6-1.4c0.4-0.4,0.9-0.6,1.4-0.6c0.5,0,1,0.2,1.4,0.6c0.4,0.4,0.6,0.9,0.6,1.4v16
			c0,0.3,0.1,0.5,0.4,0.5h13.4c0.5,0,0.9,0.2,1.3,0.5c0.4,0.4,0.6,0.8,0.6,1.3s-0.2,1-0.6,1.3c-0.4,0.4-0.8,0.6-1.3,0.6h-13.4
			c-0.3,0-0.4,0.2-0.4,0.5v10c0,0.3,0.1,0.4,0.4,0.4H256z M230.1,347.7c0.2,0.5,0.2,1.1-0.1,1.6c-0.2,0.5-0.6,0.9-1.2,1.1
			c-0.5,0.2-0.9,0.2-1.4-0.1s-0.8-0.6-0.9-1.1c-0.9-3-2.3-6.1-4-9.4c-0.2-0.4-0.3-0.9-0.1-1.3c0.2-0.4,0.5-0.8,0.9-1
			c0.5-0.2,1-0.2,1.5,0c0.5,0.2,0.9,0.5,1.1,0.9C227.7,341.7,229.1,344.8,230.1,347.7z M250,338.5c0.2-0.5,0.6-0.9,1.1-1.2
			s1.1-0.3,1.6-0.1c0.5,0.2,0.9,0.6,1.1,1.1c0.2,0.5,0.2,1-0.1,1.6c-2.2,4.4-3.9,7.6-5.2,9.8c-0.2,0.4-0.6,0.7-1.1,0.8
			c-0.5,0.1-0.9,0.1-1.4-0.1c-0.4-0.2-0.7-0.5-0.8-0.9c-0.1-0.4-0.1-0.8,0.1-1.2C247.1,345.1,248.6,341.9,250,338.5z"/>
		<path class="st1" d="M277.5,335.9c0.2-0.5,0.6-0.9,1.1-1.1c0.3-0.2,0.6-0.2,0.9-0.2c0.2,0,0.4,0,0.6,0.1c0.5,0.2,0.9,0.5,1.1,0.9
			s0.2,1,0,1.5c-1.6,3.8-3.4,7.4-5.3,10.7c-0.1,0.3-0.2,0.5-0.2,0.8v38c0,0.5-0.2,1-0.6,1.4c-0.4,0.4-0.8,0.6-1.4,0.6
			s-1-0.2-1.3-0.6c-0.4-0.4-0.6-0.8-0.6-1.4v-32c0-0.1,0-0.1-0.1-0.1c-0.1,0-0.1,0-0.1,0c-1.4,2-3,4-4.7,5.9
			c-0.4,0.4-0.8,0.6-1.3,0.5c-0.5-0.1-0.9-0.4-1.3-0.8c-0.3-0.5-0.4-1-0.4-1.6c0-0.7,0.3-1.4,0.8-1.9
			C270,350.9,274.3,344,277.5,335.9z M314.7,349.7c0-0.3-0.1-0.4-0.4-0.4h-11.1c-0.3,0-0.5,0.2-0.5,0.5v33.9c0,1.2-0.1,2.1-0.4,2.7
			s-0.8,1.1-1.5,1.5c-1.1,0.5-3,0.7-5.7,0.8h-0.1c-0.6,0-1.1-0.2-1.6-0.6c-0.5-0.4-0.9-0.9-1.1-1.5c-0.2-0.5-0.1-0.9,0.2-1.3
			c0.3-0.4,0.7-0.6,1.2-0.6c0.8,0,1.4,0,1.8,0c0.4,0,0.9,0,1.4,0s0.8,0,0.8,0c0.4,0,0.7-0.1,0.8-0.2c0.2-0.1,0.2-0.4,0.2-0.8v-33.9
			c0-0.3-0.2-0.5-0.5-0.5h-8.7c-0.3,0-0.5,0.1-0.6,0.4c-1.3,3.1-2.8,5.9-4.5,8.4c-0.3,0.5-0.7,0.7-1.2,0.8c-0.5,0.1-1-0.1-1.5-0.4
			c-0.4-0.4-0.7-0.8-0.8-1.3c0-0.1,0-0.2,0-0.4c0-0.4,0.1-0.8,0.4-1.2c3.4-4.9,6.1-11.4,8.1-19.6c0.2-0.5,0.5-0.9,0.9-1.2
			c0.3-0.2,0.7-0.3,1.1-0.3c0.1,0,0.3,0,0.5,0.1c0.5,0.1,0.9,0.4,1.2,0.9s0.4,1,0.2,1.5c-0.8,3.1-1.7,5.9-2.5,8.2c0,0.1,0,0.2,0,0.3
			c0.1,0.1,0.1,0.1,0.3,0.1h24.6c0.1,0,0.1,0,0.2-0.1c0.4-0.1,0.8-0.1,1.2,0l0.7,0.2c0.4,0.1,0.7,0.3,0.9,0.6
			c0.2,0.2,0.2,0.5,0.2,0.8c0,1.1-0.7,4.3-2,9.8c-0.1,0.5-0.4,0.8-0.8,1.1c-0.4,0.3-0.8,0.3-1.3,0.2c-0.5-0.1-0.8-0.3-1.1-0.7
			c-0.3-0.4-0.3-0.8-0.3-1.3C313.9,354.5,314.3,352.3,314.7,349.7z M288.8,361.1c0.1-0.5,0.4-0.9,0.9-1.2s1-0.4,1.5-0.3
			c0.5,0.1,0.9,0.4,1.2,0.8s0.4,1,0.2,1.5c-1.8,6.6-4.2,12.2-7.1,16.9c-0.3,0.5-0.8,0.8-1.3,0.8c-0.6,0.1-1.1,0-1.6-0.3
			c-0.4-0.3-0.7-0.7-0.8-1.2c-0.1-0.5,0-1,0.3-1.5C284.8,372.7,287.1,367.5,288.8,361.1z M308.4,361.6c-0.1-0.2-0.2-0.5-0.2-0.7
			s0-0.4,0.1-0.6c0.2-0.5,0.5-0.8,0.9-0.9c0.2-0.1,0.5-0.1,0.7-0.1c0.3,0,0.5,0.1,0.8,0.2c0.5,0.2,0.9,0.5,1.1,1
			c3,5.8,5.2,11.3,6.4,16.6c0,0.2,0.1,0.3,0.1,0.5c0,0.4-0.1,0.7-0.3,1c-0.3,0.5-0.7,0.9-1.3,1.1c-0.2,0-0.3,0.1-0.5,0.1
			c-0.3,0-0.6-0.1-0.9-0.2c-0.5-0.3-0.8-0.7-0.9-1.2C313.3,372.9,311.2,367.3,308.4,361.6z"/>
		<path class="st1" d="M346.9,361.6c0.1,0.5,0,1-0.3,1.4c-0.3,0.4-0.7,0.8-1.2,0.9l-5.9,1.8c-0.3,0.1-0.4,0.3-0.4,0.5v16.9
			c0,1.2-0.2,2.1-0.5,2.7c-0.3,0.6-0.9,1.1-1.6,1.4c-1,0.5-3,0.8-6,0.8c-0.6,0-1.1-0.1-1.6-0.5c-0.4-0.4-0.8-0.8-1-1.4
			c-0.2-0.4-0.1-0.8,0.2-1.2c0.3-0.4,0.6-0.6,1.1-0.6c0.1,0,1.5,0,4.3,0c0.8,0,1.2-0.4,1.2-1.1v-15.8c0-0.1,0-0.2-0.1-0.3
			c-0.1-0.1-0.2-0.1-0.3-0.1c-2.3,0.7-4.2,1.3-5.9,1.8c-0.5,0.2-1.1,0.1-1.6-0.1c-0.5-0.3-0.8-0.7-1-1.2c0-0.2-0.1-0.4-0.1-0.6
			c0-0.3,0.1-0.6,0.2-0.9c0.3-0.5,0.7-0.8,1.2-0.9c1.6-0.4,4-1.1,7-1.9c0.3-0.1,0.5-0.3,0.5-0.6v-12.4c0-0.3-0.2-0.5-0.5-0.5h-6.4
			c-0.5,0-0.9-0.2-1.3-0.5c-0.4-0.4-0.6-0.8-0.6-1.3s0.2-1,0.6-1.3c0.4-0.4,0.8-0.5,1.3-0.5h6.4c0.3,0,0.5-0.2,0.5-0.5v-9.8
			c0-0.5,0.2-1,0.6-1.4c0.4-0.4,0.8-0.6,1.4-0.6c0.5,0,1,0.2,1.4,0.6c0.4,0.4,0.6,0.8,0.6,1.4v9.8c0,0.3,0.2,0.5,0.5,0.5h5
			c0.5,0,1,0.2,1.3,0.5s0.5,0.8,0.5,1.3s-0.2,1-0.5,1.3s-0.8,0.5-1.3,0.5h-5c-0.3,0-0.5,0.2-0.5,0.5v11.4c0,0.1,0,0.2,0.1,0.3
			c0.1,0.1,0.2,0.1,0.3,0l5.4-1.6c0.4-0.1,0.8,0,1.3,0.2C346.7,360.8,346.9,361.1,346.9,361.6z M372.4,358.1
			c0.2-0.5,0.6-0.8,1.1-0.9c0.5-0.1,0.9-0.1,1.4,0.1c0.4,0.3,0.7,0.7,0.9,1.2c0.2,0.5,0.1,1-0.1,1.5c-2.4,4.8-5.5,9.3-9.4,13.4
			c-0.2,0.2-0.2,0.5-0.1,0.8c2.4,6,5.4,9.1,8.8,9.5h0.1c0.7,0,1.2-0.6,1.8-1.9c0.5-1.3,0.9-3.3,1.2-6c0.1-0.4,0.3-0.7,0.7-0.9
			c0.4-0.2,0.8-0.1,1.1,0.1c1,0.6,1.5,1.4,1.5,2.4c0,0.2,0,0.3-0.1,0.5c-0.6,3.8-1.4,6.5-2.5,8c-1,1.5-2.1,2.3-3.5,2.3
			c0,0-0.1,0-0.2,0c-5-0.4-9.1-4-12.1-11c-0.1-0.3-0.3-0.3-0.5-0.1c-3.8,3.4-7.7,6.2-11.8,8.2c-0.5,0.3-1.1,0.3-1.7,0.2
			c-0.6-0.1-1.1-0.4-1.6-0.9c-0.3-0.3-0.5-0.6-0.5-1c0-0.6,0.3-1.1,0.8-1.3c4.6-2.1,9.1-5.2,13.2-9.1c0.2-0.2,0.3-0.4,0.2-0.8
			c-1.6-5-2.9-11.1-3.9-18.5c0-0.3-0.2-0.4-0.5-0.4l-7.3,0.8c-0.5,0-1-0.1-1.3-0.4c-0.4-0.3-0.6-0.7-0.7-1.3s0.1-1,0.4-1.4
			c0.3-0.4,0.7-0.6,1.2-0.7l7.3-0.8c0.3,0,0.4-0.2,0.4-0.5c-0.5-4.3-0.8-8.8-1.1-13.5c0-0.5,0.1-1,0.5-1.4c0.4-0.4,0.8-0.6,1.4-0.6
			c0.5,0,1,0.2,1.4,0.6c0.4,0.4,0.6,0.9,0.7,1.4c0.2,4.9,0.6,9.3,1.1,13.1c0,0.3,0.2,0.4,0.5,0.4l16.2-1.7c0.5-0.1,1,0,1.3,0.4
			c0.4,0.3,0.6,0.8,0.7,1.3c0.1,0.5-0.1,1-0.4,1.3c-0.3,0.4-0.7,0.6-1.2,0.6l-16.2,1.8c-0.3,0-0.4,0.2-0.4,0.5
			c0.8,6,1.9,11.2,3.2,15.5c0,0.1,0.1,0.1,0.2,0.2c0.1,0,0.2,0,0.2-0.1C367.9,365.9,370.4,362.1,372.4,358.1z M374.1,342.5
			c0.3,0.4,0.4,0.8,0.4,1.4c-0.1,0.5-0.3,0.9-0.8,1.3c-0.4,0.3-0.9,0.4-1.4,0.4c-0.5-0.1-0.9-0.3-1.3-0.8c-1.5-1.9-3.4-3.9-5.7-6
			c-0.3-0.3-0.5-0.7-0.4-1.1c0-0.4,0.2-0.8,0.6-1.1c0.4-0.3,0.9-0.4,1.5-0.4c0.5,0,1,0.2,1.4,0.6
			C370.7,338.7,372.6,340.7,374.1,342.5z"/>
		<path class="st1" d="M405.6,379.9c0,0.3,0.2,0.4,0.5,0.4l11.2-1.5c0.5-0.1,0.9,0,1.3,0.4c0.4,0.3,0.6,0.7,0.6,1.2
			c0,0.5-0.2,1-0.5,1.4c-0.3,0.4-0.8,0.7-1.3,0.7c-3.9,0.5-9.2,1.3-16,2.3s-10.5,1.5-11.1,1.6c-0.6,0.1-1.1,0-1.6-0.4
			c-0.4-0.3-0.7-0.8-0.8-1.3c0-0.1-0.1-0.2-0.1-0.4c0-0.2,0.1-0.5,0.2-0.7c0.1-0.3,0.3-0.6,0.6-0.8c0.3-0.2,0.6-0.3,1-0.4
			c3.6-0.4,7.5-0.9,11.6-1.5c0.3,0,0.5-0.2,0.5-0.5v-10.1c0-0.3-0.2-0.5-0.5-0.5h-9.4c-0.5,0-0.9-0.2-1.3-0.5s-0.5-0.8-0.5-1.3
			c0-0.5,0.2-0.9,0.5-1.3s0.8-0.5,1.3-0.5h9.4c0.3,0,0.5-0.2,0.5-0.5v-5c0-0.5,0.2-1,0.6-1.4c0.4-0.4,0.8-0.6,1.4-0.6
			c0.5,0,1,0.2,1.4,0.6c0.4,0.4,0.6,0.8,0.6,1.4v5c0,0.3,0.2,0.5,0.5,0.5h9.3c0.5,0,0.9,0.2,1.3,0.5s0.5,0.8,0.5,1.3
			c0,0.5-0.2,0.9-0.5,1.3s-0.8,0.5-1.3,0.5h-9.3c-0.3,0-0.5,0.2-0.5,0.5V379.9z M408.5,347.8c-0.3-0.4-0.4-0.7-0.3-1.2
			c0.1-0.4,0.3-0.7,0.7-0.9c0.4-0.3,0.9-0.4,1.4-0.3c0.5,0.1,0.9,0.3,1.2,0.7c3.3,3.9,5.9,7.4,7.7,10.5c0.3,0.4,0.3,0.9,0.2,1.4
			c-0.2,0.5-0.4,0.9-0.9,1.2c-0.4,0.3-0.9,0.3-1.4,0.2c-0.5-0.1-0.8-0.4-1.1-0.9c-0.3-0.5-0.7-1.2-1.1-1.8c-0.2-0.2-0.4-0.4-0.7-0.4
			c-3.7,0.3-11.6,0.8-23.8,1.5c-0.5,0-1-0.2-1.4-0.5c-0.4-0.3-0.6-0.8-0.6-1.3c0-0.5,0.1-1,0.4-1.3c0.3-0.4,0.8-0.6,1.3-0.6l3.2-0.2
			c0.3,0,0.5-0.1,0.6-0.4c1.6-3.6,3-7.5,4.3-11.7c0-0.1,0-0.2,0-0.3c-0.1-0.1-0.1-0.1-0.3-0.1h-7.9c-0.5,0-0.9-0.2-1.3-0.5
			s-0.5-0.8-0.5-1.3c0-0.5,0.2-0.9,0.5-1.2c0.4-0.3,0.8-0.5,1.3-0.5h27.1c0.5,0,0.9,0.2,1.3,0.5c0.4,0.3,0.5,0.7,0.5,1.2
			c0,0.5-0.2,0.9-0.5,1.3s-0.8,0.5-1.3,0.5h-13.8c-0.3,0-0.5,0.1-0.6,0.4c-2.1,5.4-3.7,9.2-4.8,11.5c0,0.1,0,0.2,0,0.3
			c0.1,0.1,0.1,0.1,0.3,0.1c8.9-0.5,13.5-0.8,13.8-0.8c0.1,0,0.1,0,0.2-0.1c0-0.1,0-0.2,0-0.3C410.9,350.9,409.7,349.3,408.5,347.8z
			 M422.2,341.6c0.4-0.4,0.8-0.6,1.3-0.6c0.5,0,0.9,0.2,1.3,0.6c0.4,0.4,0.6,0.8,0.6,1.3V372c0,0.5-0.2,0.9-0.6,1.3
			c-0.4,0.4-0.8,0.6-1.3,0.6c-0.5,0-0.9-0.2-1.3-0.6c-0.4-0.4-0.6-0.8-0.6-1.3v-29.1C421.7,342.4,421.9,342,422.2,341.6z
			 M435.8,337.5c0-0.5,0.2-1,0.6-1.4c0.4-0.4,0.8-0.6,1.4-0.6s1,0.2,1.4,0.6c0.4,0.4,0.6,0.8,0.6,1.4v45.4c0,1.4-0.2,2.5-0.6,3.3
			c-0.4,0.7-1.1,1.3-2.1,1.6c-1.3,0.5-4,0.7-8,0.7c-0.6,0-1.2-0.2-1.7-0.6c-0.5-0.4-0.9-0.9-1.1-1.5c-0.1-0.2-0.1-0.4-0.1-0.5
			c0-0.3,0.1-0.6,0.3-0.8c0.3-0.4,0.7-0.6,1.2-0.6c2.1,0,4.4,0.1,6.8,0.1c0.5,0,0.9-0.2,1.1-0.4c0.2-0.2,0.3-0.6,0.3-1.1V337.5z"/>
		<path class="st1" d="M466.5,357.7c0.4-0.1,0.9-0.1,1.3,0.1l0.7,0.4c0.4,0.2,0.7,0.4,0.8,0.8c0.2,0.4,0.2,0.8,0.1,1.2
			c-1.5,5.1-3.6,9.6-6.4,13.6s-5.9,7.2-9.3,9.8c-0.5,0.4-1.1,0.5-1.7,0.4s-1.1-0.4-1.6-0.8c-0.4-0.3-0.5-0.7-0.5-1.2
			c0-0.6,0.2-1.1,0.7-1.4c3-2.1,5.8-4.7,8.2-7.9c2.4-3.2,4.3-6.7,5.7-10.7c0-0.1,0-0.2,0-0.3c-0.1-0.1-0.1-0.1-0.3-0.1h-12.4
			c-0.5,0-1-0.2-1.3-0.6c-0.4-0.4-0.6-0.8-0.6-1.3s0.2-1,0.6-1.4c0.4-0.4,0.8-0.6,1.3-0.6h14.5C466.5,357.7,466.5,357.7,466.5,357.7
			z M496.8,352.1c0.4-0.5,1-0.7,1.6-0.8c0.6-0.1,1.2,0.1,1.7,0.5c0.5,0.3,0.7,0.8,0.8,1.3s-0.2,1.1-0.6,1.5
			c-5,4.6-9.6,8.4-14.1,11.4c-0.2,0.2-0.3,0.4-0.1,0.6c4.2,6.3,9.5,10.9,15.9,13.8c0.5,0.2,0.8,0.5,0.9,1.1c0,0.1,0.1,0.2,0.1,0.4
			c0,0.4-0.1,0.7-0.4,1c-0.4,0.5-0.9,0.8-1.5,1s-1.2,0.1-1.8-0.1c-8.8-4.4-15.6-11.9-20.4-22.6c0-0.1-0.1-0.1-0.1-0.1
			c0,0-0.1,0-0.1,0.1v22.2c0,1.3-0.2,2.3-0.6,2.9c-0.4,0.7-1,1.2-1.9,1.5c-1.3,0.5-3.9,0.8-7.8,0.8c-0.6,0-1.1-0.2-1.6-0.6
			c-0.5-0.4-0.9-0.9-1.1-1.5c-0.2-0.5-0.1-0.9,0.1-1.3s0.6-0.6,1.1-0.6c1.7,0,3,0.1,4.1,0.1c0.8,0,1.5,0,2-0.1
			c0.5,0,0.9-0.1,1.1-0.3s0.3-0.5,0.3-1v-32.7c0-0.3-0.1-0.5-0.4-0.5h-14.5c-0.5,0-1-0.2-1.3-0.6c-0.4-0.4-0.6-0.8-0.6-1.3
			s0.2-1,0.6-1.3c0.4-0.4,0.8-0.6,1.3-0.6h15.6c0.9,0,1.7,0.3,2.4,1c0.7,0.7,1,1.5,1,2.5v0.3c0,0.3,0,0.6,0.1,0.9
			c1.4,4.6,3.1,8.6,5,12c0.2,0.3,0.4,0.3,0.6,0.1C489.1,359.5,493.2,355.9,496.8,352.1z M485.6,340.8c0.5,0.2,0.8,0.6,1,1.2
			c0.2,0.5,0.1,1.1-0.2,1.6c-0.3,0.5-0.7,0.8-1.3,1s-1.1,0.1-1.6-0.1c-5.4-2.6-11.6-4.9-18.5-6.7c-0.5-0.2-0.8-0.4-1-0.9
			c-0.2-0.4-0.1-0.8,0.1-1.2c0.3-0.5,0.7-0.9,1.2-1.1c0.3-0.2,0.6-0.2,0.9-0.2c0.2,0,0.4,0,0.6,0.1
			C474.3,336.3,480.5,338.4,485.6,340.8z"/>
		<path class="st1" d="M519.1,357.4c0.9,0,1.7,0.3,2.4,1c0.7,0.7,1,1.5,1,2.4v15.5c0,0.3,0.1,0.5,0.2,0.8c2.9,4.1,8,6.3,15.4,6.6
			c2.9,0.1,6.1,0.2,9.5,0.2c4.8,0,10-0.1,15.7-0.4c0.5,0,0.8,0.1,1.1,0.5c0.2,0.2,0.2,0.5,0.2,0.8c0,0.2,0,0.3-0.1,0.5
			c-0.2,0.6-0.5,1.1-1,1.5c-0.5,0.4-1,0.6-1.6,0.6c-5.1,0.2-9.8,0.2-13.9,0.2c-3.6,0-6.9-0.1-9.9-0.2c-3.9-0.1-7.3-0.7-10-1.8
			s-5.1-2.8-6.9-5c-0.2-0.2-0.4-0.2-0.6,0c-2.2,2.1-4.3,4.1-6.4,6c-0.4,0.4-0.9,0.5-1.5,0.4c-0.5-0.1-1-0.4-1.3-0.9
			c-0.3-0.5-0.4-1.1-0.3-1.7s0.4-1.1,0.9-1.5c2.5-2,4.6-3.8,6.4-5.4c0.2-0.2,0.3-0.4,0.3-0.7v-15.1c0-0.3-0.1-0.4-0.4-0.4h-5.5
			c-0.5,0-0.9-0.2-1.3-0.6c-0.4-0.4-0.6-0.8-0.6-1.3s0.2-1,0.6-1.3c0.4-0.4,0.8-0.6,1.3-0.6H519.1z M523.2,343.5
			c0.4,0.5,0.5,1,0.4,1.6c-0.1,0.6-0.4,1-0.8,1.3c-0.4,0.4-0.9,0.5-1.5,0.4c-0.5-0.1-1-0.4-1.3-0.8c-1.8-2.4-4.1-4.8-7-7.2
			c-0.4-0.3-0.5-0.7-0.5-1.2s0.2-0.9,0.6-1.2c0.4-0.3,0.9-0.5,1.5-0.5h0.1c0.5,0,1,0.2,1.5,0.5C519,338.8,521.4,341.1,523.2,343.5z
			 M562.6,346.4c0.4,0,0.8,0.1,1.1,0.4s0.4,0.7,0.4,1.1c0,0.4-0.1,0.8-0.4,1.1s-0.7,0.4-1.1,0.4h-35.4c-0.4,0-0.8-0.1-1.1-0.4
			s-0.4-0.7-0.4-1.1c0-0.4,0.1-0.8,0.4-1.1s0.7-0.4,1.1-0.4h15c0.3,0,0.5-0.2,0.5-0.5v-3.7c0-0.3-0.2-0.5-0.5-0.5h-11.7
			c-0.4,0-0.7-0.1-1.1-0.4s-0.5-0.7-0.5-1.1c0-0.4,0.2-0.8,0.5-1.1s0.7-0.4,1.1-0.4h11.7c0.3,0,0.5-0.2,0.5-0.5v-2.3
			c0-0.5,0.2-1,0.6-1.4c0.4-0.4,0.8-0.6,1.3-0.6s1,0.2,1.3,0.6c0.4,0.4,0.6,0.8,0.6,1.4v2.3c0,0.3,0.2,0.5,0.5,0.5h12
			c0.4,0,0.8,0.1,1.1,0.4s0.4,0.7,0.4,1.1c0,0.4-0.1,0.8-0.4,1.1s-0.7,0.4-1.1,0.4h-12c-0.3,0-0.5,0.2-0.5,0.5v3.7
			c0,0.3,0.2,0.5,0.5,0.5H562.6z M545.7,380.5c-0.4,0.4-0.8,0.6-1.3,0.6s-0.9-0.2-1.3-0.6c-0.4-0.4-0.6-0.8-0.6-1.3v-10
			c0-0.1,0-0.1-0.1-0.1c-0.1,0-0.2,0-0.2,0c-3.4,3.2-7.6,5.9-12.5,8.3c-0.5,0.2-1,0.3-1.6,0.1c-0.5-0.2-1-0.5-1.3-0.9
			c-0.3-0.4-0.4-0.8-0.3-1.2c0.1-0.4,0.4-0.8,0.8-1c5.8-2.4,10.3-5.3,13.5-8.7c0.1-0.1,0.1-0.2,0.1-0.2c0-0.1-0.1-0.1-0.2-0.1h-6.6
			c-0.9,0-1.7-0.3-2.4-1c-0.7-0.7-1-1.5-1-2.5v-5.4c0-1,0.3-1.8,1-2.5c0.7-0.7,1.5-1,2.4-1h21.3c1,0,1.8,0.3,2.5,1
			c0.7,0.7,1,1.5,1,2.5v5.4c0,1-0.3,1.8-1,2.5c-0.7,0.7-1.5,1-2.5,1h-8.6c-0.1,0-0.2,0-0.2,0.1c0,0.1,0,0.2,0.1,0.3
			c1.1,1.6,2.6,3.2,4.6,4.8c0.2,0.2,0.4,0.2,0.7,0.1c2.5-1.6,4.8-3.2,6.8-4.9c0.5-0.4,1.1-0.6,1.6-0.6c0.4,0,0.9,0.1,1.3,0.4
			c0.4,0.2,0.5,0.6,0.6,1c0,0.4-0.1,0.8-0.5,1c-2,1.5-4.5,3.1-7.4,4.9c-0.1,0-0.1,0.1-0.1,0.2c0,0.1,0,0.2,0.1,0.2
			c2.5,1.6,5.2,2.8,8,3.6c0.4,0.2,0.7,0.4,0.8,0.8c0.1,0.4,0,0.8-0.2,1.1c-0.4,0.5-0.8,0.8-1.3,1c-0.5,0.2-1,0.2-1.6,0
			c-5.4-2-9.9-4.9-13.5-8.8c0,0-0.1,0-0.2,0c-0.1,0-0.1,0.1-0.1,0.1v8.7C546.3,379.6,546.1,380.1,545.7,380.5z M534.8,355.9
			c-0.3,0-0.4,0.1-0.4,0.4v5.5c0,0.3,0.1,0.4,0.4,0.4h19.7c0.3,0,0.5-0.1,0.5-0.4v-5.5c0-0.3-0.2-0.4-0.5-0.4H534.8z"/>
		<path class="st1" d="M583.9,335.8c0.1-0.6,0.4-1,0.9-1.4c0.5-0.3,1-0.4,1.6-0.3s1,0.4,1.3,0.9c0.3,0.5,0.3,1,0.1,1.6
			c-0.9,2.7-1.7,4.8-2.3,6.4c0,0.1,0,0.2,0,0.3c0.1,0.1,0.1,0.1,0.3,0.1h6.2c1,0,1.8,0.3,2.5,1c0.7,0.7,1,1.5,1,2.5v31.8
			c0,1-0.3,1.8-1,2.5c-0.7,0.7-1.5,1-2.5,1h-12.9c-0.3,0-0.4,0.2-0.4,0.5v2.5c0,0.5-0.2,0.9-0.6,1.3c-0.4,0.4-0.8,0.5-1.3,0.5
			c-0.5,0-0.9-0.2-1.3-0.5c-0.4-0.4-0.6-0.8-0.6-1.3v-38.3c0-1,0.3-1.8,1-2.5c0.7-0.7,1.5-1,2.4-1h2.8c0.3,0,0.5-0.1,0.6-0.4
			C582.6,340.8,583.3,338.4,583.9,335.8z M591.4,360.1c0.3,0,0.5-0.1,0.5-0.4v-12.2c0-0.3-0.2-0.5-0.5-0.5h-12.2
			c-0.3,0-0.4,0.2-0.4,0.5v12.2c0,0.3,0.1,0.4,0.4,0.4H591.4z M578.7,378.1c0,0.3,0.1,0.5,0.4,0.5h12.2c0.3,0,0.5-0.2,0.5-0.5v-14
			c0-0.3-0.2-0.4-0.5-0.4h-12.2c-0.3,0-0.4,0.1-0.4,0.4V378.1z M621.4,343.3c1,0,1.8,0.3,2.5,1c0.6,0.7,0.9,1.4,0.9,2.3
			c0,9.1-0.5,18.5-1.5,28.4c-0.6,5.3-1.5,8.7-2.6,10c-0.5,0.8-1.2,1.3-1.9,1.7c-0.7,0.3-1.6,0.5-2.6,0.6c-0.7,0.1-1.5,0.1-2.6,0.1
			c-1.2,0-2.6,0-4.2-0.1c-0.5,0-1-0.3-1.5-0.6c-0.4-0.4-0.8-0.9-1-1.5c-0.2-0.4-0.1-0.8,0.1-1.2c0.3-0.4,0.6-0.6,1-0.6
			c2,0.2,4.3,0.2,6.7,0.2c1.2,0,2.1-0.3,2.5-0.9c1-1,1.7-4.1,2.3-9.4c0.5-5.2,1-13.8,1.4-25.8c0-0.3-0.1-0.5-0.4-0.5h-14.8
			c-0.3,0-0.5,0.1-0.6,0.4c-1.4,3.3-2.8,6.2-4.3,8.6c-0.3,0.5-0.7,0.8-1.2,0.8c-0.5,0.1-1.1,0-1.5-0.3c-0.5-0.3-0.7-0.7-0.8-1.2
			c0-0.2-0.1-0.3-0.1-0.4c0-0.4,0.1-0.7,0.4-1.1c3.2-4.8,5.7-10.9,7.6-18.3c0.1-0.5,0.4-1,0.9-1.3c0.3-0.2,0.7-0.3,1.1-0.3
			c0.1,0,0.3,0,0.4,0.1c0.5,0.1,1,0.4,1.2,0.8c0.3,0.4,0.3,0.9,0.2,1.5c-0.7,2.5-1.3,4.7-2,6.6c0,0.1,0,0.2,0.1,0.3
			c0.1,0.1,0.2,0.1,0.2,0.1H621.4z M614.5,368.6c0.2,0.3,0.2,0.6,0.2,1c0,0.2,0,0.4-0.1,0.5c-0.1,0.5-0.4,1-0.9,1.2
			c-0.3,0.2-0.6,0.3-1,0.3c-0.2,0-0.3,0-0.5-0.1c-0.5-0.1-0.9-0.4-1.2-0.9c-1.8-3.2-4.3-6.8-7.3-10.8c-0.2-0.3-0.4-0.6-0.4-0.9
			c0-0.1,0-0.2,0.1-0.4c0.1-0.4,0.3-0.8,0.7-1.1c0.4-0.2,0.7-0.2,1.1-0.2c0.1,0,0.3,0,0.4,0c0.5,0.1,0.9,0.4,1.2,0.8
			C610.1,362,612.6,365.5,614.5,368.6z"/>
		<path class="st1" d="M680.4,356.5c0.5-0.4,1-0.6,1.6-0.6c0.6,0,1.1,0.2,1.5,0.6c0.4,0.4,0.6,0.8,0.6,1.3c0,0.5-0.2,0.9-0.7,1.3
			c-3.2,2.5-6.8,4.8-10.7,7.1c-0.2,0.2-0.3,0.4-0.2,0.6c1.8,2.9,3.8,5.3,6.1,7.5c2.3,2.1,4.7,3.9,7.4,5.2c0.5,0.2,0.8,0.5,0.9,1.1
			c0,0.2,0,0.3,0,0.4c0,0.4-0.1,0.7-0.4,1.1c-0.4,0.5-0.9,0.8-1.5,1s-1.2,0.1-1.7-0.2c-9.6-5.1-16.4-15.1-20.4-29.8
			c0,0,0-0.1-0.1-0.1c0,0-0.1,0-0.1,0c-1.6,1.3-3.6,2.7-5.9,4.1c-0.3,0.2-0.3,0.3-0.1,0.5c2.7,2.3,4.8,5.1,6.4,8.1
			c1.6,3.1,2.5,6,2.8,8.7c0.1,0.9,0.1,1.7,0.1,2.5c0,1.8-0.2,3.5-0.6,5c-0.6,2.3-1.7,3.9-3.1,4.9c-1,0.7-1.9,1.2-2.8,1.5
			c-0.9,0.3-2.1,0.4-3.4,0.4c-0.4,0-0.8,0-1.2,0c-0.6,0-1.3,0-2.1-0.1c-0.5,0-1-0.2-1.4-0.6c-0.4-0.4-0.7-0.9-0.8-1.5
			c-0.1-0.4,0-0.8,0.2-1.2c0.3-0.4,0.6-0.5,1-0.5c1.3,0,2.5,0.1,3.6,0.1c1.9,0,3.3-0.4,4.1-1.1c1.2-0.8,2-2.3,2.4-4.4
			c0.2-0.9,0.3-1.8,0.3-2.8c0-1.4-0.2-2.8-0.5-4.3c0-0.1-0.1-0.2-0.2-0.2c-0.1,0-0.2,0-0.3,0.1c-3,2.5-6.5,4.9-10.6,7.2
			c-4.1,2.3-8.2,4.2-12.2,5.6c-0.5,0.2-1.1,0.2-1.6,0c-0.5-0.2-0.9-0.6-1.2-1c-0.2-0.3-0.2-0.5-0.2-0.8c0-0.2,0-0.3,0.1-0.5
			c0.2-0.4,0.4-0.7,0.9-0.9c4.3-1.3,8.6-3.2,13-5.6c4.4-2.4,8-4.9,10.8-7.5c0.2-0.2,0.3-0.4,0.2-0.7c-0.5-1.1-1.2-2.2-1.9-3.3
			c-0.2-0.2-0.4-0.3-0.6-0.1c-2.3,1.6-5,3.3-8.2,5c-3.1,1.7-6.2,3.1-9.1,4.2c-0.5,0.2-1,0.2-1.5,0c-0.5-0.2-0.9-0.5-1.2-1
			c-0.3-0.4-0.3-0.7-0.2-1.2c0.1-0.4,0.4-0.7,0.8-0.9c3.1-1,6.3-2.3,9.5-3.9c3.3-1.6,5.9-3.2,8.1-4.7c0.2-0.2,0.3-0.4,0.1-0.6
			c-0.7-0.9-1.5-1.6-2.3-2.3c-0.2-0.2-0.5-0.2-0.8-0.1c-3.9,1.9-8.1,3.6-12.5,5c-0.5,0.2-1.1,0.1-1.6-0.1c-0.5-0.2-1-0.5-1.3-1
			c-0.3-0.4-0.3-0.8-0.2-1.2c0.2-0.4,0.4-0.7,0.9-0.8c7.9-2.1,14.2-4.8,19-8c0.1,0,0.1-0.1,0.1-0.1c0-0.1-0.1-0.1-0.1-0.1h-11.4
			c-0.5,0-0.9-0.2-1.2-0.5c-0.3-0.4-0.5-0.8-0.5-1.2s0.2-0.9,0.5-1.2c0.3-0.3,0.7-0.5,1.2-0.5h30.5c0.5,0,0.9,0.2,1.2,0.5
			c0.3,0.3,0.5,0.7,0.5,1.2s-0.2,0.9-0.5,1.2c-0.3,0.4-0.7,0.5-1.2,0.5h-9.1c-0.1,0-0.2,0-0.3,0.1c-0.1,0.1-0.1,0.2-0.1,0.3
			c1.1,3.6,2.3,6.9,3.8,9.8c0.2,0.3,0.4,0.3,0.6,0.2C674.4,361.1,677.5,358.9,680.4,356.5z M640.8,343c-0.3,0-0.4,0.1-0.4,0.4v5.5
			c0,0.5-0.2,1-0.6,1.4c-0.4,0.4-0.8,0.6-1.4,0.6c-0.5,0-1-0.2-1.4-0.6c-0.4-0.4-0.6-0.8-0.6-1.4v-6.2c0-0.9,0.3-1.7,1-2.4
			c0.7-0.7,1.5-1,2.4-1h18.6c0.3,0,0.4-0.1,0.4-0.4v-3c0-0.5,0.2-1,0.6-1.4c0.4-0.4,0.9-0.6,1.4-0.6c0.5,0,1,0.2,1.4,0.6
			c0.4,0.4,0.6,0.9,0.6,1.4v3c0,0.3,0.1,0.4,0.4,0.4h19.1c0.9,0,1.7,0.3,2.4,1c0.7,0.7,1,1.5,1,2.4v6.1c0,0.6-0.2,1.1-0.6,1.5
			c-0.4,0.4-0.9,0.6-1.4,0.6c-0.6,0-1-0.2-1.4-0.6c-0.4-0.4-0.6-0.9-0.6-1.5v-5.4c0-0.3-0.1-0.4-0.4-0.4H640.8z"/>
	</g>
	<g class="st0">
		<path class="st1" d="M215.6,427.3c0.7,0,1.2,0,1.5,0.1c0.2,0,0.3,0.2,0.5,0.3c0.1,0.2,0.2,0.4,0.2,0.6c-0.6,6.2-1.8,11.2-3.7,15.1
			c-0.1,0.2,0,0.3,0.1,0.4c1.5,1.1,2.7,2.1,3.7,3.1c0.3,0.3,0.4,0.6,0.4,0.9c0,0.4-0.1,0.7-0.3,1c-0.2,0.3-0.4,0.4-0.8,0.4
			s-0.6-0.1-0.8-0.3c-0.9-0.9-2.1-2-3.5-3.1c-0.1-0.1-0.3-0.1-0.4,0c-1.8,2.6-4,4.7-6.8,6.3c-0.2,0.1-0.4,0.2-0.6,0.2
			c-0.1,0-0.2,0-0.4-0.1c-0.3-0.1-0.6-0.3-0.8-0.6c-0.2-0.2-0.2-0.5-0.2-0.8c0.1-0.3,0.2-0.5,0.5-0.7c2.5-1.3,4.6-3.3,6.2-5.8
			c0.1-0.1,0.1-0.3-0.1-0.4c-1.2-0.9-2.7-1.8-4.5-2.8c-0.1-0.1-0.2,0-0.2,0.1l-0.1,0.4c-0.1,0.3-0.3,0.5-0.5,0.6
			c-0.3,0.1-0.5,0.1-0.8,0c-0.3-0.1-0.5-0.4-0.7-0.7c-0.1-0.3-0.1-0.6-0.1-0.9c0.9-2.9,1.9-6.6,3-10.9c0-0.2,0-0.3-0.2-0.3h-2.6
			c-0.3,0-0.6-0.1-0.8-0.3c-0.2-0.2-0.3-0.5-0.3-0.8s0.1-0.6,0.3-0.8c0.2-0.2,0.5-0.3,0.8-0.3h3.2c0.2,0,0.3-0.1,0.3-0.2
			c0.5-2.2,1-4.2,1.3-6c0.1-0.3,0.2-0.6,0.5-0.8c0.2-0.1,0.4-0.2,0.7-0.2c0.1,0,0.1,0,0.2,0c0.3,0,0.5,0.2,0.7,0.4s0.2,0.5,0.2,0.8
			c-0.7,2.9-1.1,4.8-1.3,5.7c0,0.2,0,0.2,0.2,0.2H215.6z M215.2,429.8c0-0.2-0.1-0.3-0.2-0.3h-5.7c-0.2,0-0.3,0.1-0.4,0.3
			c-0.8,3-1.5,6-2.3,8.9c0,0.2,0,0.3,0.1,0.4c1.6,0.9,3.3,1.9,5,3c0.1,0.1,0.3,0.1,0.4-0.1C213.6,438.7,214.7,434.7,215.2,429.8z
			 M220.2,425.9c0-0.6,0.2-1.1,0.6-1.5c0.4-0.4,0.9-0.6,1.5-0.6h9.7c0.6,0,1,0.2,1.5,0.6c0.4,0.4,0.6,0.9,0.6,1.5v24.2
			c0,0.3-0.1,0.6-0.3,0.8c-0.2,0.2-0.5,0.3-0.8,0.3s-0.6-0.1-0.8-0.3c-0.2-0.2-0.4-0.5-0.4-0.8v-0.8c0-0.2-0.1-0.2-0.2-0.2h-8.8
			c-0.2,0-0.3,0.1-0.3,0.3v1.3c0,0.3-0.1,0.6-0.3,0.8c-0.2,0.2-0.5,0.3-0.8,0.3c-0.3,0-0.6-0.1-0.8-0.3c-0.2-0.2-0.3-0.5-0.3-0.8
			V425.9z M222.4,446.6c0,0.2,0.1,0.3,0.3,0.3h8.8c0.2,0,0.2-0.1,0.2-0.3v-20.2c0-0.2-0.1-0.3-0.2-0.3h-8.8c-0.2,0-0.3,0.1-0.3,0.3
			V446.6z"/>
		<path class="st1" d="M270.3,439.3c0.2,0.2,0.3,0.5,0.3,0.8s-0.1,0.6-0.3,0.8s-0.5,0.3-0.8,0.3h-11c0,0-0.1,0-0.1,0.1
			c0,0,0,0.1,0,0.1c1.5,1.5,3.3,3,5.5,4.3c2.1,1.3,4.2,2.4,6.4,3.3c0.3,0.1,0.5,0.3,0.5,0.6c0,0.1,0,0.2,0,0.2
			c0,0.2-0.1,0.4-0.2,0.6c-0.2,0.3-0.5,0.5-0.9,0.6s-0.7,0.1-1.1-0.1c-2.2-1-4.4-2.3-6.6-3.8s-4.1-3.2-5.7-4.9c0,0-0.1,0-0.1,0
			c0,0-0.1,0-0.1,0.1v9.2c0,0.4-0.1,0.7-0.4,0.9s-0.5,0.4-0.9,0.4c-0.3,0-0.6-0.1-0.9-0.4s-0.4-0.5-0.4-0.9v-9.1c0,0,0-0.1-0.1-0.1
			s-0.1,0-0.1,0c-1.5,1.8-3.4,3.4-5.6,5c-2.2,1.5-4.4,2.8-6.6,3.8c-0.4,0.1-0.7,0.2-1.1,0.1c-0.4-0.1-0.7-0.3-0.9-0.6
			c-0.1-0.2-0.2-0.4-0.2-0.6c0-0.1,0-0.1,0-0.2c0.1-0.3,0.2-0.5,0.5-0.6c2.2-0.8,4.4-2,6.5-3.3c2.1-1.4,3.9-2.8,5.3-4.4
			c0,0,0-0.1,0-0.1c0,0-0.1-0.1-0.1-0.1h-10.9c-0.3,0-0.6-0.1-0.8-0.3s-0.3-0.5-0.3-0.8s0.1-0.6,0.3-0.8s0.5-0.3,0.8-0.3h13
			c0.2,0,0.2-0.1,0.2-0.3V436c0-0.2-0.1-0.3-0.2-0.3h-8.6c-0.6,0-1.1-0.2-1.5-0.6c-0.4-0.4-0.6-0.9-0.6-1.5v-9.9
			c0-0.6,0.2-1,0.6-1.5c0.4-0.4,0.9-0.6,1.5-0.6h20.4c0.6,0,1.1,0.2,1.5,0.6c0.4,0.4,0.6,0.9,0.6,1.5v9.9c0,0.6-0.2,1.1-0.6,1.5
			c-0.4,0.4-0.9,0.6-1.5,0.6h-8.8c-0.2,0-0.2,0.1-0.2,0.3v2.7c0,0.2,0.1,0.3,0.2,0.3h13.1C269.9,439,270.1,439.1,270.3,439.3z
			 M245.6,423.8c-0.2,0-0.2,0.1-0.2,0.2v3.4c0,0.2,0.1,0.2,0.2,0.2h7.9c0.2,0,0.2-0.1,0.2-0.2V424c0-0.2-0.1-0.2-0.2-0.2H245.6z
			 M245.3,433.4c0,0.2,0.1,0.2,0.2,0.2h7.9c0.2,0,0.2-0.1,0.2-0.2v-3.5c0-0.2-0.1-0.3-0.2-0.3h-7.9c-0.2,0-0.2,0.1-0.2,0.3V433.4z
			 M264.6,427.7c0.2,0,0.3-0.1,0.3-0.2V424c0-0.2-0.1-0.2-0.3-0.2h-8.1c-0.2,0-0.2,0.1-0.2,0.2v3.4c0,0.2,0.1,0.2,0.2,0.2H264.6z
			 M264.6,433.7c0.2,0,0.3-0.1,0.3-0.2v-3.5c0-0.2-0.1-0.3-0.3-0.3h-8.1c-0.2,0-0.2,0.1-0.2,0.3v3.5c0,0.2,0.1,0.2,0.2,0.2H264.6z"
			/>
		<path class="st1" d="M282.3,421.1c0.1-0.3,0.4-0.5,0.6-0.7c0.2-0.1,0.4-0.1,0.6-0.1c0.1,0,0.2,0,0.4,0.1c0.3,0.1,0.5,0.3,0.7,0.6
			s0.1,0.6,0,0.9c-1,2.3-2,4.4-3.2,6.4c-0.1,0.2-0.1,0.3-0.1,0.5v22.8c0,0.3-0.1,0.6-0.4,0.8c-0.2,0.2-0.5,0.3-0.8,0.3
			s-0.6-0.1-0.8-0.3c-0.2-0.2-0.3-0.5-0.3-0.8v-19.2c0,0,0-0.1-0.1-0.1s-0.1,0-0.1,0c-0.9,1.2-1.8,2.4-2.8,3.6
			c-0.2,0.3-0.5,0.4-0.8,0.3s-0.6-0.2-0.8-0.5c-0.2-0.3-0.2-0.6-0.2-0.9c0-0.4,0.2-0.8,0.5-1.2C277.8,430.1,280.4,426,282.3,421.1z
			 M304.6,429.4c0-0.2,0-0.2-0.2-0.2h-6.7c-0.2,0-0.3,0.1-0.3,0.3v20.3c0,0.7-0.1,1.2-0.3,1.6s-0.5,0.7-0.9,0.9
			c-0.7,0.3-1.8,0.4-3.4,0.5h0c-0.4,0-0.7-0.1-0.9-0.4c-0.3-0.2-0.5-0.5-0.7-0.9c-0.1-0.3-0.1-0.5,0.1-0.8c0.2-0.2,0.4-0.4,0.7-0.4
			c0.5,0,0.8,0,1.1,0c0.3,0,0.5,0,0.9,0s0.5,0,0.5,0c0.2,0,0.4,0,0.5-0.1c0.1-0.1,0.1-0.2,0.1-0.5v-20.3c0-0.2-0.1-0.3-0.3-0.3h-5.2
			c-0.2,0-0.3,0.1-0.4,0.2c-0.8,1.9-1.7,3.5-2.7,5.1c-0.2,0.3-0.4,0.4-0.7,0.5c-0.3,0-0.6,0-0.9-0.2c-0.3-0.2-0.4-0.5-0.5-0.8
			c0-0.1,0-0.1,0-0.2c0-0.2,0.1-0.5,0.2-0.7c2-2.9,3.7-6.8,4.9-11.7c0.1-0.3,0.3-0.6,0.6-0.7c0.2-0.1,0.4-0.2,0.6-0.2
			c0.1,0,0.2,0,0.3,0c0.3,0.1,0.5,0.2,0.7,0.5s0.2,0.6,0.1,0.9c-0.5,1.9-1,3.5-1.5,4.9c0,0,0,0.1,0,0.2s0.1,0.1,0.2,0.1h14.7
			c0,0,0.1,0,0.1,0c0.2,0,0.5,0,0.7,0l0.4,0.1c0.2,0.1,0.4,0.2,0.5,0.4c0.1,0.1,0.1,0.3,0.1,0.5c0,0.6-0.4,2.6-1.2,5.9
			c-0.1,0.3-0.2,0.5-0.5,0.7s-0.5,0.2-0.8,0.1c-0.3,0-0.5-0.2-0.7-0.4c-0.2-0.2-0.2-0.5-0.2-0.8C304.1,432.3,304.4,431,304.6,429.4z
			 M289.1,436.3c0.1-0.3,0.2-0.5,0.5-0.7s0.6-0.2,0.9-0.2c0.3,0,0.5,0.2,0.7,0.5s0.2,0.6,0.1,0.9c-1.1,3.9-2.5,7.3-4.3,10.1
			c-0.2,0.3-0.5,0.5-0.8,0.5c-0.3,0.1-0.7,0-0.9-0.2c-0.3-0.2-0.4-0.4-0.5-0.7c-0.1-0.3,0-0.6,0.2-0.9
			C286.7,443.2,288,440.1,289.1,436.3z M300.8,436.6c-0.1-0.1-0.1-0.3-0.1-0.4s0-0.3,0.1-0.4c0.1-0.3,0.3-0.5,0.6-0.5
			c0.1,0,0.3-0.1,0.4-0.1c0.2,0,0.3,0,0.5,0.1c0.3,0.1,0.5,0.3,0.7,0.6c1.8,3.5,3.1,6.8,3.9,9.9c0,0.1,0,0.2,0,0.3
			c0,0.2-0.1,0.4-0.2,0.6c-0.2,0.3-0.4,0.5-0.8,0.6c-0.1,0-0.2,0-0.3,0c-0.2,0-0.4,0-0.5-0.1c-0.3-0.2-0.5-0.4-0.5-0.7
			C303.8,443.3,302.5,440,300.8,436.6z"/>
		<path class="st1" d="M327,438.4c0,0.6-0.2,1-0.6,1.5c-0.4,0.4-0.9,0.6-1.5,0.6h-2c-0.2,0-0.3,0.1-0.3,0.2v9.7c0,0.5-0.1,1-0.2,1.2
			c-0.1,0.3-0.4,0.5-0.7,0.7c-0.5,0.2-1.4,0.3-2.7,0.3h0c-0.3,0-0.5-0.1-0.8-0.3c-0.2-0.2-0.4-0.4-0.5-0.7c-0.1-0.2,0-0.4,0.1-0.6
			c0.1-0.2,0.3-0.3,0.5-0.3c0.3,0,0.6,0,0.8,0c0.5,0,0.8,0,1,0c0.3,0,0.5-0.2,0.5-0.5v-9.6c0-0.2-0.1-0.2-0.3-0.2h-1.8
			c-0.6,0-1-0.2-1.5-0.6c-0.4-0.4-0.6-0.9-0.6-1.5v-8.8c0-0.6,0.2-1,0.6-1.5c0.4-0.4,0.9-0.6,1.5-0.6h1.1c0.2,0,0.3-0.1,0.3-0.2
			c0.3-1.3,0.5-2.4,0.6-3.2c0-0.2-0.1-0.2-0.2-0.2h-5.5c-0.2,0-0.2,0.1-0.2,0.2v10.7c0,7.2-0.7,12.6-2.2,16.3
			c-0.1,0.3-0.3,0.4-0.5,0.5c-0.3,0.1-0.5,0-0.7-0.1c-0.3-0.2-0.4-0.4-0.5-0.7c0-0.1-0.1-0.3-0.1-0.4s0-0.3,0.1-0.5
			c1.2-3.3,1.9-8.3,1.9-15.1v-11c0-0.6,0.2-1,0.6-1.5c0.4-0.4,0.9-0.6,1.5-0.6h11.6c0.3,0,0.6,0.1,0.8,0.3s0.3,0.5,0.3,0.8
			s-0.1,0.6-0.3,0.8s-0.5,0.3-0.8,0.3h-3c-0.2,0-0.3,0.1-0.3,0.2c-0.3,1.2-0.6,2.3-0.8,3.2c0,0.1,0,0.1,0,0.2s0.1,0.1,0.2,0.1h2.7
			c0.6,0,1,0.2,1.5,0.6c0.4,0.4,0.6,0.9,0.6,1.5V438.4z M316.7,443.2c0.1-0.3,0.2-0.5,0.5-0.6c0.2-0.2,0.5-0.2,0.7-0.1
			c0.3,0.1,0.5,0.2,0.6,0.4c0.2,0.2,0.2,0.5,0.1,0.8c-0.5,2.1-1.2,3.9-1.9,5.4c-0.1,0.3-0.3,0.4-0.6,0.5c-0.3,0.1-0.5,0-0.8-0.1
			c-0.2-0.1-0.4-0.3-0.5-0.6s0-0.5,0.1-0.8C315.7,446.8,316.3,445.1,316.7,443.2z M318.7,429.3c-0.2,0-0.3,0.1-0.3,0.3v3.2
			c0,0.2,0.1,0.3,0.3,0.3h6c0.2,0,0.3-0.1,0.3-0.3v-3.2c0-0.2-0.1-0.3-0.3-0.3H318.7z M318.7,434.8c-0.2,0-0.3,0.1-0.3,0.2v3.3
			c0,0.2,0.1,0.2,0.3,0.2h6c0.2,0,0.3-0.1,0.3-0.2v-3.3c0-0.2-0.1-0.2-0.3-0.2H318.7z M327.8,447c0.1,0.3,0,0.5-0.1,0.8
			c-0.1,0.2-0.3,0.4-0.6,0.5c-0.2,0.1-0.5,0.1-0.7,0c-0.2-0.1-0.4-0.3-0.4-0.5c-0.4-1.2-0.9-2.6-1.5-4.1c0-0.1-0.1-0.2-0.1-0.4
			s0-0.2,0.1-0.3c0.1-0.2,0.3-0.4,0.5-0.5c0.1,0,0.2-0.1,0.3-0.1c0.1,0,0.3,0,0.4,0.1c0.2,0.1,0.4,0.3,0.5,0.5
			C326.9,444.6,327.5,445.9,327.8,447z M331.4,447.8c0.4-0.3,0.7-0.5,1.1-0.5c0.2,0,0.5,0.1,0.7,0.2c0.3,0.1,0.4,0.4,0.5,0.7
			c0,0.3,0,0.5-0.3,0.7c-1.4,1.2-3,2.4-4.9,3.4c-0.2,0.1-0.5,0.2-0.7,0.2c-0.4,0-0.7-0.2-1-0.5c-0.2-0.1-0.2-0.3-0.2-0.5
			c0-0.3,0.2-0.6,0.5-0.7C328.7,449.9,330.2,448.9,331.4,447.8z M329.2,429.5c0-0.6,0.2-1.1,0.6-1.5c0.4-0.4,0.9-0.6,1.5-0.6h2.1
			c0.2,0,0.3-0.1,0.3-0.2c0.2-1.1,0.4-2.1,0.6-3.1c0-0.2-0.1-0.2-0.2-0.2h-5c-0.3,0-0.6-0.1-0.8-0.3c-0.2-0.2-0.3-0.5-0.3-0.8
			s0.1-0.5,0.3-0.8c0.2-0.2,0.5-0.3,0.8-0.3h13.1c0.3,0,0.5,0.1,0.7,0.3s0.3,0.5,0.3,0.8s-0.1,0.5-0.3,0.8s-0.5,0.3-0.7,0.3H337
			c-0.2,0-0.3,0.1-0.3,0.2c-0.1,0.2-0.2,0.7-0.4,1.4c-0.2,0.8-0.3,1.3-0.4,1.7c0,0,0,0.1,0,0.2c0,0.1,0.1,0.1,0.1,0.1h4.1
			c0.6,0,1.1,0.2,1.5,0.6c0.4,0.4,0.6,0.9,0.6,1.5v14.4c0,0.6-0.2,1.1-0.6,1.5c-0.4,0.4-0.9,0.6-1.5,0.6h-8.9c-0.6,0-1-0.2-1.5-0.6
			c-0.4-0.4-0.6-0.9-0.6-1.5V429.5z M339.8,433c0.2,0,0.3-0.1,0.3-0.3v-3.1c0-0.2-0.1-0.3-0.3-0.3h-8.3c-0.2,0-0.2,0.1-0.2,0.3v3.1
			c0,0.2,0.1,0.3,0.2,0.3H339.8z M339.8,438.5c0.2,0,0.3-0.1,0.3-0.2V435c0-0.2-0.1-0.2-0.3-0.2h-8.3c-0.2,0-0.2,0.1-0.2,0.2v3.2
			c0,0.2,0.1,0.2,0.2,0.2H339.8z M339.8,444.1c0.2,0,0.3-0.1,0.3-0.2v-3.3c0-0.2-0.1-0.2-0.3-0.2h-8.3c-0.2,0-0.2,0.1-0.2,0.2v3.3
			c0,0.2,0.1,0.2,0.2,0.2H339.8z M337.9,448.7c-0.2-0.1-0.3-0.3-0.3-0.6c0-0.3,0.1-0.5,0.4-0.6c0.3-0.2,0.6-0.3,0.8-0.3
			c0.3,0,0.6,0.1,0.9,0.4c1.5,1.1,2.6,2.2,3.6,3.1c0.2,0.2,0.2,0.4,0.2,0.6c0,0.4-0.1,0.6-0.4,0.8c-0.2,0.1-0.4,0.2-0.7,0.2
			c-0.1,0-0.1,0-0.2,0c-0.3,0-0.6-0.2-0.8-0.4C340.4,450.9,339.3,449.9,337.9,448.7z"/>
		<path class="st1" d="M349.5,451.3c-0.3,0.2-0.6,0.3-0.9,0.3c-0.3,0-0.7-0.1-1-0.4c-0.2-0.1-0.3-0.3-0.3-0.6c0-0.3,0.1-0.5,0.4-0.7
			c1.6-1.1,2.8-2.7,3.8-4.6c0.1-0.3,0.3-0.4,0.6-0.6c0.3-0.1,0.5-0.1,0.8,0s0.5,0.3,0.6,0.5c0.1,0.3,0.1,0.5,0,0.8
			C352.4,448.4,351.1,450.1,349.5,451.3z M377.5,428.5c0.3,0,0.5,0.1,0.7,0.3c0.2,0.2,0.3,0.4,0.3,0.7s-0.1,0.5-0.3,0.7
			c-0.2,0.2-0.4,0.3-0.7,0.3h-28.8c-0.3,0-0.5-0.1-0.7-0.3c-0.2-0.2-0.3-0.4-0.3-0.7s0.1-0.5,0.3-0.7c0.2-0.2,0.4-0.3,0.7-0.3h7.5
			c0.1,0,0.1,0,0.2-0.1s0-0.1,0-0.2c-0.2-0.8-0.6-1.6-1-2.5c-0.1-0.3-0.2-0.5,0-0.8c0.1-0.3,0.3-0.4,0.6-0.5c0,0,0,0,0,0h-5.6
			c-0.3,0-0.5-0.1-0.7-0.3c-0.2-0.2-0.3-0.4-0.3-0.7s0.1-0.5,0.3-0.7c0.2-0.2,0.4-0.3,0.7-0.3h11.2c0.2,0,0.2-0.1,0.2-0.3v-1.1
			c0-0.3,0.1-0.6,0.4-0.8c0.2-0.2,0.5-0.3,0.8-0.3s0.6,0.1,0.8,0.3c0.2,0.2,0.4,0.5,0.4,0.8v1.1c0,0.2,0.1,0.3,0.2,0.3h11.2
			c0.3,0,0.5,0.1,0.7,0.3c0.2,0.2,0.3,0.4,0.3,0.7s-0.1,0.5-0.3,0.7c-0.2,0.2-0.4,0.3-0.7,0.3h-5.4v0c0.3,0.1,0.6,0.3,0.7,0.6
			s0.1,0.6,0,0.9c-0.5,0.9-1,1.7-1.4,2.4c0,0,0,0.1,0,0.2c0,0.1,0.1,0.1,0.1,0.1H377.5z M372.4,432.3c0.6,0,1,0.2,1.5,0.6
			c0.4,0.4,0.6,0.9,0.6,1.5v6c0,0.6-0.2,1-0.6,1.5c-0.4,0.4-0.9,0.6-1.5,0.6H361c0,0,0,0-0.1,0c0,0,0,0,0,0.1
			c1.9,0.8,3.5,1.8,4.9,2.8c0.2,0.2,0.4,0.4,0.4,0.7c0,0.3-0.1,0.5-0.3,0.7c-0.2,0.2-0.4,0.3-0.7,0.3c-0.3,0-0.6-0.1-0.8-0.3
			c-1.1-0.8-2.3-1.6-3.7-2.4c-0.4-0.2-0.6-0.5-0.6-0.9s0-0.7,0.3-1c0,0,0-0.1,0-0.1c0,0,0-0.1-0.1-0.1h-6.3c-0.6,0-1.1-0.2-1.5-0.6
			c-0.4-0.4-0.6-0.9-0.6-1.5v-6c0-0.6,0.2-1,0.6-1.5c0.4-0.4,0.9-0.6,1.5-0.6H372.4z M371.8,436.5c0.2,0,0.2-0.1,0.2-0.3v-1.8
			c0-0.2-0.1-0.3-0.2-0.3h-17.4c-0.2,0-0.3,0.1-0.3,0.3v1.8c0,0.2,0.1,0.3,0.3,0.3H371.8z M371.8,440.6c0.2,0,0.2-0.1,0.2-0.3v-1.8
			c0-0.2-0.1-0.3-0.2-0.3h-17.4c-0.2,0-0.3,0.1-0.3,0.3v1.8c0,0.2,0.1,0.3,0.3,0.3H371.8z M360.4,450.4h6.6c0.7,0,1.1-0.2,1.4-0.5
			s0.4-1,0.5-2.1c0-0.3,0.1-0.5,0.4-0.6c0.2-0.1,0.5-0.2,0.7-0.1c0.3,0.1,0.6,0.3,0.7,0.6c0.2,0.3,0.3,0.6,0.2,0.9
			c-0.2,1.5-0.5,2.5-1,3.1c-0.5,0.5-1.4,0.8-2.7,0.8h-7c-1.8,0-2.9-0.2-3.5-0.6s-0.9-1.2-0.9-2.4v-3.6c0-0.3,0.1-0.6,0.4-0.8
			c0.2-0.2,0.5-0.4,0.8-0.4s0.6,0.1,0.8,0.4c0.2,0.2,0.4,0.5,0.4,0.8v3.6c0,0.4,0.1,0.7,0.4,0.8
			C358.9,450.3,359.4,450.4,360.4,450.4z M368.9,424.6c0-0.1,0-0.1,0-0.2s-0.1-0.1-0.2-0.1h-11.3c-0.1,0-0.1,0-0.1,0.1
			c0,0,0,0.1,0,0.1c0.5,0.9,0.9,1.7,1.2,2.6c0.1,0.3,0.1,0.5-0.1,0.8s-0.4,0.4-0.6,0.5v0h10.3v0c-0.3-0.1-0.4-0.3-0.5-0.5
			s-0.1-0.5,0.1-0.7C368.1,426.2,368.5,425.3,368.9,424.6z M371.9,445.9c-0.2-0.1-0.3-0.3-0.3-0.6c0-0.3,0.1-0.5,0.4-0.6
			c0.3-0.2,0.6-0.3,0.8-0.3c0.3,0,0.6,0.1,0.9,0.4c2,1.6,3.7,3.2,5,4.8c0.2,0.2,0.2,0.4,0.2,0.6c0,0,0,0.1,0,0.2
			c0,0.3-0.2,0.6-0.5,0.7c-0.2,0.1-0.4,0.2-0.6,0.2c-0.1,0-0.2,0-0.3,0c-0.3-0.1-0.6-0.2-0.7-0.5
			C375.5,449.1,373.9,447.4,371.9,445.9z"/>
		<path class="st1" d="M387.3,453.3c-0.1,0-0.2,0.1-0.4,0.1c-0.1,0-0.2,0-0.4-0.1c-0.3-0.1-0.4-0.3-0.5-0.5c0-0.1-0.1-0.2-0.1-0.4
			s0-0.2,0-0.4c0.1-0.2,0.3-0.4,0.5-0.5c2.2-1.2,3.4-2.8,3.7-4.9c0-0.1,0-0.1,0-0.2c0,0-0.1-0.1-0.2,0c-0.2,0-0.3,0-0.4,0
			c-0.8,0-1.4-0.2-1.8-0.7c-0.5-0.4-0.7-1-0.7-1.8s0.3-1.4,0.8-1.8c0.5-0.4,1.1-0.7,1.8-0.7c0.9,0,1.7,0.4,2.2,1.1
			c0.5,0.7,0.8,1.7,0.8,2.9c0,1.8-0.5,3.3-1.4,4.6C390.2,451.5,388.9,452.6,387.3,453.3z"/>
		<path class="st1" d="M401.1,436.1c-0.3-0.3-0.4-0.6-0.4-0.9s0.1-0.7,0.4-0.9c0.3-0.3,0.6-0.4,0.9-0.4h30.1c0.4,0,0.7,0.1,0.9,0.4
			c0.3,0.3,0.4,0.6,0.4,0.9s-0.1,0.7-0.4,0.9c-0.3,0.3-0.6,0.4-0.9,0.4H402C401.7,436.5,401.4,436.3,401.1,436.1z"/>
		<path class="st1" d="M447,440.9c-0.2,0-0.2,0.1-0.2,0.2v7c0,0.2,0.1,0.3,0.2,0.4c1.8,0.7,4.5,1,8,1c6.6,0,11.1,0,13.5-0.1
			c0.3,0,0.5,0.1,0.6,0.4c0.1,0.1,0.1,0.3,0.1,0.4c0,0.1,0,0.2-0.1,0.4c-0.1,0.4-0.4,0.6-0.7,0.9s-0.6,0.3-1,0.3H455
			c-4.1,0-7.2-0.4-9.4-1.3c-2.2-0.8-3.9-2.4-5.2-4.8c0,0-0.1-0.1-0.1-0.1s-0.1,0-0.1,0.1c-0.4,2.5-0.9,4.5-1.7,6.3
			c-0.1,0.3-0.3,0.5-0.6,0.6c-0.1,0-0.2,0-0.3,0c-0.2,0-0.4-0.1-0.6-0.2c-0.3-0.2-0.4-0.4-0.5-0.7c0-0.1,0-0.2,0-0.4
			c0-0.2,0-0.4,0.1-0.5c0.7-1.5,1.2-3.4,1.5-5.6c0.3-2.2,0.5-4.8,0.6-7.9c0-0.3,0.1-0.6,0.4-0.8c0.2-0.2,0.5-0.3,0.8-0.3
			c0.3,0,0.6,0.2,0.8,0.4s0.3,0.5,0.3,0.8c-0.1,1.5-0.1,2.7-0.2,3.7c0,0.2,0,0.3,0.1,0.5c0.8,2.5,1.9,4.3,3.3,5.5c0,0,0.1,0,0.1,0
			c0,0,0.1-0.1,0.1-0.1v-13.5c0-0.2-0.1-0.2-0.2-0.2h-6.3c-0.3,0-0.5-0.1-0.7-0.3s-0.3-0.5-0.3-0.8s0.1-0.5,0.3-0.8s0.5-0.3,0.7-0.3
			h5.7c0.2,0,0.3-0.1,0.3-0.2v-4.3c0-0.2-0.1-0.3-0.3-0.3h-4.7c-0.3,0-0.6-0.1-0.8-0.3c-0.2-0.2-0.3-0.4-0.3-0.7s0.1-0.5,0.3-0.7
			c0.2-0.2,0.5-0.3,0.8-0.3h4.7c0.2,0,0.3-0.1,0.3-0.3v-2.7c0-0.3,0.1-0.6,0.3-0.8c0.2-0.2,0.5-0.3,0.8-0.3s0.6,0.1,0.8,0.3
			s0.3,0.5,0.3,0.8v2.7c0,0.2,0.1,0.3,0.3,0.3h4.6c0.3,0,0.5,0.1,0.7,0.3s0.3,0.4,0.3,0.7s-0.1,0.5-0.3,0.7s-0.4,0.3-0.7,0.3h-4.6
			c-0.2,0-0.3,0.1-0.3,0.3v4.3c0,0.2,0.1,0.2,0.3,0.2h5.5c0.3,0,0.5,0.1,0.7,0.3s0.3,0.5,0.3,0.8s-0.1,0.5-0.3,0.8s-0.5,0.3-0.7,0.3
			h-5c-0.2,0-0.2,0.1-0.2,0.2v5.1c0,0.2,0.1,0.2,0.2,0.2h4.6c0.3,0,0.6,0.1,0.8,0.3s0.3,0.5,0.3,0.8s-0.1,0.6-0.3,0.8
			s-0.5,0.3-0.8,0.3H447z M464.9,431.7c0.2,0,0.2-0.1,0.2-0.3v-7.3c0-0.2-0.1-0.2-0.2-0.2h-9.4c-0.3,0-0.5-0.1-0.7-0.3
			s-0.3-0.5-0.3-0.8s0.1-0.5,0.3-0.8s0.5-0.3,0.7-0.3h9.9c0.6,0,1,0.2,1.5,0.6s0.6,0.9,0.6,1.5v9.8c0,0.3-0.1,0.6-0.4,0.8
			s-0.5,0.3-0.8,0.3h-0.4c-0.2,0-0.4-0.1-0.6-0.2s-0.2-0.3-0.2-0.6c0-0.1,0-0.1-0.1-0.1h-7.7c-0.2,0-0.2,0.1-0.2,0.3v9.5
			c0,0.6,0.1,0.9,0.4,1.1s0.8,0.2,1.7,0.2h6.2c0.7,0,1.2-0.2,1.5-0.7s0.4-1.5,0.5-3.2c0-0.3,0.2-0.5,0.4-0.6s0.5-0.1,0.7,0
			c0.3,0.1,0.6,0.4,0.8,0.6c0.2,0.2,0.3,0.5,0.3,0.8c0,1.9-0.4,3.3-1.1,4.3c-0.5,0.7-1.5,1.1-2.9,1.1h-6.5c-1.6,0-2.7-0.2-3.3-0.7
			s-0.9-1.4-0.9-2.8v-9.7c0-0.6,0.2-1.1,0.6-1.5s0.9-0.6,1.5-0.6H464.9z"/>
		<path class="st1" d="M490.3,448.2c0,0.2,0.1,0.2,0.2,0.2h13.3c0.3,0,0.6,0.1,0.8,0.4s0.4,0.5,0.4,0.8s-0.1,0.6-0.4,0.8
			s-0.5,0.4-0.8,0.4h-29.6c-0.3,0-0.6-0.1-0.8-0.4s-0.4-0.5-0.4-0.8s0.1-0.6,0.4-0.8s0.5-0.4,0.8-0.4h13.3c0.2,0,0.3-0.1,0.3-0.2v-9
			c0-0.2-0.1-0.2-0.3-0.2h-9.4c-0.3,0-0.6-0.1-0.8-0.3s-0.3-0.5-0.3-0.8s0.1-0.6,0.3-0.8s0.5-0.3,0.8-0.3h9.4c0.2,0,0.3-0.1,0.3-0.3
			v-7.6c0-0.2-0.1-0.3-0.3-0.3h-8.2c-0.2,0-0.3,0.1-0.4,0.2c-0.8,1.7-1.8,3.3-2.9,4.7c-0.2,0.3-0.5,0.4-0.9,0.5s-0.7,0-1-0.2
			c-0.3-0.2-0.5-0.4-0.5-0.8s0-0.6,0.2-0.9c2.3-2.8,4.1-6.5,5.5-11.2c0.1-0.3,0.3-0.6,0.6-0.8s0.6-0.2,0.9-0.2
			c0.3,0.1,0.6,0.3,0.7,0.6s0.2,0.6,0.1,0.9c-0.5,1.7-1,3.2-1.6,4.5c0,0.1,0,0.1,0,0.2s0.1,0.1,0.1,0.1h7.1c0.2,0,0.3-0.1,0.3-0.3
			v-5.5c0-0.3,0.1-0.6,0.4-0.9s0.5-0.4,0.9-0.4s0.6,0.1,0.9,0.4s0.4,0.5,0.4,0.9v5.5c0,0.2,0.1,0.3,0.2,0.3h11.6
			c0.3,0,0.6,0.1,0.8,0.3s0.3,0.5,0.3,0.8s-0.1,0.6-0.3,0.8s-0.5,0.3-0.8,0.3h-11.6c-0.2,0-0.2,0.1-0.2,0.2v7.6
			c0,0.2,0.1,0.3,0.2,0.3h10.3c0.3,0,0.6,0.1,0.8,0.3s0.3,0.5,0.3,0.8s-0.1,0.6-0.3,0.8s-0.5,0.3-0.8,0.3h-10.3
			c-0.2,0-0.2,0.1-0.2,0.2V448.2z"/>
		<path class="st1" d="M515.6,433.2c0.3,0.2,0.4,0.4,0.5,0.7s0,0.6-0.2,0.9s-0.4,0.4-0.8,0.5s-0.6,0-0.9-0.2
			c-1.3-0.8-2.8-1.7-4.6-2.7c-0.3-0.1-0.4-0.4-0.5-0.6c0-0.1,0-0.1,0-0.2c0-0.2,0.1-0.4,0.2-0.6c0.2-0.2,0.4-0.4,0.7-0.5
			s0.6,0,0.9,0.1C512.8,431.6,514.4,432.5,515.6,433.2z M512.2,451.2c-0.2,0.3-0.4,0.5-0.8,0.5s-0.6,0-0.9-0.3
			c-0.3-0.2-0.4-0.5-0.5-0.9c0-0.1,0-0.1,0-0.2c0-0.3,0.1-0.5,0.2-0.8c1.9-2.9,3.8-6,5.6-9.5c0.1-0.3,0.4-0.4,0.7-0.5s0.5,0,0.8,0.2
			c0.3,0.2,0.4,0.5,0.5,0.9s0,0.7-0.1,1C515.8,445,514,448.2,512.2,451.2z M517.5,423.5c0.3,0.2,0.4,0.4,0.5,0.7s0,0.6-0.2,0.9
			s-0.4,0.4-0.8,0.5s-0.6,0-0.9-0.2c-1.4-0.9-3-1.9-4.8-2.8c-0.2-0.1-0.4-0.3-0.4-0.6s0-0.5,0.2-0.8c0.2-0.2,0.4-0.4,0.8-0.5
			s0.6,0,0.9,0.1C514.6,421.8,516.2,422.7,517.5,423.5z M540.9,430.8c0.2,0.2,0.3,0.5,0.3,0.8s-0.1,0.6-0.3,0.8s-0.5,0.3-0.8,0.3
			h-8.6c-0.2,0-0.3,0.1-0.3,0.3v5.7c0,0.2,0.1,0.3,0.3,0.3h5.2c0.6,0,1.1,0.2,1.5,0.6s0.6,0.9,0.6,1.5v10.3c0,0.3-0.1,0.6-0.3,0.8
			s-0.5,0.4-0.8,0.4s-0.6-0.1-0.8-0.4s-0.3-0.5-0.3-0.8v0c0-0.1-0.1-0.1-0.2-0.1h-12.8c-0.1,0-0.2,0.1-0.2,0.2v0.3
			c0,0.3-0.1,0.6-0.3,0.8s-0.5,0.3-0.8,0.3s-0.6-0.1-0.8-0.3s-0.3-0.5-0.3-0.8V441c0-0.6,0.2-1.1,0.6-1.5s0.9-0.6,1.5-0.6h5.5
			c0.2,0,0.3-0.1,0.3-0.3V433c0-0.2-0.1-0.3-0.3-0.3h-9.1c-0.3,0-0.6-0.1-0.8-0.3s-0.3-0.5-0.3-0.8s0.1-0.6,0.3-0.8s0.5-0.3,0.8-0.3
			h9.1c0.2,0,0.3-0.1,0.3-0.3v-5.6c0-0.2-0.1-0.2-0.3-0.2c-2.5,0.4-4.7,0.6-6.7,0.8c-0.3,0-0.6,0-0.8-0.2s-0.4-0.4-0.5-0.7
			c-0.1-0.3,0-0.5,0.1-0.7s0.3-0.4,0.6-0.4c6.8-0.8,11.8-1.7,15.2-2.6c0.3-0.1,0.5-0.1,0.7-0.1c0.6,0,1.1,0.2,1.5,0.6
			c0.2,0.2,0.3,0.5,0.2,0.8s-0.3,0.5-0.5,0.5c-2.1,0.6-4.4,1.1-6.9,1.5c-0.2,0-0.3,0.2-0.3,0.3v5.9c0,0.2,0.1,0.3,0.3,0.3h8.6
			C540.4,430.4,540.7,430.5,540.9,430.8z M536.2,448.9c0.2,0,0.3-0.1,0.3-0.2v-7.3c0-0.2-0.1-0.3-0.3-0.3h-12.7
			c-0.2,0-0.2,0.1-0.2,0.3v7.3c0,0.2,0.1,0.2,0.2,0.2H536.2z"/>
		<path class="st1" d="M553.2,423.4c0.6,0,1.1,0.2,1.5,0.6s0.6,0.9,0.6,1.5v15.6c0,0.6-0.2,1.1-0.6,1.5s-0.9,0.6-1.5,0.6h-4.7
			c-0.2,0-0.3,0.1-0.3,0.3v2.1c0,0.3-0.1,0.5-0.3,0.8s-0.5,0.3-0.8,0.3s-0.6-0.1-0.8-0.3s-0.3-0.5-0.3-0.8v-20.1
			c0-0.6,0.2-1,0.6-1.5s0.9-0.6,1.5-0.6H553.2z M553.1,425.8c0-0.2-0.1-0.2-0.3-0.2h-4.3c-0.2,0-0.3,0.1-0.3,0.2v14.8
			c0,0.2,0.1,0.3,0.3,0.3h4.3c0.2,0,0.3-0.1,0.3-0.3V425.8z M563.8,449.8h8.9c0.9,0,1.5-0.3,1.9-0.8s0.6-1.6,0.7-3.2
			c0-0.3,0.2-0.5,0.4-0.6s0.5-0.1,0.8,0c0.3,0.1,0.6,0.4,0.8,0.7c0.2,0.2,0.2,0.5,0.2,0.8c0,1.8-0.4,3.3-1.3,4.3
			c-0.6,0.8-1.8,1.1-3.4,1.1h-9.1c-2,0-3.3-0.3-4-0.9s-1.1-1.9-1.1-3.8v-22.9c0-0.6,0.2-1.1,0.6-1.5s0.9-0.6,1.5-0.6h13.4
			c0.6,0,1.1,0.2,1.5,0.6s0.6,0.9,0.6,1.5v15.4c0,0.3-0.1,0.6-0.3,0.8s-0.5,0.3-0.8,0.3s-0.6-0.1-0.8-0.3s-0.3-0.5-0.3-0.8v-0.9
			c0-0.2-0.1-0.3-0.3-0.3h-12.4c-0.2,0-0.2,0.1-0.2,0.3v8.4c0,1,0.2,1.7,0.5,2S562.6,449.8,563.8,449.8z M566.2,424.8
			c0-0.2-0.1-0.3-0.2-0.3h-4.7c-0.2,0-0.2,0.1-0.2,0.3v11.3c0,0.2,0.1,0.3,0.2,0.3h4.7c0.2,0,0.2-0.1,0.2-0.3V424.8z M573.6,436.4
			c0.2,0,0.3-0.1,0.3-0.3v-11.3c0-0.2-0.1-0.3-0.3-0.3h-5c-0.2,0-0.2,0.1-0.2,0.3v11.3c0,0.2,0.1,0.3,0.2,0.3H573.6z"/>
		<path class="st1" d="M590,449.4c-0.5,0.5-1.2,0.7-2,0.7s-1.4-0.2-2-0.7s-0.8-1.1-0.8-2c0-0.8,0.3-1.4,0.8-1.9s1.2-0.7,1.9-0.7
			s1.4,0.2,1.9,0.7s0.8,1.1,0.8,1.9C590.7,448.3,590.5,448.9,590,449.4z M588.8,441.1c-0.2,0.2-0.5,0.3-0.8,0.3s-0.6-0.1-0.8-0.3
			s-0.3-0.5-0.3-0.8l-0.8-13.2l0-2.1c0-0.5,0.2-1,0.5-1.4s0.8-0.6,1.4-0.6s1,0.2,1.4,0.6s0.6,0.8,0.5,1.4l0,2.1l-0.7,13.2
			C589.1,440.6,589,440.9,588.8,441.1z"/>
	</g>
</g>
</svg>
