<?xml version="1.0" encoding="utf-8"?>
<!-- Generator: Adobe Illustrator 22.0.1, SVG Export Plug-In . SVG Version: 6.00 Build 0)  -->
<svg version="1.1" id="圖層_1" xmlns="http://www.w3.org/2000/svg" xmlns:xlink="http://www.w3.org/1999/xlink" x="0px" y="0px"
	 viewBox="0 0 376 115.3" style="enable-background:new 0 0 376 115.3;" xml:space="preserve">
<style type="text/css">
	.st0{fill:#EF959D;}
</style>
<g id="project01_logo" transform="translate(-109.662 -499.524)">
	<g id="Group_333" transform="translate(109.662 499.524)">
		<path id="Path_992" class="st0" d="M82.6,63.5H68.1c-0.1-0.8-0.3-1.6-0.6-2.4l12.3-2.2c1.2-0.2,2-1.4,1.8-2.6
			c-0.1-0.6-0.4-1.1-0.9-1.4c-0.5-0.3-1.1-0.5-1.6-0.4L65.4,57c-2.8-4.1-8.3-5.1-12.4-2.3c-0.9,0.6-1.7,1.4-2.3,2.3l-13.7-2.4
			c-0.6-0.1-1.2,0-1.6,0.4c-1,0.7-1.3,2.1-0.6,3.1c0.3,0.5,0.9,0.8,1.4,0.9l12.3,2.2c-0.3,0.8-0.5,1.6-0.6,2.4H33.4
			c-1.2,0-2.2,1-2.2,2.2s1,2.2,2.2,2.2l0,0h14.9c1.2,1.7,3.9,2.9,7.5,3.3v2.9c0,3.7-3,6.7-6.7,6.7c-3.7,0-6.7-3-6.7-6.7
			c0-1.2-1-2.2-2.2-2.2c-1.2,0-2.2,1-2.2,2.2c0,6.1,4.9,11.1,11.1,11.1c3.5,0,6.8-1.7,8.9-4.5c3.7,4.9,10.6,5.9,15.5,2.3
			c2.8-2.1,4.5-5.4,4.5-8.9c0-1.2-1-2.2-2.2-2.2c-1.2,0-2.2,1-2.2,2.2c0,3.7-3,6.7-6.7,6.7c-3.7,0-6.7-3-6.7-6.7v-2.9
			c3.6-0.4,6.3-1.6,7.5-3.3h14.9c1.2,0,2.2-1,2.2-2.2S83.9,63.5,82.6,63.5L82.6,63.5z"/>
		<path id="Path_993" class="st0" d="M117.9,40.5L117.9,40.5L99.5,3.2c-1.2-2.4-4.1-3.4-6.5-2.2c-0.9,0.5-1.7,1.2-2.2,2.2L72.4,39.4
			c-0.1,0.2-0.2,0.3-0.4,0.3l-25.1-0.2c-0.2,0-0.3-0.1-0.4-0.3l-18-36.5c-1.2-2.4-4.1-3.4-6.5-2.2C21,1,20.2,1.7,19.7,2.7L0.9,39.8
			c-0.3,0.7-0.5,1.4-0.5,2.2L0,99.1c0,0.1,0,0.1,0,0.2l0.2,0l-0.2,0c0,0,0,0.1,0,0.1c0.1,8.7,7.2,15.8,15.9,15.9h86.5
			c0,0,0.1,0,0.1,0h0.1c0,0,0.1,0,0.1,0c8.6-0.1,15.5-7.3,15.4-15.9c0-0.8,0.3-56.3,0.3-56.7C118.4,42,118.3,41.2,117.9,40.5z
			 M94.6,91.7c0.9-0.9,0.9-2.3,0-3.1c-0.4-0.4-1-0.7-1.6-0.7h0c-0.6,0-1.1,0.2-1.5,0.6c-6.2,6-6.3,15.9-0.3,22.1
			c0.1,0.1,0.2,0.2,0.3,0.3H15.9c-6.3-0.1-11.4-5.2-11.5-11.5c0,0,0-0.1,0-0.1v-0.1c0,0,0-0.1,0-0.1c0-3.7,1.8-7.1,4.9-9.2v3.9
			c0,1.2,1,2.2,2.2,2.2s2.2-1,2.2-2.2v-5.7C14.3,88,15,88,15.6,88v-0.2l0,0l0.1,0.2c0.5,0,1,0,1.5,0.1v5.8c0,1.2,1,2.2,2.2,2.2
			c1.2,0,2.2-1,2.2-2.2c0,0,0,0,0,0v-4.1c0.8,0.5,1.4,1,2.1,1.7c0.8,0.9,2.2,0.9,3.1,0.1c0.9-0.8,0.9-2.2,0.1-3.1l0,0
			c-2.9-3.1-7-4.8-11.2-4.8h-0.1c-4.2,0-8.2,1.7-11.2,4.7L4.8,42c0-0.1,0-0.1,0.1-0.2L23.7,4.7c0.1-0.2,0.3-0.3,0.4-0.3
			c0.2,0,0.3,0.1,0.4,0.3l18,36.5c0.8,1.7,2.5,2.7,4.4,2.7L72,44c1.8,0,3.5-1,4.4-2.7L94.7,5.1c0.1-0.2,0.2-0.3,0.4-0.3
			c0,0,0,0,0.1,0c0.2,0,0.3,0.1,0.4,0.3L114,42.5c0,0.1,0,0.1,0,0.2l0,5.6c-0.1,13.8-0.3,50.5-0.3,51.2c0.1,6.2-4.8,11.3-11,11.5
			c0,0-0.1,0-0.1,0h-0.1c0,0-0.1,0-0.1,0c-6.2,0-11.2-5.1-11.2-11.3C91.2,96.7,92.5,93.8,94.6,91.7L94.6,91.7z"/>
		<path id="Path_994" class="st0" d="M100.5,85.8c-1.2,0-2.2,1-2.2,2.2v5.9c0,1.2,1,2.2,2.2,2.2c1.2,0,2.2-1,2.2-2.2V88
			C102.7,86.7,101.8,85.8,100.5,85.8z"/>
		<path id="Path_995" class="st0" d="M108.5,96.1c1.2,0,2.2-1,2.2-2.2V88c0-1.2-1-2.2-2.2-2.2c-1.2,0-2.2,1-2.2,2.2v5.9
			C106.3,95.1,107.3,96.1,108.5,96.1z"/>
		<path id="Path_996" class="st0" d="M31.8,41.1v-2c0-4.3-3.5-7.8-7.8-7.8c-4.3,0-7.8,3.5-7.8,7.8v2c0,1,0.9,1.9,1.9,1.9
			c0,0,0,0,0,0h11.7C31,43,31.8,42.2,31.8,41.1z"/>
		<path id="Path_997" class="st0" d="M102.9,41.1v-2c0-4.3-3.5-7.8-7.8-7.8c-4.3,0-7.8,3.5-7.8,7.8v2c0,1,0.9,1.9,1.9,1.9h0h11.7
			C102,43,102.9,42.2,102.9,41.1z"/>
	</g>
	<g id="Group_351" transform="translate(263.615 530.866)">
		<g id="Group_334">
			<path id="Path_998" class="st0" d="M23.8,1.4C23.4,0.5,22.6,0,21.6,0h-1c-0.9,0-1.8,0.6-2.1,1.4L0.2,43.3c-0.5,1.2,0,2.5,1.2,3.1
				c0.3,0.1,0.6,0.2,0.9,0.2h2c0.9,0,1.8-0.5,2.1-1.4l5.8-13.4h17.5l5.8,13.4c0.4,0.9,1.2,1.4,2.1,1.4h2.2c1.3,0,2.3-1,2.3-2.3
				c0-0.3-0.1-0.6-0.2-0.9L23.8,1.4z M20.9,11.2l6.3,14.5H14.9L20.9,11.2z"/>
			<path id="Path_999" class="st0" d="M61.4,12.5c-4.7-0.1-9.2,1.7-12.5,5c-6.8,6.8-6.8,17.8,0,24.5c7,6.7,18,6.7,25,0
				c6.8-6.8,6.8-17.8,0-24.5C70.5,14.2,66,12.4,61.4,12.5z M61.4,41.5c-3.1,0.1-6.2-1.1-8.4-3.4c-4.4-4.7-4.4-12.1,0-16.8
				c4.6-4.5,12-4.5,16.7,0c4.4,4.7,4.4,12,0,16.8C67.5,40.4,64.5,41.6,61.4,41.5L61.4,41.5z"/>
			<path id="Path_1000" class="st0" d="M143.9,0.3h-2c-1,0-1.9,0.6-2.2,1.5c-2.1,5.9-8.3,23.8-11.4,32.7C125,25,118.1,5.2,117.2,2.7
				c-0.3-0.9-1.2-1.5-2.2-1.5h-1.1c-0.9,0-1.8,0.6-2.1,1.4c-0.4,1-9.2,22.6-13.1,32.2l-11.6-33c-0.3-0.9-1.2-1.6-2.2-1.6h-2.2
				c-1.3,0-2.3,1-2.3,2.3c0,0.3,0,0.5,0.1,0.8l15.2,42c0.3,0.9,1.2,1.5,2.2,1.5h1c0.9,0,1.8-0.6,2.1-1.4l13-32l11.5,31.9
				c0.3,0.9,1.2,1.5,2.2,1.5h1c1,0,1.9-0.6,2.2-1.5l15.1-42c0.4-1.2-0.2-2.5-1.4-3C144.4,0.3,144.2,0.3,143.9,0.3L143.9,0.3z"/>
			<path id="Path_1001" class="st0" d="M165.2,12.5c-4.7-0.1-9.2,1.7-12.5,5c-6.8,6.8-6.8,17.8,0,24.5c7,6.7,18,6.7,25,0
				c6.8-6.8,6.8-17.8,0-24.5C174.4,14.2,169.9,12.4,165.2,12.5z M165.3,41.5c-3.1,0.1-6.2-1.1-8.4-3.4c-4.4-4.7-4.4-12.1,0-16.8
				c4.6-4.5,12-4.5,16.7,0c4.4,4.7,4.4,12,0,16.8C171.4,40.4,168.4,41.6,165.3,41.5L165.3,41.5z"/>
			<path id="Path_1002" class="st0" d="M217,17.5c-7-6.7-18-6.7-25,0c-6.8,6.8-6.8,17.8,0,24.5c7,6.7,18,6.7,25,0
				C223.7,35.2,223.7,24.3,217,17.5L217,17.5z M204.5,41.5c-3.1,0.1-6.2-1.1-8.4-3.4c-4.4-4.7-4.4-12.1,0-16.8
				c4.6-4.5,12-4.5,16.7,0c4.4,4.7,4.4,12,0,16.8C210.7,40.4,207.6,41.6,204.5,41.5z"/>
		</g>
		<g id="Group_350" transform="translate(46.271 66.404)">
			<g id="Group_347" transform="translate(14.288)">
				<g id="Group_335" transform="translate(0 1.269)">
					<path id="Path_1003" class="st0" d="M13,0c-0.4,0-0.7,0-1,0C9.2,0,9.1,0.6,9.1,2.9c0,1.8,0,3,0,3.5v0.1c0,0.9-0.3,1-1.4,1
						c-1.4,0-1.5,0-1.6-1c0-0.4,0-0.6,0-3.6C6.1,0.3,5.6,0,3.5,0H2.2C1.1,0,0.1,0.8,0.1,2c0,0.1,0,0.1,0,0.2c0,2-0.1,4-0.1,6.1
						c0,1.6,0,3.2,0.1,4.6c0,1.5,1.1,2.4,2.8,2.5c1.5,0.1,3.1,0.1,4.9,0.1s3.5,0,5-0.1c1.4,0,2.5-1.1,2.6-2.6c0-1.5,0.1-3,0.1-4.6
						c0-2,0-4-0.1-6c0-1.2-0.9-2.1-2-2.2C13.2,0,13.1,0,13,0z M13.8,12.5c0,1-0.5,1.5-1.6,1.5C10.6,14,9.1,14,7.6,14S4.7,14,3.3,14
						c-1.2,0-1.7-0.4-1.8-1.4c0-1.4-0.1-3-0.1-4.6c0-1.7,0-3.5,0.1-5.3c0-1.3,0.4-1.3,1.5-1.3c1.7,0,1.7,0,1.7,1.6v2.9
						c0,2.5,0.4,2.9,2.9,2.9c2.8,0,2.9-0.7,2.9-3.2c0-0.6,0-1.2,0-1.7c0-0.5,0-0.9,0-1.3c0-1,0-1.3,0.8-1.3h1.4c0.7,0,1,0.2,1,1.3
						c0,1.6,0.1,3.4,0.1,5.2C13.9,9.5,13.8,11,13.8,12.5L13.8,12.5z"/>
				</g>
				<g id="Group_339" transform="translate(27.548 0.585)">
					<g id="Group_336" transform="translate(4.541 5.661)">
						<path id="Path_1004" class="st0" d="M10.7,1.2c0.3,0,0.6-0.3,0.6-0.6c0,0,0,0,0,0c0-0.3-0.2-0.6-0.6-0.6c0,0,0,0,0,0H0.6
							C0.3,0,0,0.3,0,0.6c0,0,0,0,0,0C0,1,0.3,1.2,0.6,1.2c0,0,0,0,0,0l3,0C3.4,1.8,3,2.7,2.7,3.3c-0.6,0-1.3,0.1-1.9,0.1
							C0.5,3.4,0.2,3.7,0.2,4c0,0,0,0,0,0c0,0.4,0.3,0.7,0.6,0.7c0,0,0,0,0,0c2.8-0.1,5.5-0.4,8.3-0.8c0.2,0.2,0.5,0.5,0.7,0.8
							C10,4.9,10.2,5,10.4,5c0.4,0,0.7-0.3,0.7-0.7c0-0.9-2.9-3-3.6-3c-0.3,0-0.6,0.3-0.7,0.6c0,0.2,0.1,0.4,0.3,0.5
							C7.4,2.5,7.7,2.7,8,2.9C6.6,3.1,5.4,3.2,4.2,3.2c0.3-0.7,0.7-1.6,0.9-2L10.7,1.2z"/>
					</g>
					<g id="Group_337">
						<path id="Path_1005" class="st0" d="M3.8,4.3c0.6,0,1.3,0,2,0c0.7,0,1.5,0,2.2,0c1.7,0,3.5,0,5.5,0s2.2-1,2.2-2.1
							c0-1.2-0.2-2.1-2.2-2.2c-2.8,0-6.4,0-9.2,0c-1-0.1-1.9,0.6-2.1,1.6c0,0.1,0,0.1,0,0.2c0,0.3,0,0.7,0,1c0,0.8,0,1.6,0,2.5
							c0,3.3-0.2,7.4-2.2,10C0.1,15.4,0,15.6,0,15.8c0,0.4,0.3,0.7,0.7,0.7c0.3,0,0.5-0.1,0.7-0.4c2.1-2.8,2.4-7.4,2.4-11.5L3.8,4.3
							z M3.8,2.1c0-0.4,0.1-0.8,1.1-0.8c2.4,0,5.8,0,8.4,0c0.9,0,0.9,0.3,0.9,0.9c0,0.6,0,0.8-0.9,0.8c-1.2,0-2.8,0-4.5,0
							c-1.6,0-3.4,0-5,0L3.8,2.1z"/>
					</g>
					<g id="Group_338" transform="translate(3.491 10.362)">
						<path id="Path_1006" class="st0" d="M12.4,4.6l-5.1,0V2.9L11,3c0.3,0,0.6-0.3,0.6-0.6c0-0.3-0.3-0.6-0.6-0.6l-3.7,0v-1
							C7.3,0.3,6.9,0,6.5,0C6.2,0,5.9,0.3,5.9,0.7l0,1L2,1.7C1.6,1.7,1.4,2,1.4,2.3C1.4,2.7,1.6,3,2,3l0,0l3.9,0v1.7l-5.2,0
							C0.3,4.6,0,4.9,0,5.3c0,0.4,0.3,0.6,0.6,0.6h11.7c0.4,0,0.6-0.3,0.6-0.6C13,4.9,12.7,4.6,12.4,4.6L12.4,4.6z"/>
					</g>
				</g>
				<g id="Group_340" transform="translate(56.286)">
					<path id="Path_1007" class="st0" d="M13.1,3.8c-1.5,0-3.1-0.1-4.8-0.1l0-3C8.3,0.3,8,0,7.5,0C7.2,0,6.9,0.3,6.9,0.7l0,3
						c-1.6,0-3.2,0-4.6,0.1c-1.2,0-2.1,0.9-2.2,2c0,0.5,0,1.1,0,1.6s0,1.2,0,1.7c0.1,1.2,1.1,2.1,2.2,2c0,0,0,0,0,0
						c1.5,0.1,3,0.1,4.6,0.1l0,5.6c0,0.4,0.3,0.7,0.7,0.7c0,0,0,0,0,0c0.4,0,0.7-0.3,0.8-0.6c0,0,0,0,0,0l0-5.6c1.6,0,3.1,0,4.6-0.1
						c1.2,0,2.1-0.9,2.2-2c0-0.6,0-1.2,0-1.8s0-1.2,0-1.7C15.1,4.6,14.2,3.8,13.1,3.8z M6.9,9.9c-1.8,0-3.2-0.1-4.2-0.1
						c-1.2,0-1.3-0.4-1.3-2.3c0-0.5,0-0.9,0-1.3c0-0.6,0.6-1.1,1.2-1.1c1.1,0,2.6-0.1,4.2-0.1V9.9z M13.8,8.8c0,0.6-0.5,1-1.2,1.1
						c-1.4,0.1-2.9,0.1-4.2,0.1V5.1c1.6,0,3.1,0,4.2,0.1c1.2,0,1.2,0.5,1.2,2.1C13.8,7.8,13.8,8.3,13.8,8.8L13.8,8.8z"/>
				</g>
				<g id="Group_346" transform="translate(83.15 0.516)">
					<g id="Group_341" transform="translate(0 7.554)">
						<path id="Path_1008" class="st0" d="M17,7.6L17,7.6L16,7.7c-1.4,0.1-3.1,0.3-4.7,0.3C7.8,7.9,6,7.3,4.7,5.7c0-0.7,0-1.4,0-2.1
							c0-0.6,0-1.2,0-1.8C4.8,0,3.5,0,2.3,0H1.1C0.7,0,0.4,0.3,0.4,0.7c0,0,0,0,0,0c0,0.4,0.3,0.7,0.6,0.7c0,0,0,0,0,0h1.6
							c0.5,0,0.6,0.1,0.6,0.6v0.9c0,0.8,0,1.7,0,2.7l0,0C2.5,6.5,1.5,7.3,0.4,7.8C0.2,7.9,0,8.2,0,8.4c0,0.4,0.4,0.8,0.8,0.8
							c0.6,0,2.4-1.5,3.2-2.4c1.9,2,3.5,2.5,7.9,2.5c2,0,4-0.1,5.1-0.3c0.4,0,0.8-0.3,0.8-0.8C17.8,7.9,17.4,7.6,17,7.6
							C17,7.6,17,7.6,17,7.6z"/>
					</g>
					<g id="Group_342" transform="translate(5.015)">
						<path id="Path_1009" class="st0" d="M0.8,6.8C1.2,6.8,2,6,2.9,5.1v0c0,0.4,0.3,0.6,0.6,0.6c0,0,0,0,0,0l1.9,0v1.7l-3.9,0
							C1.2,7.4,0.9,7.7,0.9,8c0,0.4,0.3,0.7,0.6,0.7c0,0,0,0,0.1,0l3.9,0v3.8c0,0.6-0.2,0.7-0.6,0.7c-0.4,0-0.7-0.1-1.1-0.2l-0.1,0
							c0,0-0.1,0-0.1,0c-0.4,0-0.7,0.3-0.7,0.7c0,0.8,1.1,0.8,1.9,0.8c1.7,0,2-1,2-1.8v-0.1c0,0,0-1.2,0-1.3V8.7l4,0
							c0.4,0,0.7-0.2,0.7-0.6c0,0,0,0,0,0c0-0.4-0.3-0.7-0.6-0.7c0,0,0,0,0,0l-4,0V5.7l2.1,0c0.4,0,0.7-0.3,0.7-0.6c0,0,0,0,0,0
							c0-0.1,0-0.1,0-0.2c0.5,0.5,1.1,0.9,1.5,1.3l0,0c0.2,0.1,0.3,0.2,0.5,0.2c0.4,0,0.8-0.4,0.8-0.8c0-0.2-0.1-0.5-0.4-0.6
							c-1.8-1.2-3.3-2.6-4.7-4.2C7.1,0.3,6.6,0,6,0C5.4,0,4.9,0.3,4.6,0.8C3.5,2.6,2.1,4.1,0.4,5.4C0.2,5.6,0,5.8,0,6.1
							C0,6.5,0.4,6.8,0.8,6.8z M5.7,1.7C5.9,1.4,6,1.4,6.1,1.4c0.1,0,0.3,0.1,0.4,0.3c0.8,1,1.7,1.9,2.7,2.8c0,0-0.1,0-0.1,0H3.6
							c0,0-0.1,0-0.1,0C4.3,3.6,5,2.6,5.7,1.7L5.7,1.7z"/>
					</g>
					<g id="Group_343" transform="translate(5.334 9.379)">
						<path id="Path_1010" class="st0" d="M4.1,0.7C4.1,0.3,3.8,0,3.4,0C3.2,0,3,0.1,2.9,0.3C2.3,1.2,1.4,1.9,0.4,2.3
							C0.2,2.4,0,2.7,0,2.9c0,0.4,0.3,0.7,0.7,0.7C1.5,3.7,4.1,1.5,4.1,0.7z"/>
					</g>
					<g id="Group_344" transform="translate(12.809 9.498)">
						<path id="Path_1011" class="st0" d="M0.7,0C0.3,0,0,0.3,0,0.7c0,0.2,0.1,0.4,0.3,0.5c0.9,0.5,1.8,1.2,2.5,2
							c0.1,0.2,0.3,0.3,0.5,0.3c0.4,0,0.7-0.4,0.7-0.8c0-0.2-0.1-0.4-0.2-0.6C3.1,1.4,1.2,0,0.7,0z"/>
					</g>
					<g id="Group_345" transform="translate(0.442 3.126)">
						<path id="Path_1012" class="st0" d="M0.5,1.4l2.6,0.7c0.1,0,0.1,0,0.2,0C3.7,2.1,4,1.8,4,1.4c0-0.3-0.2-0.6-0.5-0.7L0.9,0
							C0.5-0.1,0.1,0.1,0,0.5C-0.1,0.9,0.1,1.3,0.5,1.4L0.5,1.4z"/>
					</g>
				</g>
			</g>
			<g id="Group_348" transform="translate(0 1.282)">
				<path id="Path_1013" class="st0" d="M0.9,15C0.4,15,0,14.7,0,14.2V0.9C0,0.4,0.4,0,0.9,0s0.9,0.4,0.9,0.9v13.3
					C1.7,14.7,1.3,15,0.9,15C0.9,15,0.9,15,0.9,15z"/>
			</g>
			<g id="Group_349" transform="translate(127.799 1.282)">
				<path id="Path_1014" class="st0" d="M0.9,15C0.4,15,0,14.7,0,14.2V0.9C0,0.4,0.4,0,0.9,0s0.9,0.4,0.9,0.9v13.3
					C1.7,14.7,1.3,15,0.9,15C0.9,15,0.9,15,0.9,15z"/>
			</g>
		</g>
	</g>
</g>
</svg>
