<svg xmlns="http://www.w3.org/2000/svg" width="499.734" height="189.706" viewBox="0 0 499.734 189.706">
  <g id="Group_424" data-name="Group 424" transform="translate(-665.435 281.563)">
    <g id="Group_422" data-name="Group 422" transform="translate(665.435 -281.563)">
      <g id="Group_414" data-name="Group 414">
        <path id="Path_1114" data-name="Path 1114" d="M722.792-276.031a26.734,26.734,0,0,0-6.878-3.4,28.667,28.667,0,0,0-7.668-.555c-4.472,0-4.472-1.2-8.944-1.2s-4.471,1.222-8.941,1.222-4.473-1.12-8.947-1.12-4.474-.476-8.948-.476c-1.734,0-2.647,1.729-3.87,2.951s-2.745,2.14-2.745,3.871c0,4.295,1.138,4.295,1.138,8.589s-.989,4.3-.989,8.59-.443,4.294-.443,8.589,1.336,4.294,1.336,8.588.1,4.294.1,8.588-1.021,4.294-1.021,8.588.406,4.295.406,8.59-.925,4.3-.925,8.593,1.806,4.295,1.806,8.59-1.824,4.3-1.824,8.6.526,4.3.526,8.6c0,1.735.052,3.893,1.174,5.118s3.343.152,5.178.152c1.733,0,3.764.943,4.887-.279s1.444-3.255,1.444-4.99c0-4.567-.781-4.567-.781-9.135s.5-4.566.5-9.131.336-4.57.336-9.139-3.564-5.8-.193-8.883c3.683-3.371,4.759.479,9.752.479s5-1.149,9.992-1.149,5,.954,9.991.954a30.039,30.039,0,0,0,8.1-.745c2.526-.726,4.194-3.447,6.477-4.907s5.494-1.8,7.287-3.765a33.654,33.654,0,0,0,4.516-6.849c1.328-2.5,1.825-5.443,2.475-8.234a37.35,37.35,0,0,0,.89-8.455,37.915,37.915,0,0,0-.818-8.473,31.073,31.073,0,0,0-3.46-7.726c-1.29-2.379-1.777-5.369-3.545-7.246C728.375-274.553,725.075-274.645,722.792-276.031Zm1.332,37.585a20.722,20.722,0,0,1-6.749,7.453,16.464,16.464,0,0,1-9.129,3.3c-4.992,0-4.992-1.2-9.985-1.2s-5,1.222-9.992,1.222-6.057,2.036-9.944-1.1c-3.139-2.536.5-3.976.5-8.011s-1.349-4.037-1.349-8.073,1.143-4.035,1.143-8.071-1.138-4.038-1.138-8.076-2.224-5.383.916-7.922c3.882-3.14,4.869.486,9.861.486s5-1.336,9.992-1.336,5-.1,9.991-.1c3.262,0,6.068,1.849,8.668,3.581a18.237,18.237,0,0,1,6.479,6.842c1.529,3.007,1.388,6.48,1.388,10.25S725.653-241.553,724.124-238.445Z" transform="translate(-665.435 281.563)" fill="#584b53"/>
      </g>
      <g id="Group_415" data-name="Group 415" transform="translate(89.755 26.349)">
        <path id="Path_1115" data-name="Path 1115" d="M804.841-252.456a12.852,12.852,0,0,0-6.345-1.536c-3.772,0-7.529.222-10.687,1.6a29.186,29.186,0,0,0-8.572,5.861c-2.446,2.4-3.369,5.9-4.947,8.9-.55,1.047-1.974,1.784-2.407,2.849-.24-5.364.254-5.383.254-10.754a6,6,0,0,0-1.76-4.377c-1.123-1.172-2.46-1.256-4.295-1.256-1.735,0-3.082.057-4.253,1.228a6.141,6.141,0,0,0-2.079,4.4c0,4.156-.117,4.156-.117,8.311s.956,4.155.956,8.31-.418,4.156-.418,8.311-.64,4.156-.64,8.313,1.058,4.158,1.058,8.316-.778,4.156-.778,8.313-.457,4.159-.457,8.319,1.273,4.16,1.273,8.319c0,1.735-.231,3.359.941,4.582s2.777,1.176,4.513,1.176,3.176-.109,4.349-1.331,1.065-2.692,1.065-4.428c0-4.644.442-4.644.442-9.288s.689-4.642.689-9.284-.84-4.645-.84-9.292.558-4.645.558-9.291c0-3.67,1.241-6.812,2.517-10.023s2.108-6.441,4.2-8.94a24.794,24.794,0,0,1,7.188-5.436c2.5-1.428,4.808-2.7,7.357-2.7a10.387,10.387,0,0,1,4.632,1.013,8.151,8.151,0,0,0,3.778.813,4.921,4.921,0,0,0,3.564-1.683,5.817,5.817,0,0,0,1.877-4.546A5.166,5.166,0,0,0,804.841-252.456Z" transform="translate(-759.354 253.992)" fill="#584b53"/>
      </g>
      <g id="Group_416" data-name="Group 416" transform="translate(143.463 26.486)">
        <path id="Path_1116" data-name="Path 1116" d="M875.625-248.851c-3.046-1.822-6.7-2.149-10.164-3.041-3.312-.853-6.655-1.956-10.345-1.956a41.023,41.023,0,0,0-10.416,1.531c-3.425.892-6.912,1.731-9.969,3.544a39.876,39.876,0,0,0-8.255,6.4,41.21,41.21,0,0,0-6,8.522c-1.211,2.141-1.36,4.71-2.154,7.055-.775,2.292-2.16,4.43-2.538,6.916a49.94,49.94,0,0,0-.187,7.375,48.48,48.48,0,0,0,.524,7.323,42.3,42.3,0,0,0,1.414,7.233,39.012,39.012,0,0,0,3.22,6.632,40.927,40.927,0,0,0,5.844,8.563,39.369,39.369,0,0,0,8.4,6.069c3.056,1.814,6.037,4.022,9.462,4.914a42.915,42.915,0,0,0,10.656,1.228,42.637,42.637,0,0,0,10.6-1.6c3.459-.891,6.282-3.171,9.327-4.994,3-1.795,6.076-3.31,8.445-5.776,2.338-2.435,4.989-4.874,6.712-7.963,1.194-2.144.974-4.945,1.757-7.294.764-2.291,2.59-4.393,2.963-6.88a51.389,51.389,0,0,0,.442-7.458,51.745,51.745,0,0,0-.357-7.47,43.423,43.423,0,0,0-2.136-7.17,39.876,39.876,0,0,0-3.393-6.586,40.263,40.263,0,0,0-5.959-8.395A39.075,39.075,0,0,0,875.625-248.851Zm2.841,51.565c-1.185,2.218-1.686,4.862-3.294,6.619-1.645,1.8-4.01,2.87-6.1,4.183a24.967,24.967,0,0,1-6.631,3.184c-2.3.628-4.772.374-7.327.374A26.083,26.083,0,0,1,848-183.933a24.826,24.826,0,0,1-6.7-2.657c-2.108-1.311-4.624-2.208-6.277-4-1.627-1.759-2.392-4.3-3.579-6.526a29.451,29.451,0,0,1-3.089-7.386,36.827,36.827,0,0,1-.831-8,36.578,36.578,0,0,1,1.146-7.969,29.063,29.063,0,0,1,2.551-7.614,28.193,28.193,0,0,1,4.564-5.667,27.34,27.34,0,0,1,5.347-4.93c2.109-1.312,4.609-1.441,6.952-2.091a25.488,25.488,0,0,1,7.031-1.02,26.842,26.842,0,0,1,7.181.623c2.376.65,5.06.722,7.159,2.042,2.082,1.311,3.539,3.461,5.18,5.239,1.613,1.747,2.389,4.036,3.576,6.235,1.247,2.309,3.4,4.33,4,7.039.55,2.494-.457,5.279-.457,8.113a35.188,35.188,0,0,1-.726,7.811A28.561,28.561,0,0,1,878.466-197.286Z" transform="translate(-815.553 253.848)" fill="#584b53"/>
      </g>
      <g id="Group_417" data-name="Group 417" transform="translate(241.068 2.519)">
        <path id="Path_1117" data-name="Path 1117" d="M930.787-277.58c-1.223-1.018-3.1-1.347-5.547-1.347s-4.346.365-5.67,1.382-1.885,2.616-1.885,4.756c0,1.07.049,1.07.049,2.141,0,2.141.441,3.76,1.664,4.776s3.139,1.39,5.689,1.39c2.445,0,4.286-.429,5.562-1.45a5.688,5.688,0,0,0,1.971-4.716c0-1.07.028-1.07.028-2.141A5.948,5.948,0,0,0,930.787-277.58Z" transform="translate(-917.686 278.927)" fill="#584b53"/>
      </g>
      <g id="Group_418" data-name="Group 418" transform="translate(226.096 28.464)">
        <path id="Path_1118" data-name="Path 1118" d="M924.546-251.778A5.675,5.675,0,0,0,920.219-250a5.814,5.814,0,0,0-1.368,4.4c0,4.188-.309,4.188-.309,8.374s.757,4.186.757,8.373-.912,4.187-.912,8.373.534,4.187.534,8.374.083,4.188.083,8.374-.134,4.19-.134,8.378-1.145,4.188-1.145,8.375.02,4.191.02,8.381-.073,4.191-.073,8.381a17.047,17.047,0,0,1-1.252,7.139c-.917,2.087-1.485,4.146-3.115,5.421s-3.9,1.331-6.247,1.943c-1.529.407-2.676,1.769-3.7,2.686s-1.071,2.23-1.071,3.759c0,.535-.273.535-.273,1.069,0,1.53,1.135,2.181,2.206,3.3s1.765,1.988,3.5,1.988c3.771,0,7.578-.334,11.045-2.37s7.075-4.641,9.368-8.31c1.2-1.924,1.716-4.5,2.289-6.841.519-2.128-.054-4.562-.054-7.037,0-4.34,1.183-4.34,1.183-8.679s-.128-4.34-.128-8.678-.528-4.34-.528-8.678.633-4.34.633-8.678-.773-4.341-.773-8.681.906-4.342.906-8.684-1.459-4.341-1.459-8.681.559-4.344.559-8.687.359-4.344.359-8.687a7.674,7.674,0,0,0-1.533-4.993C928.468-251.81,926.381-251.778,924.546-251.778Z" transform="translate(-902.02 251.778)" fill="#584b53"/>
      </g>
      <g id="Group_419" data-name="Group 419" transform="translate(276.546 26.728)">
        <path id="Path_1119" data-name="Path 1119" d="M1017.248-243.295c-1.7-1.671-2.862-4-4.784-5.265a35.779,35.779,0,0,0-6.459-2.98,36.7,36.7,0,0,0-6.8-1.914c-2.266-.427-4.648.247-7.028.247-3.191,0-6.278-.078-9.3.765a36.482,36.482,0,0,0-8.436,4.03,34.755,34.755,0,0,0-8.017,5.917c-2.226,2.355-4.806,4.7-6.521,7.754a39.133,39.133,0,0,0-3.278,7.281,47.354,47.354,0,0,0-1.758,7.787c-.334,2.489.967,5.209.967,7.945,0,2.517-.409,4.929-.067,7.258a41.536,41.536,0,0,0,1.713,7.062c.774,2.335,1.031,4.934,2.218,7.04a38.2,38.2,0,0,0,6.506,8.051,38.46,38.46,0,0,0,8.341,5.993c2.136,1.211,4.209,2.835,6.593,3.624,2.293.757,5.024,0,7.547.363,2.366.343,4.746,1.155,7.315,1.155,2.742,0,5.578.437,8.168-.144,2.61-.587,4.957-2.257,7.412-3.434,2.3-1.1,4.643-1.884,6.49-3.163,2.089-1.447,3.509-3.511,5.025-5.189,1.732-1.426,2.936-2.878,2.936-4.611,0-1.426-1.156-2.219-2.174-3.239s-1.863-2.247-3.392-2.247a7.645,7.645,0,0,0-4.214,1.221,30.5,30.5,0,0,1-4.717,4.344,26.488,26.488,0,0,1-6.529,3.914c-2.6.916-5.794.693-9.464.693-2.721,0-5.384.6-7.792-.015a26.511,26.511,0,0,1-7.122-3.237,28.05,28.05,0,0,1-6-4.433,28.765,28.765,0,0,1-4.35-6.1,29.992,29.992,0,0,1-2.563-6.553,38.706,38.706,0,0,1-.591-7.148c4.464-1.181,4.664-.609,9.281-.609s4.619.155,9.237.155,4.62,1.168,9.24,1.168,4.62-1.016,9.238-1.016,4.622,1.252,9.244,1.252,4.622-.054,9.244-.054c1.629,0,2.592-1.791,3.814-2.862a4.624,4.624,0,0,0,2.018-3.523,43.435,43.435,0,0,0-.982-7.84c-.537-2.709-.09-5.659-1.147-8.039-1.008-2.266-2.988-3.988-4.331-5.955A36.865,36.865,0,0,0,1017.248-243.295Zm-42.506,7.631c2.393-2.344,5.587-3.142,8.6-4.265a24.951,24.951,0,0,1,8.838-1.988,24.042,24.042,0,0,1,10.639,2.348c3.415,1.631,6.9,3.3,9.3,6.31s3.421,6.95,3.83,11.129c.046.61.6,1.588,0,1.68-3.959.6-4.074-.364-8.078-.364s-4.006-.714-8.012-.714-4.007-.14-8.014-.14-4.006-.049-8.012-.049-4.009,1.476-8.018,1.476-4.148.395-8.037-.581a32.107,32.107,0,0,1,1.344-5.477A25.633,25.633,0,0,1,974.742-235.664Z" transform="translate(-954.811 253.595)" fill="#584b53"/>
      </g>
      <g id="Group_420" data-name="Group 420" transform="translate(362.75 26.443)">
        <path id="Path_1120" data-name="Path 1120" d="M1107.489-190.1a4.678,4.678,0,0,0-3.635,1.7c-.97,1.021-3.019,1.106-4.854,2.124a22.675,22.675,0,0,1-5.174,2.1c-2.141.612-4.739,2.065-8.2,2.065-2.675,0-5.1-1.1-7.459-1.727a24.282,24.282,0,0,1-6.988-2.8c-2.1-1.332-4.631-2.245-6.269-4.042a29.958,29.958,0,0,1-3.851-6.4c-1.21-2.313-1.618-4.973-2.2-7.612a35.852,35.852,0,0,1-.664-7.813c0-2.769-.409-5.46.155-7.941.6-2.635,1.1-5.42,2.333-7.73,1.194-2.237,3.4-3.8,5.068-5.582a28.255,28.255,0,0,1,5.433-5.107,26.55,26.55,0,0,1,7.226-2.869c2.4-.633,4.992-.394,7.68-.394a35.909,35.909,0,0,1,6.882,1.12c2.343.46,4.5-.208,5.723.4,1.324.715,1.724,2.3,2.489,3.067a15.727,15.727,0,0,0,2.635,1.929,7.148,7.148,0,0,0,3.678.774c1.629,0,2.369-1.274,3.237-2.5a5.862,5.862,0,0,0,1.4-3.614c0-2.447-1.292-4.04-3.739-5.977a25.454,25.454,0,0,0-9.544-4.89,47.748,47.748,0,0,0-6.953-1.089,61.614,61.614,0,0,0-7.035-.428c-2.493,0-4.981-.84-7.279-.47-2.435.393-4.488,2.058-6.7,2.866-2.275.83-4.637,1.347-6.681,2.617a38.315,38.315,0,0,0-7.787,6.619,38.91,38.91,0,0,0-5.823,8.356,40.233,40.233,0,0,0-2.713,6.659c-.731,2.265-2.017,4.452-2.375,6.89-.342,2.33.068,4.8.068,7.288s-.8,5.015-.473,7.351c.347,2.443,1.622,4.706,2.33,6.981a42.669,42.669,0,0,0,2.568,6.812,38.33,38.33,0,0,0,6.057,8.159c2.268,2.5,5.213,4.038,8.14,5.86a33.146,33.146,0,0,0,9.542,4.076c3.294.847,6.616,1.889,10.363,1.889,2.619,0,5.159.391,7.512.079a43.127,43.127,0,0,0,7.353-1.646,31.037,31.037,0,0,0,10.141-5.553c2.547-2.038,4.712-3.937,4.712-5.875,0-1.629-1.75-2.619-2.667-3.742A4.313,4.313,0,0,0,1107.489-190.1Z" transform="translate(-1045.014 253.893)" fill="#584b53"/>
      </g>
      <g id="Group_421" data-name="Group 421" transform="translate(437.644 8.492)">
        <path id="Path_1121" data-name="Path 1121" d="M1165.4-240.365c1.629,0,2.913-1.1,3.983-2.169a4.973,4.973,0,0,0,1.376-3.831,5.194,5.194,0,0,0-1.543-3.9c-1.07-1.12-2.187-2.519-3.816-2.519-3.479,0-3.479.187-6.958.187s-5.117,3.48-7.523.967c-2.512-2.622-.239-4.173-.239-7.8s1.392-3.632,1.392-7.263a7.042,7.042,0,0,0-2.183-4.515c-1.123-1.222-2.636-1.461-4.367-1.461s-3.586-.055-4.809,1.167-.6,3.077-.6,4.809c0,3.632-1.024,3.632-1.024,7.263s2.872,4.818-.044,6.982c-3.93,2.916-4.686,0-9.579,0a6.2,6.2,0,0,0-4.1,1.84,5.574,5.574,0,0,0-1.985,4.1c0,1.529,1.44,2.248,2.614,3.368a4.308,4.308,0,0,0,3.468,1.535c4.893,0,5.708-1.991,9.483,1.123,3.114,2.57,1.1,3.67,1.1,7.706s.106,4.039.106,8.077-.6,4.04-.6,8.079.016,4.039.016,8.076-.012,4.042-.012,8.083.137,4.041.137,8.082c0,4.689-.019,8.473,1.357,11.072s3.05,4.861,5.09,5.981,4.415,1.081,6.505,1.284,3.831.653,5.26.653a13.766,13.766,0,0,0,7.112-2.218c2.141-1.273,3.777-2.7,3.777-4.539,0-1.53-1.167-2.562-2.032-3.532a2.91,2.91,0,0,0-2.589-1.062c-1.02,0-2.127-.89-2.892-.533a5.4,5.4,0,0,1-2.459.806c-1.124,0-2.593.788-3.765.33s-1.217-2.46-1.929-3.684A9.331,9.331,0,0,1,1151.32-193c0-3.986-.539-3.986-.539-7.972s.643-3.987.643-7.975,1-3.988,1-7.977-.84-3.987-.84-7.975.184-3.99.184-7.98-2.844-4.918-.222-7.925c2.286-2.622,3.415-.121,6.889.044S1161.919-240.365,1165.4-240.365Z" transform="translate(-1123.382 272.677)" fill="#584b53"/>
      </g>
    </g>
    <path id="Path_1122" data-name="Path 1122" d="M1173.524-87.877c-2.255,2.451-1.778.151-5.109.151s-3.331,1.382-6.661,1.382-3.331,1.753-6.661,1.753-3.331-1.042-6.662-1.042-3.33-.086-6.66-.086-3.332-1.945-6.663-1.945-3.329.922-6.657.922-3.328,1.714-6.656,1.714-3.33-2.131-6.659-2.131-3.331-.025-6.661-.025-3.328-.869-6.657-.869-3.33,3.44-6.659,3.44-3.331-1.118-6.662-1.118-3.33-.326-6.659-.326-3.332-2.385-6.662-2.385-3.33.744-6.66.744-3.331,2.924-6.662,2.924-3.33-1.562-6.661-1.562-3.331-1.13-6.663-1.13-3.331-.811-6.662-.811-3.332.043-6.663.043-3.333.3-6.664.3-3.331,2.531-6.664,2.531-3.331-1.815-6.663-1.815-3.332,2.062-6.665,2.062-3.332-.667-6.665-.667-3.33-1.287-6.661-1.287-3.331.3-6.663.3-3.332,1.534-6.664,1.534-3.332-3.158-6.664-3.158-3.332,2.594-6.666,2.594-3.331-2.161-6.662-2.161-3.333-.426-6.668-.426-3.335,1.443-6.672,1.443-5.014,3.532-7.275,1.08c-2.453-2.66-1.5-4.174-1.5-7.792s2.907-3.617,2.907-7.234-1.9-3.619-1.9-7.239-.007-3.334,2.445-6c2.255-2.451,1.982-1.342,5.313-1.342s3.331,2.211,6.661,2.211,3.33-.876,6.661-.876,3.331-2.953,6.662-2.953,3.331,1.477,6.66,1.477,3.331-1.339,6.663-1.339,3.329,2.909,6.657,2.909,3.328-3.615,6.656-3.615,3.33,1.185,6.659,1.185,3.33,2.125,6.661,2.125,3.329.853,6.657.853,3.33-2.78,6.659-2.78,3.331-.134,6.662-.134,3.329,1.887,6.659,1.887,3.332-.606,6.662-.606,3.331-1.355,6.66-1.355,3.331.4,6.662.4,3.33,1.686,6.661,1.686,3.332.395,6.663.395,3.33-1,6.662-1,3.332-.83,6.663-.83,3.332,1.6,6.664,1.6,3.331-1.821,6.664-1.821,3.331,2.425,6.663,2.425,3.332-2.537,6.665-2.537,3.332-.364,6.665-.364,3.331,3.124,6.661,3.124,3.331-3.6,6.663-3.6,3.333,3.59,6.664,3.59,3.333-2.68,6.664-2.68,3.332-.876,6.666-.876,3.331,1.22,6.662,1.22,3.333-1.689,6.668-1.689,3.335,2.8,6.671,2.8,4.8-3.546,7.062-1.094c2.453,2.66,1.77,3.978,1.77,7.6s-4.065,3.616-4.065,7.233,2.537,3.551,2.85,7.158C1176.291-90.648,1175.976-90.54,1173.524-87.877Z" transform="translate(-12.155 -7.265)" fill="#e3ba96"/>
    <g id="Group_423" data-name="Group 423" transform="translate(952.104 -146.399)">
      <path id="Path_1123" data-name="Path 1123" d="M990.665-115.016c1.376.091,2.8-.46,4.268-.46a32.2,32.2,0,0,1,4.727.184,18.7,18.7,0,0,0,3.212.459c1.193,0,2.386-.506,3.625-.506,1.056,0,.872,3.488.872,4.268,0,1.744-2.845,1.01-4.039,1.285.689.734,2.249,1.193,2.661,2.019-.6,1.422-5.231,2.845-6.241,3.992,1.515.872,7.893,2.157,7.893,3.213,0,.963-2.34,4.038-3.441,4.038-4.176,0-8.076-2.478-11.381-4.727-.872-.6-1.79-1.652-2.8-1.928a14.4,14.4,0,0,0-.093,2.433c0,.5.093,1.239-.275,1.606-.872.918-5.369,1.01-6.562,1.01-3.993,0-6.471,1.284-10.692,1.284-1.24,0-1.79-3.717-1.79-4.727,0-1.239,3.4-.826,4.359-.917l.275-.275a2.7,2.7,0,0,0,.093-.6.847.847,0,0,0-.184-.6c-2.065.229-3.3.917-5.6.917-.917,0-3.947-2.845-4.129-3.671.367-.5,9.544-2.2,11.609-2.891a19.219,19.219,0,0,0-3.626-.183c-1.927-.092-3.808-.229-5.736-.413-2.661-.23-2.248-.689-2.248-3.213a1.538,1.538,0,0,1,.275-1.1c.642-.642,12.481-.367,12.895-.367a18.158,18.158,0,0,0,4.176-.46v-.183c.046-.642-.734-1.1-.734-1.789,0-1.469.962-2.937.962-4.451a.692.692,0,0,0-.091-.414,7.438,7.438,0,0,0-1.7.321c-1.009.368-.092,4.682-1.055,5.645-.55.55-2.983.459-3.81.459-.962,0-1.834-.092-1.834-1.284v-3.718c0-.826.091-1.33-.918-1.33-1.79,0-.642,4.038-1.652,5.185-.459.5-3.029.459-3.762.459-1.561,0-1.1-2.8-1.1-3.718,0-7.526.275-5.461,7.48-5.965a.683.683,0,0,0,.184-.414l-.046-.275-.229-.183c-1.1-.138-8.168-.55-8.489-.872-.414-.413-.368-2.386-.368-2.983a2.256,2.256,0,0,1,.093-.55c.5-.506,1.468-.321,2.157-.506-.506-.275-2.02-.826-2.25-1.239,0-.642,1.377-2.249,1.744-2.937.551-1.01.872-2.111,1.468-3.075a.7.7,0,0,1,.46-.413c1.561.183,2.753,2.707,4.864,2.707a1.162,1.162,0,0,0,.55-.092c.046-.734-.229-1.422-.229-2.157,0-.826,2.34-.734,2.984-.734,3.074,0,2.983-.55,2.983,2.386a.821.821,0,0,0,.183.459,7.659,7.659,0,0,0,2.892.275c1.148,0,2.249-.459,3.351-.459a.737.737,0,0,1,.412.138,2.285,2.285,0,0,1,.184,1.24,8.263,8.263,0,0,1-.276,2.386c-.78.78-5.782.55-6.563.642l-.228.229a3.873,3.873,0,0,0-.047.735l.184.229c2.156.459,4.543.183,6.745.183,1.561,0,1.515.6,1.515,2.018,0,.414.046,1.606-.229,1.882-.55.55-6.24.275-6.562.275a12.638,12.638,0,0,0-1.331.047l-.229.138-.046.366.046.322.229.229c1.1.138,6.7-.229,7.433.5a2.138,2.138,0,0,1,.185.734,12.249,12.249,0,0,1-.5,4.5,14.986,14.986,0,0,0-1.056,2.707c.964.413,2.019.045,2.983.367.368.642-.046,1.468.368,2.248Zm-16.888-16.658.735-.046.321-.184a4.2,4.2,0,0,0,.137-.734l-.229-.138a21.682,21.682,0,0,0-4.129,1.009,11.577,11.577,0,0,0,1.79.093Zm8.627,28.269c.872,0,6.2-1.01,6.563-1.561-.093-.826-2.066-3.626-2.892-3.626-.78,0-4.359,2.157-4.359,2.983a4.224,4.224,0,0,0,.366,2.157A.768.768,0,0,0,982.4-103.405Zm14.044-25.975a26.755,26.755,0,0,1-.368,3.855l-.229,1.331c-.321,1.376-3.3,1.514-4.452,1.514a1.435,1.435,0,0,1-.872-.183c-.5-.459-.551-3.9-.551-4.681,0-1.79.643-3.487.643-5.231,0-1.285-.414-2.57-.414-3.854,0-1.01,2.662-.918,3.351-.918,3.3,0,2.892.963,2.892,3.9Zm-1.515,22.624c.551,0,3.992-2.753,4.5-3.212a1.922,1.922,0,0,0-.872-.139c-.275,0-6.1.276-6.2.643C992.638-108.775,994.152-106.756,994.933-106.756Zm3.075-9.132a3.688,3.688,0,0,1-1.745-.275,14.527,14.527,0,0,1-1.836-3.9c0-1.239,4.131-1.284,5.049-2.111.642-.6.688-6.378.688-8.03s-.275-3.3-.275-4.956c0-3.809-.322-4.038,3.534-4.038,2.983,0,2.294,1.055,2.477,3.9.139,1.79.184,3.626.184,5.415,0,1.194-.138,2.34-.138,3.534,0,3.487.5,4.314-1.147,7.434a8.094,8.094,0,0,1-1.285,2.111c-.687.6-3.119.917-4.038.917Z" transform="translate(-965.403 140.118)" fill="#584b53"/>
      <path id="Path_1124" data-name="Path 1124" d="M1029.088-102.883c0,1.836.275,3.718.275,5.553,0,1.376-2.983,1.148-3.9,1.148-2.432,0-2.708.138-2.892-2.3-.183-2.248-.275-4.543-.275-6.791a23.516,23.516,0,0,1,.413-3.074,27.744,27.744,0,0,0,.183-4.36,17.168,17.168,0,0,0-.412-4.636c-.781.368-1.285,1.148-2.111,1.469-.6-1.055-.551-2.34-1.1-3.441-.412-.827-1.972-2.707-1.972-3.488s2.432-2.845,3.029-3.762c1.744-2.662,3.212-5.552,4.681-8.353.552-1.055.918-4.176,2.3-4.176.963,0,5.736,1.377,5.736,2.479s-2.249,5.828-2.938,7.387c-.78,1.882-1.1,6.1-1.1,8.123,0,2.295.551,4.543.551,6.792,0,2.065-.459,4.13-.459,6.195Zm12.3-23.449c-1.056,1.055-4.5,8.214-6.15,8.214a.518.518,0,0,1-.366-.138,21.276,21.276,0,0,1-1.652-1.835c-.6-.6-1.376-1.1-1.974-1.745a1.126,1.126,0,0,1-.183-.5c0-.23,4.865-6.746,5.552-8.261.643-1.423,1.194-2.891,1.744-4.36.459-1.239.551-2.616,1.01-3.855.137-.413.321-.642.78-.642,1.193,0,5.369,1.606,5.369,2.937,0,1.194-.734,2.34-.734,3.534,0,1.148.871.917,1.744.917,2.018,0,3.993-.459,5.965-.459,1.285,0,2.57.275,3.854.367,1.423.092,2.892-.046,4.315-.046.779,0,.779.689.779,1.285,0,.826.047,5.048-1.147,5.048-2.432,0-4.864-.275-7.3-.275-.78,0-3.9-.321-3.9,1.009,0,1.056-.321,3.4,1.193,3.4h3.946c1.607,0,3.213-.368,4.819-.368.78,0,1.1.322,1.1,1.1,0,.826-.139,3.671-.689,4.222-.5.55-1.652.321-2.3.321a51.728,51.728,0,0,0-7.066.275c-.46.046-1.1.229-1.1.826a6.678,6.678,0,0,0,.459,2.754c1.056.6,7.708.275,9.912.275,1.7,0,1.239,2.157,1.239,3.35,0,.781.275,3.3-.826,3.3-1.01,0-2.019-.414-3.029-.414-1.285,0-2.571.414-3.855.414-1.148,0-2.295-.229-3.441-.229-.5,0-.734.183-.734.734,0,1.743.55,3.854.55,5.874,0,1.652.412,3.212-1.606,3.212-.78,0-4.406-.091-5.277-.641a15.416,15.416,0,0,1-.642-3.855c0-1.285.275-2.571.275-3.855,0-1.468-.275-2.891-.275-4.36,0-1.423.412-2.845.412-4.314,0-2.845-.458-5.736-.458-8.581,0-1.377.275-2.753.275-4.13a.655.655,0,0,0-.093-.275l-.229-.183Z" transform="translate(-967.703 140.099)" fill="#584b53"/>
      <path id="Path_1125" data-name="Path 1125" d="M1107.065-117.643c.874,1.148,3.259,2.432,3.672,3.672-.275.55-3.672,1.7-4.452,1.836-.872.138-1.789.046-2.661.138a1.336,1.336,0,0,0-.413.688c.321.5,5.645.78,6.517.78.918,0,1.881-.183,2.8-.183.551,0,.872.183.872.781,0,.734-.183,3.166-.688,3.625-.871.781-5.92.688-7.113.688a10.851,10.851,0,0,0-2.111.093c-.5.5-.321,1.514-.321,2.111a19.821,19.821,0,0,1-1.009,3.35,10.8,10.8,0,0,1-1.147,2.432c-.828.917-6.425,1.193-7.8,1.193-1.469,0-1.7-3.3-1.7-4.4,0-1.836,4.91-.918,5.644-2.295a3.93,3.93,0,0,0,.23-1.469c0-.78-4.818-.734-5.69-.734a17.176,17.176,0,0,0-4.865.367v.046c-.046.55,2.708,2.34,2.708,3.258,0,.689-3.3,3.12-4.085,3.12a69.541,69.541,0,0,1-6.516-5.644l.046-.321c.183-.183,1.1-.826,1.1-.964,0-.183-1.33-.138-1.606-.138h-1.193c-.826,0-4.863.047-5.461-.55-.367-.367-.642-3.166-.642-3.762,0-1.148,3.35-1.056,4.222-1.056,1.468,0,2.937.368,4.4.368h4.361c1.422,0,2.89-.23,4.359-.23,1.331,0,2.661.093,3.993.093a25.164,25.164,0,0,0,4.589-.322l.137-.275v-.229c-.689-.367-5.323-.734-6.333-.734a43.011,43.011,0,0,0-5.415.183,30.766,30.766,0,0,1-3.534.367c-1.468,0-2.892-.229-4.36-.229-1.1,0-2.2.183-3.3.183-.6,0-.827-.459-.827-.963,0-4.451.139-3.855,4.773-3.855,3.121,0,6.287.6,9.454.413l.78-.046.275-.183a1.181,1.181,0,0,0-.367-.918.8.8,0,0,0-.321-.045c-1.928,0-3.9.275-5.829.275-.872,0-5.277,0-5.875-.6-.458-.459-.275-4.359-.275-4.406,0-1.468.093-2.937.139-4.406.092-3.074-.6-4.221,2.065-4.221,2.2,0,4.314-.275,6.516-.367a35.176,35.176,0,0,0,3.809-.046l.275-.229.046-.413-.046-.368-.184-.183-.6-.046c-1.1-.092-2.2.183-3.3.183-1.284,0-2.524-.321-3.808-.321-2.525-.046-5.048.046-7.573.046-.826,0-1.284-.046-1.284-.963,0-.735-.046-3.809,1.009-3.809,1.148,0,2.25.367,3.4.367,1.376,0,2.8-.5,4.176-.5s2.753.413,4.13.413c.46,0,3.442-.138,3.718-.413,1.193-1.1-.139-2.707,2.295-2.707.642,0,4.681.275,4.681,1.056,0,.459-.184.872-.229,1.33l.138.367a3.1,3.1,0,0,0,.642.092c1.24,0,2.432-.229,3.672-.229,1.193,0,2.432.092,3.626.183.779.046,7.708.459,7.938.689.368.367.6,2.983.6,3.533,0,1.193-2.477,1.009-3.3,1.009h-5.23c-1.469,0-2.938-.275-4.453-.275a14.27,14.27,0,0,0-3.166.138l-.184.184v.322a1.05,1.05,0,0,0,.092.366,1.429,1.429,0,0,0,.871.184c1.1,0,2.249-.275,3.4-.275h4.91c.413,0,3.947.138,4.313.5.321.321.276,1.515.276,1.973,0,1.147.138,9.775-.413,11.059l-.414.183c-.459,0-.963-.092-1.422-.092Zm-18.585-8.581a.884.884,0,0,0,.459-.138,1.25,1.25,0,0,0,.275-.55c-.459-.322-3.441-.275-4.13-.275a17.791,17.791,0,0,0-2.707.045,1.012,1.012,0,0,0-.229.368A51.107,51.107,0,0,0,1088.48-126.224Zm-.734,4.91c.275,0,.78.046,1.009-.183l-.092-.275-.23-.23a25.881,25.881,0,0,0-4.726-.413h-.964a.582.582,0,0,0-.321.184,1.506,1.506,0,0,0-.183.642c.183.275,1.01.275,1.331.275Zm11.059-5.094c1.1,0,2.295.183,3.441.183.093-.092.276-.275.276-.413a.59.59,0,0,0-.183-.46c-1.928-.138-3.9-.091-5.828-.091-.46,0-1.149-.184-1.149.5a.434.434,0,0,0,.093.322c.871.046,1.7-.046,2.57-.046Zm-3.442,9.82a.654.654,0,0,0,.093.275c.413-.046,3.533-.413,3.533-1.009,0-.047,0-.047-.046-.092-.642,0-1.284-.046-1.927-.046C1096.282-117.459,1095.363-117.643,1095.363-116.587Zm5.278-4.727c.5,0,1.055-.046,1.561-.092a.5.5,0,0,0,.138-.321.665.665,0,0,0-.322-.46,37.513,37.513,0,0,0-5.551-.275,3.718,3.718,0,0,0-.735.046.8.8,0,0,0-.093.229.844.844,0,0,0,.368.643,17.373,17.373,0,0,0,2.661.229Z" transform="translate(-970.092 140.129)" fill="#584b53"/>
      <path id="Path_1126" data-name="Path 1126" d="M1148.346-111.974a10.823,10.823,0,0,0,3.212.183c1.652,0,3.258.275,4.911.367,1.882.092,3.717,0,5.6,0,1.193,0,4.084-.138,4.084,1.469,0,.688-.139,3.35-.505,3.808-.321.368-1.055.321-1.515.321-3.258,0-6.47-.413-9.728-.413-.046,0-.139,0-.139.046v.046c1.606.735,12.621,3.855,12.621,3.855a.866.866,0,0,1,.092.367c0,.6-2.8,5.14-3.993,5.14-2.8,0-9.453-2.937-11.427-4.038a20.072,20.072,0,0,0-3.028-1.79,12.229,12.229,0,0,0,.046,2.891c0,3.718-.183,3.487-3.854,3.487-4.176,0-2.846-1.56-2.984-5.323,0-.413.047-.963-.5-.963s-9.04,5.461-13.767,5.461c-1.24,0-3.947-3.212-4.13-4.36.047-.229.322-.367.552-.413a40.244,40.244,0,0,1,3.946-.826c1.561-.368,7.022-2.34,8.169-3.213a10.289,10.289,0,0,0-2.892-.459c-1.56,0-3.073.5-4.588.5a21.1,21.1,0,0,1-2.386-.275c-2.571-.275-2.386-.5-2.386-2.983,0-.872-.23-2.57,1.055-2.57,1.24,0,2.432.183,3.672.183,1.468,0,2.983-.275,4.45-.275,2.2,0,4.361.229,6.563.229a5.942,5.942,0,0,0,2.02-.183l.275-.321a3.537,3.537,0,0,0,.091-.688,2.242,2.242,0,0,0-.184-.964,19.445,19.445,0,0,0-3.625.688,39.692,39.692,0,0,1-7.709.918c-2.892,0-2.432.046-3.167-2.34a6.783,6.783,0,0,1-.367-1.606c0-.5.275-.642.734-.78,1.285-.321,4.176-.367,5.829-.642l2.111-.368.366-.046H1136c0-.046-.184-.138-.229-.138-.781-.275-5.278-1.147-5.278-1.789,0-.964,2.34-2.754,2.479-3.718-.735-.734-7.159,0-7.709-.826a6.339,6.339,0,0,1-.23-2.111c0-3.075,1.056-2.662,4.36-2.753,2.295-.047,4.589.138,6.884.138,1.055,0,2.111-1.561,2.478-2.478h-.413c-1.1-.046-2.111.321-3.166.321s-2.111-.276-3.167-.276a1.245,1.245,0,0,0-.413.047l-.183.321c-.183,1.468.367,1.743-1.376,1.743-.873,0-4.911,0-4.911-1.147,0-.6.414-5.231.459-5.415.23-1.1,6.792-1.239,8.031-1.239,2.295,0,4.589.321,6.884.321.458,0,.826.046,1.055-.413-.045-.55-.184-1.055-.229-1.606.229-.826,3.625-.688,4.406-.688,2.478,0,2.753-.459,2.616,2.157l.184.413a3.424,3.424,0,0,0,1.193.183c3.626,0,7.3-.367,10.922-.367.918,0,4.451-.184,4.451,1.009,0,.643-.046,1.331-.046,1.973,0,1.194.321,2.295.321,3.442,0,1.1-4.313,1.055-5.185,1.055-1.7,0-1.239-.092-1.284-1.514l-.184-.276a1.161,1.161,0,0,0-.366-.045c-1.24,0-2.432.321-3.626.321-2.02,0-4.176-.642-6.425-.642-1.376,0-4.864.091-6.1.642,1.01.459,2.571.459,3.4,1.009l.046.321a2.52,2.52,0,0,0-.46,1.148v.092c1.469.046,2.892-.367,4.361-.367,2.248,0,4.5.413,6.791.413,1.331,0,2.662-.184,3.993-.184,3.579,0,4.727-.642,4.727,3.3a3.782,3.782,0,0,1-.183,1.606,1.092,1.092,0,0,1-.5.275c-1.515,0-3.074-.183-4.589-.183a3.494,3.494,0,0,0-1.7.275c-.552.275-3.167,3.4-3.167,3.993,0,1.1,7.986,2.478,8.352,3.35-.275.917-3.351,3.855-4.359,3.855-1.423,0-7.48-3.488-10.1-3.488a9.3,9.3,0,0,0-3.716,1.469c.871.183,2.2-.092,2.983.275l.183.321c0,.459-.093.964-.138,1.423Zm-11.334-6.058a8.971,8.971,0,0,0,1.881-.321,8.814,8.814,0,0,0-1.836-.413.525.525,0,0,0-.138.367A.49.49,0,0,0,1137.012-118.032Zm4.818-5.69a2.064,2.064,0,0,0-1.056.183.577.577,0,0,0-.183.413.508.508,0,0,0,.045.229,28.23,28.23,0,0,0,6.929,1.423,2.293,2.293,0,0,0,2.066-1.973,16.189,16.189,0,0,0-3.947-.275Z" transform="translate(-972.404 140.105)" fill="#584b53"/>
    </g>
  </g>
</svg>
