<svg id="圖層_1" data-name="圖層 1" xmlns="http://www.w3.org/2000/svg" viewBox="0 0 850.39 263.05"><defs><style>.cls-1{fill:none;stroke:#68575e;stroke-miterlimit:10;stroke-width:2px;}.cls-10,.cls-2,.cls-5,.cls-8{fill:#69585f;}.cls-2{stroke:#69585f;stroke-width:0.93px;}.cls-2,.cls-4,.cls-6,.cls-7{stroke-linecap:round;stroke-linejoin:round;}.cls-3{font-size:18.53px;fill:#fff;letter-spacing:0.02em;}.cls-10,.cls-3,.cls-5,.cls-8{font-family:GenJyuuGothic-Regular, Gen Jyuu Gothic;}.cls-4,.cls-6,.cls-7{fill:#dfd0cc;stroke:#dfd0cc;}.cls-4{stroke-width:0.81px;}.cls-10,.cls-5,.cls-8{font-size:15px;}.cls-5,.cls-9{letter-spacing:0.03em;}.cls-6{stroke-width:0.81px;}.cls-7{stroke-width:0.75px;}.cls-10{letter-spacing:0.01em;}</style></defs><title>project01_site map</title><path class="cls-1" d="M303.48,167.67H273.22"/><polyline class="cls-1" points="768.46 82.36 768.46 65.96 81.94 65.96 81.94 81.96"/><line class="cls-1" x1="493.85" y1="65.96" x2="493.85" y2="82.36"/><line class="cls-1" x1="219.24" y1="65.96" x2="219.24" y2="82.36"/><line class="cls-1" x1="631.15" y1="65.96" x2="631.15" y2="82.36"/><line class="cls-1" x1="425.2" y1="47.49" x2="425.2" y2="65.96"/><rect class="cls-2" x="393.69" y="19.14" width="63.02" height="35.01"/><text class="cls-3" transform="translate(406.44 44.35)">首頁</text><rect class="cls-4" x="167.6" y="153.5" width="105.23" height="28.35"/><text class="cls-5" transform="translate(181.96 173.91)">努力練習中</text><rect class="cls-4" x="167.6" y="117.93" width="105.23" height="28.35"/><text class="cls-5" transform="translate(181.96 138.34)">我準備好了</text><rect class="cls-6" x="303.93" y="153.5" width="105.23" height="28.35"/><text class="cls-5" transform="translate(325.98 173.91)">貓咪個資</text><rect class="cls-6" x="303.93" y="189.07" width="105.23" height="28.35"/><text class="cls-5" transform="translate(325.98 209.48)">了解預約</text><rect class="cls-7" x="28.35" y="117.93" width="107.18" height="28.35"/><text class="cls-5" transform="translate(51.37 138.34)">基本資訊</text><rect class="cls-7" x="714.87" y="82.36" width="107.18" height="28.35"/><text class="cls-8" transform="translate(726.46 102.77)"><tspan class="cls-9">聯絡 </tspan><tspan x="34.48" y="0">AoWoo</tspan></text><rect class="cls-7" x="165.65" y="82.36" width="107.18" height="28.35"/><text class="cls-8" transform="translate(177.62 102.77)">AoWoo <tspan class="cls-9" x="52.87" y="0">等家</tspan></text><rect class="cls-7" x="440.26" y="153.95" width="107.18" height="28.35"/><text class="cls-5" transform="translate(463.29 174.36)">領養程序</text><rect class="cls-7" x="440.26" y="117.93" width="107.18" height="28.35"/><text class="cls-5" transform="translate(447.91 138.34)">領養基本條件</text><rect class="cls-7" x="440.26" y="82.36" width="107.18" height="28.35"/><text class="cls-5" transform="translate(463.29 102.77)">如何領養</text><rect class="cls-7" x="577.56" y="82.36" width="107.18" height="28.35"/><text class="cls-5" transform="translate(600.59 102.77)">認識貓咪</text><rect class="cls-7" x="577.56" y="117.93" width="107.18" height="28.35"/><text class="cls-5" transform="translate(600.59 138.34)">文章列表</text><line class="cls-1" x1="631.15" y1="146.66" x2="631.15" y2="179.51"/><rect class="cls-7" x="577.56" y="179.51" width="107.18" height="28.35"/><text class="cls-5" transform="translate(600.59 199.92)">文章內容</text><rect class="cls-7" x="28.35" y="153.5" width="107.18" height="28.35"/><text class="cls-10" transform="translate(39.06 173.91)">g<tspan class="cls-9" x="8.61" y="0">oogle map</tspan></text><rect class="cls-7" x="28.35" y="82.36" width="107.18" height="28.35"/><text class="cls-8" transform="translate(39.94 102.77)"><tspan class="cls-9">關於 </tspan><tspan x="34.48" y="0">AoWoo</tspan></text><polyline class="cls-1" points="356.55 217.42 356.55 247.75 768.46 247.75 768.46 110.7"/></svg>