<?xml version="1.0" encoding="utf-8"?>
<!-- Generator: Adobe Illustrator 22.0.1, SVG Export Plug-In . SVG Version: 6.00 Build 0)  -->
<svg version="1.1" id="圖層_1" xmlns="http://www.w3.org/2000/svg" xmlns:xlink="http://www.w3.org/1999/xlink" x="0px" y="0px"
	 viewBox="0 0 25 211.9" style="enable-background:new 0 0 25 211.9;" xml:space="preserve">
<style type="text/css">
	.st0{fill:#584B53;}
	.st1{enable-background:new    ;}
</style>
<g id="Line_2">
	<rect x="12" y="21.3" class="st0" width="1" height="80.5"/>
</g>
<g id="Rectangle_18" transform="translate(40 594)">
	<g>
		<path class="st0" d="M-27.5-390.5c-6.3,0-11.5-5.2-11.5-11.5v-69c0-6.3,5.2-11.5,11.5-11.5S-16-477.4-16-471v69
			C-16-395.7-21.2-390.5-27.5-390.5z M-27.5-481.7c-5.8,0-10.5,4.8-10.5,10.5v69c0,5.8,4.8,10.5,10.5,10.5c5.8,0,10.5-4.8,10.5-10.5
			v-69C-17-476.9-21.7-481.7-27.5-481.7z"/>
	</g>
</g>
<g id="Path_33">
	<path class="st0" d="M12.5,8.4c6.3,0,11.5,5.2,11.5,11.5c0,0.2-0.2,0.4-0.4,0.4s-0.4-0.2-0.4-0.4c0-5.8-4.8-10.6-10.6-10.6
		S2,14.1,2,19.9c0,0.2-0.2,0.4-0.4,0.4s-0.4-0.2-0.4-0.4C1,13.6,6.2,8.4,12.5,8.4z"/>
</g>
<g>
	<g class="st1">
		<path class="st0" d="M18.2,128.4c0,0.5-0.1,1-0.4,1.4c-0.2,0.4-0.6,0.7-1,1s-0.9,0.4-1.5,0.4c-0.5,0-1-0.1-1.4-0.4
			c-0.4-0.2-0.8-0.6-1-1c-0.3-0.4-0.4-0.9-0.4-1.4v-3l0.1,0.1H8.8c-0.1,0-0.2,0-0.3-0.1s-0.1-0.2-0.1-0.3s0-0.2,0.1-0.3
			s0.2-0.1,0.3-0.1h9c0.1,0,0.2,0,0.3,0.1c0.1,0.1,0.1,0.2,0.1,0.3C18.2,125.1,18.2,128.4,18.2,128.4z M13.3,128.4
			c0,0.4,0.1,0.7,0.3,1s0.4,0.5,0.7,0.6s0.7,0.2,1,0.2c0.4,0,0.7-0.1,1-0.2c0.3-0.1,0.5-0.4,0.7-0.6c0.2-0.3,0.3-0.6,0.3-1v-3
			l0.1,0.1h-4.2l0.1-0.1C13.3,125.4,13.3,128.4,13.3,128.4z"/>
		<path class="st0" d="M17.1,136.3l-8.5-3.4c-0.1,0-0.2-0.1-0.2-0.2c0-0.1-0.1-0.1-0.1-0.2c0-0.1,0-0.2,0.1-0.3s0.2-0.1,0.3-0.1
			c0,0,0.1,0,0.2,0l9,3.7c0.1,0,0.2,0.1,0.2,0.2c0,0.1,0.1,0.2,0.1,0.2c0,0.1,0,0.2-0.1,0.3c-0.1,0.1-0.1,0.1-0.2,0.2l-9,3.7
			c-0.1,0-0.1,0-0.2,0s-0.2,0-0.3-0.1c-0.1-0.1-0.1-0.2-0.1-0.3s0-0.2,0.1-0.2c0.1-0.1,0.1-0.1,0.2-0.2l8.5-3.5V136.3z M11.2,133.7
			L12,134v4.3l-0.8,0.2V133.7z"/>
		<path class="st0" d="M8.2,146.5c0-0.7,0.1-1.4,0.4-2s0.6-1.1,1.1-1.6s1-0.8,1.6-1.1s1.3-0.4,2-0.4s1.4,0.1,2,0.4
			c0.6,0.3,1.1,0.6,1.6,1.1s0.8,1,1.1,1.6s0.4,1.3,0.4,2c0,0.5-0.1,1-0.2,1.4c-0.1,0.5-0.3,0.9-0.5,1.2c0,0.1-0.1,0.1-0.2,0.1
			c-0.1,0-0.1,0-0.2,0c-0.1,0-0.2,0-0.3-0.1s-0.1-0.2-0.1-0.3v-0.1v-0.1c0.2-0.3,0.3-0.7,0.4-1c0.1-0.4,0.2-0.8,0.2-1.2
			c0-0.8-0.2-1.5-0.6-2.1c-0.4-0.6-0.9-1.1-1.5-1.5s-1.3-0.5-2.1-0.5c-0.8,0-1.5,0.2-2.2,0.5c-0.6,0.4-1.1,0.8-1.5,1.5
			c-0.4,0.6-0.5,1.3-0.5,2.1c0,0.4,0.1,0.8,0.2,1.3c0.1,0.4,0.3,0.8,0.5,1.1l-0.3-0.1h3.2l-0.2,0.2v-2.4c0-0.1,0-0.2,0.1-0.3
			s0.2-0.1,0.3-0.1s0.2,0,0.3,0.1s0.1,0.2,0.1,0.3v2.7c0,0.1,0,0.2-0.1,0.3s-0.2,0.1-0.3,0.1H9.5c-0.1,0-0.1,0-0.2-0.1
			c-0.1,0-0.1-0.1-0.2-0.2c-0.3-0.4-0.5-0.9-0.7-1.4C8.3,147.6,8.2,147,8.2,146.5z"/>
		<path class="st0" d="M18.2,152.3v5.1c0,0.1,0,0.2-0.1,0.3s-0.2,0.1-0.3,0.1c-0.1,0-0.2,0-0.3-0.1s-0.1-0.2-0.1-0.3v-4.8l0.2,0.1
			h-3.9l0.2-0.2v4.2c0,0.1,0,0.2-0.1,0.3s-0.2,0.1-0.3,0.1s-0.2,0-0.3-0.1s-0.1-0.2-0.1-0.3v-4.2l0.1,0.1h-4l0.1-0.1v4.7
			c0,0.1,0,0.2-0.1,0.3s-0.2,0.1-0.3,0.1c-0.1,0-0.2,0-0.3-0.1c-0.1-0.1-0.1-0.2-0.1-0.3v-5.1c0-0.1,0-0.2,0.1-0.3s0.2-0.1,0.3-0.1
			h9c0.1,0,0.2,0,0.3,0.1C18.1,152,18.2,152.1,18.2,152.3z"/>
		<path class="st0" d="M17.4,163.2c0-0.1,0-0.2,0.1-0.3c0.1-0.1,0.2-0.1,0.3-0.1s0.2,0,0.3,0.1c0.1,0.1,0.1,0.2,0.1,0.3v6.7
			c0,0.1,0,0.2-0.1,0.3c-0.1,0.1-0.2,0.1-0.3,0.1s-0.2,0-0.3-0.1c-0.1-0.1-0.1-0.2-0.1-0.3V163.2z M8.4,166.5c0-0.1,0-0.2,0.1-0.3
			s0.2-0.1,0.3-0.1h8.9v0.9H8.8c-0.1,0-0.2,0-0.3-0.1S8.4,166.6,8.4,166.5z"/>
		<path class="st0" d="M13.3,180.8c-0.7,0-1.4-0.1-2-0.3s-1.1-0.6-1.6-1s-0.8-0.9-1-1.5s-0.4-1.2-0.4-1.9s0.1-1.3,0.4-1.9
			c0.2-0.6,0.6-1.1,1-1.5c0.5-0.4,1-0.7,1.6-1c0.6-0.2,1.3-0.3,2-0.3s1.4,0.1,2,0.3s1.1,0.6,1.6,1s0.8,0.9,1.1,1.5
			c0.2,0.6,0.4,1.2,0.4,1.9s-0.1,1.3-0.4,1.9c-0.2,0.6-0.6,1.1-1.1,1.5s-1,0.7-1.6,1C14.7,180.7,14,180.8,13.3,180.8z M13.3,179.9
			c0.8,0,1.6-0.2,2.2-0.5c0.6-0.3,1.1-0.8,1.5-1.3c0.4-0.6,0.5-1.2,0.5-2c0-0.7-0.2-1.4-0.5-2c-0.4-0.6-0.8-1-1.5-1.3
			c-0.7-0.3-1.4-0.5-2.2-0.5s-1.6,0.2-2.2,0.5c-0.6,0.3-1.1,0.8-1.5,1.3c-0.4,0.6-0.5,1.2-0.5,2c0,0.7,0.2,1.4,0.5,2
			c0.4,0.6,0.8,1,1.5,1.3C11.7,179.7,12.4,179.9,13.3,179.9z"/>
		<path class="st0" d="M18.2,186.5c0,0.5-0.1,1-0.4,1.4c-0.2,0.4-0.6,0.7-1,1c-0.4,0.2-0.9,0.3-1.5,0.3c-0.5,0-1-0.1-1.4-0.3
			s-0.8-0.6-1-1c-0.3-0.4-0.4-0.9-0.4-1.4v-3l0.1,0.1H8.8c-0.1,0-0.2,0-0.3-0.1s-0.1-0.2-0.1-0.3s0-0.2,0.1-0.3s0.2-0.1,0.3-0.1h9
			c0.1,0,0.2,0,0.3,0.1c0.1,0.1,0.1,0.2,0.1,0.3C18.2,183.2,18.2,186.5,18.2,186.5z M13.3,186.5c0,0.4,0.1,0.7,0.3,1
			c0.2,0.3,0.4,0.5,0.7,0.6c0.3,0.2,0.7,0.2,1,0.2c0.4,0,0.7-0.1,1-0.2c0.3-0.2,0.5-0.4,0.7-0.6c0.2-0.3,0.3-0.6,0.3-1v-3l0.1,0.1
			h-4.2l0.1-0.1C13.3,183.5,13.3,186.5,13.3,186.5z"/>
	</g>
</g>
</svg>
