<svg xmlns="http://www.w3.org/2000/svg" width="114.881" height="108.224" viewBox="0 0 114.881 108.224">
  <g id="hello" transform="translate(-646.662 -129.68)">
    <g id="Group_411" data-name="Group 411" transform="translate(646.662 181.612)">
      <path id="Path_1106" data-name="Path 1106" d="M664.961,332.023c-.118,1.433-.117,2.846-.235,4.278-.357,4.327-.489,3.786-4.669,3.441-.731-.06-1.048-.145-.98-.964.14-1.7.368-3.384.51-5.109.06-.731.267-1.45.327-2.18.07-.848-3.24-.679-3.884-.733-.848-.07-1.654-.284-2.5-.354-1.023-.084-.809,2.317-.879,2.812-.14.989-.31,1.976-.478,2.933-.165.928-.156,3.313-1.559,3.2-.585-.048-3.464-.462-3.786-.842a.774.774,0,0,1-.159-.572c.075-.906.5-1.813.578-2.719.111-1.345-.1-2.687.009-4.032.089-1.082.5-2.108.587-3.189.106-1.286-.138-2.6-.03-3.917.111-1.345.769-6.824,1.441-7.122a1.312,1.312,0,0,1,.594-.069,14.792,14.792,0,0,1,1.623.31c2.895.592,2.517.885,2.283,3.721-.118,1.433-.641,2.773-.757,4.176a.578.578,0,0,0,.561.694c.936.077,1.91.04,2.848.088.879.043,1.839.181,2.726.137a.992.992,0,0,0,.577-.217c.606-.568,1.036-5.066,1.106-5.913.135-1.637.018-2,1.83-1.85a10.177,10.177,0,0,1,3.016.543c.246.226.188.575.161.9-.07.848-.284,1.655-.354,2.5-.1,1.2.151,2.455.023,3.652Z" transform="translate(-646.662 -316.876)" fill="#d3c4b6"/>
      <path id="Path_1107" data-name="Path 1107" d="M748.069,364.372a10.7,10.7,0,0,1-5.781-3.067c-.983-1.288-1.746-4.883-1.613-6.491a11.94,11.94,0,0,1,.381-1.764c1.129-4.41,3.729-6.315,8.29-5.939a14.172,14.172,0,0,1,3.628.977,4.726,4.726,0,0,1,1.27,1.37,6.6,6.6,0,0,1,1.044,1.617,20.642,20.642,0,0,1,.3,4.175c-.034.409-.342,2-.683,2.21a4.064,4.064,0,0,1-1.357.035c-1.608-.133-3.209-.353-4.817-.486a6.908,6.908,0,0,0-2.838.148.641.641,0,0,0-.049.231,3.554,3.554,0,0,0,.25.9,3.2,3.2,0,0,0,.544,1.252,10.223,10.223,0,0,0,2.876.826c1.111.092,2.226-.581,3.308-.492.643.053,1.42,2.06,1.371,2.645-.053.643-2.425,1.566-3.056,1.72a13.6,13.6,0,0,1-2.711.041l-.273.1ZM746.3,353.394c.327.321,2.848.441,3.4.487,1.462.121,2.019-.216,2.147-1.766.051-.614-3.131-1.288-3.658-1.332-.848-.07-1.93,1.636-1.988,2.338Z" transform="translate(-717.093 -339.496)" fill="#d3c4b6"/>
      <path id="Path_1108" data-name="Path 1108" d="M823.136,325.3c2.836.234,2.152.678,1.935,3.309-.109,1.315-.039,2.616-.145,3.9-.113,1.374-.551,2.751-.664,4.125-.075.906.082,1.861.095,2.775a27.673,27.673,0,0,1-.258,3.481c-.123,1.491.841,1.217,1.1,2.328a25.937,25.937,0,0,1,.127,3.1c-.092,1.111-1.047.914-1.924.842a7.186,7.186,0,0,1-2.478-1,4.935,4.935,0,0,1-1.733-1.114c-.766-1.064-.219-6.258-.116-7.515.109-1.316.1-2.67.211-3.985.1-1.2.342-2.356.44-3.555.162-1.959,0-3.944.163-5.9.106-1.286,1.2-.961,2.192-.879Z" transform="translate(-775.636 -323.052)" fill="#d3c4b6"/>
      <path id="Path_1109" data-name="Path 1109" d="M867.676,328.977c2.836.234,2.152.678,1.935,3.309-.109,1.316-.039,2.616-.145,3.9-.113,1.374-.551,2.751-.664,4.125-.075.906.082,1.861.095,2.775a27.674,27.674,0,0,1-.258,3.481c-.123,1.491.841,1.217,1.1,2.328a26.026,26.026,0,0,1,.127,3.1c-.092,1.111-1.047.914-1.924.842a7.182,7.182,0,0,1-2.478-1,4.935,4.935,0,0,1-1.733-1.114c-.766-1.064-.219-6.258-.116-7.515.109-1.316.1-2.67.211-3.986.1-1.2.342-2.356.44-3.555.162-1.959,0-3.944.163-5.9.106-1.286,1.2-.961,2.192-.879Z" transform="translate(-809.01 -325.806)" fill="#d3c4b6"/>
      <path id="Path_1110" data-name="Path 1110" d="M905.516,365.845c1.074-3.385,2.989-5.552,6.665-5.867a9.731,9.731,0,0,1,1.627-.1,7.85,7.85,0,0,1,5.557,2.931,18.906,18.906,0,0,1,1.194,3.013,16.047,16.047,0,0,1,.831,3.836,21.373,21.373,0,0,1-.94,3.19,12.1,12.1,0,0,1-5.266,4.246,11.224,11.224,0,0,1-2.66.134,7.48,7.48,0,0,1-6.374-4.087,6.2,6.2,0,0,1-.71-1.383,11.533,11.533,0,0,1-.275-2.025,9.965,9.965,0,0,1-.153-2.073A7.917,7.917,0,0,1,905.516,365.845Zm10.022-.174a2.544,2.544,0,0,0-1.077-.854,4.038,4.038,0,0,0-1.221-.542,2.413,2.413,0,0,0-1.113.291,2.042,2.042,0,0,0-1.079.588,10.942,10.942,0,0,0-.987,3.039,15.6,15.6,0,0,0,.736,3.21,2.914,2.914,0,0,0,.929.872c.3.231.6.579,1.009.613a4.058,4.058,0,0,0,1.245-.457c1.469-.674,1.855-1.79,1.985-3.368A11.308,11.308,0,0,0,915.538,365.671Z" transform="translate(-840.23 -349.088)" fill="#d3c4b6"/>
      <path id="Path_1111" data-name="Path 1111" d="M994.107,360.892c.526.043,2.591,2.48,2.545,3.036s-2.623,2.9-3.15,2.86a5.917,5.917,0,0,1-2.356-2.843C991.2,363.272,993.4,360.834,994.107,360.892Zm-.785-16.166a2.669,2.669,0,0,1,1.3-.1c2.28.188,3.089.019,3.03,2.516-.028.7.033,1.386-.025,2.088-.048.585-.15,1.106-.228,1.688-.075.553-.148,1.077-.252,1.628-.107.58-1.364,6.186-1.741,6.479a.819.819,0,0,1-.541.132,6.192,6.192,0,0,1-2.449-.644c-.268-.316-.147-1.072-.145-1.454,0-1.118.062-2.173.153-3.284.143-1.725-.008-3.474.132-5.169C992.615,347.935,992.88,345.073,993.321,344.726Z" transform="translate(-904.779 -337.647)" fill="#d3c4b6"/>
    </g>
    <g id="Group_412" data-name="Group 412" transform="translate(667.22 129.68)">
      <path id="Path_1112" data-name="Path 1112" d="M795.848,130.769a21.569,21.569,0,0,1-.632,5.061,35.11,35.11,0,0,1-2.263,5.008,32.061,32.061,0,0,1-1.812,4.214c-.818,1.293-2.2,2.008-3.338,2.976a19.859,19.859,0,0,0-2.725,3.262,14.31,14.31,0,0,1-3.923,3.379,13.019,13.019,0,0,0-3.115,2.719,9.68,9.68,0,0,1-3.667,2.886,30.378,30.378,0,0,0-4.124,2.122,19.47,19.47,0,0,1-4.8,2.395,14.6,14.6,0,0,1-4.868.98,10.7,10.7,0,0,0-4.625.7c-1.63.69-2.812,1.158-4.6.741-1.545-.361-3.164-.6-4.676-1.064-1.468-.452-2.956-.93-4.406-1.436-1.183-.412-2.686-1.372-2.375-2.861.393-1.882,2.37.4,2.5,1.33.237,1.664-.923,3.774-2.057,4.906-1.213,1.211-2.98,1.181-4.578,1.414-1.735.253-3.706,1.092-5.389.261-1.3-.641-2.442,1.3-1.139,1.948a7.942,7.942,0,0,0,5.4.29c1.755-.36,3.672-.363,5.352-1.014,3.032-1.175,5.458-5.716,4.467-8.88-.839-2.682-4.929-4.8-6.5-1.507a4.242,4.242,0,0,0,.554,4.195,7.05,7.05,0,0,0,4.02,2.357c2.07.6,4.024,1.275,6.136,1.71,1.984.409,3.885,1.2,5.922.595.905-.267,1.733-.74,2.613-1.071a8.124,8.124,0,0,1,3.167-.36,17.37,17.37,0,0,0,6.123-1.2A25.029,25.029,0,0,0,771.921,164c1.727-1.092,3.749-1.626,5.444-2.763,1.495-1,2.319-2.631,3.691-3.756,1.546-1.268,3.391-2.047,4.76-3.549,1.507-1.653,2.55-3.563,4.376-4.916a10.258,10.258,0,0,0,3.749-4.584c.447-1.077.812-2.18,1.328-3.227.533-1.08,1.122-2.126,1.586-3.239a20.158,20.158,0,0,0,1.249-7.193,1.129,1.129,0,0,0-2.256,0Z" transform="translate(-728.661 -129.68)" fill="#d3c4b6"/>
    </g>
    <g id="Group_413" data-name="Group 413" transform="translate(670.356 212.894)">
      <path id="Path_1113" data-name="Path 1113" d="M741.3,443.36a61.066,61.066,0,0,0,3.864,5.979,11.57,11.57,0,0,0,4.7,4.42,8.614,8.614,0,0,1,2.736,1.789c.65.725,1.149,1.575,1.825,2.278,1.541,1.6,3.745,1.851,5.742,2.566,2.155.771,3.868,2.593,6.174,2.972a24.1,24.1,0,0,0,3.455.061,10.671,10.671,0,0,1,3.609,1,12.563,12.563,0,0,0,3.455.9c1.245.11,2.489-.071,3.735-.053,1.315.019,2.624.245,3.933.363a20.765,20.765,0,0,1,3.861.452c2.258.634,4.015.941,6.143-.228a8.4,8.4,0,0,1,2.991-1.341c1.28-.151,2.574.115,3.858-.029,1.133-.127,2.243-.5,3.368-.7a13.82,13.82,0,0,0,3.247-.9,27.105,27.105,0,0,0,6.179-3.785c3.026-2.524,6.762-6.051,5.437-10.489a3.17,3.17,0,0,0-3.569-2.424,5,5,0,0,0-3.588,3.754,4.538,4.538,0,0,0,2.392,5.188c.94.512,1.969.848,2.93,1.318a13.155,13.155,0,0,0,3.5,1.235c1.285.226,2.594.319,3.885.521a6.3,6.3,0,0,0,3.49-.17c1.965-.848,2.416-3.086,3.511-4.713.813-1.208-1.141-2.338-1.949-1.139-.716,1.064-1.136,3.067-2.306,3.718a4.439,4.439,0,0,1-2.773.022c-1.019-.176-2.039-.229-3.059-.379a20.848,20.848,0,0,1-4.95-1.832c-1.489-.625-2.974-1.453-2.452-3.329.337-1.213,2.251-3.095,2.8-1.015a6.055,6.055,0,0,1-1.467,4.993,23.614,23.614,0,0,1-4.335,3.822,23.221,23.221,0,0,1-5.3,2.93,22.315,22.315,0,0,1-2.837.607,18.755,18.755,0,0,1-3.031.56c-1.946.05-3.67-.217-5.475.694-.726.366-1.39.852-2.129,1.191a4.163,4.163,0,0,1-3.092-.016,33.807,33.807,0,0,0-5.981-.842c-2.066-.212-4.023-.2-6.092-.206-2.171-.01-3.955-1.125-6-1.68-1.9-.517-3.984.2-5.814-.522-1.75-.688-3.185-1.974-4.966-2.626-1.945-.712-4-.867-5.382-2.568a11.858,11.858,0,0,0-4.027-3.635,11.129,11.129,0,0,1-2.671-1.586,13.506,13.506,0,0,1-1.984-2.632,57.533,57.533,0,0,1-3.647-5.642c-.646-1.3-2.592-.159-1.948,1.139Z" transform="translate(-741.167 -441.647)" fill="#d3c4b6"/>
    </g>
  </g>
</svg>
