<svg xmlns="http://www.w3.org/2000/svg" width="264.316" height="114.589" viewBox="0 0 264.316 114.589">
  <g id="leaf_l" transform="matrix(0.998, 0.07, -0.07, 0.998, 318.912, -2656.32)">
    <g id="Group_391" data-name="Group 391" transform="translate(-125.349 2766.535)">
      <path id="Path_1089" data-name="Path 1089" d="M-125.347,3118.634c-.047-.632.978.034,1.661-.418.3-.2.565-.532.985-.781.329-.2.672-.427,1.077-.646.347-.188.51-.787.911-.987.359-.179.967.121,1.37-.063.368-.168.634-.6,1.039-.768.376-.158.711-.461,1.118-.617.382-.147.863-.063,1.273-.207.388-.136.629-.76,1.042-.891.393-.125.98.352,1.4.233.4-.114.671-.718,1.089-.825.4-.1.907.186,1.327.09.4-.092.779-.354,1.2-.439s.825-.148,1.248-.221.773-.508,1.2-.57.849-.039,1.274-.091.831-.2,1.257-.24.87.272,1.3.242.865.51,1.292.49.814-.642,1.241-.651.843-.324,1.27-.323.839.446,1.266.457.852-.241,1.278-.221.834.191,1.26.22.791.6,1.216.639.891-.48,1.315-.433.819.239,1.242.3.88-.2,1.3-.131.718.8,1.138.874.92-.362,1.338-.28.822.19,1.239.281.875-.034,1.29.064.707.655,1.12.76.932-.225,1.343-.112.724.54,1.133.66.7.591,1.1.718.812.206,1.217.339.947-.174,1.349-.034.692.451,1.093.6c.074.616-.357.184-1.03.618-.292.188-.446.737-.857.98-.324.192-.938-.046-1.332.171-.34.187-.395.975-.786,1.174-.351.179-1-.19-1.39,0-.359.171-.507.848-.9,1.022-.366.162-.868.058-1.262.22-.372.153-.623.663-1.02.814-.378.144-.971-.261-1.371-.121-.382.134-.637.685-1.038.814s-.954-.309-1.358-.189-.773.261-1.179.369-.7.594-1.105.692-.855-.049-1.266.038-.836-.01-1.248.067-.825.006-1.238.072-.764.417-1.179.472-.821.039-1.236.083-.816.073-1.232.107-.8.437-1.214.46-.846-.589-1.264-.577-.811.7-1.229.706-.828-.151-1.245-.16-.811-.367-1.228-.387-.835.193-1.251.163-.837.086-1.252.045-.781-.43-1.2-.481-.851.146-1.263.085-.871.188-1.282.116-.81-.2-1.219-.281-.729-.555-1.136-.645-.712-.55-1.117-.651-.868.087-1.271-.023-.861.015-1.261-.1-.659-.654-1.056-.781-.911.135-1.306,0-.78-.273-1.172-.418-.6-.731-.988-.884-.984.232-1.369.071S-124.965,3118.8-125.347,3118.634Z" transform="translate(125.349 -3110.949)" fill="#abb5bb"/>
    </g>
    <g id="Group_392" data-name="Group 392" transform="translate(-83.297 2741.948)">
      <path id="Path_1090" data-name="Path 1090" d="M53.753,3013.879c-.048-.633.218-.252.9-.7.3-.2.69-.363,1.111-.613.33-.2.842-.135,1.247-.356.347-.188.39-1.021.792-1.222.36-.179.9-.046,1.3-.23.37-.169.638-.619,1.044-.789.377-.158.9.007,1.311-.15.384-.147.684-.563,1.1-.708.389-.136.78-.325,1.193-.456.394-.125.88,0,1.3-.115.4-.115.7-.624,1.123-.731.4-.1.981.481,1.4.385.405-.092.747-.5,1.169-.589s.885.184,1.309.11.729-.762,1.154-.824.875.175,1.3.124.8-.438,1.23-.479.852.008,1.28-.022.875.566,1.3.546.816-.816,1.245-.825.851.515,1.28.516.831.35,1.26.36.835-.047,1.263-.026.847-.159,1.274-.129.88-.415,1.306-.376.85.04,1.275.088.733.929,1.157.986.921-.506,1.343-.44.833.145,1.254.219.716.74,1.136.823,1-.658,1.414-.567.767.452,1.183.55.855.069,1.269.174.7.662,1.11.775.819.189,1.229.31.718.521,1.126.648,1.062-.552,1.468-.418.613.825,1.017.965.45.129.851.276c.074.618-.121-.069-.8.366-.293.189-.254,1.046-.666,1.291-.325.192-.794.228-1.19.445-.341.187-.917-.015-1.309.186-.352.179-.659.485-1.05.671-.36.172-.614.617-1.008.791-.367.163-.843.111-1.239.274-.373.154-.608.7-1.006.852-.379.144-.884-.011-1.284.129-.383.134-.781.259-1.184.389-.388.125-.742.4-1.147.515s-.747.412-1.155.521-.879-.09-1.289.008-.882-.177-1.293-.09-.705.679-1.118.756-.921-.508-1.335-.442-.794.2-1.21.251-.809.109-1.225.153-.814.06-1.232.093-.793.437-1.212.459-.826.008-1.245.02-.826-.24-1.245-.239-.815-.176-1.234-.186-.854.808-1.272.788-.807-.428-1.224-.459-.82-.1-1.237-.14-.863.252-1.278.2-.721-.823-1.135-.885-.943.661-1.355.59-.664-.946-1.074-1.027-.814-.1-1.222-.189-.918.3-1.324.2-.8-.209-1.207-.319-.675-.64-1.076-.76-.915.168-1.314.04-.843-.1-1.238-.235-.741-.4-1.134-.543-.876-.041-1.266-.194-.506-.955-.892-1.117S54.136,3014.048,53.753,3013.879Z" transform="translate(-53.748 -3006.232)" fill="#abb5bb"/>
    </g>
    <g id="Group_393" data-name="Group 393" transform="translate(21.597 2728.594)">
      <path id="Path_1091" data-name="Path 1091" d="M500.5,2957c-.048-.633.218-.252.9-.7.3-.2.69-.363,1.111-.613.33-.2.842-.136,1.247-.356.348-.189.39-1.021.792-1.222.36-.179.9-.046,1.3-.231.369-.169.638-.619,1.044-.789.377-.158.9.007,1.311-.149.384-.148.684-.564,1.095-.708.39-.137.78-.325,1.193-.457.394-.125.88,0,1.3-.115.4-.114.7-.624,1.123-.732.4-.1.981.482,1.4.386.406-.093.747-.5,1.169-.589s.885.184,1.309.111.729-.762,1.154-.825.875.176,1.3.124.8-.437,1.23-.478.852.008,1.28-.022.875.565,1.3.546.816-.815,1.245-.825.851.516,1.28.517.831.35,1.26.36.835-.047,1.263-.027.847-.159,1.274-.129.88-.415,1.306-.376.85.04,1.275.088.733.928,1.157.986.921-.505,1.343-.44.833.144,1.254.219.716.741,1.136.823,1-.657,1.414-.567.767.452,1.183.55.855.069,1.269.174.7.662,1.11.775.819.19,1.229.31.718.521,1.126.649,1.062-.552,1.468-.418.613.825,1.017.965.45.13.851.277c.074.617-.121-.07-.8.366-.293.189-.254,1.046-.666,1.291-.324.192-.794.227-1.19.445-.341.187-.917-.015-1.309.186-.352.18-.659.486-1.05.672-.361.172-.614.617-1.008.791-.367.162-.843.111-1.239.273-.373.154-.608.7-1.006.852-.378.144-.883-.012-1.284.129-.383.135-.781.259-1.184.389-.388.125-.742.4-1.147.515s-.747.413-1.154.521-.879-.091-1.289.008-.882-.177-1.293-.09-.705.679-1.118.756-.921-.508-1.335-.442-.794.2-1.21.251-.809.109-1.226.153-.814.059-1.232.093-.793.437-1.211.46-.826.007-1.245.019-.826-.24-1.245-.239-.815-.176-1.234-.186-.854.808-1.272.788-.806-.429-1.224-.459-.82-.1-1.237-.14-.862.252-1.278.2-.721-.823-1.135-.884-.943.661-1.356.59-.663-.946-1.074-1.027-.814-.1-1.222-.19-.918.3-1.324.2-.8-.209-1.207-.319-.675-.64-1.076-.76-.915.168-1.314.04-.843-.1-1.239-.236-.741-.4-1.134-.542-.877-.041-1.266-.195-.506-.955-.892-1.116S500.881,2957.172,500.5,2957Z" transform="translate(-500.493 -2949.355)" fill="#abb5bb"/>
    </g>
    <g id="Group_394" data-name="Group 394" transform="translate(87.106 2701.122)">
      <path id="Path_1092" data-name="Path 1092" d="M779.5,2840c-.048-.633.218-.252.9-.7.3-.2.69-.363,1.111-.613.33-.2.842-.135,1.247-.356.348-.189.39-1.021.792-1.221.36-.18.9-.046,1.3-.23.369-.169.638-.619,1.044-.789.377-.158.9.007,1.311-.15.384-.147.684-.564,1.095-.708.39-.136.78-.325,1.193-.456.394-.125.88,0,1.3-.115.4-.115.7-.624,1.123-.732.4-.1.981.481,1.4.385.405-.092.747-.5,1.169-.589s.885.184,1.309.11.729-.762,1.154-.825.875.176,1.3.125.8-.438,1.23-.478.852.008,1.28-.022.875.565,1.3.546.816-.816,1.245-.825.851.515,1.28.517.831.349,1.26.36.835-.047,1.263-.026.847-.16,1.274-.13.88-.415,1.306-.375.85.04,1.275.088.733.929,1.157.986.921-.506,1.343-.44.833.144,1.254.218.716.741,1.136.823,1-.658,1.414-.567.767.452,1.183.55.855.069,1.269.174.7.662,1.11.775.819.19,1.229.31.718.521,1.126.648,1.062-.552,1.468-.418.613.825,1.017.965.45.129.851.277c.074.617-.121-.069-.8.366-.293.189-.254,1.046-.666,1.29-.324.192-.794.228-1.19.445-.341.187-.917-.015-1.309.186-.352.179-.659.485-1.05.672-.361.171-.614.617-1.008.791-.367.163-.843.111-1.239.274-.373.153-.608.7-1.006.852-.378.144-.883-.012-1.284.129-.383.135-.781.26-1.184.389-.388.125-.742.4-1.147.515s-.747.412-1.155.521-.879-.091-1.289.008-.882-.177-1.293-.09-.705.679-1.118.756-.921-.508-1.335-.442-.794.2-1.21.251-.809.109-1.226.153-.814.06-1.232.093-.793.437-1.211.46-.826.008-1.245.02-.826-.241-1.245-.239-.815-.176-1.234-.185-.854.808-1.272.788-.807-.428-1.224-.459-.82-.1-1.237-.14-.862.252-1.278.2-.721-.823-1.135-.885-.943.661-1.356.59-.663-.946-1.074-1.027-.814-.1-1.222-.19-.918.3-1.324.2-.8-.209-1.207-.319-.675-.64-1.076-.76-.915.168-1.314.04-.843-.1-1.239-.235-.741-.4-1.134-.542-.877-.041-1.266-.194-.506-.955-.893-1.117S779.881,2840.172,779.5,2840Z" transform="translate(-779.493 -2832.356)" fill="#abb5bb"/>
    </g>
    <g id="Group_395" data-name="Group 395" transform="translate(63.314 2757.222)">
      <path id="Path_1093" data-name="Path 1093" d="M678.168,3078.93c-.048-.633.218-.252.9-.706.3-.2.69-.362,1.111-.613.33-.2.842-.135,1.247-.356.348-.189.39-1.021.792-1.222.36-.179.9-.046,1.3-.23.37-.169.638-.619,1.044-.789.377-.158.9.007,1.311-.15.384-.147.684-.563,1.1-.707.389-.136.78-.325,1.193-.457.394-.125.88,0,1.3-.115.4-.114.7-.624,1.123-.731.4-.1.981.481,1.4.385s.747-.5,1.169-.589.885.184,1.309.111.729-.763,1.154-.825.875.176,1.3.124.8-.438,1.23-.479.852.008,1.28-.022.875.566,1.3.546.816-.816,1.245-.825.851.515,1.28.516.831.35,1.26.361.835-.047,1.263-.026.847-.159,1.274-.13.88-.415,1.306-.375.85.039,1.275.088.733.929,1.157.986.921-.506,1.343-.44.833.145,1.254.219.716.741,1.136.823,1-.657,1.414-.567.767.452,1.183.55.855.068,1.269.174.7.662,1.11.774.819.189,1.229.31.718.521,1.126.648,1.062-.552,1.468-.418.613.825,1.017.965.45.129.851.276c.074.618-.121-.069-.8.366-.293.189-.254,1.046-.666,1.29-.325.192-.794.228-1.19.445-.341.187-.917-.015-1.309.186-.352.18-.659.486-1.05.672-.361.171-.614.617-1.008.791-.367.163-.843.111-1.239.274-.373.154-.608.7-1.006.852-.379.145-.884-.011-1.284.129-.383.135-.781.259-1.184.389-.388.125-.742.4-1.147.515s-.747.413-1.155.521-.879-.09-1.288.007-.882-.177-1.294-.089-.705.679-1.118.756-.921-.508-1.335-.442-.794.2-1.21.251-.809.108-1.226.153-.814.059-1.232.093-.793.437-1.212.46-.826.007-1.245.019-.826-.241-1.245-.239-.815-.176-1.234-.185-.854.808-1.272.788-.807-.429-1.224-.459-.82-.1-1.237-.14-.863.252-1.278.2-.721-.823-1.135-.885-.943.661-1.355.589-.664-.946-1.074-1.027-.814-.1-1.222-.19-.918.3-1.324.2-.8-.209-1.207-.319-.675-.64-1.076-.759-.915.168-1.314.04-.843-.1-1.239-.235-.741-.4-1.134-.543-.876-.041-1.266-.194-.506-.955-.893-1.116S678.551,3079.1,678.168,3078.93Z" transform="translate(-678.163 -3071.284)" fill="#abb5bb"/>
    </g>
    <g id="Group_396" data-name="Group 396" transform="translate(-112.491 2717.199)">
      <path id="Path_1094" data-name="Path 1094" d="M-70.581,2908.239c-.048-.633.1-.2.782-.657.3-.2.836-.113,1.257-.363.33-.2.619-.518,1.024-.739.347-.188.6-.607,1-.807.36-.179.6-.671,1-.856.37-.168.708-.482,1.113-.652.377-.159.892-.037,1.3-.193.384-.147.74-.424,1.151-.567.39-.137.827-.185,1.24-.317.394-.125.886.035,1.3-.084.4-.115.678-.716,1.1-.823.4-.1.993.535,1.414.439.405-.092.7-.729,1.123-.813s.934.444,1.358.371.8-.287,1.221-.349.747-.768,1.173-.819.9.508,1.329.467.818-.288,1.245-.317.847.111,1.275.092.835-.143,1.263-.153.841-.238,1.27-.237.842.179,1.27.19.854-.24,1.282-.22.8.708,1.228.737.844-.073,1.27-.035.853-.1,1.279-.054.821.206,1.245.262.788.385,1.211.45.856-.057,1.277.018.907-.274,1.327-.192.752.528,1.17.619.793.292,1.21.391.989-.49,1.4-.385.713.614,1.125.728.865.046,1.275.167.758.413,1.166.54.954-.2,1.36-.065.6.856,1.008,1,.635.16,1.036.307c.074.618-.1.3-.775.738-.293.189-.5.662-.912.906-.324.192-.906.022-1.3.239-.341.187-.528.729-.919.93-.352.179-.757.316-1.148.5-.36.172-.861.083-1.255.258-.367.163-.835.116-1.23.278-.373.154-.568.789-.966.94-.379.145-.844.092-1.244.233-.383.135-.84.075-1.243.205-.388.125-.7.524-1.1.643s-.942-.325-1.35-.216-.684.631-1.094.729-.841.006-1.253.093-.7.726-1.112.8-.818.169-1.232.234-.86-.132-1.276-.077-.86-.249-1.277-.2-.8.306-1.216.34-.835-.136-1.253-.113-.816.2-1.235.214-.826-.233-1.245-.231-.828.386-1.247.377-.809-.441-1.227-.462-.825.054-1.242.023-.812-.132-1.229-.173-.893.544-1.309.492-.834-.073-1.248-.135-.731-.68-1.143-.751-.846.04-1.256-.042-.78-.3-1.188-.394-.744-.424-1.15-.524-.865.061-1.269-.049-.826-.114-1.228-.233-.819-.157-1.217-.285-.766-.322-1.161-.459-.677-.556-1.07-.7-.815-.172-1.2-.326-.656-.567-1.043-.729S-70.2,2908.409-70.581,2908.239Z" transform="translate(70.589 -2900.828)" fill="#abb5bb"/>
    </g>
    <g id="Group_397" data-name="Group 397" transform="translate(-18.336 2708.753)">
      <path id="Path_1095" data-name="Path 1095" d="M330.424,2872.384c-.054-.632.227-.346.858-.858.277-.225.484-.668.878-.953.312-.226.747-.357,1.132-.607.333-.217.828-.222,1.214-.449.347-.2.533-.743.924-.951.359-.191.85-.169,1.245-.359.37-.177.867-.09,1.268-.262.378-.162.7-.477,1.1-.632.386-.147.847-.086,1.258-.223.393-.132.737-.416,1.151-.537.4-.115.7-.614,1.123-.718.4-.1.879.065,1.3-.022s.768-.488,1.192-.558.916.468,1.343.413.763-.769,1.19-.807.859.1,1.288.077.85.211,1.279.205.842-.169,1.271-.159.848-.042,1.276-.017.8.521,1.23.56.843-.044,1.269.009.812.211,1.236.278.822.132,1.243.212.789.291,1.207.384.915-.235,1.33-.13.829.162,1.242.279.688.628,1.1.756.855.074,1.26.214.863.083,1.265.232.627.706,1.024.864.813.219,1.207.387.8.121,1.195.3c.083.615-.31.24-.93.733-.273.217-.686.349-1.071.627-.306.221-.555.579-.929.827-.324.214-.776.261-1.15.489-.337.206-.477.78-.853.991-.348.194-.754.321-1.134.516-.357.184-.682.47-1.066.651-.365.171-.692.477-1.081.642-.372.159-.944-.144-1.338.007-.379.145-.621.7-1.019.833s-.763.345-1.166.465-.856.017-1.263.122-.861-.074-1.271.015-.783.254-1.2.327-.8.209-1.213.266-.8.237-1.219.278-.814.248-1.232.273-.835,0-1.253.007-.825-.4-1.243-.41-.824.084-1.241.059-.817-.089-1.233-.131-.805-.165-1.22-.223-.824-.034-1.236-.107-.879.183-1.288.094-.644-.848-1.05-.951-.964.419-1.366.3-.706-.514-1.1-.645-.864-.029-1.257-.173-.6-.739-.984-.9-.939.112-1.322-.057-.7-.448-1.082-.629-.749-.348-1.121-.539S330.791,2872.586,330.424,2872.384Z" transform="translate(-330.418 -2864.854)" fill="#abb5bb"/>
    </g>
    <g id="Group_398" data-name="Group 398" transform="translate(27.919 2660.854)">
      <path id="Path_1096" data-name="Path 1096" d="M527.424,2668.384c-.054-.632.227-.346.858-.858.277-.225.484-.668.878-.953.312-.226.747-.357,1.132-.607.333-.217.828-.222,1.214-.449.347-.2.533-.743.924-.95.36-.191.85-.17,1.245-.359.37-.177.867-.09,1.268-.262.378-.162.7-.477,1.1-.632.386-.147.847-.086,1.258-.223.393-.132.737-.416,1.151-.537.4-.115.7-.614,1.122-.718.4-.1.879.065,1.3-.022s.768-.488,1.192-.558.916.468,1.343.414.763-.77,1.19-.807.859.1,1.288.077.85.211,1.279.206.842-.169,1.271-.16.848-.042,1.276-.017.8.521,1.23.56.843-.044,1.269.009.812.211,1.236.278.822.132,1.244.212.789.291,1.207.384.915-.235,1.33-.13.829.162,1.242.279.688.628,1.1.756.855.075,1.26.213.863.083,1.265.232.627.706,1.024.865.813.219,1.207.387.8.121,1.195.3c.083.615-.309.24-.93.733-.273.217-.686.349-1.071.627-.306.221-.555.579-.929.827-.324.214-.776.261-1.15.489-.337.206-.477.78-.853.991-.348.195-.754.321-1.134.516-.357.184-.682.47-1.066.651-.365.171-.692.477-1.081.642-.372.159-.944-.144-1.338.007-.379.145-.621.7-1.019.833s-.763.345-1.166.465-.856.017-1.263.122-.861-.074-1.271.015-.783.254-1.2.327-.8.209-1.213.266-.8.238-1.219.278-.814.248-1.232.272-.835,0-1.253.007-.825-.4-1.242-.41-.824.084-1.241.059-.817-.089-1.233-.131-.805-.165-1.22-.223-.824-.034-1.236-.107-.879.183-1.288.094-.644-.848-1.05-.951-.964.419-1.366.3-.706-.514-1.1-.645-.864-.029-1.257-.173-.6-.739-.984-.9-.939.112-1.322-.057-.7-.448-1.082-.629-.749-.348-1.121-.539S527.791,2668.586,527.424,2668.384Z" transform="translate(-527.418 -2660.854)" fill="#abb5bb"/>
    </g>
    <g id="Group_399" data-name="Group 399" transform="translate(-28.93 2759.371)">
      <path id="Path_1097" data-name="Path 1097" d="M285.3,3087.883c-.054-.632.795-.17,1.425-.682.277-.225.539-.565.934-.851.312-.226.526-.661.911-.912.333-.217.82-.234,1.206-.462.347-.2.5-.812.888-1.019.359-.191.94.01,1.336-.179.37-.177.729-.4,1.13-.571.378-.162.737-.4,1.143-.555.386-.147.9.04,1.306-.1.393-.132.611-.847,1.026-.968.4-.116.916.166,1.334.062.4-.1.8-.258,1.22-.345s.8-.274,1.227-.344.844-.025,1.271-.079.842.014,1.27-.024.815-.377,1.244-.4.846.114,1.275.108.84,0,1.269.011.85-.162,1.278-.138.832.194,1.259.233.811.3,1.237.352.893-.3,1.317-.237.719.76,1.14.84.971-.551,1.39-.458.825.208,1.24.313.739.508,1.151.625.716.529,1.125.657.959-.229,1.365-.091.714.509,1.116.658.862.108,1.26.267.575.807.97.975,1.012,0,1.4.18c.083.614-.633.065-1.254.559-.273.217-.377.758-.762,1.036-.306.221-.592.543-.966.791-.324.215-.757.309-1.13.537-.337.206-.828.175-1.2.386-.347.2-.684.423-1.064.618-.357.183-.591.636-.976.817-.365.171-.891,0-1.28.162-.372.158-.765.255-1.159.406-.379.145-.528.947-.926,1.082s-.807.2-1.21.324-.875-.067-1.281.038-.78.267-1.19.355-.747.5-1.16.57-.823.15-1.237.207-.838.017-1.255.057-.831.059-1.248.083-.837-.253-1.255-.245-.818-.152-1.236-.161-.816,0-1.233-.025-.859.393-1.275.352-.741-.725-1.155-.782-.827.03-1.239-.043-.793-.187-1.2-.275-.766-.287-1.172-.39-.822-.074-1.223-.192-.81-.146-1.207-.276-.913.114-1.306-.03-.616-.695-1-.852-.892,0-1.275-.173-.751-.348-1.129-.528-.619-.606-.992-.8S285.666,3088.084,285.3,3087.883Z" transform="translate(-285.296 -3080.435)" fill="#abb5bb"/>
    </g>
  </g>
</svg>
