<svg xmlns="http://www.w3.org/2000/svg" width="80" height="18.287" viewBox="0 0 80 18.287">
  <g id="Group_15" data-name="Group 15" transform="translate(-503.681 -1333.508)">
    <g id="Group_13" data-name="Group 13" transform="translate(503.681 1333.508)">
      <path id="Path_22" data-name="Path 22" d="M513.62,1333.508a.819.819,0,0,0-.6.232.738.738,0,0,0-.235.541v12a4.04,4.04,0,0,1-.522,2.061,3.7,3.7,0,0,1-1.422,1.4,4.238,4.238,0,0,1-2.1.5,3.531,3.531,0,0,1-2.126-.67,4.355,4.355,0,0,1-1.422-1.751,1.477,1.477,0,0,0-.3-.309.692.692,0,0,0-.43-.129.874.874,0,0,0-.522.193.622.622,0,0,0-.261.528.9.9,0,0,0,.13.438,5.794,5.794,0,0,0,1.983,2.344,5.061,5.061,0,0,0,2.948.9,5.983,5.983,0,0,0,2.948-.708,5.21,5.21,0,0,0,2.009-1.958,5.535,5.535,0,0,0,.73-2.846v-12a.76.76,0,0,0-.222-.541A.776.776,0,0,0,513.62,1333.508Z" transform="translate(-503.681 -1333.508)" fill="#584b53"/>
      <path id="Path_23" data-name="Path 23" d="M655.252,1378.316a6.633,6.633,0,0,0-6.717,0,6.633,6.633,0,0,0-2.374,2.478,7.72,7.72,0,0,0,0,7.135,6.5,6.5,0,0,0,2.374,2.478,6.717,6.717,0,0,0,6.717,0,6.538,6.538,0,0,0,2.361-2.478,7.719,7.719,0,0,0,0-7.135A6.67,6.67,0,0,0,655.252,1378.316Zm.991,8.869a5.067,5.067,0,0,1-1.787,1.944,4.962,4.962,0,0,1-5.139,0,5.165,5.165,0,0,1-1.8-1.944,5.813,5.813,0,0,1-.665-2.817,5.891,5.891,0,0,1,.665-2.83,5.047,5.047,0,0,1,1.8-1.943,5.039,5.039,0,0,1,5.139,0,4.953,4.953,0,0,1,1.787,1.943,5.991,5.991,0,0,1,.652,2.83A5.91,5.91,0,0,1,656.243,1387.185Z" transform="translate(-630.617 -1373.019)" fill="#584b53"/>
      <path id="Path_24" data-name="Path 24" d="M809.515,1377.716a.769.769,0,0,0-.587.235.805.805,0,0,0-.221.574v1.609a4.979,4.979,0,0,0-.991-1.27,5.471,5.471,0,0,0-1.709-1.07,5.857,5.857,0,0,0-5.2.5,6.275,6.275,0,0,0-2.191,2.439,7.652,7.652,0,0,0-.808,3.587,7.876,7.876,0,0,0,.8,3.574,6.266,6.266,0,0,0,2.191,2.5,5.611,5.611,0,0,0,3.143.913,5.256,5.256,0,0,0,2.074-.4,5.826,5.826,0,0,0,1.657-1.044,5.164,5.164,0,0,0,1.044-1.291v1.7a.78.78,0,0,0,.808.782.8.8,0,0,0,.783-.782v-11.739a.807.807,0,0,0-.222-.574A.739.739,0,0,0,809.515,1377.716Zm-2.974,11.413a4.3,4.3,0,0,1-2.452.717,4.358,4.358,0,0,1-2.465-.717,4.764,4.764,0,0,1-1.683-1.983,6.523,6.523,0,0,1-.6-2.831,6.216,6.216,0,0,1,.613-2.817,4.724,4.724,0,0,1,1.7-1.917,4.436,4.436,0,0,1,2.439-.691,4.3,4.3,0,0,1,2.452.717,4.941,4.941,0,0,1,1.682,1.956,6.125,6.125,0,0,1,.613,2.752,6.409,6.409,0,0,1-.613,2.831A4.9,4.9,0,0,1,806.542,1389.129Z" transform="translate(-767.327 -1373.019)" fill="#584b53"/>
      <path id="Path_25" data-name="Path 25" d="M969.3,1378.094a4.87,4.87,0,0,0-2.752-.692,5.207,5.207,0,0,0-1.865.352,6.1,6.1,0,0,0-1.683.965,5.659,5.659,0,0,0-1.174,1.283v-1.427a.775.775,0,0,0-.222-.548.739.739,0,0,0-.561-.235.781.781,0,0,0-.574.235.751.751,0,0,0-.235.548v11.686a.78.78,0,0,0,.809.782.8.8,0,0,0,.783-.782v-7.591a3.165,3.165,0,0,1,.626-1.9,4.481,4.481,0,0,1,1.63-1.37,4.645,4.645,0,0,1,2.126-.509,3.546,3.546,0,0,1,2.008.509,2.886,2.886,0,0,1,1.1,1.37,5.161,5.161,0,0,1,.339,1.9v7.591a.78.78,0,0,0,.809.782.8.8,0,0,0,.782-.782v-7.669a7.255,7.255,0,0,0-.456-2.622A3.883,3.883,0,0,0,969.3,1378.094Z" transform="translate(-912.917 -1373.019)" fill="#584b53"/>
      <path id="Path_26" data-name="Path 26" d="M1106.439,1340.7a1.25,1.25,0,0,0-.822.248.876.876,0,0,0-.3.717v.261a.918.918,0,0,0,.274.718,1.189,1.189,0,0,0,.822.248,1.146,1.146,0,0,0,.8-.248.917.917,0,0,0,.274-.718v-.261a.916.916,0,0,0-.274-.717A1.1,1.1,0,0,0,1106.439,1340.7Z" transform="translate(-1042.853 -1339.943)" fill="#584b53"/>
      <path id="Path_27" data-name="Path 27" d="M1109.076,1378.147a.739.739,0,0,0-.561.235.772.772,0,0,0-.222.548v12a.8.8,0,0,0,.209.548.727.727,0,0,0,.574.235.8.8,0,0,0,.782-.783v-12a.773.773,0,0,0-.222-.548A.74.74,0,0,0,1109.076,1378.147Z" transform="translate(-1045.514 -1373.685)" fill="#584b53"/>
      <path id="Path_28" data-name="Path 28" d="M1170.308,1384.146a.708.708,0,0,0,.235-.535,6.655,6.655,0,0,0-.548-2.661,6.19,6.19,0,0,0-1.356-1.943,5.6,5.6,0,0,0-1.917-1.2,6.332,6.332,0,0,0-2.23-.4,5.611,5.611,0,0,0-2.961.848,6.4,6.4,0,0,0-2.27,2.413,7.653,7.653,0,0,0-.874,3.783,7.253,7.253,0,0,0,.861,3.6,6.145,6.145,0,0,0,2.387,2.4,7.125,7.125,0,0,0,3.561.861,5.578,5.578,0,0,0,2.739-.691,7.025,7.025,0,0,0,2.035-1.631.718.718,0,0,0,.261-.548.67.67,0,0,0-.2-.469.635.635,0,0,0-.483-.209.809.809,0,0,0-.548.235,5.11,5.11,0,0,1-.926.9,4.7,4.7,0,0,1-1.291.692,4.781,4.781,0,0,1-1.617.261,5.275,5.275,0,0,1-2.843-.73,4.831,4.831,0,0,1-1.8-1.983,6.146,6.146,0,0,1-.625-2.765h9.86A.773.773,0,0,0,1170.308,1384.146Zm-9.991-2.243a5.032,5.032,0,0,1,1.083-1.7,4.211,4.211,0,0,1,1.487-.978,4.486,4.486,0,0,1,1.6-.313,4.569,4.569,0,0,1,2,.456,4.647,4.647,0,0,1,1.63,1.3,3.746,3.746,0,0,1,.782,2.074v.209h-8.882A5.389,5.389,0,0,1,1160.317,1381.9Z" transform="translate(-1090.543 -1373.019)" fill="#584b53"/>
    </g>
  </g>
</svg>
