<?xml version="1.0" encoding="utf-8"?>
<!-- Generator: Adobe Illustrator 22.0.1, SVG Export Plug-In . SVG Version: 6.00 Build 0)  -->
<svg version="1.1" id="圖層_1" xmlns="http://www.w3.org/2000/svg" xmlns:xlink="http://www.w3.org/1999/xlink" x="0px" y="0px"
	 viewBox="0 0 160 74" style="enable-background:new 0 0 160 74;" xml:space="preserve">
<style type="text/css">
	.st0{enable-background:new    ;}
	.st1{fill:#776871;}
</style>
<g id="project01_text1" transform="translate(-525 -1893)">
	<g class="st0">
		<path class="st1" d="M529.5,1926.8c-0.2,0.3-0.4,0.5-0.8,0.6c-0.1,0-0.2,0-0.3,0c-0.2,0-0.4-0.1-0.6-0.2c-0.3-0.1-0.5-0.4-0.5-0.7
			c0-0.1,0-0.2,0-0.3c0-0.2,0.1-0.4,0.2-0.6c0.9-1.5,1.7-3.3,2.5-5.6c0.1-0.3,0.3-0.5,0.5-0.6c0.3-0.1,0.6-0.2,0.8,0
			c0.3,0.1,0.5,0.3,0.7,0.6c0.1,0.3,0.2,0.6,0.1,0.9C531.1,1923.4,530.3,1925.4,529.5,1926.8z M550.2,1901.6c0.5,0,1,0.2,1.3,0.5
			c0.4,0.4,0.5,0.8,0.5,1.3v10.7c0,0.5-0.2,0.9-0.5,1.3c-0.4,0.4-0.8,0.5-1.3,0.5h-18.6c-0.5,0-1-0.2-1.3-0.5
			c-0.4-0.4-0.5-0.8-0.5-1.3v-10.7c0-0.5,0.2-0.9,0.5-1.3c0.4-0.4,0.8-0.5,1.3-0.5H550.2z M532.2,1903.8c-0.2,0-0.2,0.1-0.2,0.2v3.6
			c0,0.2,0.1,0.2,0.2,0.2h7.3c0.1,0,0.2-0.1,0.2-0.2v-3.6c0-0.1-0.1-0.2-0.2-0.2H532.2z M532.2,1909.8c-0.2,0-0.2,0.1-0.2,0.2v3.6
			c0,0.1,0.1,0.2,0.2,0.2h7.3c0.1,0,0.2-0.1,0.2-0.2v-3.6c0-0.2-0.1-0.2-0.2-0.2H532.2z M538.8,1926.6h6.1c0.7,0,1.2-0.2,1.4-0.5
			c0.2-0.4,0.4-1.1,0.5-2.4c0-0.3,0.2-0.5,0.4-0.6c0.2-0.1,0.5-0.2,0.7,0c0.3,0.1,0.6,0.3,0.8,0.6c0.2,0.3,0.3,0.6,0.3,0.9
			c-0.2,1.7-0.6,2.8-1.1,3.4c-0.5,0.6-1.5,0.9-2.8,0.9h-6.4c-1.7,0-2.9-0.2-3.4-0.7c-0.6-0.4-0.9-1.3-0.9-2.6v-5.2
			c0-0.3,0.1-0.6,0.3-0.8c0.2-0.2,0.5-0.3,0.8-0.3c0.3,0,0.6,0.1,0.8,0.3c0.2,0.2,0.3,0.5,0.3,0.8v5.1c0,0.4,0.1,0.7,0.4,0.9
			C537.3,1926.5,537.9,1926.6,538.8,1926.6z M544.6,1920.3c0.2,0.2,0.4,0.5,0.4,0.8s-0.1,0.6-0.3,0.8s-0.5,0.3-0.8,0.3
			c-0.3,0-0.6-0.1-0.9-0.3c-1.3-1.1-2.9-2.2-4.8-3.4c-0.2-0.1-0.4-0.3-0.4-0.6c0-0.3,0-0.5,0.2-0.7c0.2-0.2,0.5-0.3,0.8-0.4
			c0.1,0,0.1,0,0.2,0c0.2,0,0.5,0.1,0.7,0.2C541.6,1918.1,543.2,1919.2,544.6,1920.3z M549.4,1907.8c0.2,0,0.2-0.1,0.2-0.2v-3.6
			c0-0.1-0.1-0.2-0.2-0.2h-7.1c-0.1,0-0.2,0.1-0.2,0.2v3.6c0,0.2,0.1,0.2,0.2,0.2H549.4z M549.4,1913.8c0.2,0,0.2-0.1,0.2-0.2v-3.6
			c0-0.2-0.1-0.2-0.2-0.2h-7.1c-0.1,0-0.2,0.1-0.2,0.2v3.6c0,0.1,0.1,0.2,0.2,0.2H549.4z M549.3,1920.5c-0.1-0.1-0.2-0.3-0.2-0.5
			c0-0.1,0-0.2,0.1-0.3c0.1-0.3,0.3-0.5,0.5-0.6c0.2-0.1,0.3-0.1,0.5-0.1c0.1,0,0.3,0,0.4,0.1c0.3,0.1,0.6,0.3,0.8,0.5
			c1.4,2,2.6,3.9,3.4,5.7c0.1,0.2,0.1,0.3,0.1,0.5c0,0.2,0,0.3-0.1,0.5c-0.1,0.3-0.4,0.6-0.7,0.7c-0.1,0.1-0.3,0.1-0.5,0.1
			s-0.3,0-0.5-0.1c-0.3-0.1-0.5-0.4-0.7-0.7C551.8,1924.5,550.8,1922.6,549.3,1920.5z"/>
		<path class="st1" d="M564.1,1911.5c0.3,0.2,0.4,0.4,0.5,0.8c0.1,0.3,0,0.6-0.2,0.9c-0.2,0.2-0.4,0.4-0.8,0.4s-0.6,0-0.8-0.2
			c-1-0.8-2.1-1.5-3.5-2.2c-0.2-0.1-0.4-0.3-0.5-0.6c0-0.1,0-0.2,0-0.2c0-0.2,0.1-0.4,0.2-0.5c0.2-0.2,0.5-0.4,0.8-0.5
			c0.3-0.1,0.6,0,0.9,0.1C562,1910.2,563.2,1910.8,564.1,1911.5z M563.4,1918.5c0.1-0.3,0.3-0.4,0.6-0.5c0.3-0.1,0.5,0,0.8,0.1
			c0.3,0.2,0.5,0.4,0.6,0.8c0.1,0.3,0.1,0.6,0,1c-1.2,2.8-2.4,5.5-3.6,8.1c-0.1,0.3-0.4,0.5-0.7,0.6c-0.3,0.1-0.6,0-0.9-0.1
			c-0.3-0.2-0.5-0.5-0.6-0.8c0-0.1,0-0.2,0-0.3c0-0.2,0.1-0.4,0.2-0.6C560.9,1924,562.2,1921.3,563.4,1918.5z M565.7,1903.2
			c0.3,0.2,0.4,0.5,0.4,0.8c0,0.3-0.1,0.6-0.2,0.9s-0.4,0.4-0.8,0.4s-0.6-0.1-0.8-0.3c-1-0.8-2.1-1.6-3.4-2.3
			c-0.2-0.1-0.4-0.4-0.5-0.6c-0.1-0.3,0-0.5,0.2-0.8c0.2-0.2,0.4-0.4,0.8-0.5c0.1,0,0.2,0,0.3,0c0.2,0,0.4,0.1,0.6,0.2
			C563.6,1901.8,564.8,1902.5,565.7,1903.2z M586.1,1916.6c0,0.5-0.2,0.9-0.5,1.3c-0.4,0.4-0.8,0.5-1.3,0.5h-4
			c-0.2,0-0.2,0.1-0.2,0.2v8.3c0,0.6-0.1,1.1-0.2,1.4c-0.1,0.3-0.4,0.6-0.9,0.7c-0.5,0.2-1.6,0.3-3.1,0.3c-0.1,0-0.1,0-0.2,0
			c-0.3,0-0.6-0.1-0.8-0.3c-0.2-0.2-0.4-0.4-0.5-0.7c-0.1-0.2-0.1-0.4,0.1-0.7c0.1-0.2,0.3-0.3,0.6-0.3c0,0,0.8,0,2.2,0
			c0.2,0,0.4,0,0.4-0.1c0.1-0.1,0.1-0.2,0.1-0.4v-8.3c0-0.1-0.1-0.2-0.2-0.2h-3.6c-0.5,0-0.9-0.2-1.3-0.5c-0.4-0.4-0.5-0.8-0.5-1.3
			v-7.3c0-0.5,0.2-0.9,0.5-1.3c0.4-0.4,0.8-0.5,1.3-0.5h3c0.1,0,0.2-0.1,0.3-0.2c0.2-1,0.4-2,0.6-3c0-0.1,0-0.2-0.2-0.2h-7.2
			c-0.1,0-0.2,0.1-0.2,0.2v6.3c0,7.8-1.2,13.8-3.7,17.8c-0.2,0.3-0.4,0.4-0.7,0.5c-0.3,0.1-0.6,0-0.9-0.2c-0.2-0.2-0.4-0.4-0.5-0.7
			c0-0.1,0-0.2,0-0.3c0-0.2,0.1-0.4,0.2-0.6c0.7-1.2,1.3-2.5,1.8-3.9s0.8-2.9,1-4.5c0.2-1.5,0.3-2.9,0.4-4.1c0.1-1.2,0.1-2.6,0.1-4
			v-6.9c0-0.5,0.2-0.9,0.5-1.3c0.4-0.4,0.8-0.5,1.3-0.5h16.5c0.3,0,0.5,0.1,0.8,0.3c0.2,0.2,0.3,0.5,0.3,0.8c0,0.3-0.1,0.6-0.3,0.8
			s-0.5,0.3-0.8,0.3h-5.9c0.1,0,0.1,0.1,0.1,0.2c-0.4,1.5-0.7,2.6-0.9,3.1c0,0.1,0,0.1,0,0.2c0,0,0.1,0.1,0.1,0.1h4.6
			c0.5,0,0.9,0.2,1.3,0.5c0.4,0.4,0.5,0.8,0.5,1.3V1916.6z M572.7,1921.2c0.1-0.3,0.4-0.5,0.6-0.6c0.3-0.1,0.6-0.2,0.9-0.1
			c0.3,0.1,0.5,0.2,0.6,0.5c0.1,0.3,0.1,0.5,0,0.8c-0.9,1.9-1.9,3.6-3,5c-0.2,0.2-0.5,0.4-0.8,0.4s-0.6,0-0.9-0.2
			c-0.2-0.2-0.4-0.4-0.4-0.7c0-0.3,0-0.5,0.2-0.8C571.1,1924.3,572,1922.8,572.7,1921.2z M574.4,1909.2c-0.1,0-0.2,0.1-0.2,0.2v2.3
			c0,0.2,0.1,0.2,0.2,0.2h9.3c0.1,0,0.2-0.1,0.2-0.2v-2.3c0-0.1-0.1-0.2-0.2-0.2H574.4z M574.4,1913.8c-0.1,0-0.2,0.1-0.2,0.2v2.3
			c0,0.1,0.1,0.2,0.2,0.2h9.3c0.1,0,0.2-0.1,0.2-0.2v-2.3c0-0.2-0.1-0.2-0.2-0.2H574.4z M582.8,1921.7c-0.1-0.1-0.2-0.3-0.2-0.5
			c0-0.1,0-0.2,0-0.2c0.1-0.3,0.2-0.5,0.5-0.6c0.2-0.1,0.4-0.1,0.6-0.1c0.1,0,0.2,0,0.3,0c0.3,0.1,0.6,0.3,0.8,0.5
			c1.1,1.6,2,3,2.7,4.4c0.1,0.2,0.1,0.3,0.1,0.5c0,0.1,0,0.3-0.1,0.4c-0.1,0.3-0.3,0.5-0.7,0.7c-0.1,0.1-0.3,0.1-0.4,0.1
			c-0.1,0-0.3,0-0.4-0.1c-0.3-0.1-0.5-0.3-0.7-0.6C584.7,1924.7,583.8,1923.2,582.8,1921.7z"/>
		<path class="st1" d="M618.8,1919c0.2,0.2,0.3,0.3,0.3,0.3s0,0.1,0,0.4c0,0.3-0.1,0.5-0.3,0.7c-0.2,0.2-0.5,0.3-0.8,0.3h-9.4
			c0,0-0.1,0-0.1,0.1c0,0,0,0.1,0,0.1c0.8,0.8,1.8,1.5,2.8,2.2c1.1,0.7,2.2,1.3,3.4,1.9c1.2,0.6,2.4,1,3.7,1.4
			c0.3,0.1,0.4,0.3,0.5,0.5c0.1,0.3,0,0.5-0.2,0.8c-0.2,0.3-0.6,0.5-0.9,0.6c-0.2,0.1-0.3,0.1-0.5,0.1c-0.2,0-0.4,0-0.6-0.1
			c-2-0.7-3.9-1.7-5.8-2.8c-1.9-1.2-3.5-2.5-4.8-3.9c0,0-0.1,0-0.1,0c0,0-0.1,0-0.1,0.1v6.5c0,0.3-0.1,0.6-0.3,0.8
			c-0.2,0.2-0.5,0.3-0.8,0.3c-0.3,0-0.6-0.1-0.8-0.3c-0.2-0.2-0.3-0.5-0.3-0.8v-6.7c0,0,0-0.1-0.1-0.1c0,0-0.1,0-0.1,0
			c-1.3,1.4-2.9,2.7-4.8,4c-1.9,1.2-3.8,2.2-5.8,3c-0.2,0.1-0.4,0.1-0.6,0.1c-0.2,0-0.3,0-0.5-0.1c-0.4-0.1-0.6-0.3-0.9-0.6
			c-0.2-0.2-0.2-0.5-0.2-0.8c0.1-0.3,0.3-0.5,0.5-0.6c1.8-0.6,3.6-1.4,5.3-2.4c1.7-1,3.2-2.1,4.5-3.2c0,0,0-0.1,0-0.1
			c0,0,0-0.1-0.1-0.1H592c-0.3,0-0.5-0.1-0.8-0.3c-0.2-0.2-0.3-0.4-0.3-0.7c0-0.3,0.1-0.5,0.3-0.8c0.2-0.2,0.5-0.3,0.8-0.3h11.6
			c0.1,0,0.2-0.1,0.2-0.2v-1.5c0-0.2-0.1-0.2-0.2-0.2c-0.4,0-1,0-1.6,0c-0.3,0-0.6-0.1-0.8-0.3c-0.2-0.2-0.4-0.4-0.6-0.7
			c-0.1-0.2-0.1-0.4,0.1-0.6c0.1-0.2,0.3-0.3,0.5-0.3c0.5,0,1,0,1.4,0c0.5,0,1,0,1.3,0c0.2,0,0.4,0,0.5-0.1c0.1-0.1,0.1-0.2,0.1-0.4
			v-4.3c0-0.1-0.1-0.2-0.2-0.2c-0.1,0-0.2,0-0.2,0.1c-1.3,1.3-2.8,2.5-4.7,3.7c-1.9,1.1-3.8,2.1-5.7,2.8c-0.2,0.1-0.4,0.1-0.5,0.1
			c-0.2,0-0.3,0-0.5-0.1c-0.3-0.1-0.6-0.3-0.8-0.6c-0.2-0.2-0.2-0.5-0.1-0.7c0.1-0.3,0.2-0.4,0.5-0.5c3.5-1.2,6.5-2.7,8.9-4.7
			c0,0,0.1-0.1,0-0.1c0,0,0-0.1-0.1-0.1h-8.5c-0.3,0-0.5-0.1-0.7-0.3s-0.3-0.4-0.3-0.7c0-0.3,0.1-0.5,0.3-0.7s0.4-0.3,0.7-0.3h13.1
			c0,0,0,0,0,0c0,0,0,0,0-0.1c-2.1-0.7-4.1-1.3-6-1.7c-0.2-0.1-0.3-0.2-0.4-0.4c-0.1-0.2,0-0.4,0.1-0.5c0.4-0.4,0.8-0.6,1.2-0.6
			c0.1,0,0.2,0,0.4,0c1.2,0.2,2.6,0.6,4,1c0.1,0,0.3,0,0.4,0c1.6-0.6,3.2-1.3,4.7-2.2c0,0,0.1,0,0-0.1c0,0,0,0-0.1,0h-14.8
			c-0.3,0-0.5-0.1-0.7-0.3s-0.3-0.4-0.3-0.7c0-0.3,0.1-0.5,0.3-0.7s0.4-0.3,0.7-0.3H613c0,0,0.1,0,0.1,0c0.1,0,0.2,0,0.2,0
			c0.2,0,0.4,0.1,0.6,0.2l0.4,0.3c0.2,0.2,0.3,0.4,0.3,0.6s-0.1,0.4-0.3,0.6c-1.8,1.3-3.9,2.4-6.3,3.4c0,0-0.1,0.1-0.1,0.1
			c0,0,0,0.1,0.1,0.1c0.7,0.2,1.4,0.5,2,0.8c0.2,0.1,0.2,0.2,0.1,0.3v0h6.4c0,0,0.1,0,0.1,0c0.3-0.1,0.5-0.1,0.8,0l0.5,0.2
			c0.2,0.1,0.4,0.2,0.5,0.5c0.1,0.2,0,0.5-0.1,0.6c-1.5,2-2.8,3.5-3.9,4.6c-0.3,0.3-0.7,0.5-1.2,0.5c-0.2,0-0.5-0.1-0.7-0.2
			c-0.2-0.1-0.4-0.3-0.5-0.5c-0.1-0.3,0-0.5,0.2-0.7c0.9-0.9,1.8-1.9,2.6-2.9c0,0,0-0.1,0-0.1c0,0-0.1-0.1-0.1-0.1h-7.6
			c-0.2,0-0.2,0.1-0.2,0.2v4.3c0,0.6-0.1,1.1-0.3,1.4c-0.2,0.3-0.5,0.5-1,0.7c-0.2,0.1-0.5,0.1-0.7,0.2c0.3,0,0.6,0.1,0.9,0.4
			c0.2,0.2,0.4,0.5,0.4,0.9v0.6c0,0.2,0.1,0.2,0.2,0.2h11.7C618.4,1918.7,618.6,1918.8,618.8,1919z"/>
		<path class="st1" d="M650.1,1919.1c0.3,0,0.5,0.1,0.7,0.3c0.2,0.2,0.3,0.5,0.3,0.7s-0.1,0.5-0.3,0.7c-0.2,0.2-0.4,0.3-0.7,0.3
			h-26.2c-0.3,0-0.5-0.1-0.8-0.3c-0.2-0.2-0.3-0.5-0.3-0.7s0.1-0.5,0.3-0.7c0.2-0.2,0.5-0.3,0.8-0.3h11.6c0.1,0,0.2-0.1,0.2-0.2
			v-2.4c0-0.1-0.1-0.2-0.2-0.2h-9.1c-0.3,0-0.5-0.1-0.7-0.3s-0.3-0.4-0.3-0.7c0-0.3,0.1-0.5,0.3-0.7s0.4-0.3,0.7-0.3h9.1
			c0.1,0,0.2-0.1,0.2-0.2v-2.2c0-0.1-0.1-0.2-0.2-0.2h-7.7c-0.5,0-0.9-0.2-1.3-0.5c-0.4-0.4-0.5-0.8-0.5-1.3v-7.2
			c0-0.5,0.2-0.9,0.5-1.3c0.4-0.4,0.8-0.5,1.3-0.5H646c0.5,0,0.9,0.2,1.3,0.5c0.4,0.4,0.5,0.8,0.5,1.3v7.2c0,0.5-0.2,0.9-0.5,1.3
			c-0.4,0.4-0.8,0.5-1.3,0.5h-7.6c-0.2,0-0.2,0.1-0.2,0.2v2.2c0,0.1,0.1,0.2,0.2,0.2h9.1c0.3,0,0.5,0.1,0.7,0.3s0.3,0.4,0.3,0.7
			c0,0.3-0.1,0.5-0.3,0.7s-0.4,0.3-0.7,0.3h-9.1c-0.2,0-0.2,0.1-0.2,0.2v2.4c0,0.2,0.1,0.2,0.2,0.2H650.1z M626,1928
			c-0.2,0.3-0.5,0.5-0.9,0.5c-0.1,0-0.2,0-0.3,0c-0.2,0-0.5-0.1-0.8-0.2s-0.4-0.3-0.4-0.6c0-0.1,0-0.1,0-0.2c0-0.2,0.1-0.4,0.2-0.6
			c0.8-0.9,1.6-2.1,2.2-3.4c0.1-0.3,0.4-0.5,0.7-0.7c0.2-0.1,0.4-0.1,0.6-0.1c0.1,0,0.2,0,0.3,0c0.3,0.1,0.5,0.3,0.6,0.5
			c0.1,0.3,0.1,0.6,0,0.8C627.6,1925.7,626.8,1926.9,626,1928z M628.3,1909.4c0,0.1,0.1,0.2,0.2,0.2h7c0.1,0,0.2-0.1,0.2-0.2v-6.5
			c0-0.1-0.1-0.2-0.2-0.2h-7c-0.2,0-0.2,0.1-0.2,0.2V1909.4z M630.5,1904.8c-0.1-0.2-0.1-0.4,0-0.6c0.1-0.2,0.2-0.3,0.4-0.4
			c0.2-0.1,0.5-0.1,0.7,0c0.2,0.1,0.4,0.2,0.5,0.4c0.7,1.1,1.1,2.1,1.4,3.1c0.1,0.2,0,0.5-0.1,0.7c-0.1,0.2-0.3,0.4-0.5,0.5
			c-0.2,0.1-0.4,0.1-0.7,0c-0.2-0.1-0.3-0.3-0.4-0.5C631.6,1907,631.1,1905.9,630.5,1904.8z M632.1,1924.4c0-0.1,0-0.1,0-0.2
			c0-0.2,0.1-0.4,0.2-0.6c0.2-0.2,0.4-0.4,0.7-0.4c0.3,0,0.6,0,0.9,0.2c0.3,0.2,0.4,0.5,0.5,0.8c0.2,1,0.3,1.9,0.4,2.8
			c0,0.3-0.1,0.6-0.3,0.9s-0.5,0.4-0.8,0.4c-0.1,0-0.1,0-0.2,0c-0.2,0-0.5-0.1-0.7-0.2c-0.2-0.2-0.4-0.5-0.4-0.8
			C632.4,1926.5,632.3,1925.5,632.1,1924.4z M645.2,1909.7c0.1,0,0.2-0.1,0.2-0.2v-6.5c0-0.1-0.1-0.2-0.2-0.2h-6.9
			c-0.2,0-0.2,0.1-0.2,0.2v6.5c0,0.1,0.1,0.2,0.2,0.2H645.2z M638.9,1924.4c-0.1-0.1-0.1-0.2-0.1-0.4c0-0.1,0-0.3,0.1-0.4
			c0.1-0.3,0.4-0.4,0.6-0.5c0.3-0.1,0.7,0,1,0.1c0.3,0.2,0.5,0.4,0.6,0.7c0.4,1,0.8,2,1.1,2.9c0.1,0.3,0,0.6-0.1,0.9
			c-0.2,0.3-0.4,0.5-0.8,0.5c-0.3,0.1-0.6,0-0.9-0.1c-0.3-0.2-0.5-0.4-0.5-0.8C639.6,1926.5,639.3,1925.5,638.9,1924.4z
			 M641.5,1908.5c-0.1,0.2-0.3,0.3-0.5,0.4c-0.2,0.1-0.5,0.1-0.7,0c-0.2-0.1-0.3-0.2-0.4-0.4c-0.1-0.2,0-0.4,0.1-0.6
			c0.7-1.2,1.2-2.3,1.7-3.4c0.1-0.2,0.3-0.4,0.5-0.5c0.2-0.1,0.5-0.1,0.7,0c0.2,0.1,0.4,0.2,0.5,0.5s0.1,0.5,0,0.7
			C642.6,1906.6,642,1907.7,641.5,1908.5z M645.7,1924.1c-0.1-0.2-0.2-0.3-0.2-0.5c0-0.1,0-0.1,0-0.2c0.1-0.3,0.2-0.4,0.5-0.5
			c0.2-0.1,0.5-0.1,0.7-0.1c0.4,0,0.8,0.2,1.2,0.6c1.1,1.1,2,2.3,2.8,3.5c0.1,0.2,0.2,0.3,0.2,0.5c0,0.1,0,0.2,0,0.3
			c-0.1,0.3-0.3,0.5-0.6,0.6c-0.2,0.1-0.3,0.1-0.5,0.1c-0.1,0-0.3,0-0.5-0.1c-0.3-0.1-0.6-0.3-0.8-0.6c-0.3-0.5-0.7-1-1.1-1.6
			C646.7,1925.4,646.2,1924.7,645.7,1924.1z"/>
		<path class="st1" d="M667.7,1913.8c0,0.2-0.1,0.5-0.3,0.7s-0.4,0.3-0.7,0.3c-0.3,0-0.5-0.1-0.7-0.3c-0.2-0.2-0.3-0.4-0.3-0.7v-1.7
			c0-0.1-0.1-0.2-0.2-0.2h-8.5c-0.1,0-0.2,0.1-0.2,0.2v1.7c0,0.1,0.1,0.2,0.2,0.2h6.8c0.5,0,0.9,0.2,1.3,0.5
			c0.4,0.4,0.5,0.8,0.5,1.3v11.3c0,0.5-0.1,0.9-0.2,1.2s-0.4,0.5-0.7,0.7c-0.5,0.2-1.3,0.3-2.4,0.3c-0.3,0-0.5-0.1-0.8-0.3
			c-0.2-0.2-0.4-0.4-0.5-0.7c-0.1-0.2-0.1-0.4,0.1-0.6s0.3-0.3,0.5-0.3s0.4,0,0.6,0c0.4,0,0.7,0,0.9,0c0.1,0,0.2,0,0.3-0.1
			c0.1,0,0.1-0.1,0.1-0.3v-3.1c0-0.1-0.1-0.2-0.2-0.2h-4.3c-0.2,0-0.2,0.1-0.2,0.2v4.4c0,0.3-0.1,0.5-0.3,0.7
			c-0.2,0.2-0.4,0.3-0.7,0.3s-0.5-0.1-0.7-0.3c-0.2-0.2-0.3-0.4-0.3-0.7V1915c0-0.1-0.1-0.2-0.2-0.2c-0.4,0-0.8-0.2-1.1-0.5
			c-0.3-0.3-0.5-0.7-0.5-1.1v-1.3c0-0.4,0.2-0.8,0.5-1.1c0.3-0.3,0.7-0.5,1.1-0.5c0.1,0,0.2-0.1,0.2-0.2v-6.8c0-0.5,0.2-1,0.5-1.3
			c0.4-0.4,0.8-0.5,1.3-0.5h5.2c0.5,0,0.9,0.2,1.3,0.5c0.4,0.4,0.5,0.8,0.5,1.3v6.8c0,0.1,0.1,0.2,0.2,0.2c0.5,0,0.9,0.2,1.2,0.5
			c0.3,0.3,0.5,0.7,0.5,1.2V1913.8z M659,1903.2c-0.2,0-0.2,0.1-0.2,0.2v6.6c0,0.1,0.1,0.2,0.2,0.2h1.2c0.2,0,0.2-0.1,0.2-0.2v-2.9
			c0-0.5,0.2-1,0.5-1.3c0.4-0.4,0.8-0.5,1.3-0.5h1.5c0.1,0,0.2-0.1,0.2-0.2v-1.6c0-0.2-0.1-0.2-0.2-0.2H659z M663.7,1916
			c0-0.1-0.1-0.2-0.2-0.2h-4.3c-0.2,0-0.2,0.1-0.2,0.2v1.8c0,0.1,0.1,0.2,0.2,0.2h4.3c0.1,0,0.2-0.1,0.2-0.2V1916z M658.9,1921.9
			c0,0.1,0.1,0.2,0.2,0.2h4.3c0.1,0,0.2-0.1,0.2-0.2v-1.9c0-0.1-0.1-0.2-0.2-0.2h-4.3c-0.2,0-0.2,0.1-0.2,0.2V1921.9z M663.7,1910.2
			c0.1,0,0.2-0.1,0.2-0.2v-3c0-0.1-0.1-0.2-0.2-0.2h-1.6c-0.1,0-0.2,0.1-0.2,0.2v3c0,0.1,0.1,0.2,0.2,0.2H663.7z M678.8,1926.8
			c0,0.1,0,0.1,0,0.2c0,0,0.1,0.1,0.1,0.1h3.9c0.2,0,0.5,0.1,0.6,0.3c0.2,0.2,0.3,0.4,0.3,0.6s-0.1,0.5-0.3,0.6
			c-0.2,0.2-0.4,0.2-0.6,0.2h-14.6c-0.2,0-0.4-0.1-0.6-0.2c-0.2-0.2-0.3-0.4-0.3-0.6s0.1-0.5,0.3-0.6c0.2-0.2,0.4-0.3,0.6-0.3h3.8
			c0.1,0,0.1,0,0.1-0.1s0-0.1,0-0.1c-0.2-0.8-0.5-1.5-0.8-2.2c-0.1-0.2-0.1-0.5,0-0.7c0.1-0.2,0.2-0.4,0.5-0.5c0.1,0,0.2,0,0.3,0
			c0.1,0,0.3,0,0.4,0.1c0.2,0.1,0.4,0.3,0.5,0.5c0.4,0.9,0.7,1.7,0.9,2.4c0.1,0.3,0,0.4-0.3,0.5v0h3.4c-0.2-0.1-0.2-0.2-0.1-0.3
			c0.4-0.7,0.7-1.6,1.1-2.5c0.1-0.3,0.2-0.5,0.5-0.6c0.2-0.1,0.3-0.1,0.5-0.1c0.1,0,0.2,0,0.3,0c0.2,0.1,0.4,0.2,0.5,0.5
			c0.1,0.2,0.1,0.5,0,0.7C679.3,1925.8,678.9,1926.5,678.8,1926.8z M682.6,1914c0.2,0,0.4,0.1,0.6,0.3c0.2,0.2,0.3,0.4,0.3,0.6
			c0,0.2-0.1,0.4-0.3,0.6c-0.2,0.2-0.4,0.3-0.6,0.3h-13.9c-0.2,0-0.4-0.1-0.6-0.3c-0.2-0.2-0.3-0.4-0.3-0.6c0-0.2,0.1-0.4,0.3-0.6
			c0.2-0.2,0.4-0.3,0.6-0.3H682.6z M680.5,1903.2c0.5,0,0.9,0.2,1.3,0.5c0.4,0.4,0.5,0.8,0.5,1.3v5.6c0,0.5-0.2,1-0.5,1.3
			c-0.4,0.4-0.8,0.5-1.3,0.5h-9.8c-0.5,0-1-0.2-1.3-0.5c-0.4-0.4-0.5-0.8-0.5-1.3v-5.6c0-0.5,0.2-0.9,0.5-1.3
			c0.4-0.4,0.8-0.5,1.3-0.5h1.7c0.2,0,0.2-0.1,0.2-0.2v-1.8c0-0.2,0.1-0.5,0.2-0.6c0.2-0.2,0.4-0.3,0.6-0.3s0.5,0.1,0.6,0.3
			c0.2,0.2,0.3,0.4,0.3,0.6v1.8c0,0.1,0.1,0.2,0.2,0.2h1.8c0.2,0,0.2-0.1,0.2-0.2v-1.8c0-0.2,0.1-0.5,0.3-0.6
			c0.2-0.2,0.4-0.3,0.6-0.3c0.2,0,0.4,0.1,0.6,0.3c0.2,0.2,0.3,0.4,0.3,0.6v1.8c0,0.1,0.1,0.2,0.2,0.2H680.5z M681.8,1921.3
			c0,0.5-0.2,1-0.5,1.3c-0.4,0.4-0.8,0.5-1.3,0.5h-8.7c-0.5,0-0.9-0.2-1.3-0.5c-0.4-0.4-0.5-0.8-0.5-1.3v-2.2c0-0.5,0.2-1,0.5-1.3
			c0.4-0.4,0.8-0.5,1.3-0.5h8.7c0.5,0,0.9,0.2,1.3,0.5c0.4,0.4,0.5,0.8,0.5,1.3V1921.3z M670.9,1904.8c-0.2,0-0.2,0.1-0.2,0.2v1.7
			c0,0.2,0.1,0.2,0.2,0.2h1.8c0.2,0,0.2-0.1,0.2-0.2v-1.7c0-0.2-0.1-0.2-0.2-0.2H670.9z M670.9,1908.6c-0.2,0-0.2,0.1-0.2,0.2v1.7
			c0,0.2,0.1,0.2,0.2,0.2h1.8c0.2,0,0.2-0.1,0.2-0.2v-1.7c0-0.2-0.1-0.2-0.2-0.2H670.9z M671.6,1918.9c-0.1,0-0.2,0.1-0.2,0.2v2.3
			c0,0.2,0.1,0.2,0.2,0.2h7.9c0.1,0,0.2-0.1,0.2-0.2v-2.3c0-0.1-0.1-0.2-0.2-0.2H671.6z M674.4,1906.8c0,0.2,0.1,0.2,0.2,0.2h1.8
			c0.2,0,0.2-0.1,0.2-0.2v-1.7c0-0.2-0.1-0.2-0.2-0.2h-1.8c-0.2,0-0.2,0.1-0.2,0.2V1906.8z M676.7,1908.8c0-0.2-0.1-0.2-0.2-0.2
			h-1.8c-0.2,0-0.2,0.1-0.2,0.2v1.7c0,0.2,0.1,0.2,0.2,0.2h1.8c0.2,0,0.2-0.1,0.2-0.2V1908.8z M680.2,1907c0.2,0,0.2-0.1,0.2-0.2
			v-1.7c0-0.2-0.1-0.2-0.2-0.2h-1.9c-0.1,0-0.2,0.1-0.2,0.2v1.7c0,0.2,0.1,0.2,0.2,0.2H680.2z M680.2,1910.8c0.2,0,0.2-0.1,0.2-0.2
			v-1.7c0-0.2-0.1-0.2-0.2-0.2h-1.9c-0.1,0-0.2,0.1-0.2,0.2v1.7c0,0.2,0.1,0.2,0.2,0.2H680.2z"/>
	</g>
	<g class="st0">
		<path class="st1" d="M543.9,1949.2c0.1-0.1,0.2-0.2,0.3-0.3c0.1,0,0.2-0.1,0.2-0.1c0.1,0,0.1,0,0.2,0c0.1,0,0.2,0.1,0.3,0.2
			s0.1,0.2,0,0.4c-0.4,0.9-0.8,1.8-1.4,2.8c0,0.1-0.1,0.1-0.1,0.2v10.2c0,0.1,0,0.3-0.1,0.4c-0.1,0.1-0.2,0.1-0.4,0.1
			s-0.3,0-0.4-0.1c-0.1-0.1-0.1-0.2-0.1-0.4v-8.7c0,0,0,0,0,0c0,0,0,0,0,0c-0.5,0.6-0.9,1.2-1.4,1.7c-0.1,0.1-0.2,0.1-0.4,0.1
			c-0.1,0-0.3-0.1-0.3-0.2c-0.1-0.1-0.1-0.2-0.1-0.4c0,0,0,0,0-0.1c0-0.2,0.1-0.3,0.2-0.4c0.7-0.7,1.3-1.5,2-2.5
			C543,1951.2,543.5,1950.2,543.9,1949.2z M554.4,1957.6c0.1,0,0.3,0,0.4,0.1c0.1,0.1,0.1,0.2,0.1,0.4c0,0.1,0,0.3-0.1,0.4
			c-0.1,0.1-0.2,0.1-0.4,0.1h-4.2c-0.1,0-0.1,0-0.1,0.1v3.9c0,0.1-0.1,0.3-0.2,0.4c-0.1,0.1-0.2,0.2-0.4,0.2c-0.1,0-0.3-0.1-0.4-0.2
			c-0.1-0.1-0.2-0.2-0.2-0.4v-3.9c0-0.1,0-0.1-0.1-0.1h-4.1c-0.1,0-0.3,0-0.4-0.1c-0.1-0.1-0.1-0.2-0.1-0.4c0-0.1,0-0.3,0.1-0.4
			c0.1-0.1,0.2-0.1,0.4-0.1h4.1c0.1,0,0.1,0,0.1-0.1v-2.7c0-0.1,0-0.1-0.1-0.1h-3.4c-0.1,0-0.3,0-0.4-0.1c-0.1-0.1-0.1-0.2-0.1-0.4
			s0-0.3,0.1-0.4c0.1-0.1,0.2-0.1,0.4-0.1h3.4c0.1,0,0.1,0,0.1-0.1v-4.3c0-0.1,0.1-0.3,0.2-0.4c0.1-0.1,0.2-0.2,0.4-0.2
			c0.1,0,0.3,0.1,0.4,0.2c0.1,0.1,0.2,0.2,0.2,0.4v4.3c0,0.1,0,0.1,0.1,0.1h3.6c0.1,0,0.3,0,0.4,0.1c0.1,0.1,0.1,0.2,0.1,0.4
			s0,0.3-0.1,0.4c-0.1,0.1-0.2,0.1-0.4,0.1h-3.6c-0.1,0-0.1,0-0.1,0.1v2.7c0,0.1,0,0.1,0.1,0.1H554.4z M547.5,1952.3
			c0.1,0.1,0,0.3,0,0.4c-0.1,0.1-0.2,0.2-0.3,0.3c-0.1,0.1-0.2,0-0.4,0s-0.2-0.2-0.2-0.3c-0.2-0.8-0.6-1.6-1.1-2.5
			c-0.1-0.1-0.1-0.2,0-0.4c0-0.1,0.1-0.2,0.2-0.3c0.1,0,0.3,0,0.4,0c0.1,0,0.2,0.1,0.3,0.2C546.9,1950.7,547.2,1951.5,547.5,1952.3z
			 M552.8,1949.9c0.1-0.1,0.2-0.2,0.3-0.3s0.3-0.1,0.4,0c0.1,0.1,0.2,0.1,0.3,0.3c0.1,0.1,0,0.3,0,0.4c-0.6,1.2-1,2-1.4,2.6
			c-0.1,0.1-0.2,0.2-0.3,0.2c-0.1,0-0.3,0-0.4,0c-0.1-0.1-0.2-0.1-0.2-0.2c0-0.1,0-0.2,0-0.3C552,1951.6,552.4,1950.8,552.8,1949.9z
			"/>
		<path class="st1" d="M560.1,1949.2c0.1-0.1,0.2-0.2,0.3-0.3c0.1,0,0.2-0.1,0.2-0.1c0.1,0,0.1,0,0.2,0c0.1,0,0.2,0.1,0.3,0.2
			s0.1,0.3,0,0.4c-0.4,1-0.9,2-1.4,2.8c0,0.1,0,0.1,0,0.2v10.1c0,0.1-0.1,0.3-0.2,0.4c-0.1,0.1-0.2,0.1-0.4,0.1s-0.3,0-0.4-0.1
			c-0.1-0.1-0.1-0.2-0.1-0.4v-8.5c0,0,0,0,0,0c0,0,0,0,0,0c-0.4,0.5-0.8,1.1-1.2,1.6c-0.1,0.1-0.2,0.2-0.4,0.1
			c-0.1,0-0.3-0.1-0.3-0.2c-0.1-0.1-0.1-0.3-0.1-0.4c0-0.2,0.1-0.4,0.2-0.5C558.1,1953.2,559.3,1951.3,560.1,1949.2z M570.1,1952.8
			c0-0.1,0-0.1-0.1-0.1h-3c-0.1,0-0.1,0-0.1,0.1v9c0,0.3,0,0.6-0.1,0.7s-0.2,0.3-0.4,0.4c-0.3,0.1-0.8,0.2-1.5,0.2h0
			c-0.2,0-0.3-0.1-0.4-0.2c-0.1-0.1-0.2-0.2-0.3-0.4c0-0.1,0-0.2,0-0.4c0.1-0.1,0.2-0.2,0.3-0.2c0.2,0,0.4,0,0.5,0
			c0.1,0,0.2,0,0.4,0s0.2,0,0.2,0c0.1,0,0.2,0,0.2-0.1c0,0,0.1-0.1,0.1-0.2v-9c0-0.1,0-0.1-0.1-0.1h-2.3c-0.1,0-0.1,0-0.2,0.1
			c-0.4,0.8-0.8,1.6-1.2,2.2c-0.1,0.1-0.2,0.2-0.3,0.2c-0.1,0-0.3,0-0.4-0.1c-0.1-0.1-0.2-0.2-0.2-0.4c0,0,0-0.1,0-0.1
			c0-0.1,0-0.2,0.1-0.3c0.9-1.3,1.6-3,2.2-5.2c0-0.1,0.1-0.2,0.2-0.3c0.1-0.1,0.2-0.1,0.3-0.1c0,0,0.1,0,0.1,0
			c0.1,0,0.2,0.1,0.3,0.2s0.1,0.3,0.1,0.4c-0.2,0.8-0.4,1.6-0.7,2.2c0,0,0,0,0,0.1c0,0,0,0,0.1,0h6.5c0,0,0,0,0,0c0.1,0,0.2,0,0.3,0
			l0.2,0c0.1,0,0.2,0.1,0.2,0.2c0,0.1,0.1,0.1,0.1,0.2c0,0.3-0.2,1.2-0.5,2.6c0,0.1-0.1,0.2-0.2,0.3c-0.1,0.1-0.2,0.1-0.4,0.1
			c-0.1,0-0.2-0.1-0.3-0.2c-0.1-0.1-0.1-0.2-0.1-0.3C569.8,1954.1,569.9,1953.6,570.1,1952.8z M563.1,1955.9c0-0.1,0.1-0.2,0.2-0.3
			s0.3-0.1,0.4-0.1c0.1,0,0.2,0.1,0.3,0.2s0.1,0.3,0.1,0.4c-0.5,1.8-1.1,3.2-1.9,4.5c-0.1,0.1-0.2,0.2-0.4,0.2c-0.2,0-0.3,0-0.4-0.1
			c-0.1-0.1-0.2-0.2-0.2-0.3c0-0.1,0-0.3,0.1-0.4C562.1,1959,562.7,1957.6,563.1,1955.9z M568.4,1956c0-0.1,0-0.1,0-0.2s0-0.1,0-0.2
			c0.1-0.1,0.1-0.2,0.2-0.2c0.1,0,0.1,0,0.2,0c0.1,0,0.1,0,0.2,0c0.1,0.1,0.2,0.1,0.3,0.3c0.8,1.6,1.4,3,1.7,4.4c0,0,0,0.1,0,0.1
			c0,0.1,0,0.2-0.1,0.3c-0.1,0.1-0.2,0.2-0.3,0.3c0,0-0.1,0-0.1,0c-0.1,0-0.2,0-0.2-0.1c-0.1-0.1-0.2-0.2-0.2-0.3
			C569.7,1959,569.1,1957.6,568.4,1956z"/>
		<path class="st1" d="M578.6,1956c0,0.1,0,0.3-0.1,0.4c-0.1,0.1-0.2,0.2-0.3,0.2l-1.6,0.5c-0.1,0-0.1,0.1-0.1,0.1v4.5
			c0,0.3,0,0.5-0.1,0.7c-0.1,0.2-0.2,0.3-0.4,0.4c-0.3,0.1-0.8,0.2-1.6,0.2c-0.2,0-0.3,0-0.4-0.1c-0.1-0.1-0.2-0.2-0.3-0.4
			c0-0.1,0-0.2,0-0.3c0.1-0.1,0.2-0.1,0.3-0.1c0,0,0.4,0,1.1,0c0.2,0,0.3-0.1,0.3-0.3v-4.2c0,0,0-0.1,0-0.1c0,0,0,0-0.1,0
			c-0.6,0.2-1.1,0.3-1.6,0.5c-0.1,0-0.3,0-0.4,0c-0.1-0.1-0.2-0.2-0.3-0.3c0-0.1,0-0.1,0-0.2c0-0.1,0-0.2,0.1-0.2
			c0.1-0.1,0.2-0.2,0.3-0.2c0.4-0.1,1.1-0.3,1.9-0.5c0.1,0,0.1-0.1,0.1-0.2v-3.3c0-0.1,0-0.1-0.1-0.1h-1.7c-0.1,0-0.3,0-0.4-0.1
			c-0.1-0.1-0.1-0.2-0.1-0.4s0-0.3,0.1-0.4c0.1-0.1,0.2-0.1,0.4-0.1h1.7c0.1,0,0.1,0,0.1-0.1v-2.6c0-0.1,0-0.3,0.1-0.4
			c0.1-0.1,0.2-0.1,0.4-0.1c0.1,0,0.3,0,0.4,0.1c0.1,0.1,0.1,0.2,0.1,0.4v2.6c0,0.1,0,0.1,0.1,0.1h1.3c0.1,0,0.3,0,0.4,0.1
			s0.1,0.2,0.1,0.4s0,0.3-0.1,0.4s-0.2,0.1-0.4,0.1h-1.3c-0.1,0-0.1,0-0.1,0.1v3c0,0,0,0.1,0,0.1c0,0,0,0,0.1,0l1.5-0.4
			c0.1,0,0.2,0,0.3,0.1C578.6,1955.8,578.6,1955.9,578.6,1956z M585.4,1955.1c0.1-0.1,0.2-0.2,0.3-0.2c0.1,0,0.2,0,0.4,0
			c0.1,0.1,0.2,0.2,0.2,0.3c0,0.1,0,0.3,0,0.4c-0.6,1.3-1.5,2.5-2.5,3.6c-0.1,0.1-0.1,0.1,0,0.2c0.6,1.6,1.4,2.4,2.3,2.5h0
			c0.2,0,0.3-0.2,0.5-0.5c0.1-0.3,0.2-0.9,0.3-1.6c0-0.1,0.1-0.2,0.2-0.2c0.1,0,0.2,0,0.3,0c0.3,0.2,0.4,0.4,0.4,0.6
			c0,0,0,0.1,0,0.1c-0.2,1-0.4,1.7-0.7,2.1c-0.3,0.4-0.6,0.6-0.9,0.6c0,0,0,0,0,0c-1.3-0.1-2.4-1.1-3.2-2.9c0-0.1-0.1-0.1-0.1,0
			c-1,0.9-2,1.6-3.1,2.2c-0.1,0.1-0.3,0.1-0.5,0.1c-0.2,0-0.3-0.1-0.4-0.2c-0.1-0.1-0.1-0.2-0.1-0.3c0-0.2,0.1-0.3,0.2-0.3
			c1.2-0.6,2.4-1.4,3.5-2.4c0.1-0.1,0.1-0.1,0-0.2c-0.4-1.3-0.8-3-1-4.9c0-0.1-0.1-0.1-0.1-0.1l-1.9,0.2c-0.1,0-0.3,0-0.4-0.1
			c-0.1-0.1-0.2-0.2-0.2-0.3s0-0.3,0.1-0.4c0.1-0.1,0.2-0.2,0.3-0.2l1.9-0.2c0.1,0,0.1-0.1,0.1-0.1c-0.1-1.1-0.2-2.3-0.3-3.6
			c0-0.1,0-0.3,0.1-0.4c0.1-0.1,0.2-0.2,0.4-0.2c0.1,0,0.3,0.1,0.4,0.2c0.1,0.1,0.2,0.2,0.2,0.4c0.1,1.3,0.2,2.5,0.3,3.5
			c0,0.1,0.1,0.1,0.1,0.1l4.3-0.5c0.1,0,0.3,0,0.4,0.1c0.1,0.1,0.2,0.2,0.2,0.3c0,0.1,0,0.3-0.1,0.4c-0.1,0.1-0.2,0.2-0.3,0.2
			l-4.3,0.5c-0.1,0-0.1,0.1-0.1,0.1c0.2,1.6,0.5,3,0.8,4.1c0,0,0,0,0.1,0c0,0,0,0,0.1,0C584.2,1957.2,584.9,1956.2,585.4,1955.1z
			 M585.9,1950.9c0.1,0.1,0.1,0.2,0.1,0.4c0,0.1-0.1,0.3-0.2,0.3c-0.1,0.1-0.2,0.1-0.4,0.1c-0.1,0-0.2-0.1-0.3-0.2
			c-0.4-0.5-0.9-1-1.5-1.6c-0.1-0.1-0.1-0.2-0.1-0.3c0-0.1,0.1-0.2,0.2-0.3c0.1-0.1,0.2-0.1,0.4-0.1c0.1,0,0.3,0.1,0.4,0.2
			C585,1949.9,585.5,1950.4,585.9,1950.9z"/>
		<path class="st1" d="M594.3,1960.9c0,0.1,0,0.1,0.1,0.1l3-0.4c0.1,0,0.2,0,0.3,0.1c0.1,0.1,0.2,0.2,0.2,0.3c0,0.1,0,0.3-0.1,0.4
			c-0.1,0.1-0.2,0.2-0.3,0.2c-1,0.1-2.5,0.3-4.3,0.6s-2.8,0.4-3,0.4c-0.2,0-0.3,0-0.4-0.1c-0.1-0.1-0.2-0.2-0.2-0.4c0,0,0-0.1,0-0.1
			c0-0.1,0-0.1,0-0.2c0-0.1,0.1-0.2,0.2-0.2c0.1-0.1,0.2-0.1,0.3-0.1c1-0.1,2-0.2,3.1-0.4c0.1,0,0.1-0.1,0.1-0.1v-2.7
			c0-0.1,0-0.1-0.1-0.1h-2.5c-0.1,0-0.2,0-0.3-0.1s-0.1-0.2-0.1-0.3c0-0.1,0-0.2,0.1-0.3s0.2-0.1,0.3-0.1h2.5c0.1,0,0.1,0,0.1-0.1
			v-1.3c0-0.1,0-0.3,0.1-0.4c0.1-0.1,0.2-0.1,0.4-0.1c0.1,0,0.3,0,0.4,0.1c0.1,0.1,0.1,0.2,0.1,0.4v1.3c0,0.1,0,0.1,0.1,0.1h2.5
			c0.1,0,0.2,0,0.3,0.1s0.1,0.2,0.1,0.3c0,0.1,0,0.2-0.1,0.3s-0.2,0.1-0.3,0.1h-2.5c-0.1,0-0.1,0-0.1,0.1V1960.9z M595.1,1952.4
			c-0.1-0.1-0.1-0.2-0.1-0.3c0-0.1,0.1-0.2,0.2-0.2c0.1-0.1,0.2-0.1,0.4-0.1c0.1,0,0.2,0.1,0.3,0.2c0.9,1,1.6,2,2,2.8
			c0.1,0.1,0.1,0.2,0,0.4c0,0.1-0.1,0.2-0.2,0.3c-0.1,0.1-0.2,0.1-0.4,0.1c-0.1,0-0.2-0.1-0.3-0.2c-0.1-0.1-0.2-0.3-0.3-0.5
			c0-0.1-0.1-0.1-0.2-0.1c-1,0.1-3.1,0.2-6.3,0.4c-0.1,0-0.3,0-0.4-0.1c-0.1-0.1-0.2-0.2-0.2-0.4c0-0.1,0-0.3,0.1-0.4
			c0.1-0.1,0.2-0.2,0.4-0.2l0.8,0c0.1,0,0.1,0,0.2-0.1c0.4-1,0.8-2,1.2-3.1c0,0,0-0.1,0-0.1c0,0,0,0-0.1,0h-2.1
			c-0.1,0-0.2,0-0.3-0.1s-0.1-0.2-0.1-0.3c0-0.1,0-0.2,0.1-0.3c0.1-0.1,0.2-0.1,0.3-0.1h7.2c0.1,0,0.2,0,0.3,0.1
			c0.1,0.1,0.1,0.2,0.1,0.3c0,0.1,0,0.2-0.1,0.3s-0.2,0.1-0.3,0.1h-3.7c-0.1,0-0.1,0-0.2,0.1c-0.6,1.4-1,2.5-1.3,3.1c0,0,0,0,0,0.1
			c0,0,0,0,0.1,0c2.4-0.1,3.6-0.2,3.7-0.2c0,0,0,0,0,0c0,0,0,0,0-0.1C595.7,1953.2,595.4,1952.7,595.1,1952.4z M598.7,1950.7
			c0.1-0.1,0.2-0.1,0.4-0.1c0.1,0,0.3,0,0.4,0.1c0.1,0.1,0.1,0.2,0.1,0.4v7.8c0,0.1,0,0.3-0.1,0.4c-0.1,0.1-0.2,0.1-0.4,0.1
			c-0.1,0-0.3,0-0.4-0.1c-0.1-0.1-0.1-0.2-0.1-0.4v-7.8C598.6,1950.9,598.6,1950.8,598.7,1950.7z M602.3,1949.6
			c0-0.1,0.1-0.3,0.2-0.4c0.1-0.1,0.2-0.1,0.4-0.1s0.3,0,0.4,0.1c0.1,0.1,0.2,0.2,0.2,0.4v12.1c0,0.4-0.1,0.7-0.2,0.9
			c-0.1,0.2-0.3,0.3-0.5,0.4c-0.4,0.1-1.1,0.2-2.1,0.2c-0.2,0-0.3-0.1-0.5-0.2c-0.1-0.1-0.2-0.2-0.3-0.4c0-0.1,0-0.1,0-0.1
			c0-0.1,0-0.2,0.1-0.2c0.1-0.1,0.2-0.2,0.3-0.2c0.6,0,1.2,0,1.8,0c0.1,0,0.2,0,0.3-0.1c0.1-0.1,0.1-0.2,0.1-0.3V1949.6z"/>
		<path class="st1" d="M610.5,1955c0.1,0,0.2,0,0.3,0l0.2,0.1c0.1,0,0.2,0.1,0.2,0.2c0,0.1,0.1,0.2,0,0.3c-0.4,1.4-1,2.6-1.7,3.6
			s-1.6,1.9-2.5,2.6c-0.1,0.1-0.3,0.1-0.4,0.1c-0.2,0-0.3-0.1-0.4-0.2c-0.1-0.1-0.1-0.2-0.1-0.3c0-0.2,0.1-0.3,0.2-0.4
			c0.8-0.6,1.5-1.3,2.2-2.1c0.7-0.8,1.2-1.8,1.5-2.9c0,0,0,0,0-0.1c0,0,0,0-0.1,0h-3.3c-0.1,0-0.3,0-0.4-0.1
			c-0.1-0.1-0.2-0.2-0.2-0.4s0.1-0.3,0.2-0.4c0.1-0.1,0.2-0.2,0.4-0.2H610.5C610.5,1955,610.5,1955,610.5,1955z M618.6,1953.5
			c0.1-0.1,0.3-0.2,0.4-0.2c0.2,0,0.3,0,0.5,0.1c0.1,0.1,0.2,0.2,0.2,0.4c0,0.2,0,0.3-0.2,0.4c-1.3,1.2-2.6,2.2-3.8,3
			c-0.1,0-0.1,0.1,0,0.2c1.1,1.7,2.5,2.9,4.2,3.7c0.1,0.1,0.2,0.1,0.2,0.3c0,0,0,0.1,0,0.1c0,0.1,0,0.2-0.1,0.3
			c-0.1,0.1-0.2,0.2-0.4,0.3s-0.3,0-0.5,0c-2.4-1.2-4.2-3.2-5.4-6c0,0,0,0,0,0c0,0,0,0,0,0v5.9c0,0.3,0,0.6-0.1,0.8
			c-0.1,0.2-0.3,0.3-0.5,0.4c-0.4,0.1-1,0.2-2.1,0.2c-0.2,0-0.3-0.1-0.4-0.2c-0.1-0.1-0.2-0.2-0.3-0.4c0-0.1,0-0.2,0-0.4
			c0.1-0.1,0.2-0.2,0.3-0.1c0.4,0,0.8,0,1.1,0c0.2,0,0.4,0,0.5,0c0.1,0,0.2,0,0.3-0.1c0.1,0,0.1-0.1,0.1-0.3v-8.7
			c0-0.1,0-0.1-0.1-0.1h-3.9c-0.1,0-0.3,0-0.4-0.1c-0.1-0.1-0.2-0.2-0.2-0.4s0.1-0.3,0.2-0.4c0.1-0.1,0.2-0.1,0.4-0.1h4.2
			c0.2,0,0.5,0.1,0.6,0.3c0.2,0.2,0.3,0.4,0.3,0.7v0.1c0,0.1,0,0.2,0,0.2c0.4,1.2,0.8,2.3,1.3,3.2c0,0.1,0.1,0.1,0.2,0
			C616.5,1955.5,617.6,1954.5,618.6,1953.5z M615.6,1950.5c0.1,0.1,0.2,0.2,0.3,0.3c0,0.1,0,0.3,0,0.4c-0.1,0.1-0.2,0.2-0.3,0.3
			c-0.1,0-0.3,0-0.4,0c-1.4-0.7-3.1-1.3-4.9-1.8c-0.1,0-0.2-0.1-0.3-0.2c0-0.1,0-0.2,0-0.3c0.1-0.1,0.2-0.2,0.3-0.3
			c0.1,0,0.2-0.1,0.2-0.1c0.1,0,0.1,0,0.2,0C612.6,1949.3,614.3,1949.8,615.6,1950.5z"/>
		<path class="st1" d="M624.6,1954.9c0.2,0,0.5,0.1,0.6,0.3c0.2,0.2,0.3,0.4,0.3,0.6v4.1c0,0.1,0,0.1,0.1,0.2
			c0.8,1.1,2.1,1.7,4.1,1.8c0.8,0,1.6,0,2.5,0c1.3,0,2.7,0,4.2-0.1c0.1,0,0.2,0,0.3,0.1c0,0.1,0.1,0.1,0.1,0.2c0,0,0,0.1,0,0.1
			c-0.1,0.2-0.1,0.3-0.3,0.4c-0.1,0.1-0.3,0.2-0.4,0.2c-1.4,0-2.6,0.1-3.7,0.1c-1,0-1.8,0-2.6,0c-1.1,0-1.9-0.2-2.7-0.5
			s-1.4-0.7-1.9-1.3c-0.1-0.1-0.1-0.1-0.2,0c-0.6,0.6-1.2,1.1-1.7,1.6c-0.1,0.1-0.2,0.1-0.4,0.1c-0.1,0-0.3-0.1-0.3-0.2
			c-0.1-0.1-0.1-0.3-0.1-0.5s0.1-0.3,0.2-0.4c0.7-0.5,1.2-1,1.7-1.5c0.1-0.1,0.1-0.1,0.1-0.2v-4c0-0.1,0-0.1-0.1-0.1h-1.5
			c-0.1,0-0.3,0-0.4-0.1c-0.1-0.1-0.1-0.2-0.1-0.4s0-0.3,0.1-0.4c0.1-0.1,0.2-0.1,0.4-0.1H624.6z M625.7,1951.2
			c0.1,0.1,0.1,0.3,0.1,0.4c0,0.2-0.1,0.3-0.2,0.4c-0.1,0.1-0.2,0.1-0.4,0.1c-0.1,0-0.3-0.1-0.3-0.2c-0.5-0.6-1.1-1.3-1.9-1.9
			c-0.1-0.1-0.1-0.2-0.1-0.3s0.1-0.2,0.2-0.3c0.1-0.1,0.2-0.1,0.4-0.1h0c0.1,0,0.3,0,0.4,0.1
			C624.5,1949.9,625.2,1950.6,625.7,1951.2z M636.1,1952c0.1,0,0.2,0,0.3,0.1s0.1,0.2,0.1,0.3c0,0.1,0,0.2-0.1,0.3s-0.2,0.1-0.3,0.1
			h-9.4c-0.1,0-0.2,0-0.3-0.1s-0.1-0.2-0.1-0.3c0-0.1,0-0.2,0.1-0.3s0.2-0.1,0.3-0.1h4c0.1,0,0.1,0,0.1-0.1v-1c0-0.1,0-0.1-0.1-0.1
			h-3.1c-0.1,0-0.2,0-0.3-0.1s-0.1-0.2-0.1-0.3c0-0.1,0-0.2,0.1-0.3s0.2-0.1,0.3-0.1h3.1c0.1,0,0.1,0,0.1-0.1v-0.6
			c0-0.1,0-0.3,0.1-0.4c0.1-0.1,0.2-0.1,0.4-0.1s0.3,0,0.4,0.1c0.1,0.1,0.1,0.2,0.1,0.4v0.6c0,0.1,0,0.1,0.1,0.1h3.2
			c0.1,0,0.2,0,0.3,0.1s0.1,0.2,0.1,0.3c0,0.1,0,0.2-0.1,0.3s-0.2,0.1-0.3,0.1H632c-0.1,0-0.1,0-0.1,0.1v1c0,0.1,0,0.1,0.1,0.1
			H636.1z M631.7,1961.1c-0.1,0.1-0.2,0.1-0.4,0.1s-0.3,0-0.4-0.1c-0.1-0.1-0.1-0.2-0.1-0.4v-2.7c0,0,0,0,0,0c0,0,0,0-0.1,0
			c-0.9,0.8-2,1.6-3.3,2.2c-0.1,0.1-0.3,0.1-0.4,0c-0.1,0-0.3-0.1-0.4-0.2c-0.1-0.1-0.1-0.2-0.1-0.3c0-0.1,0.1-0.2,0.2-0.3
			c1.6-0.6,2.8-1.4,3.6-2.3c0,0,0,0,0-0.1c0,0,0,0,0,0h-1.8c-0.2,0-0.5-0.1-0.6-0.3c-0.2-0.2-0.3-0.4-0.3-0.7v-1.4
			c0-0.3,0.1-0.5,0.3-0.7c0.2-0.2,0.4-0.3,0.6-0.3h5.7c0.3,0,0.5,0.1,0.7,0.3c0.2,0.2,0.3,0.4,0.3,0.7v1.4c0,0.3-0.1,0.5-0.3,0.7
			c-0.2,0.2-0.4,0.3-0.7,0.3H632c0,0-0.1,0-0.1,0c0,0,0,0,0,0.1c0.3,0.4,0.7,0.8,1.2,1.3c0.1,0.1,0.1,0.1,0.2,0
			c0.7-0.4,1.3-0.9,1.8-1.3c0.1-0.1,0.3-0.2,0.4-0.2c0.1,0,0.2,0,0.3,0.1c0.1,0.1,0.1,0.2,0.2,0.3c0,0.1,0,0.2-0.1,0.3
			c-0.5,0.4-1.2,0.8-2,1.3c0,0,0,0,0,0.1c0,0,0,0,0,0.1c0.7,0.4,1.4,0.7,2.1,1c0.1,0,0.2,0.1,0.2,0.2s0,0.2-0.1,0.3
			c-0.1,0.1-0.2,0.2-0.4,0.3c-0.1,0.1-0.3,0.1-0.4,0c-1.4-0.5-2.6-1.3-3.6-2.4c0,0,0,0,0,0c0,0,0,0,0,0v2.3
			C631.8,1960.8,631.8,1961,631.7,1961.1z M628.8,1954.5c-0.1,0-0.1,0-0.1,0.1v1.5c0,0.1,0,0.1,0.1,0.1h5.3c0.1,0,0.1,0,0.1-0.1
			v-1.5c0-0.1,0-0.1-0.1-0.1H628.8z"/>
		<path class="st1" d="M641.8,1949.2c0-0.2,0.1-0.3,0.2-0.4c0.1-0.1,0.3-0.1,0.4-0.1s0.3,0.1,0.4,0.2c0.1,0.1,0.1,0.3,0,0.4
			c-0.2,0.7-0.4,1.3-0.6,1.7c0,0,0,0,0,0.1c0,0,0,0,0.1,0h1.7c0.3,0,0.5,0.1,0.7,0.3c0.2,0.2,0.3,0.4,0.3,0.7v8.5
			c0,0.3-0.1,0.5-0.3,0.7c-0.2,0.2-0.4,0.3-0.7,0.3h-3.4c-0.1,0-0.1,0-0.1,0.1v0.7c0,0.1,0,0.2-0.1,0.3c-0.1,0.1-0.2,0.1-0.3,0.1
			c-0.1,0-0.2,0-0.3-0.1c-0.1-0.1-0.1-0.2-0.1-0.3v-10.2c0-0.3,0.1-0.5,0.3-0.7c0.2-0.2,0.4-0.3,0.6-0.3h0.7c0.1,0,0.1,0,0.2-0.1
			C641.5,1950.5,641.7,1949.8,641.8,1949.2z M643.8,1955.6c0.1,0,0.1,0,0.1-0.1v-3.2c0-0.1,0-0.1-0.1-0.1h-3.3c-0.1,0-0.1,0-0.1,0.1
			v3.2c0,0.1,0,0.1,0.1,0.1H643.8z M640.5,1960.4c0,0.1,0,0.1,0.1,0.1h3.3c0.1,0,0.1,0,0.1-0.1v-3.7c0-0.1,0-0.1-0.1-0.1h-3.3
			c-0.1,0-0.1,0-0.1,0.1V1960.4z M651.8,1951.2c0.3,0,0.5,0.1,0.7,0.3c0.2,0.2,0.2,0.4,0.2,0.6c0,2.4-0.1,4.9-0.4,7.6
			c-0.2,1.4-0.4,2.3-0.7,2.7c-0.1,0.2-0.3,0.4-0.5,0.4c-0.2,0.1-0.4,0.1-0.7,0.2c-0.2,0-0.4,0-0.7,0c-0.3,0-0.7,0-1.1,0
			c-0.1,0-0.3-0.1-0.4-0.2c-0.1-0.1-0.2-0.2-0.3-0.4c0-0.1,0-0.2,0-0.3c0.1-0.1,0.2-0.1,0.3-0.1c0.5,0,1.1,0.1,1.8,0.1
			c0.3,0,0.5-0.1,0.7-0.2c0.3-0.3,0.5-1.1,0.6-2.5c0.1-1.4,0.3-3.7,0.4-6.9c0-0.1,0-0.1-0.1-0.1h-4c-0.1,0-0.1,0-0.2,0.1
			c-0.4,0.9-0.8,1.7-1.2,2.3c-0.1,0.1-0.2,0.2-0.3,0.2c-0.1,0-0.3,0-0.4-0.1c-0.1-0.1-0.2-0.2-0.2-0.3c0,0,0-0.1,0-0.1
			c0-0.1,0-0.2,0.1-0.3c0.8-1.3,1.5-2.9,2-4.9c0-0.1,0.1-0.3,0.2-0.3c0.1-0.1,0.2-0.1,0.3-0.1c0,0,0.1,0,0.1,0
			c0.1,0,0.3,0.1,0.3,0.2c0.1,0.1,0.1,0.3,0,0.4c-0.2,0.7-0.4,1.2-0.5,1.8c0,0,0,0,0,0.1c0,0,0,0,0.1,0H651.8z M650,1957.9
			c0,0.1,0.1,0.2,0.1,0.3c0,0.1,0,0.1,0,0.1c0,0.1-0.1,0.3-0.2,0.3c-0.1,0.1-0.2,0.1-0.3,0.1c0,0-0.1,0-0.1,0
			c-0.1,0-0.2-0.1-0.3-0.2c-0.5-0.9-1.1-1.8-1.9-2.9c-0.1-0.1-0.1-0.2-0.1-0.2c0,0,0-0.1,0-0.1c0-0.1,0.1-0.2,0.2-0.3
			c0.1,0,0.2-0.1,0.3-0.1c0,0,0.1,0,0.1,0c0.1,0,0.2,0.1,0.3,0.2C648.8,1956.1,649.5,1957.1,650,1957.9z"/>
		<path class="st1" d="M667.6,1954.7c0.1-0.1,0.3-0.2,0.4-0.2s0.3,0.1,0.4,0.2c0.1,0.1,0.2,0.2,0.2,0.4s-0.1,0.3-0.2,0.3
			c-0.9,0.7-1.8,1.3-2.8,1.9c-0.1,0-0.1,0.1,0,0.2c0.5,0.8,1,1.4,1.6,2c0.6,0.6,1.3,1,2,1.4c0.1,0.1,0.2,0.1,0.2,0.3
			c0,0,0,0.1,0,0.1c0,0.1,0,0.2-0.1,0.3c-0.1,0.1-0.2,0.2-0.4,0.3s-0.3,0-0.5-0.1c-2.6-1.4-4.4-4-5.4-8c0,0,0,0,0,0s0,0,0,0
			c-0.4,0.4-1,0.7-1.6,1.1c-0.1,0-0.1,0.1,0,0.1c0.7,0.6,1.3,1.3,1.7,2.2c0.4,0.8,0.7,1.6,0.8,2.3c0,0.2,0,0.4,0,0.7
			c0,0.5-0.1,0.9-0.2,1.3c-0.2,0.6-0.4,1-0.8,1.3c-0.3,0.2-0.5,0.3-0.8,0.4c-0.2,0.1-0.5,0.1-0.9,0.1c-0.1,0-0.2,0-0.3,0
			c-0.2,0-0.3,0-0.5,0c-0.1,0-0.3-0.1-0.4-0.2c-0.1-0.1-0.2-0.2-0.2-0.4c0-0.1,0-0.2,0.1-0.3s0.2-0.1,0.3-0.1c0.4,0,0.7,0,1,0
			c0.5,0,0.9-0.1,1.1-0.3c0.3-0.2,0.5-0.6,0.6-1.2c0.1-0.2,0.1-0.5,0.1-0.7c0-0.4,0-0.8-0.1-1.2c0,0,0-0.1-0.1-0.1c0,0,0,0-0.1,0
			c-0.8,0.7-1.7,1.3-2.8,1.9c-1.1,0.6-2.2,1.1-3.3,1.5c-0.1,0.1-0.3,0-0.4,0c-0.1-0.1-0.2-0.1-0.3-0.3c0-0.1-0.1-0.1-0.1-0.2
			c0,0,0-0.1,0-0.1c0-0.1,0.1-0.2,0.2-0.2c1.1-0.4,2.3-0.9,3.5-1.5c1.2-0.6,2.1-1.3,2.9-2c0.1-0.1,0.1-0.1,0-0.2
			c-0.1-0.3-0.3-0.6-0.5-0.9c0-0.1-0.1-0.1-0.2,0c-0.6,0.4-1.3,0.9-2.2,1.3c-0.8,0.4-1.6,0.8-2.4,1.1c-0.1,0.1-0.3,0.1-0.4,0
			c-0.1-0.1-0.2-0.1-0.3-0.3c-0.1-0.1-0.1-0.2-0.1-0.3c0-0.1,0.1-0.2,0.2-0.2c0.8-0.3,1.7-0.6,2.5-1c0.9-0.4,1.6-0.8,2.1-1.3
			c0.1-0.1,0.1-0.1,0-0.2c-0.2-0.2-0.4-0.4-0.6-0.6c-0.1-0.1-0.1-0.1-0.2,0c-1,0.5-2.2,1-3.3,1.3c-0.1,0-0.3,0-0.4,0
			c-0.1-0.1-0.3-0.1-0.3-0.3c-0.1-0.1-0.1-0.2,0-0.3c0-0.1,0.1-0.2,0.2-0.2c2.1-0.6,3.8-1.3,5.1-2.1c0,0,0,0,0,0s0,0,0,0h-3
			c-0.1,0-0.2,0-0.3-0.1s-0.1-0.2-0.1-0.3s0-0.2,0.1-0.3c0.1-0.1,0.2-0.1,0.3-0.1h8.1c0.1,0,0.2,0,0.3,0.1c0.1,0.1,0.1,0.2,0.1,0.3
			s0,0.2-0.1,0.3s-0.2,0.1-0.3,0.1H664c0,0-0.1,0-0.1,0c0,0,0,0,0,0.1c0.3,1,0.6,1.8,1,2.6c0,0.1,0.1,0.1,0.2,0
			C666,1955.9,666.8,1955.3,667.6,1954.7z M657,1951.1c-0.1,0-0.1,0-0.1,0.1v1.5c0,0.1,0,0.3-0.1,0.4c-0.1,0.1-0.2,0.1-0.4,0.1
			s-0.3,0-0.4-0.1c-0.1-0.1-0.1-0.2-0.1-0.4v-1.7c0-0.2,0.1-0.5,0.3-0.6c0.2-0.2,0.4-0.3,0.6-0.3h5c0.1,0,0.1,0,0.1-0.1v-0.8
			c0-0.1,0.1-0.3,0.2-0.4c0.1-0.1,0.2-0.2,0.4-0.2s0.3,0.1,0.4,0.2c0.1,0.1,0.2,0.2,0.2,0.4v0.8c0,0.1,0,0.1,0.1,0.1h5.1
			c0.2,0,0.5,0.1,0.6,0.3c0.2,0.2,0.3,0.4,0.3,0.6v1.6c0,0.2-0.1,0.3-0.2,0.4c-0.1,0.1-0.2,0.2-0.4,0.2s-0.3-0.1-0.4-0.2
			c-0.1-0.1-0.2-0.2-0.2-0.4v-1.4c0-0.1,0-0.1-0.1-0.1H657z"/>
	</g>
</g>
</svg>
