<?xml version="1.0" encoding="utf-8"?>
<!-- Generator: Adobe Illustrator 22.0.1, SVG Export Plug-In . SVG Version: 6.00 Build 0)  -->
<svg version="1.1" id="圖層_1" xmlns="http://www.w3.org/2000/svg" xmlns:xlink="http://www.w3.org/1999/xlink" x="0px" y="0px"
	 viewBox="0 0 124 70" style="enable-background:new 0 0 124 70;" xml:space="preserve">
<style type="text/css">
	.st0{enable-background:new    ;}
	.st1{fill:#776871;}
</style>
<g id="project01_text2" transform="translate(-780 -1897)">
	<g class="st0">
		<path class="st1" d="M791.1,1917.8h-5.3v9.2h-3v-22.8h7.5c2.6,0,4.5,0.6,5.9,1.8c1.4,1.2,2.1,2.9,2.1,5.1c0,1.4-0.4,2.7-1.1,3.7
			c-0.8,1.1-1.8,1.8-3.2,2.4l5.3,9.7v0.2H796L791.1,1917.8z M785.7,1915.3h4.6c1.5,0,2.7-0.4,3.6-1.2c0.9-0.8,1.3-1.8,1.3-3.1
			c0-1.4-0.4-2.5-1.3-3.2c-0.8-0.8-2-1.1-3.6-1.1h-4.6V1915.3z"/>
		<path class="st1" d="M819.9,1916.4c0,2.2-0.4,4.2-1.1,5.8c-0.8,1.7-1.8,2.9-3.2,3.8s-3,1.3-4.8,1.3c-1.8,0-3.4-0.4-4.8-1.3
			c-1.4-0.9-2.5-2.1-3.2-3.8c-0.8-1.6-1.2-3.5-1.2-5.7v-1.6c0-2.2,0.4-4.1,1.1-5.8c0.8-1.7,1.8-3,3.2-3.9s3-1.3,4.8-1.3
			c1.8,0,3.4,0.4,4.8,1.3c1.4,0.9,2.5,2.2,3.2,3.8s1.1,3.6,1.1,5.8V1916.4z M816.9,1914.9c0-2.7-0.5-4.8-1.6-6.2
			c-1.1-1.4-2.6-2.2-4.5-2.2c-1.9,0-3.4,0.7-4.5,2.2c-1.1,1.4-1.6,3.4-1.7,6v1.7c0,2.6,0.5,4.7,1.6,6.2c1.1,1.5,2.6,2.2,4.5,2.2
			c1.9,0,3.4-0.7,4.5-2.1c1.1-1.4,1.6-3.4,1.6-6.1V1914.9z"/>
		<path class="st1" d="M824.4,1927v-22.8h7.4c2.5,0,4.3,0.5,5.6,1.5c1.2,1,1.9,2.5,1.9,4.5c0,1.1-0.3,2-0.9,2.8
			c-0.6,0.8-1.4,1.5-2.5,1.9c1.2,0.3,2.2,1,2.9,2c0.7,1,1.1,2.1,1.1,3.4c0,2-0.7,3.6-2,4.8c-1.3,1.2-3.2,1.8-5.6,1.8H824.4z
			 M827.4,1914h4.5c1.3,0,2.4-0.3,3.1-1c0.8-0.7,1.2-1.6,1.2-2.7c0-1.3-0.4-2.2-1.1-2.7c-0.7-0.6-1.8-0.9-3.3-0.9h-4.4V1914z
			 M827.4,1916.4v8.2h5c1.4,0,2.5-0.4,3.3-1.1c0.8-0.7,1.2-1.7,1.2-3c0-2.7-1.5-4.1-4.5-4.1H827.4z"/>
		<path class="st1" d="M861.8,1916.4c0,2.2-0.4,4.2-1.1,5.8c-0.8,1.7-1.8,2.9-3.2,3.8s-3,1.3-4.8,1.3c-1.8,0-3.4-0.4-4.8-1.3
			c-1.4-0.9-2.5-2.1-3.2-3.8c-0.8-1.6-1.2-3.5-1.2-5.7v-1.6c0-2.2,0.4-4.1,1.1-5.8c0.8-1.7,1.8-3,3.2-3.9s3-1.3,4.8-1.3
			c1.8,0,3.4,0.4,4.8,1.3c1.4,0.9,2.5,2.2,3.2,3.8s1.1,3.6,1.1,5.8V1916.4z M858.9,1914.9c0-2.7-0.5-4.8-1.6-6.2
			c-1.1-1.4-2.6-2.2-4.5-2.2c-1.9,0-3.4,0.7-4.5,2.2c-1.1,1.4-1.6,3.4-1.7,6v1.7c0,2.6,0.5,4.7,1.6,6.2c1.1,1.5,2.6,2.2,4.5,2.2
			c1.9,0,3.4-0.7,4.5-2.1c1.1-1.4,1.6-3.4,1.6-6.1V1914.9z"/>
		<path class="st1" d="M881.6,1906.7h-7.3v20.3h-3v-20.3H864v-2.5h17.6V1906.7z"/>
		<path class="st1" d="M902.1,1916.4c0,2.2-0.4,4.2-1.1,5.8c-0.8,1.7-1.8,2.9-3.2,3.8s-3,1.3-4.8,1.3c-1.8,0-3.4-0.4-4.8-1.3
			c-1.4-0.9-2.5-2.1-3.2-3.8c-0.8-1.6-1.2-3.5-1.2-5.7v-1.6c0-2.2,0.4-4.1,1.1-5.8c0.8-1.7,1.8-3,3.2-3.9s3-1.3,4.8-1.3
			c1.8,0,3.4,0.4,4.8,1.3c1.4,0.9,2.5,2.2,3.2,3.8s1.1,3.6,1.1,5.8V1916.4z M899.1,1914.9c0-2.7-0.5-4.8-1.6-6.2
			c-1.1-1.4-2.6-2.2-4.5-2.2c-1.9,0-3.4,0.7-4.5,2.2c-1.1,1.4-1.6,3.4-1.7,6v1.7c0,2.6,0.5,4.7,1.6,6.2c1.1,1.5,2.6,2.2,4.5,2.2
			c1.9,0,3.4-0.7,4.5-2.1c1.1-1.4,1.6-3.4,1.6-6.1V1914.9z"/>
	</g>
	<g class="st0">
		<path class="st1" d="M791.5,1952.9h-3.7v10.1h-1.5v-10.1h-3.6v-1.2h8.8V1952.9z"/>
		<path class="st1" d="M799.3,1960h-4.8l-1.1,3h-1.5l4.3-11.4h1.3l4.4,11.4h-1.5L799.3,1960z M794.9,1958.8h3.9l-1.9-5.3
			L794.9,1958.8z"/>
		<path class="st1" d="M806.7,1957.7l-1.4,1.4v3.8h-1.5v-11.4h1.5v5.6l5.1-5.6h1.8l-4.5,5l4.8,6.4h-1.8L806.7,1957.7z"/>
		<path class="st1" d="M820.7,1957.7h-4.9v4h5.7v1.2h-7.2v-11.4h7.1v1.2h-5.6v3.7h4.9V1957.7z"/>
		<path class="st1" d="M830,1951.6l3.7,9.3l3.7-9.3h1.9v11.4h-1.5v-4.4l0.1-4.8l-3.7,9.2h-1.1l-3.7-9.2l0.1,4.8v4.4h-1.5v-11.4H830z
			"/>
		<path class="st1" d="M848.9,1957.7H844v4h5.7v1.2h-7.2v-11.4h7.1v1.2H844v3.7h4.9V1957.7z"/>
		<path class="st1" d="M865.1,1963h-1.5v-5.3h-5.7v5.3h-1.5v-11.4h1.5v4.9h5.7v-4.9h1.5V1963z"/>
		<path class="st1" d="M876.9,1957.7c0,1.1-0.2,2.1-0.6,2.9s-0.9,1.5-1.6,1.9s-1.5,0.7-2.4,0.7c-0.9,0-1.7-0.2-2.4-0.7
			s-1.2-1.1-1.6-1.9s-0.6-1.8-0.6-2.8v-0.8c0-1.1,0.2-2.1,0.6-2.9s0.9-1.5,1.6-1.9s1.5-0.7,2.4-0.7c0.9,0,1.7,0.2,2.4,0.7
			s1.2,1.1,1.6,1.9s0.6,1.8,0.6,2.9V1957.7z M875.4,1956.9c0-1.3-0.3-2.4-0.8-3.1s-1.3-1.1-2.3-1.1c-0.9,0-1.7,0.4-2.2,1.1
			s-0.8,1.7-0.8,3v0.8c0,1.3,0.3,2.3,0.8,3.1s1.3,1.1,2.3,1.1c1,0,1.7-0.4,2.2-1.1s0.8-1.7,0.8-3V1956.9z"/>
		<path class="st1" d="M881.5,1951.6l3.7,9.3l3.7-9.3h1.9v11.4h-1.5v-4.4l0.1-4.8l-3.7,9.2h-1.1l-3.7-9.2l0.1,4.8v4.4h-1.5v-11.4
			H881.5z"/>
		<path class="st1" d="M900.3,1957.7h-4.9v4h5.7v1.2h-7.2v-11.4h7.1v1.2h-5.6v3.7h4.9V1957.7z"/>
	</g>
</g>
</svg>
