<svg xmlns="http://www.w3.org/2000/svg" width="53.125" height="68.082" viewBox="0 0 53.125 68.082">
  <path id="T_R" d="M481.945,535.278a4.41,4.41,0,0,1-1.629-1.869,11.391,11.391,0,0,1-.863-3.306q-.287-2.107-.479-5.655a15.045,15.045,0,0,0-5.941-12.026,14.2,14.2,0,0,0-2.7-1.614,17.188,17.188,0,0,0,5.1-3.417,18.927,18.927,0,0,0,4.216-6.086,18.539,18.539,0,0,0,1.534-7.523,18.906,18.906,0,0,0-2.54-9.775,18.309,18.309,0,0,0-6.852-6.756,19.29,19.29,0,0,0-9.679-2.443H435.658a3.925,3.925,0,0,0-3.929,3.929v59.223a3.532,3.532,0,0,0,1.342,2.78,4.7,4.7,0,0,0,3.163,1.15,3.194,3.194,0,0,0,2.587-1.15,4.2,4.2,0,0,0,.958-2.78V514.675H460a16.255,16.255,0,0,1,4.121.527,10.149,10.149,0,0,1,3.594,1.725,8.9,8.9,0,0,1,2.588,3.258,11.4,11.4,0,0,1,1.006,5.031,32.364,32.364,0,0,0,.91,8.625,12.414,12.414,0,0,0,2.4,4.84,12.834,12.834,0,0,0,2.923,2.539,5.392,5.392,0,0,0,1.916.623,4.754,4.754,0,0,0,2.109-.191,2.85,2.85,0,0,0,1.629-1.295,3.064,3.064,0,0,0,.527-2.779A4.069,4.069,0,0,0,481.945,535.278Zm-19.837-27.5H439.779V482.283h21.85a10.627,10.627,0,0,1,8,3.354,11.593,11.593,0,0,1,3.21,8.337,15.671,15.671,0,0,1-1.533,7.092,12.626,12.626,0,0,1-3.977,4.792A10.144,10.144,0,0,1,462.107,507.775Z" transform="translate(-431.229 -474.309)" fill="#fef5ef" stroke="#584b53" stroke-linecap="square" stroke-linejoin="bevel" stroke-width="1"/>
</svg>
