<svg xmlns="http://www.w3.org/2000/svg" width="457.257" height="199.789" viewBox="0 0 457.257 199.789">
  <g id="Group_432" data-name="Group 432" transform="translate(0.969 281.323)">
    <g id="Group_430" data-name="Group 430">
      <g id="Group_425" data-name="Group 425">
        <path id="Path_1127" data-name="Path 1127" d="M53.851-271.056c-.427-1.385-.62-3.079-1.74-3.826s-2.766.29-4.151.29a4.472,4.472,0,0,0-3.309.717c-1.12.747-2.37,1.258-3.01,2.75-1.736,4.189-2.284,3.963-4.01,8.155s-2.092,4.042-3.818,8.235-.247,4.8-1.973,9-2.422,3.906-4.148,8.1-1.868,4.134-3.594,8.326-.5,4.7-2.225,8.889-3.493,3.465-5.219,7.657-.482,4.706-2.208,8.9-2.918,3.7-4.645,7.9-.677,4.626-2.4,8.819S5.082-183.2,3.355-179s-1.88,4.14-3.554,8.358a10.879,10.879,0,0,0-.27,2.553c.105,1.495,1.8,2.053,2.756,3.173s1.6,3.126,3.626,3.126c1.172,0,1.994-1.511,3.061-2.312a5.76,5.76,0,0,0,2.374-2.787c1.748-4.36,1.011-4.665,2.8-9.009s3.681-3.569,5.468-7.917-.681-5.627,3.124-8.388c3.4-2.47,3.7-1.789,7.9-1.789s4.207.044,8.414.044,4.209.871,8.418.871S51.679-192,55.887-192s4.21-.168,8.42-.168,4.833-2.962,8.252-.505c3.8,2.73,1.334,4.346,3.13,8.664s2.5,4.027,4.3,8.348,2.513,4.027,4.294,8.355c.532,1.387.141,3.357,1.209,4.155a7.045,7.045,0,0,0,4.1.9c1.6,0,2.906-.986,4.186-2.16s2.938-2.573,2.938-4.493a9.214,9.214,0,0,0-.769-2.8c-1.706-4.157-2.17-3.968-3.889-8.12s-2.683-3.754-4.4-7.906-1.8-4.119-3.524-8.272-1.516-4.236-3.236-8.389-1.7-4.162-3.415-8.314-1.253-4.345-2.972-8.5-.7-4.574-2.421-8.726-2.463-3.845-4.183-8-1.146-4.392-2.867-8.547-2.222-3.945-3.942-8.1-2.682-3.736-4.494-7.853S55.518-266.878,53.851-271.056Zm-26.68,65.823c-2.8-3.365,2.445-3.953,4.107-8s.257-4.626,1.92-8.674,1.773-4.005,3.437-8.054,2.314-3.781,3.977-7.829,2.222-3.822,3.886-7.873-1.559-7.361,2.82-7.366,2.288,2.85,3.972,6.9.99,4.337,2.675,8.385,1.543,4.108,3.228,8.158S60.1-226.051,61.787-222s-.078,4.784,1.607,8.835,7.326,4.722,4.537,8.108c-3.193,3.877-5.418-1.1-10.44-1.1s-5.021,1.135-10.041,1.135-5.22-1.778-10.11-.627C31.958-204.385,30.381-201.368,27.171-205.233Z" fill="#fef5ef" stroke="#584b53" stroke-width="1"/>
      </g>
      <g id="Group_426" data-name="Group 426">
        <path id="Path_1128" data-name="Path 1128" d="M172.122-243.218a36.269,36.269,0,0,0-9.772-3.918,39.218,39.218,0,0,0-10.358-1.4,32.937,32.937,0,0,0-10.69,1.911c-3.36,1.175-6.862,2.422-9.582,4.394s-4.649,4.914-6.514,7.419c-.563.757-.093,1.711-.554,2.482-.253-4.244-.82-4.212-.82-8.464s-.518-4.253-.518-8.507.531-4.252.531-8.5.109-4.255.109-8.509.942-4.255.942-8.51c0-1.813-1.564-3.294-2.736-4.575s-2.648-1.345-4.568-1.345c-1.815,0-3.878-.52-5.1.76s-1.313,3.347-1.313,5.16c0,4.419-.452,4.419-.452,8.837s1,4.419,1,8.839.381,4.42.381,8.84-1.518,4.419-1.518,8.838,1.664,4.419,1.664,8.837-1.176,4.419-1.176,8.837.576,4.419.576,8.838-.169,4.419-.169,8.839.78,4.422.78,8.843-.684,4.42-.684,8.84-.777,4.423-.777,8.846.177,4.423.177,8.846a6.35,6.35,0,0,0,2.217,4.561,5.637,5.637,0,0,0,4.4,1.582c1.92,0,3.6-.1,4.772-1.383s.782-2.946.782-4.76c0-3.562.542-3.57.654-7.129.214.294,1.444-.062,1.673.231,1.92,2.455,3.117,5.833,5.945,7.912s6.521,2.674,9.988,3.9a31.832,31.832,0,0,0,10.906,1.662,35.176,35.176,0,0,0,9.966-.963c3.254-.947,6.975-1.194,9.861-3.109,2.9-1.926,4.5-5.426,6.8-8.057a41.855,41.855,0,0,0,6-8.337,42.411,42.411,0,0,0,3.264-6.986c.734-2.406,2.044-4.835,2.4-7.458.336-2.473-.862-5.16-.862-7.825a55.724,55.724,0,0,0-.526-7.585,45.323,45.323,0,0,0-1.869-7.331c-.764-2.488-.876-5.138-2.052-7.378a41.592,41.592,0,0,0-5.876-8.473C177.112-238.238,175.044-241.351,172.122-243.218Zm1.093,53.977a30.036,30.036,0,0,1-3.586,6.352,25.769,25.769,0,0,1-5.422,4.884,21.825,21.825,0,0,1-6.466,3.175c-2.3.663-4.581.461-7.189.461s-4.977.445-7.3-.221a22.7,22.7,0,0,1-6.494-3.343c-2.092-1.411-4.441-2.436-6.063-4.374a30.429,30.429,0,0,1-4.519-6.145c-1.181-2.472-1.591-5.362-2.163-8.145a41.351,41.351,0,0,1-.7-8.307c0-2.876,1.188-5.415,1.72-7.982.572-2.764.48-5.576,1.67-7.982,1.131-2.29,2.087-4.721,3.66-6.543,1.615-1.87,4.362-2.45,6.443-3.827s3.942-3.035,6.359-3.714a27.337,27.337,0,0,1,7.386-.526c2.6,0,5.2-.651,7.5,0a24.942,24.942,0,0,1,7.089,2.861c2.06,1.383,2.932,4.165,4.552,6.044,1.566,1.817,4.33,2.993,5.484,5.275,1.215,2.4,1.055,5.486,1.641,8.248.545,2.569,1.392,5.269,1.392,8.148a40.539,40.539,0,0,1-1.006,8.345C176.615-193.779,174.421-191.711,173.215-189.241Z" fill="#fef5ef" stroke="#584b53" stroke-width="1"/>
      </g>
      <g id="Group_427" data-name="Group 427">
        <path id="Path_1129" data-name="Path 1129" d="M266.357-242.53c-3.187-1.907-6.864-2.722-10.482-3.655a43.458,43.458,0,0,0-10.924-1.084c-3.83,0-7.657-.747-11.125.156-3.584.933-6.62,3.329-9.818,5.226-3.165,1.878-6.508,3.485-9.011,6.063-2.476,2.55-3.683,6.112-5.513,9.347-1.267,2.24-3.445,4.066-4.275,6.52-.812,2.4-.07,5.2-.466,7.8-.376,2.473-1.831,4.913-1.831,7.572a51.078,51.078,0,0,0,.856,7.72,44.606,44.606,0,0,0,1.664,7.577,41.207,41.207,0,0,0,3.539,6.887,42.4,42.4,0,0,0,6.27,8.818c2.5,2.578,5.633,4.37,8.8,6.247,3.2,1.9,6.285,4.031,9.869,4.964a44.115,44.115,0,0,0,11.043,1.042c3.861,0,7.333-1.246,10.8-2.139,3.619-.932,7.633-.907,10.82-2.814a41.723,41.723,0,0,0,8.465-6.951c2.447-2.548,3.556-6.189,5.359-9.422a40.375,40.375,0,0,0,3.414-6.823c.8-2.4,2.486-4.687,2.875-7.289.37-2.471-.066-5.161-.066-7.817s-.906-5.145-1.276-7.616a44.034,44.034,0,0,0-1.548-7.485,40.769,40.769,0,0,0-3.07-7.012,41.125,41.125,0,0,0-6.469-8.487C271.776-237.765,269.5-240.651,266.357-242.53Zm3.119,53.917c-1.24,2.321-2.149,4.771-3.832,6.609a29.218,29.218,0,0,1-5.779,5.136c-2.2,1.383-5,1.3-7.484,1.976-2.4.657-4.756,2.014-7.43,2.014-2.642,0-5.043-1.127-7.449-1.794-2.451-.68-5.276-.661-7.483-2.034s-3.4-3.962-5.133-5.835c-1.7-1.841-4.312-3.161-5.554-5.488-1.3-2.428-1.091-5.532-1.717-8.332a36.969,36.969,0,0,1-1.156-8.223,37.96,37.96,0,0,1,1.017-8.3,30.363,30.363,0,0,1,2.494-8,29.762,29.762,0,0,1,4.617-6.069,29.13,29.13,0,0,1,5.589-5.263c2.207-1.372,4.852-1.686,7.3-2.366a27.613,27.613,0,0,1,7.471-1.312c2.674,0,5.416-.467,7.819.19,2.486.68,4.189,3.144,6.385,4.527a27.424,27.424,0,0,1,5.813,4.585c1.688,1.829,4.182,3.159,5.425,5.459A31.478,31.478,0,0,1,272.98-213c.576,2.61-.246,5.453-.246,8.418,0,2.935.344,5.658-.241,8.27A30.191,30.191,0,0,1,269.476-188.613Z" fill="#fef5ef" stroke="#584b53" stroke-width="1"/>
      </g>
      <g id="Group_428" data-name="Group 428">
        <path id="Path_1130" data-name="Path 1130" d="M366.869-245.44a5.925,5.925,0,0,0-4.618,1.6,6.684,6.684,0,0,0-2,4.7c0,4.351,1.027,4.351,1.027,8.7s-.164,4.352-.164,8.7-.5,4.351-.5,8.7.152,4.354.152,8.707-.155,4.354-.155,8.707c0,3.311-.018,6.407-.8,8.984a18.628,18.628,0,0,1-4.722,7.716,18.415,18.415,0,0,1-7.52,4.261,28.368,28.368,0,0,1-8.54.874c-3.135,0-6.059.186-8.544-.627-2.842-.928-4.561-3.318-6.552-5.311-2.031-2.029-4.078-4-5-7.07a31.183,31.183,0,0,1-.824-8.827c0-4.35.195-4.35.195-8.7s.037-4.352.037-8.7-.01-4.35-.01-8.7-.934-4.353-.934-8.707.148-4.353.148-8.707c0-1.919-.281-3.586-1.453-4.813a6.281,6.281,0,0,0-4.738-1.73,6.145,6.145,0,0,0-4.536,1.848c-1.228,1.228-2.494,2.776-2.494,4.695,0,4.351-.107,4.351-.107,8.7s1.372,4.352,1.372,8.7-.194,4.351-.194,8.7-.485,4.354-.485,8.707-.1,4.354-.1,8.707a47.619,47.619,0,0,0,.855,9.094c.614,3.153,2.243,5.726,3.549,8.323,1.389,2.762,2.483,5.619,4.654,7.752a28.565,28.565,0,0,0,7.535,5.062c2.6,1.284,5.607,1.469,8.742,2.075,2.8.541,5.662,1.9,8.889,1.9,3.247,0,6.151-1.229,8.968-1.767,3.16-.6,6.323-.577,8.941-1.858a28.606,28.606,0,0,0,7.312-5.524c2.171-2.133,4.678-4.226,6.067-6.989,1.305-2.6,1.414-5.867,2.029-9.02a47.54,47.54,0,0,0,.683-9.053c0-4.35.865-4.35.865-8.7s.175-4.352.175-8.7-1.111-4.35-1.111-8.7-.015-4.353-.015-8.707.266-4.353.266-8.707A6.773,6.773,0,0,0,371.653-244C370.477-245.226,368.789-245.44,366.869-245.44Z" fill="#fef5ef" stroke="#584b53" stroke-width="1"/>
      </g>
      <g id="Group_429" data-name="Group 429">
        <path id="Path_1131" data-name="Path 1131" d="M431.35-233.487c1.7,0,3.649.072,4.77-1.048s.744-3.01.744-4.61c0-1.705.187-3.47-.932-4.646a6.443,6.443,0,0,0-4.582-1.81c-3.641,0-3.641-.278-7.281-.278s-5.443,3.936-7.961,1.307c-2.629-2.744,1.563-4.452,1.563-8.252s-.965-3.8-.965-7.6c0-1.812.217-4.021-.956-5.3s-3.388-.929-5.2-.929-3.568.1-4.848,1.382-1.4,3.036-1.4,4.848c0,3.8-.763,3.8-.763,7.6s3.984,5.989.933,8.253c-4.112,3.052-5.606.1-10.726.1a4.951,4.951,0,0,0-3.87,1.335c-1.227,1.121-1.426,2.13-1.426,3.835,0,1.6.04,2.768,1.268,3.94a5.138,5.138,0,0,0,4.028,1.4c5.12,0,6.288-2.67,10.238.588,3.258,2.689.815,4.222.815,8.446s-.474,4.226-.474,8.452-1.154,4.227-1.154,8.454.561,4.226.561,8.451.329,4.229.329,8.458-.621,4.228-.621,8.457a24.549,24.549,0,0,0,2.6,11.494,12.887,12.887,0,0,0,5.73,5.3,16.093,16.093,0,0,0,6.241,2.282c2.185.215,4,1,5.493,1,2.772,0,5.8-.18,8.042-1.515s1.986-3.838,1.986-5.758c0-1.6.319-2.836-.586-3.851a3.65,3.65,0,0,0-2.883-1.388c-1.067,0-1.594.853-2.394,1.226S425.534-175,424.47-175c-1.176,0-2.7,1.409-3.928.929s-1.07-2.671-1.816-3.952-2.339-2.723-2.339-5.284c0-4.171.317-4.171.317-8.342s.644-4.172.644-8.345-.384-4.173-.384-8.347.3-4.172.3-8.345-1.049-4.175-1.049-8.35-1.941-5.005.8-8.152c2.392-2.744,3.417.369,7.057.335S427.709-233.487,431.35-233.487Z" fill="#fef5ef" stroke="#584b53" stroke-width="1"/>
      </g>
    </g>
    <path id="Path_1132" data-name="Path 1132" d="M453.83-84.183c-2.181,2.155-1.9.176-4.963.176s-3.064,1.09-6.129,1.09-3.063,1.383-6.127,1.383-3.065-.822-6.13-.822-3.066-.068-6.132-.068-3.064-1.535-6.129-1.535-3.065.729-6.13.729-3.066,1.352-6.133,1.352-3.065-1.681-6.13-1.681-3.066-.02-6.132-.02-3.066-.686-6.132-.686-3.066,2.715-6.132,2.715-3.066-.882-6.132-.882-3.067-.257-6.134-.257-3.066-1.883-6.132-1.883-3.067.587-6.134.587-3.067,2.307-6.135,2.307S347.7-82.91,344.63-82.91s-3.067-.891-6.134-.891-3.067-.64-6.135-.64-3.064.033-6.129.033-3.066.242-6.132.242-3.068,2-6.135,2S310.9-83.6,307.83-83.6s-3.068,1.628-6.135,1.628-3.069-.527-6.137-.527-3.067-1.016-6.133-1.016-3.07.241-6.139.241-3.072,1.21-6.143,1.21-2.862.113-5.05-2.043c-2.156-2.126-1.583-1.919-1.583-4.947s1.706-3.026,1.706-6.053.336-3.029.336-6.058-1.139-3.031-1.139-6.062-3.024-4.392-.868-6.523c2.181-2.156,3.521-1.2,6.588-1.2s3.064,2.294,6.129,2.294,3.063-1.5,6.127-1.5,3.065,2.31,6.13,2.31,3.066-1.525,6.132-1.525,3.064,1.745,6.129,1.745,3.065-.691,6.13-.691,3.066-2.331,6.133-2.331,3.065,1.166,6.13,1.166,3.066-1.057,6.132-1.057,3.066,2.3,6.132,2.3,3.066-2.853,6.132-2.853,3.066.935,6.132.935,3.067,1.677,6.134,1.677,3.066.674,6.132.674S366.034-114,369.1-114s3.067-.105,6.135-.105,3.067,1.489,6.134,1.489,3.067-.478,6.134-.478,3.067-1.07,6.135-1.07,3.064.317,6.129.317,3.066,1.33,6.132,1.33,3.068.312,6.135.312S415.1-113,418.17-113s3.068-.655,6.135-.655,3.069,1.26,6.137,1.26,3.067-1.436,6.133-1.436,3.07,1.913,6.139,1.913,3.072-2,6.143-2,4.6-2.181,6.784-.024c2.156,2.126-2.194,3.678-2.194,6.706s2.841,3.026,2.841,6.052-2.832,3.03-2.832,6.059,1.773,2.986,2.11,6C455.86-86.5,455.986-86.314,453.83-84.183Z" fill="#e4bb97"/>
    <g id="Group_431" data-name="Group 431">
      <path id="Path_1133" data-name="Path 1133" d="M329.9-109.077c0,2.16.673,4.273.673,6.53a12.87,12.87,0,0,1-.1,2.353c-.241,1.105-2.209,6.1-3.121,6.483a15.544,15.544,0,0,1-6.29,1.1c-2.306,0-1.2-5.427-3.314-5.859a8.149,8.149,0,0,0-1.1-.048c-.433,0-1.345-.144-1.681.288-.817,1.057.384,5.33-1.345,5.33-3.889,0-3.7-1.248-3.7-4.754,0-1.632.432-3.217.432-4.85,0-1.584-.289-3.169-.432-4.753l-.24-.241a1.335,1.335,0,0,0-.433.048.868.868,0,0,0-.479.528c-.673,1.825-.1,6.1-1.154,8.5-.816,1.873-2.833,3.361-4.321,4.706-.384.336-1.345,1.152-1.873,1.152-.72,0-2.4-2.833-2.4-3.505,0-.816,2.785-1.777,3.409-2.4-3.314-1.1-4.706,1.537-4.706-3.649,0-.913,0-3.986,1.152-3.986,4.178,0,2.065,1.345,3.169,3.841l.289.193.479.047.529-.047.24-.288c.288-1.2,0-4.178.912-4.851a15.65,15.65,0,0,0,1.489-.96c-2.834.624-5.09,1.393-8.019,1.393a1.261,1.261,0,0,1-.576-.145,7.882,7.882,0,0,1-.481-2.688c0-1.585,2.5-1.3,2.785-2.306-.288-1.2-2.64-2.881-2.64-3.889,0-.144.143-.288.288-.384,1.728-1.2,2.209-.72,3.264-2.881l-.143-.289a18.568,18.568,0,0,0-3.7-.432c-1.826,0-.913,3.89-.913,4.8,0,4.274-.672,8.548-.672,12.821,0,2.017.624,4.034.624,6,0,4.13,0,4.369-4.081,4.369-3.651,0-3.074-.383-3.074-3.937,0-3.505.672-7.2.672-11,0-1.3-.336-2.592-.432-3.889-.1-1.633.049-3.217.049-4.8v-10.948c0-2.5-.241-4.947-.241-7.443,0-.672-.144-2.353.817-2.353,1.728,0,3.409.528,5.185.528,3.026,0,5.954-.672,8.932-.672.816,0,3.458.1,3.937.72.529.72.673,4.37.673,5.282,0,1.729-.432,3.409-.432,5.09,0,1.393.383,2.737.383,4.13,0,1.681-1.392,1.056-2.688,1.249-.145.144-.048.383,0,.527a14.552,14.552,0,0,1-1.488,2.594c.288-.433.624-.817.912-.865,1.248.192,2.593,1.249,3.745,1.249,1.585,0,3.506-1.873,3.794-3.361a13.951,13.951,0,0,0-1.489.144c-.48,0-.384-.769-.384-1.057,0-4.418.192-8.883.192-13.3,0-.481-.1-1.345.24-1.729.48-.528,3.7-.528,4.466-.528,3.362,0,6.723.1,10.084.144,4.85.048,4.657-.24,4.657,4.417v4.947c0,2.545-.336,5.09-.336,7.634Zm-34.477-16.711a1.206,1.206,0,0,0-.288.672c.191.336,4.994.529,5.714.529a1.493,1.493,0,0,0,.624-.144,1.017,1.017,0,0,0-.192-.481,27.921,27.921,0,0,0-5.474-.72Zm6.05-4.85a.682.682,0,0,0-.1-.288c-.48-.385-3.842-.48-4.609-.48H295.9l-.239.192a1.351,1.351,0,0,0,.288.72c.384.384,3.793.432,4.466.384l.816-.048.24-.144Zm1.68,15.126c.1-.144.241-.336.385-.528Zm5.331,2.929a8.868,8.868,0,0,0,.913,1.777c.624-.192,2.209-1.056,2.3-1.777-.384-.672-2.593-2.5-3.361-2.5-.672,0-2.5,2.017-2.93,2.545.769.048,1.537-.384,2.306-.384a1.332,1.332,0,0,1,.432.048Zm14.886,1.681c0-1.3-.192-2.593-.192-3.842,0-1.488.576-2.785.576-4.225,0-1.153-4.514-.913-5.33-.913-.192,0-1.2-.1-1.3.1l.24.144.193.241c-.1.768-2.065,3.217-2.593,3.937.528-.528,1.488-2.016,2.352-2.016.529,0,2.45.624,2.642,1.2-.192.768-1.969,2.689-2.5,3.5h.144c.576,0,1.2-.24,1.777-.24.96,0,2.4,4.274,2.5,5.138-.336.432-1.056.192-1.488.192h-1.921c-2.3,0-3.841.721-6.435.48,4.418.529,2.209.961,2.978,4.9l.336.288a2.683,2.683,0,0,0,.624.049,2.009,2.009,0,0,0,.768-.144c.193-.817-.336-3.746.865-3.746h1.3c2.641,0,3.026,3.073,4.514,5.042a2.952,2.952,0,0,0,.048-.672c0-1.3-.336-2.545-.336-3.842,0-1.2.24-2.353.24-3.553Zm-6.194-19.352c.239.384,2.5.336,2.976.336h1.969a1.867,1.867,0,0,0,1.249-.288v-.336a.682.682,0,0,0-.1-.288c-.577-.432-3.986-.576-4.8-.576-.384,0-.912-.049-1.2.24a3.241,3.241,0,0,0-.1.672Zm3.649,5.858a6.561,6.561,0,0,0,2.593-.335,2,2,0,0,0,.144-.769c0-.72-.672-.576-1.2-.576a46.064,46.064,0,0,0-4.609.192.833.833,0,0,0-.48.912v.241c.24.335,1.968.335,2.449.335Z" fill="#fef5ef" stroke="#584b53" stroke-width="1"/>
      <path id="Path_1134" data-name="Path 1134" d="M362.173-124.924c1.152-2.016,4.273-7.443,4.754-9.6.191-.816.624-2.737,1.3-3.217.72-.48,4.37-.576,5.379-.576a1.769,1.769,0,0,1,1.872,1.009c.72,1.3,1.008,2.784,1.68,4.129a56.136,56.136,0,0,0,4.851,7.251c.384.528,2.929,3.073,2.929,3.5,0,.336-2.3,6.147-2.593,6.675a.514.514,0,0,1-.433.336c-1.392,0-7.827-8.883-8.547-10.66-.48-1.105-.48-2.641-1.1-3.6-.673,1.249-1.009,2.641-1.633,3.89a16.519,16.519,0,0,1-2.4,3.073c-1.921,2.161-2.209,3.7-4.754,5.859a11.247,11.247,0,0,1-1.777,1.392c-.72-.144-.912-.528-1.44-.96a.263.263,0,0,0-.288.192,70.048,70.048,0,0,0-.721,7.635c0,1.728.384,3.41.384,5.138,0,1.873-.96,7.731-1.44,8.547-2.593,1.729-4.226,2.5-7.491,2.5-1.68,0-1.969-4.177-2.785-5.33a.6.6,0,0,0-.385.192c-1.152,1.345-1.921,4.658-4.081,5.282a52.591,52.591,0,0,1-4.226-4.9c0-.192,2.737-5.715,3.073-6.867.577-2.113,1.969-7.395,1.969-9.412,0-1.345-.336-2.641-.432-3.986-.1-1.776,0-3.553,0-5.33,0-2.257-2.545-.528-3.361-1.729a23.168,23.168,0,0,1-.721-4.945c0-2.306,5.139-.817,6.243-2.162,1.344-1.584-.864-6.53,2.113-6.53,1.1,0,4.562.048,5.377.768,1.1,1.008-.239,6.579,1.2,6.579,1.632,0,3.264-.432,4.9-.432,2.209,0,1.009,6.1,2.066,6.627Zm-8.884,11.861c-.192-.576-1.3-.864-1.825-.96-.48.048-.624.576-.72,1.008-.673,2.977-2.4,10.612-2.4,13.3a2.467,2.467,0,0,0,.1.576.889.889,0,0,0,.625.192,13.248,13.248,0,0,0,3.122-.336c1.056-.481,1.585-5.762,1.585-6.915A51.385,51.385,0,0,0,353.289-113.063ZM356.41-124.3c-.864,0-1.776.1-2.64.144-2.93.1-3.074.48-3.074,3.5,0,.576.288.817.865.817a16.635,16.635,0,0,0,3.793-.241c1.392-.384,4.8-2.737,5.474-3.986A19.362,19.362,0,0,0,356.41-124.3ZM370.576-106c1.536.768,11.717,6.579,11.717,7.683,0,.72-3.746,5.618-4.851,6.05-.479-.047-6-4.513-7.251-5.234s-7.827-3.745-7.827-4.8c0-.96,3.362-4.9,4.37-4.9A16.9,16.9,0,0,1,370.576-106Zm8.163-6.243c0,.865-3.985,4.322-4.8,4.322a.934.934,0,0,1-.768-.384c-2.3-2.5-1.633-2.737-4.85-5.282-.48-.384-1.921-1.345-1.921-1.969,0-.864,3.505-3.746,4.418-3.746C372.16-119.306,378.739-113.591,378.739-112.247Z" fill="#fef5ef" stroke="#584b53" stroke-width="1"/>
      <path id="Path_1135" data-name="Path 1135" d="M426.334-111.718c.673,0,1.777-4.178,3.458-4.178.864,0,5.378,1.633,5.378,2.5,0,1.249-6.675,9.6-6.675,9.94,0,.768,2.017,3.458,2.593,4.034l.24-.049c.672-1.152,1.441-7.154,2.257-7.154,1.057,0,4.9,3.745,4.9,4.946,0,1.92-2.785,7.3-4.37,8.451a12.989,12.989,0,0,1-3.265,1.057,5.394,5.394,0,0,1-2.5-1.009,12.512,12.512,0,0,1-2.161-1.344c-.864-.721-3.025-3.938-3.889-3.938-.529,0-5.667,3.889-7.587,4.37a1.752,1.752,0,0,1-.528-.24c-.673-.48-1.105-1.537-1.73-2.113a14.794,14.794,0,0,1-2.641-2.5c1.009-2.017,10.18-4.082,10.18-6.675a19.326,19.326,0,0,0-.815-3.745c-.288-1.393-.529-2.834-.769-4.226-.1-.768.048-4.13-1.392-4.13-1.153,0-2.305.192-3.458.241-.289,0-4.85-.481-4.85.815,0,.769,0,2.834,1.057,2.834,1.536,0,3.073-.769,4.609-.769,1.489,0,1.633,4.034,1.633,5.186,0,2.065-6.05,1.441-6.483,2.4-1.248,2.69,1.2,10.709-4.418,13.542a9.164,9.164,0,0,1-3.793,1.3c-.768,0-3.649-.144-4.177-.529a1.66,1.66,0,0,1-.385-.432c-.72-1.392-1.008-3.025-1.776-4.466a3.784,3.784,0,0,1-.624-1.344c0-1.3,6.146-1.009,7.346-1.873.624-.432.481-1.489.481-2.161,0-.816.1-2.208-1.057-2.208-2.161,0-4.322.624-6.435.624-1.3,0-2.209-4.754-2.209-5.859,0-1.584,9.364-.48,9.364-3.073,0-2.689.385-4.274-2.448-4.274-.817,0-5.09.048-5.523-.72-.336-.576-.433-4.082-.433-4.9,0-.529.1-1.3.817-1.3,1.1,0,2.257.192,3.361.192,3.6,0,4.466.193,4.466-3.745,0-.528-.336-.721-.816-.721-1.632,0-3.265.673-4.9.673a1.464,1.464,0,0,1-.768-.144c-.624-.336-1.969-4.082-1.969-4.85,0-1.009,2.833-.768,3.6-.768,1.873,0,4.226-1.153,6-1.729a36.106,36.106,0,0,1,4.37-1.009,21.268,21.268,0,0,1,3.506-.48c1.344,0,4.946,4.466,5.234,5.763-1.489.624-6.2.576-7.011,2.256a13.665,13.665,0,0,0-.336,3.17,4.151,4.151,0,0,0,.192,1.345c.384.527,3.65.576,4.418.576.72,0,3.41.384,3.41-.961v-8.067c0-1.1-.481-2.209-.481-3.265a2.393,2.393,0,0,1,.1-.576l.48-.193h1.057c.48,0,5.522,0,5.763.24a.845.845,0,0,1,.191.577c0,1.776-.384,3.553-.384,5.378,0,.816,0,5.33.672,6,.528.528,7.06.672,8.02.672,1.152,0,2.256-.432,3.409-.432s.72,2.689.72,3.073c0,.865.144,2.209-.384,2.93-.576.768-4.993.96-6,.96-1.729,0-4.418-.864-4.418,1.441a19.008,19.008,0,0,0,.528,4.658Zm-.48-21.225c0-.816,3.073-2.977,3.841-2.977,1.441,0,6.435,5.33,6.435,6.818,0,.817-3.505,3.6-4.321,3.6C430.9-125.5,425.854-132.079,425.854-132.943Z" fill="#fef5ef" stroke="#584b53" stroke-width="1"/>
    </g>
  </g>
</svg>
