<svg xmlns="http://www.w3.org/2000/svg" width="89.202" height="90.57" viewBox="0 0 89.202 90.57">
  <g id="Group_448" data-name="Group 448" transform="matrix(-0.819, 0.574, -0.574, -0.819, 3440.733, 940.289)">
    <path id="Path_1154" data-name="Path 1154" d="M2442.915,2753.431a10.521,10.521,0,0,0-1.573-.335c-.468-.07-1-.286-1.609-.35-.511-.053-1.06-.131-1.637-.164-.53-.031-1.083-.041-1.645-.043-.542,0-1.082.229-1.631.263s-1.118-.15-1.654-.071a13.6,13.6,0,0,0-1.6.4,8.823,8.823,0,0,0-1.441.77c-.511.243-1.137.251-1.541.6-.38.326-.534.888-.875,1.281s-.876.6-1.164,1.032a13.66,13.66,0,0,0-.7,1.374,14.147,14.147,0,0,0-.843,1.32,14.6,14.6,0,0,0-.194,1.559,22.133,22.133,0,0,1-.6,3.028,11.661,11.661,0,0,0,.05,1.562c.068.505.5.949.639,1.443a10.052,10.052,0,0,0,.531,1.426,9.463,9.463,0,0,0,.677,1.37,9.182,9.182,0,0,0,.906,1.246,9.48,9.48,0,0,0,1.124,1.07,10.428,10.428,0,0,0,1.4.662,11.349,11.349,0,0,0,1.417.559c.48.18.871.667,1.368.789a15.7,15.7,0,0,0,1.571-.01c.512.071,1,.348,1.511.37s1.031-.317,1.532-.341c.53-.025,1.093.3,1.635.253s1.016-.508,1.549-.594,1.13.165,1.65.025a12.286,12.286,0,0,0,1.511-.6,10.05,10.05,0,0,0,1.464-.7,8.537,8.537,0,0,0,1.084-.977,9.267,9.267,0,0,0,1.044-1.009,10.7,10.7,0,0,0,.7-1.271,11.5,11.5,0,0,0,.87-1.183,12.668,12.668,0,0,0,.42-1.4,11.582,11.582,0,0,0,.128-1.614c.084-.536.586-1.035.6-1.571a12.466,12.466,0,0,0-.132-1.639c-.063-.539-.523-1-.655-1.522a11.821,11.821,0,0,0-.395-1.552,12.692,12.692,0,0,0-.428-1.6,10.925,10.925,0,0,0-1.078-1.248,9.656,9.656,0,0,0-1.261-1.02,8.6,8.6,0,0,0-1.245-1A7.823,7.823,0,0,0,2442.915,2753.431Z" transform="translate(-159.283 -95.444)" fill="#af886a"/>
    <path id="Path_1155" data-name="Path 1155" d="M2304.528,2753.431a10.54,10.54,0,0,0-1.573-.335c-.469-.07-1-.286-1.609-.35-.511-.053-1.06-.131-1.636-.164-.53-.031-1.084-.041-1.645-.043-.542,0-1.082.229-1.632.263s-1.117-.15-1.655-.071a13.647,13.647,0,0,0-1.6.4,8.833,8.833,0,0,0-1.441.77c-.51.243-1.136.251-1.541.6-.38.326-.533.888-.875,1.281s-.876.6-1.164,1.032a13.455,13.455,0,0,0-.7,1.374,14.052,14.052,0,0,0-.844,1.32,14.658,14.658,0,0,0-.194,1.559,12.965,12.965,0,0,0-.246,1.508,12.641,12.641,0,0,0-.357,1.52,11.7,11.7,0,0,0,.049,1.562c.068.505.5.949.639,1.443a10.083,10.083,0,0,0,.531,1.426,9.363,9.363,0,0,0,.677,1.37,9.141,9.141,0,0,0,.906,1.246,9.552,9.552,0,0,0,1.123,1.07,10.392,10.392,0,0,0,1.4.662,11.309,11.309,0,0,0,1.416.559c.48.18.871.667,1.368.789a15.71,15.71,0,0,0,1.572-.01c.512.071,1,.348,1.511.37s1.031-.317,1.532-.341c.531-.025,1.093.3,1.635.253s1.016-.508,1.549-.594,1.131.165,1.651.025a12.317,12.317,0,0,0,1.511-.6,10,10,0,0,0,1.464-.7,8.543,8.543,0,0,0,1.085-.977,9.4,9.4,0,0,0,1.045-1.009,10.8,10.8,0,0,0,.7-1.271,11.6,11.6,0,0,0,.869-1.183,12.512,12.512,0,0,0,.42-1.4,11.582,11.582,0,0,0,.128-1.614c.084-.536.586-1.035.6-1.571a12.509,12.509,0,0,0-.133-1.639c-.062-.539-.522-1-.655-1.522a11.745,11.745,0,0,0-.395-1.552,12.568,12.568,0,0,0-.427-1.6,10.972,10.972,0,0,0-1.078-1.248,9.721,9.721,0,0,0-1.261-1.02,8.594,8.594,0,0,0-1.246-1A7.81,7.81,0,0,0,2304.528,2753.431Z" transform="translate(-51.198 -95.444)" fill="#af886a"/>
    <path id="Path_1156" data-name="Path 1156" d="M2373.317,2631.229a10.581,10.581,0,0,0-1.573-.336c-.469-.07-1-.285-1.609-.349-.51-.053-1.06-.131-1.636-.164-.53-.031-1.083-.041-1.645-.044-.542,0-1.082.229-1.631.263s-1.117-.15-1.654-.07a13.615,13.615,0,0,0-1.6.4,8.831,8.831,0,0,0-1.441.77c-.51.243-1.137.251-1.541.6-.38.327-.533.887-.875,1.281s-.876.6-1.165,1.031a13.533,13.533,0,0,0-.7,1.375,14.138,14.138,0,0,0-.844,1.32,14.674,14.674,0,0,0-.194,1.559,12.87,12.87,0,0,0-.246,1.508,12.689,12.689,0,0,0-.357,1.521,11.733,11.733,0,0,0,.049,1.562c.068.506.5.949.639,1.443a10.1,10.1,0,0,0,.531,1.426,9.4,9.4,0,0,0,.676,1.37,9.17,9.17,0,0,0,.906,1.246,9.572,9.572,0,0,0,1.123,1.07,10.343,10.343,0,0,0,1.4.661,11.254,11.254,0,0,0,1.416.559c.48.18.871.667,1.368.789a15.633,15.633,0,0,0,1.572-.011c.512.071,1,.348,1.511.37s1.031-.317,1.532-.341c.531-.025,1.093.3,1.635.253s1.016-.508,1.549-.595,1.131.165,1.651.025a12.315,12.315,0,0,0,1.511-.6,10,10,0,0,0,1.464-.7,8.524,8.524,0,0,0,1.085-.977,9.431,9.431,0,0,0,1.045-1.008,10.872,10.872,0,0,0,.7-1.272,11.564,11.564,0,0,0,.868-1.183,12.524,12.524,0,0,0,.421-1.4,11.556,11.556,0,0,0,.128-1.614c.084-.537.586-1.036.6-1.571a12.432,12.432,0,0,0-.133-1.639c-.062-.539-.522-1-.654-1.522a11.755,11.755,0,0,0-.395-1.553,12.587,12.587,0,0,0-.428-1.6,10.948,10.948,0,0,0-1.078-1.248,9.719,9.719,0,0,0-1.26-1.02,8.607,8.607,0,0,0-1.246-1A7.807,7.807,0,0,0,2373.317,2631.229Z" transform="translate(-104.925 0)" fill="#af886a"/>
    <path id="Path_1157" data-name="Path 1157" d="M2386.266,2860.256a10.573,10.573,0,0,0-1.573-.336c-.469-.07-1-.285-1.61-.349-.51-.054-1.06-.13-1.636-.165-.53-.031-1.084-.041-1.645-.043-.542,0-1.082.229-1.632.263s-1.117-.15-1.654-.07a13.507,13.507,0,0,0-1.6.4,8.89,8.89,0,0,0-1.441.77c-.51.243-1.136.25-1.541.6-.38.327-.533.888-.875,1.281s-.876.6-1.164,1.032a13.479,13.479,0,0,0-.7,1.374,14.112,14.112,0,0,0-.844,1.32,14.652,14.652,0,0,0-.194,1.559,12.919,12.919,0,0,0-.246,1.508,12.712,12.712,0,0,0-.357,1.52,11.737,11.737,0,0,0,.049,1.562c.068.506.5.95.639,1.443a10.142,10.142,0,0,0,.531,1.427,9.437,9.437,0,0,0,.677,1.37,9.2,9.2,0,0,0,.906,1.246,9.576,9.576,0,0,0,1.123,1.07,10.457,10.457,0,0,0,1.4.661,11.393,11.393,0,0,0,1.416.56c.48.179.871.667,1.368.788a15.488,15.488,0,0,0,1.572-.01c.512.071,1,.348,1.511.37s1.031-.317,1.532-.341c.531-.024,1.093.3,1.635.254s1.016-.508,1.549-.6,1.131.166,1.651.025a12.283,12.283,0,0,0,1.511-.6,10.075,10.075,0,0,0,1.464-.7,8.469,8.469,0,0,0,1.085-.977,9.349,9.349,0,0,0,1.045-1.008,10.825,10.825,0,0,0,.7-1.271,11.647,11.647,0,0,0,.869-1.183,12.532,12.532,0,0,0,.42-1.4,11.364,11.364,0,0,0,.128-1.613c.085-.537.586-1.036.6-1.571a12.471,12.471,0,0,0-.133-1.64c-.062-.539-.522-1-.654-1.522a11.752,11.752,0,0,0-.4-1.553,12.631,12.631,0,0,0-.427-1.6,11.02,11.02,0,0,0-1.078-1.248,9.641,9.641,0,0,0-1.261-1.02,8.55,8.55,0,0,0-1.246-1A7.8,7.8,0,0,0,2386.266,2860.256Z" transform="translate(-115.038 -178.878)" fill="#af886a"/>
    <path id="Path_1158" data-name="Path 1158" d="M2523.844,2860.256a10.573,10.573,0,0,0-1.573-.336c-.469-.07-1-.285-1.609-.349-.51-.054-1.06-.13-1.636-.165-.53-.031-1.083-.041-1.645-.043-.542,0-1.082.229-1.631.263s-1.117-.15-1.654-.07a13.507,13.507,0,0,0-1.6.4,8.88,8.88,0,0,0-1.441.77c-.51.243-1.137.25-1.541.6-.38.327-.533.888-.875,1.281s-.875.6-1.164,1.032a13.578,13.578,0,0,0-.7,1.374,14.112,14.112,0,0,0-.844,1.32,14.715,14.715,0,0,0-.194,1.559,22.236,22.236,0,0,1-.6,3.028,11.82,11.82,0,0,0,.049,1.562c.068.506.5.95.639,1.443a10.264,10.264,0,0,0,.531,1.427,9.488,9.488,0,0,0,.677,1.37,9.225,9.225,0,0,0,.906,1.246,9.615,9.615,0,0,0,1.123,1.07,10.429,10.429,0,0,0,1.4.661,11.393,11.393,0,0,0,1.416.56c.48.179.871.667,1.368.788a15.493,15.493,0,0,0,1.572-.01c.512.071,1,.348,1.511.37s1.031-.317,1.532-.341c.53-.024,1.093.3,1.635.254s1.016-.508,1.549-.6,1.13.166,1.65.025a12.252,12.252,0,0,0,1.511-.6,10.08,10.08,0,0,0,1.464-.7,8.483,8.483,0,0,0,1.085-.977,9.368,9.368,0,0,0,1.044-1.008,10.79,10.79,0,0,0,.7-1.271,11.574,11.574,0,0,0,.869-1.183,12.481,12.481,0,0,0,.42-1.4,11.436,11.436,0,0,0,.128-1.613c.085-.537.586-1.036.6-1.571a12.388,12.388,0,0,0-.133-1.64c-.062-.539-.522-1-.654-1.522a11.713,11.713,0,0,0-.395-1.553,12.551,12.551,0,0,0-.428-1.6,10.894,10.894,0,0,0-1.078-1.248,9.625,9.625,0,0,0-1.261-1.02,8.55,8.55,0,0,0-1.246-1A7.786,7.786,0,0,0,2523.844,2860.256Z" transform="translate(-222.492 -178.878)" fill="#af886a"/>
    <path id="Path_1159" data-name="Path 1159" d="M2238.976,2860.256a10.554,10.554,0,0,0-1.573-.336c-.469-.07-1-.285-1.609-.349-.511-.054-1.06-.13-1.637-.165-.529-.031-1.083-.041-1.645-.043-.542,0-1.082.229-1.631.263s-1.117-.15-1.654-.07a13.5,13.5,0,0,0-1.6.4,8.88,8.88,0,0,0-1.441.77c-.51.243-1.136.25-1.541.6-.38.327-.533.888-.875,1.281s-.876.6-1.164,1.032a13.631,13.631,0,0,0-.7,1.374,14.259,14.259,0,0,0-.843,1.32,14.652,14.652,0,0,0-.194,1.559,22.287,22.287,0,0,1-.6,3.028,11.655,11.655,0,0,0,.05,1.562c.068.506.5.95.639,1.443a10.141,10.141,0,0,0,.531,1.427,9.487,9.487,0,0,0,.677,1.37,9.2,9.2,0,0,0,.906,1.246,9.538,9.538,0,0,0,1.123,1.07,10.426,10.426,0,0,0,1.4.661,11.427,11.427,0,0,0,1.416.56c.48.179.871.667,1.368.788a15.489,15.489,0,0,0,1.572-.01c.512.071,1,.348,1.511.37s1.031-.317,1.532-.341c.53-.024,1.093.3,1.635.254s1.016-.508,1.549-.6,1.13.166,1.651.025a12.31,12.31,0,0,0,1.511-.6,10.075,10.075,0,0,0,1.464-.7,8.449,8.449,0,0,0,1.085-.977,9.268,9.268,0,0,0,1.045-1.008,10.719,10.719,0,0,0,.7-1.271,11.542,11.542,0,0,0,.869-1.183,12.636,12.636,0,0,0,.421-1.4,11.473,11.473,0,0,0,.128-1.613c.084-.537.586-1.036.6-1.571a12.429,12.429,0,0,0-.132-1.64c-.063-.539-.522-1-.654-1.522a11.828,11.828,0,0,0-.395-1.553,12.632,12.632,0,0,0-.428-1.6,10.993,10.993,0,0,0-1.078-1.248,9.625,9.625,0,0,0-1.261-1.02,8.572,8.572,0,0,0-1.246-1A7.806,7.806,0,0,0,2238.976,2860.256Z" transform="translate(0 -178.878)" fill="#af886a"/>
  </g>
</svg>
