<svg xmlns="http://www.w3.org/2000/svg" width="920.634" height="415.739" viewBox="0 0 920.634 415.739">
  <g id="joanie_s_p" data-name="joanie&apos;s p" transform="translate(-259 -258.699)">
    <g id="joanie" transform="translate(259 258.699)">
      <g id="Group_370" data-name="Group 370" transform="translate(696.802)">
        <path id="Path_1051" data-name="Path 1051" d="M3327.718,921.02c-1.548-3.949-3.709-3.774-5.352.136-2,4.77-2.859,3.346-4.615,9.356-.843,2.889-.941,6.524-1.7,10.272-.65,3.193-1.956,6.559-2.334,10.145-.354,3.347.37,6.9.417,10.409.045,3.424,1.158,6.718,1.734,10.135.573,3.4-.005,7.089,1.236,10.319a43.483,43.483,0,0,0,4.563,9.453c1.915,2.733,4.794,4.955,7.546,7.272a44.542,44.542,0,0,0,8.439,6.159,59.71,59.71,0,0,0,9.863,3.43,53.736,53.736,0,0,0,10.448,1.764c3.68.336,7.335,1.141,10.686.679a46.74,46.74,0,0,0,10.344-2.93c3.317-1.288,6.007-3.881,8.939-5.792a61.975,61.975,0,0,0,8.084-6.685c2.609-2.411,5.549-4.47,7.772-7.151a101.244,101.244,0,0,0,6.4-8.437c2.047-3.08,4.162-6.009,5.75-8.921,1.876-3.442,3.384-6.751,4.634-9.549,2.622-5.864,1.633-5.059,3.245-10.092,1.293-4.039-1.006-6.457-4.717-4.4-4.059,2.247-3.119,3.943-7.178,6.19s-4.846.824-8.906,3.071c-3.711,2.054-6.942.811-6.8-3.428.158-4.773.557-4.76.715-9.534.141-4.239-2.229-5.5-5.218-2.489-4.25,4.281-4.685,3.849-8.936,8.13-2.989,3.01-6.413,2.956-7.219-1.209-1.12-5.792.83-6.169-.291-11.962-.805-4.164-5.071-5.062-7.625-1.674-3.133,4.157-2.806,4.4-5.939,8.56-2.553,3.387-5.853,3.049-6.419-1.154-.738-5.48.256-5.614-.483-11.094-.566-4.2-2.819-4.6-5.634-1.431-3.749,4.225-3.859,4.126-7.607,8.352-2.815,3.173-7.505,2.477-9.054-1.472C3329.749,928.375,3330.488,928.086,3327.718,921.02Z" transform="translate(-3313.617 -918.14)" fill="#b99b8a"/>
        <g id="Group_369" data-name="Group 369" transform="translate(16.058 32.602)">
          <path id="Path_1052" data-name="Path 1052" d="M3385.537,1076.3a7.5,7.5,0,0,1-1.5-2.052c-.364-.884-.656-1.822-.938-2.728-.2-.636-.4-1.294-.631-1.93a10.911,10.911,0,0,1-.47-2.524,12.333,12.333,0,0,0-.4-2.34,10.506,10.506,0,0,0-1.063-2.167,9.367,9.367,0,0,1-1.093-2.307,7.462,7.462,0,0,1-.037-2.539,8.265,8.265,0,0,0-.005-2.471,15.243,15.243,0,0,0-.709-2.211,13.1,13.1,0,0,1-.754-2.474,13.481,13.481,0,0,1-.081-2.589,15.7,15.7,0,0,0-.038-2.317,18.079,18.079,0,0,0-.455-2.236,15.263,15.263,0,0,1-.482-2.57c-.067-.965-1.085-1.418-2.009-1.353-.782.054-1.544.5-1.482,1.375.078,1.124.228,2.264.374,3.367.074.564.149,1.127.214,1.689.07.608.129,1.232.186,1.835.1,1.062.2,2.16.375,3.225a23.6,23.6,0,0,0,.688,2.776c.206.707.419,1.438.571,2.162.127.607.243,1.23.355,1.832.192,1.038.392,2.111.66,3.148a14.163,14.163,0,0,0,1.027,2.544,16.065,16.065,0,0,1,.917,2.176c.176.57.34,1.143.5,1.716.3,1.03.6,2.1.972,3.126.334.93.761,1.835,1.173,2.711.295.626.6,1.274.868,1.924a15.409,15.409,0,0,1,.668,2.265,13.761,13.761,0,0,0,.818,2.616,1.138,1.138,0,0,0,.727.626,1.4,1.4,0,0,0,.275.051,2.511,2.511,0,0,0,2.093-1.031,1.312,1.312,0,0,0,.166-1.344A8.3,8.3,0,0,0,3385.537,1076.3Z" transform="translate(-3373.388 -1039.486)" fill="#fff"/>
          <path id="Path_1053" data-name="Path 1053" d="M3445.471,1096.458c.073-.735.184-1.483.291-2.205.136-.91.276-1.851.341-2.785a20.346,20.346,0,0,0-.053-2.686,22.671,22.671,0,0,1-.07-2.351,1.247,1.247,0,0,0-1.2-1.4,1.317,1.317,0,0,0-1.37,1.354c-.037.914-.155,1.843-.269,2.74-.094.737-.19,1.5-.242,2.252-.054.786-.034,1.589-.013,2.365a21.593,21.593,0,0,1-.04,2.663,17.838,17.838,0,0,1-.516,2.579,20.152,20.152,0,0,0-.494,2.353,1.188,1.188,0,0,0,.915,1.344,1.713,1.713,0,0,0,.27.056,1.611,1.611,0,0,0,1.886-1.292C3445.122,1099.763,3445.311,1098.083,3445.471,1096.458Z" transform="translate(-3423.438 -1072.795)" fill="#fff"/>
          <path id="Path_1054" data-name="Path 1054" d="M3507.463,1084.276a1.364,1.364,0,0,0-.407-1.352,1.69,1.69,0,0,0-1.588-.4,1.225,1.225,0,0,0-.848.941,28.418,28.418,0,0,1-.912,2.92c-.256.727-.521,1.478-.735,2.234s-.38,1.55-.54,2.312a26.381,26.381,0,0,1-.737,2.947,18.9,18.9,0,0,0-.586,2.479,15.981,15.981,0,0,1-.711,2.819c-.38.978-.868,1.939-1.34,2.869-.338.665-.687,1.352-1,2.042a1.537,1.537,0,0,0,.936,2.105,1.168,1.168,0,0,0,.449.044,1.15,1.15,0,0,0,.924-.741c.247-.554.5-1.1.758-1.655.522-1.127,1.062-2.292,1.523-3.466a20.981,20.981,0,0,0,.84-2.975c.186-.811.379-1.65.647-2.442a16.125,16.125,0,0,1,1.113-2.373,14.335,14.335,0,0,0,1.239-2.762,21.211,21.211,0,0,0,.559-3.058C3507.16,1085.939,3507.273,1085.088,3507.463,1084.276Z" transform="translate(-3464.463 -1070.916)" fill="#fff"/>
          <path id="Path_1055" data-name="Path 1055" d="M3546.6,1130.981a1.383,1.383,0,0,0-2.018-.094c-.479.552-.925,1.149-1.354,1.725a22.654,22.654,0,0,1-1.759,2.168c-.422.439-.841.9-1.244,1.34-.7.767-1.425,1.56-2.188,2.28a9.491,9.491,0,0,1-2.2,1.4,10.747,10.747,0,0,0-2.076,1.278,16.982,16.982,0,0,0-1.626,1.667,14.365,14.365,0,0,1-1.889,1.875c-.784.6-1.637,1.144-2.461,1.666-.553.351-1.126.714-1.675,1.095-1.065.737-2.185,1.425-3.267,2.09q-.462.283-.923.569c-1.249.775-2.611,1.567-4.287,2.493a1.3,1.3,0,0,0-.58,1.817,1.29,1.29,0,0,0,.76.617,1.372,1.372,0,0,0,1.067-.147c.62-.343,1.269-.656,1.9-.958a28.062,28.062,0,0,0,2.6-1.37l.747-.461c1.169-.72,2.376-1.464,3.53-2.262q.493-.341.987-.677c1.049-.716,2.133-1.456,3.161-2.245a28.147,28.147,0,0,0,2.212-1.958c.5-.479,1.027-.975,1.565-1.433a14.113,14.113,0,0,1,1.974-1.319,12.5,12.5,0,0,0,2.259-1.567,12.286,12.286,0,0,0,1.693-2.162,13.863,13.863,0,0,1,1.435-1.9,9.716,9.716,0,0,1,1.971-1.438,9.044,9.044,0,0,0,2.185-1.655A1.766,1.766,0,0,0,3546.6,1130.981Z" transform="translate(-3478.335 -1106.038)" fill="#fff"/>
        </g>
      </g>
      <g id="Group_371" data-name="Group 371" transform="translate(0 58.094)">
        <path id="Path_1056" data-name="Path 1056" d="M833.468,1134.37c-2.763,0-4.925,1.569-6.7,3.342s-3.149,3.742-3.149,6.108c0,4.593.69,4.593.69,9.185s-.272,4.593-.272,9.186.226,4.593.226,9.186.273,4.593.273,9.185.285,4.593.285,9.186-1.375,4.593-1.375,9.186.094,4.593.094,9.186,1.053,4.593,1.053,9.185.353,4.593.353,9.186-1.916,4.593-1.916,9.186-.011,4.593-.011,9.187.707,4.593.707,9.187-.168,4.593-.168,9.187-.457,4.594-.457,9.188.521,4.594.521,9.188c0,2.831.678,5.637.276,8.268a47.045,47.045,0,0,1-2.111,8.013,43.386,43.386,0,0,1-3.739,7.35c-1.3,2.274-2.073,4.935-3.682,6.876-1.646,1.986-4.622,2.632-6.593,4.27a41.287,41.287,0,0,1-6.079,4.494c-2.375,1.343-4.324,3.81-6.977,4.684a49.283,49.283,0,0,1-8.215,1.7,58.452,58.452,0,0,1-8.329.7,44.263,44.263,0,0,1-8.587-1.326c-2.841-.564-5.285-2.215-7.888-3.366-2.585-1.143-5.311-2.03-7.661-3.754a49.718,49.718,0,0,1-6.793-5.478,50.263,50.263,0,0,1-5.746-6.65c-1.568-2.366-2.4-5.281-3.626-7.983a16.277,16.277,0,0,0-3.548-3.291c-1.284-.984-2.675-.925-4.644-.925a8.4,8.4,0,0,0-5.6,1.774c-1.973,1.479-4.02,3.088-4.02,5.647,0,1.58,1.353,3.2,2.342,4.972,1.264,2.724,3.39,4.856,4.942,7.327,1.584,2.523,1.837,5.979,3.721,8.239s4.522,3.926,6.715,5.929a68.594,68.594,0,0,0,7.031,5.4,58.478,58.478,0,0,0,7.517,4.743,55.659,55.659,0,0,0,8.276,3.284,57.385,57.385,0,0,0,8.634,2.33,63.955,63.955,0,0,0,8.938.473c2.974,0,5.8-1.152,8.614-1.453a68.361,68.361,0,0,0,8.422-1.746c2.866-.671,5.9-.466,8.576-1.493a60.1,60.1,0,0,0,7.727-3.983c2.389-1.341,5.292-1.92,7.428-3.514,2.177-1.626,2.952-4.857,4.866-6.745a57.07,57.07,0,0,0,5.564-5.731,60.66,60.66,0,0,0,4.428-6.673c1.423-2.466,3.736-4.493,4.792-7.136,1.046-2.618,1.165-5.585,1.852-8.376.667-2.714.472-5.558.8-8.436a72.9,72.9,0,0,0,.785-8.4c0-4.593.414-4.593.414-9.185s.367-4.593.367-9.186-.036-4.593-.036-9.185-.078-4.593-.078-9.186-.836-4.593-.836-9.186,1.345-4.593,1.345-9.186-1.543-4.594-1.543-9.187,2.021-4.593,2.021-9.185-.769-4.593-.769-9.185-1.213-4.593-1.213-9.186,1.376-4.593,1.376-9.187-.114-4.594-.114-9.187.576-4.593.576-9.187.023-4.594.023-9.188-1.167-4.594-1.167-9.188a8.769,8.769,0,0,0-2.111-6.359A9.428,9.428,0,0,0,833.468,1134.37Z" transform="translate(-720.057 -1134.37)" fill="#fdf4ee"/>
        <path id="Path_1057" data-name="Path 1057" d="M2165.288,1332.207a9.771,9.771,0,0,0-6.962,3.113c-1.676,1.775-1.855,4.237-1.855,6.8,0,4.56.229,4.56.229,9.119a27.212,27.212,0,0,1-1.06,9.01,51.159,51.159,0,0,0-4.572-7.529,58.391,58.391,0,0,0-6.511-6.4c-2.8-2.6-5.211-5.756-8.491-7.8-3.188-1.985-7.16-2.588-10.8-4.045-2.51-1-4.764-2.737-7.4-3.4a63.835,63.835,0,0,0-8.036-1.3c-2.644-.313-5.357-1.074-8.115-1.074a70.928,70.928,0,0,0-9.277,1.117,64.058,64.058,0,0,0-8.994,2.274c-2.985.841-5.636,2.373-8.456,3.647a62.38,62.38,0,0,0-8.32,3.946,68.1,68.1,0,0,0-7.4,5.707c-2.377,2.028-5.367,3.469-7.462,5.823a73.828,73.828,0,0,0-5.558,7.655c-1.732,2.542-2.85,5.526-4.327,8.362a74.407,74.407,0,0,0-3.71,7.541,79.983,79.983,0,0,0-2.23,8.1c-.716,2.668-1.087,5.41-1.555,8.225-.452,2.716-2.046,5.352-2.267,8.205-.212,2.74-.094,5.6-.094,8.463,0,2.843.191,5.662.406,8.4.224,2.828,1.094,5.543,1.549,8.257.467,2.788.237,5.72.949,8.388.725,2.72,1.737,5.391,2.717,7.986.988,2.621,2.969,4.809,4.217,7.3,1.452,2.906,2.215,6.147,3.932,8.754a72.734,72.734,0,0,0,6.1,7.4,82.037,82.037,0,0,0,14.468,12.381,64.017,64.017,0,0,0,8.09,4.836,62.432,62.432,0,0,0,8.782,3.536,65.316,65.316,0,0,0,9.252,2.164,73.479,73.479,0,0,0,9.487.163c2.74,0,5.385-.711,7.991-1.03a59.981,59.981,0,0,0,7.96-1.117,55.958,55.958,0,0,0,7.5-2.892,71.655,71.655,0,0,0,10.014-4.879,69.8,69.8,0,0,0,15.311-13.669,56.261,56.261,0,0,0,5.421-7.8c1.037,4.693-.652,4.825-.652,9.63s.029,4.805.029,9.611c0,2.366,1.723,4.107,3.4,5.88a7.883,7.883,0,0,0,6.3,2.547,7.78,7.78,0,0,0,5.959-2.469,7.965,7.965,0,0,0,2.652-5.958c0-4.752,1-4.752,1-9.5s-.4-4.751-.4-9.5-.347-4.752-.347-9.5.135-4.752.135-9.5-.069-4.752-.069-9.5.471-4.752.471-9.5-.544-4.752-.544-9.5.478-4.752.478-9.5-.159-4.752-.159-9.5-.827-4.752-.827-9.5-.113-4.752-.113-9.5,1.119-4.752,1.119-9.5-1.111-4.753-1.111-9.506.277-4.753.277-9.506a8.4,8.4,0,0,0-2.5-6.188C2169.632,1334.153,2167.846,1332.207,2165.288,1332.207ZM2131.166,1461.7a46.028,46.028,0,0,1-8.387,4.808c-3,1.208-5.914,2.845-9.182,3.435a55.3,55.3,0,0,1-9.813,1.082c-3.385,0-6.561-1.348-9.708-1.916-3.279-.592-6.526-.982-9.547-2.193a48.534,48.534,0,0,1-8.954-4.2c-2.784-1.845-4.691-4.739-7.052-7.063-2.338-2.3-5.43-4.04-7.354-6.81-1.843-2.655-2.688-6.033-4.151-9.12a66.421,66.421,0,0,1-3.22-7.585c-.856-2.588-.971-5.359-1.532-8.094a75.276,75.276,0,0,1-1.726-8.048c-.257-2.688-.81-5.422-.81-8.238s-.4-5.638-.146-8.307a74.21,74.21,0,0,1,1.735-8.13,67.576,67.576,0,0,1,2.01-8.037c.9-2.629,2.933-4.74,4.152-7.178a59.168,59.168,0,0,1,4.748-8.47c1.948-2.68,3.669-5.5,6.019-7.722a52.166,52.166,0,0,1,7.9-5.806,45.334,45.334,0,0,1,17.868-7.6c3.112-.552,6.436.431,9.767.431a54.024,54.024,0,0,1,9.668.615,47.1,47.1,0,0,1,9.344,2.6c3.017,1.216,6.126,2.262,8.871,4.1s4.726,4.537,7.075,6.835a54.068,54.068,0,0,1,6.432,7.317c1.86,2.616,4.339,4.949,5.837,7.977,1.586,3.208,2.01,6.875,3.053,10.325a67.711,67.711,0,0,1,2.662,10.353,77.369,77.369,0,0,1,.924,10.7c0,2.82-.147,5.578-.411,8.269a74.485,74.485,0,0,1-1.549,8.12,68.179,68.179,0,0,1-2.414,7.866,64.816,64.816,0,0,1-3.321,7.491,62.98,62.98,0,0,1-4.57,8.736c-1.932,2.77-3.635,5.653-5.958,7.954C2137.067,1458.532,2133.929,1459.847,2131.166,1461.7Z" transform="translate(-1679.546 -1276.483)" fill="#fdf4ee"/>
        <path id="Path_1058" data-name="Path 1058" d="M2855.588,1349.674c-2.2-1.471-4.828-2.155-7.437-3.212-2.417-.98-4.65-2.911-7.424-3.535a66.327,66.327,0,0,0-8.122-1.262c-2.592-.249-5.359.82-8.2.82-3.6,0-7.318-1.039-10.89-.356a63.563,63.563,0,0,0-10.4,3.306c-3.484,1.324-6.313,3.886-9.479,5.7-3.194,1.83-6.9,2.892-9.774,5.218a67.313,67.313,0,0,0-6.958,7.1,57.748,57.748,0,0,0-5.67,7.728c-1.286-3.833-.942-3.924-.942-7.967s.635-4.043.635-8.086a9.115,9.115,0,0,0-2.331-6.426c-1.677-1.775-4.027-1.953-6.587-1.953s-4.663.463-6.437,2.237-3.028,3.777-3.028,6.142c0,4.731.95,4.731.95,9.462s-1.122,4.731-1.122,9.461.576,4.731.576,9.461.618,4.731.618,9.462-1.127,4.731-1.127,9.462-.043,4.731-.043,9.462-.25,4.731-.25,9.462.823,4.73.823,9.461-.12,4.731-.12,9.462.449,4.731.449,9.462-.148,4.732-.148,9.463-.006,4.731-.006,9.463-.417,4.732-.417,9.464.312,4.732.312,9.464c0,2.366.409,4.655,2.086,6.428a8.99,8.99,0,0,0,13.429.115c1.774-1.774,1.871-4.177,1.871-6.543,0-4.781.3-4.781.3-9.561s.917-4.78.917-9.56-.7-4.78-.7-9.559-.569-4.78-.569-9.56-.128-4.78-.128-9.56.9-4.78.9-9.561-.669-4.78-.669-9.56,1.094-4.781,1.094-9.562.051-4.781.051-9.562a35.506,35.506,0,0,1,.671-7.52c.533-2.513.748-5.065,1.823-7.42a38.34,38.34,0,0,1,3.658-6.8,50.328,50.328,0,0,1,5.068-6.438,51.491,51.491,0,0,1,6.476-5.023,55.727,55.727,0,0,1,6.944-4.31c2.516-1.275,5.335-1.777,7.949-2.629,2.65-.864,5.217-2.188,7.967-2.617,2.719-.425,5.568.146,8.386.146s5.494-.444,7.97-.106c2.784.38,5.168,1.745,7.536,2.552a29.9,29.9,0,0,1,7.162,3.2c2.868,1.93,5.749,3.8,7.824,6.4a34.5,34.5,0,0,1,5.134,8.8c1.319,3.353,1.105,7.192,1.745,10.912.6,3.5,2.168,7.027,2.168,10.848,0,4.78-.858,4.78-.858,9.56s.02,4.78.02,9.56.362,4.779.362,9.559-.039,4.78-.039,9.56.625,4.78.625,9.56-.465,4.78-.465,9.561.007,4.78.007,9.561.095,4.781.095,9.562-.587,4.781-.587,9.562c0,2.366,1.663,3.968,3.341,5.741s3.393,3.814,6.158,3.814c2.365,0,4.561-1.444,6.336-3.218s1.89-3.972,1.89-6.337c0-4.83.463-4.83.463-9.659s.823-4.829.823-9.659-1.331-4.829-1.331-9.658.307-4.829.307-9.659.97-4.83.97-9.659-.861-4.83-.861-9.659.53-4.83.53-9.659-.96-4.83-.96-9.66.712-4.831.712-9.661c0-3.46-.754-6.763-1.106-10.032-.369-3.426-.2-6.846-.956-10.062-.781-3.332-2.557-6.273-3.751-9.38-1.132-2.942-1.236-6.323-2.834-8.862a44.163,44.163,0,0,0-6.088-7.038A45.463,45.463,0,0,0,2855.588,1349.674Z" transform="translate(-2206.196 -1285.944)" fill="#fdf4ee"/>
        <path id="Path_1059" data-name="Path 1059" d="M3418.581,1345.155c-2.564,0-5.137.59-6.811,2.364s-2.073,4.273-2.073,6.639c0,4.533-.553,4.533-.553,9.067s1.247,4.534,1.247,9.067-.394,4.533-.394,9.067.039,4.534.039,9.067-.283,4.534-.283,9.067-.225,4.534-.225,9.068-.407,4.534-.407,9.068.97,4.534.97,9.067-1.045,4.533-1.045,9.067,1.14,4.534,1.14,9.068-1.033,4.534-1.033,9.068.3,4.534.3,9.068-.475,4.534-.475,9.068.614,4.535.614,9.07-.644,4.535-.644,9.07a10.382,10.382,0,0,0,2.667,6.62,8.933,8.933,0,0,0,13.359-.229,9.3,9.3,0,0,0,3.01-6.392c0-4.533-1.222-4.533-1.222-9.067s.848-4.534.848-9.068-.765-4.533-.765-9.067.035-4.534.035-9.067.929-4.534.929-9.068-.272-4.534-.272-9.068-.46-4.534-.46-9.068-.309-4.534-.309-9.067.967-4.534.967-9.067.11-4.534.11-9.068.1-4.534.1-9.068-1.044-4.534-1.044-9.068.138-4.534.138-9.068.485-4.535.485-9.07.609-4.535.609-9.069c0-2.366-1.58-4.382-3.253-6.156A8.419,8.419,0,0,0,3418.581,1345.155Z" transform="translate(-2686.532 -1288.524)" fill="#fdf4ee"/>
        <path id="Path_1060" data-name="Path 1060" d="M3769.421,1407.3a7.686,7.686,0,0,0,2.841-5.8,91.082,91.082,0,0,0-1-10.263,77.218,77.218,0,0,0-1.564-10.2,64.357,64.357,0,0,0-3.44-9.758,77.962,77.962,0,0,0-4.31-7.92,70.006,70.006,0,0,0-5.055-7.461,65.087,65.087,0,0,0-6.261-6.468c-2.1-2-3.753-4.553-6.057-6.225a64.284,64.284,0,0,0-7.358-4.646c-2.51-1.341-5.707-1.252-8.423-2.267s-5.257-2.367-8.025-3.044a71.246,71.246,0,0,0-8.438-1.708c-2.836-.339-5.711.18-8.6.18-2.977,0-6-.978-8.894-.571-2.919.41-5.565,2.136-8.4,2.958a63.135,63.135,0,0,0-8.165,3.145,68.317,68.317,0,0,0-8,3.655c-2.712,1.647-5.777,2.84-8.228,4.846-2.432,1.99-4.4,4.583-6.571,6.926a74.829,74.829,0,0,0-6.132,7.265,84.59,84.59,0,0,0-5.173,7.992c-1.43,2.56-2.162,5.5-3.282,8.288-1.084,2.7-2.531,5.341-3.326,8.26-.761,2.8-.821,5.815-1.316,8.812-.471,2.854-.888,5.764-1.117,8.8-.218,2.882-.428,5.826-.428,8.871,0,2.893.142,5.7.366,8.46.235,2.879-.359,5.833.121,8.563.5,2.836,2.629,5.247,3.391,7.924.784,2.756.539,5.814,1.6,8.4,1.084,2.633,3.423,4.621,4.8,7.078a72.99,72.99,0,0,0,4.985,8.24c1.954,2.614,3.157,5.874,5.43,8.161s5.563,3.472,8.161,5.437c2.553,1.93,4.583,4.758,7.446,6.373a71.64,71.64,0,0,0,7.6,3.769c2.558,1.064,5.474,1.351,8.2,2.136a79.965,79.965,0,0,0,8.138,2.174c2.7.481,5.6-.232,8.449,0,2.73.225,5.467,1.279,8.331,1.279a70.123,70.123,0,0,0,8.131-.228c2.708-.32,5.287-1.343,7.883-1.991a61.5,61.5,0,0,0,7.681-2.5,62.84,62.84,0,0,0,7.478-3.126,97,97,0,0,0,8.568-5.05,79.433,79.433,0,0,0,7.6-6.422,70.52,70.52,0,0,0,7.2-6.831c1.967-1.774,2.06-4.249,2.06-6.614a6.785,6.785,0,0,0-2.051-5.039,6.611,6.611,0,0,0-5.168-2.394,8.666,8.666,0,0,0-6.028,2.577c-1.441,1.851-3.774,2.96-5.615,4.731a64.042,64.042,0,0,1-5.412,4.845c-2.17,1.663-4.009,3.9-6.513,5.226-2.39,1.269-5.162,1.877-7.856,2.839a48.656,48.656,0,0,1-8.919,2.731,61.194,61.194,0,0,1-9.333.63,77.949,77.949,0,0,1-8.422-.555c-2.879-.311-5.782-.262-8.436-.9a57.311,57.311,0,0,1-8.17-2.445c-2.633-1.08-4.865-3.033-7.231-4.506a56.009,56.009,0,0,1-8.172-6.18c-2.527-2.3-4.307-5.224-6.363-7.976a56.337,56.337,0,0,1-5.666-8.451c-1.208-2.416-2.786-4.692-3.685-7.249-.889-2.528-.832-5.348-1.419-8.015-.573-2.6-2.2-5.09-2.484-7.823-.277-2.636.14-6.07.131-8.829,4.464-1.324,4.851.432,9.508.432s4.656.42,9.313.42,4.657.548,9.314.548,4.657-.559,9.313-.559,4.656-.41,9.313-.41,4.656-.264,9.313-.264,4.657.376,9.314.376,4.657.222,9.314.222,4.657-.783,9.314-.783,4.657.148,9.313.148,4.658.128,9.316.128,4.657.936,9.315.936C3765.822,1410.608,3767.647,1408.976,3769.421,1407.3Zm-113.337-25.3a65.14,65.14,0,0,1,5.447-10.132,51.617,51.617,0,0,1,6.916-9.193,50.509,50.509,0,0,1,8.133-6.121,45.469,45.469,0,0,1,9.015-4.587,56.3,56.3,0,0,1,8.881-2.734,46.68,46.68,0,0,1,9.249-.85,52.53,52.53,0,0,1,7.8.31c2.571.387,4.857,1.838,7.351,2.614a52.275,52.275,0,0,1,7.136,2.848c2.412,1.157,5.393,1.266,7.573,2.756s3.95,3.607,5.9,5.432a55.809,55.809,0,0,1,5.267,5.955c1.773,2.218,3.9,4.285,5.15,6.845,1.222,2.494,1.089,5.559,1.819,8.376.685,2.648,2.27,5.266,2.52,8.2.057,1.181.774,2.757-.371,3.053-4.431,1.145-4.747-.464-9.323-.464s-4.577-.8-9.153-.8-4.576.545-9.153.545-4.575-.162-9.151-.162-4.576-.1-9.152-.1-4.576.6-9.152.6-4.576-.537-9.154-.537-4.576.581-9.153.581-4.577-.071-9.153-.071-4.577-.1-9.154-.1-5.171,2.1-9.241.009A64.039,64.039,0,0,1,3656.085,1381.995Z" transform="translate(-2851.628 -1278.204)" fill="#fdf4ee"/>
        <path id="Path_1061" data-name="Path 1061" d="M1278.731,1416.023c-1.778-7.086-2.547-6.893-4.325-13.979s-1.736-7.1-3.514-14.182c-.512-2.043,1.257-3.785,3.1-4.807,7.665-4.252,7.632-4.312,15.3-8.564a3.76,3.76,0,0,1,4.613.369c9.5,7.7,9.271,7.985,18.77,15.689,1.622,1.316,4.29.489,5.991-.723a121.021,121.021,0,0,1,16.592-9.358,124.121,124.121,0,0,1,17.862-6.467,111.314,111.314,0,0,1,18.527-4.112,107.332,107.332,0,0,1,18.959-.178,5.712,5.712,0,0,0,5.145-3.371c3.652-9.491,2.817-9.812,6.469-19.3s3.539-9.535,7.191-19.026c1.272-3.3,6.035-3.8,8.308-1.092,3.009,3.59,6.471,8.09,9.839,12.985,3.061,4.448,6.418,8.99,9.085,13.557a107.126,107.126,0,0,1,7.2,14.658c1.87,4.818,2.558,10.861,3.577,17.354.867,5.521,2.139,11.394,1.9,17.606-.218,5.726-1.907,11.433-3.427,17.355a73.216,73.216,0,0,1-6.179,16.437,71.891,71.891,0,0,1-9.877,14.574c-3.736,4.173-7.557,8.772-12.674,12.446a100.328,100.328,0,0,1-15.365,9.063,130.837,130.837,0,0,1-16.728,6.118,106.593,106.593,0,0,1-17.205,3.548c-6.206.9-12.048,2.1-17.546,1.746A71.428,71.428,0,0,1,1333,1480.8a69.553,69.553,0,0,1-16.016-7.433c-5.039-3.214-8.785-7.9-12.815-12.026-4.172-4.273-8.563-8.27-11.715-13.069-3.334-5.076-5.211-10.765-7.474-15.9C1282.421,1426.571,1280.02,1421.159,1278.731,1416.023Z" transform="translate(-1122.835 -1273.909)" fill="#fdf4ee"/>
      </g>
    </g>
    <g id="portfolio" transform="translate(438 569.599)">
      <g id="Group_375" data-name="Group 375" transform="translate(0 0)">
        <g id="Group_373" data-name="Group 373" transform="translate(0 38.554)">
          <path id="Path_1062" data-name="Path 1062" d="M2326,2133.952a20.373,20.373,0,0,0-6.8-7.32,15.851,15.851,0,0,0-8.861-2.885c-3.486,0-3.486-.02-6.973-.02s-3.486.076-6.973.076-3.487-.087-6.973-.087a5.56,5.56,0,0,0-4.068,1.562,5.445,5.445,0,0,0-1.407,4.069c0,3.787-.051,3.787-.051,7.575s.093,3.787.093,7.575-.118,3.788-.118,7.575-.185,3.788-.185,7.576.049,3.788.049,7.576-.012,3.788-.012,7.576.019,3.789.019,7.577a5.921,5.921,0,0,0,1.442,4.091,4.991,4.991,0,0,0,3.871,1.461,4.748,4.748,0,0,0,3.715-1.689,5.575,5.575,0,0,0,1.7-3.864c0-4.335.064-4.335.064-8.67s-3.223-5.6-.286-8.794c2.7-2.936,4.124.314,8.115.314s3.991-.166,7.982-.166a15.93,15.93,0,0,0,9.036-2.688,21.154,21.154,0,0,0,6.6-7.642,20.4,20.4,0,0,0,2.021-4.984,22.621,22.621,0,0,0,.491-5.355,23.485,23.485,0,0,0-.379-5.426A20.461,20.461,0,0,0,2326,2133.952Zm-9.371,15.416a11.633,11.633,0,0,1-2.895,3.739,5.059,5.059,0,0,1-3.392,1.448c-3.991,0-3.991.075-7.982.075s-4.913,2.5-7.96-.079c-2.579-2.184.087-3.352.087-6.731s-.231-3.379-.231-6.759-2.5-4.629.076-6.813c3.046-2.579,4.037-.109,8.028-.109s3.991.118,7.982.118a5.206,5.206,0,0,1,3.3,1.573,10.97,10.97,0,0,1,2.762,3.65,11.126,11.126,0,0,1,1.079,4.915A11.467,11.467,0,0,1,2316.63,2149.368Z" transform="translate(-2283.689 -2122.643)" fill="#fdf4ee"/>
          <path id="Path_1063" data-name="Path 1063" d="M2540.825,2140.972a33.788,33.788,0,0,0-2.917-5.482,32.228,32.228,0,0,0-3.566-5.087,30,30,0,0,0-4.673-4.008,30.779,30.779,0,0,0-5.408-2.886,28.569,28.569,0,0,0-6.115-1.872,32.042,32.042,0,0,0-6.365-.766,32.4,32.4,0,0,0-6.385.55,28.416,28.416,0,0,0-6.105,1.961,30.433,30.433,0,0,0-5.222,3.163,29.957,29.957,0,0,0-4.664,3.943,32.072,32.072,0,0,0-3.622,5.025,41.124,41.124,0,0,0-4.466,11.844,32.585,32.585,0,0,0-.075,13.043,38.934,38.934,0,0,0,4.492,11.862,31.882,31.882,0,0,0,3.825,4.852,29.9,29.9,0,0,0,4.448,4.171,30.52,30.52,0,0,0,5.288,3.069,28.4,28.4,0,0,0,6.12,1.88,32.148,32.148,0,0,0,6.367.7,32.68,32.68,0,0,0,6.423-.542,28.773,28.773,0,0,0,6.051-2.177,30.426,30.426,0,0,0,5.329-2.99,29.576,29.576,0,0,0,4.507-4.12,31.925,31.925,0,0,0,3.817-4.855,28.33,28.33,0,0,0,4.607-11.835,37.927,37.927,0,0,0-.006-13.091A34.164,34.164,0,0,0,2540.825,2140.972ZM2530.49,2159.6a23.055,23.055,0,0,1-2.075,5.343,20.047,20.047,0,0,1-6.676,7.951,17.321,17.321,0,0,1-9.958,3.105,17.626,17.626,0,0,1-10.1-2.892,20.137,20.137,0,0,1-6.668-8.073,23.534,23.534,0,0,1-1.793-5.452,27.484,27.484,0,0,1-.581-5.708,28.28,28.28,0,0,1,.439-5.76,23.038,23.038,0,0,1,2.006-5.41,20.054,20.054,0,0,1,6.649-7.986,18.046,18.046,0,0,1,20.1,0,20.358,20.358,0,0,1,6.687,8.035,23.12,23.12,0,0,1,1.951,5.4,24.922,24.922,0,0,1,.02,11.449Z" transform="translate(-2421.546 -2120.652)" fill="#fdf4ee"/>
          <path id="Path_1064" data-name="Path 1064" d="M2796.761,2178.706a3.124,3.124,0,0,1-1.612-1.763,11.349,11.349,0,0,1-.675-2.915c-.091-1.162-.1-2.523-.344-4.052a13.712,13.712,0,0,0-1.291-4.6,15.233,15.233,0,0,0-2.718-3.955,14.512,14.512,0,0,0-2.437-2.311,18.805,18.805,0,0,0,3.52-3.2,21.353,21.353,0,0,0,4.161-5.763,17.077,17.077,0,0,0,1.146-6.861,22.65,22.65,0,0,0-.434-5.3,18.707,18.707,0,0,0-2-4.94,19.061,19.061,0,0,0-6.842-6.836,16.877,16.877,0,0,0-8.87-2.64c-3.3,0-3.3.106-6.605.106s-3.3-.009-6.6-.009-3.3-.22-6.607-.22-3.3.032-6.606.032a6.273,6.273,0,0,0-5.711,5.681c0,3.788.271,3.788.271,7.575s-.123,3.787-.123,7.575.062,3.787.062,7.576.054,3.787.054,7.575-.113,3.788-.113,7.576-.129,3.788-.129,7.576.222,3.789.222,7.578a4.852,4.852,0,0,0,1.837,4.055,7.293,7.293,0,0,0,4.638,1.6,4.3,4.3,0,0,0,3.526-1.7,6.122,6.122,0,0,0,1.373-3.949c0-2.967.017-2.967.017-5.933s-.225-2.966-.225-5.933-2.377-4.4.063-6.091c3.527-2.44,4.4.174,8.688.174s4.29-.033,8.579-.033a11.369,11.369,0,0,1,3.613.7,5.367,5.367,0,0,1,4.175,3.589,7.527,7.527,0,0,1,.676,2.886,25.994,25.994,0,0,0,.964,7.762,14.122,14.122,0,0,0,2.28,4.965,12.931,12.931,0,0,0,3.211,2.659,10.069,10.069,0,0,0,2.627.705,7.405,7.405,0,0,0,3.064-.071,4.468,4.468,0,0,0,3.694-5.34A5.3,5.3,0,0,0,2796.761,2178.706Zm-13.172-29.447a11.3,11.3,0,0,1-2.507,4.132,4.739,4.739,0,0,1-3.179,1.629c-3.349,0-3.349-.162-6.7-.162s-3.349.15-6.7.15-4.492,2.454-6.818.044c-2.409-2.5.076-3.585.076-7.056s-.147-3.471-.147-6.943-2.09-4.319.32-6.817c2.325-2.41,3.219-.235,6.568-.235s3.349.172,6.7.172,3.349-.034,6.7-.034a6.051,6.051,0,0,1,4.745,2.589,10.689,10.689,0,0,1,2.051,6.833A15.619,15.619,0,0,1,2783.59,2149.26Z" transform="translate(-2607.481 -2122.452)" fill="#fdf4ee"/>
          <path id="Path_1065" data-name="Path 1065" d="M3011.687,2125.017a5.667,5.667,0,0,0-3.862-1.784c-3.394,0-3.394.364-6.789.364s-3.394-.189-6.789-.189-3.394-.18-6.788-.18-3.395.251-6.79.251-3.395-.052-6.79-.052-3.4-.068-6.79-.068a5.7,5.7,0,0,0-3.909,1.564,4.65,4.65,0,0,0-1.614,3.716,5.1,5.1,0,0,0,1.43,3.965,5.933,5.933,0,0,0,4.094,1.451c3.6,0,3.6-.271,7.2-.271s4.579-2.292,7.186.192c2.485,2.37.017,3.417.017,6.851s-.175,3.434-.175,6.867.152,3.434.152,6.868-.149,3.434-.149,6.867.093,3.434.093,6.868.2,3.435.2,6.869-.012,3.435-.012,6.869a5.083,5.083,0,0,0,1.657,3.871,5.543,5.543,0,0,0,4.1,1.625,6.214,6.214,0,0,0,4.459-1.4,5.5,5.5,0,0,0,1.689-4.1c0-3.434.089-3.434.089-6.867s-.348-3.434-.348-6.867.276-3.434.276-6.868-.219-3.434-.219-6.868.208-3.434.208-6.868-.055-3.435-.055-6.869-2.586-4.559-.1-6.929c2.606-2.485,3.658.139,7.259.139s3.6-.15,7.2-.15a5.562,5.562,0,0,0,3.882-1.476,4.629,4.629,0,0,0,1.671-3.684A4.753,4.753,0,0,0,3011.687,2125.017Z" transform="translate(-2758.224 -2122.301)" fill="#fdf4ee"/>
          <path id="Path_1066" data-name="Path 1066" d="M3224.49,2123.853c-3.727,0-3.727-.032-7.454-.032s-3.727.138-7.454.138-3.727-.124-7.455-.124-3.728-.068-7.455-.068a5.483,5.483,0,0,0-4.024,1.592,5.342,5.342,0,0,0-1.4,4.024c0,3.788-.135,3.788-.135,7.575s-.168,3.788-.168,7.576.235,3.787.235,7.575-.109,3.787-.109,7.575-.092,3.788-.092,7.576-.007,3.788-.007,7.577-.071,3.788-.071,7.577a5.589,5.589,0,0,0,1.772,4,5.733,5.733,0,0,0,4.186,1.689,5.614,5.614,0,0,0,3.9-1.8,5.252,5.252,0,0,0,1.89-3.9c0-3.563.075-3.563.075-7.126s-.354-3.563-.354-7.126-2.143-4.417.28-7.03c2.245-2.422,3.2.055,6.5.055s3.3,0,6.606,0,3.3-.172,6.606-.172a5.3,5.3,0,0,0,3.859-1.679,4.976,4.976,0,0,0,1.923-3.443,5.351,5.351,0,0,0-1.741-3.951,5.64,5.64,0,0,0-4.041-1.416c-3.3,0-3.3.021-6.605.021s-3.3-.162-6.606-.162-4.482,2.625-6.574.069c-2.556-3.124-.214-4.011-.214-8.048s-2.531-5.079.308-7.95c2.806-2.838,3.866-.311,7.856-.311s3.991.189,7.982.189,3.992.18,7.983.18a5.593,5.593,0,0,0,3.942-1.792,4.786,4.786,0,0,0,1.637-3.527,5.164,5.164,0,0,0-1.554-3.936A5.6,5.6,0,0,0,3224.49,2123.853Z" transform="translate(-2917.364 -2122.677)" fill="#fdf4ee"/>
          <path id="Path_1067" data-name="Path 1067" d="M3431,2140.507a34.089,34.089,0,0,0-2.666-5.606,32.091,32.091,0,0,0-3.878-4.836,29.747,29.747,0,0,0-4.483-4.183,30.8,30.8,0,0,0-5.4-2.9,28.688,28.688,0,0,0-6.07-2.109,32.521,32.521,0,0,0-6.414-.74,32.087,32.087,0,0,0-6.365.869,28.587,28.587,0,0,0-6.181,1.739,30.8,30.8,0,0,0-5.287,3.119,30.124,30.124,0,0,0-4.541,4.114,31.88,31.88,0,0,0-3.551,5.066,33.476,33.476,0,0,0-2.919,5.455,33.813,33.813,0,0,0-1.581,6.351,38.9,38.9,0,0,0-.153,13.042,30.137,30.137,0,0,0,4.361,11.958,32.275,32.275,0,0,0,3.927,4.811,29.9,29.9,0,0,0,4.538,4.077,30.365,30.365,0,0,0,5.348,2.918,28.045,28.045,0,0,0,6.036,2.066,32.093,32.093,0,0,0,6.369.685,32.6,32.6,0,0,0,6.409-.591,28.659,28.659,0,0,0,6.044-2.157,30.524,30.524,0,0,0,5.372-2.915,29.9,29.9,0,0,0,4.709-3.944,32.2,32.2,0,0,0,3.543-5.093,33.286,33.286,0,0,0,4.666-11.8,41.428,41.428,0,0,0,.079-13.108A33.949,33.949,0,0,0,3431,2140.507Zm-10.4,18.536a23.326,23.326,0,0,1-1.653,5.5,20.233,20.233,0,0,1-6.906,7.837,17.584,17.584,0,0,1-19.919,0,19.668,19.668,0,0,1-6.611-7.962,23.3,23.3,0,0,1-2.089-5.335,38.713,38.713,0,0,1,.157-11.448,22.942,22.942,0,0,1,1.8-5.455,20.17,20.17,0,0,1,6.6-8.056,19.729,19.729,0,0,1,20.172.04,20.484,20.484,0,0,1,6.762,8.02,23.338,23.338,0,0,1,1.817,5.455,27.1,27.1,0,0,1,.436,5.714A26.741,26.741,0,0,1,3420.6,2159.043Z" transform="translate(-3044.866 -2120.137)" fill="#fdf4ee"/>
          <path id="Path_1068" data-name="Path 1068" d="M3671.677,2177c-3.991,0-3.991.279-7.981.279s-3.992-.243-7.983-.243-5.015,2.775-8.046.178c-2.6-2.225-.037-3.495-.037-6.915s.141-3.421.141-6.842-.135-3.42-.135-6.841.282-3.421.282-6.842-.345-3.421-.345-6.842.073-3.422.073-6.843-.037-3.422-.037-6.843a5.016,5.016,0,0,0-1.686-3.875,5.49,5.49,0,0,0-3.789-1.8,5.677,5.677,0,0,0-4.092,1.815,5.328,5.328,0,0,0-1.931,3.86c0,3.787.065,3.787.065,7.574s.194,3.788.194,7.576-.277,3.787-.277,7.575.049,3.787.049,7.575.031,3.788.031,7.576.117,3.788.117,7.577-.012,3.788-.012,7.577a5.239,5.239,0,0,0,1.709,3.873,5.418,5.418,0,0,0,3.872,1.889c3.728,0,3.728-.246,7.454-.246s3.727.154,7.454.154,3.727-.168,7.455-.168,3.728.162,7.456.162a5.857,5.857,0,0,0,4.118-1.446,5.165,5.165,0,0,0,1.416-3.943,5.262,5.262,0,0,0-1.432-4.017A5.879,5.879,0,0,0,3671.677,2177Z" transform="translate(-3230.414 -2122.542)" fill="#fdf4ee"/>
          <path id="Path_1069" data-name="Path 1069" d="M3842.741,2144.566c0-3.789-.278-3.789-.278-7.577s.243-3.788.243-7.576a5.284,5.284,0,0,0-1.869-3.92,5.45,5.45,0,0,0-3.832-1.684,5.884,5.884,0,0,0-4.262,1.57,5.288,5.288,0,0,0-1.46,4.034c0,3.787-.058,3.787-.058,7.574s-.233,3.788-.233,7.576-.011,3.788-.011,7.575.265,3.788.265,7.575-.183,3.788-.183,7.577.195,3.788.195,7.576-.217,3.788-.217,7.576a5.428,5.428,0,0,0,1.765,3.881,5.286,5.286,0,0,0,4.016,1.677,5.808,5.808,0,0,0,4.086-1.514,5.373,5.373,0,0,0,1.8-4.045c0-3.787-.183-3.787-.183-7.575s.1-3.787.1-7.575-.173-3.788-.173-7.576.212-3.788.212-7.575S3842.741,2148.354,3842.741,2144.566Z" transform="translate(-3366.843 -2122.707)" fill="#fdf4ee"/>
        </g>
        <path id="Path_1070" data-name="Path 1070" d="M2518.555,2051.179c.729.2,1.517.314,2.247.524.787.226,1.4.9,2.062,1.1,1.058.322,1.962.322,2.262.475a5.474,5.474,0,0,0,2.24-.335c.638-.161,1.459-.087,2.3-.344.682-.209,1.435-.425,2.22-.689.7-.235,1.441-.479,2.2-.751.708-.253,1.367-.757,2.113-1.036.712-.267,1.356-.791,2.091-1.078.715-.28,1.484-.426,2.208-.721s1.577-.205,2.292-.51,1.2-1.23,1.906-1.544,1.659-.067,2.351-.391c.721-.338,1.217-1.168,1.9-1.506.723-.361,1.592-.34,2.25-.7a15.78,15.78,0,0,0,2.061-1.187,11.506,11.506,0,0,0,1.67-1.742,9.3,9.3,0,0,0,1.211-2.071,8.755,8.755,0,0,0,.816-2.248,8.939,8.939,0,0,0-.183-2.343,11,11,0,0,0-.073-2.4,82.909,82.909,0,0,0-2.537-3.851,11.185,11.185,0,0,0-1.52-1.754,5.545,5.545,0,0,0-2.227-.514,8.119,8.119,0,0,0-2.212-.079,13.843,13.843,0,0,0-2.238.256,22.7,22.7,0,0,0-2.2.592c-.7.254-1.291.87-2,1.182-.69.3-1.4.577-2.081.918s-1.4.615-2.064.974c-.684.37-1.395.662-2.041,1.031-.689.393-1.329.828-1.956,1.2-.708.416-1.361.829-1.966,1.18-.645.375-1.457.567-2.142,1.025-.637.427-1.045,1.272-1.7,1.744-.635.459-1.418.718-2.052,1.2s-1.3.925-1.912,1.407c-.639.5-1.2,1.087-1.8,1.562-.652.514-1.406.832-1.994,1.289-.629.488-1.125,1.056-1.639,1.465.291-.677.475-1.4.78-2.072.321-.708.764-1.362,1.087-2.07s.673-1.4,1-2.111c.188-.413.369-.829.551-1.245a9.12,9.12,0,0,0,1.334-.583c.58-.309,1.469-.25,2.246-.663.629-.334.99-1.385,1.724-1.774.647-.345,1.32-.736,2.034-1.115.66-.35,1.673-.015,2.376-.389.667-.354,1.351-.72,2.047-1.09.673-.357,1.28-.883,1.971-1.25s1.415-.608,2.1-.973,1.349-.761,2.032-1.123,1.252-.973,1.931-1.333,1.482-.5,2.156-.856c.7-.369,1.063-1.4,1.731-1.757.7-.372,1.588-.306,2.25-.657.712-.377,1.2-1.162,1.849-1.506.729-.386,1.548-.466,2.18-.8.765-.4,1.447-.784,2.041-1.1.943-.5,1.527-1.139,1.927-1.347a5.627,5.627,0,0,0,1.919-1.22,10.939,10.939,0,0,0,1.553-1.852,14.679,14.679,0,0,0,.871-2.266,14.863,14.863,0,0,0,.882-2.3,8.526,8.526,0,0,0-.223-2.42c-.109-.877-.087-1.919-.579-2.434-.781-.818-1.517-.506-1.859-.59a3.873,3.873,0,0,0-1.83.029c-.49.078-1.12-.133-1.952-.122-.555.007-1.19.061-1.942.012-.572-.038-1.17.625-1.993,1.035-.585.291-1.472.208-2.159.69-.567.4-.808,1.359-1.433,1.867-.553.45-1.2.823-1.788,1.348-.542.482-1,1.1-1.563,1.631-.534.5-1.6.457-2.145,1-.526.52-.607,1.534-1.143,2.083-.52.533-1.514.6-2.039,1.155s-.54,1.583-1.056,2.142-1.381.763-1.889,1.324-1.177.972-1.677,1.535-.578,1.535-1.072,2.1-1.328.847-1.816,1.411c-.5.582-.775,1.354-1.256,1.919-.5.589-.971,1.185-1.445,1.748-.5.6-.72,1.413-1.186,1.972-.507.61-1.5.75-1.959,1.3-.516.629-.742,1.435-1.18,1.974-.544.67-1.164,1.145-1.565,1.646l-.019.024a1.679,1.679,0,0,0-.234-.4c.006-.012.01-.022.017-.034.565-1.109.72-1.03,1.286-2.139s.347-1.221.913-2.329.68-1.051,1.252-2.157.43-1.18,1-2.29a10.7,10.7,0,0,0,.75-2.695,10.125,10.125,0,0,0,.119-2.727c-.035-.645.4-1.417.348-2.191-.042-.681-.234-1.386-.286-2.124-.049-.7-.181-1.413-.239-2.131s-.219-1.424-.286-2.123c-.071-.738-.225-1.44-.306-2.116-.091-.771-.3-1.453-.406-2.086a19.443,19.443,0,0,0-.256-2.1,12.7,12.7,0,0,0-.759-2.2c-.329-.615-.721-1.294-1.16-1.989-.392-.62-1.086-1.061-1.55-1.694-.446-.608-.669-1.423-1.168-2a21.291,21.291,0,0,0-1.572-1.664,13.135,13.135,0,0,0-1.927-1.212c-.67-.44-1.193-1.188-1.875-1.388-.758-.221-1.565.315-2.306.486s-1.519-.063-2.138.177a8.346,8.346,0,0,0-1.817,1.193c-.6.434-1.4.733-1.793,1.347a7,7,0,0,0-.708,2.16,10.442,10.442,0,0,0-.175,2.192c0,.658.446,1.32.548,2.095a21.049,21.049,0,0,0-.039,2.2c.136.632.627,1.286.876,2.119.2.67.109,1.519.37,2.292.23.683.671,1.328.94,2.074.249.69.353,1.473.627,2.2.261.694.384,1.472.663,2.192.271.7.949,1.225,1.231,1.936s.8,1.3,1.082,2,.3,1.53.591,2.227.652,1.374.94,2.064c.3.712.572,1.42.86,2.1.3.717.35,1.537.638,2.21.31.727.858,1.3,1.144,1.964.321.745.325,1.59.6,2.23.344.787.519,1.553.778,2.143.082.184.15.333.21.461a2.663,2.663,0,0,0-.727.838c-.323.708-.6,1.438-.918,2.146-.124.271-.23.551-.334.832-.065-.187-.162-.434-.325-.819-.247-.579-.019-1.524-.361-2.286-.279-.621-1.3-.922-1.637-1.635-.3-.635.112-1.7-.227-2.382-.315-.64-.993-1.108-1.338-1.777-.332-.64-1.066-1.054-1.424-1.707s-.131-1.638-.5-2.275-1.3-.894-1.685-1.513-.274-1.6-.681-2.2c-.416-.614-1.176-.951-1.607-1.523-.449-.6-1.039-1.03-1.5-1.567-.491-.572-.5-1.595-1-2.079a15.882,15.882,0,0,0-1.679-1.444,8.807,8.807,0,0,0-2.073-.793c-.714-.287-1.364-.7-2.048-1.009-.7-.322-1.546-.335-2.214-.667-.7-.348-1.1-1.245-1.757-1.583-.7-.364-1.712-.07-2.361-.4-.724-.365-1.283-.947-1.93-1.233a13.594,13.594,0,0,0-2.166-.673c-.877-.233-1.633-.621-2.264-.42-.69.219-.907,1.007-1.263,1.931a2.2,2.2,0,0,0,.266,2.07c.33.591.392,1.568.986,2.206.49.527,1.125,1.034,1.745,1.574.561.488,1.239.9,1.869,1.388.6.463,1.137,1.066,1.773,1.515s1.483.577,2.12,1c.659.434,1.257.944,1.891,1.34.689.43,1.575.461,2.2.83.741.441,1.4.852,1.979,1.181a22.848,22.848,0,0,0,2.046,1.05c.4.212.534,1.3.862,1.613.8.775.906.659,1.706,1.434s.694.892,1.493,1.667.865.7,1.665,1.48.85.721,1.651,1.5.972.588,1.773,1.363.753.827,1.554,1.6.847.724,1.648,1.5,1.113.47,1.864,1.3a3.121,3.121,0,0,1,.664,1.231c-.073.188-.149.375-.231.56-.323.708-.323,1.56-.644,2.268-.087.193-.182.382-.28.57a9,9,0,0,0-.545-.727c-.648-.847-.484-.641-1.339-1.642-.4-.465-.6-1.262-1.137-1.85-.446-.487-1.251-.687-1.777-1.222-.478-.486-.661-1.334-1.192-1.834-.506-.475-1.316-.618-1.861-1.084s-.72-1.379-1.284-1.807-1.327-.6-1.912-.976a20.448,20.448,0,0,0-1.967-.8,14.661,14.661,0,0,0-1.892-.872c-.721-.251-1.364-.748-2.085-1.04s-1.6-.218-2.3-.532-1.094-1.331-1.784-1.657c-.712-.336-1.7-.07-2.378-.4-.718-.347-1.337-.846-2.007-1.164-.738-.351-1.531-.467-2.193-.755-.784-.341-1.356-.978-2.007-1.187a5.787,5.787,0,0,0-2.294-.411,1.918,1.918,0,0,0-1.652,1.188,3.608,3.608,0,0,0,.176,2.036,9.437,9.437,0,0,0,.532,2,17.743,17.743,0,0,0,1.135,1.7,4.282,4.282,0,0,0,.359.475,1.255,1.255,0,0,1-.216-.074c-.668-.309-1.16-.973-1.819-1.2a14.711,14.711,0,0,0-2.088-.579,10.722,10.722,0,0,0-2.174-.332c-.819.026-1.364.812-1.947,1.116-.686.358-1.4.527-1.778,1.164a5.4,5.4,0,0,0-.354,2.159c-.08.705-.62,1.494-.484,2.248a9.575,9.575,0,0,0,.681,2.145,9.373,9.373,0,0,0,1.338,1.743,8.286,8.286,0,0,0,1.43,1.646c.562.416,1.454.2,2.143.445.709.251,1.113,1.255,1.783,1.519.7.276,1.694-.177,2.352.109.7.3,1.381.608,2.024.915.69.329,1.025,1.31,1.651,1.638.684.359,1.309.728,1.913,1.078.68.394,1.48.481,2.054.855.681.442,1.321.821,1.845,1.216a13.408,13.408,0,0,0,1.739,1.438,19.16,19.16,0,0,0,2.063.89c.671.249,1.383.492,2.122.714.683.206,1.358.548,2.1.756.688.191,1.447.236,2.191.448.7.2,1.38.451,2.047.6.728.158,1.433.348,2.086.452.782.124,1.584-.3,2.192-.233a4.631,4.631,0,0,1,1.615.474,6.757,6.757,0,0,0-.893,1.272c-.317.71-.152,1.632-.469,2.343s-.549,1.457-.865,2.168-.881,1.313-1.2,2.024-2.719,6.6-3.034,7.307-3.119,4.151-3.432,4.863-2.276,3.885-2.59,4.6.08,1.729-.233,2.441-.87,1.4-1.182,2.115c-.257.587.107,1.155.711,1.532.641.4,1.125.314,1.4-.313.312-.713,1.078-1.229,1.391-1.942s.682-1.4,1-2.112.73-1.379,1.043-2.091,1.582-3.231,1.9-3.942,2.544-5.3,2.86-6.007,3.008-6.531,3.324-7.242.992-1.264,1.309-1.975a7.313,7.313,0,0,1,.435-.805c.5.449,1.333.694,2.025,1.283.556.475.976,1.236,1.658,1.772.592.466,1.427.679,2.112,1.177.619.45,1.018,1.285,1.711,1.751s1.583.411,2.149.738a22.059,22.059,0,0,0,1.85,1.208,9.5,9.5,0,0,0,2.082.886,10.313,10.313,0,0,0,2.291-.117,16.483,16.483,0,0,1,2.217-.275,8.171,8.171,0,0,1,2.148.179,18.8,18.8,0,0,1,2,.821c.685.262,1.481.231,2.145.481a13.283,13.283,0,0,0,2.089.5,4.875,4.875,0,0,0,2.09.123c.963-.209,1.271-.825.821-1.641a7.483,7.483,0,0,0-1.429-1.692c-.5-.459-1.361-.533-1.972-.936a13.207,13.207,0,0,0-1.71-1.3,5.768,5.768,0,0,0-2.095-.457,11.343,11.343,0,0,1-2.055-.4c-.651-.144-1.269-.475-1.963-.7-.645-.21-1.407-.157-2.078-.411-.643-.244-1.212-.708-1.87-.97s-1.415-.233-2.065-.487-1.365-.355-2.014-.586c-.609-.216-1.215-.493-1.887-.673-.642-.171-1.243-.547-1.907-.69s-1.363-.144-2.016-.262c-.691-.125-1.408,0-2.041-.1a9.344,9.344,0,0,1-1.555-.526c.3-.693.49-1.434.8-2.124.318-.71.71-1.387,1.029-2.1.138-.306.253-.623.367-.94.348.084.77.19,1.243.319C2516.989,2050.78,2517.76,2050.958,2518.555,2051.179Zm-8.188-1.27c-.347-.5-.569-1.238-1.042-1.876-.392-.528-1.194-.786-1.659-1.373-.42-.532-.729-1.2-1.2-1.752-.447-.526-.795-1.171-1.278-1.7s-1.028-.961-1.53-1.455-.8-1.244-1.323-1.7c-.54-.469-1.213-.78-1.767-1.184-.583-.426-1.457-.335-2.047-.666-.605-.339-.827-1.383-1.453-1.775-.595-.373-1.571-.171-2.18-.577-.589-.392-.863-1.282-1.463-1.69s-1.381-.508-1.978-.911-1-1.1-1.6-1.493a2.99,2.99,0,0,0-.716-.319c.159.041.321.08.486.112a21.441,21.441,0,0,1,2.188.229,14.536,14.536,0,0,1,1.945.955c.631.3,1.548.148,2.176.6.522.374,1.024,1,1.735,1.482.581.394,1.063,1.051,1.734,1.5.605.4,1.532.37,2.185.8.621.407,1.2.906,1.847,1.323s.992,1.265,1.626,1.675,1.566.38,2.192.781c.657.421,1.391.683,2,1.076.676.431,1.244.961,1.84,1.339.718.457,1.058,1.364,1.607,1.713a8.979,8.979,0,0,0,1.039.567c-.331.616-.832,1.157-1.118,1.793-.319.709-.782,1.355-1.1,2.064-.3.66-.115,1.531-.343,2.22C2510.778,2050.95,2511.06,2050.908,2510.366,2049.909Z" transform="translate(-2416.42 -1991.611)" fill="#abb5bb"/>
        <g id="Group_374" data-name="Group 374" transform="translate(496.516 20.875)">
          <path id="Path_1071" data-name="Path 1071" d="M4000.014,2131.036c-.475-.875-.219-2.182-.765-3.018s-1-1.781-1.613-2.567-1.6-1.292-2.279-2.023-1.51-1.309-2.25-1.979-1.82-.876-2.619-1.478-1.617-1.057-2.469-1.583-1.487-1.323-2.387-1.769c-.884-.44-1.791-.787-2.729-1.15-.961-.372-1.72-1.372-2.713-1.653s-2.024-.581-3.04-.768-2.117.08-3.145-.008a30.647,30.647,0,0,0-3.088.294,29.572,29.572,0,0,0-3.1-.19,27.7,27.7,0,0,0-3.034.611,32.322,32.322,0,0,0-3.065,1.509c-.447-.576-1.528-1.826-2.317-1.255-.809.586-1.515,1.327-2.28,1.956s-1.19,1.662-1.916,2.337-1.972.844-2.657,1.562-.641,2.1-1.282,2.857-1.109,1.616-1.7,2.411-1.4,1.415-1.939,2.246-1.385,1.475-1.878,2.336-.588,1.928-1.027,2.819-1.432,1.531-1.814,2.446-.81,1.839-1.136,2.779-.317,1.994-.583,2.952-.733,1.876-.937,2.85.42,2.081.281,3.065-.447,1.92-.521,2.912c-.075,1.015-1.085,2.021-1.1,3.078-.014,1.028.362,2.091.427,3.137s.724,2.007.879,3.036a29.651,29.651,0,0,0,.229,3.119,24.214,24.214,0,0,0,1.278,2.845,19.784,19.784,0,0,0,1.623,2.6c.531.885.274,2.349.962,3.143a19.193,19.193,0,0,0,2.425,1.829,22.035,22.035,0,0,0,2.606,1.436,26.981,26.981,0,0,0,2.76,1.027c.886.423,1.613,1.14,2.543,1.489s1.949.3,2.9.59,1.849.634,2.8.872,1.723,1.355,2.679,1.562c1.006.217,2.021.481,3.052.7,1.012.212,2.244-.64,3.274-.445s1.935.973,2.968,1.132,2.1-.076,3.139.034,2.064-.049,3.1,0,2.046.272,3.085.234,2.045-.089,3.077-.228a26.847,26.847,0,0,0,3.064-.431,22.521,22.521,0,0,0,3.083-.692c.985-.407,1.6-1.446,2.5-1.98a20.729,20.729,0,0,0,2.5-1.782,22.094,22.094,0,0,0,2.49-1.869,22.557,22.557,0,0,0,1.828-2.519,23.8,23.8,0,0,0,1.924-2.484c.472-.9.837-1.846,1.216-2.79s1.039-1.8,1.33-2.773.206-2.049.412-3.048.223-2.007.347-3.02.26-2,.305-3.02.437-2.029.407-3.049-.085-2.045-.187-3.059-.726-1.952-.894-2.957-.464-1.96-.7-2.95.457-2.24.16-3.212-1.763-1.552-2.122-2.5-.5-1.966-.925-2.888S4000.5,2131.925,4000.014,2131.036Z" transform="translate(-3938.916 -2097.447)" fill="#fdf4ee"/>
          <path id="Path_1072" data-name="Path 1072" d="M4052.744,2061.727a34.6,34.6,0,0,0-2.562,2.729c-.7,1.028-1.4,2.081-2,3.166s-1,2.289-1.52,3.42-.776,2.364-1.23,3.522-1.247,2.186-1.658,3.359-.446,2.536-.834,3.714c-.579.09-1.416.058-1.839.465a2.787,2.787,0,0,0-.369,2.876,2.261,2.261,0,0,0,1.489,1.632,2.7,2.7,0,0,0,1.175.764,2.9,2.9,0,0,0,2.7-1.018,3.155,3.155,0,0,0,.691-2.826,2.625,2.625,0,0,0-.841-1.137c.359-1.094.611-2.177.99-3.272s.511-2.276.925-3.354,1.121-2.042,1.593-3.094,1.119-2.014,1.669-3.027,1.134-1.987,1.782-2.946a29.559,29.559,0,0,1,1.958-2.843C4056.167,2062.338,4054.06,2060.2,4052.744,2061.727Z" transform="translate(-4010.031 -2061.2)" fill="#584b53"/>
          <path id="Path_1073" data-name="Path 1073" d="M4062.535,2090.766c.141-1.147.753-.367,2-.96.613-.291,1.307-.641,2.1-.934a20.421,20.421,0,0,1,2.178-.757,15.408,15.408,0,0,1,2.26-.541,10.814,10.814,0,0,1,2.311.206,7.568,7.568,0,0,1,2.211.591,6.555,6.555,0,0,1,1.833,1.343,7.49,7.49,0,0,1,1.457,1.754c-.079,1.11-.545.662-1.721,1.347a7.393,7.393,0,0,1-1.995.979,10.357,10.357,0,0,1-2.221.249,12.8,12.8,0,0,1-2.234-.079,16.867,16.867,0,0,1-2.2-.42c-.665-.187-1.275-.7-2.017-.989-.65-.255-1.413-.356-2.122-.7C4063.743,2091.547,4063.219,2091.152,4062.535,2090.766Z" transform="translate(-4025.454 -2079.652)" fill="#584b53"/>
        </g>
      </g>
    </g>
  </g>
</svg>
