<?xml version="1.0" encoding="utf-8"?>
<!-- Generator: Adobe Illustrator 22.0.1, SVG Export Plug-In . SVG Version: 6.00 Build 0)  -->
<svg version="1.1" id="圖層_1" xmlns="http://www.w3.org/2000/svg" xmlns:xlink="http://www.w3.org/1999/xlink" x="0px" y="0px"
	 viewBox="0 0 920.6 269.3" style="enable-background:new 0 0 920.6 269.3;" xml:space="preserve">
<style type="text/css">
	.st0{fill:#C76D63;}
	.st1{fill:#FFFFFF;}
	.st2{fill:#FDF4EE;}
</style>
<g id="joanie" transform="translate(0 0)">
	<g id="Group_370" transform="translate(696.802)">
		<path id="Path_1051" class="st0" d="M14.1,2.9C12.6-1.1,10.4-0.9,8.7,3c-2,4.8-2.9,3.3-4.6,9.4c-0.8,2.9-0.9,6.5-1.7,10.3
			c-0.6,3.2-2,6.6-2.3,10.1c-0.4,3.3,0.4,6.9,0.4,10.4c0,3.4,1.2,6.7,1.7,10.1c0.6,3.4,0,7.1,1.2,10.3c1.1,3.3,2.7,6.5,4.6,9.5
			c1.9,2.7,4.8,5,7.5,7.3c2.6,2.4,5.4,4.4,8.4,6.2c3.2,1.4,6.5,2.6,9.9,3.4c3.4,0.9,6.9,1.5,10.4,1.8c3.7,0.3,7.3,1.1,10.7,0.7
			c3.5-0.6,7-1.6,10.3-2.9c3.3-1.3,6-3.9,8.9-5.8c2.9-2,5.6-4.2,8.1-6.7c2.6-2.4,5.5-4.5,7.8-7.2c2.3-2.7,4.4-5.5,6.4-8.4
			c2-3.1,4.2-6,5.8-8.9c1.9-3.4,3.4-6.8,4.6-9.5c2.6-5.9,1.6-5.1,3.2-10.1c1.3-4-1-6.5-4.7-4.4c-4.1,2.2-3.1,3.9-7.2,6.2
			s-4.8,0.8-8.9,3.1c-3.7,2.1-6.9,0.8-6.8-3.4c0.2-4.8,0.6-4.8,0.7-9.5c0.1-4.2-2.2-5.5-5.2-2.5c-4.2,4.3-4.7,3.8-8.9,8.1
			c-3,3-6.4,3-7.2-1.2c-1.1-5.8,0.8-6.2-0.3-12c-0.8-4.2-5.1-5.1-7.6-1.7c-3.1,4.2-2.8,4.4-5.9,8.6c-2.6,3.4-5.9,3-6.4-1.2
			c-0.7-5.5,0.3-5.6-0.5-11.1c-0.6-4.2-2.8-4.6-5.6-1.4c-3.7,4.2-3.9,4.1-7.6,8.4c-2.8,3.2-7.5,2.5-9.1-1.5
			C16.1,10.2,16.9,9.9,14.1,2.9z"/>
		<g id="Group_369" transform="translate(16.058 32.602)">
			<path id="Path_1052" class="st1" d="M12.1,36.8c-0.6-0.6-1.1-1.3-1.5-2.1c-0.4-0.9-0.7-1.8-0.9-2.7c-0.2-0.6-0.4-1.3-0.6-1.9
				c-0.3-0.8-0.4-1.7-0.5-2.5c-0.1-0.8-0.2-1.6-0.4-2.3c-0.3-0.8-0.6-1.5-1.1-2.2c-0.5-0.7-0.8-1.5-1.1-2.3c-0.2-0.8-0.2-1.7,0-2.5
				c0.1-0.8,0.1-1.7,0-2.5c-0.2-0.8-0.4-1.5-0.7-2.2c-0.3-0.8-0.6-1.6-0.8-2.5c-0.1-0.9-0.1-1.7-0.1-2.6c0-0.8,0-1.5,0-2.3
				C4.3,5.4,4.2,4.7,4,3.9C3.7,3.1,3.6,2.2,3.5,1.4c-0.1-1-1.1-1.4-2-1.4C0.7,0.1-0.1,0.5,0,1.4c0.1,1.1,0.2,2.3,0.4,3.4
				c0.1,0.6,0.1,1.1,0.2,1.7C0.7,7,0.7,7.7,0.8,8.3c0.1,1.1,0.2,2.2,0.4,3.2c0.2,0.9,0.4,1.9,0.7,2.8C2,15,2.3,15.7,2.4,16.4
				c0.1,0.6,0.2,1.2,0.4,1.8c0.2,1,0.4,2.1,0.7,3.1c0.3,0.9,0.6,1.7,1,2.5c0.4,0.7,0.7,1.4,0.9,2.2c0.2,0.6,0.3,1.1,0.5,1.7
				c0.3,1,0.6,2.1,1,3.1c0.3,0.9,0.8,1.8,1.2,2.7c0.3,0.6,0.6,1.3,0.9,1.9c0.3,0.7,0.5,1.5,0.7,2.3c0.2,0.9,0.5,1.8,0.8,2.6
				c0.1,0.3,0.4,0.5,0.7,0.6c0.1,0,0.2,0,0.3,0.1c0.8,0,1.6-0.4,2.1-1c0.3-0.4,0.4-0.9,0.2-1.3C13.2,38.1,12.7,37.4,12.1,36.8z"/>
			<path id="Path_1053" class="st1" d="M22,23.7c0.1-0.7,0.2-1.5,0.3-2.2c0.1-0.9,0.3-1.9,0.3-2.8c0-0.9,0-1.8-0.1-2.7
				c-0.1-0.8-0.1-1.6-0.1-2.4c0.1-0.7-0.4-1.3-1.1-1.4c0,0-0.1,0-0.1,0c-0.7,0-1.3,0.5-1.4,1.3c0,0,0,0.1,0,0.1
				c0,0.9-0.2,1.8-0.3,2.7c-0.1,0.7-0.2,1.5-0.2,2.3c-0.1,0.8,0,1.6,0,2.4c0,0.9,0,1.8,0,2.7c-0.1,0.9-0.3,1.7-0.5,2.6
				c-0.2,0.8-0.4,1.6-0.5,2.4c-0.1,0.6,0.3,1.2,0.9,1.3c0.1,0,0.2,0,0.3,0.1c0.9,0.2,1.7-0.4,1.9-1.3c0,0,0,0,0,0
				C21.7,27,21.9,25.3,22,23.7z"/>
			<path id="Path_1054" class="st1" d="M43,13.4c0.1-0.5,0-1-0.4-1.4c-0.4-0.4-1-0.5-1.6-0.4c-0.4,0.1-0.8,0.5-0.8,0.9
				c-0.3,1-0.6,2-0.9,2.9c-0.3,0.7-0.5,1.5-0.7,2.2S38.1,19.3,38,20c-0.2,1-0.4,2-0.7,2.9c-0.3,0.8-0.4,1.6-0.6,2.5
				c-0.2,1-0.4,1.9-0.7,2.8c-0.4,1-0.9,1.9-1.3,2.9c-0.3,0.7-0.7,1.4-1,2c-0.4,0.8,0,1.7,0.8,2c0.1,0,0.1,0,0.2,0.1
				c0.1,0,0.3,0.1,0.4,0c0.4-0.1,0.8-0.3,0.9-0.7c0.2-0.6,0.5-1.1,0.8-1.7c0.5-1.1,1.1-2.3,1.5-3.5c0.4-1,0.6-2,0.8-3
				c0.2-0.8,0.4-1.7,0.6-2.4c0.3-0.8,0.7-1.6,1.1-2.4c0.5-0.9,0.9-1.8,1.2-2.8c0.3-1,0.4-2,0.6-3.1C42.7,15,42.8,14.2,43,13.4z"/>
			<path id="Path_1055" class="st1" d="M68.3,24.9c-0.5-0.6-1.4-0.7-1.9-0.2c0,0,0,0-0.1,0.1c-0.5,0.6-0.9,1.1-1.4,1.7
				c-0.5,0.8-1.1,1.5-1.8,2.2c-0.4,0.4-0.8,0.9-1.2,1.3c-0.7,0.8-1.4,1.6-2.2,2.3c-0.7,0.6-1.4,1-2.2,1.4c-0.7,0.3-1.4,0.8-2.1,1.3
				c-0.6,0.5-1.1,1.1-1.6,1.7c-0.6,0.7-1.2,1.3-1.9,1.9c-0.8,0.6-1.6,1.1-2.5,1.7c-0.6,0.4-1.1,0.7-1.7,1.1
				c-1.1,0.7-2.2,1.4-3.3,2.1c-0.3,0.2-0.6,0.4-0.9,0.6c-1.2,0.8-2.6,1.6-4.3,2.5c-0.7,0.3-0.9,1.1-0.6,1.7c0,0,0,0.1,0,0.1
				c0.2,0.3,0.4,0.5,0.8,0.6c0.4,0.1,0.7,0,1.1-0.1c0.6-0.3,1.3-0.7,1.9-1c0.9-0.4,1.8-0.9,2.6-1.4l0.7-0.5c1.2-0.7,2.4-1.5,3.5-2.3
				c0.3-0.2,0.7-0.5,1-0.7c1-0.7,2.1-1.5,3.2-2.2c0.8-0.6,1.5-1.3,2.2-2c0.5-0.5,1-1,1.6-1.4c0.6-0.5,1.3-0.9,2-1.3
				c0.8-0.4,1.6-1,2.3-1.6c0.6-0.7,1.2-1.4,1.7-2.2c0.4-0.7,0.9-1.3,1.4-1.9c0.6-0.6,1.3-1,2-1.4c0.8-0.4,1.5-1,2.2-1.7
				C69.3,26.6,69.1,25.5,68.3,24.9z"/>
		</g>
	</g>
	<g id="Group_371" transform="translate(0 58.094)">
		<path id="Path_1056" class="st2" d="M113.4,0c-2.8,0-4.9,1.6-6.7,3.3s-3.1,3.7-3.1,6.1c0,4.6,0.7,4.6,0.7,9.2s-0.3,4.6-0.3,9.2
			s0.2,4.6,0.2,9.2s0.3,4.6,0.3,9.2s0.3,4.6,0.3,9.2s-1.4,4.6-1.4,9.2s0.1,4.6,0.1,9.2s1.1,4.6,1.1,9.2s0.4,4.6,0.4,9.2
			s-1.9,4.6-1.9,9.2s0,4.6,0,9.2s0.7,4.6,0.7,9.2s-0.2,4.6-0.2,9.2s-0.5,4.6-0.5,9.2s0.5,4.6,0.5,9.2c0,2.8,0.7,5.6,0.3,8.3
			c-0.5,2.7-1.2,5.4-2.1,8c-1,2.6-2.3,5-3.7,7.3c-1.3,2.3-2.1,4.9-3.7,6.9c-1.6,2-4.6,2.6-6.6,4.3c-1.9,1.7-3.9,3.2-6.1,4.5
			c-2.4,1.3-4.3,3.8-7,4.7c-2.7,0.8-5.4,1.4-8.2,1.7c-2.8,0.4-5.5,0.7-8.3,0.7c-2.9-0.2-5.8-0.6-8.6-1.3c-2.8-0.6-5.3-2.2-7.9-3.4
			c-2.6-1.1-5.3-2-7.7-3.8c-2.4-1.6-4.7-3.5-6.8-5.5c-2.1-2-4-4.3-5.7-6.7c-1.6-2.4-2.4-5.3-3.6-8c-1-1.3-2.2-2.4-3.5-3.3
			c-1.3-1-2.7-0.9-4.6-0.9c-2-0.1-4,0.5-5.6,1.8c-2,1.5-4,3.1-4,5.6c0,1.6,1.4,3.2,2.3,5c1.3,2.7,3.4,4.9,4.9,7.3
			c1.6,2.5,1.8,6,3.7,8.2s4.5,3.9,6.7,5.9c2.2,1.9,4.6,3.8,7,5.4c2.4,1.8,4.9,3.4,7.5,4.7c2.7,1.3,5.4,2.4,8.3,3.3
			c2.8,1,5.7,1.8,8.6,2.3c3,0.4,6,0.5,8.9,0.5c3,0,5.8-1.2,8.6-1.5c2.8-0.4,5.7-1,8.4-1.7c2.9-0.7,5.9-0.5,8.6-1.5
			c2.7-1.1,5.3-2.5,7.7-4c2.4-1.3,5.3-1.9,7.4-3.5c2.2-1.6,3-4.9,4.9-6.7c2-1.8,3.8-3.7,5.6-5.7c1.6-2.1,3.1-4.4,4.4-6.7
			c1.4-2.5,3.7-4.5,4.8-7.1c1-2.6,1.2-5.6,1.9-8.4c0.7-2.7,0.5-5.6,0.8-8.4c0.4-2.8,0.7-5.6,0.8-8.4c0-4.6,0.4-4.6,0.4-9.2
			s0.4-4.6,0.4-9.2s0-4.6,0-9.2s-0.1-4.6-0.1-9.2s-0.8-4.6-0.8-9.2s1.3-4.6,1.3-9.2s-1.5-4.6-1.5-9.2s2-4.6,2-9.2s-0.8-4.6-0.8-9.2
			s-1.2-4.6-1.2-9.2s1.4-4.6,1.4-9.2s-0.1-4.6-0.1-9.2s0.6-4.6,0.6-9.2s0-4.6,0-9.2s-1.2-4.6-1.2-9.2c0.2-2.3-0.6-4.6-2.1-6.4
			C118.5,1.2,116,0,113.4,0z"/>
		<path id="Path_1057" class="st2" d="M485.7,55.7c-2.6,0.1-5.2,1.2-7,3.1c-1.7,1.8-1.9,4.2-1.9,6.8c0,4.6,0.2,4.6,0.2,9.1
			c0.2,3-0.2,6.1-1.1,9c-1.3-2.6-2.8-5.2-4.6-7.5c-2-2.3-4.2-4.4-6.5-6.4c-2.8-2.6-5.2-5.8-8.5-7.8c-3.2-2-7.2-2.6-10.8-4
			c-2.5-1-4.8-2.7-7.4-3.4c-2.6-0.6-5.3-1-8-1.3c-2.6-0.3-5.4-1.1-8.1-1.1c-3.1,0.2-6.2,0.5-9.3,1.1c-3,0.5-6.1,1.3-9,2.3
			c-3,0.8-5.6,2.4-8.5,3.6c-2.9,1.1-5.6,2.4-8.3,3.9c-2.6,1.7-5.1,3.6-7.4,5.7c-2.4,2-5.4,3.5-7.5,5.8c-2,2.4-3.9,5-5.6,7.7
			c-1.7,2.5-2.8,5.5-4.3,8.4c-1.4,2.4-2.6,5-3.7,7.5c-0.9,2.7-1.6,5.4-2.2,8.1c-0.7,2.7-1.1,5.4-1.6,8.2c-0.5,2.7-2,5.4-2.3,8.2
			c-0.2,2.7-0.1,5.6-0.1,8.5c0,2.8,0.2,5.7,0.4,8.4c0.2,2.8,1.1,5.5,1.5,8.3c0.5,2.8,0.2,5.7,0.9,8.4c0.7,2.7,1.7,5.4,2.7,8
			c1,2.6,3,4.8,4.2,7.3c1.5,2.9,2.2,6.1,3.9,8.8c1.9,2.6,3.9,5.1,6.1,7.4c4.3,4.7,9.2,8.8,14.5,12.4c2.6,1.8,5.3,3.4,8.1,4.8
			c2.8,1.4,5.8,2.6,8.8,3.5c3,0.9,6.1,1.7,9.3,2.2c3.2,0.3,6.3,0.3,9.5,0.2c2.7,0,5.4-0.7,8-1c2.7-0.2,5.3-0.6,8-1.1
			c2.6-0.8,5.1-1.7,7.5-2.9c3.5-1.4,6.8-3,10-4.9c5.7-3.8,10.9-8.4,15.3-13.7c2-2.4,3.8-5.1,5.4-7.8c1,4.7-0.7,4.8-0.7,9.6
			s0,4.8,0,9.6c0,2.4,1.7,4.1,3.4,5.9c1.6,1.8,3.9,2.7,6.3,2.5c2.2,0.1,4.4-0.8,6-2.5c1.7-1.5,2.7-3.7,2.7-6c0-4.8,1-4.8,1-9.5
			s-0.4-4.8-0.4-9.5s-0.3-4.8-0.3-9.5s0.1-4.8,0.1-9.5s-0.1-4.8-0.1-9.5s0.5-4.8,0.5-9.5s-0.5-4.8-0.5-9.5s0.5-4.8,0.5-9.5
			s-0.2-4.8-0.2-9.5s-0.8-4.8-0.8-9.5s-0.1-4.8-0.1-9.5s1.1-4.8,1.1-9.5s-1.1-4.8-1.1-9.5s0.3-4.8,0.3-9.5c0.1-2.3-0.8-4.6-2.5-6.2
			C490.1,57.7,488.3,55.7,485.7,55.7z M451.6,185.2c-2.6,1.9-5.4,3.5-8.4,4.8c-3,1.2-5.9,2.8-9.2,3.4c-3.2,0.7-6.5,1-9.8,1.1
			c-3.4,0-6.6-1.3-9.7-1.9c-3.3-0.6-6.5-1-9.5-2.2c-3.1-1.1-6.1-2.5-9-4.2c-2.8-1.8-4.7-4.7-7.1-7.1c-2.3-2.3-5.4-4-7.4-6.8
			c-1.8-2.7-2.7-6-4.2-9.1c-1.2-2.5-2.3-5-3.2-7.6c-0.9-2.6-1-5.4-1.5-8.1c-0.7-2.6-1.3-5.3-1.7-8c-0.3-2.7-0.8-5.4-0.8-8.2
			s-0.4-5.6-0.1-8.3c0.4-2.7,1-5.5,1.7-8.1c0.5-2.7,1.2-5.4,2-8c0.9-2.6,2.9-4.7,4.2-7.2c1.3-2.9,2.9-5.8,4.7-8.5
			c1.9-2.7,3.7-5.5,6-7.7c2.4-2.2,5.1-4.1,7.9-5.8c5.3-3.8,11.4-6.4,17.9-7.6c3.1-0.6,6.4,0.4,9.8,0.4c3.2-0.1,6.5,0.1,9.7,0.6
			c3.2,0.5,6.3,1.4,9.3,2.6c3,1.2,6.1,2.3,8.9,4.1s4.7,4.5,7.1,6.8c2.4,2.2,4.5,4.7,6.4,7.3c1.9,2.6,4.3,4.9,5.8,8
			c1.6,3.2,2,6.9,3.1,10.3c1.2,3.4,2,6.8,2.7,10.4c0.6,3.5,0.9,7.1,0.9,10.7c0,2.8-0.1,5.6-0.4,8.3c-0.4,2.7-0.9,5.4-1.5,8.1
			c-0.6,2.7-1.5,5.3-2.4,7.9c-0.9,2.6-2.1,5.1-3.3,7.5c-1.3,3-2.8,5.9-4.6,8.7c-1.9,2.8-3.6,5.7-6,8
			C457.5,182,454.4,183.4,451.6,185.2z"/>
		<path id="Path_1058" class="st2" d="M649.4,63.7c-2.2-1.5-4.8-2.2-7.4-3.2c-2.4-1-4.6-2.9-7.4-3.5c-2.7-0.6-5.4-1-8.1-1.3
			c-2.6-0.2-5.4,0.8-8.2,0.8c-3.6,0-7.3-1-10.9-0.4c-3.6,0.8-7,1.9-10.4,3.3c-3.5,1.3-6.3,3.9-9.5,5.7c-3.2,1.8-6.9,2.9-9.8,5.2
			c-2.5,2.2-4.8,4.6-7,7.1c-2.1,2.4-4,5-5.7,7.7c-1.3-3.8-0.9-3.9-0.9-8s0.6-4,0.6-8.1c0.1-2.4-0.7-4.7-2.3-6.4c-1.7-1.8-4-2-6.6-2
			s-4.7,0.5-6.4,2.2s-3,3.8-3,6.1c0,4.7,0.9,4.7,0.9,9.5s-1.1,4.7-1.1,9.5s0.6,4.7,0.6,9.5s0.6,4.7,0.6,9.5s-1.1,4.7-1.1,9.5
			s0,4.7,0,9.5s-0.2,4.7-0.2,9.5s0.8,4.7,0.8,9.5s-0.1,4.7-0.1,9.5s0.4,4.7,0.4,9.5s-0.1,4.7-0.1,9.5s0,4.7,0,9.5s-0.4,4.7-0.4,9.5
			s0.3,4.7,0.3,9.5c0,2.4,0.4,4.7,2.1,6.4c3.3,3.7,8.9,4.1,12.7,0.8c0.3-0.2,0.5-0.5,0.7-0.7c1.8-1.8,1.9-4.2,1.9-6.5
			c0-4.8,0.3-4.8,0.3-9.6s0.9-4.8,0.9-9.6s-0.7-4.8-0.7-9.6s-0.6-4.8-0.6-9.6s-0.1-4.8-0.1-9.6s0.9-4.8,0.9-9.6s-0.7-4.8-0.7-9.6
			s1.1-4.8,1.1-9.6s0.1-4.8,0.1-9.6c0-2.5,0.2-5,0.7-7.5c0.5-2.5,0.7-5.1,1.8-7.4c1-2.4,2.2-4.7,3.7-6.8c1.5-2.3,3.2-4.4,5.1-6.4
			c2-1.8,4.2-3.5,6.5-5c2.2-1.6,4.5-3,6.9-4.3c2.5-1.3,5.3-1.8,7.9-2.6c2.6-0.9,5.2-2.2,8-2.6c2.7-0.4,5.6,0.1,8.4,0.1
			s5.5-0.4,8-0.1c2.8,0.4,5.2,1.7,7.5,2.6c2.5,0.7,4.9,1.8,7.2,3.2c2.9,1.9,5.7,3.8,7.8,6.4c2.1,2.7,3.9,5.6,5.1,8.8
			c1.3,3.4,1.1,7.2,1.7,10.9c0.6,3.5,2.2,7,2.2,10.8c0,4.8-0.9,4.8-0.9,9.6s0,4.8,0,9.6s0.4,4.8,0.4,9.6s0,4.8,0,9.6
			s0.6,4.8,0.6,9.6s-0.5,4.8-0.5,9.6s0,4.8,0,9.6s0.1,4.8,0.1,9.6s-0.6,4.8-0.6,9.6c0,2.4,1.7,4,3.3,5.7s3.4,3.8,6.2,3.8
			c2.4,0,4.6-1.4,6.3-3.2s1.9-4,1.9-6.3c0-4.8,0.5-4.8,0.5-9.7s0.8-4.8,0.8-9.7s-1.3-4.8-1.3-9.7s0.3-4.8,0.3-9.7s1-4.8,1-9.7
			s-0.9-4.8-0.9-9.7s0.5-4.8,0.5-9.7s-1-4.8-1-9.7s0.7-4.8,0.7-9.7c0-3.5-0.8-6.8-1.1-10c-0.4-3.4-0.2-6.8-1-10.1
			c-0.8-3.3-2.6-6.3-3.8-9.4c-1.1-2.9-1.2-6.3-2.8-8.9c-1.8-2.6-3.8-4.9-6.1-7C654.5,67.2,652,65.3,649.4,63.7z"/>
		<path id="Path_1059" class="st2" d="M732,56.6c-2.6,0-5.1,0.6-6.8,2.4s-2.1,4.3-2.1,6.6c0,4.5-0.6,4.5-0.6,9.1s1.2,4.5,1.2,9.1
			s-0.4,4.5-0.4,9.1s0,4.5,0,9.1s-0.3,4.5-0.3,9.1s-0.2,4.5-0.2,9.1s-0.4,4.5-0.4,9.1s1,4.5,1,9.1s-1,4.5-1,9.1s1.1,4.5,1.1,9.1
			s-1,4.5-1,9.1s0.3,4.5,0.3,9.1s-0.5,4.5-0.5,9.1s0.6,4.5,0.6,9.1s-0.6,4.5-0.6,9.1c0.1,2.5,1,4.8,2.7,6.6c3.3,3.6,9,3.9,12.6,0.5
			c0.3-0.2,0.5-0.5,0.7-0.8c1.8-1.7,2.9-3.9,3-6.4c0-4.5-1.2-4.5-1.2-9.1s0.8-4.5,0.8-9.1s-0.8-4.5-0.8-9.1s0-4.5,0-9.1
			s0.9-4.5,0.9-9.1s-0.3-4.5-0.3-9.1s-0.5-4.5-0.5-9.1s-0.3-4.5-0.3-9.1s1-4.5,1-9.1s0.1-4.5,0.1-9.1s0.1-4.5,0.1-9.1s-1-4.5-1-9.1
			s0.1-4.5,0.1-9.1s0.5-4.5,0.5-9.1s0.6-4.5,0.6-9.1c0-2.4-1.6-4.4-3.3-6.2C736.8,57.7,734.5,56.6,732,56.6z"/>
		<path id="Path_1060" class="st2" d="M917.8,129.1c1.8-1.4,2.8-3.5,2.8-5.8c-0.1-3.4-0.5-6.9-1-10.3c-0.3-3.4-0.8-6.8-1.6-10.2
			c-0.9-3.3-2-6.6-3.4-9.8c-1.3-2.7-2.7-5.4-4.3-7.9c-1.5-2.6-3.2-5.1-5.1-7.5c-1.9-2.3-4-4.5-6.3-6.5c-2.1-2-3.8-4.6-6.1-6.2
			c-2.3-1.7-4.8-3.3-7.4-4.6c-2.5-1.3-5.7-1.3-8.4-2.3s-5.3-2.4-8-3c-2.8-0.7-5.6-1.3-8.4-1.7c-2.8-0.3-5.7,0.2-8.6,0.2
			c-3,0-6-1-8.9-0.6c-2.9,0.4-5.6,2.1-8.4,3c-2.8,0.9-5.5,1.9-8.2,3.1c-2.7,1-5.4,2.3-8,3.7c-2.7,1.6-5.8,2.8-8.2,4.8
			c-2.4,2-4.4,4.6-6.6,6.9c-2.2,2.3-4.2,4.7-6.1,7.3c-1.9,2.6-3.6,5.2-5.2,8c-1.4,2.6-2.2,5.5-3.3,8.3c-1.1,2.7-2.5,5.3-3.3,8.3
			c-0.8,2.8-0.8,5.8-1.3,8.8c-0.5,2.9-0.9,5.8-1.1,8.8c-0.2,2.9-0.4,5.8-0.4,8.9c0,2.9,0.1,5.7,0.4,8.5c0.2,2.9-0.4,5.8,0.1,8.6
			c0.5,2.8,2.6,5.2,3.4,7.9c0.8,2.8,0.5,5.8,1.6,8.4c1.1,2.6,3.4,4.6,4.8,7.1c1.5,2.9,3.1,5.6,5,8.2c2,2.6,3.2,5.9,5.4,8.2
			s5.6,3.5,8.2,5.4c2.6,1.9,4.6,4.8,7.4,6.4c2.5,1.4,5,2.7,7.6,3.8c2.6,1.1,5.5,1.4,8.2,2.1c2.7,0.9,5.4,1.6,8.1,2.2
			c2.7,0.5,5.6-0.2,8.4,0c2.7,0.2,5.5,1.3,8.3,1.3c2.7,0.1,5.4,0,8.1-0.2c2.7-0.3,5.3-1.3,7.9-2c2.6-0.7,5.2-1.5,7.7-2.5
			c2.6-0.9,5.1-1.9,7.5-3.1c2.9-1.5,5.8-3.2,8.6-5.1c2.7-2,5.2-4.1,7.6-6.4c2.6-2.1,5-4.4,7.2-6.8c2-1.8,2.1-4.2,2.1-6.6
			c0-1.9-0.7-3.7-2.1-5c-1.3-1.5-3.2-2.4-5.2-2.4c-2.3,0-4.4,1-6,2.6c-1.4,1.9-3.8,3-5.6,4.7c-1.7,1.7-3.5,3.3-5.4,4.8
			c-2.2,1.7-4,3.9-6.5,5.2c-2.4,1.3-5.2,1.9-7.9,2.8c-2.9,1.2-5.9,2.1-8.9,2.7c-3.1,0.4-6.2,0.7-9.3,0.6c-2.8,0-5.6-0.2-8.4-0.6
			c-2.9-0.3-5.8-0.3-8.4-0.9c-2.8-0.6-5.5-1.4-8.2-2.4c-2.6-1.1-4.9-3-7.2-4.5c-2.9-1.8-5.6-3.9-8.2-6.2c-2.5-2.3-4.3-5.2-6.4-8
			c-2.1-2.6-4-5.5-5.7-8.5c-1.2-2.4-2.8-4.7-3.7-7.2c-0.9-2.5-0.8-5.3-1.4-8c-0.6-2.6-2.2-5.1-2.5-7.8c-0.3-2.6,0.1-6.1,0.1-8.8
			c4.5-1.3,4.9,0.4,9.5,0.4s4.7,0.4,9.3,0.4s4.7,0.5,9.3,0.5s4.7-0.6,9.3-0.6s4.7-0.4,9.3-0.4s4.7-0.3,9.3-0.3s4.7,0.4,9.3,0.4
			s4.7,0.2,9.3,0.2s4.7-0.8,9.3-0.8s4.7,0.1,9.3,0.1s4.7,0.1,9.3,0.1s4.7,0.9,9.3,0.9C914.2,132.4,916,130.8,917.8,129.1z
			 M804.5,103.8c1.5-3.5,3.3-6.9,5.4-10.1c2-3.3,4.3-6.4,6.9-9.2c2.5-2.3,5.2-4.4,8.1-6.1c2.8-1.9,5.8-3.4,9-4.6
			c2.9-1.2,5.9-2.1,8.9-2.7c3-0.6,6.1-0.9,9.2-0.8c2.6-0.1,5.2,0,7.8,0.3c2.6,0.4,4.9,1.8,7.4,2.6c2.4,0.8,4.8,1.7,7.1,2.8
			c2.4,1.2,5.4,1.3,7.6,2.8s3.9,3.6,5.9,5.4c1.9,1.9,3.7,3.8,5.3,6c1.8,2.2,3.9,4.3,5.1,6.8c1.2,2.5,1.1,5.6,1.8,8.4
			c0.7,2.6,2.3,5.3,2.5,8.2c0.1,1.2,0.8,2.8-0.4,3.1c-4.4,1.1-4.7-0.5-9.3-0.5s-4.6-0.8-9.2-0.8s-4.6,0.5-9.2,0.5s-4.6-0.2-9.2-0.2
			s-4.6-0.1-9.2-0.1s-4.6,0.6-9.2,0.6s-4.6-0.5-9.2-0.5s-4.6,0.6-9.2,0.6s-4.6-0.1-9.2-0.1s-4.6-0.1-9.2-0.1s-5.2,2.1-9.2,0
			C801.9,111.9,803,107.8,804.5,103.8L804.5,103.8z"/>
		<path id="Path_1061" class="st2" d="M155.9,142.1c-1.8-7.1-2.5-6.9-4.3-14s-1.7-7.1-3.5-14.2c-0.5-2,1.3-3.8,3.1-4.8
			c7.7-4.3,7.6-4.3,15.3-8.6c1.4-0.9,3.3-0.8,4.6,0.4c9.5,7.7,9.3,8,18.8,15.7c1.6,1.3,4.3,0.5,6-0.7c5.3-3.6,10.8-6.7,16.6-9.4
			c5.8-2.6,11.8-4.8,17.9-6.5c6-1.9,12.2-3.3,18.5-4.1c6.3-0.6,12.6-0.7,19-0.2c2.2,0,4.2-1.3,5.1-3.4c3.7-9.5,2.8-9.8,6.5-19.3
			s3.5-9.5,7.2-19c1.3-3.3,6-3.8,8.3-1.1c3,3.6,6.5,8.1,9.8,13c3.1,4.4,6.4,9,9.1,13.6c2.8,4.7,5.2,9.6,7.2,14.7
			c1.9,4.8,2.6,10.9,3.6,17.4c0.9,5.5,2.1,11.4,1.9,17.6c-0.2,5.7-1.9,11.4-3.4,17.4c-1.4,5.7-3.5,11.2-6.2,16.4
			c-2.7,5.2-6,10.1-9.9,14.6c-3.7,4.2-7.6,8.8-12.7,12.4c-4.8,3.5-10,6.5-15.4,9.1c-5.4,2.4-11,4.5-16.7,6.1
			c-5.6,1.7-11.4,2.8-17.2,3.5c-6.2,0.9-12,2.1-17.5,1.7c-5.9-0.5-11.7-1.7-17.3-3.6c-5.6-1.8-11-4.3-16-7.4c-5-3.2-8.8-7.9-12.8-12
			c-4.2-4.3-8.6-8.3-11.7-13.1c-3.3-5.1-5.2-10.8-7.5-15.9C159.6,152.7,157.2,147.2,155.9,142.1z"/>
	</g>
</g>
</svg>
