<svg xmlns="http://www.w3.org/2000/svg" width="235.462" height="91.7" viewBox="0 0 235.462 91.7">
  <g id="leaf_r" transform="translate(-3907.374 -285.764)">
    <g id="Group_402" data-name="Group 402" transform="translate(4095.73 343.369)">
      <path id="Path_1098" data-name="Path 1098" d="M4859.508,570.151c.047-.63.282-.6-.4-1.048-.294-.2-.74-.312-1.159-.562-.329-.2-.718-.385-1.122-.6-.346-.188-.93.018-1.331-.182-.359-.179-.511-.842-.913-1.025-.368-.168-.874-.077-1.278-.247-.375-.157-.824-.17-1.23-.326-.382-.147-.694-.521-1.1-.664-.388-.136-.947.22-1.359.089-.393-.125-.613-.845-1.027-.964-.4-.114-.937.267-1.354.16-.4-.1-.714-.59-1.132-.685s-.854-.007-1.274-.091-.818-.17-1.24-.242-.878.233-1.3.171-.809-.192-1.233-.243-.833.011-1.258-.03-.8-.419-1.225-.448-.808-.616-1.234-.635-.862.575-1.288.565-.834.3-1.261.3-.839-.433-1.266-.422-.825.292-1.25.312-.841-.1-1.266-.072-.883-.474-1.307-.435-.78.642-1.2.69-.848-.041-1.271.016-.782.428-1.2.493-.939-.533-1.357-.46-.732.66-1.15.742-.825.141-1.241.231-.766.4-1.18.494-.926-.261-1.338-.156-.694.647-1.1.76-.894-.088-1.3.031-.914-.11-1.32.016-.791.3-1.195.435-.648.707-1.051.847-.894.108-1.293.255c-.073.615.344.349,1.016.783.292.188.843.08,1.252.322.323.192.428.84.822,1.057.339.187,1.015-.212,1.405-.013.35.179.444.914.835,1.1.358.171.961-.16,1.354.014.366.162.625.591,1.019.753.372.153.89-.052,1.286.1.376.143.56.832.958.972.381.134.911-.151,1.312-.022.386.124.608.8,1.012.919s.8.192,1.209.3.892-.181,1.3-.083.744.421,1.154.508.773.34,1.185.416.793.282,1.206.348.86-.169,1.273-.114.811.166,1.225.21.82.091,1.236.124.843-.315,1.26-.292.8.668,1.214.68.835-.666,1.252-.665.818.145,1.235.136.835.319,1.251.3.809-.281,1.225-.312.8-.216,1.219-.256.856.259,1.27.208.783-.358,1.195-.419.756-.439,1.167-.51.811-.092,1.219-.173.884.224,1.291.133.894.181,1.3.081.729-.493,1.131-.6.725-.457,1.125-.576.917.174,1.314.047.654-.648,1.047-.784.773-.275,1.165-.419.941.149,1.329,0,.547-.845.931-1.006S4859.127,570.32,4859.508,570.151Z" transform="translate(-4812.48 -562.573)" fill="#abb5bb"/>
    </g>
    <g id="Group_403" data-name="Group 403" transform="translate(4053.772 318.804)">
      <path id="Path_1099" data-name="Path 1099" d="M4658.94,452.167c.048-.632-.479-.313-1.163-.765-.3-.2-.619-.484-1.039-.735-.33-.2-.553-.679-.958-.9-.348-.189-1.055.25-1.457.05-.36-.179-.585-.678-.988-.862-.369-.169-.874-.059-1.279-.229-.376-.158-.636-.638-1.043-.795-.384-.147-.877-.023-1.288-.167-.389-.136-.8-.216-1.214-.347-.394-.125-.719-.5-1.134-.619-.4-.114-.908.173-1.326.065-.4-.1-.645-.887-1.065-.982-.4-.092-.891.142-1.312.057s-.763-.5-1.187-.575-.927.486-1.352.424-.788-.407-1.214-.459-.866.247-1.292.207-.821-.156-1.248-.186-.8-.672-1.231-.691-.865.748-1.293.739-.831-.541-1.258-.54-.852-.337-1.279-.326-.846.1-1.273.118-.833.248-1.259.278-.8.54-1.223.58-.826.123-1.25.171-.938-.729-1.362-.672-.747.737-1.168.8-.829.123-1.249.2-.941-.44-1.359-.358-.656.989-1.074,1.079-.877-.088-1.293.01-.783.325-1.2.431-.933-.237-1.345-.124-.8.263-1.213.383-.9-.04-1.306.088-.545,1.059-.951,1.193-.986-.289-1.39-.148-1.14.432-1.541.578c-.074.617.582.6,1.256,1.038.292.189,1.037-.227,1.449.017.325.192.575.569.971.786.34.187.5.778.889.978.351.18.789.242,1.18.428.36.171.86.073,1.253.247.367.162.654.54,1.049.7.373.153.909-.087,1.307.064.378.144.651.585,1.051.725.383.134.771.275,1.174.4.387.125.825.1,1.23.218s.833.042,1.24.151.715.5,1.124.6.722.549,1.133.636.909-.346,1.322-.27.7.8,1.115.862.834.052,1.249.107.827.1,1.243.142.827.1,1.245.138.852-.314,1.27-.292.822.072,1.24.084.825.278,1.243.279.836.171,1.254.161.8-.854,1.214-.874.842.339,1.259.309.825-.032,1.242-.073.78-.423,1.194-.474.917.61,1.331.548.69-.913,1.1-.984.961.652,1.372.571.8-.232,1.211-.323.693-.671,1.1-.771.8-.2,1.2-.308.917.2,1.316.077.667-.647,1.064-.775.727-.416,1.122-.553.817-.152,1.209-.3.67-.542,1.059-.7,1.027.339,1.414.177S4658.558,452.337,4658.94,452.167Z" transform="translate(-4610.859 -444.532)" fill="#abb5bb"/>
    </g>
    <g id="Group_404" data-name="Group 404" transform="translate(3949.307 305.469)">
      <path id="Path_1100" data-name="Path 1100" d="M4156.679,388.089c.047-.632-.479-.313-1.163-.765-.3-.2-.619-.484-1.039-.735-.33-.2-.553-.678-.958-.9-.347-.189-1.055.25-1.457.05-.36-.179-.584-.678-.988-.862-.369-.169-.874-.06-1.279-.229-.376-.158-.636-.638-1.044-.795-.383-.147-.876-.023-1.288-.167-.389-.136-.8-.216-1.213-.347-.394-.125-.718-.5-1.134-.619-.4-.114-.908.172-1.326.065-.4-.1-.646-.887-1.065-.982-.4-.092-.891.142-1.312.057s-.763-.5-1.187-.575-.927.486-1.351.424-.789-.407-1.214-.459-.866.247-1.292.207-.821-.156-1.249-.186-.8-.672-1.231-.691-.865.748-1.292.739-.832-.541-1.259-.54-.851-.336-1.278-.326-.847.1-1.274.118-.833.248-1.259.278-.8.54-1.224.579-.826.123-1.25.171-.939-.73-1.362-.673-.747.738-1.168.8-.829.123-1.25.2-.94-.44-1.359-.358-.657.988-1.074,1.079-.878-.088-1.293.01-.784.325-1.2.431-.934-.237-1.345-.124-.8.263-1.212.383-.9-.04-1.306.087-.545,1.059-.951,1.193-.986-.289-1.389-.148-.869.088-1.27.235a2.954,2.954,0,0,0,.984,1.381c.292.189,1.038-.227,1.449.017.324.192.575.569.97.786.34.187.5.778.889.978.351.179.788.242,1.18.428.36.171.86.073,1.253.247.367.163.654.54,1.049.7.373.153.909-.088,1.307.064.378.144.652.585,1.052.725.382.134.771.275,1.173.4s.826.1,1.23.218.834.042,1.241.151.715.5,1.123.6.722.549,1.134.636.909-.346,1.321-.27.7.8,1.116.863.834.052,1.249.107.827.1,1.243.142.827.1,1.244.138.852-.314,1.27-.292.822.072,1.241.084.824.277,1.243.279.835.171,1.254.161.8-.854,1.214-.873.842.339,1.259.309.826-.032,1.241-.073.78-.423,1.195-.474.917.61,1.331.548.69-.913,1.1-.984.962.653,1.372.571.8-.232,1.211-.323.693-.671,1.1-.771.8-.2,1.2-.308.916.2,1.316.077.667-.647,1.064-.775.727-.416,1.121-.553.818-.152,1.21-.3.67-.541,1.06-.7,1.027.338,1.413.177S4156.3,388.258,4156.679,388.089Z" transform="translate(-4108.875 -380.453)" fill="#abb5bb"/>
    </g>
    <g id="Group_405" data-name="Group 405" transform="translate(3907.374 334.056)">
      <path id="Path_1101" data-name="Path 1101" d="M3955.455,525.456c.048-.632-.479-.313-1.163-.765-.3-.2-.619-.484-1.039-.735-.33-.2-.554-.679-.959-.9-.347-.189-1.055.25-1.457.05-.36-.179-.585-.678-.987-.862-.369-.169-.875-.06-1.28-.229-.376-.158-.636-.638-1.044-.795-.383-.147-.877-.023-1.287-.167-.389-.136-.8-.216-1.214-.347-.394-.125-.718-.5-1.134-.619-.4-.114-.908.173-1.326.065-.4-.1-.645-.887-1.065-.982-.4-.092-.891.141-1.312.057s-.763-.5-1.186-.575-.927.486-1.352.424-.788-.407-1.214-.459-.866.247-1.292.207-.821-.156-1.249-.186-.8-.672-1.231-.691-.865.748-1.293.739-.831-.541-1.259-.54-.851-.337-1.279-.326-.846.1-1.273.118-.833.249-1.26.278-.8.54-1.223.58-.825.123-1.25.171-.939-.729-1.363-.672-.746.737-1.168.8-.829.122-1.249.2-.94-.44-1.359-.358-.656.989-1.074,1.079-.878-.088-1.293.01-.783.325-1.2.431-.933-.237-1.345-.124-.8.263-1.213.383-.9-.04-1.305.088-.545,1.059-.951,1.193-.986-.289-1.39-.149-1.14.432-1.541.578c-.073.617.582.6,1.256,1.038.292.189,1.037-.227,1.449.017.324.192.576.569.971.786.34.187.5.778.889.978.351.179.789.242,1.18.428.36.171.86.073,1.253.247.367.162.654.54,1.049.7.373.153.909-.087,1.307.064.378.144.652.585,1.052.725.383.135.771.275,1.174.4.387.125.825.1,1.23.218s.834.042,1.24.151.715.5,1.124.6.722.549,1.133.636.909-.346,1.321-.27.7.8,1.115.862.834.052,1.25.107.827.1,1.243.142.827.1,1.244.138.852-.314,1.27-.292.823.072,1.24.084.825.278,1.243.279.836.171,1.254.161.8-.854,1.214-.874.842.339,1.259.309.826-.032,1.242-.073.78-.423,1.195-.474.917.61,1.331.548.69-.913,1.1-.984.962.652,1.372.571.8-.233,1.212-.323.693-.67,1.1-.771.8-.2,1.2-.308.916.2,1.317.077.667-.647,1.064-.775.727-.416,1.121-.553.817-.152,1.209-.3.67-.542,1.059-.7,1.028.339,1.414.177S3955.073,525.626,3955.455,525.456Z" transform="translate(-3907.374 -517.821)" fill="#abb5bb"/>
    </g>
    <g id="Group_406" data-name="Group 406" transform="translate(4083.271 294.021)">
      <path id="Path_1102" data-name="Path 1102" d="M4800.631,332.934c.048-.632-.6-.361-1.284-.814-.3-.2-.474-.733-.894-.984-.33-.2-.775-.3-1.181-.517-.348-.189-.844-.163-1.247-.364-.359-.179-.884-.053-1.286-.237-.37-.169-.805-.2-1.21-.366-.376-.158-.647-.6-1.055-.752-.383-.147-.821-.163-1.231-.307-.39-.136-.754-.356-1.167-.487-.394-.125-.712-.53-1.127-.649-.4-.114-.935.264-1.353.157-.4-.1-.633-.94-1.053-1.036-.4-.092-.937.365-1.358.281s-.714-.761-1.137-.834-.861.011-1.285-.051-.917.535-1.342.484-.766-.7-1.193-.737-.856.139-1.284.109-.83-.218-1.258-.237-.846.077-1.273.067-.841.211-1.269.212-.841-.166-1.269-.155-.827.291-1.254.312-.88-.617-1.306-.587-.834.2-1.26.238-.822.265-1.246.313-.851-.007-1.275.05-.879-.151-1.3-.086-.806.323-1.227.4-.75.574-1.169.656-.9-.2-1.317-.105-.852.071-1.268.169-.649.883-1.063.989-.917-.19-1.329-.077-.759.406-1.168.526-.858.069-1.266.2-.654.707-1.059.841-1-.32-1.4-.179-.956.4-1.356.548c-.074.617.6.232,1.276.667.292.189.792.157,1.2.4.324.192.464.775.859.992.34.187.886.035,1.277.235.352.179.691.41,1.083.6.36.171.613.606,1.006.78.367.163.663.535,1.057.7.373.153.949-.176,1.346-.025.378.144.691.481,1.091.622.382.134.712.459,1.114.588.387.125.868-.029,1.273.09s.639.779,1.046.887.909-.217,1.318-.119.763.367,1.174.454.915-.394,1.327-.317.8.121,1.219.187.769.38,1.184.435.776.454,1.192.5.843-.142,1.26-.108.811.258,1.228.281.833-.122,1.251-.11.824.27,1.243.271.823-.391,1.241-.4.841.394,1.259.374.823-.142,1.241-.173.833,0,1.249-.039.75-.715,1.165-.766.8-.139,1.217-.2.9.426,1.313.355.779-.332,1.189-.413.837-.029,1.246-.12.866.054,1.271-.047.736-.467,1.139-.577.765-.33,1.166-.449.763-.323,1.16-.451.8-.193,1.2-.33.881.007,1.273-.139.731-.41,1.12-.564.878-.048,1.264-.21S4800.25,333.1,4800.631,332.934Z" transform="translate(-4752.608 -325.441)" fill="#abb5bb"/>
    </g>
    <g id="Group_407" data-name="Group 407" transform="translate(3973.808 364.985)">
      <path id="Path_1103" data-name="Path 1103" d="M4274.459,674.178a4.651,4.651,0,0,0-1.112-1.058c-.3-.2-.474-.733-.894-.984-.329-.2-.776-.3-1.181-.517-.348-.189-.844-.163-1.247-.364-.359-.179-.884-.053-1.286-.237-.37-.169-.806-.2-1.21-.366-.377-.158-.647-.6-1.055-.752-.383-.147-.821-.163-1.231-.307-.389-.136-.754-.356-1.167-.487-.394-.125-.712-.53-1.127-.649-.4-.114-.935.264-1.353.157-.4-.1-.633-.94-1.053-1.036-.4-.092-.937.365-1.358.281s-.714-.761-1.138-.834-.86.011-1.284-.051-.917.535-1.342.484-.767-.7-1.193-.737-.856.139-1.284.109-.83-.218-1.258-.237-.846.077-1.273.067-.841.211-1.269.212-.841-.166-1.269-.155-.828.291-1.255.312-.879-.617-1.306-.587-.834.2-1.26.239-.822.265-1.247.313-.851-.007-1.274.05-.879-.151-1.3-.086-.807.323-1.227.4-.75.574-1.169.656-.9-.2-1.317-.105-.852.071-1.268.169-.649.883-1.063.989-.917-.19-1.329-.077-.759.406-1.168.526-.858.069-1.266.2-.654.707-1.059.84-1-.32-1.4-.179-.956.4-1.356.548c-.074.617.6.232,1.276.667.292.189.792.157,1.2.4.324.192.464.775.859.992.34.187.886.035,1.277.234.352.179.691.41,1.083.6.36.171.613.606,1.006.78.367.162.663.535,1.057.7.373.153.948-.176,1.346-.025.378.144.691.481,1.091.622.382.134.712.459,1.114.588.387.125.868-.029,1.273.09s.639.779,1.046.887.909-.217,1.318-.119.763.367,1.174.454.915-.394,1.327-.317.8.122,1.219.187.769.38,1.184.435.776.454,1.192.5.843-.142,1.26-.108.811.258,1.228.281.833-.122,1.251-.11.824.27,1.243.271.823-.391,1.241-.4.841.394,1.259.374.823-.142,1.241-.173.833,0,1.249-.039.75-.715,1.165-.766.8-.139,1.217-.2.9.426,1.313.355.779-.332,1.19-.413.837-.029,1.246-.12.866.054,1.271-.047.736-.467,1.139-.577.765-.33,1.166-.449.762-.323,1.16-.451.8-.193,1.2-.33.881.007,1.273-.139.731-.41,1.12-.564.878-.048,1.263-.21S4274.077,674.347,4274.459,674.178Z" transform="translate(-4226.608 -666.441)" fill="#abb5bb"/>
    </g>
    <g id="Group_408" data-name="Group 408" transform="translate(3998.518 285.764)">
      <path id="Path_1104" data-name="Path 1104" d="M4383.672,293.167c.055-.631-.416-.3-1.045-.814-.276-.224-.741-.3-1.136-.587-.312-.225-.573-.576-.957-.826-.332-.216-.556-.659-.942-.886-.347-.2-.9-.081-1.287-.288-.359-.191-.623-.595-1.018-.784-.369-.177-.641-.613-1.041-.785-.377-.162-.841-.166-1.246-.32-.385-.147-.719-.493-1.129-.631-.392-.131-.854-.1-1.269-.221-.4-.116-.908.161-1.326.057-.4-.1-.752-.452-1.173-.539s-.876.163-1.3.093-.74-.726-1.166-.78-.9.573-1.329.535-.813-.231-1.241-.252-.827-.281-1.255-.287-.836.16-1.264.169-.83.093-1.258.117-.873-.411-1.3-.372-.828.211-1.253.264-.852.011-1.275.078-.834.143-1.255.223-.859.035-1.278.128-.722.61-1.137.715-.8.261-1.209.377-.925-.158-1.334-.031-.746.437-1.151.576-.725.47-1.125.619-.946-.112-1.344.047-.746.413-1.139.58-.74.547-1.129.724c-.083.614.34.375.96.867.272.217.52.589.9.867.305.221.736.336,1.109.583.323.214.567.612.94.839.336.205.909.05,1.284.261.347.195.668.461,1.048.656.356.183.772.262,1.156.442.365.171.792.2,1.181.37.372.158.566.77.96.921.378.145.914-.125,1.311.01s.793.17,1.195.291.719.438,1.125.543.731.47,1.14.559.824.081,1.236.154.821.062,1.235.119.826-.029,1.242.011.822-.105,1.239-.081.806.078,1.224.086.817.414,1.235.4.819-.135,1.235-.16.822-.026,1.238-.068.829-.013,1.242-.071.8-.207,1.212-.28.736-.484,1.144-.572.959.486,1.364.383.624-.836,1.025-.953.867.04,1.264-.091.692-.5,1.084-.642.941.16,1.329,0,.58-.739.962-.907.794-.226,1.171-.406.729-.371,1.1-.562S4383.306,293.368,4383.672,293.167Z" transform="translate(-4345.35 -285.764)" fill="#abb5bb"/>
    </g>
    <g id="Group_409" data-name="Group 409" transform="translate(4008.857 336.287)">
      <path id="Path_1105" data-name="Path 1105" d="M4432.8,535.815c.055-.631.151-.478-.479-.989-.276-.224-.686-.405-1.08-.69-.312-.225-.794-.271-1.178-.522-.332-.216-.564-.646-.95-.873-.347-.2-.934-.013-1.324-.22-.358-.191-.533-.774-.927-.964-.37-.177-.78-.3-1.179-.476-.378-.162-.8-.242-1.208-.4-.385-.147-.671-.619-1.082-.756-.392-.131-.98.33-1.394.21-.4-.116-.7-.618-1.115-.721-.4-.1-.833-.13-1.253-.217s-.843-.05-1.266-.12-.812-.234-1.238-.288-.824-.209-1.251-.247-.857.245-1.285.223-.83-.184-1.258-.19-.838-.01-1.266,0-.828.213-1.256.238-.844-.084-1.27-.046-.861-.132-1.286-.079-.771.525-1.195.592-.938-.484-1.359-.4-.676.876-1.095.969-.812.168-1.227.273-.887-.085-1.3.031-.9-.06-1.306.068-.642.741-1.046.88-.873.046-1.274.194-.711.486-1.108.644-.983-.174-1.377-.007-.532.665-.921.841c-.083.614.017.549.637,1.041.273.217.83.18,1.214.458.306.22.7.372,1.072.62.324.214.588.565.96.792.337.205.559.654.935.865.347.195.738.359,1.117.554.356.183.863.1,1.248.276.364.171.593.683.981.849.372.158.745.372,1.139.522.378.145,1.006-.374,1.4-.238s.748.311,1.15.431.7.523,1.105.628.813.129,1.221.218.86-.161,1.272-.088.8.121,1.211.178.791.191,1.206.232.806.085,1.223.109.8.331,1.221.338.825.165,1.243.156.825-.051,1.242-.077.78-.508,1.2-.549.893.544,1.307.487.8-.271,1.209-.344.822-.115,1.23-.2.836-.074,1.241-.177.767-.344,1.168-.461.763-.328,1.16-.459.643-.641,1.035-.785.922.116,1.31-.041.627-.623,1.009-.792.748-.326,1.125-.506.858-.113,1.23-.3S4432.438,536.017,4432.8,535.815Z" transform="translate(-4395.03 -528.541)" fill="#abb5bb"/>
    </g>
  </g>
</svg>
