<svg id="portfolio" xmlns="http://www.w3.org/2000/svg" width="502.267" height="93.408" viewBox="0 0 502.267 93.408">
  <g id="Group_375" data-name="Group 375" transform="translate(0 0)">
    <g id="Group_373" data-name="Group 373" transform="translate(0 34.35)">
      <path id="Path_1062" data-name="Path 1062" d="M2321.387,2132.836a18.152,18.152,0,0,0-6.056-6.522,14.123,14.123,0,0,0-7.895-2.571c-3.106,0-3.106-.017-6.212-.017s-3.106.068-6.213.068-3.106-.077-6.213-.077a4.954,4.954,0,0,0-3.625,1.392,4.852,4.852,0,0,0-1.253,3.625c0,3.375-.046,3.375-.046,6.749s.083,3.374.083,6.749-.1,3.375-.1,6.749-.164,3.375-.164,6.75.043,3.375.043,6.75-.011,3.375-.011,6.75.017,3.375.017,6.751a5.275,5.275,0,0,0,1.285,3.645,4.447,4.447,0,0,0,3.449,1.3,4.23,4.23,0,0,0,3.31-1.5,4.967,4.967,0,0,0,1.511-3.442c0-3.863.057-3.863.057-7.725s-2.872-4.993-.255-7.835c2.408-2.616,3.675.28,7.231.28s3.556-.148,7.112-.148a14.193,14.193,0,0,0,8.051-2.395,18.848,18.848,0,0,0,5.88-6.809,18.185,18.185,0,0,0,1.8-4.44,20.156,20.156,0,0,0,.438-4.771,20.924,20.924,0,0,0-.338-4.834A18.232,18.232,0,0,0,2321.387,2132.836Zm-8.349,13.735a10.365,10.365,0,0,1-2.579,3.331,4.507,4.507,0,0,1-3.022,1.29c-3.556,0-3.556.067-7.112.067s-4.378,2.227-7.092-.07c-2.3-1.946.078-2.986.078-6s-.206-3.011-.206-6.022-2.23-4.124.068-6.07c2.714-2.3,3.6-.1,7.153-.1s3.556.1,7.112.1a4.638,4.638,0,0,1,2.944,1.4,9.78,9.78,0,0,1,2.461,3.252,9.915,9.915,0,0,1,.962,4.379A10.218,10.218,0,0,1,2313.038,2146.572Z" transform="translate(-2283.689 -2122.76)" fill="#fdf4ee"/>
      <path id="Path_1063" data-name="Path 1063" d="M2534.26,2138.781a30.1,30.1,0,0,0-2.6-4.884,28.721,28.721,0,0,0-3.177-4.532,26.729,26.729,0,0,0-4.163-3.571,27.436,27.436,0,0,0-4.818-2.572,25.461,25.461,0,0,0-5.449-1.667,28.554,28.554,0,0,0-5.671-.682,28.864,28.864,0,0,0-5.689.49,25.312,25.312,0,0,0-5.439,1.748,27.1,27.1,0,0,0-4.653,2.818,26.7,26.7,0,0,0-4.156,3.513,28.572,28.572,0,0,0-3.227,4.477,36.633,36.633,0,0,0-3.979,10.553,29.032,29.032,0,0,0-.067,11.621,34.692,34.692,0,0,0,4,10.568,28.415,28.415,0,0,0,3.408,4.323,26.655,26.655,0,0,0,3.963,3.716,27.188,27.188,0,0,0,4.711,2.735,25.3,25.3,0,0,0,5.453,1.675,28.644,28.644,0,0,0,5.673.626,29.117,29.117,0,0,0,5.722-.483,25.637,25.637,0,0,0,5.391-1.94,27.092,27.092,0,0,0,4.748-2.664,26.351,26.351,0,0,0,4.015-3.67,28.432,28.432,0,0,0,3.4-4.326,25.239,25.239,0,0,0,4.105-10.545,33.788,33.788,0,0,0-.005-11.664A30.426,30.426,0,0,0,2534.26,2138.781Zm-9.209,16.6a20.531,20.531,0,0,1-1.848,4.76,17.86,17.86,0,0,1-5.948,7.084,15.432,15.432,0,0,1-8.872,2.767,15.7,15.7,0,0,1-9-2.577,17.944,17.944,0,0,1-5.941-7.193,20.976,20.976,0,0,1-1.6-4.858,24.481,24.481,0,0,1-.518-5.086,25.2,25.2,0,0,1,.391-5.132,20.528,20.528,0,0,1,1.787-4.821,17.864,17.864,0,0,1,5.924-7.115,16.078,16.078,0,0,1,17.908,0,18.137,18.137,0,0,1,5.958,7.159,20.6,20.6,0,0,1,1.739,4.81,22.2,22.2,0,0,1,.018,10.2Z" transform="translate(-2427.987 -2120.676)" fill="#fdf4ee"/>
      <path id="Path_1064" data-name="Path 1064" d="M2791.251,2172.681a2.783,2.783,0,0,1-1.437-1.571,10.108,10.108,0,0,1-.6-2.6c-.081-1.035-.089-2.248-.306-3.611a12.221,12.221,0,0,0-1.15-4.095,13.578,13.578,0,0,0-2.422-3.524,12.926,12.926,0,0,0-2.172-2.059,16.756,16.756,0,0,0,3.136-2.855,19.025,19.025,0,0,0,3.707-5.135,15.215,15.215,0,0,0,1.021-6.113,20.184,20.184,0,0,0-.386-4.726,16.67,16.67,0,0,0-1.783-4.4,16.982,16.982,0,0,0-6.1-6.09,15.037,15.037,0,0,0-7.9-2.352c-2.943,0-2.943.094-5.885.094s-2.942-.008-5.885-.008-2.943-.2-5.886-.2-2.943.029-5.886.029a5.589,5.589,0,0,0-5.088,5.062c0,3.375.242,3.375.242,6.749s-.109,3.375-.11,6.749.055,3.375.055,6.75.048,3.374.048,6.749-.1,3.375-.1,6.75-.115,3.375-.115,6.75.2,3.376.2,6.751a4.323,4.323,0,0,0,1.637,3.613,6.5,6.5,0,0,0,4.133,1.422,3.831,3.831,0,0,0,3.142-1.516,5.454,5.454,0,0,0,1.224-3.518c0-2.643.015-2.643.015-5.286s-.2-2.643-.2-5.286-2.118-3.923.056-5.427c3.143-2.174,3.919.155,7.74.155s3.822-.03,7.644-.03a10.131,10.131,0,0,1,3.219.623,4.782,4.782,0,0,1,3.719,3.2,6.707,6.707,0,0,1,.6,2.571,23.162,23.162,0,0,0,.859,6.916,12.58,12.58,0,0,0,2.031,4.424,11.519,11.519,0,0,0,2.861,2.369,8.973,8.973,0,0,0,2.34.628,6.6,6.6,0,0,0,2.729-.063,3.981,3.981,0,0,0,3.292-4.758A4.719,4.719,0,0,0,2791.251,2172.681Zm-11.735-26.236a10.065,10.065,0,0,1-2.233,3.682,4.222,4.222,0,0,1-2.833,1.451c-2.984,0-2.984-.144-5.967-.144s-2.983.134-5.967.134-4,2.187-6.074.039c-2.146-2.225.067-3.194.067-6.287s-.131-3.093-.131-6.186-1.862-3.848.285-6.074c2.072-2.147,2.868-.21,5.852-.21s2.983.153,5.967.153,2.984-.03,5.968-.03a5.391,5.391,0,0,1,4.228,2.306,9.524,9.524,0,0,1,1.827,6.088A13.917,13.917,0,0,1,2779.516,2146.445Z" transform="translate(-2622.609 -2122.56)" fill="#fdf4ee"/>
      <path id="Path_1065" data-name="Path 1065" d="M3006.222,2124.822a5.049,5.049,0,0,0-3.441-1.589c-3.024,0-3.024.324-6.049.324s-3.024-.168-6.049-.168-3.024-.161-6.048-.161-3.025.224-6.05.224-3.024-.047-6.049-.047-3.025-.06-6.05-.06a5.082,5.082,0,0,0-3.483,1.394,4.142,4.142,0,0,0-1.438,3.311,4.54,4.54,0,0,0,1.274,3.532,5.286,5.286,0,0,0,3.647,1.293c3.208,0,3.208-.241,6.417-.241s4.08-2.042,6.4.171c2.214,2.112.015,3.044.015,6.1s-.156,3.059-.156,6.119.135,3.06.135,6.119-.133,3.059-.133,6.119.083,3.06.083,6.119.178,3.06.178,6.12-.01,3.06-.01,6.12a4.528,4.528,0,0,0,1.477,3.449,4.939,4.939,0,0,0,3.657,1.448,5.535,5.535,0,0,0,3.973-1.245,4.9,4.9,0,0,0,1.505-3.652c0-3.059.079-3.059.079-6.118s-.31-3.059-.31-6.119.246-3.06.246-6.119-.2-3.06-.2-6.119.186-3.059.186-6.119-.049-3.06-.049-6.12-2.3-4.062-.09-6.173c2.322-2.214,3.259.124,6.467.124s3.209-.133,6.417-.133a4.955,4.955,0,0,0,3.459-1.315,4.124,4.124,0,0,0,1.489-3.282A4.234,4.234,0,0,0,3006.222,2124.822Z" transform="translate(-2780.395 -2122.402)" fill="#fdf4ee"/>
      <path id="Path_1066" data-name="Path 1066" d="M3220.609,2123.844c-3.32,0-3.32-.029-6.641-.029s-3.321.123-6.641.123-3.321-.111-6.642-.111-3.321-.061-6.642-.061a4.884,4.884,0,0,0-3.585,1.419,4.759,4.759,0,0,0-1.251,3.585c0,3.375-.12,3.375-.12,6.749s-.15,3.375-.15,6.75.21,3.374.21,6.75-.1,3.374-.1,6.749-.082,3.375-.082,6.75-.006,3.375-.006,6.751-.063,3.375-.063,6.751a4.98,4.98,0,0,0,1.579,3.566,5.108,5.108,0,0,0,3.729,1.505,5,5,0,0,0,3.477-1.6,4.68,4.68,0,0,0,1.684-3.471c0-3.174.067-3.174.067-6.349s-.315-3.175-.315-6.349-1.909-3.935.249-6.263c2-2.158,2.849.049,5.792.049s2.943,0,5.886,0,2.943-.153,5.886-.153a4.723,4.723,0,0,0,3.439-1.5,4.434,4.434,0,0,0,1.713-3.067,4.768,4.768,0,0,0-1.552-3.521,5.026,5.026,0,0,0-3.6-1.261c-2.943,0-2.943.019-5.885.019s-2.942-.144-5.886-.144-3.993,2.339-5.858.061c-2.277-2.783-.191-3.574-.191-7.171s-2.255-4.525.274-7.083c2.5-2.529,3.444-.277,7-.277s3.556.168,7.112.168,3.557.16,7.112.16a4.984,4.984,0,0,0,3.512-1.6,4.265,4.265,0,0,0,1.458-3.142,4.6,4.6,0,0,0-1.384-3.507A4.989,4.989,0,0,0,3220.609,2123.844Z" transform="translate(-2946.971 -2122.796)" fill="#fdf4ee"/>
      <path id="Path_1067" data-name="Path 1067" d="M3424.465,2138.286a30.383,30.383,0,0,0-2.375-4.995,28.614,28.614,0,0,0-3.456-4.309,26.518,26.518,0,0,0-3.994-3.727,27.422,27.422,0,0,0-4.815-2.58,25.571,25.571,0,0,0-5.408-1.879,28.976,28.976,0,0,0-5.715-.659,28.589,28.589,0,0,0-5.671.774,25.492,25.492,0,0,0-5.507,1.549,27.436,27.436,0,0,0-4.71,2.779,26.84,26.84,0,0,0-4.045,3.665,28.415,28.415,0,0,0-3.164,4.514,22.987,22.987,0,0,0-4.01,10.518,33.454,33.454,0,0,0-.559,5.8,33.791,33.791,0,0,0,.422,5.822,26.847,26.847,0,0,0,3.885,10.655,28.742,28.742,0,0,0,3.5,4.286,26.625,26.625,0,0,0,4.043,3.632,27.037,27.037,0,0,0,4.765,2.6,24.991,24.991,0,0,0,5.377,1.841,28.606,28.606,0,0,0,5.674.61,29.044,29.044,0,0,0,5.71-.527,25.525,25.525,0,0,0,5.385-1.922,27.2,27.2,0,0,0,4.787-2.6,26.649,26.649,0,0,0,4.2-3.514,28.7,28.7,0,0,0,3.157-4.537,29.665,29.665,0,0,0,4.157-10.517,36.911,36.911,0,0,0,.07-11.679A30.25,30.25,0,0,0,3424.465,2138.286ZM3415.2,2154.8a20.777,20.777,0,0,1-1.473,4.9,18.025,18.025,0,0,1-6.153,6.982,15.667,15.667,0,0,1-17.748,0,17.527,17.527,0,0,1-5.89-7.094,20.773,20.773,0,0,1-1.861-4.753,34.49,34.49,0,0,1,.14-10.2,20.444,20.444,0,0,1,1.6-4.86,17.971,17.971,0,0,1,5.885-7.177,17.579,17.579,0,0,1,17.973.036,18.249,18.249,0,0,1,6.025,7.146,20.789,20.789,0,0,1,1.619,4.86,24.141,24.141,0,0,1,.388,5.092A23.824,23.824,0,0,1,3415.2,2154.8Z" transform="translate(-3080.43 -2120.137)" fill="#fdf4ee"/>
      <path id="Path_1068" data-name="Path 1068" d="M3667.8,2171.176c-3.556,0-3.556.248-7.111.248s-3.557-.217-7.113-.217-4.468,2.472-7.169.158c-2.314-1.983-.033-3.114-.033-6.161s.125-3.048.125-6.1-.12-3.047-.12-6.1.251-3.048.251-6.1-.307-3.048-.307-6.1.065-3.049.065-6.1-.033-3.048-.033-6.1a4.469,4.469,0,0,0-1.5-3.453,4.891,4.891,0,0,0-3.376-1.6,5.058,5.058,0,0,0-3.646,1.617,4.748,4.748,0,0,0-1.721,3.439c0,3.374.058,3.374.058,6.749s.173,3.375.173,6.75-.247,3.374-.247,6.749.043,3.375.043,6.749.028,3.375.028,6.75.1,3.375.1,6.75-.011,3.375-.011,6.751a4.668,4.668,0,0,0,1.522,3.45,4.828,4.828,0,0,0,3.45,1.683c3.321,0,3.321-.219,6.641-.219s3.321.137,6.641.137,3.321-.149,6.642-.149,3.321.144,6.643.144a5.219,5.219,0,0,0,3.669-1.288,4.6,4.6,0,0,0,1.261-3.513,4.688,4.688,0,0,0-1.276-3.579A5.239,5.239,0,0,0,3667.8,2171.176Z" transform="translate(-3274.647 -2122.655)" fill="#fdf4ee"/>
      <path id="Path_1069" data-name="Path 1069" d="M3841.459,2142.3c0-3.375-.248-3.375-.248-6.751s.216-3.375.216-6.75a4.708,4.708,0,0,0-1.665-3.493,4.856,4.856,0,0,0-3.414-1.5,5.242,5.242,0,0,0-3.8,1.4,4.711,4.711,0,0,0-1.3,3.594c0,3.375-.052,3.375-.052,6.749s-.208,3.375-.208,6.75-.009,3.375-.009,6.75.236,3.375.236,6.749-.163,3.375-.163,6.751.174,3.375.174,6.75-.193,3.375-.193,6.75a4.835,4.835,0,0,0,1.573,3.458,4.71,4.71,0,0,0,3.578,1.495,5.175,5.175,0,0,0,3.641-1.349,4.786,4.786,0,0,0,1.6-3.6c0-3.374-.163-3.374-.163-6.749s.088-3.374.088-6.749-.154-3.375-.154-6.75.189-3.375.189-6.749S3841.459,2145.677,3841.459,2142.3Z" transform="translate(-3417.45 -2122.827)" fill="#fdf4ee"/>
    </g>
    <path id="Path_1070" data-name="Path 1070" d="M2513.62,2044.684c.649.18,1.352.28,2,.467.7.2,1.248.8,1.837.984.943.287,1.748.287,2.016.423a4.875,4.875,0,0,0,2-.3c.569-.143,1.3-.077,2.047-.307.608-.187,1.279-.379,1.978-.614.623-.209,1.284-.427,1.962-.669.631-.225,1.218-.675,1.883-.923.634-.238,1.208-.7,1.863-.96.637-.25,1.323-.379,1.968-.642s1.405-.183,2.042-.454,1.07-1.1,1.7-1.376,1.478-.06,2.094-.348c.643-.3,1.084-1.041,1.688-1.342.644-.321,1.418-.3,2-.62a14.077,14.077,0,0,0,1.837-1.058,10.268,10.268,0,0,0,1.488-1.552,8.305,8.305,0,0,0,1.079-1.845,7.8,7.8,0,0,0,.727-2,7.961,7.961,0,0,0-.163-2.088,9.8,9.8,0,0,0-.065-2.135,73.632,73.632,0,0,0-2.26-3.431,9.964,9.964,0,0,0-1.354-1.563,4.936,4.936,0,0,0-1.984-.458,7.227,7.227,0,0,0-1.971-.071,12.339,12.339,0,0,0-1.994.228,20.243,20.243,0,0,0-1.959.528c-.621.226-1.15.775-1.78,1.053s-1.244.514-1.854.818-1.247.548-1.839.868c-.61.33-1.242.59-1.819.918-.614.35-1.184.738-1.743,1.067-.631.37-1.212.739-1.752,1.052-.575.334-1.3.506-1.908.913-.568.38-.931,1.133-1.514,1.554-.565.409-1.264.639-1.829,1.068s-1.154.824-1.7,1.254c-.569.444-1.065.968-1.6,1.392-.581.458-1.252.741-1.777,1.148-.561.435-1,.941-1.46,1.3.26-.6.423-1.249.7-1.846.286-.631.681-1.213.968-1.844s.6-1.25.887-1.881c.168-.367.329-.739.491-1.109a8.146,8.146,0,0,0,1.189-.52c.517-.275,1.309-.223,2-.591.56-.3.882-1.234,1.536-1.58.577-.307,1.176-.656,1.812-.994.588-.312,1.491-.014,2.117-.347.594-.316,1.2-.642,1.824-.971.6-.318,1.14-.787,1.756-1.114s1.261-.542,1.873-.866,1.2-.678,1.81-1,1.116-.867,1.72-1.188,1.321-.445,1.92-.763c.619-.329.947-1.25,1.542-1.566.625-.332,1.415-.273,2-.585.634-.336,1.067-1.035,1.648-1.342.649-.344,1.379-.415,1.942-.713.682-.361,1.289-.7,1.818-.979.841-.443,1.36-1.015,1.717-1.2a5.017,5.017,0,0,0,1.71-1.087,9.756,9.756,0,0,0,1.383-1.65,13.06,13.06,0,0,0,.776-2.019,13.221,13.221,0,0,0,.786-2.049,7.6,7.6,0,0,0-.2-2.156c-.1-.781-.078-1.71-.516-2.168-.7-.729-1.352-.451-1.656-.526a3.452,3.452,0,0,0-1.63.025c-.437.07-1-.118-1.739-.109-.494.006-1.06.054-1.73.01-.51-.033-1.042.556-1.776.923-.521.26-1.312.186-1.924.615-.505.355-.719,1.211-1.277,1.664-.493.4-1.068.734-1.593,1.2-.483.43-.888.976-1.392,1.453-.476.449-1.422.407-1.911.891-.469.463-.541,1.366-1.019,1.856s-1.349.535-1.816,1.029-.481,1.411-.941,1.908-1.23.68-1.683,1.179-1.049.866-1.495,1.368-.515,1.367-.955,1.87-1.183.754-1.618,1.258c-.447.519-.691,1.207-1.119,1.709-.448.525-.865,1.056-1.287,1.558-.449.533-.642,1.259-1.057,1.757-.451.543-1.34.668-1.745,1.161-.46.56-.661,1.279-1.051,1.759-.485.6-1.037,1.021-1.395,1.467l-.017.021a1.5,1.5,0,0,0-.209-.358c.005-.01.009-.02.015-.031.5-.988.642-.918,1.146-1.906s.31-1.088.813-2.075.606-.936,1.115-1.922.384-1.052.889-2.04a9.527,9.527,0,0,0,.669-2.4,9.013,9.013,0,0,0,.106-2.43c-.031-.574.352-1.262.31-1.952-.038-.606-.209-1.235-.255-1.893-.043-.626-.161-1.259-.213-1.9s-.2-1.268-.255-1.892c-.063-.658-.2-1.283-.273-1.885-.081-.687-.268-1.295-.361-1.858a17.3,17.3,0,0,0-.229-1.869,11.308,11.308,0,0,0-.676-1.956c-.293-.547-.643-1.153-1.034-1.772-.349-.553-.968-.945-1.381-1.509-.4-.542-.6-1.268-1.04-1.781a19,19,0,0,0-1.4-1.482,11.717,11.717,0,0,0-1.717-1.08c-.6-.392-1.063-1.059-1.67-1.236-.675-.2-1.395.281-2.055.433s-1.353-.056-1.9.157a7.44,7.44,0,0,0-1.619,1.063c-.536.386-1.25.653-1.6,1.2a6.234,6.234,0,0,0-.631,1.925,9.31,9.31,0,0,0-.156,1.953c0,.586.4,1.176.488,1.867a18.722,18.722,0,0,0-.035,1.959c.122.563.559,1.146.781,1.888.178.6.1,1.354.329,2.042.205.608.6,1.183.837,1.848.221.615.314,1.313.559,1.963.232.619.342,1.312.59,1.953.241.621.845,1.091,1.1,1.725s.71,1.154.964,1.781.271,1.363.526,1.984.581,1.224.837,1.839c.264.634.51,1.265.767,1.874.27.639.312,1.369.568,1.969.276.647.765,1.161,1.019,1.75.286.663.29,1.417.538,1.987.306.7.462,1.384.693,1.909.073.164.133.3.187.41a2.372,2.372,0,0,0-.648.747c-.288.63-.531,1.281-.818,1.912-.11.242-.2.491-.3.741-.058-.167-.144-.387-.29-.73-.22-.516-.017-1.358-.321-2.037-.248-.553-1.161-.822-1.459-1.456-.266-.565.1-1.51-.2-2.122-.281-.57-.884-.987-1.192-1.583-.3-.571-.95-.939-1.269-1.521s-.117-1.459-.447-2.027-1.156-.8-1.5-1.348-.244-1.429-.606-1.962-1.048-.848-1.432-1.357c-.4-.532-.926-.918-1.337-1.4-.438-.509-.443-1.421-.889-1.852a14.176,14.176,0,0,0-1.5-1.287,7.853,7.853,0,0,0-1.847-.707c-.636-.256-1.216-.62-1.824-.9-.627-.287-1.377-.3-1.973-.594-.623-.31-.98-1.109-1.565-1.41-.627-.324-1.525-.062-2.1-.354-.645-.325-1.143-.844-1.72-1.1a12.12,12.12,0,0,0-1.93-.6c-.781-.208-1.455-.553-2.017-.375-.615.2-.808.9-1.125,1.72a1.959,1.959,0,0,0,.237,1.844c.294.527.349,1.4.878,1.966.436.469,1,.921,1.554,1.4.5.435,1.1.8,1.665,1.236.536.413,1.013.95,1.58,1.35s1.321.514,1.889.889c.587.387,1.12.841,1.685,1.194.614.383,1.4.411,1.956.74.66.393,1.248.759,1.764,1.052a20.4,20.4,0,0,0,1.823.936c.358.189.476,1.155.768,1.437.713.69.807.587,1.52,1.278s.618.795,1.331,1.485.77.628,1.483,1.318.757.642,1.471,1.333.866.524,1.579,1.215.671.737,1.385,1.428.755.645,1.469,1.336.992.419,1.661,1.156a2.785,2.785,0,0,1,.592,1.1c-.065.168-.133.335-.206.5-.287.631-.287,1.39-.574,2.021-.077.172-.162.341-.249.508a8.054,8.054,0,0,0-.486-.648c-.578-.755-.431-.571-1.193-1.463-.354-.414-.533-1.125-1.013-1.649-.4-.434-1.115-.612-1.583-1.089-.426-.433-.589-1.188-1.062-1.634-.451-.423-1.172-.551-1.658-.966s-.642-1.229-1.144-1.61-1.182-.531-1.7-.869a18.232,18.232,0,0,0-1.753-.713,13.062,13.062,0,0,0-1.685-.777c-.643-.223-1.215-.666-1.858-.927s-1.421-.194-2.048-.474-.975-1.186-1.589-1.476c-.634-.3-1.513-.062-2.118-.355-.64-.31-1.191-.754-1.788-1.037-.658-.312-1.364-.416-1.954-.673-.7-.3-1.208-.871-1.788-1.057a5.155,5.155,0,0,0-2.044-.366,1.708,1.708,0,0,0-1.472,1.059,3.214,3.214,0,0,0,.156,1.814,8.421,8.421,0,0,0,.474,1.781,15.835,15.835,0,0,0,1.011,1.512,3.834,3.834,0,0,0,.32.423,1.129,1.129,0,0,1-.192-.066c-.6-.275-1.033-.867-1.621-1.07a13.1,13.1,0,0,0-1.861-.516,9.539,9.539,0,0,0-1.937-.3c-.73.023-1.215.724-1.735.994-.612.319-1.249.469-1.584,1.037a4.814,4.814,0,0,0-.316,1.924c-.071.628-.552,1.331-.431,2a8.535,8.535,0,0,0,.607,1.911,8.358,8.358,0,0,0,1.192,1.553,7.388,7.388,0,0,0,1.274,1.466c.5.371,1.3.178,1.909.4.632.224.991,1.118,1.588,1.354.626.246,1.509-.157,2.1.1.62.269,1.23.542,1.8.815.615.293.914,1.167,1.471,1.459.609.32,1.166.648,1.7.961.605.351,1.319.429,1.83.762.607.394,1.177.732,1.644,1.084a11.934,11.934,0,0,0,1.549,1.282,17.07,17.07,0,0,0,1.838.792c.6.222,1.232.439,1.891.636.608.183,1.21.489,1.874.674.613.17,1.289.21,1.952.4.621.177,1.23.4,1.823.531.648.14,1.277.31,1.859.4.7.111,1.411-.265,1.953-.208a4.125,4.125,0,0,1,1.439.422,6.011,6.011,0,0,0-.8,1.134c-.282.633-.136,1.454-.418,2.087s-.489,1.3-.77,1.932-.785,1.17-1.066,1.8-2.423,5.877-2.7,6.511-2.779,3.7-3.058,4.332-2.028,3.462-2.307,4.1.071,1.54-.208,2.175-.775,1.249-1.053,1.884c-.229.523.1,1.029.634,1.365.571.356,1,.28,1.247-.279.278-.635.961-1.1,1.239-1.73s.608-1.248.887-1.881.65-1.229.93-1.863,1.409-2.878,1.69-3.512,2.267-4.719,2.548-5.352,2.68-5.819,2.962-6.452.884-1.126,1.166-1.759a6.529,6.529,0,0,1,.388-.718c.444.4,1.188.618,1.8,1.143.5.423.869,1.1,1.477,1.579.528.415,1.272.6,1.882,1.048.552.4.907,1.145,1.524,1.56s1.41.366,1.915.658a19.667,19.667,0,0,0,1.648,1.076,8.457,8.457,0,0,0,1.855.79,9.174,9.174,0,0,0,2.041-.1,14.715,14.715,0,0,1,1.976-.245,7.281,7.281,0,0,1,1.914.159,16.733,16.733,0,0,1,1.782.732c.61.233,1.32.206,1.911.428a11.838,11.838,0,0,0,1.861.447,4.343,4.343,0,0,0,1.862.109c.858-.186,1.132-.735.731-1.462a6.667,6.667,0,0,0-1.273-1.508c-.444-.409-1.212-.475-1.757-.834a11.775,11.775,0,0,0-1.524-1.159,5.138,5.138,0,0,0-1.867-.407,10.113,10.113,0,0,1-1.831-.354c-.58-.128-1.131-.423-1.749-.625-.574-.187-1.254-.14-1.851-.366-.573-.218-1.08-.631-1.666-.865s-1.261-.208-1.84-.434-1.216-.316-1.795-.522c-.542-.192-1.082-.439-1.682-.6-.572-.153-1.107-.488-1.7-.615s-1.214-.128-1.8-.233c-.615-.111-1.255,0-1.819-.091a8.336,8.336,0,0,1-1.385-.469c.267-.618.436-1.278.711-1.893.284-.633.633-1.236.917-1.868.123-.273.225-.555.327-.838.31.075.686.169,1.107.284C2512.224,2044.328,2512.912,2044.487,2513.62,2044.684Zm-7.3-1.131c-.309-.445-.507-1.1-.928-1.672-.349-.47-1.064-.7-1.478-1.224-.374-.474-.649-1.067-1.068-1.561-.4-.469-.708-1.043-1.139-1.512s-.916-.856-1.363-1.3-.711-1.108-1.179-1.514-1.081-.695-1.574-1.055c-.519-.379-1.3-.3-1.823-.594s-.737-1.232-1.294-1.581c-.53-.332-1.4-.153-1.942-.514-.525-.349-.769-1.143-1.3-1.506s-1.23-.453-1.762-.812-.891-.981-1.424-1.33a2.654,2.654,0,0,0-.638-.284c.142.036.286.071.433.1a19.119,19.119,0,0,1,1.95.2,12.948,12.948,0,0,1,1.733.85c.563.264,1.379.132,1.939.531.466.333.912.89,1.546,1.32.517.351.948.937,1.545,1.334.54.358,1.365.33,1.947.712.553.363,1.073.807,1.646,1.179s.884,1.127,1.449,1.492,1.4.338,1.953.7c.585.375,1.239.609,1.786.958.6.385,1.109.856,1.639,1.193.64.407.942,1.216,1.432,1.526a7.982,7.982,0,0,0,.926.506c-.295.549-.741,1.031-1,1.6-.284.632-.7,1.208-.981,1.839-.264.588-.1,1.364-.305,1.978C2506.691,2044.48,2506.942,2044.442,2506.324,2043.553Z" transform="translate(-2422.621 -1991.611)" fill="#abb5bb"/>
    <g id="Group_374" data-name="Group 374" transform="translate(442.378 18.599)">
      <path id="Path_1071" data-name="Path 1071" d="M3993.352,2129.067c-.423-.78-.2-1.944-.682-2.688s-.891-1.586-1.437-2.287-1.425-1.151-2.03-1.8-1.345-1.167-2-1.763-1.622-.781-2.333-1.317-1.441-.942-2.2-1.411-1.325-1.179-2.126-1.576-1.6-.7-2.431-1.024c-.856-.331-1.533-1.222-2.417-1.473s-1.8-.518-2.708-.684-1.886.071-2.8-.007a27.3,27.3,0,0,0-2.751.262,26.364,26.364,0,0,0-2.76-.169,24.642,24.642,0,0,0-2.7.544,28.8,28.8,0,0,0-2.731,1.344c-.4-.514-1.361-1.627-2.064-1.118-.721.522-1.35,1.183-2.032,1.743s-1.061,1.481-1.707,2.082-1.757.752-2.367,1.391-.571,1.871-1.142,2.546-.988,1.44-1.517,2.148-1.244,1.261-1.728,2-1.234,1.314-1.673,2.081-.524,1.718-.915,2.511-1.275,1.364-1.616,2.179-.721,1.639-1.012,2.476-.283,1.777-.519,2.63-.653,1.672-.834,2.539.375,1.854.25,2.731-.4,1.71-.464,2.594c-.067.9-.967,1.8-.978,2.743-.012.916.323,1.863.38,2.795s.646,1.788.784,2.705a26.392,26.392,0,0,0,.2,2.779,21.58,21.58,0,0,0,1.138,2.535,17.626,17.626,0,0,0,1.446,2.316c.473.789.245,2.093.857,2.8a17.142,17.142,0,0,0,2.161,1.629,19.656,19.656,0,0,0,2.322,1.279,24.046,24.046,0,0,0,2.459.915c.789.377,1.437,1.016,2.266,1.327s1.737.271,2.582.526,1.647.565,2.5.777,1.535,1.207,2.387,1.391c.9.193,1.8.429,2.719.621.9.189,2-.57,2.917-.4s1.724.867,2.644,1.008,1.874-.067,2.8.03,1.839-.043,2.764,0,1.823.243,2.749.209,1.822-.079,2.741-.2a23.884,23.884,0,0,0,2.73-.384,20.065,20.065,0,0,0,2.747-.616c.877-.363,1.426-1.288,2.225-1.764a18.48,18.48,0,0,0,2.228-1.588,19.678,19.678,0,0,0,2.218-1.665,20.074,20.074,0,0,0,1.628-2.244,21.155,21.155,0,0,0,1.714-2.213c.42-.806.746-1.645,1.084-2.485s.925-1.6,1.185-2.471.183-1.826.367-2.716.2-1.788.309-2.691.232-1.781.272-2.691.389-1.807.363-2.717-.076-1.822-.167-2.726-.646-1.739-.8-2.635-.413-1.746-.623-2.629.407-2,.142-2.862-1.57-1.382-1.89-2.228-.45-1.752-.825-2.573S3993.781,2129.86,3993.352,2129.067Z" transform="translate(-3938.917 -2099.141)" fill="#fdf4ee"/>
      <path id="Path_1072" data-name="Path 1072" d="M4051.409,2061.669a30.846,30.846,0,0,0-2.283,2.431c-.627.916-1.25,1.854-1.784,2.821s-.893,2.04-1.354,3.047-.691,2.106-1.1,3.138-1.11,1.948-1.477,2.993-.4,2.26-.744,3.309c-.516.08-1.262.052-1.639.414a2.482,2.482,0,0,0-.329,2.562,2.015,2.015,0,0,0,1.327,1.454,2.4,2.4,0,0,0,1.046.681,2.582,2.582,0,0,0,2.409-.907,2.812,2.812,0,0,0,.615-2.518,2.337,2.337,0,0,0-.75-1.013c.32-.975.545-1.94.882-2.915s.455-2.028.824-2.989,1-1.82,1.419-2.757,1-1.794,1.487-2.7,1.01-1.771,1.587-2.625a26.443,26.443,0,0,1,1.745-2.533C4054.459,2062.214,4052.582,2060.307,4051.409,2061.669Z" transform="translate(-4013.353 -2061.2)" fill="#584b53"/>
      <path id="Path_1073" data-name="Path 1073" d="M4062.535,2090.416c.125-1.022.671-.327,1.785-.855.546-.259,1.165-.571,1.873-.833a18.252,18.252,0,0,1,1.94-.674,13.72,13.72,0,0,1,2.014-.482,9.636,9.636,0,0,1,2.059.183,6.743,6.743,0,0,1,1.97.527,5.838,5.838,0,0,1,1.633,1.2,6.667,6.667,0,0,1,1.3,1.563c-.07.989-.486.59-1.533,1.2a6.585,6.585,0,0,1-1.777.872,9.25,9.25,0,0,1-1.979.221,11.392,11.392,0,0,1-1.991-.071,15.044,15.044,0,0,1-1.963-.374c-.593-.167-1.136-.622-1.8-.881-.579-.227-1.259-.318-1.891-.624C4063.612,2091.112,4063.144,2090.76,4062.535,2090.416Z" transform="translate(-4029.497 -2080.514)" fill="#584b53"/>
    </g>
  </g>
</svg>
