<svg xmlns="http://www.w3.org/2000/svg" width="387.672" height="306.282" viewBox="0 0 387.672 306.282">
  <g id="project05_07" transform="translate(-9235.693 -871.942)">
    <path id="Path_769" data-name="Path 769" d="M9906.524,1365.628h-7.41c-2.46,12.394-8.072,32.771-16.283,47.184,7.543,1.112,15.413,1.862,23.693,2.256Z" transform="translate(-539.727 -411.745)" fill="#feecd2"/>
    <path id="Path_770" data-name="Path 770" d="M10062.815,1415.281q3.35-.085,6.713-.229c4.59-6.668,9.047-15.8,13.091-26.877,3.018-8.265,5.293-16.125,6.93-22.549h-46.784v49.56C10049.19,1415.425,10055.86,1415.457,10062.815,1415.281Z" transform="translate(-673.115 -411.742)" fill="#f8c499"/>
    <path id="Path_771" data-name="Path 771" d="M10042.766,1365.625h0Z" transform="translate(-673.115 -411.742)" fill="#f8c499"/>
    <path id="Path_772" data-name="Path 772" d="M10155.309,1365.623h0Z" transform="translate(-766.979 -411.74)" fill="#f8c499"/>
    <path id="Path_773" data-name="Path 773" d="M10089.551,1365.622h0Z" transform="translate(-673.115 -411.739)" fill="#f8c499"/>
    <path id="Path_774" data-name="Path 774" d="M10797.022,1300.716a29.956,29.956,0,0,1,.541-5.667h-3.752v53.022q5.442-.279,10.864-.422c4.148-.1,7.118-.312,11.075-.271l1.449-18.036C10803.138,1324.575,10797.022,1311.626,10797.022,1300.716Z" transform="translate(-1299.504 -352.88)" fill="#feecd2"/>
    <path id="Path_775" data-name="Path 775" d="M10256.423,1295.056h-8.985c-.527,2.67-1.178,5.657-1.947,8.86h0q-.17.707-.347,1.426h0q-.107.437-.219.88c-.046.181-.091.363-.138.546h0q-.6,2.391-1.288,4.9c-.45,1.643-.926,3.317-1.427,5.012-4,13.547-9.64,28.431-16.7,39.35,5.561-.279,11.134-.659,16.7-1.1l1.427-.114,1.426-.118q5.993-.5,11.956-1.075v-58.565Z" transform="translate(-825.415 -352.886)" fill="#feecd2"/>
    <path id="Path_776" data-name="Path 776" d="M10959.548,1500.589c-.567.175-1.144.332-1.725.473s-1.149.262-1.733.367a29.855,29.855,0,0,1-8.793.259c-.586-.069-1.166-.153-1.741-.257s-1.161-.228-1.732-.366l-.6,8.332-.221,3.069-.214,2.965-.257,3.57q.882.014,1.758.033l.262.006c.5.011,1,.024,1.494.038l.133,0q.826.023,1.646.051,4.876.163,9.572.483.888.061,1.769.127t1.77.139Z" transform="translate(-1423.541 -524.305)" fill="#999"/>
    <path id="Path_777" data-name="Path 777" d="M10876.785,1084.455a1.426,1.426,0,0,1-.341-1.357,19.907,19.907,0,1,0-39.1-5.268q0,.326.011.652c.02.594.067,1.186.139,1.774q.114.927.313,1.839c.073.336.153.671.244,1a1.425,1.425,0,0,1-.34,1.357,26.852,26.852,0,0,0-5.746,9.281q-.125.345-.241.694-.122.364-.232.732-.1.346-.2.694-.1.365-.189.732-.083.346-.158.694a26.918,26.918,0,0,0,9.758,26.865q.942.737,1.949,1.39.911.591,1.871,1.109a26.713,26.713,0,0,0,5.941,2.339q.855.223,1.731.389.86.164,1.739.274a26.954,26.954,0,0,0,8.384-.276c.583-.112,1.161-.241,1.73-.39s1.156-.323,1.723-.513a26.807,26.807,0,0,0,5.954-2.851,10.335,10.335,0,0,1-1.557-5.467V1104.82a10.418,10.418,0,0,1,10.406-10.406h1.207c.339,0,.674.018,1,.049A26.835,26.835,0,0,0,10876.785,1084.455Z" transform="translate(-1329.97 -155.114)" fill="#3fb266"/>
    <path id="Path_778" data-name="Path 778" d="M10435.088,1295.048h-2.706v58.29q4.063-.4,8.1-.8l1.542-.155,1.555-.157,1.815-.184c14.473-1.465,29.32-2.966,44.126-3.813v-53.179h-54.431Z" transform="translate(-998.064 -352.879)" fill="#f8c499"/>
    <path id="Path_779" data-name="Path 779" d="M10028.567,1629.4q-3.977-.332-8.08-.547-1.742-.091-3.507-.16-.839-.033-1.685-.062c-.55-.018-1.1-.035-1.657-.05q-.993-.027-1.994-.049-.876-.018-1.757-.032-6.595-.1-13.544.076-5.452.138-10.937.427c-.475.025-.95.053-1.426.078l-1.427.079c-14.693.845-29.452,2.337-43.839,3.794l-.5.051-1.585.16-1.568.159q-4.8.484-9.643.958l-1.426.138-1.427.136q-5.958.567-11.956,1.073l-1.426.117-1.427.114c-6.233.495-12.48.909-18.712,1.192q-.848.038-1.7.074l-.131.005q-.932.038-1.861.073-2.244.082-4.483.142c-7.49.189-14.657.14-21.549-.149q-.715-.03-1.426-.063a242.31,242.31,0,0,1-25.274-2.462q-.771-.118-1.537-.241t-1.543-.254q-2.531-.425-5.016-.905v17.607c16.851,3.309,35.273,4.661,56.273,4.129,19.19-.486,38.73-2.464,57.627-4.378,18.95-1.919,38.545-3.9,57.844-4.391,20.982-.531,39.438.8,56.346,4.074v-17.607A219.368,219.368,0,0,0,10028.567,1629.4Z" transform="translate(-491.1 -630.957)" fill="#0092d1"/>
    <g id="Group_254" data-name="Group 254" transform="translate(9543.047 942.153)">
      <path id="Path_780" data-name="Path 780" d="M11101.2,1296.834a7.6,7.6,0,0,0-1.6-1.082,7.521,7.521,0,0,0-3.379-.8h-1.207a7.562,7.562,0,0,0-7.554,7.554v1.965h16.314V1302.5A7.539,7.539,0,0,0,11101.2,1296.834Z" transform="translate(-11087.455 -1294.951)" fill="#fdd108"/>
      <path id="Path_781" data-name="Path 781" d="M11095.571,1420.995h-8.116v1.965a7.548,7.548,0,0,0,1.868,4.966,7.623,7.623,0,0,0,1.034.981,7.517,7.517,0,0,0,4.651,1.608h1.207a7.562,7.562,0,0,0,7.554-7.554v-1.965h-8.2Z" transform="translate(-11087.455 -1400.074)" fill="#fdd108"/>
      <path id="Path_782" data-name="Path 782" d="M11099.218,1369.489h-11.763v5.7h16.314v-5.7h-4.552Z" transform="translate(-11087.455 -1357.117)" fill="#fdd108"/>
    </g>
    <g id="Group_271" data-name="Group 271" transform="translate(9270.665 1038.334)">
      <g id="Group_255" data-name="Group 255" transform="translate(82.019 19.798)">
        <path id="Path_783" data-name="Path 783" d="M9952.44,1994.056a1.037,1.037,0,0,0-.789-.347h-3.844a1.248,1.248,0,0,0-1.221,1.085l-6.036,49.154a1.062,1.062,0,0,0,.25.833,1.034,1.034,0,0,0,.788.347h3.845a1.249,1.249,0,0,0,1.221-1.085l6.035-49.154A1.058,1.058,0,0,0,9952.44,1994.056Z" transform="translate(-9940.543 -1993.709)" fill="#8dc556"/>
      </g>
      <g id="Group_263" data-name="Group 263" transform="translate(0 19.725)">
        <g id="Group_256" data-name="Group 256" transform="translate(0 0.082)">
          <path id="Path_784" data-name="Path 784" d="M9486.262,1998.773l.473-3.844a1.054,1.054,0,0,0-.248-.826,1.027,1.027,0,0,0-.782-.344h-37.62a1.241,1.241,0,0,0-1.213,1.078l-.472,3.844a1.049,1.049,0,0,0,.247.826,1.028,1.028,0,0,0,.782.344h15.715l-5.42,44.14a1.054,1.054,0,0,0,.248.826,1.027,1.027,0,0,0,.781.344h3.845a1.242,1.242,0,0,0,1.213-1.078l5.431-44.232h15.808A1.241,1.241,0,0,0,9486.262,1998.773Z" transform="translate(-9446.391 -1993.759)" fill="#f0831e"/>
        </g>
        <g id="Group_257" data-name="Group 257" transform="translate(23.827 0.116)">
          <path id="Path_785" data-name="Path 785" d="M9636.463,2027.9c1.036-.9,4.105-3.973,4.246-4.113l.014-.014a1.2,1.2,0,0,0,.316-.809,1.029,1.029,0,0,0-.36-.784l-2.769-2.334a1.154,1.154,0,0,0-1.588.177c-.446.5-1.283,1.364-1.794,1.885l-8.883-27.244a1.014,1.014,0,0,0-.985-.7h-5.424a1.252,1.252,0,0,0-1.062.631l-28.068,49.12a1.116,1.116,0,0,0-.039,1.074,1.028,1.028,0,0,0,.919.543h4.222a1.249,1.249,0,0,0,1.062-.628c3.864-6.6,9.782-16.571,10.4-17.276,0,0,5.152-3.111,12.9,1.952,3.272,2.139,9.731,2.087,11.246,1.542l4.467,13.709a1.014,1.014,0,0,0,.985.7h4.222a1.235,1.235,0,0,0,.968-.488,1.155,1.155,0,0,0,.2-1.059Zm-7.489-2.587a16.522,16.522,0,0,1-9.089-2.2,18.323,18.323,0,0,0-9.732-2.727l10.972-19.182Z" transform="translate(-9589.947 -1993.966)" fill="#f0831e"/>
        </g>
        <g id="Group_258" data-name="Group 258" transform="translate(99.947)">
          <path id="Path_786" data-name="Path 786" d="M10077.652,1993.268a28.2,28.2,0,0,0-19.13,7.524,28.548,28.548,0,0,0-9.75,18.165c-.869,7.081.918,13.224,5.313,18.262a22.121,22.121,0,0,0,17.336,7.553c12.826,0,20.548-8.464,23.271-12.1a1.145,1.145,0,0,0,.158-1.133,1.017,1.017,0,0,0-.952-.613h-4.7a1.227,1.227,0,0,0-.89.4c-2.374,2.546-8.821,7.361-16.229,7.361a20.11,20.11,0,0,1-13.416-6.508,16.024,16.024,0,0,1-3.8-13.124,21.838,21.838,0,0,1,7.507-13.928,21.506,21.506,0,0,1,14.632-5.761c7.662,0,13.065,5.416,14.354,7.313a1.033,1.033,0,0,0,.859.444h4.669a1.246,1.246,0,0,0,1.013-.551,1.132,1.132,0,0,0,.1-1.139A22.59,22.59,0,0,0,10077.652,1993.268Z" transform="translate(-10048.559 -1993.268)" fill="#f0831e"/>
        </g>
        <g id="Group_259" data-name="Group 259" transform="translate(151.26 0.103)">
          <path id="Path_787" data-name="Path 787" d="M10402.61,2014.347h0a1.064,1.064,0,0,0-.822-.27,1.234,1.234,0,0,0-.781.39c-.416.444-1.364,1.35-2.04,1.983l2.626-21.392a1.05,1.05,0,0,0-.247-.826,1.029,1.029,0,0,0-.782-.344h-3.879a1.242,1.242,0,0,0-1.213,1.078l-3.044,24.792a33.187,33.187,0,0,1-11.148-2.725c-3.66-1.679-8.025-3.733-14-1.124l2.561-20.851a1.053,1.053,0,0,0-.247-.826,1.027,1.027,0,0,0-.782-.344h-3.845a1.24,1.24,0,0,0-1.212,1.078l-6.036,49.154a1.05,1.05,0,0,0,.248.826,1.026,1.026,0,0,0,.781.344h3.845a1.241,1.241,0,0,0,1.213-1.078l2.557-20.82a11.763,11.763,0,0,1,8.857-1.336c4.891,1.135,11.341,4.831,16.445,3.906l-2.229,18.157a1.05,1.05,0,0,0,.248.826,1.026,1.026,0,0,0,.781.344h3.879a1.241,1.241,0,0,0,1.213-1.078l2.461-20.044a47.471,47.471,0,0,0,7.207-5.749,1.149,1.149,0,0,0,.362-.832,1.059,1.059,0,0,0-.329-.769Z" transform="translate(-10357.712 -1993.888)" fill="#f0831e"/>
        </g>
        <g id="Group_260" data-name="Group 260" transform="translate(200.569 0.076)">
          <path id="Path_788" data-name="Path 788" d="M10700.162,1993.727h-3.844a1.241,1.241,0,0,0-1.213,1.078l-3.309,26.946a20.214,20.214,0,0,1-6.07,12.252,16.078,16.078,0,0,1-11.448,5.034,12.287,12.287,0,0,1-10.151-5,16.016,16.016,0,0,1-3.041-12.2l3.309-26.945a1.049,1.049,0,0,0-.247-.826,1.027,1.027,0,0,0-.782-.344h-3.844a1.241,1.241,0,0,0-1.213,1.078L10655,2021.75c-.783,6.378.649,11.919,4.258,16.469a17.464,17.464,0,0,0,14.365,6.909c5.9,0,11.281-2.311,15.991-6.869a26.827,26.827,0,0,0,8.269-16.417l3.309-26.945a1.049,1.049,0,0,0-.247-.826A1.027,1.027,0,0,0,10700.162,1993.727Z" transform="translate(-10654.792 -1993.727)" fill="#f0831e"/>
        </g>
        <g id="Group_261" data-name="Group 261" transform="translate(247.254 0.092)">
          <path id="Path_789" data-name="Path 789" d="M10985.611,1993.82h-3.811a1.241,1.241,0,0,0-1.212,1.078l-3.677,29.941-28.151-30.689a1.046,1.046,0,0,0-.771-.33h-4.668a1.24,1.24,0,0,0-1.212,1.078l-6.04,49.188a1.053,1.053,0,0,0,.247.826,1.028,1.028,0,0,0,.782.344h3.845a1.24,1.24,0,0,0,1.212-1.078l5.173-42.123,28.551,31.194-1.331,10.837a1.05,1.05,0,0,0,.248.826,1.026,1.026,0,0,0,.781.344h3.811a1.241,1.241,0,0,0,1.213-1.078l6.039-49.188a1.053,1.053,0,0,0-.247-.826A1.029,1.029,0,0,0,10985.611,1993.82Z" transform="translate(-10936.063 -1993.82)" fill="#f0831e"/>
        </g>
        <g id="Group_262" data-name="Group 262" transform="translate(300.951 0.213)">
          <path id="Path_790" data-name="Path 790" d="M11311.074,2017.518a1.026,1.026,0,0,0-.781-.344h-24.509a1.241,1.241,0,0,0-1.213,1.078l-.472,3.844a1.053,1.053,0,0,0,.247.826,1.028,1.028,0,0,0,.782.344h19.26c-1.509,4.871-8.712,16.528-21.382,16.528a16.662,16.662,0,0,1-13.092-5.728,16.939,16.939,0,0,1-4.036-13.8,21.772,21.772,0,0,1,7.469-13.894,21.423,21.423,0,0,1,14.563-5.761,18.012,18.012,0,0,1,14.328,7.283,1.034,1.034,0,0,0,.856.441h4.669a1.245,1.245,0,0,0,1.014-.552,1.13,1.13,0,0,0,.095-1.14,23.022,23.022,0,0,0-6.308-7.424,22.421,22.421,0,0,0-14-4.664,27.958,27.958,0,0,0-19.021,7.488,28.417,28.417,0,0,0-9.748,18.133c-.867,7.059.925,13.168,5.322,18.155a21.876,21.876,0,0,0,17.236,7.557,27.822,27.822,0,0,0,18.267-6.879c5.188-4.336,9.587-11.567,10.231-16.82l.473-3.844A1.05,1.05,0,0,0,11311.074,2017.518Z" transform="translate(-11259.581 -1994.554)" fill="#f0831e"/>
        </g>
      </g>
      <g id="Group_269" data-name="Group 269" transform="translate(73.7 0)">
        <g id="Group_264" data-name="Group 264" transform="translate(11.27)">
          <path id="Path_791" data-name="Path 791" d="M9971.55,1883.159c-.444,5.084-5.62,9.206-7.4,9.206-1.6,0-6.237-4.121-5.792-9.206s3.718-8.729,7.361-8.729S9971.994,1878.075,9971.55,1883.159Z" transform="translate(-9958.324 -1874.43)" fill="#f3a8bb"/>
        </g>
        <g id="Group_265" data-name="Group 265" transform="translate(0 8.376)">
          <path id="Path_792" data-name="Path 792" d="M9901.508,1925.487c4.7,1.571,6.618,7.423,5.919,9.119-.629,1.524-6.4,5-11.094,3.43s-6.907-5.507-5.479-8.972S9896.811,1923.915,9901.508,1925.487Z" transform="translate(-9890.425 -1924.895)" fill="#f3a8bb"/>
        </g>
        <g id="Group_266" data-name="Group 266" transform="translate(2.998 16.96)">
          <path id="Path_793" data-name="Path 793" d="M9911.164,1980.654c3.349-4.113,9.71-4.618,11.062-3.569,1.214.942,2.284,7.212-1.064,11.325s-7.986,5.326-10.747,3.184S9907.816,1984.767,9911.164,1980.654Z" transform="translate(-9908.485 -1976.614)" fill="#f3a8bb"/>
        </g>
        <g id="Group_267" data-name="Group 267" transform="translate(15.952 16.96)">
          <path id="Path_794" data-name="Path 794" d="M9999.121,1980.654c-2.628-4.113-8.9-4.618-10.436-3.569-1.379.942-3.546,7.212-.918,11.325s7.055,5.326,10.19,3.184S10001.75,1984.767,9999.121,1980.654Z" transform="translate(-9986.53 -1976.614)" fill="#f3a8bb"/>
        </g>
        <g id="Group_268" data-name="Group 268" transform="translate(17.119 8.376)">
          <path id="Path_795" data-name="Path 795" d="M10001.115,1925.487c-4.973,1.571-7.916,7.423-7.514,9.119.362,1.524,5.521,5,10.494,3.43s7.871-5.507,7.048-8.972S10006.088,1923.915,10001.115,1925.487Z" transform="translate(-9993.565 -1924.895)" fill="#f3a8bb"/>
        </g>
      </g>
      <g id="Group_270" data-name="Group 270" transform="translate(85.84 11.692)">
        <circle id="Ellipse_12" data-name="Ellipse 12" cx="4.979" cy="4.979" r="4.979" fill="#fff"/>
      </g>
    </g>
    <g id="Group_277" data-name="Group 277" transform="translate(9381.904 1129.717)">
      <g id="Group_272" data-name="Group 272" transform="translate(0 0)">
        <path id="Path_796" data-name="Path 796" d="M10118.168,2450.51a1.531,1.531,0,0,1-1.1-.453,1.5,1.5,0,0,1-.467-1.118v-22.365a1.5,1.5,0,0,1,.467-1.118,1.53,1.53,0,0,1,1.1-.453h4.526a.852.852,0,0,1,.626.253.868.868,0,0,1,0,1.225.851.851,0,0,1-.626.253h-3.515a.188.188,0,0,0-.213.213v21.62a.188.188,0,0,0,.213.213h3.515a.851.851,0,0,1,.626.253.868.868,0,0,1,0,1.225.852.852,0,0,1-.626.253Z" transform="translate(-10116.597 -2425.002)" fill="#0092d1"/>
      </g>
      <g id="Group_273" data-name="Group 273" transform="translate(17.339 0.24)">
        <path id="Path_797" data-name="Path 797" d="M10230.911,2441.6a1.337,1.337,0,0,1,.4.985,1.307,1.307,0,0,1-.319.879.859.859,0,0,1-.719.346h-.026a.908.908,0,0,1-.746-.373q-.772-1.039-1.863-2.316a.125.125,0,0,0-.094-.013.062.062,0,0,0-.04.066v9.053a1.209,1.209,0,0,1-.359.892,1.253,1.253,0,0,1-1.757,0,1.209,1.209,0,0,1-.359-.892v-8.068a.064.064,0,0,0-.054-.066.151.151,0,0,0-.106.013,24.425,24.425,0,0,1-1.971,1.917.932.932,0,0,1-.639.266,1.223,1.223,0,0,1-.239-.027,1.124,1.124,0,0,1-.746-.559,1.446,1.446,0,0,1-.213-.772v-.24a1.358,1.358,0,0,1,.506-.879,25.264,25.264,0,0,0,3.555-3.648,24.272,24.272,0,0,0,2.81-4.34.123.123,0,0,0-.014-.12.112.112,0,0,0-.094-.067h-5.4a1.148,1.148,0,0,1-.826-.333,1.084,1.084,0,0,1-.346-.812,1.181,1.181,0,0,1,1.172-1.172h2.4c.142,0,.213-.062.213-.186v-3.461a1.177,1.177,0,0,1,.359-.865,1.253,1.253,0,0,1,1.757,0,1.177,1.177,0,0,1,.359.865v3.461a.165.165,0,0,0,.187.186h1.651a.909.909,0,0,1,.771.133l.347.24a1.021,1.021,0,0,1,.426.573,1.072,1.072,0,0,1-.027.706,28.908,28.908,0,0,1-3.008,5.378.232.232,0,0,0,.053.32,5.917,5.917,0,0,1,.586.559c.106.089.2.08.267-.026q.691-.905,1.3-1.864a.925.925,0,0,1,.652-.439.954.954,0,0,1,.759.2.99.99,0,0,1,.359.692.935.935,0,0,1-.253.746l-1.651,1.811a.194.194,0,0,0,0,.293Q10230.592,2441.277,10230.911,2441.6Zm12.887-12.86a1.576,1.576,0,0,1,1.118.452,1.5,1.5,0,0,1,.427,1.065q0,7.562-.532,14.511-.321,4.021-1.065,5.006a2.952,2.952,0,0,1-.959,1.012,3.473,3.473,0,0,1-1.251.4,11.238,11.238,0,0,1-1.784.106c-.23,0-.471-.009-.719-.027a1.476,1.476,0,0,1-1.025-.4,2.217,2.217,0,0,1-.625-.985.918.918,0,0,1-.054-.293.939.939,0,0,1,.16-.532.776.776,0,0,1,.719-.346q.932.027,2.13.027a.232.232,0,0,0,.106.027,1.163,1.163,0,0,0,.959-.479q.584-.665.865-4.367t.466-12.594a.165.165,0,0,0-.187-.186h-4.367c-.142,0-.213.063-.213.186q-.053,2.077-.159,3.648t-.347,3.514a25.34,25.34,0,0,1-.665,3.515,32.976,32.976,0,0,1-1.039,3.168,13.754,13.754,0,0,1-1.57,2.969,14.385,14.385,0,0,1-2.21,2.49,1.242,1.242,0,0,1-.825.32.505.505,0,0,1-.16-.027,1.472,1.472,0,0,1-.959-.479,1.164,1.164,0,0,1,.027-1.731,11.692,11.692,0,0,0,2.036-2.21,12.145,12.145,0,0,0,1.425-2.689,27.567,27.567,0,0,0,.919-2.836,21.363,21.363,0,0,0,.546-3.182q.186-1.811.253-3.168t.119-3.275a.188.188,0,0,0-.213-.213h-2.875a1.2,1.2,0,1,1,0-2.4Z" transform="translate(-10221.06 -2426.447)" fill="#0092d1"/>
      </g>
      <g id="Group_274" data-name="Group 274" transform="translate(53.102 0.24)">
        <path id="Path_798" data-name="Path 798" d="M10447.715,2437.5a1.5,1.5,0,0,1-1.49,1.491.165.165,0,0,0-.187.186v10.038a3.408,3.408,0,0,1-.173,1.211,1.282,1.282,0,0,1-.652.679,4.656,4.656,0,0,1-1.838.346,1.25,1.25,0,0,1-.785-.28,1.405,1.405,0,0,1-.492-.706.674.674,0,0,1,.639-.932h.8a.363.363,0,0,0,.253-.067.414.414,0,0,0,.066-.279v-2.237c0-.124-.071-.187-.213-.187h-3.168a.165.165,0,0,0-.187.187v3.461a1.01,1.01,0,0,1-.32.759,1.06,1.06,0,0,1-.758.306,1.015,1.015,0,0,1-.746-.306,1.031,1.031,0,0,1-.306-.759v-11.236a.165.165,0,0,0-.187-.186,1.4,1.4,0,0,1-1.012-.413,1.369,1.369,0,0,1-.427-1.025v-1.225a1.41,1.41,0,0,1,1.385-1.384c.124,0,.187-.053.187-.16v-5.857a1.545,1.545,0,0,1,1.57-1.571h4.873a1.536,1.536,0,0,1,1.105.452,1.5,1.5,0,0,1,.466,1.119v5.857c0,.106.062.16.187.16a1.342,1.342,0,0,1,1,.426,1.4,1.4,0,0,1,.412,1.012Zm-2.156.692c.142,0,.213-.062.213-.186v-1.119c0-.124-.071-.186-.213-.186h-6.9q-.214,0-.214.186V2438c0,.124.071.186.214.186Zm-5.379-8.973a.189.189,0,0,0-.213.213v5.325c0,.124.071.187.213.187h.8c.142,0,.213-.062.213-.187v-2.5a1.545,1.545,0,0,1,1.57-1.571h1.2c.124,0,.187-.071.187-.213v-1.038c0-.142-.062-.213-.187-.213Zm3.462,12.381c.142,0,.213-.062.213-.187v-1.225c0-.124-.071-.186-.213-.186h-3.168a.165.165,0,0,0-.187.186v1.225a.165.165,0,0,0,.187.187Zm-3.354,3.2a.164.164,0,0,0,.187.186h3.168c.142,0,.213-.062.213-.186v-1.278c0-.124-.071-.187-.213-.187h-3.168a.165.165,0,0,0-.187.187Zm2.369-10.038a.165.165,0,0,0,.187.187h1.118a.165.165,0,0,0,.187-.187v-2.37a.165.165,0,0,0-.187-.186h-1.118a.165.165,0,0,0-.187.186Zm14.564,14.245a.136.136,0,0,0,.014.133.113.113,0,0,0,.093.053h2.849a.905.905,0,0,1,.666.266.891.891,0,0,1,.267.653.936.936,0,0,1-.267.666.882.882,0,0,1-.666.279h-12.008a.882.882,0,0,1-.666-.279.931.931,0,0,1-.266-.666.886.886,0,0,1,.266-.653.905.905,0,0,1,.666-.266h2.742a.13.13,0,0,0,.12-.067.12.12,0,0,0,.014-.12,9.26,9.26,0,0,0-.347-.959,1.482,1.482,0,0,1-.106-.559,1.631,1.631,0,0,1,.106-.559,1.281,1.281,0,0,1,.8-.745c.018-.018.018-.044,0-.08h-1.012a1.531,1.531,0,0,1-1.105-.453,1.5,1.5,0,0,1-.466-1.118v-1.97a1.5,1.5,0,0,1,.466-1.118,1.534,1.534,0,0,1,1.105-.453h7.642a1.532,1.532,0,0,1,1.1.453,1.5,1.5,0,0,1,.467,1.118v1.97a1.5,1.5,0,0,1-.467,1.118,1.529,1.529,0,0,1-1.1.453h-1.145c-.019,0-.026.009-.026.027a.023.023,0,0,0,.026.026l.053.027a1.125,1.125,0,0,1,.825.692,1.357,1.357,0,0,1,.106.506,1.212,1.212,0,0,1-.159.585Q10457.54,2448.44,10457.221,2449Zm2.77-10.917a.905.905,0,0,1,0,1.811h-11.316a.905.905,0,0,1,0-1.811Zm-1.438-9.266a1.5,1.5,0,0,1,1.118.466,1.532,1.532,0,0,1,.453,1.1v4.979a1.547,1.547,0,0,1-1.571,1.571h-8.52a1.545,1.545,0,0,1-1.571-1.571v-4.979a1.531,1.531,0,0,1,.452-1.1,1.5,1.5,0,0,1,1.119-.466h1.357a.188.188,0,0,0,.213-.213v-1.251a.905.905,0,0,1,1.811,0v1.251a.188.188,0,0,0,.213.213h1.2a.188.188,0,0,0,.213-.213v-1.225a.9.9,0,0,1,.267-.666.933.933,0,0,1,1.3,0,.906.906,0,0,1,.267.666v1.225a.188.188,0,0,0,.213.213Zm-7.961,1.677c-.124,0-.187.071-.187.213v1.145c0,.142.063.213.187.213h1.118a.188.188,0,0,0,.213-.213v-1.145a.188.188,0,0,0-.213-.213Zm0,3.168c-.124,0-.187.071-.187.213v1.172c0,.142.063.213.187.213h1.118a.188.188,0,0,0,.213-.213v-1.172a.188.188,0,0,0-.213-.213Zm.612,8.893a.189.189,0,0,0-.213.213v1.544a.188.188,0,0,0,.213.213h6.1a.188.188,0,0,0,.213-.213v-1.544a.189.189,0,0,0-.213-.213Zm5.166,3.728a.11.11,0,0,0-.027-.12.163.163,0,0,0-.133-.067h-4.153a.085.085,0,0,0-.08.053.165.165,0,0,0,0,.133,9.809,9.809,0,0,1,1.118,2.8.075.075,0,0,1-.053.107h1.97a.293.293,0,0,0,.293-.187A20.719,20.719,0,0,0,10456.369,2446.283Zm-2.956-14.431a.188.188,0,0,0,.213.213h1.2a.188.188,0,0,0,.213-.213v-1.145a.189.189,0,0,0-.213-.213h-1.2a.189.189,0,0,0-.213.213Zm1.624,2.023a.189.189,0,0,0-.213-.213h-1.2a.189.189,0,0,0-.213.213v1.172a.188.188,0,0,0,.213.213h1.2a.188.188,0,0,0,.213-.213Zm2.9-1.811c.124,0,.187-.071.187-.213v-1.145c0-.142-.062-.213-.187-.213h-1.225a.188.188,0,0,0-.213.213v1.145a.188.188,0,0,0,.213.213Zm0,3.2c.124,0,.187-.071.187-.213v-1.172c0-.142-.062-.213-.187-.213h-1.225a.188.188,0,0,0-.213.213v1.172a.188.188,0,0,0,.213.213Z" transform="translate(-10436.532 -2426.447)" fill="#0092d1"/>
      </g>
      <g id="Group_275" data-name="Group 275" transform="translate(88.041 0.293)">
        <path id="Path_799" data-name="Path 799" d="M10648.47,2449.585a.7.7,0,0,1-.453.36.709.709,0,0,1-.586-.067.849.849,0,0,1-.372-.453,1.179,1.179,0,0,1-.027-.24.772.772,0,0,1,.08-.346,14.676,14.676,0,0,0,.879-4.659.557.557,0,0,1,.226-.466.634.634,0,0,1,.52-.12.761.761,0,0,1,.506.306.9.9,0,0,1,.187.546A15.813,15.813,0,0,1,10648.47,2449.585Zm5.777-9.745a.188.188,0,0,0,.213.213h1.6a1.435,1.435,0,0,1,1.092.453,1.458,1.458,0,0,1,.452,1.065,60.371,60.371,0,0,1-.373,6.79,5.426,5.426,0,0,1-.691,2.556,2.024,2.024,0,0,1-1.438.8,8.027,8.027,0,0,1-1.3.08,1.069,1.069,0,0,1-.746-.293,1.419,1.419,0,0,1-.426-.719.741.741,0,0,1,.119-.625.552.552,0,0,1,.52-.253h.853a.831.831,0,0,0,.719-.293,8.142,8.142,0,0,0,.506-2.876.076.076,0,0,0-.027-.053.033.033,0,0,0-.053,0,.654.654,0,0,1-.546-.026.638.638,0,0,1-.359-.426,17.981,17.981,0,0,0-.959-2.316.491.491,0,0,1,0-.386.484.484,0,0,1,.293-.279,1.252,1.252,0,0,1,.24-.027.581.581,0,0,1,.532.346,20.131,20.131,0,0,1,.879,1.97c0,.018.013.022.04.013s.039-.022.039-.04q.054-1.358.134-3.275c0-.142-.062-.213-.187-.213h-5.618a1.53,1.53,0,0,1-1.1-.453,1.5,1.5,0,0,1-.467-1.118v-11.129a1.5,1.5,0,0,1,.467-1.118,1.531,1.531,0,0,1,1.1-.453h6.63a1,1,0,0,1,1.012,1.011,1.022,1.022,0,0,1-.293.732.956.956,0,0,1-.719.306h-1.917c-.143,0-.213.063-.213.186v1.7c0,.124.07.186.213.186h1.465a1,1,0,0,1,.984.985.907.907,0,0,1-.292.679.973.973,0,0,1-.692.28h-1.465a.188.188,0,0,0-.213.213v1.7a.188.188,0,0,0,.213.213h1.518a.969.969,0,0,1,.692.279.9.9,0,0,1,.293.679,1,1,0,0,1-.985.985h-1.518c-.143,0-.213.063-.213.187Zm-4.313,4.74a.465.465,0,0,1,.106-.426.6.6,0,0,1,.4-.213.5.5,0,0,1,.439.106.7.7,0,0,1,.253.4,30.214,30.214,0,0,1,.239,3.7.662.662,0,0,1-.187.466.691.691,0,0,1-.452.226.449.449,0,0,1-.426-.12.467.467,0,0,1-.16-.413v-.426A27.147,27.147,0,0,0,10649.934,2444.58Zm2.369-14.591c0-.124-.07-.186-.213-.186h-1.7a.165.165,0,0,0-.187.186v1.7a.164.164,0,0,0,.187.186h1.7c.143,0,.213-.062.213-.186Zm-.213,5.964a.188.188,0,0,0,.213-.213v-1.7a.188.188,0,0,0-.213-.213h-1.7c-.125,0-.187.071-.187.213v1.7c0,.142.062.213.187.213Zm-1.7,1.944a.165.165,0,0,0-.187.187v1.757c0,.142.062.213.187.213h1.7a.188.188,0,0,0,.213-.213v-1.757c0-.124-.07-.187-.213-.187Zm3.168,9.4a.621.621,0,0,1-.133.466.7.7,0,0,1-.4.253.486.486,0,0,1-.427-.094.548.548,0,0,1-.213-.386,20.328,20.328,0,0,0-.691-3.248.483.483,0,0,1-.027-.16.522.522,0,0,1,.054-.24.472.472,0,0,1,.346-.24.635.635,0,0,1,.745.426A17.287,17.287,0,0,1,10653.555,2447.3Zm9.053-12.221a1.511,1.511,0,0,1-1.092-.439,1.443,1.443,0,0,1-.452-1.078.064.064,0,0,0-.054-.066.08.08,0,0,0-.08.013,14.878,14.878,0,0,1-1.757,1.411.96.96,0,0,1-.56.187.933.933,0,0,1-.293-.053,1.14,1.14,0,0,1-.692-.559,1.124,1.124,0,0,1-.186-.612.79.79,0,0,1,.053-.293,1.072,1.072,0,0,1,.479-.745,16.129,16.129,0,0,0,2.676-2.3,16.466,16.466,0,0,0,2.117-2.756,1.959,1.959,0,0,1,1.73-1.012,2.068,2.068,0,0,1,1.783.958,18.527,18.527,0,0,0,5.033,4.9,1.254,1.254,0,0,1,.559.772,1.82,1.82,0,0,1,.027.293,1.229,1.229,0,0,1-.933,1.225.993.993,0,0,1-.319.053,1.026,1.026,0,0,1-.612-.213q-.746-.532-1.544-1.225c-.019-.017-.045-.017-.08,0a.085.085,0,0,0-.054.08,1.39,1.39,0,0,1-.439,1.038,1.456,1.456,0,0,1-1.052.426Zm4.446,9.532a1.227,1.227,0,0,1,.427-.746,1.094,1.094,0,0,1,.719-.266h.079a.965.965,0,0,1,.905,1.145,11.513,11.513,0,0,1-.372,1.624.357.357,0,0,0,.08.346q1.518,1.492,2.716,2.929a.954.954,0,0,1,.213.612.506.506,0,0,1-.027.16.978.978,0,0,1-.4.666.877.877,0,0,1-.731.2,1.084,1.084,0,0,1-.68-.386q-.746-.985-1.863-2.237c-.089-.106-.16-.1-.213.027a9.192,9.192,0,0,1-1.438,2.05,1.353,1.353,0,0,1-.984.426.3.3,0,0,1-.134-.027,1.731,1.731,0,0,1-1.145-.506l-.4-.346a.113.113,0,0,0-.106,0,.427.427,0,0,1-.666-.027,22.869,22.869,0,0,0-1.518-1.784c-.089-.089-.169-.071-.239.053a9.322,9.322,0,0,1-1.864,2.583.946.946,0,0,1-.692.293h-.079a1.272,1.272,0,0,1-.772-.373.862.862,0,0,1-.293-.666.937.937,0,0,1,.319-.719,8.556,8.556,0,0,0,2.423-5.006,1.228,1.228,0,0,1,.427-.746,1.094,1.094,0,0,1,.719-.266h.08a.976.976,0,0,1,.731.373.912.912,0,0,1,.2.772,14.771,14.771,0,0,1-.346,1.438.286.286,0,0,0,.105.32,22.6,22.6,0,0,1,1.73,1.757,1.172,1.172,0,0,1,.32.825,1.358,1.358,0,0,1-.373.958c-.018.018-.018.027,0,.027A8.4,8.4,0,0,0,10667.054,2444.606Zm-6.923-1.651a1.53,1.53,0,0,1-1.1-.453,1.5,1.5,0,0,1-.466-1.118v-3.249a1.5,1.5,0,0,1,.466-1.118,1.531,1.531,0,0,1,1.1-.453h2.477a1.547,1.547,0,0,1,1.571,1.571v3.249a1.547,1.547,0,0,1-1.571,1.571Zm.32-4.74a.165.165,0,0,0-.187.187v2.663c0,.142.062.213.187.213h1.7c.124,0,.187-.071.187-.213V2438.4a.165.165,0,0,0-.187-.187Zm.985-5.219a.087.087,0,0,0-.027.107.084.084,0,0,0,.08.053h6.363a.084.084,0,0,0,.08-.053.088.088,0,0,0-.026-.107,20.5,20.5,0,0,1-3.222-3.807.1.1,0,0,0-.094-.053.1.1,0,0,0-.093.053A18.14,18.14,0,0,1,10661.437,2433Zm5.484,9.958a1.529,1.529,0,0,1-1.1-.453,1.494,1.494,0,0,1-.467-1.118v-3.249a1.5,1.5,0,0,1,.467-1.118,1.53,1.53,0,0,1,1.1-.453h2.636a1.547,1.547,0,0,1,1.571,1.571v3.249a1.547,1.547,0,0,1-1.571,1.571Zm.347-4.74a.165.165,0,0,0-.187.187v2.663c0,.142.062.213.187.213h1.863a.188.188,0,0,0,.213-.213V2438.4c0-.124-.071-.187-.213-.187Z" transform="translate(-10647.031 -2426.767)" fill="#0092d1"/>
      </g>
      <g id="Group_276" data-name="Group 276" transform="translate(123.246 0)">
        <path id="Path_800" data-name="Path 800" d="M10864.54,2425a1.531,1.531,0,0,1,1.1.453,1.5,1.5,0,0,1,.466,1.118v22.365a1.5,1.5,0,0,1-.466,1.118,1.532,1.532,0,0,1-1.1.453h-4.526a.849.849,0,0,1-.626-.253.868.868,0,0,1,0-1.225.847.847,0,0,1,.626-.253h3.514a.189.189,0,0,0,.214-.213v-21.62a.189.189,0,0,0-.214-.213h-3.514a.848.848,0,0,1-.626-.253.868.868,0,0,1,0-1.225.849.849,0,0,1,.626-.253Z" transform="translate(-10859.135 -2425.002)" fill="#0092d1"/>
      </g>
    </g>
    <g id="Group_287" data-name="Group 287" transform="translate(9382.156 1164.294)">
      <g id="Group_278" data-name="Group 278" transform="translate(0 0.196)">
        <path id="Path_801" data-name="Path 801" d="M10125.639,2635.772a2.459,2.459,0,0,1-.021.341.641.641,0,0,1-.072.233.36.36,0,0,1-.119.129.261.261,0,0,1-.14.041h-4.9v4.547h4.629a.292.292,0,0,1,.14.036.335.335,0,0,1,.119.119.585.585,0,0,1,.072.222,2.535,2.535,0,0,1,.021.356,2.352,2.352,0,0,1-.021.336.632.632,0,0,1-.072.227.424.424,0,0,1-.119.135.243.243,0,0,1-.14.046h-4.629v5.57a.248.248,0,0,1-.187.243,1.535,1.535,0,0,1-.269.062,2.94,2.94,0,0,1-.434.026,2.992,2.992,0,0,1-.424-.026,1.527,1.527,0,0,1-.278-.062.248.248,0,0,1-.187-.243V2635.73a.663.663,0,0,1,.212-.563.732.732,0,0,1,.449-.16h6.014a.264.264,0,0,1,.14.041.351.351,0,0,1,.119.135.7.7,0,0,1,.072.243A2.585,2.585,0,0,1,10125.639,2635.772Z" transform="translate(-10118.529 -2634.924)" fill="#0092d1"/>
        <path id="Path_802" data-name="Path 802" d="M10119.083,2648.106a3.092,3.092,0,0,1-.436-.027,1.628,1.628,0,0,1-.295-.066.332.332,0,0,1-.241-.321v-12.379a.744.744,0,0,1,.244-.629.822.822,0,0,1,.5-.177h6.014a.354.354,0,0,1,.184.053.437.437,0,0,1,.147.165.8.8,0,0,1,.083.272,2.774,2.774,0,0,1,.021.358,2.483,2.483,0,0,1-.022.353.722.722,0,0,1-.083.263.447.447,0,0,1-.146.158.349.349,0,0,1-.184.054h-4.814v4.38h4.546a.374.374,0,0,1,.179.046.414.414,0,0,1,.15.148.655.655,0,0,1,.084.254,2.566,2.566,0,0,1,.021.369,2.386,2.386,0,0,1-.021.348.708.708,0,0,1-.083.257.494.494,0,0,1-.143.16.327.327,0,0,1-.187.062h-4.546v5.486a.35.35,0,0,1-.054.183.343.343,0,0,1-.187.138,1.626,1.626,0,0,1-.284.066A3.013,3.013,0,0,1,10119.083,2648.106Zm-.228-13.434a.648.648,0,0,0-.4.143.594.594,0,0,0-.179.5v12.379a.18.18,0,0,0,.029.1.182.182,0,0,0,.1.069,1.462,1.462,0,0,0,.263.058,2.909,2.909,0,0,0,.412.025,2.847,2.847,0,0,0,.421-.025,1.457,1.457,0,0,0,.254-.058.187.187,0,0,0,.1-.068.181.181,0,0,0,.029-.1v-5.653h4.712a.163.163,0,0,0,.093-.032.335.335,0,0,0,.094-.108.551.551,0,0,0,.063-.2,2.328,2.328,0,0,0,.02-.323,2.525,2.525,0,0,0-.02-.344.531.531,0,0,0-.061-.19.254.254,0,0,0-.088-.09.214.214,0,0,0-.1-.026h-4.712v-4.713h4.98a.182.182,0,0,0,.1-.029.288.288,0,0,0,.091-.1.581.581,0,0,0,.062-.2,2.464,2.464,0,0,0,.02-.329,2.6,2.6,0,0,0-.02-.335.653.653,0,0,0-.062-.214.28.28,0,0,0-.09-.1.184.184,0,0,0-.1-.029Z" transform="translate(-10118.111 -2634.506)" fill="#0092d1"/>
      </g>
      <g id="Group_279" data-name="Group 279" transform="translate(13.956 0.134)">
        <path id="Path_803" data-name="Path 803" d="M10204.474,2647.8a.256.256,0,0,1-.041.145.282.282,0,0,1-.145.1,1.575,1.575,0,0,1-.274.062,2.96,2.96,0,0,1-.429.026,2.992,2.992,0,0,1-.424-.026,1.548,1.548,0,0,1-.278-.062.281.281,0,0,1-.146-.1.256.256,0,0,1-.041-.145v-12.834a.238.238,0,0,1,.046-.145.313.313,0,0,1,.155-.1,1.741,1.741,0,0,1,.279-.062,2.8,2.8,0,0,1,.408-.026,2.96,2.96,0,0,1,.429.026,1.578,1.578,0,0,1,.274.062.282.282,0,0,1,.145.1.256.256,0,0,1,.041.145Z" transform="translate(-10202.613 -2634.55)" fill="#0092d1"/>
        <path id="Path_804" data-name="Path 804" d="M10203.167,2647.794a3.092,3.092,0,0,1-.436-.027,1.628,1.628,0,0,1-.295-.066.351.351,0,0,1-.186-.131.334.334,0,0,1-.056-.191v-12.834a.317.317,0,0,1,.063-.194.383.383,0,0,1,.194-.127,1.874,1.874,0,0,1,.293-.065,2.877,2.877,0,0,1,.421-.027,3.048,3.048,0,0,1,.441.027,1.7,1.7,0,0,1,.289.066.357.357,0,0,1,.186.131.334.334,0,0,1,.056.191v12.834a.334.334,0,0,1-.056.191.351.351,0,0,1-.186.131,1.649,1.649,0,0,1-.289.066A3.083,3.083,0,0,1,10203.167,2647.794Zm0-13.5a2.657,2.657,0,0,0-.4.025,1.623,1.623,0,0,0-.266.059.233.233,0,0,0-.114.069.15.15,0,0,0-.03.095v12.834a.171.171,0,0,0,.027.1.2.2,0,0,0,.1.066,1.456,1.456,0,0,0,.264.058,2.884,2.884,0,0,0,.411.025,2.837,2.837,0,0,0,.416-.025,1.446,1.446,0,0,0,.259-.058.208.208,0,0,0,.1-.066.171.171,0,0,0,.027-.1v-12.834a.172.172,0,0,0-.027-.1.211.211,0,0,0-.1-.066,1.49,1.49,0,0,0-.259-.058A2.837,2.837,0,0,0,10203.167,2634.3Z" transform="translate(-10202.195 -2634.132)" fill="#0092d1"/>
      </g>
      <g id="Group_280" data-name="Group 280" transform="translate(23.521 0.196)">
        <path id="Path_805" data-name="Path 805" d="M10269.24,2648.11a.309.309,0,0,1-.031.145.238.238,0,0,1-.135.1,1.148,1.148,0,0,1-.289.062,4.66,4.66,0,0,1-.5.021,3.737,3.737,0,0,1-.438-.021.97.97,0,0,1-.274-.067.38.38,0,0,1-.16-.129.814.814,0,0,1-.1-.207l-1.23-3.152q-.215-.538-.449-.987a3.148,3.148,0,0,0-.553-.775,2.263,2.263,0,0,0-.754-.506,2.709,2.709,0,0,0-1.044-.181h-1.188v5.694a.238.238,0,0,1-.046.145.3.3,0,0,1-.146.1,1.379,1.379,0,0,1-.269.062,3.564,3.564,0,0,1-.857,0,1.539,1.539,0,0,1-.273-.062.271.271,0,0,1-.145-.1.249.249,0,0,1-.042-.145V2635.73a.663.663,0,0,1,.212-.563.734.734,0,0,1,.449-.16h2.842c.338,0,.618.009.843.026s.425.036.6.057a5.119,5.119,0,0,1,1.369.424,3.252,3.252,0,0,1,1,.734,2.967,2.967,0,0,1,.6,1.018,3.81,3.81,0,0,1,.2,1.266,3.743,3.743,0,0,1-.181,1.2,2.916,2.916,0,0,1-.521.94,3.464,3.464,0,0,1-.816.708,5.232,5.232,0,0,1-1.064.506,2.507,2.507,0,0,1,.6.367,3.1,3.1,0,0,1,.5.532,4.921,4.921,0,0,1,.438.713q.207.4.414.91l1.2,2.945c.1.248.158.422.187.522A.953.953,0,0,1,10269.24,2648.11Zm-2.677-9.393a2.4,2.4,0,0,0-.351-1.328,1.986,1.986,0,0,0-1.179-.78,3.383,3.383,0,0,0-.583-.1q-.327-.031-.854-.031h-1.5v4.505h1.736a3.85,3.85,0,0,0,1.214-.171,2.4,2.4,0,0,0,.853-.475,1.842,1.842,0,0,0,.5-.718A2.473,2.473,0,0,0,10266.563,2638.717Z" transform="translate(-10260.239 -2634.924)" fill="#0092d1"/>
        <path id="Path_806" data-name="Path 806" d="M10267.871,2648.106a3.885,3.885,0,0,1-.449-.021,1.034,1.034,0,0,1-.3-.074.463.463,0,0,1-.2-.158.933.933,0,0,1-.108-.228l-1.229-3.147c-.142-.353-.292-.682-.445-.979a3.118,3.118,0,0,0-.538-.755,2.21,2.21,0,0,0-.728-.488,2.634,2.634,0,0,0-1.012-.174h-1.105v5.61a.314.314,0,0,1-.062.194.39.39,0,0,1-.183.126,1.512,1.512,0,0,1-.285.066,3.641,3.641,0,0,1-.883,0,1.616,1.616,0,0,1-.288-.066.35.35,0,0,1-.187-.131.334.334,0,0,1-.056-.191v-12.379a.745.745,0,0,1,.245-.629.817.817,0,0,1,.5-.177h2.842c.336,0,.622.009.849.026s.43.037.608.057a5.233,5.233,0,0,1,1.4.432,3.334,3.334,0,0,1,1.022.752,3.067,3.067,0,0,1,.621,1.046,3.9,3.9,0,0,1,.206,1.293,3.829,3.829,0,0,1-.186,1.23,3.016,3.016,0,0,1-.536.967,3.543,3.543,0,0,1-.836.725,5.168,5.168,0,0,1-.9.446,2.6,2.6,0,0,1,.44.292,3.222,3.222,0,0,1,.515.547,5.078,5.078,0,0,1,.446.725c.138.27.278.577.416.916l1.2,2.945c.1.25.16.428.189.531a1.046,1.046,0,0,1,.044.255.4.4,0,0,1-.04.182.316.316,0,0,1-.178.143,1.221,1.221,0,0,1-.311.067A4.78,4.78,0,0,1,10267.871,2648.106Zm-6.272-6.191h1.271a2.8,2.8,0,0,1,1.075.187,2.366,2.366,0,0,1,.782.525,3.283,3.283,0,0,1,.567.8c.156.3.309.636.453.994l1.229,3.153a.766.766,0,0,0,.089.19.293.293,0,0,0,.127.1.883.883,0,0,0,.249.06,3.7,3.7,0,0,0,.429.02,4.655,4.655,0,0,0,.487-.02,1.088,1.088,0,0,0,.268-.057c.064-.026.085-.051.091-.063a.243.243,0,0,0,.022-.108.887.887,0,0,0-.038-.21c-.027-.1-.089-.27-.184-.514l-1.2-2.944c-.137-.334-.274-.638-.41-.9a4.95,4.95,0,0,0-.432-.7,3.041,3.041,0,0,0-.488-.518,2.461,2.461,0,0,0-.579-.355l-.193-.085.2-.07a5.164,5.164,0,0,0,1.047-.5,3.37,3.37,0,0,0,.8-.691,2.852,2.852,0,0,0,.508-.914,3.691,3.691,0,0,0,.176-1.177,3.752,3.752,0,0,0-.2-1.238,2.907,2.907,0,0,0-.588-.99,3.181,3.181,0,0,0-.972-.715,5.067,5.067,0,0,0-1.348-.417c-.171-.02-.367-.038-.6-.056s-.5-.026-.836-.026h-2.842a.648.648,0,0,0-.4.143.594.594,0,0,0-.178.5v12.379a.17.17,0,0,0,.026.1.206.206,0,0,0,.1.066,1.488,1.488,0,0,0,.259.058,3.454,3.454,0,0,0,.832,0,1.334,1.334,0,0,0,.253-.058.234.234,0,0,0,.107-.07.154.154,0,0,0,.029-.095Zm1.819-1.27h-1.819v-4.672h1.581c.354,0,.644.011.861.031a3.458,3.458,0,0,1,.6.106,2.076,2.076,0,0,1,1.226.815,2.483,2.483,0,0,1,.364,1.373,2.574,2.574,0,0,1-.165.929,1.955,1.955,0,0,1-.523.75,2.492,2.492,0,0,1-.882.492A3.948,3.948,0,0,1,10263.418,2640.645Zm-1.653-.166h1.653a3.786,3.786,0,0,0,1.188-.166,2.334,2.334,0,0,0,.824-.458,1.776,1.776,0,0,0,.479-.686,2.4,2.4,0,0,0,.154-.869,2.319,2.319,0,0,0-.338-1.283,1.918,1.918,0,0,0-1.131-.746,3.355,3.355,0,0,0-.568-.1c-.213-.02-.5-.031-.846-.031h-1.415Z" transform="translate(-10259.821 -2634.506)" fill="#0092d1"/>
      </g>
      <g id="Group_281" data-name="Group 281" transform="translate(37.921 0)">
        <path id="Path_807" data-name="Path 807" d="M10355.308,2643.642a3.881,3.881,0,0,1-.346,1.674,3.6,3.6,0,0,1-.962,1.245,4.149,4.149,0,0,1-1.446.77,6.02,6.02,0,0,1-1.793.258,6.4,6.4,0,0,1-1.245-.114,6.841,6.841,0,0,1-1.023-.279,4.976,4.976,0,0,1-.754-.341,2.02,2.02,0,0,1-.424-.3.763.763,0,0,1-.176-.315,1.884,1.884,0,0,1-.057-.511,2.862,2.862,0,0,1,.021-.377.96.96,0,0,1,.063-.243.265.265,0,0,1,.1-.129.279.279,0,0,1,.145-.036.845.845,0,0,1,.408.176,6.374,6.374,0,0,0,.677.382,6.622,6.622,0,0,0,1,.387,4.558,4.558,0,0,0,1.349.181,3.429,3.429,0,0,0,1.059-.155,2.493,2.493,0,0,0,.827-.439,1.9,1.9,0,0,0,.532-.7,2.268,2.268,0,0,0,.186-.94,1.765,1.765,0,0,0-.258-.971,2.611,2.611,0,0,0-.682-.708,6.056,6.056,0,0,0-.967-.558l-1.11-.517a12.129,12.129,0,0,1-1.106-.584,4.741,4.741,0,0,1-.961-.754,3.513,3.513,0,0,1-.687-1.018,3.384,3.384,0,0,1-.264-1.4,3.508,3.508,0,0,1,.3-1.493,3.071,3.071,0,0,1,.848-1.1,3.781,3.781,0,0,1,1.291-.677,5.434,5.434,0,0,1,1.617-.232,5.246,5.246,0,0,1,.895.077,6.065,6.065,0,0,1,.847.207,4.669,4.669,0,0,1,.708.289,1.82,1.82,0,0,1,.408.258.828.828,0,0,1,.13.155.589.589,0,0,1,.051.145,1.486,1.486,0,0,1,.031.212c.007.083.01.19.01.321a3.052,3.052,0,0,1-.015.331,1.314,1.314,0,0,1-.047.243.292.292,0,0,1-.088.145.2.2,0,0,1-.129.047.83.83,0,0,1-.356-.145q-.243-.144-.595-.325a5.222,5.222,0,0,0-.831-.331,3.632,3.632,0,0,0-1.08-.15,2.858,2.858,0,0,0-.972.15,1.993,1.993,0,0,0-.682.4,1.574,1.574,0,0,0-.4.589,1.969,1.969,0,0,0-.134.723,1.745,1.745,0,0,0,.258.961,2.646,2.646,0,0,0,.688.713,6.065,6.065,0,0,0,.977.568q.548.259,1.116.522t1.115.579a4.648,4.648,0,0,1,.977.744,3.372,3.372,0,0,1,.692,1.013A3.327,3.327,0,0,1,10355.308,2643.642Z" transform="translate(-10346.999 -2633.742)" fill="#0092d1"/>
        <path id="Path_808" data-name="Path 808" d="M10350.343,2647.254a6.526,6.526,0,0,1-1.261-.115,6.915,6.915,0,0,1-1.036-.282,5.008,5.008,0,0,1-.767-.347,2.043,2.043,0,0,1-.442-.314.831.831,0,0,1-.2-.349,1.939,1.939,0,0,1-.061-.535,2.841,2.841,0,0,1,.021-.388.993.993,0,0,1,.068-.265.351.351,0,0,1,.138-.167c.145-.083.332-.063.641.142a6.423,6.423,0,0,0,.668.377,6.6,6.6,0,0,0,.984.382,4.5,4.5,0,0,0,1.324.177,3.37,3.37,0,0,0,1.033-.151,2.419,2.419,0,0,0,.8-.425,1.821,1.821,0,0,0,.51-.667,2.2,2.2,0,0,0,.178-.906,1.686,1.686,0,0,0-.245-.927,2.536,2.536,0,0,0-.66-.685,5.959,5.959,0,0,0-.953-.55l-1.11-.516a12.209,12.209,0,0,1-1.113-.588,4.792,4.792,0,0,1-.978-.768,3.6,3.6,0,0,1-.7-1.042,3.485,3.485,0,0,1-.271-1.435,3.6,3.6,0,0,1,.313-1.528,3.171,3.171,0,0,1,.87-1.13,3.883,3.883,0,0,1,1.319-.692,5.55,5.55,0,0,1,1.642-.236,5.357,5.357,0,0,1,.908.079,6.2,6.2,0,0,1,.858.209,4.813,4.813,0,0,1,.721.294,1.879,1.879,0,0,1,.429.273.835.835,0,0,1,.144.174.67.67,0,0,1,.06.166,1.518,1.518,0,0,1,.033.224c.007.085.011.195.011.327a3.155,3.155,0,0,1-.017.34,1.339,1.339,0,0,1-.05.259.373.373,0,0,1-.114.184c-.126.1-.272.093-.581-.091-.158-.094-.355-.2-.59-.323a5.169,5.169,0,0,0-.818-.326,3.562,3.562,0,0,0-1.055-.146,2.784,2.784,0,0,0-.943.145,1.917,1.917,0,0,0-.653.381,1.5,1.5,0,0,0-.383.558,1.888,1.888,0,0,0-.128.693,1.664,1.664,0,0,0,.245.916,2.568,2.568,0,0,0,.665.691,6.089,6.089,0,0,0,.964.56q.548.259,1.116.522c.379.176.756.372,1.122.582a4.768,4.768,0,0,1,.993.757,3.482,3.482,0,0,1,.71,1.037,3.427,3.427,0,0,1,.271,1.413,3.988,3.988,0,0,1-.354,1.71,3.7,3.7,0,0,1-.983,1.273,4.259,4.259,0,0,1-1.476.785A6.12,6.12,0,0,1,10350.343,2647.254Zm-3.348-2.645a.206.206,0,0,0-.1.025.2.2,0,0,0-.069.091.873.873,0,0,0-.055.22,2.672,2.672,0,0,0-.021.366,1.8,1.8,0,0,0,.054.488.678.678,0,0,0,.156.281,1.925,1.925,0,0,0,.405.285,4.862,4.862,0,0,0,.741.335,6.784,6.784,0,0,0,1.011.276,6.367,6.367,0,0,0,1.229.112,5.969,5.969,0,0,0,1.769-.254,4.1,4.1,0,0,0,1.418-.754,3.534,3.534,0,0,0,.939-1.217,3.811,3.811,0,0,0,.338-1.639,3.265,3.265,0,0,0-.256-1.345,3.33,3.33,0,0,0-.676-.988,4.591,4.591,0,0,0-.959-.731c-.361-.208-.734-.4-1.109-.575s-.752-.35-1.117-.522a6.237,6.237,0,0,1-.989-.576,2.7,2.7,0,0,1-.708-.736,1.826,1.826,0,0,1-.271-1.006,2.05,2.05,0,0,1,.14-.754,1.671,1.671,0,0,1,.424-.62,2.089,2.089,0,0,1,.71-.415,2.949,2.949,0,0,1,1-.155,3.721,3.721,0,0,1,1.1.154,5.265,5.265,0,0,1,.845.336c.236.122.438.232.6.328a.727.727,0,0,0,.313.133.112.112,0,0,0,.076-.028.217.217,0,0,0,.062-.105,1.157,1.157,0,0,0,.043-.227,3.107,3.107,0,0,0,.015-.322c0-.128,0-.233-.01-.314a1.489,1.489,0,0,0-.028-.2.56.56,0,0,0-.044-.124.718.718,0,0,0-.115-.136,1.714,1.714,0,0,0-.388-.243,4.688,4.688,0,0,0-.7-.284,6.014,6.014,0,0,0-.836-.2,5.166,5.166,0,0,0-.88-.076,5.362,5.362,0,0,0-1.592.229,3.7,3.7,0,0,0-1.264.662,3.01,3.01,0,0,0-.825,1.071,3.439,3.439,0,0,0-.3,1.458,3.322,3.322,0,0,0,.256,1.366,3.454,3.454,0,0,0,.671.994,4.647,4.647,0,0,0,.944.741,12.181,12.181,0,0,0,1.1.58l1.111.516a6.136,6.136,0,0,1,.979.566,2.682,2.682,0,0,1,.7.73,1.848,1.848,0,0,1,.272,1.016,2.364,2.364,0,0,1-.193.974,1.993,1.993,0,0,1-.556.728,2.584,2.584,0,0,1-.854.454,3.538,3.538,0,0,1-1.085.159,4.669,4.669,0,0,1-1.373-.185,6.764,6.764,0,0,1-1.01-.393,6.382,6.382,0,0,1-.686-.388A.751.751,0,0,0,10347,2644.609Z" transform="translate(-10346.581 -2633.324)" fill="#0092d1"/>
      </g>
      <g id="Group_282" data-name="Group 282" transform="translate(51.154 0.196)">
        <path id="Path_809" data-name="Path 809" d="M10436.812,2635.772a2.459,2.459,0,0,1-.021.341.761.761,0,0,1-.067.233.327.327,0,0,1-.114.129.28.28,0,0,1-.149.041h-3.762v11.594a.256.256,0,0,1-.041.145.279.279,0,0,1-.145.1,1.553,1.553,0,0,1-.274.062,2.96,2.96,0,0,1-.429.026,2.992,2.992,0,0,1-.424-.026,1.527,1.527,0,0,1-.278-.062.278.278,0,0,1-.146-.1.256.256,0,0,1-.041-.145v-11.594h-3.761a.281.281,0,0,1-.15-.041.289.289,0,0,1-.108-.129.972.972,0,0,1-.067-.233,2.027,2.027,0,0,1-.025-.341,2.131,2.131,0,0,1,.025-.346,1.071,1.071,0,0,1,.067-.243.286.286,0,0,1,.108-.135.283.283,0,0,1,.15-.041h9.3a.282.282,0,0,1,.149.041.32.32,0,0,1,.114.135.835.835,0,0,1,.067.243A2.585,2.585,0,0,1,10436.812,2635.772Z" transform="translate(-10426.726 -2634.924)" fill="#0092d1"/>
        <path id="Path_810" data-name="Path 810" d="M10431.393,2648.106a3.092,3.092,0,0,1-.436-.027,1.648,1.648,0,0,1-.295-.066.355.355,0,0,1-.186-.131.334.334,0,0,1-.056-.191v-11.511h-3.679a.365.365,0,0,1-.193-.054.379.379,0,0,1-.14-.165,1.066,1.066,0,0,1-.074-.254,2.09,2.09,0,0,1-.026-.355,2.19,2.19,0,0,1,.026-.36,1.153,1.153,0,0,1,.073-.262.35.35,0,0,1,.334-.225h9.3a.366.366,0,0,1,.192.053.405.405,0,0,1,.146.168.874.874,0,0,1,.075.269,2.744,2.744,0,0,1,.021.358,2.625,2.625,0,0,1-.021.353.809.809,0,0,1-.076.26.412.412,0,0,1-.144.161.365.365,0,0,1-.193.054h-3.679v11.511a.334.334,0,0,1-.056.191.351.351,0,0,1-.186.131,1.628,1.628,0,0,1-.289.066A3.083,3.083,0,0,1,10431.393,2648.106Zm-4.65-13.434a.2.2,0,0,0-.105.029.21.21,0,0,0-.076.1.936.936,0,0,0-.062.223,1.958,1.958,0,0,0-.024.332,1.852,1.852,0,0,0,.024.326.871.871,0,0,0,.061.212.207.207,0,0,0,.077.094.2.2,0,0,0,.105.029h3.845v11.677a.171.171,0,0,0,.027.1.206.206,0,0,0,.1.066,1.462,1.462,0,0,0,.263.058,2.909,2.909,0,0,0,.412.025,2.852,2.852,0,0,0,.417-.025,1.473,1.473,0,0,0,.258-.058.2.2,0,0,0,.1-.066.171.171,0,0,0,.027-.1v-11.677h3.845a.2.2,0,0,0,.106-.029.254.254,0,0,0,.084-.1.671.671,0,0,0,.058-.205,2.292,2.292,0,0,0,.02-.329,2.415,2.415,0,0,0-.02-.335.73.73,0,0,0-.059-.217.242.242,0,0,0-.084-.1.2.2,0,0,0-.105-.029Z" transform="translate(-10426.309 -2634.506)" fill="#0092d1"/>
      </g>
      <g id="Group_283" data-name="Group 283" transform="translate(74.716 0.196)">
        <path id="Path_811" data-name="Path 811" d="M10578.77,2635.772a2.459,2.459,0,0,1-.021.341.71.71,0,0,1-.067.233.332.332,0,0,1-.113.129.281.281,0,0,1-.15.041h-3.762v11.594a.256.256,0,0,1-.041.145.275.275,0,0,1-.145.1,1.539,1.539,0,0,1-.273.062,3.524,3.524,0,0,1-.853,0,1.56,1.56,0,0,1-.279-.062.271.271,0,0,1-.145-.1.256.256,0,0,1-.041-.145v-11.594h-3.762a.275.275,0,0,1-.149-.041.289.289,0,0,1-.108-.129.89.89,0,0,1-.067-.233,1.921,1.921,0,0,1-.026-.341,2.019,2.019,0,0,1,.026-.346.979.979,0,0,1,.067-.243.286.286,0,0,1,.108-.135.277.277,0,0,1,.149-.041h9.3a.283.283,0,0,1,.15.041.326.326,0,0,1,.113.135.778.778,0,0,1,.067.243A2.585,2.585,0,0,1,10578.77,2635.772Z" transform="translate(-10568.684 -2634.924)" fill="#0092d1"/>
        <path id="Path_812" data-name="Path 812" d="M10573.351,2648.106a3.082,3.082,0,0,1-.436-.027,1.628,1.628,0,0,1-.295-.066.358.358,0,0,1-.187-.131.342.342,0,0,1-.056-.191v-11.511h-3.678a.363.363,0,0,1-.193-.054.367.367,0,0,1-.14-.165.983.983,0,0,1-.074-.254,2.081,2.081,0,0,1-.027-.355,2.182,2.182,0,0,1,.027-.36,1.1,1.1,0,0,1,.073-.262.35.35,0,0,1,.334-.225h9.3a.369.369,0,0,1,.193.053.4.4,0,0,1,.145.168.874.874,0,0,1,.075.269,2.582,2.582,0,0,1,.021.358,2.472,2.472,0,0,1-.021.353.811.811,0,0,1-.075.26.414.414,0,0,1-.145.161.363.363,0,0,1-.193.054h-3.678v11.511a.334.334,0,0,1-.056.191.354.354,0,0,1-.187.131,1.615,1.615,0,0,1-.288.066A3.083,3.083,0,0,1,10573.351,2648.106Zm-4.65-13.434a.2.2,0,0,0-.106.029.21.21,0,0,0-.076.1.989.989,0,0,0-.061.223,2.189,2.189,0,0,0,0,.658.866.866,0,0,0,.062.212.206.206,0,0,0,.076.094.2.2,0,0,0,.106.029h3.845v11.677a.171.171,0,0,0,.027.1.2.2,0,0,0,.1.066,1.5,1.5,0,0,0,.264.058,2.909,2.909,0,0,0,.412.025,2.837,2.837,0,0,0,.416-.025,1.466,1.466,0,0,0,.259-.058.208.208,0,0,0,.1-.066.178.178,0,0,0,.026-.1v-11.677H10578a.2.2,0,0,0,.106-.029.246.246,0,0,0,.084-.1.642.642,0,0,0,.059-.205,2.443,2.443,0,0,0,.02-.329,2.4,2.4,0,0,0-.021-.335.7.7,0,0,0-.059-.217.24.24,0,0,0-.083-.1.2.2,0,0,0-.106-.029Z" transform="translate(-10568.266 -2634.506)" fill="#0092d1"/>
      </g>
      <g id="Group_284" data-name="Group 284" transform="translate(90.884 0.134)">
        <path id="Path_813" data-name="Path 813" d="M10667.952,2647.8a.249.249,0,0,1-.042.145.274.274,0,0,1-.145.1,1.561,1.561,0,0,1-.273.062,2.96,2.96,0,0,1-.429.026,2.992,2.992,0,0,1-.424-.026,1.548,1.548,0,0,1-.278-.062.281.281,0,0,1-.146-.1.256.256,0,0,1-.041-.145v-12.834a.238.238,0,0,1,.046-.145.313.313,0,0,1,.155-.1,1.741,1.741,0,0,1,.279-.062,2.788,2.788,0,0,1,.408-.026,2.96,2.96,0,0,1,.429.026,1.564,1.564,0,0,1,.273.062.274.274,0,0,1,.145.1.249.249,0,0,1,.042.145Z" transform="translate(-10666.092 -2634.55)" fill="#0092d1"/>
        <path id="Path_814" data-name="Path 814" d="M10666.646,2647.794a3.092,3.092,0,0,1-.436-.027,1.628,1.628,0,0,1-.295-.066.358.358,0,0,1-.187-.131.341.341,0,0,1-.055-.191v-12.834a.322.322,0,0,1,.063-.194.39.39,0,0,1,.2-.127,1.874,1.874,0,0,1,.293-.065,2.877,2.877,0,0,1,.421-.027,3.048,3.048,0,0,1,.441.027,1.659,1.659,0,0,1,.288.066.356.356,0,0,1,.187.131.334.334,0,0,1,.056.191v12.834a.334.334,0,0,1-.056.191.351.351,0,0,1-.186.131,1.628,1.628,0,0,1-.289.066A3.083,3.083,0,0,1,10666.646,2647.794Zm0-13.5a2.666,2.666,0,0,0-.4.025,1.623,1.623,0,0,0-.266.059.233.233,0,0,0-.114.069.15.15,0,0,0-.03.095v12.834a.171.171,0,0,0,.027.1.206.206,0,0,0,.1.066,1.462,1.462,0,0,0,.263.058,2.918,2.918,0,0,0,.412.025,2.828,2.828,0,0,0,.416-.025,1.466,1.466,0,0,0,.259-.058.2.2,0,0,0,.1-.066.171.171,0,0,0,.027-.1v-12.834a.172.172,0,0,0-.027-.1.206.206,0,0,0-.1-.066,1.49,1.49,0,0,0-.259-.058A2.828,2.828,0,0,0,10666.646,2634.3Z" transform="translate(-10665.674 -2634.132)" fill="#0092d1"/>
      </g>
      <g id="Group_285" data-name="Group 285" transform="translate(100.448 0.196)">
        <path id="Path_815" data-name="Path 815" d="M10738.339,2648.11a.249.249,0,0,1-.043.145.279.279,0,0,1-.148.1,1.668,1.668,0,0,1-.271.062,2.915,2.915,0,0,1-.431.026,2.967,2.967,0,0,1-.421-.026,1.481,1.481,0,0,1-.276-.062.28.28,0,0,1-.144-.1.249.249,0,0,1-.043-.145v-11.646h-.021l-4.712,11.7a.348.348,0,0,1-.088.124.464.464,0,0,1-.165.088,1.22,1.22,0,0,1-.259.052,3.471,3.471,0,0,1-.356.016,2.846,2.846,0,0,1-.372-.021,1.3,1.3,0,0,1-.258-.057.457.457,0,0,1-.161-.088.273.273,0,0,1-.077-.114l-4.5-11.7h-.011v11.646a.249.249,0,0,1-.043.145.279.279,0,0,1-.148.1,1.637,1.637,0,0,1-.277.062,3.016,3.016,0,0,1-.436.026,2.926,2.926,0,0,1-.426-.026,1.473,1.473,0,0,1-.271-.062.25.25,0,0,1-.139-.1.279.279,0,0,1-.037-.145v-12.3a.751.751,0,0,1,.231-.62.8.8,0,0,1,.514-.186h1.092a2.476,2.476,0,0,1,.587.062,1.285,1.285,0,0,1,.44.2,1.142,1.142,0,0,1,.315.341,2.4,2.4,0,0,1,.22.486l3.824,9.682h.051l3.979-9.651a2.915,2.915,0,0,1,.252-.527,1.385,1.385,0,0,1,.3-.346,1.043,1.043,0,0,1,.362-.186,1.689,1.689,0,0,1,.462-.057h1.145a.953.953,0,0,1,.3.046.61.61,0,0,1,.242.145.737.737,0,0,1,.162.248.929.929,0,0,1,.063.367Z" transform="translate(-10723.717 -2634.924)" fill="#0092d1"/>
        <path id="Path_816" data-name="Path 816" d="M10737.027,2648.106a3.067,3.067,0,0,1-.433-.027,1.582,1.582,0,0,1-.293-.066.368.368,0,0,1-.185-.129.337.337,0,0,1-.057-.192v-11.269l-4.572,11.351a.439.439,0,0,1-.109.154.532.532,0,0,1-.2.105,1.3,1.3,0,0,1-.275.056c-.1.01-.226.016-.365.016a2.966,2.966,0,0,1-.383-.021,1.426,1.426,0,0,1-.275-.061.537.537,0,0,1-.188-.105.358.358,0,0,1-.1-.149l-4.354-11.3v11.226a.331.331,0,0,1-.058.192.362.362,0,0,1-.19.13,1.724,1.724,0,0,1-.291.066,3.138,3.138,0,0,1-.448.027,3.058,3.058,0,0,1-.438-.027,1.579,1.579,0,0,1-.287-.066.331.331,0,0,1-.182-.133.363.363,0,0,1-.049-.188v-12.3a.831.831,0,0,1,.262-.685.882.882,0,0,1,.566-.2h1.092a2.577,2.577,0,0,1,.607.064,1.38,1.38,0,0,1,.469.209,1.224,1.224,0,0,1,.337.365,2.51,2.51,0,0,1,.229.5l3.771,9.551,3.926-9.525a2.992,2.992,0,0,1,.259-.54,1.445,1.445,0,0,1,.318-.367,1.114,1.114,0,0,1,.391-.2,1.771,1.771,0,0,1,.484-.06h1.145a1.047,1.047,0,0,1,.325.051.7.7,0,0,1,.274.164.841.841,0,0,1,.181.275,1.039,1.039,0,0,1,.069.4v12.3a.331.331,0,0,1-.058.192.362.362,0,0,1-.19.13,1.733,1.733,0,0,1-.285.065A2.988,2.988,0,0,1,10737.027,2648.106Zm-.961-12.143h.16v11.729a.169.169,0,0,0,.028.1.2.2,0,0,0,.1.067,1.457,1.457,0,0,0,.261.058,2.894,2.894,0,0,0,.409.025,2.831,2.831,0,0,0,.418-.025,1.566,1.566,0,0,0,.257-.059.21.21,0,0,0,.107-.067.169.169,0,0,0,.028-.1v-12.3a.879.879,0,0,0-.057-.335.67.67,0,0,0-.145-.221.521.521,0,0,0-.209-.125.871.871,0,0,0-.273-.042h-1.145a1.613,1.613,0,0,0-.438.054.944.944,0,0,0-.333.171,1.284,1.284,0,0,0-.281.325,2.762,2.762,0,0,0-.244.512l-4,9.705h-.164l-.021-.052-3.823-9.682a2.367,2.367,0,0,0-.214-.473,1.058,1.058,0,0,0-.292-.316,1.2,1.2,0,0,0-.412-.184,2.4,2.4,0,0,0-.567-.06h-1.092a.713.713,0,0,0-.462.167.679.679,0,0,0-.2.556v12.3a.2.2,0,0,0,.025.1.184.184,0,0,0,.1.063,1.409,1.409,0,0,0,.256.058,2.8,2.8,0,0,0,.413.025,2.907,2.907,0,0,0,.424-.025,1.586,1.586,0,0,0,.263-.058.211.211,0,0,0,.106-.067.162.162,0,0,0,.028-.1v-11.729h.14l.031.053,4.5,11.7a.193.193,0,0,0,.057.082.382.382,0,0,0,.131.071,1.282,1.282,0,0,0,.242.053,2.812,2.812,0,0,0,.361.02,3.456,3.456,0,0,0,.348-.015,1.147,1.147,0,0,0,.241-.048.387.387,0,0,0,.136-.071.262.262,0,0,0,.066-.1Z" transform="translate(-10723.299 -2634.506)" fill="#0092d1"/>
      </g>
      <g id="Group_286" data-name="Group 286" transform="translate(122.775 0.196)">
        <path id="Path_817" data-name="Path 817" d="M10865.754,2647.645a2.415,2.415,0,0,1-.021.325.687.687,0,0,1-.073.232.357.357,0,0,1-.118.135.281.281,0,0,1-.15.041h-6.417a.734.734,0,0,1-.449-.16.667.667,0,0,1-.212-.563V2635.73a.666.666,0,0,1,.212-.563.734.734,0,0,1,.449-.16h6.346a.282.282,0,0,1,.149.041.286.286,0,0,1,.108.135,1.077,1.077,0,0,1,.067.232,2.015,2.015,0,0,1,.025.346,1.87,1.87,0,0,1-.025.325.97.97,0,0,1-.067.227.289.289,0,0,1-.108.129.278.278,0,0,1-.149.041h-5.229v4.2h4.484a.258.258,0,0,1,.15.047.37.37,0,0,1,.113.129.656.656,0,0,1,.067.228,2.461,2.461,0,0,1,.021.341,2.158,2.158,0,0,1-.021.321.636.636,0,0,1-.067.217.284.284,0,0,1-.113.119.309.309,0,0,1-.15.036h-4.484v4.784h5.3a.281.281,0,0,1,.15.042.367.367,0,0,1,.118.129.633.633,0,0,1,.073.227A2.6,2.6,0,0,1,10865.754,2647.645Z" transform="translate(-10858.23 -2634.924)" fill="#0092d1"/>
        <path id="Path_818" data-name="Path 818" d="M10864.973,2648.044h-6.417a.815.815,0,0,1-.5-.177.742.742,0,0,1-.245-.629v-11.925a.742.742,0,0,1,.245-.629.817.817,0,0,1,.5-.177h6.345a.349.349,0,0,1,.334.225,1.122,1.122,0,0,1,.073.251,2.009,2.009,0,0,1,.027.362,1.863,1.863,0,0,1-.027.34,1.028,1.028,0,0,1-.073.248.378.378,0,0,1-.141.165.362.362,0,0,1-.193.054h-5.146v4.029h4.4a.342.342,0,0,1,.2.061.46.46,0,0,1,.139.157.709.709,0,0,1,.077.256,2.478,2.478,0,0,1,.022.353,2.19,2.19,0,0,1-.022.333.7.7,0,0,1-.077.245.367.367,0,0,1-.146.151.394.394,0,0,1-.189.046h-4.4v4.618h5.218a.363.363,0,0,1,.193.054.448.448,0,0,1,.147.157.74.74,0,0,1,.083.258,2.632,2.632,0,0,1,.021.358,2.448,2.448,0,0,1-.021.337.779.779,0,0,1-.082.261.437.437,0,0,1-.148.165A.363.363,0,0,1,10864.973,2648.044Zm-6.417-13.372a.648.648,0,0,0-.4.143.594.594,0,0,0-.179.5v11.925a.593.593,0,0,0,.179.5.647.647,0,0,0,.4.143h6.417a.2.2,0,0,0,.106-.029.275.275,0,0,0,.09-.1.6.6,0,0,0,.063-.2,2.1,2.1,0,0,0,.021-.313,2.279,2.279,0,0,0-.021-.334.537.537,0,0,0-.062-.2.282.282,0,0,0-.091-.1.2.2,0,0,0-.106-.029h-5.384v-4.951h4.567a.231.231,0,0,0,.111-.026.211.211,0,0,0,.08-.086.6.6,0,0,0,.058-.189,2.13,2.13,0,0,0,.02-.308,2.464,2.464,0,0,0-.02-.329.608.608,0,0,0-.058-.2.3.3,0,0,0-.088-.1.179.179,0,0,0-.1-.031h-4.567v-4.362h5.312a.2.2,0,0,0,.106-.029.217.217,0,0,0,.077-.094.853.853,0,0,0,.061-.207,1.8,1.8,0,0,0,.024-.31,1.951,1.951,0,0,0-.024-.331.966.966,0,0,0-.062-.214.21.21,0,0,0-.076-.1.2.2,0,0,0-.106-.029Z" transform="translate(-10857.812 -2634.506)" fill="#0092d1"/>
      </g>
    </g>
    <g id="Group_292" data-name="Group 292" transform="translate(9309.788 888.344)">
      <g id="Group_288" data-name="Group 288" transform="translate(0 15.083)">
        <path id="Path_819" data-name="Path 819" d="M9712.064,1064.493h-28.536a1.426,1.426,0,1,1,0-2.853h28.536a1.426,1.426,0,0,1,0,2.853Z" transform="translate(-9682.102 -1061.64)" fill="#f0831e"/>
      </g>
      <g id="Group_289" data-name="Group 289" transform="translate(14.268)">
        <path id="Path_820" data-name="Path 820" d="M9769.492,1003.783a1.426,1.426,0,0,1-1.426-1.426V972.19a1.426,1.426,0,0,1,2.853,0v30.167A1.427,1.427,0,0,1,9769.492,1003.783Z" transform="translate(-9768.066 -970.764)" fill="#f0831e"/>
      </g>
      <g id="Group_290" data-name="Group 290" transform="translate(4.057 4.873)">
        <path id="Path_821" data-name="Path 821" d="M9728.395,1023.4a1.424,1.424,0,0,1-1.009-.418l-20.421-20.422a1.426,1.426,0,1,1,2.017-2.017l20.421,20.421a1.426,1.426,0,0,1-1.008,2.435Z" transform="translate(-9706.547 -1000.122)" fill="#f0831e"/>
      </g>
      <g id="Group_291" data-name="Group 291" transform="translate(4.057 4.873)">
        <path id="Path_822" data-name="Path 822" d="M9707.973,1023.4a1.426,1.426,0,0,1-1.008-2.435l20.421-20.421a1.426,1.426,0,0,1,2.017,2.017l-20.421,20.422A1.422,1.422,0,0,1,9707.973,1023.4Z" transform="translate(-9706.547 -1000.122)" fill="#f0831e"/>
      </g>
    </g>
    <g id="Group_297" data-name="Group 297" transform="translate(9578.716 1004.07)">
      <g id="Group_293" data-name="Group 293" transform="translate(0 12.821)">
        <path id="Path_823" data-name="Path 823" d="M11327.957,1747.927H11303.7a1.342,1.342,0,1,1,0-2.684h24.255a1.342,1.342,0,1,1,0,2.684Z" transform="translate(-11302.359 -1745.243)" fill="#f0831e"/>
      </g>
      <g id="Group_294" data-name="Group 294" transform="translate(12.128 0)">
        <path id="Path_824" data-name="Path 824" d="M11376.769,1696.324a1.342,1.342,0,0,1-1.342-1.342V1669.34a1.342,1.342,0,1,1,2.685,0v25.642A1.342,1.342,0,0,1,11376.769,1696.324Z" transform="translate(-11375.427 -1667.998)" fill="#f0831e"/>
      </g>
      <g id="Group_295" data-name="Group 295" transform="translate(3.449 4.142)">
        <path id="Path_825" data-name="Path 825" d="M11341.837,1712.995a1.337,1.337,0,0,1-.949-.393l-17.358-17.358a1.342,1.342,0,0,1,1.9-1.9l17.358,17.358a1.342,1.342,0,0,1-.949,2.291Z" transform="translate(-11323.137 -1692.952)" fill="#f0831e"/>
      </g>
      <g id="Group_296" data-name="Group 296" transform="translate(3.449 4.142)">
        <path id="Path_826" data-name="Path 826" d="M11324.479,1712.995a1.342,1.342,0,0,1-.949-2.291l17.358-17.358a1.342,1.342,0,0,1,1.9,1.9l-17.358,17.358A1.337,1.337,0,0,1,11324.479,1712.995Z" transform="translate(-11323.137 -1692.952)" fill="#f0831e"/>
      </g>
    </g>
    <path id="Path_827" data-name="Path 827" d="M9344.457,1584.48c-2.853-5.625-5.922-11.248-9.128-16.719,1.991-5.9,4.2-11.812,6.562-17.576a.89.89,0,0,0-.859-1.226,201.756,201.756,0,0,0-62.723,12.689.889.889,0,0,0-.53,1.117L9289,1596.054a.89.89,0,0,0,1.155.548,172.2,172.2,0,0,1,53.541-10.832.89.89,0,0,0,.757-1.291Z" transform="translate(-35.061 -564.646)" fill="#0092d1"/>
    <g id="Group_300" data-name="Group 300" transform="translate(9255.809 993.663)">
      <g id="Group_298" data-name="Group 298" transform="translate(0 0)">
        <path id="Path_828" data-name="Path 828" d="M9379.443,1606.66q2.41,10.745,3.993,21.558a1.527,1.527,0,0,1-.328,1.238,1.7,1.7,0,0,1-1.123.625,1.669,1.669,0,0,1-1.243-.287,1.613,1.613,0,0,1-.676-1.094q-.732-4.192-1.59-8.375a1.523,1.523,0,0,0-.77-1.042,1.991,1.991,0,0,0-1.389-.237q-5.054.893-9.957,2.184a1.8,1.8,0,0,0-1.1.781,1.413,1.413,0,0,0-.164,1.239q1.289,4.066,2.453,8.155a1.606,1.606,0,0,1-1.111,2.031,1.625,1.625,0,0,1-2.075-1.1q-3.274-10.4-7.362-20.619a1.37,1.37,0,0,1,.093-1.278,2,2,0,0,1,1.2-.859,2.225,2.225,0,0,1,1.506.045,1.61,1.61,0,0,1,.961.967q1.187,3.22,2.293,6.458a1.573,1.573,0,0,0,.9.949,2.094,2.094,0,0,0,1.425.1q5.019-1.327,10.2-2.253a1.94,1.94,0,0,0,1.218-.687,1.368,1.368,0,0,0,.3-1.222q-.762-3.339-1.605-6.669a1.357,1.357,0,0,1,.271-1.257,2.05,2.05,0,0,1,1.333-.688,2.321,2.321,0,0,1,1.517.25A1.6,1.6,0,0,1,9379.443,1606.66Z" transform="translate(-9356.883 -1605.292)" fill="#fff"/>
      </g>
      <g id="Group_299" data-name="Group 299" transform="translate(29.347 0.072)">
        <path id="Path_829" data-name="Path 829" d="M9538.251,1607.419a1.53,1.53,0,0,1-.473,1.364,2.263,2.263,0,0,1-1.492.639,2.661,2.661,0,0,1-1.692-.414,1.854,1.854,0,0,1-.877-1.265,1.482,1.482,0,0,1,.439-1.342,2.308,2.308,0,0,1,1.554-.665,2.627,2.627,0,0,1,1.688.431A1.781,1.781,0,0,1,9538.251,1607.419Zm-1.588,4.906a1.911,1.911,0,0,0-1.311.585,1.422,1.422,0,0,0-.392,1.243q1.022,6.9,1.71,13.8a1.646,1.646,0,0,0,.623,1.16,1.855,1.855,0,0,0,2.481-.152,1.563,1.563,0,0,0,.426-1.226q-.5-6.92-1.325-13.847a1.627,1.627,0,0,0-.722-1.17A2.239,2.239,0,0,0,9536.663,1612.325Z" transform="translate(-9533.692 -1605.727)" fill="#fff"/>
      </g>
    </g>
    <g id="Group_301" data-name="Group 301" transform="translate(9235.693 996.557)">
      <path id="Path_830" data-name="Path 830" d="M9260.345,1691.635a1.871,1.871,0,0,1-1.765-1.253L9235.8,1625.22a1.869,1.869,0,0,1,3.528-1.234l22.782,65.163a1.871,1.871,0,0,1-1.765,2.487Z" transform="translate(-9235.693 -1622.733)" fill="#0092d1"/>
    </g>
    <path id="Path_831" data-name="Path 831" d="M10278.771,927.809a23.059,23.059,0,0,1-.389-2.34.639.639,0,0,0-.286-.466,99.946,99.946,0,0,1-13.779-10.8,105.69,105.69,0,0,1-26.428-39.645v-1.352a1.266,1.266,0,0,0-2.531,0v1.245a105.711,105.711,0,0,1-26.448,39.732,99.547,99.547,0,0,1-18.5,13.689q-.645.369-1.293.729t-1.31.712a93.771,93.771,0,0,1-22.856,8.161,1.424,1.424,0,0,1-.329.038h-.558a.665.665,0,0,0-.678.608.636.636,0,0,0,.636.666h108.2a.645.645,0,0,0,.608-.438,29.629,29.629,0,0,1,5.789-9.975A.645.645,0,0,0,10278.771,927.809Z" transform="translate(-773.717)" fill="#f0831e"/>
    <path id="Path_832" data-name="Path 832" d="M9904.757,1064.354h-28.605a2.916,2.916,0,0,1-2.868-2.954v-.4c0-1.629,1.374-2.466,2.868-2.822l1.089-.283a92.132,92.132,0,0,0,20.329-7.5.817.817,0,0,0,.239-1.277,88.554,88.554,0,0,1-16.93-27.265v-1.308a1.266,1.266,0,0,0-2.531,0v1.514a88.024,88.024,0,0,1-21.546,31.823c-10.438,9.775-23.109,14.978-36.644,18.186a1.424,1.424,0,0,1-.329.039.817.817,0,0,0-.816.817v.174a.817.817,0,0,0,.816.817H9903a.819.819,0,0,0,.795-.628c.765-3.194,1.347-5.9,1.761-7.949A.817.817,0,0,0,9904.757,1064.354Z" transform="translate(-486.501 -122.879)" fill="#f0831e"/>
  </g>
</svg>
