<?xml version="1.0" encoding="utf-8"?>
<!-- Generator: Adobe Illustrator 22.0.1, SVG Export Plug-In . SVG Version: 6.00 Build 0)  -->
<svg version="1.1" id="圖層_1" xmlns="http://www.w3.org/2000/svg" xmlns:xlink="http://www.w3.org/1999/xlink" x="0px" y="0px"
	 viewBox="0 0 317 74" style="enable-background:new 0 0 317 74;" xml:space="preserve">
<style type="text/css">
	.st0{enable-background:new    ;}
	.st1{fill:#776871;}
</style>
<g>
	<g class="st0">
		<path class="st1" d="M11.2,33.8c-0.2,0.3-0.4,0.5-0.8,0.6c-0.1,0-0.2,0-0.3,0c-0.2,0-0.4-0.1-0.6-0.2c-0.3-0.1-0.5-0.4-0.5-0.7
			c0-0.1,0-0.2,0-0.3c0-0.2,0.1-0.4,0.2-0.6c0.9-1.5,1.7-3.3,2.5-5.6c0.1-0.3,0.3-0.5,0.5-0.6c0.3-0.1,0.6-0.2,0.8,0
			c0.3,0.1,0.5,0.3,0.7,0.6c0.1,0.3,0.2,0.6,0.1,0.9C12.8,30.4,12,32.4,11.2,33.8z M31.9,8.6c0.5,0,1,0.2,1.3,0.5
			c0.4,0.4,0.5,0.8,0.5,1.3v10.7c0,0.5-0.2,0.9-0.5,1.3c-0.4,0.4-0.8,0.5-1.3,0.5H13.4c-0.5,0-1-0.2-1.3-0.5
			c-0.4-0.4-0.5-0.8-0.5-1.3V10.4c0-0.5,0.2-0.9,0.5-1.3c0.4-0.4,0.8-0.5,1.3-0.5H31.9z M13.9,10.8c-0.2,0-0.2,0.1-0.2,0.2v3.6
			c0,0.2,0.1,0.2,0.2,0.2h7.3c0.1,0,0.2-0.1,0.2-0.2V11c0-0.1-0.1-0.2-0.2-0.2H13.9z M13.9,16.8c-0.2,0-0.2,0.1-0.2,0.2v3.6
			c0,0.1,0.1,0.2,0.2,0.2h7.3c0.1,0,0.2-0.1,0.2-0.2V17c0-0.2-0.1-0.2-0.2-0.2H13.9z M20.5,33.6h6.1c0.7,0,1.2-0.2,1.4-0.5
			c0.2-0.4,0.4-1.1,0.5-2.4c0-0.3,0.2-0.5,0.4-0.6s0.5-0.2,0.7,0c0.3,0.1,0.6,0.3,0.8,0.6c0.2,0.3,0.3,0.6,0.3,0.9
			c-0.2,1.7-0.6,2.8-1.1,3.4s-1.5,0.9-2.8,0.9h-6.4c-1.7,0-2.9-0.2-3.4-0.7c-0.6-0.4-0.9-1.3-0.9-2.6v-5.2c0-0.3,0.1-0.6,0.3-0.8
			c0.2-0.2,0.5-0.3,0.8-0.3s0.6,0.1,0.8,0.3c0.2,0.2,0.3,0.5,0.3,0.8v5.1c0,0.4,0.1,0.7,0.4,0.9C19,33.5,19.6,33.6,20.5,33.6z
			 M26.3,27.3c0.2,0.2,0.4,0.5,0.4,0.8s-0.1,0.6-0.3,0.8s-0.5,0.3-0.8,0.3s-0.6-0.1-0.9-0.3c-1.3-1.1-2.9-2.2-4.8-3.4
			c-0.2-0.1-0.4-0.3-0.4-0.6c0-0.3,0-0.5,0.2-0.7s0.5-0.3,0.8-0.4c0.1,0,0.1,0,0.2,0c0.2,0,0.5,0.1,0.7,0.2
			C23.3,25.1,24.9,26.2,26.3,27.3z M31.1,14.8c0.2,0,0.2-0.1,0.2-0.2V11c0-0.1-0.1-0.2-0.2-0.2h-7.1c-0.1,0-0.2,0.1-0.2,0.2v3.6
			c0,0.2,0.1,0.2,0.2,0.2H31.1z M31.1,20.8c0.2,0,0.2-0.1,0.2-0.2V17c0-0.2-0.1-0.2-0.2-0.2h-7.1c-0.1,0-0.2,0.1-0.2,0.2v3.6
			c0,0.1,0.1,0.2,0.2,0.2H31.1z M31,27.5c-0.1-0.1-0.2-0.3-0.2-0.5c0-0.1,0-0.2,0.1-0.3c0.1-0.3,0.3-0.5,0.5-0.6s0.3-0.1,0.5-0.1
			c0.1,0,0.3,0,0.4,0.1c0.3,0.1,0.6,0.3,0.8,0.5c1.4,2,2.6,3.9,3.4,5.7c0.1,0.2,0.1,0.3,0.1,0.5s0,0.3-0.1,0.5
			c-0.1,0.3-0.4,0.6-0.7,0.7c-0.1,0.1-0.3,0.1-0.5,0.1s-0.3,0-0.5-0.1c-0.3-0.1-0.5-0.4-0.7-0.7C33.5,31.5,32.5,29.6,31,27.5z"/>
		<path class="st1" d="M45.8,18.5c0.3,0.2,0.4,0.4,0.5,0.8c0.1,0.3,0,0.6-0.2,0.9c-0.2,0.2-0.4,0.4-0.8,0.4s-0.6,0-0.8-0.2
			c-1-0.8-2.1-1.5-3.5-2.2c-0.2-0.1-0.4-0.3-0.5-0.6c0-0.1,0-0.2,0-0.2c0-0.2,0.1-0.4,0.2-0.5c0.2-0.2,0.5-0.4,0.8-0.5
			s0.6,0,0.9,0.1C43.7,17.2,44.9,17.8,45.8,18.5z M45.1,25.5c0.1-0.3,0.3-0.4,0.6-0.5s0.5,0,0.8,0.1c0.3,0.2,0.5,0.4,0.6,0.8
			c0.1,0.3,0.1,0.6,0,1c-1.2,2.8-2.4,5.5-3.6,8.1c-0.1,0.3-0.4,0.5-0.7,0.6s-0.6,0-0.9-0.1c-0.3-0.2-0.5-0.5-0.6-0.8
			c0-0.1,0-0.2,0-0.3c0-0.2,0.1-0.4,0.2-0.6C42.6,31,43.9,28.3,45.1,25.5z M47.4,10.2c0.3,0.2,0.4,0.5,0.4,0.8s-0.1,0.6-0.2,0.9
			s-0.4,0.4-0.8,0.4s-0.6-0.1-0.8-0.3c-1-0.8-2.1-1.6-3.4-2.3c-0.2-0.1-0.4-0.4-0.5-0.6c-0.1-0.3,0-0.5,0.2-0.8
			c0.2-0.2,0.4-0.4,0.8-0.5c0.1,0,0.2,0,0.3,0c0.2,0,0.4,0.1,0.6,0.2C45.3,8.8,46.5,9.5,47.4,10.2z M67.8,23.6
			c0,0.5-0.2,0.9-0.5,1.3c-0.4,0.4-0.8,0.5-1.3,0.5h-4c-0.2,0-0.2,0.1-0.2,0.2v8.3c0,0.6-0.1,1.1-0.2,1.4c-0.1,0.3-0.4,0.6-0.9,0.7
			c-0.5,0.2-1.6,0.3-3.1,0.3c-0.1,0-0.1,0-0.2,0c-0.3,0-0.6-0.1-0.8-0.3c-0.2-0.2-0.4-0.4-0.5-0.7c-0.1-0.2-0.1-0.4,0.1-0.7
			c0.1-0.2,0.3-0.3,0.6-0.3c0,0,0.8,0,2.2,0c0.2,0,0.4,0,0.4-0.1c0.1-0.1,0.1-0.2,0.1-0.4v-8.3c0-0.1-0.1-0.2-0.2-0.2h-3.6
			c-0.5,0-0.9-0.2-1.3-0.5c-0.4-0.4-0.5-0.8-0.5-1.3v-7.3c0-0.5,0.2-0.9,0.5-1.3c0.4-0.4,0.8-0.5,1.3-0.5h3c0.1,0,0.2-0.1,0.3-0.2
			c0.2-1,0.4-2,0.6-3c0-0.1,0-0.2-0.2-0.2h-7.2c-0.1,0-0.2,0.1-0.2,0.2v6.3c0,7.8-1.2,13.8-3.7,17.8c-0.2,0.3-0.4,0.4-0.7,0.5
			s-0.6,0-0.9-0.2c-0.2-0.2-0.4-0.4-0.5-0.7c0-0.1,0-0.2,0-0.3c0-0.2,0.1-0.4,0.2-0.6c0.7-1.2,1.3-2.5,1.8-3.9s0.8-2.9,1-4.5
			c0.2-1.5,0.3-2.9,0.4-4.1c0.1-1.2,0.1-2.6,0.1-4v-6.9c0-0.5,0.2-0.9,0.5-1.3c0.4-0.4,0.8-0.5,1.3-0.5H68c0.3,0,0.5,0.1,0.8,0.3
			c0.2,0.2,0.3,0.5,0.3,0.8s-0.1,0.6-0.3,0.8S68.3,11,68,11h-5.9c0.1,0,0.1,0.1,0.1,0.2c-0.4,1.5-0.7,2.6-0.9,3.1c0,0.1,0,0.1,0,0.2
			l0.1,0.1H66c0.5,0,0.9,0.2,1.3,0.5c0.4,0.4,0.5,0.8,0.5,1.3L67.8,23.6L67.8,23.6z M54.4,28.2c0.1-0.3,0.4-0.5,0.6-0.6
			c0.3-0.1,0.6-0.2,0.9-0.1c0.3,0.1,0.5,0.2,0.6,0.5s0.1,0.5,0,0.8c-0.9,1.9-1.9,3.6-3,5c-0.2,0.2-0.5,0.4-0.8,0.4s-0.6,0-0.9-0.2
			c-0.2-0.2-0.4-0.4-0.4-0.7c0-0.3,0-0.5,0.2-0.8C52.8,31.3,53.7,29.8,54.4,28.2z M56.1,16.2c-0.1,0-0.2,0.1-0.2,0.2v2.3
			c0,0.2,0.1,0.2,0.2,0.2h9.3c0.1,0,0.2-0.1,0.2-0.2v-2.3c0-0.1-0.1-0.2-0.2-0.2H56.1z M56.1,20.8c-0.1,0-0.2,0.1-0.2,0.2v2.3
			c0,0.1,0.1,0.2,0.2,0.2h9.3c0.1,0,0.2-0.1,0.2-0.2V21c0-0.2-0.1-0.2-0.2-0.2H56.1z M64.5,28.7c-0.1-0.1-0.2-0.3-0.2-0.5
			c0-0.1,0-0.2,0-0.2c0.1-0.3,0.2-0.5,0.5-0.6c0.2-0.1,0.4-0.1,0.6-0.1c0.1,0,0.2,0,0.3,0c0.3,0.1,0.6,0.3,0.8,0.5
			c1.1,1.6,2,3,2.7,4.4c0.1,0.2,0.1,0.3,0.1,0.5c0,0.1,0,0.3-0.1,0.4c-0.1,0.3-0.3,0.5-0.7,0.7c-0.1,0.1-0.3,0.1-0.4,0.1
			c-0.1,0-0.3,0-0.4-0.1c-0.3-0.1-0.5-0.3-0.7-0.6C66.4,31.7,65.5,30.2,64.5,28.7z"/>
		<path class="st1" d="M100.5,26c0.2,0.2,0.3,0.3,0.3,0.3s0,0.1,0,0.4s-0.1,0.5-0.3,0.7s-0.5,0.3-0.8,0.3h-9.4c0,0-0.1,0-0.1,0.1
			v0.1c0.8,0.8,1.8,1.5,2.8,2.2c1.1,0.7,2.2,1.3,3.4,1.9s2.4,1,3.7,1.4c0.3,0.1,0.4,0.3,0.5,0.5c0.1,0.3,0,0.5-0.2,0.8
			s-0.6,0.5-0.9,0.6c-0.2,0.1-0.3,0.1-0.5,0.1s-0.4,0-0.6-0.1c-2-0.7-3.9-1.7-5.8-2.8c-1.9-1.2-3.5-2.5-4.8-3.9h-0.1
			c0,0-0.1,0-0.1,0.1v6.5c0,0.3-0.1,0.6-0.3,0.8c-0.2,0.2-0.5,0.3-0.8,0.3S86,36.2,85.8,36c-0.2-0.2-0.3-0.5-0.3-0.8v-6.7
			c0,0,0-0.1-0.1-0.1h-0.1c-1.3,1.4-2.9,2.7-4.8,4c-1.9,1.2-3.8,2.2-5.8,3c-0.2,0.1-0.4,0.1-0.6,0.1c-0.2,0-0.3,0-0.5-0.1
			c-0.4-0.1-0.6-0.3-0.9-0.6c-0.2-0.2-0.2-0.5-0.2-0.8c0.1-0.3,0.3-0.5,0.5-0.6c1.8-0.6,3.6-1.4,5.3-2.4s3.2-2.1,4.5-3.2v-0.1
			c0,0,0-0.1-0.1-0.1h-8.9c-0.3,0-0.5-0.1-0.8-0.3c-0.2-0.2-0.3-0.4-0.3-0.7c0-0.3,0.1-0.5,0.3-0.8c0.2-0.2,0.5-0.3,0.8-0.3h11.6
			c0.1,0,0.2-0.1,0.2-0.2v-1.5c0-0.2-0.1-0.2-0.2-0.2c-0.4,0-1,0-1.6,0c-0.3,0-0.6-0.1-0.8-0.3c-0.2-0.2-0.4-0.4-0.6-0.7
			c-0.1-0.2-0.1-0.4,0.1-0.6c0.1-0.2,0.3-0.3,0.5-0.3c0.5,0,1,0,1.4,0c0.5,0,1,0,1.3,0c0.2,0,0.4,0,0.5-0.1s0.1-0.2,0.1-0.4v-4.3
			c0-0.1-0.1-0.2-0.2-0.2c-0.1,0-0.2,0-0.2,0.1c-1.3,1.3-2.8,2.5-4.7,3.7c-1.9,1.1-3.8,2.1-5.7,2.8c-0.2,0.1-0.4,0.1-0.5,0.1
			c-0.2,0-0.3,0-0.5-0.1c-0.3-0.1-0.6-0.3-0.8-0.6c-0.2-0.2-0.2-0.5-0.1-0.7c0.1-0.3,0.2-0.4,0.5-0.5c3.5-1.2,6.5-2.7,8.9-4.7
			c0,0,0.1-0.1,0-0.1c0,0,0-0.1-0.1-0.1h-8.5c-0.3,0-0.5-0.1-0.7-0.3s-0.3-0.4-0.3-0.7c0-0.3,0.1-0.5,0.3-0.7s0.4-0.3,0.7-0.3h13.1
			l0,0c0,0,0,0,0-0.1c-2.1-0.7-4.1-1.3-6-1.7c-0.2-0.1-0.3-0.2-0.4-0.4c-0.1-0.2,0-0.4,0.1-0.5c0.4-0.4,0.8-0.6,1.2-0.6
			c0.1,0,0.2,0,0.4,0c1.2,0.2,2.6,0.6,4,1c0.1,0,0.3,0,0.4,0c1.6-0.6,3.2-1.3,4.7-2.2c0,0,0.1,0,0-0.1c0,0,0,0-0.1,0H77
			c-0.3,0-0.5-0.1-0.7-0.3S76,9.3,76,9c0-0.3,0.1-0.5,0.3-0.7S76.7,8,77,8h17.8h0.1C94.9,8,95,8,95,8c0.2,0,0.4,0.1,0.6,0.2L96,8.5
			c0.2,0.2,0.3,0.4,0.3,0.6S96.2,9.5,96,9.7c-1.8,1.3-3.9,2.4-6.3,3.4l-0.1,0.1c0,0,0,0.1,0.1,0.1c0.7,0.2,1.4,0.5,2,0.8
			c0.2,0.1,0.2,0.2,0.1,0.3l0,0h6.4h0.1c0.3-0.1,0.5-0.1,0.8,0l0.5,0.2c0.2,0.1,0.4,0.2,0.5,0.5c0.1,0.2,0,0.5-0.1,0.6
			c-1.5,2-2.8,3.5-3.9,4.6c-0.3,0.3-0.7,0.5-1.2,0.5c-0.2,0-0.5-0.1-0.7-0.2s-0.4-0.3-0.5-0.5c-0.1-0.3,0-0.5,0.2-0.7
			c0.9-0.9,1.8-1.9,2.6-2.9v-0.1l-0.1-0.1h-7.6c-0.2,0-0.2,0.1-0.2,0.2v4.3c0,0.6-0.1,1.1-0.3,1.4s-0.5,0.5-1,0.7
			c-0.2,0.1-0.5,0.1-0.7,0.2c0.3,0,0.6,0.1,0.9,0.4c0.2,0.2,0.4,0.5,0.4,0.9V25c0,0.2,0.1,0.2,0.2,0.2h11.7
			C100.1,25.7,100.3,25.8,100.5,26z"/>
		<path class="st1" d="M131.8,26.1c0.3,0,0.5,0.1,0.7,0.3c0.2,0.2,0.3,0.5,0.3,0.7s-0.1,0.5-0.3,0.7s-0.4,0.3-0.7,0.3h-26.2
			c-0.3,0-0.5-0.1-0.8-0.3c-0.2-0.2-0.3-0.5-0.3-0.7s0.1-0.5,0.3-0.7s0.5-0.3,0.8-0.3h11.6c0.1,0,0.2-0.1,0.2-0.2v-2.4
			c0-0.1-0.1-0.2-0.2-0.2h-9.1c-0.3,0-0.5-0.1-0.7-0.3s-0.3-0.4-0.3-0.7c0-0.3,0.1-0.5,0.3-0.7s0.4-0.3,0.7-0.3h9.1
			c0.1,0,0.2-0.1,0.2-0.2v-2.2c0-0.1-0.1-0.2-0.2-0.2h-7.7c-0.5,0-0.9-0.2-1.3-0.5c-0.4-0.4-0.5-0.8-0.5-1.3V9.7
			c0-0.5,0.2-0.9,0.5-1.3c0.4-0.4,0.8-0.5,1.3-0.5h18.2c0.5,0,0.9,0.2,1.3,0.5c0.4,0.4,0.5,0.8,0.5,1.3v7.2c0,0.5-0.2,0.9-0.5,1.3
			c-0.4,0.4-0.8,0.5-1.3,0.5h-7.6c-0.2,0-0.2,0.1-0.2,0.2v2.2c0,0.1,0.1,0.2,0.2,0.2h9.1c0.3,0,0.5,0.1,0.7,0.3s0.3,0.4,0.3,0.7
			c0,0.3-0.1,0.5-0.3,0.7s-0.4,0.3-0.7,0.3h-9.1c-0.2,0-0.2,0.1-0.2,0.2v2.4c0,0.2,0.1,0.2,0.2,0.2H131.8z M107.7,35
			c-0.2,0.3-0.5,0.5-0.9,0.5c-0.1,0-0.2,0-0.3,0c-0.2,0-0.5-0.1-0.8-0.2s-0.4-0.3-0.4-0.6c0-0.1,0-0.1,0-0.2c0-0.2,0.1-0.4,0.2-0.6
			c0.8-0.9,1.6-2.1,2.2-3.4c0.1-0.3,0.4-0.5,0.7-0.7c0.2-0.1,0.4-0.1,0.6-0.1c0.1,0,0.2,0,0.3,0c0.3,0.1,0.5,0.3,0.6,0.5
			c0.1,0.3,0.1,0.6,0,0.8C109.3,32.7,108.5,33.9,107.7,35z M110,16.4c0,0.1,0.1,0.2,0.2,0.2h7c0.1,0,0.2-0.1,0.2-0.2V9.9
			c0-0.1-0.1-0.2-0.2-0.2h-7c-0.2,0-0.2,0.1-0.2,0.2V16.4z M112.2,11.8c-0.1-0.2-0.1-0.4,0-0.6s0.2-0.3,0.4-0.4s0.5-0.1,0.7,0
			s0.4,0.2,0.5,0.4c0.7,1.1,1.1,2.1,1.4,3.1c0.1,0.2,0,0.5-0.1,0.7s-0.3,0.4-0.5,0.5s-0.4,0.1-0.7,0c-0.2-0.1-0.3-0.3-0.4-0.5
			C113.3,14,112.8,12.9,112.2,11.8z M113.8,31.4c0-0.1,0-0.1,0-0.2c0-0.2,0.1-0.4,0.2-0.6c0.2-0.2,0.4-0.4,0.7-0.4s0.6,0,0.9,0.2
			c0.3,0.2,0.4,0.5,0.5,0.8c0.2,1,0.3,1.9,0.4,2.8c0,0.3-0.1,0.6-0.3,0.9s-0.5,0.4-0.8,0.4c-0.1,0-0.1,0-0.2,0
			c-0.2,0-0.5-0.1-0.7-0.2c-0.2-0.2-0.4-0.5-0.4-0.8C114.1,33.5,114,32.5,113.8,31.4z M126.9,16.7c0.1,0,0.2-0.1,0.2-0.2V10
			c0-0.1-0.1-0.2-0.2-0.2H120c-0.2,0-0.2,0.1-0.2,0.2v6.5c0,0.1,0.1,0.2,0.2,0.2H126.9z M120.6,31.4c-0.1-0.1-0.1-0.2-0.1-0.4
			c0-0.1,0-0.3,0.1-0.4c0.1-0.3,0.4-0.4,0.6-0.5c0.3-0.1,0.7,0,1,0.1c0.3,0.2,0.5,0.4,0.6,0.7c0.4,1,0.8,2,1.1,2.9
			c0.1,0.3,0,0.6-0.1,0.9c-0.2,0.3-0.4,0.5-0.8,0.5c-0.3,0.1-0.6,0-0.9-0.1c-0.3-0.2-0.5-0.4-0.5-0.8
			C121.3,33.5,121,32.5,120.6,31.4z M123.2,15.5c-0.1,0.2-0.3,0.3-0.5,0.4s-0.5,0.1-0.7,0s-0.3-0.2-0.4-0.4c-0.1-0.2,0-0.4,0.1-0.6
			c0.7-1.2,1.2-2.3,1.7-3.4c0.1-0.2,0.3-0.4,0.5-0.5s0.5-0.1,0.7,0s0.4,0.2,0.5,0.5s0.1,0.5,0,0.7C124.3,13.6,123.7,14.7,123.2,15.5
			z M127.4,31.1c-0.1-0.2-0.2-0.3-0.2-0.5c0-0.1,0-0.1,0-0.2c0.1-0.3,0.2-0.4,0.5-0.5c0.2-0.1,0.5-0.1,0.7-0.1
			c0.4,0,0.8,0.2,1.2,0.6c1.1,1.1,2,2.3,2.8,3.5c0.1,0.2,0.2,0.3,0.2,0.5c0,0.1,0,0.2,0,0.3c-0.1,0.3-0.3,0.5-0.6,0.6
			c-0.2,0.1-0.3,0.1-0.5,0.1c-0.1,0-0.3,0-0.5-0.1c-0.3-0.1-0.6-0.3-0.8-0.6c-0.3-0.5-0.7-1-1.1-1.6
			C128.4,32.4,127.9,31.7,127.4,31.1z"/>
		<path class="st1" d="M149.4,20.8c0,0.2-0.1,0.5-0.3,0.7s-0.4,0.3-0.7,0.3s-0.5-0.1-0.7-0.3c-0.2-0.2-0.3-0.4-0.3-0.7v-1.7
			c0-0.1-0.1-0.2-0.2-0.2h-8.5c-0.1,0-0.2,0.1-0.2,0.2v1.7c0,0.1,0.1,0.2,0.2,0.2h6.8c0.5,0,0.9,0.2,1.3,0.5
			c0.4,0.4,0.5,0.8,0.5,1.3v11.3c0,0.5-0.1,0.9-0.2,1.2s-0.4,0.5-0.7,0.7c-0.5,0.2-1.3,0.3-2.4,0.3c-0.3,0-0.5-0.1-0.8-0.3
			c-0.2-0.2-0.4-0.4-0.5-0.7c-0.1-0.2-0.1-0.4,0.1-0.6s0.3-0.3,0.5-0.3s0.4,0,0.6,0c0.4,0,0.7,0,0.9,0c0.1,0,0.2,0,0.3-0.1
			c0.1,0,0.1-0.1,0.1-0.3v-3.1c0-0.1-0.1-0.2-0.2-0.2h-4.3c-0.2,0-0.2,0.1-0.2,0.2v4.4c0,0.3-0.1,0.5-0.3,0.7s-0.4,0.3-0.7,0.3
			s-0.5-0.1-0.7-0.3c-0.2-0.2-0.3-0.4-0.3-0.7V22c0-0.1-0.1-0.2-0.2-0.2c-0.4,0-0.8-0.2-1.1-0.5s-0.5-0.7-0.5-1.1v-1.3
			c0-0.4,0.2-0.8,0.5-1.1c0.3-0.3,0.7-0.5,1.1-0.5c0.1,0,0.2-0.1,0.2-0.2v-6.8c0-0.5,0.2-1,0.5-1.3c0.4-0.4,0.8-0.5,1.3-0.5h5.2
			c0.5,0,0.9,0.2,1.3,0.5c0.4,0.4,0.5,0.8,0.5,1.3v6.8c0,0.1,0.1,0.2,0.2,0.2c0.5,0,0.9,0.2,1.2,0.5s0.5,0.7,0.5,1.2v1.8H149.4z
			 M140.7,10.2c-0.2,0-0.2,0.1-0.2,0.2V17c0,0.1,0.1,0.2,0.2,0.2h1.2c0.2,0,0.2-0.1,0.2-0.2v-2.9c0-0.5,0.2-1,0.5-1.3
			c0.4-0.4,0.8-0.5,1.3-0.5h1.5c0.1,0,0.2-0.1,0.2-0.2v-1.6c0-0.2-0.1-0.2-0.2-0.2L140.7,10.2L140.7,10.2z M145.4,23
			c0-0.1-0.1-0.2-0.2-0.2h-4.3c-0.2,0-0.2,0.1-0.2,0.2v1.8c0,0.1,0.1,0.2,0.2,0.2h4.3c0.1,0,0.2-0.1,0.2-0.2V23z M140.6,28.9
			c0,0.1,0.1,0.2,0.2,0.2h4.3c0.1,0,0.2-0.1,0.2-0.2V27c0-0.1-0.1-0.2-0.2-0.2h-4.3c-0.2,0-0.2,0.1-0.2,0.2V28.9z M145.4,17.2
			c0.1,0,0.2-0.1,0.2-0.2v-3c0-0.1-0.1-0.2-0.2-0.2h-1.6c-0.1,0-0.2,0.1-0.2,0.2v3c0,0.1,0.1,0.2,0.2,0.2H145.4z M160.5,33.8
			c0,0.1,0,0.1,0,0.2l0.1,0.1h3.9c0.2,0,0.5,0.1,0.6,0.3c0.2,0.2,0.3,0.4,0.3,0.6s-0.1,0.5-0.3,0.6c-0.2,0.2-0.4,0.2-0.6,0.2h-14.6
			c-0.2,0-0.4-0.1-0.6-0.2c-0.2-0.2-0.3-0.4-0.3-0.6s0.1-0.5,0.3-0.6c0.2-0.2,0.4-0.3,0.6-0.3h3.8c0.1,0,0.1,0,0.1-0.1s0-0.1,0-0.1
			c-0.2-0.8-0.5-1.5-0.8-2.2c-0.1-0.2-0.1-0.5,0-0.7s0.2-0.4,0.5-0.5c0.1,0,0.2,0,0.3,0s0.3,0,0.4,0.1c0.2,0.1,0.4,0.3,0.5,0.5
			c0.4,0.9,0.7,1.7,0.9,2.4c0.1,0.3,0,0.4-0.3,0.5l0,0h3.4c-0.2-0.1-0.2-0.2-0.1-0.3c0.4-0.7,0.7-1.6,1.1-2.5
			c0.1-0.3,0.2-0.5,0.5-0.6c0.2-0.1,0.3-0.1,0.5-0.1c0.1,0,0.2,0,0.3,0c0.2,0.1,0.4,0.2,0.5,0.5c0.1,0.2,0.1,0.5,0,0.7
			C161,32.8,160.6,33.5,160.5,33.8z M164.3,21c0.2,0,0.4,0.1,0.6,0.3c0.2,0.2,0.3,0.4,0.3,0.6s-0.1,0.4-0.3,0.6s-0.4,0.3-0.6,0.3
			h-13.9c-0.2,0-0.4-0.1-0.6-0.3c-0.2-0.2-0.3-0.4-0.3-0.6s0.1-0.4,0.3-0.6s0.4-0.3,0.6-0.3H164.3z M162.2,10.2
			c0.5,0,0.9,0.2,1.3,0.5c0.4,0.4,0.5,0.8,0.5,1.3v5.6c0,0.5-0.2,1-0.5,1.3c-0.4,0.4-0.8,0.5-1.3,0.5h-9.8c-0.5,0-1-0.2-1.3-0.5
			c-0.4-0.4-0.5-0.8-0.5-1.3V12c0-0.5,0.2-0.9,0.5-1.3c0.4-0.4,0.8-0.5,1.3-0.5h1.7c0.2,0,0.2-0.1,0.2-0.2V8.2
			c0-0.2,0.1-0.5,0.2-0.6c0.2-0.2,0.4-0.3,0.6-0.3s0.5,0.1,0.6,0.3c0.2,0.2,0.3,0.4,0.3,0.6V10c0,0.1,0.1,0.2,0.2,0.2h1.8
			c0.2,0,0.2-0.1,0.2-0.2V8.2c0-0.2,0.1-0.5,0.3-0.6c0.2-0.2,0.4-0.3,0.6-0.3c0.2,0,0.4,0.1,0.6,0.3c0.2,0.2,0.3,0.4,0.3,0.6V10
			c0,0.1,0.1,0.2,0.2,0.2H162.2z M163.5,28.3c0,0.5-0.2,1-0.5,1.3c-0.4,0.4-0.8,0.5-1.3,0.5H153c-0.5,0-0.9-0.2-1.3-0.5
			c-0.4-0.4-0.5-0.8-0.5-1.3v-2.2c0-0.5,0.2-1,0.5-1.3c0.4-0.4,0.8-0.5,1.3-0.5h8.7c0.5,0,0.9,0.2,1.3,0.5c0.4,0.4,0.5,0.8,0.5,1.3
			V28.3z M152.6,11.8c-0.2,0-0.2,0.1-0.2,0.2v1.7c0,0.2,0.1,0.2,0.2,0.2h1.8c0.2,0,0.2-0.1,0.2-0.2V12c0-0.2-0.1-0.2-0.2-0.2H152.6z
			 M152.6,15.6c-0.2,0-0.2,0.1-0.2,0.2v1.7c0,0.2,0.1,0.2,0.2,0.2h1.8c0.2,0,0.2-0.1,0.2-0.2v-1.7c0-0.2-0.1-0.2-0.2-0.2H152.6z
			 M153.3,25.9c-0.1,0-0.2,0.1-0.2,0.2v2.3c0,0.2,0.1,0.2,0.2,0.2h7.9c0.1,0,0.2-0.1,0.2-0.2v-2.3c0-0.1-0.1-0.2-0.2-0.2H153.3z
			 M156.1,13.8c0,0.2,0.1,0.2,0.2,0.2h1.8c0.2,0,0.2-0.1,0.2-0.2v-1.7c0-0.2-0.1-0.2-0.2-0.2h-1.8c-0.2,0-0.2,0.1-0.2,0.2V13.8z
			 M158.4,15.8c0-0.2-0.1-0.2-0.2-0.2h-1.8c-0.2,0-0.2,0.1-0.2,0.2v1.7c0,0.2,0.1,0.2,0.2,0.2h1.8c0.2,0,0.2-0.1,0.2-0.2V15.8z
			 M161.9,14c0.2,0,0.2-0.1,0.2-0.2v-1.7c0-0.2-0.1-0.2-0.2-0.2H160c-0.1,0-0.2,0.1-0.2,0.2v1.7c0,0.2,0.1,0.2,0.2,0.2H161.9z
			 M161.9,17.8c0.2,0,0.2-0.1,0.2-0.2v-1.7c0-0.2-0.1-0.2-0.2-0.2H160c-0.1,0-0.2,0.1-0.2,0.2v1.7c0,0.2,0.1,0.2,0.2,0.2H161.9z"/>
	</g>
	<g class="st0">
		<path class="st1" d="M25.6,49.2c0.1-0.1,0.2-0.2,0.3-0.3c0.1,0,0.2-0.1,0.2-0.1c0.1,0,0.1,0,0.2,0c0.1,0,0.2,0.1,0.3,0.2
			s0.1,0.2,0,0.4c-0.4,0.9-0.8,1.8-1.4,2.8c0,0.1-0.1,0.1-0.1,0.2v10.2c0,0.1,0,0.3-0.1,0.4s-0.2,0.1-0.4,0.1s-0.3,0-0.4-0.1
			c-0.1-0.1-0.1-0.2-0.1-0.4v-8.7l0,0l0,0c-0.5,0.6-0.9,1.2-1.4,1.7c-0.1,0.1-0.2,0.1-0.4,0.1c-0.1,0-0.3-0.1-0.3-0.2
			c-0.1-0.1-0.1-0.2-0.1-0.4c0,0,0,0,0-0.1c0-0.2,0.1-0.3,0.2-0.4c0.7-0.7,1.3-1.5,2-2.5C24.7,51.2,25.2,50.2,25.6,49.2z M36.1,57.6
			c0.1,0,0.3,0,0.4,0.1c0.1,0.1,0.1,0.2,0.1,0.4c0,0.1,0,0.3-0.1,0.4s-0.2,0.1-0.4,0.1h-4.2c-0.1,0-0.1,0-0.1,0.1v3.9
			c0,0.1-0.1,0.3-0.2,0.4c-0.1,0.1-0.2,0.2-0.4,0.2c-0.1,0-0.3-0.1-0.4-0.2c-0.1-0.1-0.2-0.2-0.2-0.4v-3.9c0-0.1,0-0.1-0.1-0.1h-4.1
			c-0.1,0-0.3,0-0.4-0.1c-0.1-0.1-0.1-0.2-0.1-0.4c0-0.1,0-0.3,0.1-0.4s0.2-0.1,0.4-0.1h4.1c0.1,0,0.1,0,0.1-0.1v-2.7
			c0-0.1,0-0.1-0.1-0.1h-3.4c-0.1,0-0.3,0-0.4-0.1c-0.1-0.1-0.1-0.2-0.1-0.4s0-0.3,0.1-0.4s0.2-0.1,0.4-0.1h3.4c0.1,0,0.1,0,0.1-0.1
			v-4.3c0-0.1,0.1-0.3,0.2-0.4c0.1-0.1,0.2-0.2,0.4-0.2c0.1,0,0.3,0.1,0.4,0.2c0.1,0.1,0.2,0.2,0.2,0.4v4.3c0,0.1,0,0.1,0.1,0.1h3.6
			c0.1,0,0.3,0,0.4,0.1C36,53.9,36,54,36,54.2s0,0.3-0.1,0.4s-0.2,0.1-0.4,0.1h-3.6c-0.1,0-0.1,0-0.1,0.1v2.7c0,0.1,0,0.1,0.1,0.1
			H36.1z M29.2,52.3c0.1,0.1,0,0.3,0,0.4c-0.1,0.1-0.2,0.2-0.3,0.3c-0.1,0.1-0.2,0-0.4,0s-0.2-0.2-0.2-0.3c-0.2-0.8-0.6-1.6-1.1-2.5
			c-0.1-0.1-0.1-0.2,0-0.4c0-0.1,0.1-0.2,0.2-0.3c0.1,0,0.3,0,0.4,0c0.1,0,0.2,0.1,0.3,0.2C28.6,50.7,28.9,51.5,29.2,52.3z
			 M34.5,49.9c0.1-0.1,0.2-0.2,0.3-0.3s0.3-0.1,0.4,0c0.1,0.1,0.2,0.1,0.3,0.3c0.1,0.1,0,0.3,0,0.4c-0.6,1.2-1,2-1.4,2.6
			c-0.1,0.1-0.2,0.2-0.3,0.2s-0.3,0-0.4,0c-0.1-0.1-0.2-0.1-0.2-0.2s0-0.2,0-0.3C33.7,51.6,34.1,50.8,34.5,49.9z"/>
		<path class="st1" d="M41.8,49.2c0.1-0.1,0.2-0.2,0.3-0.3c0.1,0,0.2-0.1,0.2-0.1c0.1,0,0.1,0,0.2,0c0.1,0,0.2,0.1,0.3,0.2
			s0.1,0.3,0,0.4c-0.4,1-0.9,2-1.4,2.8c0,0.1,0,0.1,0,0.2v10.1c0,0.1-0.1,0.3-0.2,0.4C41.1,63,41,63,40.8,63s-0.3,0-0.4-0.1
			c-0.1-0.1-0.1-0.2-0.1-0.4V54l0,0l0,0c-0.4,0.5-0.8,1.1-1.2,1.6c-0.1,0.1-0.2,0.2-0.4,0.1c-0.1,0-0.3-0.1-0.3-0.2
			c-0.1-0.1-0.1-0.3-0.1-0.4c0-0.2,0.1-0.4,0.2-0.5C39.8,53.2,41,51.3,41.8,49.2z M51.8,52.8C51.8,52.7,51.8,52.7,51.8,52.8
			l-3.1-0.1c-0.1,0-0.1,0-0.1,0.1v9c0,0.3,0,0.6-0.1,0.7s-0.2,0.3-0.4,0.4c-0.3,0.1-0.8,0.2-1.5,0.2l0,0c-0.2,0-0.3-0.1-0.4-0.2
			c-0.1-0.1-0.2-0.2-0.3-0.4c0-0.1,0-0.2,0-0.4c0.1-0.1,0.2-0.2,0.3-0.2c0.2,0,0.4,0,0.5,0s0.2,0,0.4,0s0.2,0,0.2,0
			c0.1,0,0.2,0,0.2-0.1c0,0,0.1-0.1,0.1-0.2v-9c0-0.1,0-0.1-0.1-0.1h-2.3c-0.1,0-0.1,0-0.2,0.1c-0.4,0.8-0.8,1.6-1.2,2.2
			c-0.1,0.1-0.2,0.2-0.3,0.2s-0.3,0-0.4-0.1c-0.1-0.1-0.2-0.2-0.2-0.4v-0.1c0-0.1,0-0.2,0.1-0.3c0.9-1.3,1.6-3,2.2-5.2
			c0-0.1,0.1-0.2,0.2-0.3c0.1-0.1,0.2-0.1,0.3-0.1h0.1c0.1,0,0.2,0.1,0.3,0.2s0.1,0.3,0.1,0.4c-0.2,0.8-0.4,1.6-0.7,2.2
			c0,0,0,0,0,0.1c0,0,0,0,0.1,0h6.5l0,0c0.1,0,0.2,0,0.3,0h0.2c0.1,0,0.2,0.1,0.2,0.2s0.1,0.1,0.1,0.2c0,0.3-0.2,1.2-0.5,2.6
			c0,0.1-0.1,0.2-0.2,0.3c-0.1,0.1-0.2,0.1-0.4,0.1c-0.1,0-0.2-0.1-0.3-0.2s-0.1-0.2-0.1-0.3C51.5,54.1,51.6,53.6,51.8,52.8z
			 M44.8,55.9c0-0.1,0.1-0.2,0.2-0.3s0.3-0.1,0.4-0.1c0.1,0,0.2,0.1,0.3,0.2s0.1,0.3,0.1,0.4c-0.5,1.8-1.1,3.2-1.9,4.5
			c-0.1,0.1-0.2,0.2-0.4,0.2s-0.3,0-0.4-0.1c-0.1-0.1-0.2-0.2-0.2-0.3c0-0.1,0-0.3,0.1-0.4C43.8,59,44.4,57.6,44.8,55.9z M50.1,56
			c0-0.1,0-0.1,0-0.2s0-0.1,0-0.2c0.1-0.1,0.1-0.2,0.2-0.2c0.1,0,0.1,0,0.2,0c0.1,0,0.1,0,0.2,0c0.1,0.1,0.2,0.1,0.3,0.3
			c0.8,1.6,1.4,3,1.7,4.4v0.1c0,0.1,0,0.2-0.1,0.3c-0.1,0.1-0.2,0.2-0.3,0.3h-0.1c-0.1,0-0.2,0-0.2-0.1c-0.1-0.1-0.2-0.2-0.2-0.3
			C51.4,59,50.8,57.6,50.1,56z"/>
		<path class="st1" d="M60.3,56c0,0.1,0,0.3-0.1,0.4s-0.2,0.2-0.3,0.2l-1.6,0.5c-0.1,0-0.1,0.1-0.1,0.1v4.5c0,0.3,0,0.5-0.1,0.7
			s-0.2,0.3-0.4,0.4C57.5,62.9,57,63,56.2,63c-0.2,0-0.3,0-0.4-0.1c-0.1-0.1-0.2-0.2-0.3-0.4c0-0.1,0-0.2,0-0.3
			c0.1-0.1,0.2-0.1,0.3-0.1c0,0,0.4,0,1.1,0c0.2,0,0.3-0.1,0.3-0.3v-4.2v-0.1c0,0,0,0-0.1,0c-0.6,0.2-1.1,0.3-1.6,0.5
			c-0.1,0-0.3,0-0.4,0c-0.1-0.1-0.2-0.2-0.3-0.3c0-0.1,0-0.1,0-0.2s0-0.2,0.1-0.2c0.1-0.1,0.2-0.2,0.3-0.2c0.4-0.1,1.1-0.3,1.9-0.5
			c0.1,0,0.1-0.1,0.1-0.2v-3.3c0-0.1,0-0.1-0.1-0.1h-1.7c-0.1,0-0.3,0-0.4-0.1c-0.1-0.1-0.1-0.2-0.1-0.4s0-0.3,0.1-0.4
			s0.2-0.1,0.4-0.1h1.7c0.1,0,0.1,0,0.1-0.1v-2.6c0-0.1,0-0.3,0.1-0.4s0.2-0.1,0.4-0.1c0.1,0,0.3,0,0.4,0.1c0.1,0.1,0.1,0.2,0.1,0.4
			v2.6c0,0.1,0,0.1,0.1,0.1h1.3c0.1,0,0.3,0,0.4,0.1s0.1,0.2,0.1,0.4s0,0.3-0.1,0.4S59.7,53,59.5,53h-1.3c-0.1,0-0.1,0-0.1,0.1v3
			v0.1c0,0,0,0,0.1,0l1.5-0.4c0.1,0,0.2,0,0.3,0.1C60.3,55.8,60.3,55.9,60.3,56z M67.1,55.1c0.1-0.1,0.2-0.2,0.3-0.2s0.2,0,0.4,0
			c0.1,0.1,0.2,0.2,0.2,0.3c0,0.1,0,0.3,0,0.4c-0.6,1.3-1.5,2.5-2.5,3.6c-0.1,0.1-0.1,0.1,0,0.2c0.6,1.6,1.4,2.4,2.3,2.5l0,0
			c0.2,0,0.3-0.2,0.5-0.5c0.1-0.3,0.2-0.9,0.3-1.6c0-0.1,0.1-0.2,0.2-0.2c0.1,0,0.2,0,0.3,0c0.3,0.2,0.4,0.4,0.4,0.6v0.1
			c-0.2,1-0.4,1.7-0.7,2.1S68.3,63,67.9,63l0,0c-1.3-0.1-2.4-1.1-3.2-2.9c0-0.1-0.1-0.1-0.1,0c-1,0.9-2,1.6-3.1,2.2
			c-0.1,0.1-0.3,0.1-0.5,0.1s-0.3-0.1-0.4-0.2c-0.1-0.1-0.1-0.2-0.1-0.3c0-0.2,0.1-0.3,0.2-0.3c1.2-0.6,2.4-1.4,3.5-2.4
			c0.1-0.1,0.1-0.1,0-0.2c-0.4-1.3-0.8-3-1-4.9c0-0.1-0.1-0.1-0.1-0.1l-1.9,0.2c-0.1,0-0.3,0-0.4-0.1c-0.1-0.1-0.2-0.2-0.2-0.3
			s0-0.3,0.1-0.4s0.2-0.2,0.3-0.2l1.9-0.2c0.1,0,0.1-0.1,0.1-0.1c-0.1-1.1-0.2-2.3-0.3-3.6c0-0.1,0-0.3,0.1-0.4s0.2-0.2,0.4-0.2
			c0.1,0,0.3,0.1,0.4,0.2c0.1,0.1,0.2,0.2,0.2,0.4c0.1,1.3,0.2,2.5,0.3,3.5c0,0.1,0.1,0.1,0.1,0.1l4.3-0.5c0.1,0,0.3,0,0.4,0.1
			c0.1,0.1,0.2,0.2,0.2,0.3c0,0.1,0,0.3-0.1,0.4s-0.2,0.2-0.3,0.2l-4.3,0.5c-0.1,0-0.1,0.1-0.1,0.1c0.2,1.6,0.5,3,0.8,4.1
			c0,0,0,0,0.1,0c0,0,0,0,0.1,0C65.9,57.2,66.6,56.2,67.1,55.1z M67.6,50.9c0.1,0.1,0.1,0.2,0.1,0.4c0,0.1-0.1,0.3-0.2,0.3
			c-0.1,0.1-0.2,0.1-0.4,0.1c-0.1,0-0.2-0.1-0.3-0.2c-0.4-0.5-0.9-1-1.5-1.6c-0.1-0.1-0.1-0.2-0.1-0.3c0-0.1,0.1-0.2,0.2-0.3
			c0.1-0.1,0.2-0.1,0.4-0.1c0.1,0,0.3,0.1,0.4,0.2C66.7,49.9,67.2,50.4,67.6,50.9z"/>
		<path class="st1" d="M76,60.9C76,61,76,61,76,60.9l3.1-0.3c0.1,0,0.2,0,0.3,0.1s0.2,0.2,0.2,0.3c0,0.1,0,0.3-0.1,0.4
			s-0.2,0.2-0.3,0.2c-1,0.1-2.5,0.3-4.3,0.6s-2.8,0.4-3,0.4s-0.3,0-0.4-0.1c-0.1-0.1-0.2-0.2-0.2-0.4V62c0-0.1,0-0.1,0-0.2
			s0.1-0.2,0.2-0.2c0.1-0.1,0.2-0.1,0.3-0.1c1-0.1,2-0.2,3.1-0.4C75,61.1,75,61,75,61v-2.7c0-0.1,0-0.1-0.1-0.1h-2.5
			c-0.1,0-0.2,0-0.3-0.1S72,57.9,72,57.8c0-0.1,0-0.2,0.1-0.3s0.2-0.1,0.3-0.1h2.5c0.1,0,0.1,0,0.1-0.1V56c0-0.1,0-0.3,0.1-0.4
			s0.2-0.1,0.4-0.1c0.1,0,0.3,0,0.4,0.1C76,55.7,76,55.8,76,56v1.3c0,0.1,0,0.1,0.1,0.1h2.5c0.1,0,0.2,0,0.3,0.1s0.1,0.2,0.1,0.3
			c0,0.1,0,0.2-0.1,0.3s-0.2,0.1-0.3,0.1h-2.5c-0.1,0-0.1,0-0.1,0.1L76,60.9L76,60.9z M76.8,52.4c-0.1-0.1-0.1-0.2-0.1-0.3
			c0-0.1,0.1-0.2,0.2-0.2c0.1-0.1,0.2-0.1,0.4-0.1c0.1,0,0.2,0.1,0.3,0.2c0.9,1,1.6,2,2,2.8c0.1,0.1,0.1,0.2,0,0.4
			c0,0.1-0.1,0.2-0.2,0.3c-0.1,0.1-0.2,0.1-0.4,0.1c-0.1,0-0.2-0.1-0.3-0.2s-0.2-0.3-0.3-0.5c0-0.1-0.1-0.1-0.2-0.1
			c-1,0.1-3.1,0.2-6.3,0.4c-0.1,0-0.3,0-0.4-0.1c-0.1-0.1-0.2-0.2-0.2-0.4c0-0.1,0-0.3,0.1-0.4s0.2-0.2,0.4-0.2h0.8
			c0.1,0,0.1,0,0.2-0.1c0.4-1,0.8-2,1.2-3.1v-0.1c0,0,0,0-0.1,0h-2.1c-0.1,0-0.2,0-0.3-0.1s-0.1-0.2-0.1-0.3c0-0.1,0-0.2,0.1-0.3
			c0.1-0.1,0.2-0.1,0.3-0.1h7.2c0.1,0,0.2,0,0.3,0.1s0.1,0.2,0.1,0.3c0,0.1,0,0.2-0.1,0.3s-0.2,0.1-0.3,0.1h-3.7
			c-0.1,0-0.1,0-0.2,0.1c-0.6,1.4-1,2.5-1.3,3.1c0,0,0,0,0,0.1c0,0,0,0,0.1,0c2.4-0.1,3.6-0.2,3.7-0.2l0,0c0,0,0,0,0-0.1
			C77.4,53.2,77.1,52.7,76.8,52.4z M80.4,50.7c0.1-0.1,0.2-0.1,0.4-0.1c0.1,0,0.3,0,0.4,0.1c0.1,0.1,0.1,0.2,0.1,0.4v7.8
			c0,0.1,0,0.3-0.1,0.4s-0.2,0.1-0.4,0.1c-0.1,0-0.3,0-0.4-0.1c-0.1-0.1-0.1-0.2-0.1-0.4v-7.8C80.3,50.9,80.3,50.8,80.4,50.7z
			 M84,49.6c0-0.1,0.1-0.3,0.2-0.4c0.1-0.1,0.2-0.1,0.4-0.1s0.3,0,0.4,0.1c0.1,0.1,0.2,0.2,0.2,0.4v12.1c0,0.4-0.1,0.7-0.2,0.9
			c-0.1,0.2-0.3,0.3-0.5,0.4c-0.4,0.1-1.1,0.2-2.1,0.2c-0.2,0-0.3-0.1-0.5-0.2c-0.1-0.1-0.2-0.2-0.3-0.4c0-0.1,0-0.1,0-0.1
			c0-0.1,0-0.2,0.1-0.2c0.1-0.1,0.2-0.2,0.3-0.2c0.6,0,1.2,0,1.8,0c0.1,0,0.2,0,0.3-0.1s0.1-0.2,0.1-0.3V49.6L84,49.6L84,49.6z"/>
		<path class="st1" d="M92.2,55c0.1,0,0.2,0,0.3,0l0.2,0.1c0.1,0,0.2,0.1,0.2,0.2s0.1,0.2,0,0.3c-0.4,1.4-1,2.6-1.7,3.6
			s-1.6,1.9-2.5,2.6c-0.1,0.1-0.3,0.1-0.4,0.1c-0.2,0-0.3-0.1-0.4-0.2c-0.1-0.1-0.1-0.2-0.1-0.3c0-0.2,0.1-0.3,0.2-0.4
			c0.8-0.6,1.5-1.3,2.2-2.1c0.7-0.8,1.2-1.8,1.5-2.9c0,0,0,0,0-0.1c0,0,0,0-0.1,0h-3.3c-0.1,0-0.3,0-0.4-0.1
			c-0.1-0.1-0.2-0.2-0.2-0.4s0.1-0.3,0.2-0.4c0.1-0.1,0.2-0.2,0.4-0.2h3.9C92.2,55,92.2,55,92.2,55z M100.3,53.5
			c0.1-0.1,0.3-0.2,0.4-0.2c0.2,0,0.3,0,0.5,0.1c0.1,0.1,0.2,0.2,0.2,0.4c0,0.2,0,0.3-0.2,0.4c-1.3,1.2-2.6,2.2-3.8,3
			c-0.1,0-0.1,0.1,0,0.2c1.1,1.7,2.5,2.9,4.2,3.7c0.1,0.1,0.2,0.1,0.2,0.3v0.1c0,0.1,0,0.2-0.1,0.3c-0.1,0.1-0.2,0.2-0.4,0.3
			s-0.3,0-0.5,0c-2.4-1.2-4.2-3.2-5.4-6l0,0l0,0V62c0,0.3,0,0.6-0.1,0.8c-0.1,0.2-0.3,0.3-0.5,0.4c-0.4,0.1-1,0.2-2.1,0.2
			c-0.2,0-0.3-0.1-0.4-0.2c-0.1-0.1-0.2-0.2-0.3-0.4c0-0.1,0-0.2,0-0.4c0.1-0.1,0.2-0.2,0.3-0.1c0.4,0,0.8,0,1.1,0
			c0.2,0,0.4,0,0.5,0s0.2,0,0.3-0.1c0.1,0,0.1-0.1,0.1-0.3v-8.7c0-0.1,0-0.1-0.1-0.1h-3.9c-0.1,0-0.3,0-0.4-0.1
			c-0.1-0.1-0.2-0.2-0.2-0.4s0.1-0.3,0.2-0.4c0.1-0.1,0.2-0.1,0.4-0.1h4.2c0.2,0,0.5,0.1,0.6,0.3c0.2,0.2,0.3,0.4,0.3,0.7v0.1
			c0,0.1,0,0.2,0,0.2c0.4,1.2,0.8,2.3,1.3,3.2c0,0.1,0.1,0.1,0.2,0C98.2,55.5,99.3,54.5,100.3,53.5z M97.3,50.5
			c0.1,0.1,0.2,0.2,0.3,0.3c0,0.1,0,0.3,0,0.4c-0.1,0.1-0.2,0.2-0.3,0.3c-0.1,0-0.3,0-0.4,0c-1.4-0.7-3.1-1.3-4.9-1.8
			c-0.1,0-0.2-0.1-0.3-0.2c0-0.1,0-0.2,0-0.3c0.1-0.1,0.2-0.2,0.3-0.3c0.1,0,0.2-0.1,0.2-0.1c0.1,0,0.1,0,0.2,0
			C94.3,49.3,96,49.8,97.3,50.5z"/>
		<path class="st1" d="M106.3,54.9c0.2,0,0.5,0.1,0.6,0.3c0.2,0.2,0.3,0.4,0.3,0.6v4.1c0,0.1,0,0.1,0.1,0.2c0.8,1.1,2.1,1.7,4.1,1.8
			c0.8,0,1.6,0,2.5,0c1.3,0,2.7,0,4.2-0.1c0.1,0,0.2,0,0.3,0.1c0,0.1,0.1,0.1,0.1,0.2v0.1c-0.1,0.2-0.1,0.3-0.3,0.4
			c-0.1,0.1-0.3,0.2-0.4,0.2c-1.4,0-2.6,0.1-3.7,0.1c-1,0-1.8,0-2.6,0c-1.1,0-1.9-0.2-2.7-0.5s-1.4-0.7-1.9-1.3
			c-0.1-0.1-0.1-0.1-0.2,0c-0.6,0.6-1.2,1.1-1.7,1.6c-0.1,0.1-0.2,0.1-0.4,0.1c-0.1,0-0.3-0.1-0.3-0.2c-0.1-0.1-0.1-0.3-0.1-0.5
			s0.1-0.3,0.2-0.4c0.7-0.5,1.2-1,1.7-1.5c0.1-0.1,0.1-0.1,0.1-0.2v-4c0-0.1,0-0.1-0.1-0.1h-1.5c-0.1,0-0.3,0-0.4-0.1
			c-0.1-0.1-0.1-0.2-0.1-0.4s0-0.3,0.1-0.4s0.2-0.1,0.4-0.1L106.3,54.9L106.3,54.9z M107.4,51.2c0.1,0.1,0.1,0.3,0.1,0.4
			c0,0.2-0.1,0.3-0.2,0.4c-0.1,0.1-0.2,0.1-0.4,0.1c-0.1,0-0.3-0.1-0.3-0.2c-0.5-0.6-1.1-1.3-1.9-1.9c-0.1-0.1-0.1-0.2-0.1-0.3
			s0.1-0.2,0.2-0.3c0.1-0.1,0.2-0.1,0.4-0.1l0,0c0.1,0,0.3,0,0.4,0.1C106.2,49.9,106.9,50.6,107.4,51.2z M117.8,52
			c0.1,0,0.2,0,0.3,0.1s0.1,0.2,0.1,0.3c0,0.1,0,0.2-0.1,0.3s-0.2,0.1-0.3,0.1h-9.4c-0.1,0-0.2,0-0.3-0.1s-0.1-0.2-0.1-0.3
			c0-0.1,0-0.2,0.1-0.3s0.2-0.1,0.3-0.1h4c0.1,0,0.1,0,0.1-0.1v-1c0-0.1,0-0.1-0.1-0.1h-3.1c-0.1,0-0.2,0-0.3-0.1s-0.1-0.2-0.1-0.3
			c0-0.1,0-0.2,0.1-0.3s0.2-0.1,0.3-0.1h3.1c0.1,0,0.1,0,0.1-0.1v-0.6c0-0.1,0-0.3,0.1-0.4s0.2-0.1,0.4-0.1s0.3,0,0.4,0.1
			c0.1,0.1,0.1,0.2,0.1,0.4v0.6c0,0.1,0,0.1,0.1,0.1h3.2c0.1,0,0.2,0,0.3,0.1s0.1,0.2,0.1,0.3c0,0.1,0,0.2-0.1,0.3s-0.2,0.1-0.3,0.1
			h-3.1c-0.1,0-0.1,0-0.1,0.1v1c0,0.1,0,0.1,0.1,0.1H117.8z M113.4,61.1c-0.1,0.1-0.2,0.1-0.4,0.1s-0.3,0-0.4-0.1
			c-0.1-0.1-0.1-0.2-0.1-0.4V58l0,0c0,0,0,0-0.1,0c-0.9,0.8-2,1.6-3.3,2.2c-0.1,0.1-0.3,0.1-0.4,0c-0.1,0-0.3-0.1-0.4-0.2
			c-0.1-0.1-0.1-0.2-0.1-0.3c0-0.1,0.1-0.2,0.2-0.3c1.6-0.6,2.8-1.4,3.6-2.3c0,0,0,0,0-0.1l0,0h-1.8c-0.2,0-0.5-0.1-0.6-0.3
			c-0.2-0.2-0.3-0.4-0.3-0.7v-1.4c0-0.3,0.1-0.5,0.3-0.7s0.4-0.3,0.6-0.3h5.7c0.3,0,0.5,0.1,0.7,0.3c0.2,0.2,0.3,0.4,0.3,0.7V56
			c0,0.3-0.1,0.5-0.3,0.7s-0.4,0.3-0.7,0.3h-2.2h-0.1c0,0,0,0,0,0.1c0.3,0.4,0.7,0.8,1.2,1.3c0.1,0.1,0.1,0.1,0.2,0
			c0.7-0.4,1.3-0.9,1.8-1.3c0.1-0.1,0.3-0.2,0.4-0.2c0.1,0,0.2,0,0.3,0.1s0.1,0.2,0.2,0.3c0,0.1,0,0.2-0.1,0.3
			c-0.5,0.4-1.2,0.8-2,1.3c0,0,0,0,0,0.1c0,0,0,0,0,0.1c0.7,0.4,1.4,0.7,2.1,1c0.1,0,0.2,0.1,0.2,0.2s0,0.2-0.1,0.3
			c-0.1,0.1-0.2,0.2-0.4,0.3c-0.1,0.1-0.3,0.1-0.4,0c-1.4-0.5-2.6-1.3-3.6-2.4l0,0l0,0v2.3C113.5,60.8,113.5,61,113.4,61.1z
			 M110.5,54.5C110.4,54.5,110.4,54.5,110.5,54.5l-0.1,1.6c0,0.1,0,0.1,0.1,0.1h5.3c0.1,0,0.1,0,0.1-0.1v-1.5c0-0.1,0-0.1-0.1-0.1
			H110.5z"/>
		<path class="st1" d="M123.5,49.2c0-0.2,0.1-0.3,0.2-0.4c0.1-0.1,0.3-0.1,0.4-0.1s0.3,0.1,0.4,0.2c0.1,0.1,0.1,0.3,0,0.4
			c-0.2,0.7-0.4,1.3-0.6,1.7c0,0,0,0,0,0.1c0,0,0,0,0.1,0h1.7c0.3,0,0.5,0.1,0.7,0.3c0.2,0.2,0.3,0.4,0.3,0.7v8.5
			c0,0.3-0.1,0.5-0.3,0.7s-0.4,0.3-0.7,0.3h-3.4c-0.1,0-0.1,0-0.1,0.1v0.7c0,0.1,0,0.2-0.1,0.3c-0.1,0.1-0.2,0.1-0.3,0.1
			s-0.2,0-0.3-0.1s-0.1-0.2-0.1-0.3V52.2c0-0.3,0.1-0.5,0.3-0.7s0.4-0.3,0.6-0.3h0.7c0.1,0,0.1,0,0.2-0.1
			C123.2,50.5,123.4,49.8,123.5,49.2z M125.5,55.6C125.6,55.6,125.6,55.6,125.5,55.6l0.1-3.3c0-0.1,0-0.1-0.1-0.1h-3.3
			c-0.1,0-0.1,0-0.1,0.1v3.2c0,0.1,0,0.1,0.1,0.1L125.5,55.6L125.5,55.6z M122.2,60.4C122.2,60.5,122.2,60.5,122.2,60.4l3.4,0.1
			c0.1,0,0.1,0,0.1-0.1v-3.7c0-0.1,0-0.1-0.1-0.1h-3.3c-0.1,0-0.1,0-0.1,0.1L122.2,60.4L122.2,60.4z M133.5,51.2
			c0.3,0,0.5,0.1,0.7,0.3c0.2,0.2,0.2,0.4,0.2,0.6c0,2.4-0.1,4.9-0.4,7.6c-0.2,1.4-0.4,2.3-0.7,2.7c-0.1,0.2-0.3,0.4-0.5,0.4
			c-0.2,0.1-0.4,0.1-0.7,0.2c-0.2,0-0.4,0-0.7,0s-0.7,0-1.1,0c-0.1,0-0.3-0.1-0.4-0.2c-0.1-0.1-0.2-0.2-0.3-0.4c0-0.1,0-0.2,0-0.3
			c0.1-0.1,0.2-0.1,0.3-0.1c0.5,0,1.1,0.1,1.8,0.1c0.3,0,0.5-0.1,0.7-0.2c0.3-0.3,0.5-1.1,0.6-2.5s0.3-3.7,0.4-6.9
			c0-0.1,0-0.1-0.1-0.1h-4c-0.1,0-0.1,0-0.2,0.1c-0.4,0.9-0.8,1.7-1.2,2.3c-0.1,0.1-0.2,0.2-0.3,0.2s-0.3,0-0.4-0.1
			c-0.1-0.1-0.2-0.2-0.2-0.3v-0.1c0-0.1,0-0.2,0.1-0.3c0.8-1.3,1.5-2.9,2-4.9c0-0.1,0.1-0.3,0.2-0.3c0.1-0.1,0.2-0.1,0.3-0.1h0.1
			c0.1,0,0.3,0.1,0.3,0.2c0.1,0.1,0.1,0.3,0,0.4c-0.2,0.7-0.4,1.2-0.5,1.8c0,0,0,0,0,0.1c0,0,0,0,0.1,0h3.9L133.5,51.2L133.5,51.2z
			 M131.7,57.9c0,0.1,0.1,0.2,0.1,0.3c0,0.1,0,0.1,0,0.1c0,0.1-0.1,0.3-0.2,0.3c-0.1,0.1-0.2,0.1-0.3,0.1h-0.1
			c-0.1,0-0.2-0.1-0.3-0.2c-0.5-0.9-1.1-1.8-1.9-2.9c-0.1-0.1-0.1-0.2-0.1-0.2v-0.1c0-0.1,0.1-0.2,0.2-0.3c0.1,0,0.2-0.1,0.3-0.1
			h0.1c0.1,0,0.2,0.1,0.3,0.2C130.5,56.1,131.2,57.1,131.7,57.9z"/>
		<path class="st1" d="M149.3,54.7c0.1-0.1,0.3-0.2,0.4-0.2s0.3,0.1,0.4,0.2c0.1,0.1,0.2,0.2,0.2,0.4s-0.1,0.3-0.2,0.3
			c-0.9,0.7-1.8,1.3-2.8,1.9c-0.1,0-0.1,0.1,0,0.2c0.5,0.8,1,1.4,1.6,2s1.3,1,2,1.4c0.1,0.1,0.2,0.1,0.2,0.3v0.1
			c0,0.1,0,0.2-0.1,0.3c-0.1,0.1-0.2,0.2-0.4,0.3s-0.3,0-0.5-0.1c-2.6-1.4-4.4-4-5.4-8l0,0l0,0c-0.4,0.4-1,0.7-1.6,1.1
			c-0.1,0-0.1,0.1,0,0.1c0.7,0.6,1.3,1.3,1.7,2.2c0.4,0.8,0.7,1.6,0.8,2.3c0,0.2,0,0.4,0,0.7c0,0.5-0.1,0.9-0.2,1.3
			c-0.2,0.6-0.4,1-0.8,1.3c-0.3,0.2-0.5,0.3-0.8,0.4c-0.2,0.1-0.5,0.1-0.9,0.1c-0.1,0-0.2,0-0.3,0c-0.2,0-0.3,0-0.5,0
			c-0.1,0-0.3-0.1-0.4-0.2c-0.1-0.1-0.2-0.2-0.2-0.4c0-0.1,0-0.2,0.1-0.3s0.2-0.1,0.3-0.1c0.4,0,0.7,0,1,0c0.5,0,0.9-0.1,1.1-0.3
			c0.3-0.2,0.5-0.6,0.6-1.2c0.1-0.2,0.1-0.5,0.1-0.7c0-0.4,0-0.8-0.1-1.2c0,0,0-0.1-0.1-0.1c0,0,0,0-0.1,0c-0.8,0.7-1.7,1.3-2.8,1.9
			s-2.2,1.1-3.3,1.5c-0.1,0.1-0.3,0-0.4,0c-0.1-0.1-0.2-0.1-0.3-0.3c0-0.1-0.1-0.1-0.1-0.2v-0.1c0-0.1,0.1-0.2,0.2-0.2
			c1.1-0.4,2.3-0.9,3.5-1.5s2.1-1.3,2.9-2c0.1-0.1,0.1-0.1,0-0.2c-0.1-0.3-0.3-0.6-0.5-0.9c0-0.1-0.1-0.1-0.2,0
			c-0.6,0.4-1.3,0.9-2.2,1.3c-0.8,0.4-1.6,0.8-2.4,1.1c-0.1,0.1-0.3,0.1-0.4,0c-0.1-0.1-0.2-0.1-0.3-0.3c-0.1-0.1-0.1-0.2-0.1-0.3
			c0-0.1,0.1-0.2,0.2-0.2c0.8-0.3,1.7-0.6,2.5-1c0.9-0.4,1.6-0.8,2.1-1.3c0.1-0.1,0.1-0.1,0-0.2c-0.2-0.2-0.4-0.4-0.6-0.6
			c-0.1-0.1-0.1-0.1-0.2,0c-1,0.5-2.2,1-3.3,1.3c-0.1,0-0.3,0-0.4,0c-0.1-0.1-0.3-0.1-0.3-0.3c-0.1-0.1-0.1-0.2,0-0.3
			c0-0.1,0.1-0.2,0.2-0.2c2.1-0.6,3.8-1.3,5.1-2.1l0,0l0,0h-3c-0.1,0-0.2,0-0.3-0.1s-0.1-0.2-0.1-0.3s0-0.2,0.1-0.3
			c0.1-0.1,0.2-0.1,0.3-0.1h8.1c0.1,0,0.2,0,0.3,0.1s0.1,0.2,0.1,0.3s0,0.2-0.1,0.3s-0.2,0.1-0.3,0.1h-2.7h-0.1c0,0,0,0,0,0.1
			c0.3,1,0.6,1.8,1,2.6c0,0.1,0.1,0.1,0.2,0C147.7,55.9,148.5,55.3,149.3,54.7z M138.7,51.1C138.6,51.1,138.6,51.1,138.7,51.1
			l-0.1,1.6c0,0.1,0,0.3-0.1,0.4s-0.2,0.1-0.4,0.1s-0.3,0-0.4-0.1c-0.1-0.1-0.1-0.2-0.1-0.4V51c0-0.2,0.1-0.5,0.3-0.6
			c0.2-0.2,0.4-0.3,0.6-0.3h5c0.1,0,0.1,0,0.1-0.1v-0.8c0-0.1,0.1-0.3,0.2-0.4c0.1-0.1,0.2-0.2,0.4-0.2s0.3,0.1,0.4,0.2
			c0.1,0.1,0.2,0.2,0.2,0.4V50c0,0.1,0,0.1,0.1,0.1h5.1c0.2,0,0.5,0.1,0.6,0.3c0.2,0.2,0.3,0.4,0.3,0.6v1.6c0,0.2-0.1,0.3-0.2,0.4
			c-0.1,0.1-0.2,0.2-0.4,0.2s-0.3-0.1-0.4-0.2c-0.1-0.1-0.2-0.2-0.2-0.4v-1.4c0-0.1,0-0.1-0.1-0.1H138.7z"/>
	</g>
	<g class="st0">
		<path class="st1" d="M196.9,26.8h-5.3V36h-3V13.2h7.5c2.6,0,4.5,0.6,5.9,1.8c1.4,1.2,2.1,2.9,2.1,5.1c0,1.4-0.4,2.7-1.1,3.7
			c-0.8,1.1-1.8,1.8-3.2,2.4l5.3,9.7v0.2h-3.3L196.9,26.8z M191.6,24.3h4.6c1.5,0,2.7-0.4,3.6-1.2c0.9-0.8,1.3-1.8,1.3-3.1
			c0-1.4-0.4-2.5-1.3-3.2c-0.8-0.8-2-1.1-3.6-1.1h-4.6V24.3z"/>
		<path class="st1" d="M225.8,25.4c0,2.2-0.4,4.2-1.1,5.8c-0.8,1.7-1.8,2.9-3.2,3.8s-3,1.3-4.8,1.3s-3.4-0.4-4.8-1.3
			c-1.4-0.9-2.5-2.1-3.2-3.8c-0.8-1.6-1.2-3.5-1.2-5.7v-1.6c0-2.2,0.4-4.1,1.1-5.8c0.8-1.7,1.8-3,3.2-3.9s3-1.3,4.8-1.3
			s3.4,0.4,4.8,1.3c1.4,0.9,2.5,2.2,3.2,3.8s1.1,3.6,1.1,5.8v1.6H225.8z M222.8,23.9c0-2.7-0.5-4.8-1.6-6.2
			c-1.1-1.4-2.6-2.2-4.5-2.2s-3.4,0.7-4.5,2.2c-1.1,1.4-1.6,3.4-1.7,6v1.7c0,2.6,0.5,4.7,1.6,6.2s2.6,2.2,4.5,2.2s3.4-0.7,4.5-2.1
			s1.6-3.4,1.6-6.1v-1.7H222.8z"/>
		<path class="st1" d="M230.3,36V13.2h7.4c2.5,0,4.3,0.5,5.6,1.5c1.2,1,1.9,2.5,1.9,4.5c0,1.1-0.3,2-0.9,2.8
			c-0.6,0.8-1.4,1.5-2.5,1.9c1.2,0.3,2.2,1,2.9,2s1.1,2.1,1.1,3.4c0,2-0.7,3.6-2,4.8c-1.3,1.2-3.2,1.8-5.6,1.8L230.3,36L230.3,36z
			 M233.3,23h4.5c1.3,0,2.4-0.3,3.1-1c0.8-0.7,1.2-1.6,1.2-2.7c0-1.3-0.4-2.2-1.1-2.7c-0.7-0.6-1.8-0.9-3.3-0.9h-4.4V23z
			 M233.3,25.4v8.2h5c1.4,0,2.5-0.4,3.3-1.1s1.2-1.7,1.2-3c0-2.7-1.5-4.1-4.5-4.1H233.3z"/>
		<path class="st1" d="M267.6,25.4c0,2.2-0.4,4.2-1.1,5.8c-0.8,1.7-1.8,2.9-3.2,3.8s-3,1.3-4.8,1.3s-3.4-0.4-4.8-1.3
			c-1.4-0.9-2.5-2.1-3.2-3.8c-0.8-1.6-1.2-3.5-1.2-5.7v-1.6c0-2.2,0.4-4.1,1.1-5.8c0.8-1.7,1.8-3,3.2-3.9s3-1.3,4.8-1.3
			s3.4,0.4,4.8,1.3c1.4,0.9,2.5,2.2,3.2,3.8s1.1,3.6,1.1,5.8v1.6H267.6z M264.8,23.9c0-2.7-0.5-4.8-1.6-6.2
			c-1.1-1.4-2.6-2.2-4.5-2.2s-3.4,0.7-4.5,2.2c-1.1,1.4-1.6,3.4-1.7,6v1.7c0,2.6,0.5,4.7,1.6,6.2s2.6,2.2,4.5,2.2s3.4-0.7,4.5-2.1
			s1.6-3.4,1.6-6.1v-1.7H264.8z"/>
		<path class="st1" d="M287.4,15.7h-7.3V36h-3V15.7h-7.3v-2.5h17.6V15.7z"/>
		<path class="st1" d="M307.9,25.4c0,2.2-0.4,4.2-1.1,5.8c-0.8,1.7-1.8,2.9-3.2,3.8s-3,1.3-4.8,1.3s-3.4-0.4-4.8-1.3
			c-1.4-0.9-2.5-2.1-3.2-3.8c-0.8-1.6-1.2-3.5-1.2-5.7v-1.6c0-2.2,0.4-4.1,1.1-5.8c0.8-1.7,1.8-3,3.2-3.9s3-1.3,4.8-1.3
			s3.4,0.4,4.8,1.3c1.4,0.9,2.5,2.2,3.2,3.8s1.1,3.6,1.1,5.8v1.6H307.9z M304.9,23.9c0-2.7-0.5-4.8-1.6-6.2
			c-1.1-1.4-2.6-2.2-4.5-2.2s-3.4,0.7-4.5,2.2c-1.1,1.4-1.6,3.4-1.7,6v1.7c0,2.6,0.5,4.7,1.6,6.2s2.6,2.2,4.5,2.2s3.4-0.7,4.5-2.1
			s1.6-3.4,1.6-6.1v-1.7H304.9z"/>
	</g>
	<g class="st0">
		<path class="st1" d="M197.4,49.9h-3.7V60h-1.5V49.9h-3.6v-1.2h8.8V49.9z"/>
		<path class="st1" d="M205.1,57h-4.8l-1.1,3h-1.5l4.3-11.4h1.3l4.4,11.4h-1.5L205.1,57z M200.8,55.8h3.9l-1.9-5.3L200.8,55.8z"/>
		<path class="st1" d="M212.6,54.7l-1.4,1.4v3.8h-1.5V48.5h1.5v5.6l5.1-5.6h1.8l-4.5,5l4.8,6.4h-1.8L212.6,54.7z"/>
		<path class="st1" d="M226.6,54.7h-4.9v4h5.7v1.2h-7.2V48.5h7.1v1.2h-5.6v3.7h4.9V54.7z"/>
		<path class="st1" d="M235.9,48.6l3.7,9.3l3.7-9.3h1.9V60h-1.5v-4.4l0.1-4.8l-3.7,9.2H239l-3.7-9.2l0.1,4.8V60h-1.5V48.6H235.9z"/>
		<path class="st1" d="M254.8,54.7h-4.9v4h5.7v1.2h-7.2V48.5h7.1v1.2h-5.6v3.7h4.9V54.7z"/>
		<path class="st1" d="M270.9,60h-1.5v-5.3h-5.7V60h-1.5V48.6h1.5v4.9h5.7v-4.9h1.5V60z"/>
		<path class="st1" d="M282.8,54.7c0,1.1-0.2,2.1-0.6,2.9s-0.9,1.5-1.6,1.9s-1.5,0.7-2.4,0.7s-1.7-0.2-2.4-0.7s-1.2-1.1-1.6-1.9
			s-0.6-1.8-0.6-2.8V54c0-1.1,0.2-2.1,0.6-2.9s0.9-1.5,1.6-1.9s1.5-0.7,2.4-0.7s1.7,0.2,2.4,0.7s1.2,1.1,1.6,1.9s0.6,1.8,0.6,2.9
			V54.7z M281.3,53.9c0-1.3-0.3-2.4-0.8-3.1s-1.3-1.1-2.3-1.1c-0.9,0-1.7,0.4-2.2,1.1s-0.8,1.7-0.8,3v0.8c0,1.3,0.3,2.3,0.8,3.1
			s1.3,1.1,2.3,1.1s1.7-0.4,2.2-1.1s0.8-1.7,0.8-3V53.9z"/>
		<path class="st1" d="M287.4,48.6l3.7,9.3l3.7-9.3h1.9V60h-1.5v-4.4l0.1-4.8l-3.7,9.2h-1.1l-3.7-9.2l0.1,4.8V60h-1.5V48.6H287.4z"
			/>
		<path class="st1" d="M306.1,54.7h-4.9v4h5.7v1.2h-7.2V48.5h7.1v1.2h-5.6v3.7h4.9V54.7z"/>
	</g>
</g>
</svg>
