<?xml version="1.0" encoding="utf-8"?>
<!-- Generator: Adobe Illustrator 22.0.1, SVG Export Plug-In . SVG Version: 6.00 Build 0)  -->
<svg version="1.1" id="圖層_1" xmlns="http://www.w3.org/2000/svg" xmlns:xlink="http://www.w3.org/1999/xlink" x="0px" y="0px"
	 viewBox="0 0 338.8 309.3" style="enable-background:new 0 0 338.8 309.3;" xml:space="preserve">
<style type="text/css">
	.st0{fill:#1A1311;}
	.st1{fill:none;}
</style>
<g id="Group_302">
	<path id="Path_833" class="st0" d="M103.1,111.1c3.2,0.5,4.8,1.8,4.8,3.8c0,2.8-1.6,4.2-4.8,4.2h-17c-1.7,0-2.6,0.1-2.6,1.8
		c0,3,0.1,7.5,0.1,10.3c0,1.3,0.2,2,2.6,2c10.9,0,46.3-0.3,53.4,0c3.3,0.5,5.9,0.9,5.9,4.4c0,2.8-2.6,4.2-5.9,4.2H86
		c-1,0-2.3,0.3-2.3,2.5c0,24.9,0.5,41.2,0.9,48.9c0,3.8-1.8,5.7-5.5,5.7c-3.3,0-4.9-2.1-4.9-6.4c0.2-3.8,0.4-19.8,0.4-48.2
		c0-1-0.1-2.9-2.1-2.9c-5.7,0-14.2-0.1-20.1-0.1c-3.3,0-5.3-0.8-5.3-3.7c-0.1-2.3,1.7-4.3,4-4.4c0.1,0,0.3,0,0.4,0H71
		c2.7,0,3.5-0.8,3.5-2v-10.6c0-1.6-2-1.5-3-1.5c-4.8,0-9.7,0-15.2,0c-3.2,0-4.9-1.2-5.1-3.5c0-2.3,1.7-4.3,4-4.6
		C58.3,110.6,98.3,111.1,103.1,111.1z"/>
</g>
<g id="Group_303">
	<path id="Path_834" class="st0" d="M199.8,61.6v-6.8c0-2,1.6-3.7,4.7-3.7c3.2,0,4.1,1.5,4.1,4.4v6c0,0.8-0.3,3.3,3.4,3.3h48.2
		c3.3,0,4.9,1.5,4.9,4.4c0,2.7-2,4-5.3,4h-47.4c-4.4,0-3.8,3.6-3.8,3.6v29.3c0,0-0.4,3.7,3.4,3.7h21.2c3,0,5.8,1.1,5.8,4.7
		s-2.6,3.7-5.5,3.7H206c-6.5,0-6.2-5.1-6.2-5.1v-36c0.3-1.7-0.7-3.3-2.4-3.6c-0.3-0.1-0.6-0.1-0.9,0h-48.4c-3,0-5.3-1.6-5.3-4.3
		c0.1-2.3,1.9-4.2,4.2-4.3h49.6c1.5,0.2,3-0.9,3.1-2.5C199.9,62.1,199.9,61.8,199.8,61.6z"/>
</g>
<g id="Group_304">
	<path id="Path_835" class="st0" d="M236.2,152.9c-2.9,3.4-5.4,6.2-7.5,8.3c-1.3,1-2.2,2.5-2.3,4.2c0.4,2.5,2.6,4.2,5.1,4.1
		c1.3,0,2.7-0.8,4.3-2.3c2.3-2.1,4.4-4.3,6.2-6.8c2.4-2.7,4.6-5.7,6.4-8.8c0.4-0.7,1.1-1,1.9-0.9c2.1,0.4,4.2,1,6.2,1.6
		c0.9,0.2,1.4,1.1,1.1,2c0,0.1-0.1,0.2-0.1,0.3c-5.1,9.3-12,17.4-18.3,26c-4.9,6.7-19.6,20.3-23.1,22.8c-2.5,2.5-6.3,5.4-3.2,9.2
		c2.6,3.1,7.2-0.5,9.9-2.4c5.3-3.8,12.7-10.3,21.1-20.5c8.5-10.2,16-21.1,22.7-32.5c0.5-0.8,1-1.2,1.7-0.9c1.6,0.5,3.4,1.2,4.8,1.8
		c1.7,0.8,1.3,1.6,0.9,2.3c-6.2,13.5-14.2,26.2-23.8,37.6c-25.4,27.2-49.4,36.2-53,41.2c-1.8,3.6-0.5,9.9,5.8,7.5
		c6-2.3,43.5-30.3,52.6-40.4c8.2-9.2,16.2-22.1,25.9-41.8c0.5-1,1-0.7,1.3-0.5c2.4,1.7,3.7,3.6,4,5.5c-0.3,7.9-2.7,16.7-7.3,26.4
		c-4.9,9.5-16.7,23.5-21.1,27.7c-3.1,3,2.1,10.3,7,6.1c3.3-2.8,14.6-15.1,22.5-29.3c5.3-9.4,8.1-20.1,8.1-30.9
		c0-6.5-4.5-12.1-13.4-16.6c-8.8-4.4-17.9-8.1-27.2-11.1c-0.6-0.2-0.9-0.7-0.7-1.3l0,0c0.4-0.9,0.9-1.9,1.4-2.8h-10
		C243.2,143.1,239.9,148.2,236.2,152.9z"/>
</g>
<g id="Group_305">
	<path id="Path_836" class="st0" d="M186.6,37.2H90c-4.1,0-5.8-1.6-5.8-4.7V4.2c0-2.8-1.7-4.2-5.1-4.2c-2.6,0-4.1,1.2-4.6,3.5v29
		c0,4.1-2.6,5.3-5.2,5.3c-14.9,0-23.2,0.2-35.4,0c-3.8-0.1-6,2.3-6,4.7c0.2,3.5,3,5,6,5h35.6c4.7,0,5,1.9,5,4.6V66
		c0,2.6-1.9,2.6-2.8,2.6c-11.1,0.1-20.1,0.9-26.9,0.9c-9.2,0-14.1,2.1-14.1,9.5c0,5.9,0.3,19.7,1.1,41.6c1.9,49.7-13.9,76-28.9,82.4
		c-2.4,1-3.6,3.7-2.6,6.1c0.7,1.8,2.4,2.9,4.4,2.9c0.6,0,1.2-0.1,1.8-0.3c16.1-6.5,36.8-22.9,34.7-91.2c-0.4-12.1,0-23,0-35.3
		c0-3.1,1.1-6.7,7.7-7.2c5.7-0.4,15-0.3,31.8-0.3c16.5,0,25.5,0.2,30.8,0.3c5.1,0.1,6.2,4.1,6.2,7.2c0,8.8,0,185.9,0,214.9
		c0.3,5.6,1.3,9.1,4.6,9.1c4.6,0,5.4-3.1,5.4-9.5c0-27.6-0.1-207.9-0.1-220c0-7.7-4.9-9.3-13.7-10.2c-6.6-0.6-15.1-1-27-1
		c-1.9,0-2.7-0.1-2.7-2.7V51.7c0-2.8,0.6-4.4,5.7-4.4h97c3.2,0,5.4-1.8,5.4-4.8C192.3,39.6,190,37.2,186.6,37.2z"/>
</g>
<g id="Group_306">
	<path id="Path_837" d="M265.9,72.8c13.8,0,26.2,9,28.2,19.5h6.8c0,0,0.6,0,1.5,0c-1.7-15.4-17.4-27.4-36.5-27.4
		S231.2,77,229.4,92.3h8.3C239.7,81.7,252.1,72.8,265.9,72.8z"/>
</g>
<g id="Group_309">
	<g id="Group_307">
		<path id="Path_838" class="st1" d="M265.9,120.6c14.9,0,28.5-9.4,31.5-20.6h-62.9C237.5,111.3,251,120.6,265.9,120.6z"/>
	</g>
	<g id="Group_308">
		<path id="Path_839" d="M305.3,92.2h-78c-1.6,0-2.9,1.3-2.8,2.9c0,0.1,0,0.2,0,0.3c0,1.5,0.1,3.1,0.4,4.6c2.7,16.7,20,29.6,41,29.6
			s38.2-12.9,41-29.6c0.3-1.5,0.4-3.1,0.4-4.6C307.3,92,305.3,92.2,305.3,92.2z M265.9,120.6c-14.9,0-28.5-9.4-31.5-20.6h62.9
			C294.4,111.3,280.9,120.6,265.9,120.6z"/>
	</g>
</g>
<g id="Group_310">
	<circle id="Ellipse_13" class="st0" cx="205" cy="40.1" r="7.6"/>
</g>
<g id="Group_311">
	<circle id="Ellipse_14" class="st0" cx="79.5" cy="211.5" r="7.6"/>
</g>
<g id="Group_313">
	<g id="Group_312">
		<path id="Path_840" class="st0" d="M214.2,294.1c-1.2,0-2.4-0.5-3.3-1.4c-14.3-14.3-20.6-62-19.4-145.7c0-2.8,0.1-5,0.1-6.3
			c0-8.6-2.5-9.2-4-10.2s-15.3-1.7-17.8,0.8c-2.5,2.4-2.4,6.9-2.3,9.3c0.9,64.8-0.7,98.7-1.2,111.4c-0.1,2.6-0.2,4.5-0.2,5.4
			c-0.1,8.9-0.3,23.8-16.6,23.8c-3,0-5.9-1.2-8-3.4c-5.1-5.1-5.2-14.7-5.2-16.2c-0.1-2.2-1.1-39.5-1.3-70.7
			c-0.1-18.7-4.7-25.3-7.5-27.6c-1.2-1.1-2.7-1.7-4.3-1.7c-0.2,0.1-0.4,0.1-0.6,0.1c-1.1,0.3-9.5,3.1-11.6,27.8
			c-0.6,6.6-0.9,14.8-1.3,23.4c-2,45-4.8,76.9-21.5,77.8c-2.6,0.2-4.8-1.8-5-4.4s1.8-4.8,4.4-5c0.1,0,0.1,0,0.2,0
			c0.9,0,5.5-1.3,8.7-20.8c2.3-13.9,3.1-32,3.9-48c0.4-8.7,0.8-16.9,1.3-23.7c2.8-33.4,17.4-36.2,20.3-36.5c4.2-0.4,8.4,1,11.6,3.8
			c7.1,5.9,10.7,17.6,10.9,34.8c0.2,31.9,1.3,70.2,1.3,70.6c0,0.1,0,0.1,0,0.2c0,2.9,0.7,7.8,2.5,9.6c0.3,0.4,0.8,0.6,1.3,0.5
			c4.2,0,7,0,7.2-14.5c0-1.1,0.1-3,0.2-5.7c0.6-12.7,2.1-46.3,1.2-110.8c0-1.1-0.1-10.8,5-16c2.1-2.1,4.9-3.3,7.9-3.3
			c0,0,16.2,0,16.3,0c4.8,0.4,13.9,4.9,13.9,19.3c0,1.4,0,3.6-0.1,6.5c-0.8,55,1.4,123.7,16.6,138.9c1.8,1.8,1.8,4.8,0,6.7
			C216.6,293.6,215.4,294.1,214.2,294.1L214.2,294.1z"/>
	</g>
</g>
<g id="Group_314">
	<path id="Path_841" class="st0" d="M322,138.7H196.6c-2.6,0-4.7-2.1-4.7-4.7s2.1-4.7,4.7-4.7H322c2.6,0,4.7,2.1,4.7,4.7
		S324.6,138.7,322,138.7z"/>
</g>
<g id="Group_315">
	<path id="Path_842" class="st0" d="M72.3,108.3c-5.1,0-9.2-4.1-9.2-9.2s4.1-9.2,9.2-9.2s9.2,4.1,9.2,9.2l0,0
		C81.5,104.1,77.4,108.3,72.3,108.3z M72.3,93.9c-2.9,0-5.2,2.3-5.2,5.2c0,2.9,2.3,5.2,5.2,5.2c2.9,0,5.2-2.3,5.2-5.2
		C77.5,96.2,75.1,93.9,72.3,93.9L72.3,93.9z"/>
</g>
<g id="Group_316">
	<path id="Path_843" class="st0" d="M86.7,108.3c-5.1,0-9.2-4.1-9.2-9.2s4.1-9.2,9.2-9.2s9.2,4.1,9.2,9.2l0,0
		C95.9,104.1,91.8,108.3,86.7,108.3z M86.7,93.9c-2.9,0-5.2,2.3-5.2,5.2c0,2.9,2.3,5.2,5.2,5.2c2.9,0,5.2-2.3,5.2-5.2
		C91.9,96.2,89.5,93.9,86.7,93.9L86.7,93.9z"/>
</g>
<g id="Group_320">
	<path id="Path_844" class="st0" d="M227.9,46.9V36.6c0-2.8,2.2-5,5-5s5,2.2,5,5c0,1.3-0.5,2.5-1.4,3.4c0.9,0.9,1.4,2.1,1.4,3.4
		c0,1.3-0.5,2.6-1.4,3.5s-2.2,1.5-3.6,1.4c-0.8,0-1.6-0.6-1.6-1.5v-0.1c0-0.4,0.1-0.8,0.4-1.2c0.3-0.3,0.7-0.5,1.2-0.4
		c1,0,1.8-0.8,1.8-1.8c0-0.5-0.2-1-0.6-1.3c-0.4-0.3-0.9-0.6-1.4-0.6c-0.4,0-0.8-0.2-1.1-0.5c-0.6-0.6-0.6-1.5,0-2.1
		c0,0,0,0,0.1-0.1c0.4-0.3,0.8-0.4,1.2-0.4c0.5,0,0.9-0.2,1.3-0.5c0.7-0.7,0.7-1.8,0-2.5l0,0c-0.3-0.3-0.8-0.5-1.3-0.5
		c-1,0-1.8,0.8-1.8,1.8v10.3c0,0.8-0.6,1.5-1.4,1.6c-0.1,0-0.1,0-0.2,0c-0.4,0-0.8-0.1-1.2-0.4C228,47.7,227.9,47.3,227.9,46.9z"/>
	<g id="Group_317">
		<path id="Path_845" d="M248.7,43.7L248.7,43.7C248.7,43.7,248.6,43.7,248.7,43.7C248.6,43.7,248.7,43.7,248.7,43.7z"/>
		<path id="Path_846" d="M244.4,33.4c1.1-1.1,2.7-1.8,4.3-1.7l0,0c-3.3-0.1-6,2.6-6,5.8c0,0.1,0,0.1,0,0.2v9.2l0,0v-9.2
			C242.6,36,243.3,34.5,244.4,33.4z"/>
		<path id="Path_847" d="M248.7,43.7L248.7,43.7L248.7,43.7L248.7,43.7z"/>
		<path id="Path_848" d="M254.7,37.6L254.7,37.6c0.1-3.3-2.6-6-5.8-6c-0.1,0-0.1,0-0.2,0l0,0c1.6,0,3.2,0.6,4.3,1.7
			C254.1,34.5,254.8,36,254.7,37.6z"/>
		<path id="Path_849" d="M244.2,48.5c0.4,0,0.8-0.1,1.2-0.4c0.3-0.3,0.5-0.7,0.4-1.1v-9.2c0-1.6,1.3-2.8,2.8-2.8l0,0l0,0
			c1.6,0,2.8,1.2,2.8,2.8l0,0V47c0,0.4,0.1,0.8,0.4,1.1c0.3,0.3,0.7,0.5,1.2,0.4c0.8,0,1.5-0.6,1.6-1.4c0-0.1,0-0.1,0-0.2v-9.2
			c0-1.6-0.6-3.2-1.7-4.3c-2.4-2.3-6.2-2.3-8.6,0c-1.2,1.1-1.8,2.7-1.7,4.3v9.2c0,0.8,0.6,1.5,1.4,1.6
			C244.1,48.5,244.2,48.5,244.2,48.5z"/>
		<path id="Path_850" d="M250.3,42.1c0-0.8-0.6-1.5-1.4-1.6c-0.1,0-0.1,0-0.2,0l0,0c-0.8,0-1.5,0.6-1.6,1.4c0,0.1,0,0.1,0,0.2
			c0,0.4,0.1,0.8,0.4,1.2c0.3,0.3,0.7,0.4,1.1,0.4c0,0,0,0,0.1,0s0,0,0.1,0c0.4,0,0.8-0.2,1.1-0.4C250.1,42.9,250.3,42.5,250.3,42.1
			z"/>
	</g>
	<g id="Group_318">
		<path id="Path_851" d="M287.1,43.7L287.1,43.7L287.1,43.7L287.1,43.7z"/>
		<path id="Path_852" d="M282.8,33.4c1.1-1.1,2.7-1.8,4.3-1.7l0,0c-3.3-0.1-6,2.6-6,5.8c0,0.1,0,0.1,0,0.2v9.2l0,0v-9.2
			C281,36,281.7,34.5,282.8,33.4z"/>
		<path id="Path_853" d="M287.1,43.7C287.1,43.7,287.2,43.7,287.1,43.7C287.2,43.7,287.1,43.7,287.1,43.7L287.1,43.7z"/>
		<path id="Path_854" d="M293.1,37.6L293.1,37.6c0.1-3.3-2.6-6-5.8-6c-0.1,0-0.1,0-0.2,0l0,0c1.6,0,3.2,0.6,4.3,1.7
			C292.5,34.5,293.2,36,293.1,37.6z"/>
		<path id="Path_855" d="M282.7,48.5c0.4,0,0.8-0.1,1.2-0.4c0.3-0.3,0.5-0.7,0.4-1.1v-9.2c0-1.6,1.3-2.8,2.8-2.8l0,0l0,0
			c1.6,0,2.8,1.2,2.8,2.8l0,0V47c0,0.4,0.1,0.8,0.4,1.1s0.7,0.5,1.2,0.4c0.8,0,1.5-0.6,1.6-1.4c0-0.1,0-0.1,0-0.2v-9.2
			c0-1.6-0.6-3.2-1.7-4.3c-2.4-2.3-6.2-2.3-8.6,0c-1.2,1.1-1.8,2.7-1.7,4.3v9.2c0,0.8,0.6,1.5,1.4,1.6
			C282.6,48.5,282.6,48.5,282.7,48.5z"/>
		<path id="Path_856" d="M288.7,42.1c0-0.8-0.6-1.5-1.4-1.6c-0.1,0-0.1,0-0.2,0l0,0c-0.8,0-1.5,0.6-1.6,1.4c0,0.1,0,0.1,0,0.2
			c0,0.4,0.1,0.8,0.4,1.2c0.3,0.3,0.7,0.4,1.1,0.4c0,0,0,0,0.1,0s0,0,0.1,0c0.4,0,0.8-0.2,1.1-0.4C288.6,42.9,288.7,42.5,288.7,42.1
			z"/>
	</g>
	<g id="Group_319">
		<path id="Path_857" d="M304,43.7L304,43.7C303.9,43.7,303.9,43.7,304,43.7C303.9,43.7,303.9,43.7,304,43.7z"/>
		<path id="Path_858" d="M299.7,33.4c1.1-1.1,2.7-1.8,4.3-1.7l0,0c-3.3-0.1-6,2.6-6,5.8c0,0.1,0,0.1,0,0.2v9.2l0,0v-9.2
			C297.9,36,298.5,34.5,299.7,33.4z"/>
		<path id="Path_859" d="M310,37.6L310,37.6c0.1-3.3-2.6-6-5.8-6c-0.1,0-0.1,0-0.2,0l0,0c1.6,0,3.2,0.6,4.3,1.7
			C309.4,34.5,310,36,310,37.6z"/>
		<path id="Path_860" d="M299.5,48.5c0.4,0,0.8-0.1,1.2-0.4c0.3-0.3,0.5-0.7,0.4-1.1v-9.2c0-1.6,1.3-2.8,2.8-2.8l0,0l0,0
			c1.6,0,2.8,1.2,2.8,2.8l0,0V47c0,0.4,0.1,0.8,0.4,1.1s0.7,0.5,1.2,0.4c0.8,0,1.5-0.6,1.6-1.4c0-0.1,0-0.1,0-0.2v-9.2
			c0-1.6-0.6-3.2-1.7-4.3c-2.4-2.3-6.2-2.3-8.6,0c-1.2,1.1-1.8,2.7-1.7,4.3v9.2c0,0.8,0.6,1.5,1.4,1.6
			C299.4,48.5,299.5,48.5,299.5,48.5z"/>
	</g>
	<path id="Path_861" class="st0" d="M266.1,33.2c0-0.4,0.1-0.8,0.4-1.1s0.7-0.5,1.2-0.4c0.8,0,1.5,0.6,1.6,1.4c0,0.1,0,0.1,0,0.2
		v10.2c0,1.1,0.9,1.9,1.9,1.9c1.1,0,1.9-0.9,1.9-1.9V33.2c0-0.8,0.6-1.5,1.4-1.6c0.1,0,0.1,0,0.2,0c0.4,0,0.8,0.1,1.2,0.4
		c0.3,0.3,0.5,0.7,0.4,1.1v10.2c-0.7,4.6-5,7.8-9.6,7.1c-3.7-0.6-6.6-3.4-7.1-7.1V33.2c0-0.4,0.1-0.8,0.4-1.1s0.7-0.5,1.2-0.4
		c0.8,0,1.5,0.6,1.6,1.4c0,0.1,0,0.1,0,0.2v10.2c0,1,0.8,1.9,1.9,1.9l0,0c0.6,0,1.1-0.2,1.5-0.7V33.2H266.1z"/>
</g>
<path class="st0" d="M319.4,267.2h-0.3h-8.2c-0.4,0-0.5,0.2-0.6,0.3v0.3c0,0.2,0.1,0.4,0.4,0.5h0.3h8.1c0.3,0,0.5-0.1,0.6-0.4v-0.2
	C319.7,267.4,319.6,267.3,319.4,267.2z"/>
<path class="st0" d="M310.2,281.2c0,0.3,0.1,0.4,0.4,0.5h0.3h8.2c0.4,0,0.5-0.1,0.6-0.3v-0.3v-0.8h-9.5V281.2z"/>
<polygon class="st0" points="310.2,277.9 319.7,277.9 319.6,277 310.2,277 "/>
<path class="st0" d="M319.7,274.2c0-0.2-0.1-0.4-0.4-0.5l-0.3-0.1h-8.1c-0.3,0-0.5,0.1-0.6,0.3v0.1v0.5v0.1h9.4V274.2z"/>
<path class="st0" d="M316.1,284h-4.4c0,0.1,0,0.2-0.1,0.2c-1.3,1.1-3.2,2.1-5.7,3H322C319.3,286.2,317.4,285.2,316.1,284L316.1,284z
	"/>
<path class="st0" d="M321.8,210.7h-13.6c-9.4,0-17,7.6-17,17V286c0,9.4,7.6,17,17,17h13.6c9.4,0,17-7.6,17-17v-58.3
	C338.8,218.4,331.2,210.7,321.8,210.7z M301.8,250.1L301.8,250.1v-21.8c0-1.3,0.6-2.2,1.8-2.8c0.5-0.3,1-0.4,1.6-0.4h8.2
	c0.4-1.4,0.7-2.8,0.8-4.3c0-0.5,0.4-0.9,0.9-1h0.1h0.2c1,0.1,1.3,0.7,1.3,1c0,0.1,0,0.2,0,0.2c-0.1,1.5-0.3,2.9-0.7,4.2h9.4
	c1.4,0,2.4,0.6,3,1.6c0.3,0.5,0.5,1,0.5,1.6V247c0,3.1-1.8,4.8-5.1,4.8c-0.4,0-0.9-0.1-1.3-0.1c-0.5,0-0.9-0.2-1.1-0.7
	c-0.1,0-0.1-0.2-0.1-0.3c-0.8,0.1-1.1-0.4-1.2-0.6c-0.1-0.1-0.1-0.1-0.1-0.2c-1.2-3-3-5.9-5.3-8.4c-1.4,4.1-3.1,7.1-5,9.1
	c-0.4,0.4-1,0.5-1.5,0.1c0-0.1-0.1-0.1-0.1-0.1c-0.7-0.6-0.6-1.2-0.3-1.6c0-0.1,0.1-0.2,0.2-0.2c2.1-2.3,4.1-6.4,5.7-12.2
	c0.1-0.6,0.5-0.9,1.2-0.9h0.1h0.1c0.9,0.2,1,0.8,1,1.1v0.1v0.1c-0.2,0.7-0.4,1.4-0.6,2c0.2,0,0.5,0.1,0.7,0.3l0.1,0.1
	c2.7,2.9,4.7,6.1,6,9.6c0.1,0.1,0.1,0.1,0.1,0.2c1.6,0,2.7-0.2,3.3-0.8c0.4-0.3,0.6-0.8,0.6-1.5v-18.6c0-0.4-0.2-0.6-0.6-0.7
	l-0.4-0.1h-10.1v0.1c0.3-0.1,0.6,0,0.7,0.1c2.8,1.6,5.1,3.6,7,6.1c0.4,0.6,0.3,1.2-0.3,1.6c-1.1,0.5-1.6,0-1.8-0.2
	c-1.6-2.1-3.7-4-6.2-5.5c-0.2-0.1-0.3-0.2-0.4-0.3c-1.5,2.7-3.6,4.9-6.4,6.6c-0.6,0.4-1.2,0.2-1.6-0.3c-0.5-0.7-0.4-1.3,0.1-1.7
	c0.1-0.1,0.1-0.1,0.2-0.1c2.7-1.6,4.7-3.8,5.9-6.5H305c-0.5,0-0.7,0.2-0.8,0.5l-0.1,0.4v21.8c0,0.6-0.4,1-1,1.1h-0.2
	c-0.9,0-1.1-0.6-1.2-0.9L301.8,250.1z M329.9,286.8c0,1.2-0.6,2.1-1.7,2.6c-0.4,0.2-0.9,0.3-1.4,0.3h-23.4c-1.3,0-2.2-0.5-2.8-1.5
	c-0.3-0.4-0.4-0.9-0.4-1.4l-0.1-22.7c0-1.2,0.5-2.1,1.6-2.6c0.5-0.2,1-0.3,1.5-0.3h23.5c1.3,0,2.2,0.5,2.8,1.5
	c0.2,0.3,0.3,0.8,0.4,1.3V286.8z"/>
<path class="st0" d="M326.9,263.6h-0.3h-23.4c-0.4,0-0.5,0.2-0.6,0.4v0.2l0.1,22.6c0,0.3,0.1,0.4,0.4,0.5h0.9
	c-0.1-0.1-0.1-0.2-0.2-0.3c-0.2-0.7,0-1.2,0.5-1.5c0-0.1,0.1-0.1,0.1-0.1c1.7-0.7,3.2-1.4,4.4-2.1c-0.6-0.5-1-1.2-1-2v-7.2
	c0-1.1,0.6-2,1.6-2.5c0.5-0.3,1-0.4,1.5-0.4h8.2c1.2,0,2.1,0.5,2.7,1.5c0.3,0.5,0.4,0.9,0.4,1.4v7c0,1.1-0.5,2-1.6,2.6
	c-0.2,0-0.3,0.1-0.4,0.1c1,0.5,2.2,1,3.5,1.5c0.6,0.2,0.9,0.7,0.7,1.4v0.1c-0.1,0.2-0.2,0.4-0.3,0.5h2.6c0.4,0,0.5-0.1,0.6-0.3v-0.3
	v-22.6C327.3,263.8,327.2,263.7,326.9,263.6z M320.4,270.3L320.4,270.3c-0.5,0.2-0.9,0.3-1.4,0.3h-8.1c-1.2,0-2.1-0.5-2.7-1.5
	c-0.3-0.4-0.4-0.9-0.4-1.4c0-1.2,0.5-2.1,1.6-2.6c0.4-0.2,0.9-0.3,1.4-0.3h8.3c1.2,0,2.1,0.5,2.6,1.5c0.3,0.5,0.4,0.9,0.4,1.4
	C322,268.9,321.5,269.7,320.4,270.3z"/>
</svg>
