<?xml version="1.0" encoding="utf-8"?>
<!-- Generator: Adobe Illustrator 22.0.1, SVG Export Plug-In . SVG Version: 6.00 Build 0)  -->
<svg version="1.1" id="圖層_1" xmlns="http://www.w3.org/2000/svg" xmlns:xlink="http://www.w3.org/1999/xlink" x="0px" y="0px"
	 viewBox="0 0 436 127" style="enable-background:new 0 0 436 127;" xml:space="preserve">
<style type="text/css">
	.st0{enable-background:new    ;}
</style>
<g id="project07_font" transform="translate(-3454 320)">
	<g class="st0">
		<path d="M3473.1-294.6v4h6.8v3.3h-6.8v4.9h8.1v3.5h-8.7v11.3h-3.4v-11.3h-11.4v-3.5h3.9v-9.6h3.4v9.6h4.6v-12.2H3473.1z
			 M3470.1-303.1v-3.8h3.9v3.8h6.7v3.6h-6.7v3.9h-3.9v-3.9H3458v-3.6H3470.1z M3466.4-275.1c-1.6,3.7-3.4,6.9-5.5,9.7l-2.9-2
			c2.1-2.6,3.9-5.6,5.4-9.2L3466.4-275.1z M3480.8-274.3c-3.5,9.5-10.4,15.7-20.7,18.5l-2-3.2c10-2.6,16.6-8.2,19.8-17L3480.8-274.3
			z M3492.1-262c-2.5,2.5-5.5,4.6-9.2,6.6l-2.1-2.7c3.5-1.7,6.4-3.8,8.8-6L3492.1-262z M3491.1-287.2c0.4-1.1,0.8-2.3,1.1-3.5h-9.9
			v-3.4h23.7v3.4h-10.1c-0.3,1.2-0.7,2.4-1.1,3.5h9.7v22.8h-20.7v-22.8H3491.1z M3490.2-303.1v-3.8h3.9v3.8h12.2v3.6h-12.2v3.9h-3.9
			v-3.9h-6.7v-3.6H3490.2z M3500.9-280.5v-3.7h-13.7v3.7H3500.9z M3500.9-274v-3.8h-13.7v3.8H3500.9z M3500.9-271.3h-13.7v3.9h13.7
			V-271.3z M3506.9-257.9l-2.4,2.4c-2-2.1-4.8-4.3-8.3-6.5l2.2-2.1C3501.8-262,3504.6-259.9,3506.9-257.9z"/>
		<path d="M3537.8-298.5c-1.1-2.5-2.5-4.9-4.1-7.1l3.8-1.4c1.6,2.4,3,5.2,4.4,8.5h20.9v3.9h-29.5l-0.5,10v0.1h23.2
			c-0.1,11.1-0.6,18.2-1.3,21.3c-1.1,4.8-3.9,7.2-8.3,7.4c-1.8,0-4-0.1-6.4-0.2l-1.2-3.6c2.9,0.1,5.3,0.2,7.3,0.2
			c2.9-0.1,4.6-2.1,5.3-6c0.3-2.4,0.5-7.4,0.6-15.2h-19.6c-0.7,4.5-2.1,8.6-4.1,12.3c-2.7,4.8-6.6,9.2-11.5,13.2l-2.9-2.8
			c5.9-5,9.9-9.7,11.9-14c1.9-4.3,3-9.1,3.2-14.4c0.2-3.5,0.3-6.2,0.3-8.1h-15.6v-3.9H3537.8z"/>
		<path d="M3597.1-277.4v3.8h-28.3v-3.8H3597.1z"/>
		<path d="M3608.1-297.9h19.1c-0.1,2.3-0.2,4.3-0.3,6.1h3.1v2.7h-3.4c-0.1,1.3-0.3,2.6-0.4,3.6h2.3v2.4h-2.8c-0.2,1-0.5,1.6-0.8,2.1
			l1.8,1.3c-3.2,1.8-6.5,3.3-10,4.5c4.6-0.2,9.1-0.5,13.4-0.8c2.2-1.1,4.5-2.4,6.7-3.7l2.8,1.8c-6.7,4-14,7.2-21.7,9.4
			c8-0.3,16-0.8,24-1.6c-1.3-1.2-2.8-2.3-4.3-3.4l2.7-1.7c4.6,3.4,8.2,6.4,10.6,9l-2.9,2c-1.1-1.1-2.2-2.3-3.5-3.4
			c-5.2,0.4-10,0.7-14.6,1v7.4c0,2.6-1.5,3.9-4.4,3.9h-4.7l-0.7-3.3c1.5,0.1,2.9,0.2,4.3,0.2c1.1,0,1.6-0.6,1.6-1.7v-6.3
			c-6.6,0.4-12.8,0.7-18.4,0.8l-0.7-3.1c1,0.1,2,0.1,3,0.1c4.8-1.1,9.7-2.7,14.7-4.9c-5,0.1-9.9,0.3-14.7,0.5l-0.6-2.6
			c1.3,0,2.3-0.1,2.9-0.3c2.5-0.9,5-2,7.7-3.3l-2.4,0.2h-2l-0.8-2.1h2.5c2.2-0.1,3.8-0.4,4.4-1c0.2-0.2,0.3-0.4,0.4-0.9h-17.2
			c0.5-2.1,1-4.1,1.3-6h-4v-2.7h4.4c0.2-1.8,0.3-3.6,0.4-5.4c-0.9,0.9-1.8,1.7-2.9,2.5l-2.1-2.6c3.3-2.5,6-5.7,8.2-9.7l3.4,0.8
			c-0.5,1-1,1.8-1.5,2.7h16.9v2.9h-19C3609.6-299.6,3608.8-298.7,3608.1-297.9z M3620-262.2c-4.1,2.6-9.2,4.7-15.3,6.4l-1.5-3.2
			c5.9-1.5,10.8-3.3,14.7-5.7L3620-262.2z M3609.2-285.5h8.1c-1.3-1-2.6-1.7-4-2.3l1.1-1.6c1.7,0.7,3.2,1.6,4.7,2.6l-0.8,1.3h4.9
			c0.1-1.1,0.3-2.5,0.4-3.9H3610C3609.7-287.9,3609.5-286.6,3609.2-285.5z M3623.9-295.5h-13.3l-0.3,3.9h7.5
			c-1.2-0.9-2.5-1.6-3.7-2.1l1.1-1.6c1.7,0.7,3.2,1.5,4.6,2.5l-0.7,1.1h4.6L3623.9-295.5z M3631-292.1l-2.1-2.8
			c3.4-3.2,5.7-7.3,6.9-12l3.7,0.6c-0.4,1.7-1.1,3.3-1.7,4.9h15v3.2h-3.9c-1.1,4.3-2.8,7.9-5.2,10.7c2.8,2,6,3.5,9.7,4.8l-2.1,3.1
			c-3.9-1.5-7.3-3.3-10.1-5.5c-2.8,2.3-6.1,4-10,5l-1.9-3c3.7-0.9,6.8-2.4,9.3-4.4c-1.9-1.8-3.5-3.9-4.8-6l2.6-1.5
			c1.3,2,2.8,3.7,4.6,5.3c2-2.4,3.5-5.2,4.4-8.6h-9.4C3634.7-296,3633-293.9,3631-292.1z M3652.2-258.5l-1.8,2.9
			c-5-2.8-10.2-5-15.6-6.6l1.8-2.7C3642.3-263.1,3647.5-261,3652.2-258.5z"/>
	</g>
	<g class="st0">
		<path d="M3765.1-261.4c0,0.3,0,0.6,0,0.8s-0.1,0.4-0.1,0.6s-0.1,0.3-0.2,0.5s-0.2,0.3-0.4,0.5s-0.6,0.5-1.2,0.9s-1.4,0.8-2.3,1.2
			s-2,0.7-3.2,1s-2.5,0.4-3.9,0.4c-2.5,0-4.7-0.4-6.7-1.2s-3.7-2-5.1-3.6s-2.5-3.6-3.2-5.9s-1.1-5.1-1.1-8.1c0-3.1,0.4-5.9,1.2-8.4
			s1.9-4.5,3.4-6.3s3.2-3,5.3-3.9s4.3-1.3,6.8-1.3c1.1,0,2.2,0.1,3.2,0.3s2,0.5,2.9,0.8s1.7,0.7,2.3,1.1s1.2,0.7,1.4,1
			s0.4,0.5,0.5,0.6s0.1,0.3,0.2,0.5s0.1,0.4,0.1,0.7s0,0.6,0,0.9c0,0.4,0,0.7-0.1,1c0,0.3-0.1,0.5-0.2,0.7c-0.1,0.2-0.2,0.3-0.3,0.4
			c-0.1,0.1-0.2,0.1-0.4,0.1c-0.3,0-0.7-0.2-1.1-0.6c-0.5-0.4-1.1-0.8-1.9-1.3s-1.7-0.9-2.8-1.3s-2.4-0.6-4-0.6
			c-1.7,0-3.2,0.3-4.6,1c-1.4,0.7-2.6,1.7-3.5,3s-1.7,2.9-2.3,4.8c-0.5,1.9-0.8,4-0.8,6.5c0,2.4,0.3,4.5,0.8,6.4s1.3,3.4,2.2,4.6
			c1,1.2,2.2,2.2,3.6,2.8c1.4,0.6,3,1,4.8,1c1.5,0,2.8-0.2,4-0.6s2.1-0.8,2.9-1.2c0.8-0.5,1.4-0.9,2-1.2s0.9-0.6,1.2-0.6
			c0.1,0,0.3,0,0.4,0.1s0.2,0.2,0.2,0.3s0.1,0.4,0.1,0.7S3765.1-261.8,3765.1-261.4z"/>
		<path d="M3791.1-256.7c0,0.2-0.1,0.4-0.2,0.5s-0.4,0.2-0.6,0.3s-0.7,0.1-1.2,0.1c-0.5,0-0.9,0-1.2-0.1s-0.5-0.1-0.7-0.3
			s-0.2-0.3-0.2-0.5v-2.6c-1.2,1.2-2.4,2.2-3.9,2.9s-2.9,1-4.5,1c-1.4,0-2.6-0.2-3.8-0.5s-2.1-0.9-2.9-1.6s-1.4-1.5-1.8-2.5
			s-0.7-2.1-0.7-3.4c0-1.5,0.3-2.8,0.9-3.9s1.5-2,2.6-2.7s2.5-1.3,4.2-1.6s3.5-0.5,5.5-0.5h3.6v-2.1c0-1-0.1-1.9-0.3-2.7
			s-0.6-1.4-1-1.9s-1.1-0.9-1.9-1.2s-1.7-0.4-2.8-0.4c-1.2,0-2.3,0.1-3.2,0.4s-1.8,0.6-2.5,0.9s-1.3,0.7-1.8,0.9s-0.8,0.4-1.1,0.4
			c-0.2,0-0.3,0-0.4-0.1s-0.2-0.2-0.3-0.4s-0.2-0.4-0.2-0.6s-0.1-0.5-0.1-0.8c0-0.5,0-0.9,0.1-1.2s0.2-0.6,0.5-0.8s0.7-0.6,1.4-0.9
			s1.4-0.7,2.2-0.9s1.8-0.5,2.8-0.7s2-0.3,3-0.3c1.9,0,3.5,0.2,4.8,0.6s2.4,1.1,3.2,1.9s1.4,1.9,1.8,3.1s0.6,2.7,0.6,4.3V-256.7z
			 M3786.3-268.7h-4.1c-1.3,0-2.5,0.1-3.5,0.3s-1.8,0.6-2.4,1s-1.1,1-1.4,1.6s-0.5,1.3-0.5,2.1c0,1.4,0.4,2.5,1.3,3.3
			s2.1,1.2,3.6,1.2c1.3,0,2.4-0.3,3.5-1s2.2-1.6,3.4-3V-268.7z"/>
		<path d="M3804.8-256.7c0,0.2,0,0.3-0.1,0.4s-0.2,0.2-0.4,0.3s-0.4,0.1-0.7,0.2s-0.7,0.1-1.2,0.1c-0.5,0-0.9,0-1.2-0.1
			s-0.6-0.1-0.7-0.2s-0.3-0.2-0.4-0.3s-0.1-0.2-0.1-0.4v-39.1c0-0.2,0-0.3,0.1-0.4s0.2-0.2,0.4-0.3s0.4-0.1,0.7-0.2s0.7-0.1,1.2-0.1
			c0.5,0,0.9,0,1.2,0.1s0.6,0.1,0.7,0.2s0.3,0.2,0.4,0.3s0.1,0.3,0.1,0.4V-256.7z"/>
		<path d="M3819.1-292c0,1.1-0.2,1.9-0.6,2.3s-1.2,0.6-2.4,0.6c-1.1,0-1.9-0.2-2.3-0.6s-0.6-1.2-0.6-2.3c0-1.1,0.2-1.9,0.6-2.3
			s1.2-0.6,2.4-0.6c1.1,0,1.9,0.2,2.3,0.6S3819.1-293.1,3819.1-292z M3818.6-256.7c0,0.2,0,0.3-0.1,0.4s-0.2,0.2-0.4,0.3
			s-0.4,0.1-0.7,0.2s-0.7,0.1-1.2,0.1c-0.5,0-0.9,0-1.2-0.1s-0.6-0.1-0.7-0.2s-0.3-0.2-0.4-0.3s-0.1-0.2-0.1-0.4v-26.4
			c0-0.1,0-0.3,0.1-0.4s0.2-0.2,0.4-0.3s0.4-0.1,0.7-0.2s0.7-0.1,1.2-0.1c0.5,0,0.9,0,1.2,0.1s0.6,0.1,0.7,0.2s0.3,0.2,0.4,0.3
			s0.1,0.2,0.1,0.4V-256.7z"/>
		<path d="M3851.8-270.3c0,2.3-0.2,4.3-0.7,6.2s-1.2,3.4-2.2,4.7s-2.2,2.3-3.6,3s-3,1-4.8,1c-0.8,0-1.6-0.1-2.3-0.2
			s-1.4-0.4-2.1-0.8s-1.4-0.8-2.1-1.4s-1.4-1.2-2.2-2.1v3.2c0,0.2,0,0.3-0.1,0.4s-0.2,0.2-0.4,0.3s-0.4,0.1-0.7,0.2s-0.6,0.1-1,0.1
			c-0.4,0-0.7,0-1-0.1s-0.5-0.1-0.7-0.2s-0.3-0.2-0.4-0.3s-0.1-0.3-0.1-0.4v-39.1c0-0.2,0-0.3,0.1-0.4s0.2-0.2,0.4-0.3
			s0.4-0.1,0.7-0.2s0.7-0.1,1.2-0.1c0.5,0,0.9,0,1.2,0.1s0.6,0.1,0.7,0.2s0.3,0.2,0.4,0.3s0.1,0.3,0.1,0.4v15.8
			c0.8-0.8,1.5-1.5,2.3-2s1.5-1,2.2-1.3s1.4-0.6,2.1-0.7s1.4-0.2,2.2-0.2c1.9,0,3.5,0.4,4.9,1.1s2.5,1.8,3.3,3.1s1.5,2.8,1.9,4.5
			S3851.8-272.2,3851.8-270.3z M3846.8-269.7c0-1.3-0.1-2.7-0.3-3.9s-0.6-2.4-1.1-3.4s-1.2-1.8-2-2.4c-0.8-0.6-1.9-0.9-3.2-0.9
			c-0.6,0-1.2,0.1-1.9,0.3c-0.6,0.2-1.2,0.5-1.9,0.9s-1.3,0.9-2,1.6c-0.7,0.6-1.4,1.5-2.2,2.4v10.5c1.3,1.6,2.6,2.9,3.8,3.7
			c1.2,0.8,2.5,1.3,3.8,1.3c1.2,0,2.3-0.3,3.1-0.9c0.9-0.6,1.6-1.4,2.1-2.3c0.5-1,0.9-2.1,1.2-3.3
			C3846.6-267.3,3846.8-268.5,3846.8-269.7z"/>
		<path d="M3874.4-281.4c0,0.4,0,0.8,0,1.1s-0.1,0.5-0.1,0.7s-0.1,0.3-0.2,0.4s-0.2,0.1-0.4,0.1s-0.3,0-0.6-0.1s-0.5-0.2-0.8-0.3
			s-0.6-0.2-1-0.2s-0.7-0.1-1.1-0.1c-0.5,0-1,0.1-1.4,0.3s-1,0.5-1.5,1s-1.1,1-1.6,1.8s-1.2,1.7-1.9,2.7v17.3c0,0.2,0,0.3-0.1,0.4
			s-0.2,0.2-0.4,0.3s-0.4,0.1-0.7,0.2s-0.7,0.1-1.2,0.1c-0.5,0-0.9,0-1.2-0.1s-0.6-0.1-0.7-0.2s-0.3-0.2-0.4-0.3s-0.1-0.2-0.1-0.4
			v-26.4c0-0.2,0-0.3,0.1-0.4s0.2-0.2,0.4-0.3s0.4-0.1,0.7-0.2s0.6,0,1.1,0c0.4,0,0.8,0,1.1,0s0.5,0.1,0.7,0.2s0.3,0.2,0.3,0.3
			s0.1,0.2,0.1,0.4v3.8c0.7-1.1,1.4-1.9,2-2.6s1.2-1.2,1.8-1.6s1.1-0.6,1.7-0.8s1.1-0.2,1.7-0.2c0.3,0,0.5,0,0.9,0s0.7,0.1,1,0.2
			s0.7,0.2,1,0.3s0.5,0.2,0.6,0.3s0.2,0.2,0.2,0.3s0.1,0.2,0.1,0.3s0,0.3,0.1,0.6S3874.4-281.8,3874.4-281.4z"/>
		<path d="M3885.3-292c0,1.1-0.2,1.9-0.6,2.3s-1.2,0.6-2.4,0.6c-1.1,0-1.9-0.2-2.3-0.6s-0.6-1.2-0.6-2.3c0-1.1,0.2-1.9,0.6-2.3
			s1.2-0.6,2.4-0.6c1.1,0,1.9,0.2,2.3,0.6S3885.3-293.1,3885.3-292z M3884.8-256.7c0,0.2,0,0.3-0.1,0.4s-0.2,0.2-0.4,0.3
			s-0.4,0.1-0.7,0.2s-0.7,0.1-1.2,0.1c-0.5,0-0.9,0-1.2-0.1s-0.6-0.1-0.7-0.2s-0.3-0.2-0.4-0.3s-0.1-0.2-0.1-0.4v-26.4
			c0-0.1,0-0.3,0.1-0.4s0.2-0.2,0.4-0.3s0.4-0.1,0.7-0.2s0.7-0.1,1.2-0.1c0.5,0,0.9,0,1.2,0.1s0.6,0.1,0.7,0.2s0.3,0.2,0.4,0.3
			s0.1,0.2,0.1,0.4V-256.7z"/>
	</g>
	<g class="st0">
		<path d="M3485.5-211.4l-1.2-1.3c0.8-0.9,1.3-2.1,1.4-3.7v-3.3c3.1,0,6-0.3,8.5-0.7l0.7,1.4c-2.3,0.4-4.9,0.6-7.7,0.7v1.6h7.7v1.4
			h-2.9v2.8h-1.7v-2.8h-3.1C3487-213.8,3486.4-212.5,3485.5-211.4z M3493-200.9c-1.7,1-4.2,1.7-7.3,2.3l-0.8-1.3
			c3.2-0.5,5.6-1.2,7.3-2.1L3493-200.9z M3503.1-212v9.7h-15.7v-9.7H3503.1z M3501.4-209.1v-1.5h-12.2v1.5H3501.4z M3501.4-206.4
			v-1.5h-12.2v1.5H3501.4z M3501.4-205.2h-12.2v1.6h12.2V-205.2z M3495.8-212l-1.2-1.3c1-0.8,1.5-2,1.6-3.4v-3c3.1,0,6-0.3,8.4-0.8
			l0.7,1.4c-2.3,0.4-4.8,0.6-7.6,0.7v1.6h7.8v1.4h-3.2v2.8h-1.7v-2.8h-3.1C3497.4-214,3496.7-212.9,3495.8-212z M3505.6-199.9
			l-0.6,1.4c-2.5-1-5.1-1.7-7.8-2.2l0.6-1.2C3500.6-201.5,3503.1-200.8,3505.6-199.9z"/>
		<path d="M3529.3-216.9h-5.1c0.1,2.8,0.2,5.1,0.5,7c0.9-1.2,1.8-2.7,2.5-4.2l1.4,0.8c-1,2-2.1,3.7-3.1,5l-0.4,0.5
			c0.4,2.4,1,4.2,1.6,5.4c0.6,1.2,1.1,1.7,1.4,1.7c0.3,0,0.6-1.3,0.9-3.8l1.3,0.7c-0.5,3.3-1.1,5-1.9,5c-0.8,0-1.6-0.7-2.5-2.2
			c-0.8-1.3-1.5-3.1-2-5.5c-0.8,0.8-1.7,1.5-2.7,2.3l-0.8-1.4c1.2-0.7,2.2-1.6,3.2-2.7c-0.4-2.3-0.6-5.2-0.7-8.6h-10.8v4.5
			c-0.1,5.7-1,10.2-2.7,13.7l-1.2-1.1c1.5-3,2.2-7.2,2.3-12.5v-6.1h12.4c0-0.7,0-1.4,0-2.1h1.6c0,0.7,0,1.4,0,2.1h2.1
			c-0.2-0.6-0.5-1.1-0.9-1.6l1.4-0.5c0.3,0.6,0.6,1.3,1,2.1h1.6V-216.9z M3513.6-204.5c-0.3,1.9-0.7,3.6-1.3,5l-1.1-0.7
			c0.6-1.4,1-2.9,1.3-4.6L3513.6-204.5z M3521-215v1.4h-8.1v-1.4H3521z M3520.5-212v5h-7.1v-5H3520.5z M3516.1-199
			c-1.1,0-1.6-0.6-1.6-1.8v-4.4h1.5v4.2c0,0.5,0.2,0.7,0.6,0.7h2c0.4,0,0.7-0.1,0.9-0.3c0.2-0.2,0.4-1,0.5-2.1l1.3,0.4
			c-0.1,1.6-0.4,2.5-0.8,2.9c-0.4,0.3-0.9,0.4-1.6,0.4H3516.1z M3518.9-210.7h-3.9v2.4h3.9V-210.7z M3519.8-203.4l-1,0.7
			c-0.5-0.9-1.2-1.8-2-2.9l1-0.6C3518.7-205.2,3519.3-204.2,3519.8-203.4z M3524.6-200.5l-1,0.7c-0.5-1.1-1.2-2.3-2.1-3.6l1-0.7
			C3523.4-202.7,3524.1-201.5,3524.6-200.5z"/>
		<path d="M3538.2-203.4h-3.7v1.9h-1.6v-17h5.3V-203.4z M3536.7-204.9V-217h-2.2v12.1H3536.7z M3542.5-220.7v3.4h3.6
			c0,7.9-0.1,12.7-0.3,14.6c-0.2,2.5-1.2,3.8-2.8,3.8c-0.2,0-0.6,0-1.2-0.1l-0.4-1.6c0.5,0,1,0.1,1.3,0.1c0.9,0,1.4-1,1.6-2.9
			c0.1-1.3,0.2-5.4,0.3-12.3h-2.1v2.4c0,6.7-1.3,11.6-3.9,14.7l-1.2-1.1c2.3-2.8,3.5-7.3,3.5-13.6v-2.4h-1.7v-1.6h1.7v-3.4H3542.5z
			 M3553.1-199.1h-1.6v-1.3h-2.4v1.3h-1.5v-19h5.5V-199.1z M3551.5-201.9v-14.7h-2.4v14.7H3551.5z"/>
		<path d="M3562.6-201h-1.7v-1.5h-2.4v2h-1.7v-18.2h5.7V-201z M3561-204.1V-217h-2.4v12.9H3561z M3567.8-216.7v-3.8h1.6v11.7
			c-0.1,4.7-1.5,8.1-4.3,10.3l-1.3-1.1c1.5-1.1,2.5-2.5,3.2-4.3c-1,0.3-2.1,0.5-3.5,0.7l-0.2-1.6c1.6-0.1,3-0.4,4.2-0.7
			c0.2-1,0.3-2.1,0.3-3.2v-0.8h-3.5v-1.6h3.5v-4h-4.1v-1.6H3567.8z M3573.6-220.6v3.8h4.3v1.6h-4.3v4h3.6v1.6h-3.6v4.2h4.4v1.6h-4.4
			v5.3h-1.7v-22H3573.6z"/>
		<path d="M3584.5-213c-0.7,3.8-1.7,7.1-3,9.9l-1.5-0.9c1.3-2.8,2.3-5.9,2.9-9.3L3584.5-213z M3597.6-219.1
			c-2.2,7.3-5.3,12.8-9.5,16.6v0.3c0,0.7,0.4,1.1,1.2,1.1h4.2c0.7,0,1.2-0.2,1.5-0.7c0.4-0.6,0.6-2.2,0.8-4.9l1.6,0.6
			c-0.2,3.2-0.6,5.1-1.2,5.9c-0.5,0.6-1.3,0.9-2.4,0.9h-5c-1.3,0-2.1-0.6-2.3-1.7c-1.3,1-2.7,1.8-4.2,2.5l-1-1.4
			c1.9-0.9,3.6-1.9,5.1-3.2v-12.2h1.7v10.6c3.6-3.6,6.2-8.6,7.9-14.9L3597.6-219.1z M3593-216l-1.2,1.2c-1.2-1.4-2.7-3-4.8-4.6
			l1.2-1.1C3590.1-219,3591.7-217.5,3593-216z M3602.1-203.9l-1.6,0.7c-1.2-3.5-2.5-6.6-4-9.3l1.6-0.5
			C3599.7-210.2,3601-207.1,3602.1-203.9z"/>
		<path d="M3609.7-214.5v1.3c-0.8,1.4-1.8,2.8-2.9,4.1h3.1v1.1c-0.3,1.9-0.7,3.5-1.2,4.8c0.2,0.1,0.4,0.3,0.6,0.5
			c0.7,0.7,1.5,1.2,2.3,1.6c0.8,0.3,1.8,0.5,3.2,0.5c1.3,0,2.8,0,4.5,0s3.9,0,6.6-0.1l-0.4,1.7h-6c-1.8,0-3.4,0-4.8-0.1
			c-1.6,0-2.9-0.3-3.7-0.6c-1-0.4-1.9-1-2.7-1.9c-0.2-0.2-0.4-0.3-0.6-0.3c-0.6,0-1.4,1-2.5,3.1l-1.2-1.1c1.1-2,2.1-3.2,3.1-3.5
			c0.5-1.3,0.9-2.7,1.2-4.3h-3.5v-1.3c1.2-1.4,2.2-2.7,3-4.1h-3.5v-1.5H3609.7z M3609.7-217l-1.1,1.1c-0.9-1.1-2.2-2.2-3.8-3.3
			l1.2-1.1C3607.4-219.2,3608.7-218.1,3609.7-217z M3616.3-212.1v1.5h3.9v-1.5h1.6v1.5h3.1v1.5h-3.1v2.2h3.8v1.5h-14.6v-1.5h3.8
			v-2.2h-3.2v-1.5h3.2v-1.5H3616.3z M3611.1-213.3c0.3-0.1,0.5-0.4,0.5-0.8v-5.8h6v4.2h-4.5v2c1.5-0.1,3-0.3,4.5-0.6l0.3,1.2
			c-1.8,0.3-3.9,0.6-6.3,0.8L3611.1-213.3z M3616.9-204.3c-1.2,1.1-2.8,2-4.6,2.9l-0.9-1.2c1.8-0.7,3.3-1.6,4.5-2.6L3616.9-204.3z
			 M3616.1-216.9v-1.7h-3v1.7H3616.1z M3620.2-206.9v-2.2h-3.9v2.2H3620.2z M3620.2-214.6c0,0.4,0.2,0.6,0.8,0.6h4.2v1.3h-4.9
			c-1,0-1.5-0.4-1.5-1.3v-5.9h6v4.1h-4.6V-214.6z M3625.2-202.6l-0.8,1.3c-1.6-1.2-3.2-2.1-4.9-2.8l0.8-1.2
			C3622-204.5,3623.6-203.6,3625.2-202.6z M3620.2-218.6v1.7h3.1v-1.7H3620.2z"/>
	</g>
	<g class="st0">
		<path d="M3786.8-201.1c0,0.1,0,0.2,0,0.3s0,0.2,0,0.2s0,0.1-0.1,0.2s-0.1,0.1-0.2,0.2s-0.2,0.2-0.5,0.4s-0.6,0.3-0.9,0.5
			s-0.8,0.3-1.3,0.4s-1,0.2-1.6,0.2c-1,0-1.9-0.2-2.7-0.5s-1.5-0.8-2-1.5s-1-1.4-1.3-2.4s-0.5-2-0.5-3.3c0-1.3,0.2-2.4,0.5-3.4
			s0.8-1.8,1.4-2.5s1.3-1.2,2.1-1.6s1.7-0.5,2.7-0.5c0.4,0,0.9,0,1.3,0.1s0.8,0.2,1.1,0.3s0.7,0.3,0.9,0.4s0.5,0.3,0.6,0.4
			s0.2,0.2,0.2,0.2s0.1,0.1,0.1,0.2s0,0.2,0,0.3s0,0.2,0,0.4c0,0.2,0,0.3,0,0.4s0,0.2-0.1,0.3c0,0.1-0.1,0.1-0.1,0.2
			s-0.1,0.1-0.2,0.1c-0.1,0-0.3-0.1-0.5-0.2s-0.5-0.3-0.8-0.5c-0.3-0.2-0.7-0.4-1.1-0.5c-0.4-0.2-1-0.2-1.6-0.2
			c-0.7,0-1.3,0.1-1.8,0.4s-1,0.7-1.4,1.2s-0.7,1.2-0.9,1.9s-0.3,1.6-0.3,2.6c0,1,0.1,1.8,0.3,2.5s0.5,1.4,0.9,1.9s0.9,0.9,1.4,1.1
			s1.2,0.4,1.9,0.4c0.6,0,1.1-0.1,1.6-0.2c0.5-0.1,0.8-0.3,1.2-0.5c0.3-0.2,0.6-0.3,0.8-0.5s0.4-0.2,0.5-0.2c0.1,0,0.1,0,0.1,0
			s0.1,0.1,0.1,0.1s0,0.2,0.1,0.3S3786.8-201.3,3786.8-201.1z"/>
		<path d="M3799-204.7c0,0.9-0.1,1.7-0.3,2.4s-0.6,1.3-1,1.9s-1,0.9-1.7,1.2s-1.5,0.4-2.3,0.4c-0.9,0-1.6-0.1-2.3-0.4
			s-1.2-0.6-1.6-1.1s-0.8-1.1-1-1.8s-0.3-1.5-0.3-2.4c0-0.9,0.1-1.7,0.3-2.4s0.6-1.3,1-1.9s1-0.9,1.7-1.2s1.5-0.4,2.4-0.4
			c0.9,0,1.6,0.1,2.3,0.4s1.2,0.6,1.6,1.1s0.8,1.1,1,1.8S3799-205.6,3799-204.7z M3797-204.6c0-0.6-0.1-1.1-0.2-1.6s-0.3-1-0.5-1.3
			s-0.6-0.7-1-0.9s-0.9-0.3-1.6-0.3c-0.6,0-1.1,0.1-1.5,0.3c-0.4,0.2-0.8,0.5-1,0.9c-0.3,0.4-0.5,0.8-0.6,1.3s-0.2,1.1-0.2,1.7
			c0,0.6,0.1,1.1,0.2,1.6s0.3,1,0.5,1.3c0.2,0.4,0.6,0.7,1,0.9c0.4,0.2,0.9,0.3,1.6,0.3c0.6,0,1.1-0.1,1.5-0.3
			c0.4-0.2,0.8-0.5,1-0.9c0.3-0.4,0.5-0.8,0.6-1.3C3797-203.4,3797-203.9,3797-204.6z"/>
		<path d="M3814.3-214.2c0,0.2,0,0.4-0.1,0.5s-0.1,0.2-0.2,0.2c-0.1,0-0.1,0-0.2,0s-0.2-0.1-0.3-0.1s-0.3-0.1-0.4-0.1
			s-0.3-0.1-0.5-0.1c-0.6,0-1,0.2-1.2,0.6s-0.4,1-0.4,1.9v1.2h2.4c0.1,0,0.1,0,0.2,0s0.1,0.1,0.1,0.1s0.1,0.2,0.1,0.3s0,0.2,0,0.4
			c0,0.3,0,0.5-0.1,0.6s-0.2,0.2-0.3,0.2h-2.4v9.2c0,0.1,0,0.1,0,0.2s-0.1,0.1-0.2,0.1s-0.2,0.1-0.3,0.1s-0.3,0-0.5,0s-0.3,0-0.5,0
			s-0.2,0-0.3-0.1s-0.1-0.1-0.2-0.1s0-0.1,0-0.2v-9.2h-4.7v9.2c0,0.1,0,0.1,0,0.2s-0.1,0.1-0.2,0.1s-0.2,0.1-0.3,0.1s-0.3,0-0.5,0
			s-0.3,0-0.5,0s-0.2,0-0.3-0.1s-0.1-0.1-0.2-0.1s0-0.1,0-0.2v-9.2h-1.5c-0.1,0-0.2-0.1-0.3-0.2s-0.1-0.3-0.1-0.6c0-0.1,0-0.3,0-0.4
			s0-0.2,0.1-0.3s0.1-0.1,0.1-0.1s0.1,0,0.2,0h1.5v-1c0-0.7,0.1-1.3,0.2-1.9s0.4-0.9,0.6-1.3s0.6-0.6,1-0.7s0.9-0.2,1.5-0.2
			c0.3,0,0.6,0,0.9,0.1s0.5,0.1,0.6,0.2c0.1,0,0.1,0.1,0.2,0.1s0.1,0.1,0.1,0.2s0.1,0.2,0.1,0.3s0,0.2,0,0.4c0,0.2,0,0.4-0.1,0.5
			s-0.1,0.2-0.2,0.2c-0.1,0-0.1,0-0.2-0.1s-0.2-0.1-0.3-0.1s-0.3-0.1-0.4-0.1s-0.3-0.1-0.5-0.1c-0.6,0-1,0.2-1.2,0.6s-0.4,1-0.4,1.9
			v1h4.7v-1.1c0-0.7,0.1-1.3,0.2-1.9s0.4-0.9,0.6-1.3s0.6-0.6,1-0.7s0.9-0.2,1.5-0.2c0.3,0,0.6,0,0.9,0.1s0.5,0.1,0.6,0.2
			c0.1,0,0.1,0.1,0.2,0.1s0.1,0.1,0.1,0.2s0,0.2,0.1,0.3S3814.3-214.3,3814.3-214.2z"/>
		<path d="M3824.3-205c0,0.3-0.1,0.5-0.2,0.7s-0.3,0.2-0.5,0.2h-6.9c0,0.6,0.1,1.1,0.2,1.6s0.3,0.9,0.6,1.2s0.6,0.6,1.1,0.8
			s1,0.3,1.6,0.3c0.5,0,1,0,1.3-0.1s0.7-0.2,1-0.3c0.3-0.1,0.5-0.2,0.7-0.3s0.3-0.1,0.4-0.1c0.1,0,0.1,0,0.1,0c0,0,0.1,0.1,0.1,0.1
			s0,0.1,0.1,0.2s0,0.2,0,0.4c0,0.1,0,0.2,0,0.3s0,0.1,0,0.2s0,0.1-0.1,0.2s-0.1,0.1-0.1,0.1s-0.2,0.1-0.4,0.2s-0.5,0.2-0.8,0.3
			s-0.7,0.2-1.2,0.3s-0.9,0.1-1.4,0.1c-0.9,0-1.6-0.1-2.3-0.4s-1.2-0.6-1.6-1.1s-0.8-1.1-1-1.8s-0.3-1.6-0.3-2.5
			c0-0.9,0.1-1.7,0.4-2.4s0.6-1.3,1-1.8s1-0.9,1.6-1.2s1.3-0.4,2.1-0.4c0.8,0,1.5,0.1,2.1,0.4s1.1,0.6,1.4,1.1s0.7,1,0.8,1.6
			s0.3,1.3,0.3,1.9V-205z M3822.3-205.6c0-1-0.2-1.8-0.7-2.4s-1.2-0.9-2.1-0.9c-0.5,0-0.9,0.1-1.3,0.3s-0.7,0.4-0.9,0.7
			c-0.2,0.3-0.4,0.6-0.6,1c-0.1,0.4-0.2,0.8-0.2,1.2H3822.3z"/>
		<path d="M3836.2-205c0,0.3-0.1,0.5-0.2,0.7s-0.3,0.2-0.5,0.2h-6.9c0,0.6,0.1,1.1,0.2,1.6s0.3,0.9,0.6,1.2s0.6,0.6,1.1,0.8
			s1,0.3,1.6,0.3c0.5,0,1,0,1.3-0.1s0.7-0.2,1-0.3c0.3-0.1,0.5-0.2,0.7-0.3s0.3-0.1,0.4-0.1c0.1,0,0.1,0,0.1,0c0,0,0.1,0.1,0.1,0.1
			s0,0.1,0.1,0.2s0,0.2,0,0.4c0,0.1,0,0.2,0,0.3s0,0.1,0,0.2s0,0.1-0.1,0.2s-0.1,0.1-0.1,0.1s-0.2,0.1-0.4,0.2s-0.5,0.2-0.8,0.3
			s-0.7,0.2-1.2,0.3s-0.9,0.1-1.4,0.1c-0.9,0-1.6-0.1-2.3-0.4s-1.2-0.6-1.6-1.1s-0.8-1.1-1-1.8s-0.3-1.6-0.3-2.5
			c0-0.9,0.1-1.7,0.4-2.4s0.6-1.3,1-1.8s1-0.9,1.6-1.2s1.3-0.4,2.1-0.4c0.8,0,1.5,0.1,2.1,0.4s1.1,0.6,1.4,1.1s0.7,1,0.8,1.6
			s0.3,1.3,0.3,1.9V-205z M3834.3-205.6c0-1-0.2-1.8-0.7-2.4s-1.2-0.9-2.1-0.9c-0.5,0-0.9,0.1-1.3,0.3s-0.7,0.4-0.9,0.7
			c-0.2,0.3-0.4,0.6-0.6,1c-0.1,0.4-0.2,0.8-0.2,1.2H3834.3z"/>
	</g>
</g>
</svg>
