<svg xmlns="http://www.w3.org/2000/svg" width="347.704" height="208.623" viewBox="0 0 347.704 208.623">
  <g id="project05_05" transform="translate(-495 -1662.505)">
    <g id="Group_109" data-name="Group 109" transform="translate(571.495 1808.864)">
      <g id="Group_107" data-name="Group 107" transform="translate(0 25.855)">
        <path id="Path_345" data-name="Path 345" d="M630.479,1892.093a1.746,1.746,0,0,1-1.817,1.709H607.652a1.121,1.121,0,0,0-1.065.79l-.8,3.248a.674.674,0,0,0,.666.793h16.222a1.922,1.922,0,0,1,1.863,2.707l-5.673,11.205a.99.99,0,0,0,.31,1.25l7.489,5.373a1,1,0,0,1-.664,1.791,9.544,9.544,0,0,1-5.674-1.832l-3.9-2.791a1,1,0,0,0-1.284.084l-2.925,2.707a6.838,6.838,0,0,1-4.655,1.832,1.1,1.1,0,0,1-.8-1.832l5.717-5.373a.961.961,0,0,0,.134-1.25l-6.6-9.873a1.027,1.027,0,0,0-.8-.375.605.605,0,0,0-.576.46l-3.679,15.33a2.384,2.384,0,0,1-2.3,1.748,1.446,1.446,0,0,1-1.462-1.748l5.628-23.454a.674.674,0,0,0-.664-.79h-6.34a1.774,1.774,0,0,1-1.817-1.709,1.809,1.809,0,0,1,1.817-1.75h7.136a1.119,1.119,0,0,0,1.065-.791l.488-2.041a2.4,2.4,0,0,1,2.348-1.75,1.447,1.447,0,0,1,1.462,1.75l-.485,2.041a.653.653,0,0,0,.663.791h20.168A1.78,1.78,0,0,1,630.479,1892.093Zm-15.246,17.5a.5.5,0,0,0,.841-.041l3.325-6.583a.5.5,0,0,0-.488-.709h-7.758a.433.433,0,0,0-.4.666Z" transform="translate(-594 -1885.469)"/>
        <path id="Path_346" data-name="Path 346" d="M691.666,1919.565h-18.04a3.1,3.1,0,0,0-3.236,3v3.707a3.107,3.107,0,0,0,3.236,3.041h18.04a3.1,3.1,0,0,0,3.19-3.041v-3.707A3.086,3.086,0,0,0,691.666,1919.565Zm-.267,5.667a.853.853,0,0,1-.841.831H674.734a.863.863,0,0,1-.887-.831v-1.585a.862.862,0,0,1,.887-.832h15.824a.852.852,0,0,1,.841.832Z" transform="translate(-611.365 -1893.154)"/>
        <path id="Path_347" data-name="Path 347" d="M697.178,1902.856a1.633,1.633,0,0,0,1.683-1.582,1.669,1.669,0,0,0-1.683-1.625H683.525a.818.818,0,0,1-.841-.791v-.334a.817.817,0,0,1,.841-.791h7.755a1.67,1.67,0,1,0,0-3.334h-7.755a.845.845,0,0,1-.841-.791v-.291a.854.854,0,0,1,.841-.834h10.24a1.65,1.65,0,1,0,0-3.291H689.2a.448.448,0,0,1-.442-.623l.353-.75a1.185,1.185,0,0,0-1.151-1.625,2.879,2.879,0,0,0-2.662,1.625l-.353.75a1.129,1.129,0,0,1-1.019.623h-6.116a1.114,1.114,0,0,1-.977-.623l-.356-.75a2.873,2.873,0,0,0-2.659-1.625,1.169,1.169,0,0,0-1.152,1.625l.354.75a.466.466,0,0,1-.443.623h-4.433a1.647,1.647,0,1,0,0,3.291h10.2a.824.824,0,0,1,.841.834v.291a.814.814,0,0,1-.841.791h-7.712a1.67,1.67,0,1,0,0,3.334h7.712a.79.79,0,0,1,.841.791v.334a.791.791,0,0,1-.841.791H664.73a1.669,1.669,0,0,0-1.683,1.625,1.633,1.633,0,0,0,1.683,1.582Z" transform="translate(-609.696 -1885.568)"/>
        <path id="Path_348" data-name="Path 348" d="M697.337,1912.212h-4.609a.387.387,0,0,1-.355-.543l.046-.125a1.278,1.278,0,0,0-1.243-1.791,3.175,3.175,0,0,0-2.923,1.791l-.089.125a.871.871,0,0,1-.844.543h-12.9a.91.91,0,0,1-.841-.543l-.09-.125a3.293,3.293,0,0,0-2.969-1.791,1.288,1.288,0,0,0-1.243,1.791l.09.125a.386.386,0,0,1-.354.543h-4.654a1.669,1.669,0,1,0,0,3.332h32.976a1.672,1.672,0,1,0,0-3.332Z" transform="translate(-609.591 -1890.923)"/>
        <path id="Path_349" data-name="Path 349" d="M765.839,1914.967c.976,0,1.464.416,1.464,1.332s-.488,1.334-1.464,1.334H752.763a1.486,1.486,0,0,0-1.151,1.082v1.875a1.242,1.242,0,0,1-1.419,1.375q-1.464,0-1.464-1.375v-1.875a1.422,1.422,0,0,0-1.151-1.082H734.545c-.974,0-1.418-.419-1.418-1.334s.444-1.332,1.418-1.332h13.033a1.423,1.423,0,0,0,1.151-1.293v-.625a1.415,1.415,0,0,0-1.151-1.123h-8.155c-2.084,0-3.193-1.043-3.193-2.75v-9.04c0-1.666,1.109-2.75,3.193-2.75h21.541c2.085,0,3.236,1.084,3.236,2.75v9.04c0,1.707-1.151,2.75-3.236,2.75h-8.2a1.475,1.475,0,0,0-1.151,1.123v.625a1.474,1.474,0,0,0,1.151,1.293Zm-20.478-28.827a2.86,2.86,0,0,1,3.015,2.873v2.832a2.9,2.9,0,0,1-3.015,3.041h-7.712a2.875,2.875,0,0,1-3.014-3.041v-2.832a2.835,2.835,0,0,1,3.014-2.873Zm-.887,5.873a1.193,1.193,0,0,0,1.065-.959v-1.207a1.189,1.189,0,0,0-1.065-1h-5.938a1.141,1.141,0,0,0-1.019,1v1.207a1.141,1.141,0,0,0,1.019.959Zm4.255,9.123a1.371,1.371,0,0,0-1.151-1.084H740.4a1.428,1.428,0,0,0-1.151,1.084v1.083a1.489,1.489,0,0,0,1.151,1.084h7.181a1.426,1.426,0,0,0,1.151-1.084Zm-9.484,7.04a1.475,1.475,0,0,0,1.151,1.125h7.181a1.415,1.415,0,0,0,1.151-1.125v-1.083a1.415,1.415,0,0,0-1.151-1.125H740.4a1.475,1.475,0,0,0-1.151,1.125Zm20.745-4.873a1.43,1.43,0,0,0,1.151-1.084v-1.083a1.375,1.375,0,0,0-1.151-1.084h-7.227a1.428,1.428,0,0,0-1.151,1.084v1.083a1.489,1.489,0,0,0,1.151,1.084Zm-8.378,4.873a1.475,1.475,0,0,0,1.151,1.125h7.227a1.419,1.419,0,0,0,1.151-1.125v-1.083a1.419,1.419,0,0,0-1.151-1.125h-7.227a1.475,1.475,0,0,0-1.151,1.125Zm11.126-22.036a2.872,2.872,0,0,1,3.058,2.873v2.832a2.91,2.91,0,0,1-3.058,3.041h-7.712a2.874,2.874,0,0,1-3.015-3.041v-2.832a2.834,2.834,0,0,1,3.015-2.873Zm-.887,5.873a1.189,1.189,0,0,0,1.062-.959v-1.207a1.186,1.186,0,0,0-1.062-1h-5.94a1.14,1.14,0,0,0-1.019,1v1.207a1.14,1.14,0,0,0,1.019.959Z" transform="translate(-625.627 -1885.556)"/>
        <path id="Path_350" data-name="Path 350" d="M835.855,1889.882a1.745,1.745,0,0,1-1.817,1.709h-12.72a.864.864,0,0,0-.887.832v1.584a.892.892,0,0,0,.887.832h8.688a3.05,3.05,0,0,1,3.147,3v9.414a3.049,3.049,0,0,1-3.147,3h-8.688a.863.863,0,0,0-.887.831v1.834a.9.9,0,0,0,.887.875h12.72a1.777,1.777,0,0,1,1.817,1.748,1.753,1.753,0,0,1-1.817,1.75h-12.72a.864.864,0,0,0-.887.834v1.5a1.747,1.747,0,0,1-1.818,1.707,1.707,1.707,0,0,1-1.772-1.707v-1.5a.905.905,0,0,0-.93-.834H803.188a1.754,1.754,0,0,1-1.817-1.75,1.779,1.779,0,0,1,1.817-1.748H815.91a.942.942,0,0,0,.93-.875v-1.834a.9.9,0,0,0-.93-.831h-8.645a3.06,3.06,0,0,1-3.19-3v-9.414a3.06,3.06,0,0,1,3.19-3h8.645a.936.936,0,0,0,.93-.832v-1.584a.905.905,0,0,0-.93-.832H803.188a1.711,1.711,0,1,1,0-3.416h12.987a.7.7,0,0,0,.665-.625v-.459a1.706,1.706,0,0,1,1.772-1.707,1.746,1.746,0,0,1,1.818,1.707v.459a.652.652,0,0,0,.62.625h12.987A1.745,1.745,0,0,1,835.855,1889.882Zm-19.014,9.083a.906.906,0,0,0-.93-.834h-7.359a.865.865,0,0,0-.887.834v1a.893.893,0,0,0,.887.832h7.359a.936.936,0,0,0,.93-.832Zm-9.176,7.123a.894.894,0,0,0,.887.834h7.359a.938.938,0,0,0,.93-.834v-1a.936.936,0,0,0-.93-.832h-7.359a.892.892,0,0,0-.887.832Zm21.9-7.123a.864.864,0,0,0-.885-.834h-7.359a.864.864,0,0,0-.887.834v1a.892.892,0,0,0,.887.832h7.359a.892.892,0,0,0,.885-.832Zm-9.131,7.123a.893.893,0,0,0,.887.834h7.359a.893.893,0,0,0,.885-.834v-1a.892.892,0,0,0-.885-.832h-7.359a.892.892,0,0,0-.887.832Z" transform="translate(-641.14 -1885.384)"/>
      </g>
      <g id="Group_108" data-name="Group 108" transform="translate(58.582)">
        <path id="Path_351" data-name="Path 351" d="M671.577,1865.02a1.04,1.04,0,0,1-.722.269,1.071,1.071,0,0,1-.731-.269.833.833,0,0,1-.307-.649V1853.26a.938.938,0,0,1,.337-.719,1.148,1.148,0,0,1,.8-.3h.365a1.677,1.677,0,0,1,.923.269,1.457,1.457,0,0,1,.6.7l2.269,5.625q.173.469.491,1.341t.452,1.255a.068.068,0,0,0,.067.053.069.069,0,0,0,.067-.053c.1-.264.253-.688.452-1.272s.355-1.024.471-1.324l2.25-5.625a1.359,1.359,0,0,1,.577-.7,1.678,1.678,0,0,1,.923-.269h.385a1.148,1.148,0,0,1,.8.3.938.938,0,0,1,.337.719v11.078a.865.865,0,0,1-.318.675,1.111,1.111,0,0,1-.76.277,1.076,1.076,0,0,1-.75-.277.88.88,0,0,1-.308-.675v-5.505q0-1.071.288-4c0-.022-.012-.034-.038-.034s-.039.012-.039.034l-1.154,2.979-2.289,5.625a.834.834,0,0,1-.365.423,1.1,1.1,0,0,1-.587.164,1.051,1.051,0,0,1-.577-.164.962.962,0,0,1-.375-.423l-2.289-5.625-1.134-2.979c0-.022-.017-.034-.049-.034s-.041.012-.029.034q.27,3.271.269,4v5.539A.838.838,0,0,1,671.577,1865.02Z" transform="translate(-669.817 -1851.995)"/>
        <path id="Path_352" data-name="Path 352" d="M704.634,1865.289a1.589,1.589,0,0,1-.9-.269,1.38,1.38,0,0,1-.557-.717l-.847-2.616a.2.2,0,0,0-.192-.12h-4.75a.178.178,0,0,0-.192.12l-.865,2.616a1.386,1.386,0,0,1-.558.717,1.589,1.589,0,0,1-.9.269h-.058a.816.816,0,0,1-.673-.312.636.636,0,0,1-.154-.413.554.554,0,0,1,.058-.243l4.077-11.114a1.49,1.49,0,0,1,.577-.7,1.624,1.624,0,0,1,.923-.269h.365a1.636,1.636,0,0,1,.913.269,1.461,1.461,0,0,1,.586.7l4.077,11.114a.554.554,0,0,1,.058.243.6.6,0,0,1-.173.413.766.766,0,0,1-.654.312Zm-6.827-5.452a.064.064,0,0,0,.019.077.1.1,0,0,0,.077.043h3.673a.1.1,0,0,0,.087-.043.137.137,0,0,0,.029-.077l-.539-1.645q-.364-1.056-1.365-4.293a.063.063,0,0,0-.058-.034c-.026,0-.039.012-.039.034q-.537,1.922-1.327,4.293Z" transform="translate(-675.31 -1851.995)"/>
        <path id="Path_353" data-name="Path 353" d="M719.673,1865.289a1.147,1.147,0,0,1-.807-.3.943.943,0,0,1-.328-.719v-10.176c0-.082-.05-.123-.154-.123H715.23a.962.962,0,0,1-.664-.25.817.817,0,0,1,0-1.229.956.956,0,0,1,.664-.252h8.905a.98.98,0,0,1,.682.252.816.816,0,0,1,0,1.229.986.986,0,0,1-.682.25h-3.173c-.089,0-.135.041-.135.123v10.176a.939.939,0,0,1-.336.719,1.154,1.154,0,0,1-.8.3Z" transform="translate(-679.926 -1851.995)"/>
        <path id="Path_354" data-name="Path 354" d="M739.716,1865.444a7.62,7.62,0,0,1-4.366-1.3.773.773,0,0,1-.384-.692.836.836,0,0,1,.269-.625.961.961,0,0,1,.692-.31H736a1.281,1.281,0,0,1,.692.19,5.516,5.516,0,0,0,3.058.952,3.522,3.522,0,0,0,2.029-.5,1.563,1.563,0,0,0,.722-1.349,1.421,1.421,0,0,0-.135-.625,2.146,2.146,0,0,0-.288-.457,1.874,1.874,0,0,0-.529-.389,5.925,5.925,0,0,0-.606-.3q-.232-.1-.77-.3l-2.02-.779q-2.942-1.125-2.942-3.428a3.123,3.123,0,0,1,1.346-2.57,5.467,5.467,0,0,1,3.424-1.031,6.539,6.539,0,0,1,3.673,1.092.718.718,0,0,1,.346.64.8.8,0,0,1-.23.572.962.962,0,0,1-.635.294.412.412,0,0,1-.115.019,1.084,1.084,0,0,1-.6-.173,4.774,4.774,0,0,0-2.442-.659,3.08,3.08,0,0,0-1.779.459,1.431,1.431,0,0,0-.664,1.239,1.244,1.244,0,0,0,.144.586,1.781,1.781,0,0,0,.327.459,2.084,2.084,0,0,0,.548.363c.243.123.445.217.606.286s.4.156.722.26l1.98.762a5.881,5.881,0,0,1,2.193,1.375,3.033,3.033,0,0,1,.769,2.156,3.3,3.3,0,0,1-1.394,2.71A5.916,5.916,0,0,1,739.716,1865.444Z" transform="translate(-684.627 -1851.923)"/>
        <path id="Path_355" data-name="Path 355" d="M761.648,1865.516q-5.406,0-5.4-5.835v-6.421a.938.938,0,0,1,.337-.719,1.148,1.148,0,0,1,.8-.3h.019a1.148,1.148,0,0,1,.8.3.938.938,0,0,1,.337.719v6.578q0,3.894,3.115,3.894,3.173,0,3.173-3.894v-6.595a.931.931,0,0,1,.318-.709,1.175,1.175,0,0,1,1.558,0,.931.931,0,0,1,.318.709v6.438Q767.014,1865.516,761.648,1865.516Z" transform="translate(-689.464 -1851.995)"/>
      </g>
    </g>
    <g id="Group_110" data-name="Group 110" transform="translate(495 1662.505)">
      <path id="Path_356" data-name="Path 356" d="M801.236,1724.4H780.509a5.043,5.043,0,0,1,0-10.086h20.726a5.043,5.043,0,0,1,0,10.086Z" transform="translate(-558.757 -1674.283)"/>
      <path id="Path_357" data-name="Path 357" d="M495,1798.859a40.243,40.243,0,1,0,80.063-5.492,80.632,80.632,0,0,0,35.679-42.506,75.457,75.457,0,0,0,115.891.007,80.646,80.646,0,0,0,35.981,42.675,40.065,40.065,0,1,0,2.758-10.29,69.958,69.958,0,0,1-33.167-58.643,5.169,5.169,0,1,0-10.216-1.585,57.8,57.8,0,0,1-106.53.153v-50.4h25.568a5.135,5.135,0,0,0,0-10.271h-30.7a5.135,5.135,0,0,0-5.135,5.135v55.87a5.1,5.1,0,0,0-.02,1.031,69.946,69.946,0,0,1-32.912,58.546A40.237,40.237,0,0,0,495,1798.859Zm275-1.6a79.721,79.721,0,0,0,32.127,6.736,5.135,5.135,0,0,0,0-10.271,69.516,69.516,0,0,1-29.932-6.742,32.473,32.473,0,1,1-2.276,11.878C769.924,1798.318,769.979,1797.792,770,1797.258Zm-157.848-50.743q.846-2.855,1.485-5.792a68.1,68.1,0,0,0,110.092.009q.636,2.943,1.487,5.8a71.676,71.676,0,0,1-113.065-.016ZM502.7,1798.859a32.522,32.522,0,0,1,62.754-12.006,69.522,69.522,0,0,1-30.216,6.87,5.135,5.135,0,0,0,0,10.271,79.726,79.726,0,0,0,32.45-6.882c.031.582.089,1.157.089,1.747a32.539,32.539,0,0,1-65.078,0Z" transform="translate(-495 -1662.505)"/>
    </g>
  </g>
</svg>
