<svg xmlns="http://www.w3.org/2000/svg" width="415" height="145.175" viewBox="0 0 415 145.175">
  <g id="project05_04" transform="translate(-495 -1130.915)">
    <g id="Group_71" data-name="Group 71" transform="translate(495 1194.77)">
      <path id="Path_235" data-name="Path 235" d="M518.211,1217.33q-7.667.24-15.343.562a74.439,74.439,0,0,1-1.95,13.109c-1.073,4.57-3.082,11.945-5.918,22.134a11.432,11.432,0,0,0,7.238-5.48l2.949,19.558q7.156-1.107,14.319-2.139L514.38,1228.6A43.843,43.843,0,0,0,518.211,1217.33Z" transform="translate(-495 -1201.491)" fill="#3e3a39"/>
      <path id="Path_236" data-name="Path 236" d="M522.418,1261.529q.472,3.377.942,6.755,10.769-1.54,21.554-2.91,5.044-.639,4.232-7.4Q535.77,1259.621,522.418,1261.529Z" transform="translate(-497.133 -1204.652)" fill="#3e3a39"/>
      <path id="Path_237" data-name="Path 237" d="M565.173,1247.125q-.741,2.487-1.737,2.6-1.186.234-2.517-3.1a131.672,131.672,0,0,1-3.91-13.527q2.976-.346,5.953-.679,5.146-.574,4.433-7.35-6.034.653-12.065,1.357-1.049-3.8-1.743-7.154c5.341-.823,8.8-1.594,10.369-2.355q-2.053-3.255-4.119-6.5c-7.394,1.943-13.5,3.325-18.354,4.095s-10.308,1.562-16.364,2.391q-4.991.784-4.181,6.68,1.667,12.162,3.333,24.326-1.688.336-3.47.689.618,3.7,1.235,7.4c8.532-1.807,14.626-3.374,18.263-4.8s4.909-4.144,3.8-8.2q-3.537,1.035-6.09,1.763-.584-4.593-1.168-9.183,2.923-.38,5.845-.75,3.334,12.937,6.856,19.178c2.351,4.163,5.959,5.978,10.853,5.475q2.23-.259,4.459-.509,6.1-1.075,5.738-7.887a22.763,22.763,0,0,0-3.957-12.018A57.106,57.106,0,0,1,565.173,1247.125Zm-29.19-18.308q-.461-3.626-.922-7.25,2.086-.271,4.171-.538.815,3.237,1.914,7.123Q538.564,1228.48,535.983,1228.817Z" transform="translate(-497.007 -1200.953)" fill="#3e3a39"/>
      <path id="Path_238" data-name="Path 238" d="M819.988,1214.89q9.183.711,18.357,1.539c3.938.357,6.109-1.619,6.511-5.956q-10.749-1.014-21.507-1.868a19.222,19.222,0,0,0,.835-2.768q-7.569-.948-15.151-1.814a55.911,55.911,0,0,1-1.547,7.708,10.751,10.751,0,0,0,.207-1.549q-5.117-.352-10.235-.666.179-2.967.356-5.935-6.835-.42-13.672-.777l-.3,5.937q-5.324-.278-10.651-.515-.149,3.407-.3,6.815,2.906.13,5.811.272a236.931,236.931,0,0,1-8.571,35.6c7.081.573,12.088-2.737,15.088-9.993a126.834,126.834,0,0,0,4.724-14.476l1.923.111q-.508,8.9-1.014,17.806a50.647,50.647,0,0,1-5.577-.706c.469,5.1,4.769,7.993,12.9,8.769,3.642.233,5.594-1.584,5.852-5.474q.65-9.822,1.3-19.643a12.05,12.05,0,0,0,3.662,1.425q-.831,12.105-1.663,24.21,6.409.451,12.816.961l1.992-25.65.2.016q1.735,18.225,5.047,26.328,7.9-1.775,15.838-3.461a52.745,52.745,0,0,1-8.6-11.952,9.75,9.75,0,0,0,1.857-.421,18.831,18.831,0,0,0,7.342-3.82q-3.057-3.718-6.147-7.422a63.427,63.427,0,0,1-5.543,6.455l-.109.088q-1.433-3.449-2.848-7.286,7.352-1.433,13.076-2.457-4.161-3.717-8.364-7.408a89.43,89.43,0,0,1-12.336,4.353c-3.69,1.015-9.1,2.325-16.191,3.992a5.965,5.965,0,0,0-.379-1.979c5.346-.746,9.524-2.617,12.549-5.647A24.612,24.612,0,0,0,819.988,1214.89Zm-13.164-.958q-1.306,4.211-2.757,7.725a5.9,5.9,0,0,0-3.786-1.418q-4.269-.274-8.538-.521.34-2.419.515-3.68,4.637.27,9.273.57,3.979.162,5.422-3.058A.836.836,0,0,1,806.824,1213.932Z" transform="translate(-516.399 -1200.361)" fill="#3e3a39"/>
      <path id="Path_239" data-name="Path 239" d="M895.86,1231.131q-.423,3.384-.845,6.768,10.675,1.366,21.334,2.892l-2.44,17.466c-5.4-.97-8.822-1.661-10.246-2.117a9.9,9.9,0,0,0,4.259,7.421c2.459,1.69,6.6,2.844,12.417,3.513,5,.745,7.824-1.014,8.474-5.318q1.414-9.394,2.827-18.788,2.11.325,4.218.657,4.288.183,5.255-5.972Q918.525,1234.031,895.86,1231.131Z" transform="translate(-526.112 -1202.564)" fill="#3e3a39"/>
      <path id="Path_240" data-name="Path 240" d="M941.253,1221.835q-20.368-3.23-40.8-5.879l-.856,6.766q17.8,2.308,35.544,5.058Q940.207,1228.566,941.253,1221.835Z" transform="translate(-526.469 -1201.384)" fill="#3e3a39"/>
      <path id="Path_241" data-name="Path 241" d="M887.546,1221.443a32.081,32.081,0,0,0,6.41-6.709q-7.029-1.926-14.082-3.782a108.176,108.176,0,0,1-7.191,8.785,117.539,117.539,0,0,1-11.13,10.057,23.869,23.869,0,0,0,8.132-.489,24.294,24.294,0,0,0,7.149-2.521q-2.893,3.785-6.254,7.426a117.384,117.384,0,0,1-10.468,9.542,22.072,22.072,0,0,0,7.535-.359l-1.668,15.4q7.433.825,14.859,1.73,1.368-11.515,2.737-23.029a34.107,34.107,0,0,0,8.654-8.84q-5.864-1.631-11.748-3.212A24.5,24.5,0,0,0,887.546,1221.443Z" transform="translate(-523.398 -1200.995)" fill="#3e3a39"/>
      <path id="Path_242" data-name="Path 242" d="M632.794,1237.14q2.715,1.793,5.418,3.6a15.98,15.98,0,0,0,2.33-7.543,25.143,25.143,0,0,0-.542-7.1q-3.9,5.966-7.239,8.408a86.35,86.35,0,0,0-.167-9.069q13.766-.8,27.542-1.341,3.5-.137,3.26-6.951-17.83.653-35.643,1.749-4.222.26-3.994,5.72.692,10.992.507,18.18a70.519,70.519,0,0,1-.959,11.148,8.182,8.182,0,0,0,7.375-5.4A34.074,34.074,0,0,0,632.794,1237.14Z" transform="translate(-504.979 -1201.476)" fill="#3e3a39"/>
      <path id="Path_243" data-name="Path 243" d="M627.165,1216.116q16.307-1.008,32.629-1.646,3.522-.137,3.328-5.587-.1-2.776-.2-5.552-4.5.165-8.99.357l.183,4.381q-3.243.14-6.486.292-.138-3.017-.279-6.035-4.439.209-8.878.447.156,3.017.315,6.033-3.3.177-6.6.369-.123-2.19-.248-4.379-4.432.256-8.864.541.173,2.772.347,5.544Q623.765,1216.332,627.165,1216.116Z" transform="translate(-504.961 -1200.324)" fill="#3e3a39"/>
      <path id="Path_244" data-name="Path 244" d="M660.487,1236.112a17.725,17.725,0,0,0,3.263-7.634q-3.826-1.029-7.665-2.037a46.94,46.94,0,0,1-2.641,11.821,7.977,7.977,0,0,1-2.638-1.928,53.719,53.719,0,0,0,3.279-10.2q-4.559-.044-9.121-.06c-.491,4.318-2.17,9.346-4.993,15.093s-5.978,10-9.489,12.751a18.345,18.345,0,0,0,10.873-2.87q4.33-2.963,7.671-10.536,5.536,9.492,13.175,11.818,2.28-4.965,4.591-9.922c-2.559-.558-6.642-1.712-12.275-3.416A7.458,7.458,0,0,0,660.487,1236.112Z" transform="translate(-505.538 -1202.171)" fill="#3e3a39"/>
      <path id="Path_245" data-name="Path 245" d="M611.506,1219.215q-5.086.36-10.171.755.412-2.671.594-5.715,5-.386,10.005-.737c3.81-.266,5.571-2.657,5.281-7.2q-16.726,1.105-33.431,2.6l.592,6.8q1.938-.173,3.877-.341-.043,1.962-.046,4.308-.409,7.276-.92,13.092a49.818,49.818,0,0,1-1.768,9.942,12.492,12.492,0,0,0,6.617-2.929q.339,4.079.68,8.158c.326,3.885,2.738,5.63,7.242,5.266s9.014-.7,13.523-1.024c3.976-.281,5.839-2.354,5.588-6.244l-1.407-21.686C617.526,1220.627,615.44,1218.937,611.506,1219.215Zm-6.989,26.8q-.726-9.67-1.452-19.339,1.418-.109,2.835-.215l1.414,19.341Q605.916,1245.909,604.517,1246.017Z" transform="translate(-501.905 -1200.635)" fill="#3e3a39"/>
      <path id="Path_246" data-name="Path 246" d="M712.245,1202.9q-4.212-.019-8.424-.015,0-1.364,0-2.729-7.359.01-14.718.092.015,1.364.03,2.729c-3.081.035-9.245.134-9.245.134l.126,7.309,10.517-.09a13.386,13.386,0,0,0-10.749,13.339h0a13.378,13.378,0,0,0,10.833,13.353c-5.031.036-9.231.07-10.348.09q.06,3.46.12,6.918,4.6-.081,9.194-.134.03,2.776.062,5.555,7.117-.08,14.235-.09l-.006-5.554q2,0,4,0c3.2.005,4.806-2.289,4.831-6.9-.979-.006-4.55.01-8.991.035a13.341,13.341,0,0,0,10.226-11.68,21.45,21.45,0,0,1,.942,4.49q5.605-.255,11.216-.464-1.949-7.452-8-10.4c4.575-2.063,7.494-4.851,8.736-8.4q-5.72-.329-11.446-.615-1.19,4.075-2.991,5.658a7.383,7.383,0,0,0-.568.574,12.8,12.8,0,0,0-9.163-5.876c2.605-.021,4.453-.035,4.749-.035a4.539,4.539,0,0,0,4.82-3.494q0,.829-.007,1.657,17.964.082,35.923.611,4.193.125,4.414-6.787-20.148-.652-40.306-.745Q712.249,1202.168,712.245,1202.9Zm-4.318,18.319h-7.448l4.836-4.836A9.474,9.474,0,0,1,707.927,1221.218Zm-19.434-4.836,4.836,4.836h-7.448A9.474,9.474,0,0,1,688.493,1216.382Zm4.836,7.8-5.74,5.741a9.593,9.593,0,0,1-1.908-5.741Zm2.094,2.094v7.223h-.883a8.469,8.469,0,0,1-4.82-1.52Zm2.961,0,5.7,5.7a8.47,8.47,0,0,1-4.82,1.52h-.883Zm2.094-2.094h7.649a9.6,9.6,0,0,1-1.909,5.741Zm-2.094-5.055v-5.284h.883a8.388,8.388,0,0,1,3.589.813Zm-2.961,0-4.472-4.472a8.388,8.388,0,0,1,3.589-.812h.883Z" transform="translate(-509.372 -1200.155)" fill="#3e3a39"/>
      <path id="Path_247" data-name="Path 247" d="M756.923,1211.678q-5.668-.378-11.339-.712-1.122,4.067-2.989,5.633a4.917,4.917,0,0,0-2,3.32q-.14,1.751,1.9,3.648t2.414,7.27q5.658-.2,11.321-.362-1.885-7.469-7.809-10.467C752.743,1217.978,755.583,1215.211,756.923,1211.678Z" transform="translate(-514.101 -1200.996)" fill="#3e3a39"/>
      <path id="Path_248" data-name="Path 248" d="M741.809,1240.855q3.361.079,6.722.175,4.309.123,4.525-6.788-18.293-.576-36.594-.681l-.039,6.919q5.569.032,11.138.108l-.062,4.678q-6.3-.086-12.6-.115-.015,3.46-.031,6.92,17.271.08,34.537.586,4.375.129,4.6-6.782-6.149-.2-12.3-.344Z" transform="translate(-512.101 -1202.753)" fill="#3e3a39"/>
      <path id="Path_249" data-name="Path 249" d="M743.4,1211.307q-5.72-.329-11.446-.615-1.19,4.075-2.992,5.658a4.758,4.758,0,0,0-1.874,3.338,4.987,4.987,0,0,0,1.832,3.631q1.9,1.878,2.528,7.25,5.605-.255,11.215-.464-1.949-7.452-8-10.4C739.239,1217.642,742.158,1214.854,743.4,1211.307Z" transform="translate(-513.051 -1200.975)" fill="#3e3a39"/>
    </g>
    <g id="Group_82" data-name="Group 82" transform="translate(618.749 1263.336)">
      <g id="Group_72" data-name="Group 72" transform="translate(0 0.413)">
        <path id="Path_250" data-name="Path 250" d="M629.34,1275.5a41.083,41.083,0,0,1,5.613-.53,10.054,10.054,0,0,1,5.02.728,3.656,3.656,0,0,1,1.629,3.108,3.207,3.207,0,0,1-.913,2.43q-.963,1-5.476.975-2.443,0-2.368,2.615v.42h9q0,1.728-1.43,1.726h-9.744a1.3,1.3,0,0,1-1.481-1.578v-.593a4.563,4.563,0,0,1,1.025-3.367q1-.925,4.9-.95,2.787.025,2.763-1.726-.025-1.727-2.072-1.9a30.285,30.285,0,0,0-6.266.445Z" transform="translate(-629.186 -1274.952)" fill="#3e3a39"/>
      </g>
      <g id="Group_73" data-name="Group 73" transform="translate(15.765 0.419)">
        <path id="Path_251" data-name="Path 251" d="M657.16,1275.649a13.078,13.078,0,0,0-8.388,0q-2.491,1.184-2.492,5.65,0,3.824,1.751,5.156,1.061.838,4.947.838t5.3-1.085q1.418-1.085,1.418-4.909Q659.7,1276.833,657.16,1275.649Zm-1.16,5.872-.271,1.9a2.674,2.674,0,0,1-2.788,2.172q-3.009,0-3.009-4.367V1281l.271-1.9a2.606,2.606,0,0,1,2.738-2.195q3.06,0,3.059,4.317Z" transform="translate(-646.28 -1274.958)" fill="#3e3a39"/>
      </g>
      <g id="Group_74" data-name="Group 74" transform="translate(32.332 0.413)">
        <path id="Path_252" data-name="Path 252" d="M664.4,1275.5a41.084,41.084,0,0,1,5.613-.53,10.051,10.051,0,0,1,5.02.728,3.656,3.656,0,0,1,1.629,3.108,3.2,3.2,0,0,1-.913,2.43q-.963,1-5.476.975-2.443,0-2.368,2.615v.42h9q0,1.728-1.43,1.726h-9.744a1.3,1.3,0,0,1-1.48-1.578v-.593a4.56,4.56,0,0,1,1.024-3.367q1-.925,4.9-.95,2.787.025,2.762-1.726-.023-1.727-2.071-1.9a30.29,30.29,0,0,0-6.266.445Z" transform="translate(-664.245 -1274.952)" fill="#3e3a39"/>
      </g>
      <g id="Group_75" data-name="Group 75" transform="translate(48.096 0.419)">
        <path id="Path_253" data-name="Path 253" d="M692.218,1275.649a13.078,13.078,0,0,0-8.388,0q-2.491,1.184-2.492,5.65,0,3.824,1.751,5.156,1.061.838,4.947.838t5.3-1.085q1.418-1.085,1.418-4.909Q694.758,1276.833,692.218,1275.649Zm-1.159,5.872-.272,1.9a2.673,2.673,0,0,1-2.787,2.172q-3.01,0-3.01-4.367V1281l.271-1.9a2.606,2.606,0,0,1,2.739-2.195q3.058,0,3.059,4.317Z" transform="translate(-681.338 -1274.958)" fill="#3e3a39"/>
      </g>
      <g id="Group_76" data-name="Group 76" transform="translate(72.361)">
        <path id="Path_254" data-name="Path 254" d="M709.968,1286.937h-2.319V1274.5h2.319Z" transform="translate(-707.649 -1274.504)" fill="#3e3a39"/>
      </g>
      <g id="Group_77" data-name="Group 77" transform="translate(85.648 0.592)">
        <path id="Path_255" data-name="Path 255" d="M725.461,1286.986h-3.4v-10.163a1.482,1.482,0,0,1,1.677-1.678h2.024a1.934,1.934,0,0,1,2.1,1.307l2,6.217,1.949-6.217a1.863,1.863,0,0,1,2-1.307h2.121a1.548,1.548,0,0,1,1.776,1.726v10.114h-3.4v-7.5l-1.95,5.995a1.96,1.96,0,0,1-2.047,1.5h-.938a1.937,1.937,0,0,1-1.973-1.5l-1.925-5.822Z" transform="translate(-722.057 -1275.146)" fill="#3e3a39"/>
      </g>
      <g id="Group_78" data-name="Group 78" transform="translate(104.317 0.592)">
        <path id="Path_256" data-name="Path 256" d="M746,1286.986h-3.7l3.873-10.336a2.074,2.074,0,0,1,2.071-1.5H751.8a2.074,2.074,0,0,1,2.071,1.5l3.873,10.336h-3.7l-1.555-3.971h-4.933Zm2.195-5.7h3.651l-1.826-5.032Z" transform="translate(-742.301 -1275.146)" fill="#3e3a39"/>
      </g>
      <g id="Group_79" data-name="Group 79" transform="translate(119.188 0.592)">
        <path id="Path_257" data-name="Path 257" d="M772.388,1275.146q0,1.726-1.43,1.726h-3.8v10.114h-3.7v-10.114h-5.033v-1.726Z" transform="translate(-758.426 -1275.146)" fill="#3e3a39"/>
      </g>
      <g id="Group_80" data-name="Group 80" transform="translate(135.218 0.517)">
        <path id="Path_258" data-name="Path 258" d="M787.674,1275.756a3.775,3.775,0,0,1,1.949,3.528h-3.7q-.05-2.27-3.158-2.271-2.985,0-3.009,1.727.023,1.332,3.009,1.332,4.168-.049,5.6.716a2.587,2.587,0,0,1,1.554,2.492,3.408,3.408,0,0,1-1.949,3.33,13.445,13.445,0,0,1-5.279.691q-3.9,0-4.983-.691a4,4,0,0,1-1.9-3.8h3.65q0,2.541,3.011,2.541,3.674,0,3.749-2.047-.075-1.234-3.749-1.258a11.713,11.713,0,0,1-4.565-.617,2.648,2.648,0,0,1-1.8-2.713,3.135,3.135,0,0,1,1.9-2.961,17.27,17.27,0,0,1,9.671,0Z" transform="translate(-775.808 -1275.065)" fill="#3e3a39"/>
      </g>
      <g id="Group_81" data-name="Group 81" transform="translate(152.432 0.592)">
        <path id="Path_259" data-name="Path 259" d="M801.258,1287.307a10.738,10.738,0,0,1-5.106-.937q-1.6-.963-1.678-4.367v-6.858h3.7v6.883q0,3.552,3.084,3.552t3.084-3.552v-6.883h3.7V1282q-.073,3.4-1.677,4.367A10.748,10.748,0,0,1,801.258,1287.307Z" transform="translate(-794.474 -1275.146)" fill="#3e3a39"/>
      </g>
    </g>
    <path id="Path_260" data-name="Path 260" d="M700.194,1155.706q2.693-.093,5.388-.159-.03-1.421-.063-2.84-2.707.066-5.413.16Z" transform="translate(-15.953 -1.695)" fill="#36a0da"/>
    <path id="Path_261" data-name="Path 261" d="M644.461,1168.515q.115.967.231,1.932,1.086-.144,2.173-.283l-.223-1.932Q645.55,1168.372,644.461,1168.515Z" transform="translate(-11.625 -2.902)" fill="#36a0da"/>
    <path id="Path_262" data-name="Path 262" d="M653.92,1167.346l.2,1.935q1.14-.131,2.28-.258-.1-.968-.195-1.936Q655.063,1167.214,653.92,1167.346Z" transform="translate(-12.361 -2.813)" fill="#36a0da"/>
    <path id="Path_263" data-name="Path 263" d="M700.076,1146.442q-6.994.223-13.984.624a5.97,5.97,0,0,1-2.606,2.369q6.908-.431,13.823-.687A5.173,5.173,0,0,0,700.076,1146.442Z" transform="translate(-14.66 -1.208)" fill="#36a0da"/>
    <path id="Path_264" data-name="Path 264" d="M634.9,1169.855l.26,1.927q1.136-.169,2.272-.334-.126-.964-.253-1.928Z" transform="translate(-10.881 -3.003)" fill="#36a0da"/>
    <path id="Path_265" data-name="Path 265" d="M631.593,1160.385q2.287-.35,4.576-.679c-.043-.33-.086-.66-.129-.99q-2.292.329-4.583.679C631.5,1159.726,631.547,1160.055,631.593,1160.385Z" transform="translate(-10.613 -2.162)" fill="#36a0da"/>
    <path id="Path_266" data-name="Path 266" d="M691.018,1153.241q-2.7.133-5.41.293.076,1.418.152,2.837,2.692-.159,5.384-.292Q691.082,1154.661,691.018,1153.241Z" transform="translate(-14.825 -1.736)" fill="#36a0da"/>
    <path id="Path_267" data-name="Path 267" d="M633.174,1157.418l-.126-.938q-.979.145-1.957.3l.129.937Q632.2,1157.563,633.174,1157.418Z" transform="translate(-10.585 -1.988)" fill="#36a0da"/>
    <path id="Path_268" data-name="Path 268" d="M631.839,1162.2l.122.884q.968-.148,1.938-.291l-.119-.886Q632.808,1162.047,631.839,1162.2Z" transform="translate(-10.643 -2.41)" fill="#36a0da"/>
    <path id="Path_269" data-name="Path 269" d="M795.95,1155.826a4.638,4.638,0,0,1-2.572-.513,2.386,2.386,0,0,1-2.753,1.622l-.211-.025q-.1.941-.2,1.882,1.421.17,2.841.347a2.312,2.312,0,0,1-.187.718,26.784,26.784,0,0,0,6.736-2.671q-.656-.779-1.488-1.9A5.738,5.738,0,0,1,795.95,1155.826Z" transform="translate(-22.961 -1.896)" fill="#36a0da"/>
    <path id="Path_270" data-name="Path 270" d="M783.344,1152.153q1.383.148,2.765.3l.365-3.611q-1.39-.155-2.781-.3Q783.519,1150.347,783.344,1152.153Z" transform="translate(-22.427 -1.371)" fill="#36a0da"/>
    <path id="Path_271" data-name="Path 271" d="M806.648,1152.664q-1.968-.289-3.939-.565a3.571,3.571,0,0,1-1.108,1.066,16.654,16.654,0,0,0,2.933,1.581A5.1,5.1,0,0,0,806.648,1152.664Z" transform="translate(-23.847 -1.648)" fill="#36a0da"/>
    <path id="Path_272" data-name="Path 272" d="M801.019,1170.4q1.811.255,3.62.522.255-1.9.508-3.8-1.821-.268-3.643-.526Q801.261,1168.5,801.019,1170.4Z" transform="translate(-23.801 -2.775)" fill="#36a0da"/>
    <path id="Path_273" data-name="Path 273" d="M830.432,1143.476a2.007,2.007,0,0,0-1.177-3.331,778.084,778.084,0,0,0-239.081.016,2.008,2.008,0,0,0-1.227,3.273c4.777,5.715,9.546,11.575,14.175,17.418a.6.6,0,0,1,.083.592c-2.82,6.9-5.579,13.9-8.2,20.825a2,2,0,0,0,1.868,2.711,2.062,2.062,0,0,0,.317-.026,732.8,732.8,0,0,1,225.054-.016,2,2,0,0,0,2.157-2.758c-2.953-6.974-6.041-14-9.18-20.874a.594.594,0,0,1,.087-.631C820.256,1154.887,825.345,1149.1,830.432,1143.476Zm-174.449,9.6q-4.977.5-9.949,1.087a5.932,5.932,0,0,1-2.6,2.593q7.109-.881,14.233-1.574c.193,2.2-.621,3.387-2.437,3.573q-6.5.665-13,1.49-.151-1.306-.3-2.612a8.288,8.288,0,0,1-2.616.445c.453-.979.8-3.728,1.072-8.25q3.267-.26,6.536-.48-.046.588-.182,1.344,5.852-.683,11.71-1.239C658.64,1151.694,657.817,1152.9,655.983,1153.08Zm-36.038-4.71q3.1-.513,6.208-.99l-.174-1.25q4.024-.619,8.054-1.178c.053.418.105.834.157,1.252q4.987-.692,9.981-1.292-.068-.628-.136-1.255,4.037-.486,8.078-.911l.12,1.257q2.9-.307,5.808-.582c.179,2.1-.767,3.24-2.834,3.447q-1.338.135-2.675.275.053.551.105,1.1-4,.422-8,.9-.06-.548-.12-1.1-4.969.6-9.93,1.286.069.548.137,1.1-3.994.553-7.981,1.167-.076-.546-.151-1.093-3.09.475-6.175.985Q620.178,1149.929,619.945,1148.37Zm1.2,7.31c-.239-1.593.487-2.532,2.179-2.8q7.727-1.239,15.475-2.256c.2,1.706-.475,2.659-2.027,2.869l-1.589.218.118.939.859-.118c1.72-.235,2.656.3,2.809,1.584l.069.573c.124,1.045-.667,1.678-2.374,1.911l-.853.118.111.886q1.993-.275,3.987-.538c.206,1.742-.423,2.706-1.884,2.9q-6.558.888-13.1,1.937c-1.659.266-2.608-.392-2.847-1.987Q621.613,1158.8,621.147,1155.68Zm36.667,13.018q-17.431,1.731-34.769,4.616-.23-1.533-.461-3.066.927-.154,1.856-.305-.176-1.2-.352-2.391c-.261-1.767.578-2.812,2.522-3.118q14.153-2.227,28.379-3.694c2.022-.207,3.112.586,3.268,2.367l.213,2.41q1.036-.1,2.074-.2C660.716,1167.381,659.805,1168.5,657.813,1168.7Zm45.362-2.6q-12.884.169-25.757.967c-4.2.262-6.451-1.861-6.764-6.447l-.67-10.023a8.1,8.1,0,0,1-2.82.162,23.358,23.358,0,0,0,3.3-4.6,25.339,25.339,0,0,0,2.173-5.346q4.44-.091,8.88-.11-.3.595-.591,1.242,9.649-.51,19.3-.684c1.692.041,2.508.663,2.451,1.854.1,2.035-1.461,3.418-4.65,4.188q1.708-.037,3.418-.064c2.209-.035,3.323,1.028,3.341,3.166l.035,4c.017,2-1.06,3.007-3.23,3.041q-11.6.185-23.2.871.048.892.1,1.786c.113,2.1,1.053,3.1,2.822,3q12.512-.678,25.04-.767C706.236,1164.824,705.175,1166.074,703.176,1166.1Zm17.852-26.719q4.053.4,8.1.849a17,17,0,0,1-4.464,7.944c-2.3,2.412-5.59,3.73-9.9,4.009C718.468,1147.692,720.6,1143.444,721.028,1139.381Zm20.727,27.669a17.852,17.852,0,0,0-.13-3.381c-10.53.575-18.854,1.485-25,2.424q-.181-2.37-.365-4.739c.974-.058,2.331-.111,4.073-.148a34.161,34.161,0,0,0,6.631-13.149q4.095.6,8.175,1.261a20.71,20.71,0,0,1-4.027,6.859,23.089,23.089,0,0,1-6.285,4.87,144.476,144.476,0,0,1,16.515.182,22.165,22.165,0,0,0-1.45-6.615,11.8,11.8,0,0,1,7.178,4.661,14.226,14.226,0,0,1,2.379,7.658Q745.6,1166.963,741.755,1167.049Zm4.05-12.237c-2.113-2.458-3.181-5.785-3.172-10q-5.15-.306-10.3-.514l.133-3.627q6.425.26,12.847.669,2.155.191,2.55,1.7a28.859,28.859,0,0,0,1.087,3.266,22.106,22.106,0,0,0,3.462,5.083Q749.088,1153.079,745.805,1154.813Zm51.629,8.89q-.683-.433-1.576-.9a3.927,3.927,0,0,1,.135,1.991q-.372,2.548-.745,5.1c-.3,2.011-1.434,2.853-3.417,2.543q-6.005-.937-12.023-1.735c-1.988-.262-2.868-1.4-2.638-3.416q.293-2.559.587-5.119a2.567,2.567,0,0,1,.6-1.566,2.821,2.821,0,0,1-2.168-.537,2.56,2.56,0,0,1-1.965.5l-.1-.013-.47,4.339q1.27-.06,3.083-.258a4.273,4.273,0,0,1-4.158,3.916,86.594,86.594,0,0,1-12.657-.1q.03-2.188.059-4.379l1.248.119.811-9.327q2.428.234,4.856.489-.444,4.659-.887,9.318a6.139,6.139,0,0,0,.94.047q.506-5.235,1.013-10.468-2.01-.214-4.019-.415c-2.044-.2-2.981-1.308-2.81-3.335q.2-2.359.4-4.716c.171-2.025,1.3-2.944,3.382-2.737q5.384.535,10.76,1.177c2.14.361,3.064,1.5,2.775,3.41l-.378,3.344a16.083,16.083,0,0,0,3.26-6.634q4.074.634,8.14,1.328-.425.736-.841,1.42,3.8.545,7.6,1.144c1.713.27,2.362,1.3,1.956,3.08a6.8,6.8,0,0,1-4.335,4.525,29.16,29.16,0,0,0,5.745,2.042Q798.507,1160.79,797.434,1163.7Z" transform="translate(-7.27 0)" fill="#36a0da"/>
    <path id="Path_274" data-name="Path 274" d="M800.806,1162.289q4.3.6,8.587,1.26a20.94,20.94,0,0,1-4.45-2.688A23.6,23.6,0,0,1,800.806,1162.289Z" transform="translate(-23.785 -2.329)" fill="#36a0da"/>
    <g id="Group_83" data-name="Group 83" transform="translate(574.399 1143.799)">
      <path id="Path_275" data-name="Path 275" d="M588.714,1185.239a1.652,1.652,0,0,1-1.547-2.218l7.116-19.413-12.826-16.044a1.649,1.649,0,1,1,2.575-2.059l13.406,16.769a1.65,1.65,0,0,1,.261,1.6l-7.436,20.284A1.651,1.651,0,0,1,588.714,1185.239Z" transform="translate(-581.095 -1144.885)" fill="#36a0da"/>
    </g>
    <g id="Group_84" data-name="Group 84" transform="translate(812.586 1143.799)">
      <path id="Path_276" data-name="Path 276" d="M850.642,1185.239a1.648,1.648,0,0,1-1.49-.943l-9.622-20.284a1.651,1.651,0,0,1,.2-1.737l13.406-16.769a1.649,1.649,0,1,1,2.575,2.059l-12.762,15.964,9.18,19.353a1.653,1.653,0,0,1-1.488,2.357Z" transform="translate(-839.371 -1144.885)" fill="#36a0da"/>
    </g>
  </g>
</svg>
