<svg id="project01_ill1" xmlns="http://www.w3.org/2000/svg" width="254.359" height="255.294" viewBox="0 0 254.359 255.294">
  <path id="Path_868" data-name="Path 868" d="M657.764,247.539a.422.422,0,0,0-.3-.228.118.118,0,0,1-.049.008.368.368,0,0,0-.351.215L641.579,278.03a4.086,4.086,0,0,1-3.66,2.249l-21.151-.129a4.1,4.1,0,0,1-3.662-2.293L598,247.175a.333.333,0,0,0-.336-.221.38.38,0,0,0-.368.216l-15.869,31.263a.4.4,0,0,0-.042.173l-.236,38.87a13.182,13.182,0,0,1,9.381-3.944h.079a13.037,13.037,0,0,1,9.417,4.065,1.857,1.857,0,0,1-2.684,2.567,9.447,9.447,0,0,0-1.74-1.425V322.2a1.857,1.857,0,1,1-3.713,0v-4.841a9.22,9.22,0,0,0-1.3-.108l-.059-.2v.2a9.551,9.551,0,0,0-1.627.141l0,4.808a1.857,1.857,0,0,1-3.713,0v-3.288a9.381,9.381,0,0,0-4.1,7.715.82.82,0,0,1-.01.117v.05a.867.867,0,0,1,.01.118,9.782,9.782,0,0,0,9.649,9.659h63.673a13.134,13.134,0,0,1-.039-18.842,1.838,1.838,0,0,1,1.3-.53h.023a1.857,1.857,0,0,1,1.276,3.186,9.434,9.434,0,0,0,6.536,16.185.722.722,0,0,1,.108.01h.051a.782.782,0,0,1,.112-.01,9.466,9.466,0,0,0,9.238-9.659c0-.583.181-31.424.25-43.034l.028-4.707a.386.386,0,0,0-.041-.176Zm-65.085,31.9a1.6,1.6,0,0,1-1.6-1.6v-1.7a6.532,6.532,0,1,1,13.064,0v1.688a1.612,1.612,0,0,1-1.609,1.61ZM646.9,300.363H634.318c-.969,1.449-3.241,2.446-6.272,2.755v2.463a5.614,5.614,0,1,0,11.228,0,1.858,1.858,0,0,1,3.715,0,9.321,9.321,0,0,1-16.8,5.57,9.32,9.32,0,0,1-16.8-5.57,1.857,1.857,0,1,1,3.714,0,5.614,5.614,0,0,0,11.229,0v-2.463c-3.033-.308-5.3-1.306-6.272-2.755H605.481a1.858,1.858,0,0,1,0-3.715h12.214a12.813,12.813,0,0,1,.486-2.046L607.8,292.772a1.862,1.862,0,0,1-.735-3.361,1.821,1.821,0,0,1,1.382-.3l11.563,2.039a7.5,7.5,0,0,1,12.35,0l11.565-2.039a1.83,1.83,0,0,1,1.379.3,1.858,1.858,0,0,1-.734,3.358L634.2,294.6a12.712,12.712,0,0,1,.486,2.046H646.9a1.858,1.858,0,0,1,0,3.715ZM663.818,322.2a1.857,1.857,0,0,1-3.714,0v-4.958a1.857,1.857,0,1,1,3.714,0Zm.085-44.366a1.611,1.611,0,0,1-1.608,1.61h-9.857a1.6,1.6,0,0,1-1.6-1.6v-1.7a6.532,6.532,0,1,1,13.063,0Zm6.612,44.366a1.857,1.857,0,0,1-3.714,0v-4.958a1.857,1.857,0,1,1,3.714,0Z" transform="translate(-568.73 -84.988)" fill="#fff"/>
  <path id="Path_869" data-name="Path 869" d="M613.176,165.028a3.036,3.036,0,1,0-3.036-3.036A3.04,3.04,0,0,0,613.176,165.028Z" transform="translate(-572.255 -74.313)" fill="#d9dbbc"/>
  <circle id="Ellipse_15" data-name="Ellipse 15" cx="6.154" cy="6.154" r="6.154" transform="translate(2.636 81.436)" fill="#d9dbbc"/>
  <path id="Path_870" data-name="Path 870" d="M846.215,169.582a9.382,9.382,0,1,0,3.445,12.812A9.324,9.324,0,0,0,846.215,169.582Z" transform="translate(-599.188 -75.45)" fill="#d9dbbc"/>
  <path id="Path_871" data-name="Path 871" d="M816.16,200.1a3.036,3.036,0,1,0,1.519-5.668,3.055,3.055,0,0,0-.793.105,3.036,3.036,0,0,0-.727,5.563Z" transform="translate(-597.064 -78.616)" fill="#d9dbbc"/>
  <path id="Path_872" data-name="Path 872" d="M670.992,132.882a11.9,11.9,0,1,1,3.665-23.457c36.713,1.548,52.314-20.689,52.468-20.914a1.758,1.758,0,0,1,3.211,1.023c-.012.767-.05,18.859,20.756,19.879.972-.059,7.079-.261,11.026,3.382a10.693,10.693,0,0,1,3.3,8.226,11.92,11.92,0,0,1-10.883,11.861,42.563,42.563,0,0,1-18.31,27.423c.4.2.793.387,1.188.567a1.751,1.751,0,0,1,1.512-.874h22.643c3.975,0,6.914-1.119,8.735-3.326,3.312-4.016,2.318-10.784,1.935-12.763-.807-4.161-5.651-26.957-5.7-27.187-.008-.039-.015-.076-.02-.114-4.116-28.494-27.006-49.981-53.248-49.981-38.229,0-51.266,40.715-59.057,65.04-1.347,4.208-2.51,7.842-3.627,10.689-1.253,3.2-4.145,10.57-1.434,14.545,1.4,2.054,4.289,3.1,8.585,3.1h28.686a1.742,1.742,0,0,1,1.112.407,4.958,4.958,0,0,1,1.172-.5A42.542,42.542,0,0,1,670.992,132.882Zm24.029-47.409a81.38,81.38,0,0,0,17.56-7.716,1.757,1.757,0,0,1,1.866,2.979,83.4,83.4,0,0,1-18.409,8.1,1.757,1.757,0,0,1-1.016-3.364ZM681.088,99.448c14.916-1.69,28.206-9.912,28.338-10a1.758,1.758,0,0,1,1.865,2.98c-.567.355-14.077,8.726-29.807,10.507a1.725,1.725,0,0,1-.2.011,1.757,1.757,0,0,1-.2-3.5Z" transform="translate(-576.852 -63.112)" fill="#d9dbbc"/>
  <path id="Path_873" data-name="Path 873" d="M776.272,293.323c-5.5-5.063-12.822-7.261-21.771-6.522-17.59,1.445-50.182,4.152-58.066,4.806a1.751,1.751,0,0,1-1.783-1.134h-4.969c-.076,12.911-.24,40.708-.24,41.252a13.543,13.543,0,0,1-3.554,9.175,12.411,12.411,0,0,1,2.247,1.431,1.75,1.75,0,0,1,1.586-1.022h21.8a11.827,11.827,0,0,1-.725-15.866c2.646-3.2,6.5-4.69,12.122-4.69a1.757,1.757,0,0,1,1.757,1.757v3.575l22.808-10a1.758,1.758,0,1,1,1.411,3.22l-25.271,11.075-.01,0a1.694,1.694,0,0,1-.291.093,1.724,1.724,0,0,1-.4.053l-.018,0a1.781,1.781,0,0,1-.426-.062c-.038-.011-.075-.023-.112-.035a1.741,1.741,0,0,1-.347-.158c-.019-.011-.041-.02-.061-.033a1.8,1.8,0,0,1-.331-.287c-.025-.028-.048-.058-.072-.088a1.706,1.706,0,0,1-.228-.364.228.228,0,0,1-.016-.025l0-.009a1.615,1.615,0,0,1-.069-.216c-.012-.04-.029-.079-.038-.12s-.006-.062-.011-.094a1.771,1.771,0,0,1-.026-.257v-4.451c-4.551.329-6.483,1.931-7.656,3.35a8.327,8.327,0,0,0,6.423,13.626h40.513a25.15,25.15,0,0,0,24.7-19.409c.019-.087.041-.172.059-.258a23.935,23.935,0,0,0,.505-4.9C785.71,307.524,782.181,298.767,776.272,293.323Z" transform="translate(-581.445 -89.805)" fill="#fff"/>
  <path id="Path_874" data-name="Path 874" d="M804.9,299.7a1.756,1.756,0,0,1,.979-2.284c16.555-6.624,22.9-23.716,21.854-37.719-.986-13.134-8.635-28.719-27.148-33.067-3.837-.916-6.669-.436-7.781.441a1.242,1.242,0,0,0-.537,1.062c0,1.79,2.344,2.492,6.2,3.435l.594.146c15.98,3.754,22.589,17.155,23.442,28.442.905,12-4.583,26.666-18.885,32.4a1.754,1.754,0,0,1-2.285-.977c-.02-.049-.028-.1-.044-.15a10.8,10.8,0,0,1-3.325.484,36.953,36.953,0,0,1,3.169,8.722,21.2,21.2,0,0,0,3.852-.8A1.621,1.621,0,0,1,804.9,299.7Z" transform="translate(-594.349 -82.463)" fill="#fff"/>
  <path id="Path_875" data-name="Path 875" d="M745.574,224.355l-1.86-18.04a1.756,1.756,0,0,1,.637-1.539,10.765,10.765,0,0,0-.723-2.851c-1.495,2.325-7.254,10.318-16.706,12.4v1.215a1.689,1.689,0,0,1,.6.151Z" transform="translate(-586.422 -79.526)" fill="#d9dbbc"/>
  <path id="Path_876" data-name="Path 876" d="M701.76,202.878l-2.878,1.423a1.759,1.759,0,0,1,.706,1.809l-3.987,18.4,21.007-8.679a1.731,1.731,0,0,1,.8-.122,7.149,7.149,0,0,1,.337-.769C708.8,214.543,703.99,207.557,701.76,202.878Z" transform="translate(-582.623 -79.641)" fill="#d9dbbc"/>
  <path id="Path_877" data-name="Path 877" d="M600.295,199.2a9.381,9.381,0,1,0-9.383-9.381A9.392,9.392,0,0,0,600.295,199.2Z" transform="translate(-569.923 -76.919)" fill="#d9dbbc"/>
  <path id="Path_878" data-name="Path 878" d="M650.008,302.3H637.794a12.712,12.712,0,0,0-.486-2.046l10.378-1.829a1.857,1.857,0,1,0-.645-3.658l-11.565,2.039a7.5,7.5,0,0,0-12.35,0l-11.563-2.039a1.821,1.821,0,0,0-1.382.3,1.86,1.86,0,0,0,.735,3.361l10.378,1.829a12.813,12.813,0,0,0-.486,2.046H608.594a1.858,1.858,0,0,0,0,3.715h12.578c.968,1.449,3.239,2.446,6.272,2.755v2.463a5.614,5.614,0,0,1-11.229,0,1.857,1.857,0,1,0-3.714,0,9.32,9.32,0,0,0,16.8,5.57,9.321,9.321,0,0,0,16.8-5.57,1.858,1.858,0,0,0-3.715,0,5.614,5.614,0,1,1-11.228,0v-2.463c3.031-.308,5.3-1.306,6.272-2.755h12.578a1.858,1.858,0,0,0,0-3.715Z" transform="translate(-571.843 -90.642)" fill="#69585f"/>
  <path id="Path_879" data-name="Path 879" d="M676.5,278.679a4.127,4.127,0,0,0-.424-1.841h0l-15.487-31.451a4.107,4.107,0,0,0-7.348-.045l-15.482,30.5a.385.385,0,0,1-.352.214l-21.122-.129a.39.39,0,0,1-.353-.221L600.82,245.022a4.107,4.107,0,0,0-7.348-.045L577.6,276.24a4.143,4.143,0,0,0-.445,1.833l-.292,48.018a.863.863,0,0,0,.011.135l.2.023-.2.027a.894.894,0,0,0-.01.12,13.547,13.547,0,0,0,13.363,13.374h72.754a.938.938,0,0,0,.113-.01h.056a.786.786,0,0,0,.113.011A13.183,13.183,0,0,0,676.217,326.4C676.217,325.69,676.493,279.06,676.5,278.679Zm-3.743,4.683c-.069,11.61-.25,42.45-.25,43.034a9.466,9.466,0,0,1-9.238,9.659.782.782,0,0,0-.112.01H663.1a.722.722,0,0,0-.108-.01,9.434,9.434,0,0,1-6.536-16.185,1.859,1.859,0,0,0-1.276-3.186h-.023a1.838,1.838,0,0,0-1.3.53,13.134,13.134,0,0,0,.039,18.842H590.228a9.782,9.782,0,0,1-9.649-9.659.867.867,0,0,0-.01-.118v-.05a.82.82,0,0,0,.01-.117,9.381,9.381,0,0,1,4.1-7.715v3.288a1.857,1.857,0,0,0,3.713,0l0-4.808a9.551,9.551,0,0,1,1.627-.141v-.2l.059.2a9.22,9.22,0,0,1,1.3.108v4.841a1.857,1.857,0,1,0,3.713,0v-3.458a9.447,9.447,0,0,1,1.74,1.425,1.857,1.857,0,0,0,2.684-2.567,13.037,13.037,0,0,0-9.417-4.065h-.079a13.182,13.182,0,0,0-9.381,3.944l.236-38.87a.4.4,0,0,1,.042-.173l15.869-31.263a.38.38,0,0,1,.368-.216.333.333,0,0,1,.336.221l15.107,30.682a4.094,4.094,0,0,0,3.662,2.293l21.151.129a4.086,4.086,0,0,0,3.66-2.249l15.481-30.495a.368.368,0,0,1,.351-.215.118.118,0,0,0,.049-.008.422.422,0,0,1,.3.228l15.487,31.453a.386.386,0,0,1,.041.176Z" transform="translate(-568.219 -84.476)" fill="#69585f"/>
  <path id="Path_880" data-name="Path 880" d="M672.871,324.829a1.86,1.86,0,0,0-1.857,1.858v4.958a1.857,1.857,0,0,0,3.714,0v-4.958A1.86,1.86,0,0,0,672.871,324.829Z" transform="translate(-579.64 -94.436)" fill="#69585f"/>
  <path id="Path_881" data-name="Path 881" d="M680.493,324.829a1.86,1.86,0,0,0-1.857,1.858v4.958a1.857,1.857,0,0,0,3.714,0v-4.958A1.86,1.86,0,0,0,680.493,324.829Z" transform="translate(-580.565 -94.436)" fill="#69585f"/>
  <path id="Path_882" data-name="Path 882" d="M605.524,280.959v-1.688a6.532,6.532,0,1,0-13.064,0v1.7a1.6,1.6,0,0,0,1.6,1.6h9.856A1.612,1.612,0,0,0,605.524,280.959Z" transform="translate(-570.111 -88.116)" fill="#69585f"/>
  <path id="Path_883" data-name="Path 883" d="M667,272.739a6.54,6.54,0,0,0-6.532,6.532v1.7a1.6,1.6,0,0,0,1.6,1.6h9.857a1.611,1.611,0,0,0,1.608-1.61v-1.688A6.539,6.539,0,0,0,667,272.739Z" transform="translate(-578.361 -88.116)" fill="#69585f"/>
  <path id="Path_884" data-name="Path 884" d="M721.167,149.945a1.483,1.483,0,1,0,0-2.966c-1.3,0-2.4-.743-2.4-1.624s1.1-1.623,2.4-1.623a1.483,1.483,0,0,0,1.483-1.483v-4.437a1.483,1.483,0,1,0-2.966,0v3.133a4.767,4.767,0,0,0-3.883,4.411C715.8,147.886,718.209,149.945,721.167,149.945Z" transform="translate(-585.074 -71.568)" fill="#69585f"/>
  <path id="Path_885" data-name="Path 885" d="M756.2,135.8a11.92,11.92,0,0,0,10.883-11.861,10.693,10.693,0,0,0-3.3-8.226c-3.947-3.643-10.054-3.441-11.026-3.382-20.806-1.02-20.769-19.112-20.756-19.879a1.758,1.758,0,0,0-3.211-1.023c-.154.225-15.755,22.462-52.468,20.914A11.9,11.9,0,1,0,672.66,135.8a42.513,42.513,0,0,0,83.54,0Zm-41.77,31.085A39.22,39.22,0,0,1,675.884,133.8a1.758,1.758,0,0,0-1.737-1.493c-.027,0-.055,0-.083,0l-.2.012c-.059,0-.12.009-.18.009a8.389,8.389,0,1,1,1.986-16.53,1.772,1.772,0,0,0,.339.048c30.418,1.336,46.9-12.537,52.975-19.123,1.313,6.557,6.121,18.308,23.714,19.123a1.564,1.564,0,0,0,.222,0c.055,0,5.443-.353,8.485,2.453a7.234,7.234,0,0,1,2.166,5.643,8.4,8.4,0,0,1-8.389,8.389c-.061,0-.121-.005-.18-.009l-.2-.012a1.755,1.755,0,0,0-1.821,1.491A39.221,39.221,0,0,1,714.431,166.882Z" transform="translate(-578.52 -66.027)" fill="#69585f"/>
  <path id="Path_886" data-name="Path 886" d="M657.248,163.027h28.686a1.757,1.757,0,1,0,0-3.515H657.248c-4.3,0-7.185-1.041-8.585-3.1-2.711-3.975.181-11.349,1.434-14.545,1.117-2.847,2.28-6.481,3.627-10.689,7.79-24.326,20.828-65.04,59.057-65.04,26.241,0,49.132,21.487,53.248,49.981.005.038.012.076.02.114.049.229,4.893,23.025,5.7,27.187.383,1.979,1.377,8.747-1.935,12.763-1.821,2.206-4.76,3.326-8.735,3.326H738.436a1.757,1.757,0,1,0,0,3.515h22.643c5.075,0,8.927-1.549,11.446-4.6,4.174-5.059,3.261-12.642,2.675-15.668-.8-4.13-5.373-25.65-5.7-27.193-4.385-30.183-28.759-52.935-56.717-52.935-17.732,0-32.445,8.354-43.727,24.827-9.421,13.755-14.771,30.459-18.677,42.656-1.329,4.151-2.477,7.735-3.571,10.524-1.559,3.977-4.8,12.252-1.047,17.763C647.855,161.469,651.719,163.027,657.248,163.027Z" transform="translate(-576.365 -62.627)" fill="#69585f"/>
  <path id="Path_887" data-name="Path 887" d="M704.532,125.966h-8.964a1.757,1.757,0,1,0,0,3.515h8.964a1.757,1.757,0,1,0,0-3.515Z" transform="translate(-582.406 -70.311)" fill="#69585f"/>
  <path id="Path_888" data-name="Path 888" d="M702.479,178.55a1.757,1.757,0,0,0-1.757,1.757v10.47a1.757,1.757,0,1,0,3.515,0v-10.47A1.757,1.757,0,0,0,702.479,178.55Z" transform="translate(-583.244 -76.69)" fill="#69585f"/>
  <path id="Path_889" data-name="Path 889" d="M744.4,194.55a1.757,1.757,0,0,0,1.757-1.757V178.807a1.757,1.757,0,1,0-3.515,0v13.985A1.757,1.757,0,0,0,744.4,194.55Z" transform="translate(-588.329 -76.508)" fill="#69585f"/>
  <path id="Path_890" data-name="Path 890" d="M829.588,297.307a1.758,1.758,0,0,0-3.424.794c.12.517.259,1.069.405,1.649,1.7,6.76,2.582,12.608-3.944,15.736-5.458,2.616-14.976,4.709-19.451,5.6h0c-.038.316-.095.626-.142.94a26.876,26.876,0,0,1-.554,2.778c3.676-.692,15.116-3.01,21.667-6.149,9.648-4.625,7.26-14.1,5.833-19.765C829.837,298.334,829.7,297.8,829.588,297.307Z" transform="translate(-595.589 -90.932)" fill="#69585f"/>
  <path id="Path_891" data-name="Path 891" d="M789.317,319.477a27.549,27.549,0,0,0,.194-3.215c0-10.188-3.951-19.912-10.571-26.009-6.247-5.755-14.466-8.257-24.442-7.439-17.589,1.445-50.182,4.152-58.069,4.806a1.757,1.757,0,0,0,.292,3.5c7.884-.655,40.476-3.361,58.066-4.806,8.949-.739,16.274,1.459,21.771,6.522,5.908,5.443,9.437,14.2,9.437,23.424a23.935,23.935,0,0,1-.505,4.9c-.018.086-.04.171-.059.258a25.15,25.15,0,0,1-24.7,19.409H720.216a8.327,8.327,0,0,1-6.423-13.626c1.173-1.419,3.105-3.021,7.656-3.35V328.3a1.771,1.771,0,0,0,.026.257c0,.032,0,.062.011.094s.026.08.038.12a1.615,1.615,0,0,0,.069.216l0,.009a.228.228,0,0,0,.016.025,1.706,1.706,0,0,0,.228.364c.024.03.047.06.072.088a1.8,1.8,0,0,0,.331.287c.019.012.041.021.061.033a1.741,1.741,0,0,0,.347.158c.037.012.074.025.112.035a1.781,1.781,0,0,0,.426.062l.018,0a1.724,1.724,0,0,0,.4-.053,1.694,1.694,0,0,0,.291-.093l.01,0,25.271-11.075a1.758,1.758,0,1,0-1.411-3.22l-22.808,10v-3.575a1.757,1.757,0,0,0-1.757-1.757c-5.624,0-9.477,1.49-12.122,4.69a11.827,11.827,0,0,0,.725,15.866h-21.8a1.76,1.76,0,0,0-1.74,2.013,1.852,1.852,0,0,0,1.875,1.5h70.585A28.709,28.709,0,0,0,788.621,323.2a26.876,26.876,0,0,0,.554-2.778c.047-.314.1-.624.142-.94Z" transform="translate(-581.731 -89.32)" fill="#69585f"/>
  <path id="Path_892" data-name="Path 892" d="M803.25,324.56h0c-.038.316-.095.626-.142.94.047-.314.1-.624.142-.94Z" transform="translate(-595.665 -94.403)" fill="#69585f"/>
  <path id="Path_893" data-name="Path 893" d="M719.155,210.571c-4.692,0-8.615-2.228-11.658-6.624a24.746,24.746,0,0,1-3.315-6.993,1.758,1.758,0,0,0-3.406.871c.042.163,4.308,16.261,18.38,16.261,13.727,0,21.361-13,21.679-13.548a1.757,1.757,0,0,0-3.046-1.753C737.72,198.9,730.871,210.571,719.155,210.571Z" transform="translate(-583.244 -78.762)" fill="#69585f"/>
  <path id="Path_894" data-name="Path 894" d="M625.927,268.147a1.806,1.806,0,0,0,.385.042,1.758,1.758,0,0,0,1.713-1.375c3.089-13.855,6.573-26.726,9.314-34.43,3.8-10.67,11.109-18.091,22.344-22.688,7.318-2.993,27.877-8.217,28.084-8.27a1.757,1.757,0,0,0-.863-3.407c-.855.216-21.007,5.337-28.551,8.424-12.044,4.928-20.228,13.258-24.324,24.761-2.788,7.831-6.315,20.857-9.435,34.843A1.758,1.758,0,0,0,625.927,268.147Z" transform="translate(-574.004 -79.045)" fill="#69585f"/>
  <path id="Path_895" data-name="Path 895" d="M798.354,217.415a45.9,45.9,0,0,0-12.255-7.227c-7.394-3.024-26.9-8-28.476-8.406l-5.832-2.025a1.757,1.757,0,1,0-1.153,3.32l5.9,2.051c.047.017.1.031.145.043.207.053,20.766,5.277,28.084,8.271a42.546,42.546,0,0,1,11.108,6.493c.108.024.212.038.32.064.424.1.836.212,1.25.322a40.824,40.824,0,0,1,5.835,2.017A39.4,39.4,0,0,0,798.354,217.415Z" transform="translate(-589.156 -79.251)" fill="#69585f"/>
  <path id="Path_896" data-name="Path 896" d="M807.99,225.066h0a40.824,40.824,0,0,0-5.835-2.017c-.414-.111-.825-.223-1.25-.322-.108-.026-.212-.04-.32-.064-4.378-.98-8.27-.554-10.45,1.168a4.729,4.729,0,0,0-1.872,3.823c0,4.675,4.924,5.878,8.879,6.846l.605.148c14.15,3.323,20,15.243,20.76,25.289.808,10.717-4.038,23.8-16.688,28.875a1.757,1.757,0,1,0,1.308,3.262c14.3-5.735,19.79-20.4,18.885-32.4-.852-11.288-7.462-24.688-23.442-28.442l-.594-.146c-3.856-.943-6.2-1.645-6.2-3.435a1.243,1.243,0,0,1,.537-1.062c1.112-.877,3.943-1.357,7.781-.441,18.513,4.348,26.162,19.933,27.148,33.067,1.051,14-5.3,31.095-21.854,37.719a1.757,1.757,0,1,0,1.306,3.263c18.207-7.283,25.2-25.963,24.053-41.244C829.8,246.37,823.249,231.732,807.99,225.066Z" transform="translate(-593.864 -81.979)" fill="#69585f"/>
  <path id="Path_897" data-name="Path 897" d="M809.907,225.19a40.824,40.824,0,0,0-5.835-2.017,40.824,40.824,0,0,1,5.835,2.017Z" transform="translate(-595.782 -82.103)" fill="#69585f"/>
  <path id="Path_898" data-name="Path 898" d="M782.106,278.374a1.785,1.785,0,0,0,.193-.011,1.757,1.757,0,0,0,1.557-1.937l-2.73-25.077a1.757,1.757,0,1,0-3.494.38l2.729,25.078A1.757,1.757,0,0,0,782.106,278.374Z" transform="translate(-592.573 -85.331)" fill="#69585f"/>
  <path id="Path_899" data-name="Path 899" d="M700.471,131.8a3.2,3.2,0,0,0-3.188,3.188v4.556a3.188,3.188,0,1,0,6.376,0v-4.556A3.2,3.2,0,0,0,700.471,131.8Z" transform="translate(-582.827 -71.018)" fill="#69585f"/>
  <path id="Path_900" data-name="Path 900" d="M744.865,125.966H735.9a1.757,1.757,0,1,0,0,3.515h8.964a1.757,1.757,0,0,0,0-3.515Z" transform="translate(-587.299 -70.311)" fill="#69585f"/>
  <path id="Path_901" data-name="Path 901" d="M740.8,131.8a3.2,3.2,0,0,0-3.188,3.188v4.556a3.188,3.188,0,1,0,6.376,0v-4.556A3.2,3.2,0,0,0,740.8,131.8Z" transform="translate(-587.72 -71.018)" fill="#69585f"/>
  <path id="Path_902" data-name="Path 902" d="M728.617,154.64a17.7,17.7,0,0,1-16.737,0,1.483,1.483,0,0,0-1.416,2.606,20.7,20.7,0,0,0,19.569,0,1.483,1.483,0,0,0-1.416-2.606Z" transform="translate(-584.332 -73.768)" fill="#69585f"/>
  <path id="Path_903" data-name="Path 903" d="M683.888,104.506a1.759,1.759,0,0,0,1.744,1.56,1.727,1.727,0,0,0,.2-.011c15.729-1.781,29.24-10.152,29.807-10.507a1.758,1.758,0,0,0-1.865-2.98c-.132.083-13.422,8.305-28.338,10A1.758,1.758,0,0,0,683.888,104.506Z" transform="translate(-581.201 -66.227)" fill="#69585f"/>
  <path id="Path_904" data-name="Path 904" d="M701.843,90.413a1.763,1.763,0,0,0,.509-.076,83.4,83.4,0,0,0,18.409-8.1,1.757,1.757,0,0,0-1.866-2.979,81.38,81.38,0,0,1-17.56,7.716,1.758,1.758,0,0,0,.507,3.44Z" transform="translate(-583.167 -64.612)" fill="#69585f"/>
  <path id="Path_905" data-name="Path 905" d="M723.172,234.869a3.676,3.676,0,1,0,3.676,3.676A3.676,3.676,0,0,0,723.172,234.869Z" transform="translate(-585.522 -83.522)" fill="#69585f"/>
  <path id="Path_906" data-name="Path 906" d="M723.172,257.686a3.676,3.676,0,1,0,3.676,3.676A3.676,3.676,0,0,0,723.172,257.686Z" transform="translate(-585.522 -86.29)" fill="#69585f"/>
  <path id="Path_907" data-name="Path 907" d="M747.379,229.393a1.758,1.758,0,0,0,1.748-1.938l-2.183-21.162a1.757,1.757,0,0,0-3.5.36l1.86,18.04-18.057-8.66a1.757,1.757,0,1,0-1.521,3.169l20.888,10.018A1.76,1.76,0,0,0,747.379,229.393Z" transform="translate(-586.157 -79.864)" fill="#69585f"/>
  <path id="Path_908" data-name="Path 908" d="M697.665,204.173a1.762,1.762,0,0,0-2.09,1.345l-4.7,21.675a1.757,1.757,0,0,0,2.388,2l24.1-9.958a1.757,1.757,0,0,0-1.342-3.249l-21.007,8.679,3.987-18.4A1.759,1.759,0,0,0,697.665,204.173Z" transform="translate(-582.045 -79.794)" fill="#69585f"/>
  <path id="Path_909" data-name="Path 909" d="M599.931,201.474a12.017,12.017,0,1,0-12.019-12.017A12.031,12.031,0,0,0,599.931,201.474Zm0-21.4a9.381,9.381,0,1,1-9.383,9.382A9.393,9.393,0,0,1,599.931,180.075Z" transform="translate(-569.559 -76.555)" fill="#69585f"/>
  <path id="Path_910" data-name="Path 910" d="M612.812,167.3a5.672,5.672,0,1,0-5.672-5.672A5.679,5.679,0,0,0,612.812,167.3Zm0-8.709a3.036,3.036,0,1,1-3.036,3.037A3.04,3.04,0,0,1,612.812,158.591Z" transform="translate(-571.891 -73.949)" fill="#69585f"/>
  <path id="Path_911" data-name="Path 911" d="M584.606,161.1a8.79,8.79,0,1,0-8.79,8.789A8.8,8.8,0,0,0,584.606,161.1Zm-14.945,0a6.154,6.154,0,1,1,6.154,6.153A6.161,6.161,0,0,1,569.661,161.1Z" transform="translate(-567.025 -73.506)" fill="#69585f"/>
  <path id="Path_912" data-name="Path 912" d="M847.167,166.934a12.018,12.018,0,1,0,4.414,16.412A12.032,12.032,0,0,0,847.167,166.934Zm2.129,15.1a9.378,9.378,0,1,1-3.445-12.812A9.316,9.316,0,0,1,849.3,182.031Z" transform="translate(-598.823 -75.086)" fill="#69585f"/>
  <path id="Path_913" data-name="Path 913" d="M814.479,202.017a5.646,5.646,0,0,0,2.823.76,5.7,5.7,0,0,0,1.482-.2,5.673,5.673,0,1,0-4.306-.563Zm.2-6.431a3.016,3.016,0,0,1,1.843-1.416,3.056,3.056,0,0,1,.793-.105,3.038,3.038,0,1,1-2.635,1.522Z" transform="translate(-596.7 -78.252)" fill="#69585f"/>
</svg>
