<?xml version="1.0" encoding="utf-8"?>
<!-- Generator: Adobe Illustrator 22.0.1, SVG Export Plug-In . SVG Version: 6.00 Build 0)  -->
<svg version="1.1" id="圖層_1" xmlns="http://www.w3.org/2000/svg" xmlns:xlink="http://www.w3.org/1999/xlink" x="0px" y="0px"
	 viewBox="0 0 231 284.6" style="enable-background:new 0 0 231 284.6;" xml:space="preserve">
<style type="text/css">
	.st0{fill:#EF959D;}
</style>
<g id="project05_01" transform="translate(-69.569 -220.594)">
	<g id="Group_168" transform="translate(69.569 417.795)">
		<path id="Path_687" class="st0" d="M24.7,1.5C24.3,0.6,23.5,0,22.5,0h-1.1c-1,0-1.8,0.6-2.2,1.5L0.2,45c-0.5,1.2,0,2.7,1.2,3.2
			c0.3,0.1,0.6,0.2,1,0.2h2.1c1,0,1.8-0.6,2.2-1.5l6-13.9H31L37,47c0.4,0.9,1.3,1.5,2.2,1.5h2.3c1.3,0,2.4-1.1,2.4-2.4
			c0-0.3-0.1-0.7-0.2-1L24.7,1.5z M21.8,11.6l6.5,15.1H15.4L21.8,11.6z"/>
		<path id="Path_688" class="st0" d="M63.8,13c-4.9-0.1-9.6,1.8-13,5.2c-7,7.1-7,18.5,0,25.5c7.3,6.9,18.7,6.9,26,0
			c7-7.1,7-18.5,0-25.5C73.4,14.7,68.7,12.9,63.8,13z M63.8,43.2c-3.3,0.1-6.4-1.2-8.7-3.5c-4.6-4.9-4.6-12.5,0-17.4
			c4.8-4.7,12.5-4.7,17.3,0c4.6,4.9,4.6,12.5,0,17.4C70.2,42,67.1,43.3,63.8,43.2z"/>
		<path id="Path_689" class="st0" d="M149.7,0.3h-2.1c-1,0-1.9,0.6-2.3,1.6c-2.2,6.2-8.7,24.8-11.8,34C130,26,122.8,5.4,121.9,2.8
			c-0.3-1-1.3-1.6-2.3-1.6h-1.1c-1,0-1.9,0.6-2.2,1.5c-0.4,1.1-9.6,23.5-13.6,33.5l-12-34.3c-0.3-1-1.3-1.6-2.3-1.6H86
			c-1.3,0-2.4,1.1-2.4,2.4c0,0.3,0,0.6,0.1,0.8l15.8,43.7c0.3,1,1.3,1.6,2.3,1.6h1.1c1,0,1.9-0.6,2.2-1.5l13.5-33.3l11.9,33.2
			c0.3,1,1.3,1.6,2.3,1.6h1c1,0,1.9-0.6,2.3-1.6l15.7-43.7c0.5-1.3-0.2-2.6-1.5-3.1C150.2,0.4,149.9,0.3,149.7,0.3L149.7,0.3z"/>
		<path id="Path_690" class="st0" d="M171.9,13c-4.9-0.1-9.6,1.8-13,5.2c-7,7.1-7,18.5,0,25.5c7.3,6.9,18.7,6.9,26,0
			c7-7.1,7-18.5,0-25.5C181.4,14.7,176.7,12.9,171.9,13z M171.9,43.2c-3.3,0.1-6.4-1.2-8.7-3.5c-4.6-4.9-4.6-12.5,0-17.4
			c4.8-4.7,12.5-4.7,17.4,0c4.6,4.9,4.6,12.5,0,17.4C178.3,42,175.2,43.3,171.9,43.2z"/>
		<path id="Path_691" class="st0" d="M225.7,18.2c-7.3-6.9-18.7-6.9-26,0c-7,7.1-7,18.5,0,25.5c7.3,6.9,18.7,6.9,26,0
			C232.7,36.6,232.7,25.2,225.7,18.2z M212.7,43.2c-3.3,0.1-6.4-1.2-8.7-3.5c-4.6-4.9-4.6-12.5,0-17.4c4.8-4.7,12.5-4.7,17.3,0
			c4.6,4.9,4.6,12.5,0,17.4C219.1,42,216,43.3,212.7,43.2z"/>
	</g>
	<g id="Group_169" transform="translate(101.064 220.594)">
		<path id="Path_692" class="st0" d="M117.2,90H96.6c-0.2-1.2-0.5-2.3-0.8-3.5l17.5-3.1c1.7-0.3,2.8-1.9,2.5-3.6s-1.9-2.8-3.6-2.5
			l-19.5,3.4c-4-5.8-11.8-7.2-17.6-3.2c-1.3,0.9-2.4,2-3.2,3.2l-19.5-3.4c-0.8-0.2-1.7,0-2.3,0.5c-1.4,1-1.8,2.9-0.8,4.4
			c0.5,0.7,1.2,1.2,2,1.3l17.5,3.1c-0.4,1.1-0.6,2.3-0.8,3.5H47.4c-1.7,0-3.1,1.5-3.1,3.2c0,1.7,1.4,3,3.1,3.1h21.2
			c1.6,2.4,5.5,4.1,10.6,4.6v4.2c0.1,5.2-4.1,9.5-9.4,9.6c-5.2,0.1-9.5-4.1-9.6-9.4c0-0.1,0-0.1,0-0.2c0-1.7-1.4-3.1-3.1-3.1
			c-1.7,0-3.1,1.4-3.1,3.1c0,0,0,0,0,0c0,8.7,7,15.7,15.7,15.7c5,0,9.7-2.3,12.6-6.3c5.2,7,15,8.4,22,3.2c4-3,6.3-7.7,6.3-12.6
			c0-1.7-1.5-3.1-3.2-3.1c-1.7,0-3,1.4-3.1,3.1c0,5.2-4.2,9.5-9.5,9.5c-5.2,0-9.5-4.2-9.5-9.5v-4.2c5.1-0.5,8.9-2.2,10.6-4.6h21.2
			c1.7,0,3.1-1.5,3.1-3.2C120.3,91.4,118.9,90.1,117.2,90L117.2,90z"/>
		<path id="Path_693" class="st0" d="M167.3,57.5L167.3,57.5l-26.1-53c-1.7-3.4-5.8-4.8-9.3-3.2c-1.3,0.7-2.4,1.7-3.1,3.1
			l-26.1,51.4c-0.1,0.2-0.3,0.4-0.6,0.4L66.5,56c-0.3,0-0.5-0.1-0.6-0.4L40.4,3.9c-1.7-3.4-5.8-4.8-9.3-3.2
			c-1.3,0.7-2.4,1.7-3.1,3.1L1.2,56.5c-0.5,1-0.7,2-0.7,3.1l-0.5,81c0,0.1,0,0.2,0,0.2l0.3,0l-0.3,0c0,0.1,0,0.1,0,0.2
			c0.2,12.4,10.2,22.4,22.5,22.5h122.7c0.1,0,0.1,0,0.2,0h0.1c0.1,0,0.1,0,0.2,0c12,0,21.8-10.1,21.8-22.5c0-1.2,0.5-79.8,0.5-80.4
			C168,59.5,167.7,58.5,167.3,57.5z M134.2,130.1c1.2-1.2,1.3-3.2,0-4.4c-0.6-0.6-1.4-0.9-2.2-0.9h0c-0.8,0-1.6,0.3-2.2,0.9
			c-8.8,8.5-8.9,22.6-0.4,31.3c0.1,0.2,0.3,0.3,0.5,0.4H22.5c-8.9-0.1-16.2-7.3-16.3-16.3c0-0.1,0-0.1,0-0.2v-0.1c0-0.1,0-0.1,0-0.2
			c0-5.2,2.6-10.1,6.9-13v5.5c0,1.7,1.4,3.1,3.1,3.1c1.7,0,3.1-1.4,3.1-3.1l0-8.1c0.9-0.2,1.8-0.2,2.7-0.2v-0.3l0,0l0.1,0.3
			c0.7,0,1.5,0.1,2.2,0.2v8.2c0,1.7,1.4,3.1,3.1,3.1s3.1-1.4,3.1-3.1l0,0v-5.8c1.1,0.7,2.1,1.5,2.9,2.4c1.2,1.2,3.2,1.3,4.4,0.1
			c1.2-1.2,1.3-3.2,0.1-4.4c-4.1-4.4-9.9-6.8-15.9-6.9h-0.1c-5.9,0-11.6,2.4-15.8,6.6l0.4-65.5c0-0.1,0-0.2,0.1-0.3L33.6,6.6
			c0.1-0.2,0.4-0.4,0.6-0.4c0.3,0,0.5,0.1,0.6,0.4l25.5,51.7c1.2,2.4,3.5,3.9,6.2,3.9l35.7,0.2c2.6,0,5-1.5,6.2-3.8l26.1-51.4
			c0.1-0.2,0.3-0.4,0.6-0.4c0,0,0.1,0,0.1,0c0.2,0,0.4,0.2,0.5,0.4l26.1,53c0,0.1,0.1,0.2,0.1,0.3l0,7.9
			c-0.1,19.6-0.4,71.6-0.4,72.6c0,9-7,16.3-15.6,16.3c-0.1,0-0.1,0-0.2,0h-0.1c-0.1,0-0.1,0-0.2,0c-8.8-0.1-15.9-7.2-15.8-16
			C129.4,137.1,131.1,133,134.2,130.1L134.2,130.1z"/>
		<path id="Path_694" class="st0" d="M142.6,121.6c-1.7,0-3.1,1.4-3.1,3.1v8.4c0,1.7,1.5,3.1,3.2,3.1c1.7,0,3-1.4,3.1-3.1v-8.4
			C145.7,123,144.3,121.6,142.6,121.6z"/>
		<path id="Path_695" class="st0" d="M153.9,136.2c1.7,0,3.1-1.4,3.1-3.1v-8.4c0-1.7-1.5-3.1-3.2-3.1c-1.7,0-3,1.4-3.1,3.1v8.4
			C150.8,134.8,152.2,136.2,153.9,136.2z"/>
		<path id="Path_696" class="st0" d="M45.1,58.3v-2.8c0-6.1-4.9-11-11-11s-11,4.9-11,11v2.9c0,1.5,1.2,2.7,2.7,2.7h16.6
			C43.9,61,45.1,59.8,45.1,58.3z"/>
		<path id="Path_697" class="st0" d="M145.9,58.3v-2.8c0-6.1-4.9-11-11-11c-6.1,0-11,4.9-11,11v2.9c0,1.5,1.2,2.7,2.7,2.7h16.6
			C144.7,61,145.9,59.8,145.9,58.3z"/>
	</g>
	<g id="Group_185" transform="translate(117.696 486.864)">
		<g id="Group_182" transform="translate(14.863)">
			<g id="Group_170" transform="translate(0 1.32)">
				<path id="Path_698" class="st0" d="M13.6,0c-0.4,0-0.7,0-1.1,0C9.6,0,9.4,0.7,9.4,3c0,1.9,0,3.1,0,3.7v0.1c-0.1,1-0.3,1-1.4,1
					c-1.4,0-1.6,0-1.6-1c0-0.4,0-0.6,0-3.7c0-2.7-0.5-3-2.7-3H2.3C1.1,0,0.1,0.9,0.1,2.1c0,0.1,0,0.1,0,0.2C0,4.3,0,6.4,0,8.6
					c0,1.7,0,3.3,0.1,4.8c0,1.6,1.1,2.5,2.9,2.6C4.5,16,6.1,16,8,16s3.6,0,5.2-0.1c1.5,0,2.7-1.2,2.7-2.7c0-1.5,0.1-3.1,0.1-4.8
					c0-2.1,0-4.2-0.1-6.2c0-1.2-0.9-2.2-2.1-2.3C13.7,0,13.6,0,13.6,0z M14.4,13c0,1-0.5,1.5-1.6,1.5c-1.7,0-3.3,0.1-4.8,0.1
					s-3,0-4.5-0.1c-1.3,0-1.8-0.4-1.8-1.5c0-1.5-0.1-3.1-0.1-4.7c0-1.8,0-3.7,0.1-5.5c0-1.3,0.5-1.4,1.5-1.4c1.8,0,1.8,0,1.8,1.7
					v3.1c0,2.6,0.5,3,3,3c2.9,0,3-0.7,3-3.3c0-0.6,0-1.2,0-1.8c0-0.5,0-1,0-1.3c0-1,0-1.3,0.9-1.3h1.5c0.7,0,1.1,0.2,1.1,1.4
					c0,1.6,0.1,3.5,0.1,5.4C14.4,9.9,14.4,11.5,14.4,13L14.4,13z"/>
			</g>
			<g id="Group_174" transform="translate(28.654 0.609)">
				<g id="Group_171" transform="translate(4.724 5.888)">
					<path id="Path_699" class="st0" d="M11.1,1.3c0.3,0,0.6-0.3,0.6-0.6c0,0,0,0,0,0c0-0.3-0.2-0.6-0.6-0.6c0,0,0,0,0,0H0.6
						C0.3,0,0,0.3,0,0.6c0,0,0,0,0,0C0,1,0.3,1.3,0.6,1.3c0,0,0,0,0,0l3.1,0C3.5,1.9,3.1,2.8,2.9,3.5c-0.7,0-1.3,0.1-2,0.1
						c-0.4,0-0.7,0.3-0.7,0.6c0,0,0,0,0,0c0,0.4,0.3,0.7,0.7,0.7c0,0,0,0,0,0c2.9-0.1,5.8-0.4,8.6-0.9c0.3,0.3,0.5,0.5,0.7,0.8
						c0.1,0.2,0.3,0.3,0.6,0.3c0.4,0,0.7-0.4,0.8-0.8c0-0.9-3-3.1-3.7-3.1C7.5,1.3,7.2,1.6,7.2,2c0,0.2,0.1,0.4,0.3,0.5
						C7.7,2.6,8,2.8,8.3,3c-1.5,0.2-2.8,0.3-4,0.4c0.3-0.7,0.7-1.6,0.9-2.1L11.1,1.3z"/>
				</g>
				<g id="Group_172">
					<path id="Path_700" class="st0" d="M4,4.5c0.7,0,1.4,0,2,0c0.8,0,1.5,0,2.3,0c1.8,0,3.6,0,5.7,0s2.3-1.1,2.3-2.2
						c0-1.3-0.2-2.2-2.2-2.3c-3,0-6.7,0-9.6,0c-1.1-0.1-2,0.6-2.1,1.7c0,0.1,0,0.1,0,0.2c0,0.3,0,0.7,0,1.1c0,0.8,0,1.7,0,2.6
						c0,3.4-0.3,7.7-2.3,10.4C0.1,16.1,0,16.2,0,16.4c0,0.4,0.4,0.7,0.8,0.7c0.3,0,0.6-0.1,0.7-0.4C3.7,13.8,4,9,4,4.7V4.5z M4,2.2
						c0-0.4,0.1-0.9,1.1-0.9c2.5,0,6,0,8.7,0c1,0,1,0.4,1,0.9c0,0.7,0,0.9-0.9,0.9c-1.2,0-2.9,0-4.6,0c-1.7,0-3.5,0-5.2,0L4,2.2z"/>
				</g>
				<g id="Group_173" transform="translate(3.631 10.777)">
					<path id="Path_701" class="st0" d="M12.9,4.8l-5.3,0V3.1l3.9,0c0.4,0,0.7-0.3,0.7-0.7s-0.3-0.7-0.7-0.7l-3.9,0V0.7
						C7.5,0.3,7.2,0,6.8,0C6.4,0,6.1,0.3,6.1,0.7l0,1.1l-4,0c-0.4,0-0.7,0.3-0.7,0.7s0.3,0.7,0.7,0.7l4,0v1.8l-5.4,0
						C0.3,4.8,0,5.1,0,5.5c0,0.3,0.3,0.6,0.6,0.6h12.2c0.4,0,0.7-0.3,0.6-0.7C13.5,5.1,13.2,4.8,12.9,4.8L12.9,4.8z"/>
				</g>
			</g>
			<g id="Group_175" transform="translate(58.546)">
				<path id="Path_702" class="st0" d="M13.6,3.9c-1.5,0-3.2-0.1-4.9-0.1l0-3.2C8.7,0.3,8.3,0,7.8,0C7.5,0,7.2,0.3,7.1,0.7l0,3.2
					c-1.7,0-3.3,0-4.8,0.1C1.1,3.9,0.1,4.8,0,6.1c0,0.5,0,1.1,0,1.7S0,9,0,9.6c0.1,1.2,1.1,2.2,2.3,2.1c0,0,0,0,0,0
					c1.5,0.1,3.1,0.1,4.8,0.1l0,5.8c0,0.4,0.4,0.7,0.7,0.7c0,0,0,0,0,0c0.4,0,0.8-0.3,0.8-0.7c0,0,0,0,0,0l0-5.8
					c1.6,0,3.2,0,4.8-0.1c1.2,0,2.2-0.9,2.3-2.1c0-0.6,0-1.2,0-1.9s0-1.2,0-1.8C15.7,4.8,14.8,3.9,13.6,3.9z M7.2,10.3
					c-1.8,0-3.4-0.1-4.3-0.1c-1.2-0.1-1.3-0.4-1.3-2.4c0-0.5,0-1,0-1.3c0-0.7,0.6-1.2,1.3-1.1c1.2,0,2.7-0.1,4.4-0.1L7.2,10.3z
					 M14.3,9.1c0,0.7-0.5,1.1-1.2,1.1c-1.5,0.1-3,0.1-4.4,0.1v-5c1.7,0,3.2,0,4.4,0.1c1.2,0.1,1.3,0.5,1.3,2.2
					C14.3,8.1,14.3,8.7,14.3,9.1L14.3,9.1z"/>
			</g>
			<g id="Group_181" transform="translate(86.489 0.538)">
				<g id="Group_176" transform="translate(0 7.857)">
					<path id="Path_703" class="st0" d="M17.7,7.9L17.7,7.9c-0.4,0-0.7,0.1-1.1,0.1c-1.4,0.1-3.3,0.3-4.9,0.3
						c-3.6,0-5.4-0.6-6.8-2.3c0-0.8,0-1.5,0-2.2c0-0.6,0-1.3,0-1.8C5,0,3.6,0,2.4,0H1.1C0.7,0,0.4,0.3,0.4,0.7c0,0,0,0,0,0
						c0,0.4,0.3,0.7,0.7,0.7c0,0,0,0,0,0h1.7c0.5,0,0.7,0.2,0.7,0.7V3c0,0.8,0,1.8,0,2.8l0,0c-0.9,0.9-1.9,1.7-3,2.3
						C0.2,8.3,0,8.5,0,8.8c0,0.4,0.4,0.8,0.8,0.8c0.6,0,2.5-1.6,3.4-2.5c1.9,2.1,3.7,2.6,8.2,2.6c2.1,0,4.1-0.1,5.3-0.3
						c0.4,0,0.8-0.4,0.8-0.8C18.5,8.2,18.2,7.9,17.7,7.9C17.7,7.9,17.7,7.9,17.7,7.9z"/>
				</g>
				<g id="Group_177" transform="translate(5.216)">
					<path id="Path_704" class="st0" d="M0.8,7.1c0.4,0,1.3-0.8,2.3-1.8v0C3.1,5.7,3.3,6,3.7,6c0,0,0,0,0,0l2,0v1.8l-4.1,0
						C1.3,7.7,1,8,1,8.3C0.9,8.7,1.2,9,1.6,9c0,0,0,0,0.1,0l4.1,0v3.9c0,0.6-0.2,0.7-0.6,0.7c-0.4,0-0.8-0.1-1.1-0.2l-0.1,0
						c0,0-0.1,0-0.1,0c-0.4,0-0.7,0.4-0.7,0.8c0,0.8,1.1,0.9,2,0.9c1.8,0,2.1-1,2.1-1.9v-0.1c0,0,0-1.2,0-1.3V9l4.1,0
						c0.4,0,0.7-0.3,0.7-0.6c0,0,0,0,0,0c0-0.4-0.3-0.7-0.7-0.7c0,0,0,0,0,0l-4.1,0V5.9l2.2,0c0.4,0,0.7-0.3,0.7-0.6c0,0,0,0,0,0
						c0-0.1,0-0.1,0-0.2c0.6,0.5,1.1,1,1.6,1.3l0,0c0.2,0.1,0.4,0.2,0.6,0.2c0.5,0,0.8-0.4,0.8-0.8c0-0.3-0.1-0.5-0.4-0.6
						c-1.8-1.3-3.5-2.7-4.9-4.4C7.4,0.3,6.8,0,6.2,0C5.7,0,5.1,0.3,4.8,0.8C3.6,2.7,2.1,4.3,0.4,5.7C0.1,5.8,0,6,0,6.3
						C0,6.7,0.4,7.1,0.8,7.1z M5.9,1.7c0.2-0.3,0.3-0.3,0.4-0.3c0.1,0,0.3,0.1,0.5,0.3c0.9,1,1.8,2,2.8,2.9c0,0-0.1,0-0.1,0H3.7
						c0,0-0.1,0-0.1,0C4.5,3.7,5.2,2.7,5.9,1.7L5.9,1.7z"/>
				</g>
				<g id="Group_178" transform="translate(5.548 9.755)">
					<path id="Path_705" class="st0" d="M4.3,0.8C4.3,0.4,3.9,0,3.5,0C3.3,0,3.1,0.1,3,0.3C2.4,1.2,1.5,2,0.4,2.4
						C0.2,2.5,0,2.8,0,3.1c0,0.4,0.3,0.7,0.7,0.8C1.5,3.8,4.3,1.6,4.3,0.8z"/>
				</g>
				<g id="Group_179" transform="translate(13.322 9.88)">
					<path id="Path_706" class="st0" d="M0.7,0C0.3,0,0,0.3,0,0.7c0,0.2,0.1,0.4,0.3,0.5c1,0.5,1.9,1.3,2.6,2.1
						c0.1,0.2,0.3,0.3,0.5,0.3c0.4,0,0.8-0.4,0.8-0.8c0-0.2-0.1-0.4-0.2-0.6C3.2,1.4,1.3,0,0.7,0z"/>
				</g>
				<g id="Group_180" transform="translate(0.459 3.25)">
					<path id="Path_707" class="st0" d="M0.5,1.4l2.7,0.7c0.1,0,0.1,0,0.2,0c0.4,0,0.7-0.3,0.7-0.7c0-0.1,0-0.3-0.1-0.4
						C3.9,0.9,3.8,0.8,3.6,0.7L0.9,0C0.5-0.1,0.1,0.1,0,0.5C-0.1,0.9,0.1,1.3,0.5,1.4C0.5,1.4,0.5,1.4,0.5,1.4z"/>
				</g>
			</g>
		</g>
		<g id="Group_183" transform="translate(0 1.333)">
			<path id="Path_708" class="st0" d="M0.9,15.6c-0.5,0-0.9-0.4-0.9-0.9V0.9C0,0.4,0.4,0,0.9,0s0.9,0.4,0.9,0.9c0,0,0,0,0,0v13.9
				C1.8,15.2,1.4,15.6,0.9,15.6z"/>
		</g>
		<g id="Group_184" transform="translate(132.931 1.333)">
			<path id="Path_709" class="st0" d="M0.9,15.6c-0.5,0-0.9-0.4-0.9-0.9l0,0V0.9C0,0.4,0.4,0,0.9,0s0.9,0.4,0.9,0.9v13.9
				C1.8,15.2,1.4,15.6,0.9,15.6L0.9,15.6z"/>
		</g>
	</g>
</g>
</svg>
