<svg xmlns="http://www.w3.org/2000/svg" width="415.841" height="176.117" viewBox="0 0 415.841 176.117">
  <g id="project05_02" transform="translate(-275.536 -2106.162)">
    <g id="Group_187" data-name="Group 187" transform="translate(365.812 2108.415)">
      <path id="Path_710" data-name="Path 710" d="M1067.4,2173.3l17.756-44.451,52.525,31.6,44.921,14.583,3.213-17.506,16.374-2.511,22.133,14.251,28.146-2.563,32.143-41.453h26.833l26.16,27.459,18.406-6.037,10,20.22-20.025,15.168-3.718,20.273-11.3,7.258-26.783-4.006-43.385,11.576-36.751,27.21-40.791,6.169h0l2.893,11.917-9.409,3.658-2.992-3.208-32.731,30.75-42.01-8.476-19.442-29.929-10.768-.643-10.671-25.029L1040.446,2217l8.692-28.091Z" transform="translate(-1040.446 -2125.247)" fill="#fff"/>
    </g>
    <g id="Group_188" data-name="Group 188" transform="translate(275.536 2162.042)">
      <path id="Path_711" data-name="Path 711" d="M281.558,2579.634l-6.022,6.022v74.591l6.691,6.691h15.719l6.691-6.691v-73.922l-6.691-6.691Z" transform="translate(-275.536 -2579.634)" fill="#f0831e"/>
    </g>
    <g id="Group_189" data-name="Group 189" transform="translate(589.179 2106.162)">
      <path id="Path_712" data-name="Path 712" d="M2966.6,2112.184l-6.022-6.022h-20.851l-6.691,6.691v22.41h26.873l6.691-6.691Z" transform="translate(-2933.036 -2106.162)" fill="#f0831e"/>
    </g>
    <g id="Group_193" data-name="Group 193" transform="translate(280.19 2170.906)">
      <g id="Group_190" data-name="Group 190" transform="translate(0 0)">
        <path id="Path_713" data-name="Path 713" d="M322.782,2666.661a.828.828,0,0,0,.1-.125,16.476,16.476,0,0,0,1.713-2.632l.982.648c.153.1.23.188.23.272s-.077.146-.23.188a2.178,2.178,0,0,1-.4.021,13.576,13.576,0,0,1-1.88,1.441c-.1.07-.23.153-.4.251l.1.062a20.48,20.48,0,0,1,2.486,1.9l-.919.94a18.855,18.855,0,0,0-2.277-3.029c-.07-.084-.139-.16-.209-.23v9.338h-1.086v-9.254l-.146.146q-.543.606-1.024,1.044-.689.627-2.11,1.755l-.146-.209a30.406,30.406,0,0,0,2.528-2.882,43.4,43.4,0,0,0,3.7-5.7h-5.348l-.71.146v-.794l.71.146h2.549v-3.363h1.065q.355,0,.355.188,0,.1-.334.355v2.82h3.2q-.606,1.17-1.17,2.089a26.778,26.778,0,0,1-1.964,2.883.136.136,0,0,0-.063.063v1.087l.125.083.209.125.146.083A2.073,2.073,0,0,1,322.782,2666.661Zm7.207-7.938v1.232a32.527,32.527,0,0,1-1.191,9.464,10.75,10.75,0,0,1-5.076,6.392l-.146-.23a14.621,14.621,0,0,0,1.358-1.253,10.4,10.4,0,0,0,1.024-1.358,13.9,13.9,0,0,0,1.88-4.366,31.052,31.052,0,0,0,.752-4.658q.209-2.172.209-3.99v-1.232h-2.34l-.71.146v-.793l.71.146h9.233q-.125,6.309-.773,14a10.2,10.2,0,0,1-.334,2.214,1.746,1.746,0,0,1-.648.856,2.286,2.286,0,0,1-1.316.272h-2.945V2675H331.7a2.087,2.087,0,0,0,.919-.146,1.35,1.35,0,0,0,.71-.731,7.953,7.953,0,0,0,.272-1.525q.334-2.695.627-7.9.167-3.049.23-5.787l.021-.188Z" transform="translate(-317.272 -2656.503)" fill="#fff"/>
        <path id="Path_714" data-name="Path 714" d="M321.34,2674.362l-.377-.593.159-.133a14.479,14.479,0,0,0,1.335-1.232,10.219,10.219,0,0,0,1-1.326,13.724,13.724,0,0,0,1.848-4.292,31.009,31.009,0,0,0,.747-4.627c.138-1.436.208-2.771.208-3.967v-1h-2.08l-.97.2v-1.373l.97.2h9.45l0,.241c-.083,4.188-.344,8.9-.774,14.011a10.3,10.3,0,0,1-.347,2.275,1.989,1.989,0,0,1-.729.966,2.461,2.461,0,0,1-1.456.318h-3.182V2673H329.4a1.825,1.825,0,0,0,.807-.118,1.125,1.125,0,0,0,.6-.609l.009-.02a7.31,7.31,0,0,0,.249-1.449c.221-1.781.431-4.432.625-7.88.11-2.007.187-3.933.228-5.726h-4v1a32.9,32.9,0,0,1-1.2,9.537,11.022,11.022,0,0,1-5.185,6.525Zm6.269-.8h2.709a2.019,2.019,0,0,0,1.173-.223,1.511,1.511,0,0,0,.567-.744l0-.011a9.5,9.5,0,0,0,.319-2.148c.421-5,.679-9.623.767-13.74h-9.017l-.45-.093v.215l.474-.093h2.576v1.469c0,1.211-.071,2.561-.21,4.012a31.441,31.441,0,0,1-.759,4.695,14.178,14.178,0,0,1-1.91,4.435,10.645,10.645,0,0,1-1.048,1.39q-.183.2-.424.428a10.709,10.709,0,0,0,3.89-5.569,32.461,32.461,0,0,0,1.18-9.394v-1.466h4.991l-.049.44c-.041,1.809-.119,3.755-.23,5.783-.195,3.458-.406,6.12-.628,7.913a6.905,6.905,0,0,1-.289,1.591,1.585,1.585,0,0,1-.825.849,2.268,2.268,0,0,1-1.021.169h-1.79Zm-7.583.618h-1.558v-8.9c-.27.289-.529.547-.775.771-.461.419-1.175,1.013-2.122,1.765l-.2.156-.4-.578.143-.14a30.367,30.367,0,0,0,2.507-2.86,42.852,42.852,0,0,0,3.483-5.321h-4.923l-.97.2V2657.9l.97.2h2.289v-3.363h1.3c.534,0,.591.3.591.424,0,.145-.093.277-.334.471v2.468h3.348l-.179.344c-.405.782-.8,1.491-1.178,2.1a27.191,27.191,0,0,1-1.981,2.907l-.011.014v.861l.02.014.341.2.05.031a16.4,16.4,0,0,0,1.651-2.548l.121-.23,1.2.791c.081.051.336.214.336.469,0,.114-.052.319-.4.415a1.583,1.583,0,0,1-.369.029,13.777,13.777,0,0,1-1.84,1.4l-.085.058a20.492,20.492,0,0,1,2.306,1.784l.182.165-1.3,1.331-.159-.256a19.39,19.39,0,0,0-2.049-2.777Zm-1.086-.472h.614v-10.39l.024-.049a.374.374,0,0,1,.114-.136,26.927,26.927,0,0,0,1.922-2.826c.315-.514.644-1.095.982-1.731h-3.042V2655.4l.094-.071c.064-.048.112-.087.148-.118h-.856v3.363l-2.832,0-.427-.088v.215l.474-.093H321.9l-.192.35a43.826,43.826,0,0,1-3.718,5.734q-.742.944-1.425,1.716.486-.406.808-.7c.313-.286.652-.632,1.007-1.028l.009-.009.549-.549Zm1.828-8.362a20.533,20.533,0,0,1,1.549,2.14l.537-.549A20.442,20.442,0,0,0,320.768,2665.345Zm1.615-2.866a17.238,17.238,0,0,1-1.1,1.767,14.764,14.764,0,0,0,1.446-1.154l.067-.061h.09a2.988,2.988,0,0,0,.321-.011l-.051-.034Zm.919.507Z" transform="translate(-314.97 -2654.739)" fill="#fff"/>
      </g>
      <g id="Group_191" data-name="Group 191" transform="translate(0.032 25.068)">
        <path id="Path_715" data-name="Path 715" d="M324.829,2870.016v5.87h1.4a7.3,7.3,0,0,1-1.462,2.57v8.21a1.5,1.5,0,0,1-.146.793,1.042,1.042,0,0,1-.418.4,1.733,1.733,0,0,1-.71.1H322.03v-.564h1.044a.626.626,0,0,0,.731-.731v-2.674h-3.468v3.969h-.961v-9.589h5.118c.014-.042.028-.09.042-.146a14.956,14.956,0,0,0,.355-1.838h-6.079v.25a7.938,7.938,0,0,1-.46,2.674l-.773-1.149a6.285,6.285,0,0,0,.564-1.4,10.065,10.065,0,0,0,.251-1.588h.313q.063.586.063.71h.648v-5.87Zm-4.491,10.9h3.468v-2.047h-3.468Zm0,2.57h3.468v-2.068h-3.468Zm.021-12.972v5.368h1.4V2872.5h2.131v-1.984Zm3.53,2.444h-1.274v2.925h1.274Zm4.47,11.072h-1.086v-3.426h7.98v3.426h-1.212a.912.912,0,0,1-.083.167l-.063.125a21.316,21.316,0,0,1-1.546,2.737h3.7l.731-.146v.794l-.731-.146h-9.735l-.71.146v-.794l.71.146h2.925l-.042-.188q-.5-1.88-.773-2.653ZM326.792,2879l-.731.146v-.794l.731.146h9l.71-.146v.794l-.71-.146Zm.1-2.11v-5.974h2.59v-1.776h.815q.376,0,.376.188,0,.1-.334.355v1.233h1.8v-1.776h.815q.376,0,.376.188,0,.1-.334.355v1.233h2.862v5.974Zm.877-3.28h1.713v-2.277h-1.713Zm0,2.883h1.713v-2.486h-1.713Zm6.5,7.04v-2.423h-6.037v2.423Zm-5.786.5q.125.1.188.167a10.784,10.784,0,0,1,1.609,2.068l-.9.794h2.653l.042-.125a14.43,14.43,0,0,0,.71-2.633l.021-.125.042-.146Zm1.859-10.424h1.8v-2.277h-1.8Zm0,2.883h1.8v-2.486h-1.8Zm2.653-2.883h1.964v-2.277H333Zm0,2.883h1.964v-2.486H333Z" transform="translate(-317.304 -2868.903)" fill="#fff"/>
        <path id="Path_716" data-name="Path 716" d="M321.431,2886.433h-1.7V2885.4h1.281a.53.53,0,0,0,.392-.1.518.518,0,0,0,.1-.385v-2.445h-3v3.969h-1.433v-10.061h5.176a14.142,14.142,0,0,0,.3-1.512h-5.571v.015a8.21,8.21,0,0,1-.473,2.753l-.157.442-1.115-1.657.069-.126a6.054,6.054,0,0,0,.543-1.347,9.882,9.882,0,0,0,.244-1.548l.019-.215h.741l.023.211c.025.232.04.39.05.5h.19v-5.87H323v5.87h1.5l-.115.316a7.716,7.716,0,0,1-1.448,2.582v8.116a1.671,1.671,0,0,1-.185.923,1.268,1.268,0,0,1-.51.479A1.91,1.91,0,0,1,321.431,2886.433Zm-1.226-.472h1.226a1.465,1.465,0,0,0,.6-.08.8.8,0,0,0,.322-.31l.007-.011a1.258,1.258,0,0,0,.1-.659v-8.057h-4.918v9.116h.489v-3.969h3.94v2.91a.855.855,0,0,1-.974.967h-.8Zm-4.411-9.576.422.627a7.75,7.75,0,0,0,.3-2.138v-.487H323.1l-.037.268c-.082.6-.181,1.137-.294,1.6a7.317,7.317,0,0,0,1.055-1.9h-1.294v-5.87h-4.938v5.87h-1.12v-.117a8.167,8.167,0,0,1-.162.817A6.494,6.494,0,0,1,315.794,2876.385Zm7.511,9.851v-1.373l.97.2h2.6c-.315-1.178-.565-2.031-.739-2.527l-.01-.03h-1.152v-3.9h8.452v3.9h-1.3l-.026.045-.059.117a22.63,22.63,0,0,1-1.319,2.4h3.236l.991-.2v1.369l-.991-.2h-9.687Zm.922-.672,9.8,0,.449.09v-.218l-.5.094h-9.758l-.45-.093v.215Zm3.718-.5h1.861a14.371,14.371,0,0,0,.687-2.557H327.01a11.59,11.59,0,0,1,1.411,1.875l.1.169Zm-1.181-2.127c.156.506.349,1.186.575,2.032l.574-.507A11.072,11.072,0,0,0,326.765,2882.935Zm4.214-.467-.019.112a18.168,18.168,0,0,1-.478,1.985,22.821,22.821,0,0,0,1.14-2.1l.073-.145a.671.671,0,0,0,.062-.121l.054-.161h1.146v-2.954h-7.508v2.954H331.1Zm1.468-.464h-6.509v-2.9h6.509Zm-6.037-.472h5.565v-1.951h-5.565Zm-4.429.43h-3.94v-2.54h3.94Zm-3.468-.472h3v-1.6h-3Zm3.468-2.1h-3.94v-2.519h3.94Zm-3.468-.472h3v-1.575h-3Zm16.169-1.25-.97-.2h-8.956l-.991.2v-1.37l.99.2h8.956l.97-.2Zm-10.445-.8v.218l.5-.094h9.028l.45.093v-.215l-.474.093h-9.027Zm9.8-1.514H324.6v-6.447h2.59v-1.775h1.051c.552,0,.612.3.612.424,0,.145-.093.277-.334.471v.88h1.324v-1.775h1.051c.552,0,.612.3.612.424,0,.145-.093.277-.334.471v.88h2.862Zm-.9-.472h.426v-5.5h-.426Zm-2.82,0h.384V2867.8l.094-.071c.063-.047.111-.086.147-.117h-.626Zm-2.653,0h.384V2867.8l.094-.071c.063-.047.111-.086.147-.117h-.626Zm-2.59,0h.405v-5.5h-.405Zm6.1-.4h1.492v-2.014h-1.492Zm-2.653,0h1.324v-2.014h-1.324Zm-2.57,0h1.241v-2.014h-1.241Zm5.223-2.883h1.492v-1.8h-1.492Zm-2.653,0h1.324v-1.8h-1.324Zm-2.57,0h1.241v-1.8h-1.241Zm-3.885,2.749h-1.746v-3.384h-.384v3.384h-1.872v-5.841h4Zm-1.274-.472h.8v-2.452h-.8Zm-2.256,0h.928V2870.5h2.131v-1.512h-3.058Z" transform="translate(-315.243 -2867.139)" fill="#fff"/>
      </g>
      <g id="Group_192" data-name="Group 192" transform="translate(0.001 49.978)">
        <path id="Path_717" data-name="Path 717" d="M317.58,3097.05a7.156,7.156,0,0,0,.668-1.588,17.411,17.411,0,0,0,.418-2.047h.313v.919q0,1.337-.073,2.037a9.447,9.447,0,0,1-.282,1.473Zm1.044-5.16v-10.445h6.664l.71-.146v.794l-.71-.146h-2.235v2.737h1.692l.731-.146v.794l-.731-.146h-1.692v2.778h1.692l.731-.146v.794l-.731-.146h-1.692v2.924h2.883a55.848,55.848,0,0,1-.606,7.019,1.6,1.6,0,0,1-.355.773,1.129,1.129,0,0,1-.272.23,1.969,1.969,0,0,1-.961.167h-2.068v-.564H323.2a1.04,1.04,0,0,0,.961-.438,7.74,7.74,0,0,0,.376-2.068q.23-1.859.376-4.617Zm3.447-9.944h-2.423v2.737h2.423Zm0,3.238h-2.423v2.778h2.423Zm-2.423,6.2h2.423v-2.924h-2.423Zm.125,2.089.251-.042a11.6,11.6,0,0,1,.627,1.734,13.35,13.35,0,0,1,.251,1.441l-.94.208q.021-.584.021-.9A15.425,15.425,0,0,0,319.773,3093.477Zm1.337-.167.251-.084a7.882,7.882,0,0,1,.794,1.441,15.141,15.141,0,0,1,.522,1.525l-.919.208A13.483,13.483,0,0,0,321.11,3093.311Zm1.629-.313a10.014,10.014,0,0,1,.94,1.42q.271.523.627,1.358l-.877.209a18.066,18.066,0,0,0-.9-2.9Zm6.455,1.107a13.486,13.486,0,0,1-.313,1.358,16.652,16.652,0,0,1,2.319,1.755l-.773.856a16.182,16.182,0,0,0-1.65-2.34,8.281,8.281,0,0,1-.48,1.065,6.513,6.513,0,0,1-2.632,2.611l-.084-.188a6.055,6.055,0,0,0,.961-.919,8.96,8.96,0,0,0,1.379-2.674,9.229,9.229,0,0,0,.334-1.357c.014-.056.028-.111.042-.167h-1.483v-4.93h3.739v4.93Zm1.943-12.576c.042.056.076.1.1.146a15.311,15.311,0,0,0,2.193,2.841,14.87,14.87,0,0,0,3.321,2.486q-.23.48-.439,1a13.821,13.821,0,0,1-5.348-6.079l-.063.146a.917.917,0,0,0-.084.167,14.868,14.868,0,0,1-4.951,6.058l-.1-.188a18.98,18.98,0,0,0,3.008-3.864,19.818,19.818,0,0,0,1.734-3.593l.94.271c.139.042.209.118.209.23s-.077.195-.23.25A1.037,1.037,0,0,1,331.138,3081.528Zm-1.546,12.116v-4.011h-1.817v4.011Zm3.426-7.1.71-.146v.794l-.71-.146h-3.8l-.71.146v-.794l.71.146ZM334,3094.1a.392.392,0,0,0-.021.125,14.046,14.046,0,0,1-.46,1.922.258.258,0,0,0,.1.063,19.621,19.621,0,0,1,3.113,2.632l-.773.94a17.319,17.319,0,0,0-2.026-2.82q-.293-.313-.522-.584a6.955,6.955,0,0,1-.292.689,6.743,6.743,0,0,1-3.071,2.757l-.084-.209a7.171,7.171,0,0,0,3.113-5.515h-1.4v-4.93h3.865v4.93Zm.564-.459v-4.011h-1.922v4.011Z" transform="translate(-317.273 -3080.362)" fill="#fff"/>
        <path id="Path_718" data-name="Path 718" d="M333.632,3098.041l-.17-.3a17.149,17.149,0,0,0-2-2.782c-.093-.1-.182-.2-.268-.292-.053.125-.106.241-.159.346a7.005,7.005,0,0,1-3.177,2.864l-.229.113-.249-.624.159-.106a6.9,6.9,0,0,0,2.978-5.083h-1.37v-5.4h4.337v5.4H331.9a15.165,15.165,0,0,1-.4,1.709,19.889,19.889,0,0,1,3.107,2.634l.145.151Zm-1.709-3.27a17.8,17.8,0,0,1,1.777,2.443l.424-.516A19.364,19.364,0,0,0,331.923,3094.771Zm-.877-3.05-.027.249a7.818,7.818,0,0,1-1.948,4.608,5.722,5.722,0,0,0,1.548-1.78,6.745,6.745,0,0,0,.279-.658l.14-.38.009.01a14.721,14.721,0,0,0,.4-1.724.631.631,0,0,1,.033-.177l.05-.148Zm1.458-.013h.51v-4.458h-.51Zm-2.883,0h.489v-4.458h-.489Zm.961-.459h1.45v-3.539h-1.45Zm-9.135,6.4h-2.3v-1.036H320.9a.818.818,0,0,0,.766-.336,7.369,7.369,0,0,0,.336-1.961c.019-.153.037-.311.055-.474l-1.109.264-.05-.237a17.905,17.905,0,0,0-.887-2.866l-.087-.219.592-.237.109.14a10.308,10.308,0,0,1,.962,1.455c.156.3.333.679.529,1.128.1-.961.177-2.069.246-3.309h-6.275v-10.917h6.876l.97-.2v1.373l-.97-.2h-1.975v2.265h1.433l.991-.2v1.37l-.991-.2h-1.433v2.306h1.433l.991-.2v.306a19.074,19.074,0,0,0,2.863-3.712,19.7,19.7,0,0,0,1.712-3.548l.073-.212,1.155.334a.468.468,0,0,1,.379.457.487.487,0,0,1-.349.458l-.051.03a15.287,15.287,0,0,0,2.11,2.711,14.683,14.683,0,0,0,3.267,2.443l.192.108-.1.2c-.15.313-.3.646-.432.988l-.1.26-.238-.146a13.619,13.619,0,0,1-2.231-1.7v.973l-.97-.2h-3.754l-.97.2v-.965a14.463,14.463,0,0,1-2.26,1.976l-.215.152-.082-.148v.4l-.991-.2h-1.433v2.453h2.893l-.01.246a56.313,56.313,0,0,1-.61,7.053,2.306,2.306,0,0,1-.258.687l.131-.1a5.87,5.87,0,0,0,.924-.883,9.153,9.153,0,0,0,1.642-3.812h-1.425v-5.4h4.211v5.4h-1.4c-.074.379-.152.72-.234,1.017a16.994,16.994,0,0,1,2.2,1.685l.175.158-1.147,1.27-.163-.277a16.462,16.462,0,0,0-1.374-2c-.106.25-.221.491-.346.721a6.776,6.776,0,0,1-2.726,2.706l-.225.124L323,3097a1.109,1.109,0,0,1-.144.183,1.376,1.376,0,0,1-.321.271A2.146,2.146,0,0,1,321.447,3097.654Zm-1.832-.472h1.832a1.709,1.709,0,0,0,.837-.132.924.924,0,0,0,.214-.18l.014-.016a1.355,1.355,0,0,0,.292-.659,54.437,54.437,0,0,0,.589-6.73h-2.872v-3.4l1.974,0,.449.089v-.218l-.5.095h-1.928v-3.25l1.974,0,.449.09v-.218l-.5.094h-1.928v-3.208l2.519,0,.427.088v-.214l-.474.093h-6.428v9.973h6.3l-.013.249c-.1,1.836-.224,3.4-.377,4.633a6.034,6.034,0,0,1-.419,2.178,1.266,1.266,0,0,1-1.159.536h-1.281Zm6.575-5.02a9.72,9.72,0,0,1-1.608,3.927,6.245,6.245,0,0,0,1.212-1.562,8.051,8.051,0,0,0,.466-1.034l.116-.312c.1-.356.2-.786.291-1.278l.033-.181h-.4Zm.851,1.723a16.869,16.869,0,0,1,1.129,1.634l.4-.443A16.56,16.56,0,0,0,327.041,3093.884Zm-6.261-2.177a17.577,17.577,0,0,1,.532,1.832l.371-.088c-.189-.434-.36-.8-.508-1.084C321.062,3092.155,320.93,3091.935,320.78,3091.708Zm6.752,0h.489v-4.458h-.489Zm-2.778,0h.489v-4.458h-.489Zm.961-.459h1.345v-3.539h-1.345Zm3.648-10.657a13.465,13.465,0,0,0,4.548,4.9c.079-.19.161-.376.245-.558a14.991,14.991,0,0,1-3.183-2.417A17.308,17.308,0,0,1,329.362,3080.592Zm-1-1.812a20.708,20.708,0,0,1-1.679,3.426,21.886,21.886,0,0,1-1.835,2.6,15.069,15.069,0,0,0,3.463-4.822,1.178,1.178,0,0,1,.091-.185l.17-.4-.116-.156.311-.1a1.553,1.553,0,0,0,.213-.081l.024-.024.049-.018a.377.377,0,0,0,.055-.024l-.022-.008Zm-1.467,5.868,3.874,0,.427.088v-.214l-.474.093H326.9l-.45-.093v.214Zm.048-.5H330.7l.631-.13a14.614,14.614,0,0,1-2.649-3.7,15.915,15.915,0,0,1-2.4,3.7Zm-10.479,11.938-1.488-1.131.1-.179a6.926,6.926,0,0,0,.647-1.535,17.261,17.261,0,0,0,.412-2.019l.031-.2h.752v1.155c0,.894-.025,1.587-.074,2.061a9.719,9.719,0,0,1-.289,1.51Zm-.876-1.258.6.454a8.813,8.813,0,0,0,.189-1.093c.047-.452.071-1.12.072-1.982-.084.438-.174.827-.268,1.162A7.371,7.371,0,0,1,315.589,3094.826Zm1.83.131.011-.305c.014-.4.021-.687.021-.89a15.244,15.244,0,0,0-.206-2.406l-.037-.232.662-.11.074.167a11.884,11.884,0,0,1,.639,1.77,13.62,13.62,0,0,1,.257,1.472l.027.213Zm.409-2.815a14.7,14.7,0,0,1,.094,1.62c0,.152,0,.35-.011.6l.432-.1c-.063-.458-.136-.861-.218-1.2C318.049,3092.776,317.95,3092.467,317.828,3092.142Zm1.421,2.391-.023-.271a13.318,13.318,0,0,0-.637-3.038l-.073-.223.643-.214.1.147a8.142,8.142,0,0,1,.817,1.484,15.372,15.372,0,0,1,.53,1.547l.073.242Zm.017-2.7a13.487,13.487,0,0,1,.405,2.119l.41-.093a13.182,13.182,0,0,0-.439-1.257A7,7,0,0,0,319.267,3091.834Zm.745-2.369h-2.9v-3.4h2.9Zm-2.423-.472h1.951v-2.453h-1.951Zm2.423-2.954h-2.9v-3.25h2.9Zm-2.423-.472h1.951v-2.306h-1.951Zm2.423-2.808h-2.9v-3.208h2.9Zm-2.423-.472h1.951v-2.265h-1.951Z" transform="translate(-314.977 -3078.203)" fill="#fff"/>
      </g>
    </g>
    <g id="Group_194" data-name="Group 194" transform="translate(316.487 2201.316)">
      <path id="Path_719" data-name="Path 719" d="M634.589,2958.153c3.086-.6,4.763-2.683,4.763-6.574v-35.351h-4.427c-6.172,0-9.324,1.945-10.733,6.574l-1.677-.335.738-10.062h1.61s.537,1.073,2.683,1.073h30.924a3.07,3.07,0,0,0,2.683-1.073h1.476l-.738,10.4-1.677-.335c0-4.629-3.019-6.239-7.043-6.239h-7.379v37.565c0,3.086,1.61,3.958,4.293,4.36l2.147.335v1.946s-4.562-.2-9.794-.2c-4.7,0-9.525.2-9.525.2v-1.946Z" transform="translate(-622.514 -2912.404)" fill="#f0831e"/>
    </g>
    <g id="Group_195" data-name="Group 195" transform="translate(388.397 2218.154)">
      <path id="Path_720" data-name="Path 720" d="M1247.709,3084.448v1.812s-4.629-.2-7.58-.2c-3.086,0-8.318.2-8.318.2v-1.812l1.811-.268a4.2,4.2,0,0,0,3.555-4.494v-16.033c0-2.884-1.14-4.024-5.031-4.024l-.336-1.476a35.458,35.458,0,0,0,11.135-3.086v25.155c0,3.153.537,3.69,2.616,3.958Z" transform="translate(-1231.811 -3055.067)" fill="#f0831e"/>
    </g>
    <g id="Group_196" data-name="Group 196" transform="translate(408.119 2218.086)">
      <path id="Path_721" data-name="Path 721" d="M1404.819,3070.061c0,6.238,3.555,12.477,11.538,12.477A17.78,17.78,0,0,0,1424,3081l.671,1.274c-.872,1.073-4.495,4.561-11.337,4.561-5.1,0-14.422-3.488-14.422-15.428,0-8.653,6.239-16.9,16.971-16.9,4.494,0,9.391,1.811,9.391,5.434,0,2.012-2.214,3.287-4.293,3.287a4.505,4.505,0,0,1-1.878-.4,4.586,4.586,0,0,0,.268-1.542c0-1.61-1.207-3.757-6.1-3.757C1408.576,3057.517,1404.819,3061.34,1404.819,3070.061Z" transform="translate(-1398.916 -3054.498)" fill="#f0831e"/>
    </g>
    <g id="Group_202" data-name="Group 202" transform="translate(387.952 2199.472)">
      <g id="Group_197" data-name="Group 197" transform="translate(4.673 0)">
        <path id="Path_722" data-name="Path 722" d="M1273.337,2900.553c0,2.2-2.083,3.982-2.855,3.982-.693,0-2.855-1.783-2.855-3.982s1.278-3.777,2.855-3.777S1273.337,2898.353,1273.337,2900.553Z" transform="translate(-1267.628 -2896.776)" fill="#f0831e"/>
      </g>
      <g id="Group_198" data-name="Group 198" transform="translate(0 3.624)">
        <path id="Path_723" data-name="Path 723" d="M1232.625,2927.739c2.092.679,3.144,3.211,2.906,3.945-.214.659-2.578,2.164-4.67,1.484s-3.2-2.382-2.71-3.882S1230.533,2927.059,1232.625,2927.739Z" transform="translate(-1228.036 -2927.483)" fill="#f0831e"/>
      </g>
      <g id="Group_199" data-name="Group 199" transform="translate(1.784 7.338)">
        <path id="Path_724" data-name="Path 724" d="M1244.074,2960.7c1.293-1.78,4.026-2,4.651-1.544.561.407,1.261,3.121-.032,4.9s-3.254,2.3-4.529,1.378S1242.781,2962.48,1244.074,2960.7Z" transform="translate(-1243.155 -2958.953)" fill="#f0831e"/>
      </g>
      <g id="Group_200" data-name="Group 200" transform="translate(7.246 7.338)">
        <path id="Path_725" data-name="Path 725" d="M1294.787,2960.7c-1.293-1.78-4.026-2-4.651-1.544-.561.407-1.262,3.121.031,4.9s3.254,2.3,4.53,1.378S1296.08,2962.48,1294.787,2960.7Z" transform="translate(-1289.436 -2958.953)" fill="#f0831e"/>
      </g>
      <g id="Group_201" data-name="Group 201" transform="translate(7.527 3.624)">
        <path id="Path_726" data-name="Path 726" d="M1294.755,2927.739c-2.092.679-3.144,3.211-2.906,3.945.214.659,2.578,2.164,4.67,1.484s3.2-2.382,2.71-3.882S1296.847,2927.059,1294.755,2927.739Z" transform="translate(-1291.816 -2927.483)" fill="#f0831e"/>
      </g>
    </g>
    <g id="Group_203" data-name="Group 203" transform="translate(556.773 2251.254)">
      <path id="Path_727" data-name="Path 727" d="M2660.288,3335.525c-.256,0,.553.572.868,1.566a5.79,5.79,0,0,1-.432,4.094c-.627,1.686-1.825,3.641-2.193,5.715-.305,2.074.221,4.268,4.464,6.429.3,0-.5-.557-.8-1.532a5.694,5.694,0,0,1,.459-4.038c.635-1.67,1.843-3.618,2.2-5.7C2665.156,3339.969,2664.607,3337.746,2660.288,3335.525Z" transform="translate(-2658.459 -3335.525)" fill="#fac03d"/>
    </g>
    <g id="Group_204" data-name="Group 204" transform="translate(564.59 2246.884)">
      <path id="Path_728" data-name="Path 728" d="M2726.618,3298.5c-.269,0,.584.6.916,1.651a6.111,6.111,0,0,1-.455,4.317c-.662,1.776-1.926,3.838-2.312,6.025-.322,2.187.233,4.5,4.706,6.778.314,0-.524-.588-.843-1.616a6,6,0,0,1,.484-4.258c.67-1.761,1.944-3.814,2.324-6.013C2731.751,3303.18,2731.171,3300.836,2726.618,3298.5Z" transform="translate(-2724.691 -3298.495)" fill="#fac03d"/>
    </g>
    <g id="Group_205" data-name="Group 205" transform="translate(570.487 2147.432)">
      <path id="Path_729" data-name="Path 729" d="M2786.686,2456.594c-3.747-.328-7.8-.578-12.021-.748v43.77c14.477.719,25.8,2.241,25.8,2.241l0-.008C2793.723,2494.589,2789.38,2471.466,2786.686,2456.594Z" transform="translate(-2774.664 -2455.846)" fill="#fdd35c"/>
    </g>
    <g id="Group_206" data-name="Group 206" transform="translate(534.637 2149.778)">
      <path id="Path_730" data-name="Path 730" d="M2470.9,2475.722c1.178,6.5,2.721,16.9,4.545,24.164l-.069-23.756A42,42,0,0,0,2470.9,2475.722Z" transform="translate(-2470.903 -2475.722)" fill="#fdd35c"/>
    </g>
    <g id="Group_207" data-name="Group 207" transform="translate(540.686 2147.156)">
      <path id="Path_731" data-name="Path 731" d="M2522.157,2456.662v26.573a84.788,84.788,0,0,0,5.127,14.168c3.122-.137,6.227-.22,9.882-.22,4.835,0,8.391.146,12.865.368v-43.77c-4.835-.2-8.575-.287-13.012-.276-.925.394-2.085,3.934-2.067,5.7A65.739,65.739,0,0,0,2522.157,2456.662Z" transform="translate(-2522.157 -2453.504)" fill="#f0831e"/>
    </g>
    <g id="Group_208" data-name="Group 208" transform="translate(530.823 2109.506)">
      <path id="Path_732" data-name="Path 732" d="M2464.385,2140.644s-1.76-6.151-2.343-6.151-2.344,6.152-2.344,6.152c-4.919,4.919-12.669,12.7-21.111,19,7.091,5.3,18.723,10.8,22.274,10.578,5.383-.028,30.771-.245,44.921,3.953.354-3.7,1.787-4.3,1.787-4.3C2492.574,2168.939,2474.312,2150.57,2464.385,2140.644Z" transform="translate(-2438.588 -2134.493)" fill="#bb5413"/>
    </g>
    <g id="Group_209" data-name="Group 209" transform="translate(519.932 2148.932)">
      <path id="Path_733" data-name="Path 733" d="M2346.308,2513.058c15.433.766,27.506,2.389,27.506,2.389l0-.009c-7.186-7.739-11.815-30.238-14.688-46.092-3.995-.35-8.319-.615-12.815-.8Z" transform="translate(-2346.308 -2468.549)" fill="#fdd35c"/>
    </g>
    <g id="Group_210" data-name="Group 210" transform="translate(461.69 2149.032)">
      <path id="Path_734" data-name="Path 734" d="M1868.512,2470.015l-1,.085c-2.872,15.854-7.5,38.353-14.688,46.092l0,.009s10.9-1.465,25.22-2.268V2469.4C1874.734,2469.56,1871.534,2469.764,1868.512,2470.015Z" transform="translate(-1852.824 -2469.403)" fill="#fdd35c"/>
    </g>
    <g id="Group_211" data-name="Group 211" transform="translate(488.564 2148.636)">
      <path id="Path_735" data-name="Path 735" d="M2080.523,2466.443v44.53c5.412-.3,10.013-.512,16-.512,5.154,0,8.946.155,13.715.391v-44.51C2099.73,2465.918,2090.883,2465.951,2080.523,2466.443Z" transform="translate(-2080.523 -2466.047)" fill="#f0831e"/>
    </g>
    <g id="Group_212" data-name="Group 212" transform="translate(456.031 2108.781)">
      <path id="Path_736" data-name="Path 736" d="M1855.9,2134.905s-1.876-6.557-2.5-6.557-2.5,6.558-2.5,6.558c-9.78,9.78-30.05,30.163-46.034,31.161,0,0,1.527.637,1.9,4.585,4.069-1.382,10.767-2.424,18.8-3.127l1-.085c3.022-.251,6.222-.454,9.532-.612,10.36-.492,21.805-.525,32.313-.1,4.5.182,8.821.448,12.815.8q.669.058,1.326.12c7.443.7,13.63,1.7,17.474,3.008.377-3.948,1.9-4.585,1.9-4.585C1885.955,2165.069,1866.487,2145.487,1855.9,2134.905Z" transform="translate(-1804.874 -2128.348)" fill="#bb5413"/>
    </g>
    <g id="Group_215" data-name="Group 215" transform="translate(355.672 2218.086)">
      <g id="Group_213" data-name="Group 213" transform="translate(2.539 0)">
        <path id="Path_737" data-name="Path 737" d="M1003.011,3082.472a5.578,5.578,0,0,1-2.75.671c-2.75,0-3.153-2.147-3.153-5.5,0-4.494.335-8.654.335-12.88,0-6.238-2.616-10.263-9.526-10.263-6.171,0-11.873,3.019-11.873,6.641,0,1.945,1.409,3.085,3.555,3.085a5.26,5.26,0,0,0,3.22-1.006,3.8,3.8,0,0,1-.872-2.482c0-1.677,1.275-3.421,4.495-3.421,4.226,0,5.433,2.683,5.433,6.238,0,2.214-.2,6.708-.2,6.708l-.075,2.146h.008s-.067,2.214-.067,4.629a27.515,27.515,0,0,0,.335,4.36l.47,1.476a5.3,5.3,0,0,0,5.366,3.958,7.377,7.377,0,0,0,5.9-3.22Z" transform="translate(-976.045 -3054.499)" fill="#fac03d"/>
      </g>
      <g id="Group_214" data-name="Group 214" transform="translate(0 15.764)">
        <path id="Path_738" data-name="Path 738" d="M964.664,3201.281a3.9,3.9,0,0,1-4.226-4.226c0-4.627,5.094-6.84,11.128-6.842l.075-2.146c-7.781,0-17.106,2.213-17.106,9.727,0,4.427,2.885,6.842,7.714,6.842,5.367,0,7.312-3.354,10.062-3.958l-.47-1.476C969.091,3199.872,967.884,3201.281,964.664,3201.281Z" transform="translate(-954.535 -3188.066)" fill="#f0831e"/>
      </g>
    </g>
    <g id="Group_216" data-name="Group 216" transform="translate(436.629 2199.035)">
      <path id="Path_739" data-name="Path 739" d="M1651.679,2917.095V2893.08a35.5,35.5,0,0,1-11.2,3.085l.4,1.476c3.891,0,5.031,1.14,5.031,4.092v35.083a4.2,4.2,0,0,1-3.555,4.494l-1.878.268v1.811s5.3-.2,8.318-.2,7.647.2,7.647.2v-1.811l-2.147-.268c-2.146-.2-2.616-.805-2.616-3.958v-18.38l.012,0v-1.88Z" transform="translate(-1640.477 -2893.08)" fill="#f0831e"/>
    </g>
    <g id="Group_217" data-name="Group 217" transform="translate(449.024 2218.086)">
      <path id="Path_740" data-name="Path 740" d="M1759.983,3064.092v15.093a4.243,4.243,0,0,1-3.555,4.494l-1.341.268v1.811s4.763-.2,8.05-.2c2.884,0,7.379.2,7.379.2v-1.811l-2.146-.268c-2.147-.269-2.616-.805-2.616-3.958v-16.367c0-4.964-2.817-8.855-8.787-8.855-5.287,0-9.838,4.472-11.458,4.959v1.88c2.547-.474,5.7-2.748,9.245-2.748C1758.239,3058.591,1759.983,3060.469,1759.983,3064.092Z" transform="translate(-1745.506 -3054.499)" fill="#fac03d"/>
    </g>
    <g id="Group_220" data-name="Group 220" transform="translate(473.683 2218.556)">
      <g id="Group_218" data-name="Group 218" transform="translate(21.171 0)">
        <path id="Path_741" data-name="Path 741" d="M2149.247,3085.779c-3.958,0-5.031-1.073-5.031-4.024v-22.606l-.671-.671-9.727,1.073v1.811c3.488,0,4.628,1.073,4.628,4.025v19.386l.4,5.568a32.652,32.652,0,0,1,10.733-3.086Z" transform="translate(-2133.818 -3058.477)" fill="#fac03d"/>
      </g>
      <g id="Group_219" data-name="Group 219" transform="translate(0 0)">
        <path id="Path_742" data-name="Path 742" d="M1969.932,3085.645c-2.683,0-5.1-1.744-5.1-5.769v-20.728l-.671-.671-9.727,1.073v1.811c3.488,0,4.629,1.073,4.629,4.025v16.1c0,4.964,2.817,8.855,8.787,8.855,5.3,0,9.19-5.3,11.2-5.568v-1.946C1975.835,3083.565,1974.292,3085.645,1969.932,3085.645Z" transform="translate(-1954.436 -3058.477)" fill="#f0831e"/>
      </g>
    </g>
    <g id="Group_223" data-name="Group 223" transform="translate(512.629 2218.086)">
      <g id="Group_221" data-name="Group 221" transform="translate(0 0.067)">
        <path id="Path_743" data-name="Path 743" d="M2295.632,3059.964v-4.9a35.511,35.511,0,0,1-11.2,3.086l.4,1.476c3.891,0,5.031,1.14,5.031,4.024v16.033a4.2,4.2,0,0,1-3.555,4.494l-1.878.268v1.812s5.3-.2,8.318-.2,7.647.2,7.647.2v-1.812l-2.146-.268c-2.146-.2-2.616-.805-2.616-3.958v-20.258Z" transform="translate(-2284.43 -3055.067)" fill="#f0831e"/>
      </g>
      <g id="Group_222" data-name="Group 222" transform="translate(12.383 0)">
        <path id="Path_744" data-name="Path 744" d="M2398.007,3058.591c3.488,0,5.3,1.878,5.3,5.5v15.093a4.3,4.3,0,0,1-3.555,4.494l-1.409.268v1.811s4.763-.2,8.05-.2c2.951,0,7.379.2,7.379.2v-1.811l-2.08-.268c-2.146-.269-2.683-.805-2.683-3.958v-16.367c0-4.964-2.817-8.855-8.788-8.855-5.232,0-9.257,4.494-10.867,4.964v1.878C2391.9,3060.872,2394.452,3058.591,2398.007,3058.591Z" transform="translate(-2389.354 -3054.499)" fill="#fac03d"/>
      </g>
    </g>
    <g id="Group_245" data-name="Group 245" transform="translate(315.458 2162.042)">
      <g id="Group_224" data-name="Group 224" transform="translate(123.48 9.169)">
        <path id="Path_745" data-name="Path 745" d="M1667.11,2660.178c0-2.009-1.166-2.851-2.948-2.851a4.355,4.355,0,0,0-4.115,3.726l7.031-.389A3.875,3.875,0,0,0,1667.11,2660.178Z" transform="translate(-1660.047 -2657.327)" fill="none"/>
      </g>
      <g id="Group_225" data-name="Group 225" transform="translate(0 0.454)">
        <path id="Path_746" data-name="Path 746" d="M619.859,2594.2v-10.63l-1.49,0c-1.523,0-4.568-.1-4.568-.1v.939l1.069.162c1.328.194,1.879.616,1.879,2.106v15.2c0,1.879-.713,2.916-2.106,3.175l-.842.162v.939s2.106-.1,4.439-.1c3.078,0,4.957.1,4.957.1v-.939l-1.3-.162c-1.361-.162-2.041-.616-2.041-2.106V2594.2Z" transform="translate(-613.8 -2583.478)" fill="#bb5413"/>
      </g>
      <g id="Group_226" data-name="Group 226" transform="translate(16.978 8.068)">
        <path id="Path_747" data-name="Path 747" d="M763.036,2660.143v-12.15a17.135,17.135,0,0,1-5.378,1.49l.162.713c1.879,0,2.43.551,2.43,1.944v7.743a2.031,2.031,0,0,1-1.717,2.171l-.875.13v.875s2.527-.1,4.018-.1c1.426,0,3.661.1,3.661.1v-.875l-1.037-.13C763.3,2661.925,763.036,2661.666,763.036,2660.143Z" transform="translate(-757.658 -2647.993)" fill="#bb5413"/>
      </g>
      <g id="Group_227" data-name="Group 227" transform="translate(19.084)">
        <path id="Path_748" data-name="Path 748" d="M777.381,2583.425a1.9,1.9,0,1,0-1.879-1.879A1.888,1.888,0,0,0,777.381,2583.425Z" transform="translate(-775.502 -2579.634)" fill="#bb5413"/>
      </g>
      <g id="Group_228" data-name="Group 228" transform="translate(39.983 8.035)">
        <path id="Path_749" data-name="Path 749" d="M955.009,2651.088a2.334,2.334,0,0,1,2.56-2.268,3.209,3.209,0,0,1,3.24,3.467h.94l.194-3.92c-1.167,0-2.4-.648-3.985-.648-3.24,0-5.119,1.976-5.119,4.244,0,4.957,7.29,4.342,7.29,7.841,0,1.361-1.231,2.2-2.884,2.2-1.977,0-3.435-1.328-3.823-3.694h-.842c.162,4.083.162,4.342.162,4.342,1.458,0,2.236.68,4.309.68,3.078,0,5.411-1.523,5.411-4.374C962.461,2654.068,955.009,2654.457,955.009,2651.088Z" transform="translate(-952.579 -2647.718)" fill="#bb5413"/>
      </g>
      <g id="Group_229" data-name="Group 229" transform="translate(85.312)">
        <path id="Path_750" data-name="Path 750" d="M1338.526,2583.425a1.9,1.9,0,1,0-1.879-1.879A1.888,1.888,0,0,0,1338.526,2583.425Z" transform="translate(-1336.647 -2579.634)" fill="#bb5413"/>
      </g>
      <g id="Group_230" data-name="Group 230" transform="translate(83.206 8.068)">
        <path id="Path_751" data-name="Path 751" d="M1324.181,2660.143v-12.15a17.138,17.138,0,0,1-5.379,1.49l.162.713c1.879,0,2.43.551,2.43,1.944v7.743a2.031,2.031,0,0,1-1.717,2.171l-.875.13v.875s2.527-.1,4.018-.1c1.425,0,3.661.1,3.661.1v-.875l-1.037-.13C1324.44,2661.925,1324.181,2661.666,1324.181,2660.143Z" transform="translate(-1318.802 -2647.993)" fill="#bb5413"/>
      </g>
      <g id="Group_231" data-name="Group 231" transform="translate(120.434 8.035)">
        <path id="Path_752" data-name="Path 752" d="M1642.5,2661.229c-3.37,0-5.411-2.268-5.411-6.318a12.781,12.781,0,0,1,.065-1.426h9.494l.519-.453c0-3.37-1.685-5.313-5.087-5.313a7.911,7.911,0,0,0-7.841,8.165c0,4.147,2.3,7.452,6.9,7.452a7.346,7.346,0,0,0,5.7-2.462l-.259-.616A8.11,8.11,0,0,1,1642.5,2661.229Zm-1.1-12.377c1.782,0,2.948.843,2.948,2.852a3.869,3.869,0,0,1-.032.486l-7.031.389A4.355,4.355,0,0,1,1641.4,2648.852Z" transform="translate(-1634.24 -2647.718)" fill="#bb5413"/>
      </g>
      <g id="Group_232" data-name="Group 232" transform="translate(6.649 0.454)">
        <path id="Path_753" data-name="Path 753" d="M672.149,2584.58c3.726,0,5.476,1.847,5.9,4.212h.778v-5.313s-3.963.08-8.684.095v1.233A8.53,8.53,0,0,1,672.149,2584.58Z" transform="translate(-670.14 -2583.478)" fill="#bb5413"/>
      </g>
      <g id="Group_233" data-name="Group 233" transform="translate(6.649 7.42)">
        <path id="Path_754" data-name="Path 754" d="M672.732,2647.524c1.782,0,2.527.745,2.722,2.074l.13.777h.81s-.1-1.944-.1-3.758c0-1.717.1-4.115.1-4.115h-.81l-.227,1.3a2.577,2.577,0,0,1-2.916,2.462h-2.3v1.263Z" transform="translate(-670.14 -2642.502)" fill="#bb5413"/>
      </g>
      <g id="Group_234" data-name="Group 234" transform="translate(26.601 8.068)">
        <path id="Path_755" data-name="Path 755" d="M844.605,2651.492v-3.5a17.161,17.161,0,0,1-5.411,1.49l.194.713c1.879,0,2.43.551,2.43,1.944v7.743a2.031,2.031,0,0,1-1.717,2.171l-.907.13v.875s1.685-.1,4.018-.1c2.527,0,4.18.1,4.18.1v-.875l-1.523-.13c-1.037-.1-1.264-.388-1.264-1.911v-8.651Z" transform="translate(-839.194 -2647.993)" fill="#bb5413"/>
      </g>
      <g id="Group_235" data-name="Group 235" transform="translate(32.603 8.035)">
        <path id="Path_756" data-name="Path 756" d="M894.03,2650.764a2.281,2.281,0,0,1-.1.648,3.19,3.19,0,0,0,.94.162,1.71,1.71,0,0,0,1.782-1.815,2.018,2.018,0,0,0-2.3-2.041c-2.074,0-3.726,2.495-4.309,2.624v.907c.68-.195,1.75-1.458,2.819-1.458C893.706,2649.791,894.03,2650.245,894.03,2650.764Z" transform="translate(-890.045 -2647.718)" fill="#bb5413"/>
      </g>
      <g id="Group_236" data-name="Group 236" transform="translate(51.485 5.119)">
        <path id="Path_757" data-name="Path 757" d="M1060.7,2639.21a8.016,8.016,0,0,1-3.078.519c-1.814,0-2.43-1.264-2.43-2.657v-13.835l-.778-.227a9.187,9.187,0,0,1-1.75,2.495,8.544,8.544,0,0,1-2.625,1.685l.1.713h2.268v9.494c0,2.689,1.555,4.147,3.953,4.147a6.616,6.616,0,0,0,4.439-1.555Z" transform="translate(-1050.037 -2623.01)" fill="#bb5413"/>
      </g>
      <g id="Group_237" data-name="Group 237" transform="translate(57.228 8.554)">
        <rect id="Rectangle_35" data-name="Rectangle 35" width="4.99" height="1.523" fill="#bb5413"/>
      </g>
      <g id="Group_238" data-name="Group 238" transform="translate(70.893 5.119)">
        <path id="Path_758" data-name="Path 758" d="M1225.14,2639.21a8.015,8.015,0,0,1-3.078.519c-1.815,0-2.43-1.264-2.43-2.657v-13.835l-.778-.227a9.191,9.191,0,0,1-1.75,2.495,8.546,8.546,0,0,1-2.625,1.685l.1.713h2.268v9.494c0,2.689,1.555,4.147,3.953,4.147a6.617,6.617,0,0,0,4.439-1.555Z" transform="translate(-1214.48 -2623.01)" fill="#bb5413"/>
      </g>
      <g id="Group_239" data-name="Group 239" transform="translate(76.636 8.554)">
        <rect id="Rectangle_36" data-name="Rectangle 36" width="4.99" height="1.523" fill="#bb5413"/>
      </g>
      <g id="Group_240" data-name="Group 240" transform="translate(92.829 8.068)">
        <path id="Path_759" data-name="Path 759" d="M1405.751,2650.358v-2.365a17.161,17.161,0,0,1-5.411,1.49l.194.713c1.88,0,2.43.551,2.43,1.944v7.743a2.031,2.031,0,0,1-1.717,2.171l-.907.13v.875s2.56-.1,4.018-.1,3.694.1,3.694.1v-.875l-1.037-.13c-1.037-.1-1.263-.388-1.263-1.911v-9.785Z" transform="translate(-1400.34 -2647.993)" fill="#bb5413"/>
      </g>
      <g id="Group_241" data-name="Group 241" transform="translate(107.471 10.304)">
        <path id="Path_760" data-name="Path 760" d="M1524.4,2666.941l0,.007Z" transform="translate(-1524.403 -2666.941)" fill="none"/>
      </g>
      <g id="Group_242" data-name="Group 242" transform="translate(98.83 8.035)">
        <path id="Path_761" data-name="Path 761" d="M1459.948,2649.986c-.033-.077-.061-.14-.084-.189a3.86,3.86,0,0,0-3.782-2.079c-2.527,0-4.115,2.171-4.893,2.4v.907c1.231-.227,2.138-1.328,3.856-1.328,1.685,0,2.527.907,2.527,2.657v7.29a2.049,2.049,0,0,1-1.717,2.171l-.648.13v.875s2.3-.1,3.888-.1c1.393,0,3.564.1,3.564.1v-.875l-1.037-.13c-1.037-.129-1.264-.388-1.264-1.911v-7.906a4.934,4.934,0,0,0-.1-.972h.007a5.162,5.162,0,0,0-.318-1.028Z" transform="translate(-1451.189 -2647.718)" fill="#bb5413"/>
      </g>
      <g id="Group_243" data-name="Group 243" transform="translate(107.387 10.115)">
        <path id="Path_762" data-name="Path 762" d="M1523.692,2665.337c.023.049.051.112.084.189C1523.749,2665.462,1523.722,2665.4,1523.692,2665.337Z" transform="translate(-1523.692 -2665.337)" fill="#bb5413"/>
      </g>
      <g id="Group_244" data-name="Group 244" transform="translate(108.233 8.035)">
        <path id="Path_763" data-name="Path 763" d="M1537.663,2652.351v7.29a2.049,2.049,0,0,1-1.717,2.171l-.648.13v.875s2.3-.1,3.888-.1c1.393,0,3.564.1,3.564.1v-.875l-1.037-.13c-1.037-.129-1.263-.388-1.263-1.911v-7.906a3.937,3.937,0,0,0-4.245-4.277c-2.527,0-4.471,2.2-5.346,2.4a6.8,6.8,0,0,1,.266.906c1.228-.23,2.3-1.327,4.01-1.327C1536.821,2649.694,1537.663,2650.6,1537.663,2652.351Z" transform="translate(-1530.858 -2647.718)" fill="#bb5413"/>
      </g>
    </g>
    <g id="Group_246" data-name="Group 246" transform="translate(549.781 2209.247)">
      <path id="Path_764" data-name="Path 764" d="M2649.506,2984.343a4.2,4.2,0,0,0-1.508-3.23c-2.477,1.4-8.8,2.567-15.722,1.507a20.781,20.781,0,0,0-11.522-3.015c-13.568,0-21.536,9.368-21.536,18.737,0,9.045,8.9,17.747,21.536,17.121s19.06-10.661,19.06-18.844a16.7,16.7,0,0,0-3.876-10.768c2.369.754,4.2,3.015,7.86,3.015C2647.783,2988.866,2649.506,2986.5,2649.506,2984.343Zm-29.29,27.567c-6.138,0-11.493-3.581-11.493-13.6,0-7.968,3.892-12.915,11.2-13.336,6.147-.354,10.844,5.826,10.844,13.148C2630.769,3007.28,2626.462,3011.91,2620.216,3011.91Z" transform="translate(-2599.218 -2979.605)" fill="#f0831e"/>
    </g>
    <g id="Group_247" data-name="Group 247" transform="translate(535.66 2248.942)">
      <path id="Path_765" data-name="Path 765" d="M2534.273,3322.647c-.753-2.334-4.818-7.81-10.606-6.51a6.1,6.1,0,0,0-4.268,4.488c4.938,1.222,6.031,6.488,5.81,9.07-.475,5.552-5.908,9.347-13.273,11.96a37.166,37.166,0,0,1-5.566,1.033c-7.748.192-13.953-1.476-16.126-6.522-1.859-4.316.511-8.786,2.773-10.643a6.2,6.2,0,0,0-5.376-2.7,7.98,7.98,0,0,0-6.733,4.036,11.177,11.177,0,0,0-1.33,5.94c.267,10.8,19.679,22.382,39.435,13.063C2528.6,3341.343,2537.294,3332.015,2534.273,3322.647Z" transform="translate(-2479.573 -3315.939)" fill="#f0831e"/>
    </g>
    <g id="Group_252" data-name="Group 252" transform="translate(593.92 2112.7)">
      <g id="Group_248" data-name="Group 248" transform="translate(18.762 0)">
        <path id="Path_766" data-name="Path 766" d="M3137.5,2176.98v.606s-1.549-.067-2.536-.067c-1.033,0-2.783.067-2.783.067v-.606l.606-.09a1.407,1.407,0,0,0,1.189-1.5v-5.364c0-.965-.381-1.346-1.683-1.346l-.112-.494a11.869,11.869,0,0,0,3.726-1.032v8.417c0,1.055.18,1.234.875,1.324Zm-2.559-15.419a1.313,1.313,0,1,1-1.3,1.324A1.312,1.312,0,0,1,3134.942,2161.561Z" transform="translate(-3132.182 -2161.561)" fill="#fff"/>
      </g>
      <g id="Group_251" data-name="Group 251" transform="translate(0 0.314)">
        <g id="Group_249" data-name="Group 249">
          <path id="Path_767" data-name="Path 767" d="M2977.406,2171.36v-4.175a1.984,1.984,0,0,1,1.594-2.2l.561-.112v-.651s-1.616.068-3.187.068c-1.75,0-3.164-.068-3.164-.068v.651l.741.112c.92.135,1.3.426,1.3,1.459v10.526c0,1.3-.494,2.02-1.459,2.2l-.583.112v.651s1.5-.067,3.075-.067c1.75,0,3.277.067,3.277.067v-.651l-.853-.112c-.9-.112-1.3-.427-1.3-1.459v-5.431h.005v-.92Z" transform="translate(-2973.209 -2164.223)" fill="#fff"/>
        </g>
        <g id="Group_250" data-name="Group 250" transform="translate(4.526)">
          <path id="Path_768" data-name="Path 768" d="M3020.018,2176.971c0,1.3-.494,2.02-1.459,2.2l-.583.112v.651s1.5-.067,3.075-.067c1.75,0,3.277.067,3.277.067v-.651l-.853-.112c-.9-.112-1.3-.427-1.3-1.459v-10.526a1.984,1.984,0,0,1,1.594-2.2l.561-.112v-.651s-1.616.068-3.187.068c-1.75,0-3.164-.068-3.164-.068v.651l.74.112c.92.135,1.3.426,1.3,1.459v4.915h-8.456v.92h8.456Z" transform="translate(-3011.562 -2164.223)" fill="#fff"/>
        </g>
      </g>
    </g>
  </g>
</svg>
