<svg xmlns="http://www.w3.org/2000/svg" width="25" height="211.889" viewBox="0 0 25 211.889">
  <g id="scroll" transform="translate(-40 -594)">
    <text id="scroll-2" data-name="scroll" transform="translate(47 644) rotate(90)" fill="#fef5ef" font-size="16" font-family="Quicksand" font-weight="500"><tspan x="-29.864" y="0">SCROLL</tspan></text>
    <line id="Line_2" data-name="Line 2" y2="87.5" transform="translate(52.5 704.5)" fill="none" stroke="#fef5ef" stroke-width="1"/>
    <g id="Rectangle_18" data-name="Rectangle 18" transform="translate(40 594)" fill="none" stroke="#fef5ef" stroke-width="1">
      <rect width="25" height="100" rx="12.5" stroke="none"/>
      <rect x="0.5" y="0.5" width="24" height="99" rx="12" fill="none"/>
    </g>
    <path id="Path_33" data-name="Path 33" d="M930,663.321a12.514,12.514,0,0,1-12.5-12.5.446.446,0,1,1,.892,0,11.608,11.608,0,0,0,23.217,0,.446.446,0,1,1,.892,0A12.514,12.514,0,0,1,930,663.321Z" transform="translate(-877.5 142.568)" fill="#fef5ef"/>
  </g>
</svg>
