<svg xmlns="http://www.w3.org/2000/svg" width="65.59" height="69.999" viewBox="0 0 65.59 69.999">
  <path id="T_O" d="M1297.09,493.619a33.516,33.516,0,0,0-6.756-10.973,30.7,30.7,0,0,0-10.254-7.283,33.63,33.63,0,0,0-25.875,0,30.679,30.679,0,0,0-10.254,7.283,32.839,32.839,0,0,0-6.708,10.973,40.889,40.889,0,0,0,0,27.312,32.819,32.819,0,0,0,6.708,10.973,30.653,30.653,0,0,0,10.254,7.283,33.63,33.63,0,0,0,25.875,0,30.674,30.674,0,0,0,10.254-7.283,33.5,33.5,0,0,0,6.756-10.973,40.114,40.114,0,0,0,0-27.312Zm-9.008,27.5a23.67,23.67,0,0,1-8.481,9.535,24.219,24.219,0,0,1-24.916,0,23.644,23.644,0,0,1-8.481-9.535,32.9,32.9,0,0,1,0-27.743,23.713,23.713,0,0,1,8.481-9.487,24.219,24.219,0,0,1,24.916,0,23.674,23.674,0,0,1,8.481,9.535,32.8,32.8,0,0,1,0,27.7Z" transform="translate(-1234.396 -472.275)" fill="#fef5ef" stroke="#584b53" stroke-linecap="square" stroke-linejoin="bevel" stroke-width="1"/>
</svg>
