<svg xmlns="http://www.w3.org/2000/svg" width="45.945" height="68.082" viewBox="0 0 45.945 68.082">
  <path id="T_P" d="M149.791,477.4a17.852,17.852,0,0,0-9.44-2.587H117.927A3.925,3.925,0,0,0,114,478.738v59.223a3.962,3.962,0,0,0,1.054,2.78,3.591,3.591,0,0,0,2.779,1.15,3.481,3.481,0,0,0,2.683-1.15,3.966,3.966,0,0,0,1.055-2.78v-22.9h18.783a17.144,17.144,0,0,0,9.44-2.731A19.293,19.293,0,0,0,156.5,505a21.516,21.516,0,0,0,2.443-10.254,21.163,21.163,0,0,0-2.443-10.254A18.391,18.391,0,0,0,149.791,477.4Zm-.048,23.814a12.08,12.08,0,0,1-3.881,4.648,9.332,9.332,0,0,1-5.51,1.725H121.569v-25.3h18.783a9.715,9.715,0,0,1,5.51,1.63,11.5,11.5,0,0,1,3.881,4.456,13.864,13.864,0,0,1,1.438,6.373A14.451,14.451,0,0,1,149.743,501.21Z" transform="translate(-113.498 -474.309)" fill="#fef5ef" stroke="#584b53" stroke-linecap="square" stroke-linejoin="bevel" stroke-width="1"/>
</svg>
