<svg xmlns="http://www.w3.org/2000/svg" width="53.42" height="68.082" viewBox="0 0 53.42 68.082">
  <path id="T_T" d="M623.737,474.809H579.176a4.074,4.074,0,0,0-2.78,1.006,3.335,3.335,0,0,0-1.15,2.635,3.479,3.479,0,0,0,1.15,2.684,3.96,3.96,0,0,0,2.78,1.054h18.208v55.774a3.851,3.851,0,0,0,4.024,3.929,4.022,4.022,0,0,0,2.971-1.15,3.785,3.785,0,0,0,1.15-2.78V482.188h18.208a4.077,4.077,0,0,0,2.779-1.006,3.333,3.333,0,0,0,1.15-2.636,3.481,3.481,0,0,0-1.15-2.683A3.97,3.97,0,0,0,623.737,474.809Z" transform="translate(-574.747 -474.309)" fill="#fef5ef" stroke="#584b53" stroke-linecap="square" stroke-linejoin="bevel" stroke-width="1"/>
</svg>
