<?xml version="1.0" encoding="utf-8"?>
<!-- Generator: Adobe Illustrator 22.0.1, SVG Export Plug-In . SVG Version: 6.00 Build 0)  -->
<svg version="1.1" id="圖層_1" xmlns="http://www.w3.org/2000/svg" xmlns:xlink="http://www.w3.org/1999/xlink" x="0px" y="0px"
	 viewBox="0 0 680 430" style="enable-background:new 0 0 680 430;" xml:space="preserve">
<style type="text/css">
	.st0{fill:#D6E3F8;}
	.st1{enable-background:new    ;}
	.st2{fill:#584B53;}
	.st3{fill:none;stroke:#584B53;}
	.st4{fill:#FEF5EF;}
</style>
<g id="Group_323" transform="translate(-6675 -819)">
	<rect id="Rectangle_37" x="6675" y="819" class="st0" width="680" height="430"/>
	<g class="st1">
		<path class="st2" d="M6855.5,1013.1c0,0.8,0,1.5-0.1,2c-0.1,0.5-0.2,1-0.3,1.3c-0.1,0.4-0.3,0.6-0.5,0.8c-0.2,0.2-0.4,0.2-0.7,0.2
			h-23.5c-0.9,0-1.6-0.3-2.2-0.8c-0.6-0.5-0.9-1.4-0.9-2.5v-46.5c0-0.3,0.1-0.5,0.3-0.7c0.2-0.2,0.5-0.4,0.9-0.5s0.9-0.2,1.6-0.3
			c0.7-0.1,1.5-0.1,2.5-0.1c1,0,1.9,0,2.5,0.1c0.7,0.1,1.2,0.2,1.6,0.3s0.7,0.3,0.9,0.5s0.3,0.4,0.3,0.7v41.2h16.1
			c0.3,0,0.5,0.1,0.7,0.2c0.2,0.1,0.4,0.4,0.5,0.7c0.1,0.3,0.2,0.8,0.3,1.3C6855.4,1011.7,6855.5,1012.4,6855.5,1013.1z"/>
		<path class="st2" d="M6910.3,991.3c0,4.2-0.5,8-1.6,11.4c-1.1,3.3-2.6,6.2-4.7,8.5c-2.1,2.3-4.7,4.1-7.7,5.3
			c-3.1,1.2-6.6,1.8-10.7,1.8c-4,0-7.5-0.5-10.4-1.6c-3-1-5.4-2.6-7.4-4.8c-2-2.1-3.5-4.9-4.4-8.1c-1-3.3-1.5-7.2-1.5-11.7
			c0-4.1,0.5-7.9,1.6-11.2c1.1-3.3,2.6-6.1,4.7-8.4c2.1-2.3,4.7-4.1,7.7-5.3s6.6-1.9,10.7-1.9c3.9,0,7.3,0.5,10.3,1.5
			c3,1,5.4,2.6,7.4,4.7s3.5,4.8,4.5,8.1C6909.7,983,6910.3,986.9,6910.3,991.3z M6899.3,991.9c0-2.7-0.2-5.1-0.6-7.3
			c-0.4-2.2-1.1-4.1-2.2-5.7s-2.4-2.8-4.1-3.6c-1.7-0.9-3.8-1.3-6.3-1.3c-2.6,0-4.7,0.5-6.4,1.4c-1.7,1-3.1,2.2-4.2,3.9
			c-1.1,1.6-1.8,3.5-2.2,5.6c-0.4,2.1-0.7,4.4-0.7,6.8c0,2.8,0.2,5.3,0.6,7.5c0.4,2.2,1.1,4.1,2.1,5.7c1,1.6,2.3,2.8,4,3.6
			c1.7,0.8,3.8,1.2,6.4,1.2c2.6,0,4.7-0.5,6.4-1.4c1.7-0.9,3.1-2.2,4.2-3.9c1.1-1.6,1.8-3.5,2.2-5.7
			C6899.1,996.6,6899.3,994.3,6899.3,991.9z"/>
		<path class="st2" d="M6964.1,974.3c0,0.8,0,1.4-0.1,2c-0.1,0.6-0.2,1-0.3,1.3c-0.1,0.3-0.3,0.6-0.4,0.7s-0.4,0.2-0.6,0.2
			c-0.3,0-0.9-0.2-1.7-0.7c-0.8-0.5-1.8-1-3-1.5s-2.8-1.1-4.5-1.5c-1.8-0.5-3.8-0.7-6.1-0.7c-2.5,0-4.7,0.4-6.7,1.3
			c-2,0.9-3.7,2.1-5.1,3.6s-2.5,3.5-3.3,5.7c-0.8,2.2-1.1,4.6-1.1,7.3c0,2.9,0.4,5.5,1.2,7.7c0.8,2.2,1.9,4.1,3.3,5.6
			c1.4,1.5,3.1,2.6,5,3.4s4.1,1.1,6.5,1.1c1.2,0,2.3-0.1,3.4-0.4c1.1-0.3,2.2-0.7,3.2-1.2v-11.9h-9.7c-0.5,0-0.8-0.3-1.1-0.9
			c-0.3-0.6-0.4-1.6-0.4-3c0-0.7,0-1.4,0.1-1.9c0.1-0.5,0.2-0.9,0.3-1.2c0.1-0.3,0.3-0.5,0.5-0.7c0.2-0.1,0.4-0.2,0.6-0.2h17.3
			c0.4,0,0.8,0.1,1.1,0.2s0.6,0.4,0.9,0.7s0.4,0.6,0.6,1c0.1,0.4,0.2,0.9,0.2,1.4v20.4c0,0.8-0.1,1.5-0.4,2.1
			c-0.3,0.6-0.8,1.1-1.7,1.4s-1.9,0.7-3.2,1.1s-2.6,0.7-3.9,0.9s-2.7,0.5-4.1,0.6c-1.4,0.1-2.8,0.2-4.2,0.2c-4.1,0-7.7-0.6-11-1.8
			c-3.2-1.2-6-2.9-8.2-5.1c-2.2-2.2-4-4.9-5.1-8.1c-1.2-3.2-1.8-6.8-1.8-10.9c0-4.2,0.6-8,1.9-11.3s3.1-6.2,5.4-8.5
			c2.3-2.3,5.1-4.1,8.4-5.4c3.3-1.2,6.9-1.9,11-1.9c2.2,0,4.2,0.2,6.1,0.5s3.4,0.7,4.8,1.1c1.4,0.4,2.5,0.9,3.4,1.4
			c0.9,0.5,1.5,0.9,1.9,1.3c0.4,0.4,0.6,0.9,0.8,1.6C6964,972,6964.1,973,6964.1,974.3z"/>
		<path class="st2" d="M7024.7,991.3c0,4.2-0.5,8-1.6,11.4c-1.1,3.3-2.6,6.2-4.7,8.5c-2.1,2.3-4.7,4.1-7.7,5.3
			c-3.1,1.2-6.6,1.8-10.7,1.8c-4,0-7.5-0.5-10.4-1.6c-3-1-5.4-2.6-7.4-4.8c-2-2.1-3.5-4.9-4.4-8.1c-1-3.3-1.5-7.2-1.5-11.7
			c0-4.1,0.5-7.9,1.6-11.2c1.1-3.3,2.6-6.1,4.7-8.4c2.1-2.3,4.7-4.1,7.7-5.3s6.6-1.9,10.7-1.9c3.9,0,7.3,0.5,10.3,1.5
			c3,1,5.4,2.6,7.4,4.7c2,2.1,3.5,4.8,4.5,8.1C7024.2,983,7024.7,986.9,7024.7,991.3z M7013.8,991.9c0-2.7-0.2-5.1-0.6-7.3
			c-0.4-2.2-1.1-4.1-2.2-5.7s-2.4-2.8-4.1-3.6c-1.7-0.9-3.8-1.3-6.3-1.3c-2.6,0-4.7,0.5-6.4,1.4c-1.7,1-3.1,2.2-4.2,3.9
			c-1.1,1.6-1.8,3.5-2.2,5.6c-0.4,2.1-0.7,4.4-0.7,6.8c0,2.8,0.2,5.3,0.6,7.5c0.4,2.2,1.1,4.1,2.1,5.7c1,1.6,2.3,2.8,4,3.6
			c1.7,0.8,3.8,1.2,6.4,1.2c2.6,0,4.7-0.5,6.4-1.4c1.7-0.9,3.1-2.2,4.2-3.9c1.1-1.6,1.8-3.5,2.2-5.7
			C7013.6,996.6,7013.8,994.3,7013.8,991.9z"/>
		<path class="st2" d="M7069.8,970.6c0,0.8,0,1.4-0.1,2c-0.1,0.5-0.2,1-0.3,1.3c-0.1,0.3-0.3,0.6-0.5,0.7c-0.2,0.2-0.4,0.2-0.7,0.2
			h-12.8v41.3c0,0.3-0.1,0.5-0.3,0.7c-0.2,0.2-0.5,0.4-0.9,0.5s-0.9,0.2-1.6,0.3c-0.7,0.1-1.5,0.1-2.5,0.1s-1.8,0-2.5-0.1
			c-0.7-0.1-1.2-0.2-1.6-0.3s-0.7-0.3-0.8-0.5c-0.2-0.2-0.3-0.4-0.3-0.7v-41.3h-12.8c-0.3,0-0.5-0.1-0.7-0.2
			c-0.2-0.2-0.3-0.4-0.5-0.7c-0.1-0.3-0.2-0.8-0.3-1.3c-0.1-0.5-0.1-1.2-0.1-2c0-0.8,0-1.5,0.1-2c0.1-0.6,0.2-1,0.3-1.3
			c0.1-0.3,0.3-0.6,0.5-0.7c0.2-0.1,0.4-0.2,0.7-0.2h36.1c0.2,0,0.5,0.1,0.7,0.2c0.2,0.1,0.4,0.4,0.5,0.7c0.1,0.3,0.2,0.8,0.3,1.3
			C7069.8,969.1,7069.8,969.8,7069.8,970.6z"/>
		<path class="st2" d="M7100.6,998.1v18c0,0.3-0.1,0.5-0.3,0.7c-0.2,0.2-0.5,0.4-0.9,0.5s-0.9,0.2-1.6,0.3c-0.7,0.1-1.5,0.1-2.5,0.1
			c-1,0-1.9,0-2.5-0.1c-0.7-0.1-1.2-0.2-1.6-0.3c-0.4-0.1-0.7-0.3-0.9-0.5s-0.2-0.4-0.2-0.7v-18l-14-27.9c-0.5-1-0.8-1.7-1-2.3
			c-0.1-0.5-0.1-0.9,0.2-1.2c0.3-0.3,0.9-0.4,1.7-0.5c0.8-0.1,2-0.1,3.4-0.1c1.2,0,2.2,0,2.9,0.1c0.7,0.1,1.3,0.2,1.7,0.3
			s0.7,0.3,0.9,0.6c0.2,0.2,0.4,0.5,0.6,0.9l5.7,12.6c0.6,1.2,1.1,2.5,1.6,3.8c0.5,1.3,1.1,2.8,1.6,4.2h0.1c0.5-1.4,1-2.8,1.5-4.2
			s1-2.6,1.5-3.8l5.6-12.5c0.1-0.4,0.3-0.8,0.5-1c0.2-0.3,0.5-0.5,0.9-0.6s0.9-0.3,1.6-0.3c0.7-0.1,1.6-0.1,2.7-0.1
			c1.5,0,2.7,0,3.5,0.1c0.8,0.1,1.4,0.2,1.7,0.5c0.3,0.3,0.4,0.7,0.2,1.2c-0.2,0.6-0.5,1.3-0.9,2.3L7100.6,998.1z"/>
		<path class="st2" d="M7161.1,981.9c0,2.9-0.4,5.4-1.3,7.6s-2.2,4.1-3.9,5.6c-1.7,1.5-3.8,2.7-6.3,3.5c-2.5,0.8-5.4,1.2-8.8,1.2
			h-4.3v16.3c0,0.3-0.1,0.5-0.3,0.7c-0.2,0.2-0.5,0.4-0.9,0.5s-0.9,0.2-1.6,0.3c-0.7,0.1-1.5,0.1-2.5,0.1c-1,0-1.8,0-2.5-0.1
			c-0.7-0.1-1.2-0.2-1.6-0.3s-0.7-0.3-0.8-0.5s-0.2-0.4-0.2-0.7v-46c0-1.2,0.3-2.2,1-2.8c0.6-0.6,1.5-0.9,2.6-0.9h12.1
			c1.2,0,2.4,0,3.5,0.1c1.1,0.1,2.4,0.3,3.9,0.6c1.5,0.3,3.1,0.9,4.6,1.7c1.6,0.8,2.9,1.9,4,3.1s2,2.7,2.5,4.4
			C7160.8,977.9,7161.1,979.8,7161.1,981.9z M7150.2,982.6c0-1.8-0.3-3.3-0.9-4.4s-1.4-2-2.3-2.6c-0.9-0.6-1.9-0.9-2.9-1
			c-1-0.1-2.1-0.2-3.1-0.2h-4.4v17.4h4.7c1.7,0,3.1-0.2,4.2-0.7c1.1-0.4,2-1.1,2.7-1.9s1.3-1.8,1.6-2.9
			C7150,985.2,7150.2,983.9,7150.2,982.6z"/>
		<path class="st2" d="M7203.5,1013.4c0,0.8,0,1.4-0.1,1.9c-0.1,0.5-0.2,0.9-0.3,1.2c-0.1,0.3-0.3,0.5-0.5,0.7
			c-0.2,0.1-0.4,0.2-0.7,0.2h-25.7c-0.9,0-1.6-0.3-2.2-0.8c-0.6-0.5-0.9-1.4-0.9-2.5v-44.6c0-1.2,0.3-2,0.9-2.5
			c0.6-0.5,1.3-0.8,2.2-0.8h25.5c0.2,0,0.4,0.1,0.6,0.2c0.2,0.1,0.3,0.4,0.5,0.7c0.1,0.3,0.2,0.8,0.3,1.3c0.1,0.5,0.1,1.2,0.1,2
			c0,0.7,0,1.4-0.1,1.9c-0.1,0.5-0.2,0.9-0.3,1.2c-0.1,0.3-0.3,0.5-0.5,0.7c-0.2,0.1-0.4,0.2-0.6,0.2h-18.3V987h15.5
			c0.2,0,0.5,0.1,0.7,0.2s0.4,0.4,0.5,0.7c0.1,0.3,0.2,0.7,0.3,1.2c0.1,0.5,0.1,1.1,0.1,1.9c0,0.8,0,1.4-0.1,1.9
			c-0.1,0.5-0.2,0.9-0.3,1.2c-0.1,0.3-0.3,0.5-0.5,0.7s-0.4,0.2-0.7,0.2h-15.5v14.4h18.4c0.2,0,0.5,0.1,0.7,0.2
			c0.2,0.1,0.4,0.4,0.5,0.7c0.1,0.3,0.2,0.7,0.3,1.2C7203.5,1012,7203.5,1012.7,7203.5,1013.4z"/>
	</g>
	<g class="st1">
		<path class="st3" d="M6855.5,1013.1c0,0.8,0,1.5-0.1,2c-0.1,0.5-0.2,1-0.3,1.3c-0.1,0.4-0.3,0.6-0.5,0.8c-0.2,0.2-0.4,0.2-0.7,0.2
			h-23.5c-0.9,0-1.6-0.3-2.2-0.8c-0.6-0.5-0.9-1.4-0.9-2.5v-46.5c0-0.3,0.1-0.5,0.3-0.7c0.2-0.2,0.5-0.4,0.9-0.5s0.9-0.2,1.6-0.3
			c0.7-0.1,1.5-0.1,2.5-0.1c1,0,1.9,0,2.5,0.1c0.7,0.1,1.2,0.2,1.6,0.3s0.7,0.3,0.9,0.5s0.3,0.4,0.3,0.7v41.2h16.1
			c0.3,0,0.5,0.1,0.7,0.2c0.2,0.1,0.4,0.4,0.5,0.7c0.1,0.3,0.2,0.8,0.3,1.3C6855.4,1011.7,6855.5,1012.4,6855.5,1013.1z"/>
		<path class="st3" d="M6910.3,991.3c0,4.2-0.5,8-1.6,11.4c-1.1,3.3-2.6,6.2-4.7,8.5c-2.1,2.3-4.7,4.1-7.7,5.3
			c-3.1,1.2-6.6,1.8-10.7,1.8c-4,0-7.5-0.5-10.4-1.6c-3-1-5.4-2.6-7.4-4.8c-2-2.1-3.5-4.9-4.4-8.1c-1-3.3-1.5-7.2-1.5-11.7
			c0-4.1,0.5-7.9,1.6-11.2c1.1-3.3,2.6-6.1,4.7-8.4c2.1-2.3,4.7-4.1,7.7-5.3s6.6-1.9,10.7-1.9c3.9,0,7.3,0.5,10.3,1.5
			c3,1,5.4,2.6,7.4,4.7s3.5,4.8,4.5,8.1C6909.7,983,6910.3,986.9,6910.3,991.3z M6899.3,991.9c0-2.7-0.2-5.1-0.6-7.3
			c-0.4-2.2-1.1-4.1-2.2-5.7s-2.4-2.8-4.1-3.6c-1.7-0.9-3.8-1.3-6.3-1.3c-2.6,0-4.7,0.5-6.4,1.4c-1.7,1-3.1,2.2-4.2,3.9
			c-1.1,1.6-1.8,3.5-2.2,5.6c-0.4,2.1-0.7,4.4-0.7,6.8c0,2.8,0.2,5.3,0.6,7.5c0.4,2.2,1.1,4.1,2.1,5.7c1,1.6,2.3,2.8,4,3.6
			c1.7,0.8,3.8,1.2,6.4,1.2c2.6,0,4.7-0.5,6.4-1.4c1.7-0.9,3.1-2.2,4.2-3.9c1.1-1.6,1.8-3.5,2.2-5.7
			C6899.1,996.6,6899.3,994.3,6899.3,991.9z"/>
		<path class="st3" d="M6964.1,974.3c0,0.8,0,1.4-0.1,2c-0.1,0.6-0.2,1-0.3,1.3c-0.1,0.3-0.3,0.6-0.4,0.7s-0.4,0.2-0.6,0.2
			c-0.3,0-0.9-0.2-1.7-0.7c-0.8-0.5-1.8-1-3-1.5s-2.8-1.1-4.5-1.5c-1.8-0.5-3.8-0.7-6.1-0.7c-2.5,0-4.7,0.4-6.7,1.3
			c-2,0.9-3.7,2.1-5.1,3.6s-2.5,3.5-3.3,5.7c-0.8,2.2-1.1,4.6-1.1,7.3c0,2.9,0.4,5.5,1.2,7.7c0.8,2.2,1.9,4.1,3.3,5.6
			c1.4,1.5,3.1,2.6,5,3.4s4.1,1.1,6.5,1.1c1.2,0,2.3-0.1,3.4-0.4c1.1-0.3,2.2-0.7,3.2-1.2v-11.9h-9.7c-0.5,0-0.8-0.3-1.1-0.9
			c-0.3-0.6-0.4-1.6-0.4-3c0-0.7,0-1.4,0.1-1.9c0.1-0.5,0.2-0.9,0.3-1.2c0.1-0.3,0.3-0.5,0.5-0.7c0.2-0.1,0.4-0.2,0.6-0.2h17.3
			c0.4,0,0.8,0.1,1.1,0.2s0.6,0.4,0.9,0.7s0.4,0.6,0.6,1c0.1,0.4,0.2,0.9,0.2,1.4v20.4c0,0.8-0.1,1.5-0.4,2.1
			c-0.3,0.6-0.8,1.1-1.7,1.4s-1.9,0.7-3.2,1.1s-2.6,0.7-3.9,0.9s-2.7,0.5-4.1,0.6c-1.4,0.1-2.8,0.2-4.2,0.2c-4.1,0-7.7-0.6-11-1.8
			c-3.2-1.2-6-2.9-8.2-5.1c-2.2-2.2-4-4.9-5.1-8.1c-1.2-3.2-1.8-6.8-1.8-10.9c0-4.2,0.6-8,1.9-11.3s3.1-6.2,5.4-8.5
			c2.3-2.3,5.1-4.1,8.4-5.4c3.3-1.2,6.9-1.9,11-1.9c2.2,0,4.2,0.2,6.1,0.5s3.4,0.7,4.8,1.1c1.4,0.4,2.5,0.9,3.4,1.4
			c0.9,0.5,1.5,0.9,1.9,1.3c0.4,0.4,0.6,0.9,0.8,1.6C6964,972,6964.1,973,6964.1,974.3z"/>
		<path class="st3" d="M7024.7,991.3c0,4.2-0.5,8-1.6,11.4c-1.1,3.3-2.6,6.2-4.7,8.5c-2.1,2.3-4.7,4.1-7.7,5.3
			c-3.1,1.2-6.6,1.8-10.7,1.8c-4,0-7.5-0.5-10.4-1.6c-3-1-5.4-2.6-7.4-4.8c-2-2.1-3.5-4.9-4.4-8.1c-1-3.3-1.5-7.2-1.5-11.7
			c0-4.1,0.5-7.9,1.6-11.2c1.1-3.3,2.6-6.1,4.7-8.4c2.1-2.3,4.7-4.1,7.7-5.3s6.6-1.9,10.7-1.9c3.9,0,7.3,0.5,10.3,1.5
			c3,1,5.4,2.6,7.4,4.7c2,2.1,3.5,4.8,4.5,8.1C7024.2,983,7024.7,986.9,7024.7,991.3z M7013.8,991.9c0-2.7-0.2-5.1-0.6-7.3
			c-0.4-2.2-1.1-4.1-2.2-5.7s-2.4-2.8-4.1-3.6c-1.7-0.9-3.8-1.3-6.3-1.3c-2.6,0-4.7,0.5-6.4,1.4c-1.7,1-3.1,2.2-4.2,3.9
			c-1.1,1.6-1.8,3.5-2.2,5.6c-0.4,2.1-0.7,4.4-0.7,6.8c0,2.8,0.2,5.3,0.6,7.5c0.4,2.2,1.1,4.1,2.1,5.7c1,1.6,2.3,2.8,4,3.6
			c1.7,0.8,3.8,1.2,6.4,1.2c2.6,0,4.7-0.5,6.4-1.4c1.7-0.9,3.1-2.2,4.2-3.9c1.1-1.6,1.8-3.5,2.2-5.7
			C7013.6,996.6,7013.8,994.3,7013.8,991.9z"/>
		<path class="st3" d="M7069.8,970.6c0,0.8,0,1.4-0.1,2c-0.1,0.5-0.2,1-0.3,1.3c-0.1,0.3-0.3,0.6-0.5,0.7c-0.2,0.2-0.4,0.2-0.7,0.2
			h-12.8v41.3c0,0.3-0.1,0.5-0.3,0.7c-0.2,0.2-0.5,0.4-0.9,0.5s-0.9,0.2-1.6,0.3c-0.7,0.1-1.5,0.1-2.5,0.1s-1.8,0-2.5-0.1
			c-0.7-0.1-1.2-0.2-1.6-0.3s-0.7-0.3-0.8-0.5c-0.2-0.2-0.3-0.4-0.3-0.7v-41.3h-12.8c-0.3,0-0.5-0.1-0.7-0.2
			c-0.2-0.2-0.3-0.4-0.5-0.7c-0.1-0.3-0.2-0.8-0.3-1.3c-0.1-0.5-0.1-1.2-0.1-2c0-0.8,0-1.5,0.1-2c0.1-0.6,0.2-1,0.3-1.3
			c0.1-0.3,0.3-0.6,0.5-0.7c0.2-0.1,0.4-0.2,0.7-0.2h36.1c0.2,0,0.5,0.1,0.7,0.2c0.2,0.1,0.4,0.4,0.5,0.7c0.1,0.3,0.2,0.8,0.3,1.3
			C7069.8,969.1,7069.8,969.8,7069.8,970.6z"/>
		<path class="st3" d="M7100.6,998.1v18c0,0.3-0.1,0.5-0.3,0.7c-0.2,0.2-0.5,0.4-0.9,0.5s-0.9,0.2-1.6,0.3c-0.7,0.1-1.5,0.1-2.5,0.1
			c-1,0-1.9,0-2.5-0.1c-0.7-0.1-1.2-0.2-1.6-0.3c-0.4-0.1-0.7-0.3-0.9-0.5s-0.2-0.4-0.2-0.7v-18l-14-27.9c-0.5-1-0.8-1.7-1-2.3
			c-0.1-0.5-0.1-0.9,0.2-1.2c0.3-0.3,0.9-0.4,1.7-0.5c0.8-0.1,2-0.1,3.4-0.1c1.2,0,2.2,0,2.9,0.1c0.7,0.1,1.3,0.2,1.7,0.3
			s0.7,0.3,0.9,0.6c0.2,0.2,0.4,0.5,0.6,0.9l5.7,12.6c0.6,1.2,1.1,2.5,1.6,3.8c0.5,1.3,1.1,2.8,1.6,4.2h0.1c0.5-1.4,1-2.8,1.5-4.2
			s1-2.6,1.5-3.8l5.6-12.5c0.1-0.4,0.3-0.8,0.5-1c0.2-0.3,0.5-0.5,0.9-0.6s0.9-0.3,1.6-0.3c0.7-0.1,1.6-0.1,2.7-0.1
			c1.5,0,2.7,0,3.5,0.1c0.8,0.1,1.4,0.2,1.7,0.5c0.3,0.3,0.4,0.7,0.2,1.2c-0.2,0.6-0.5,1.3-0.9,2.3L7100.6,998.1z"/>
		<path class="st3" d="M7161.1,981.9c0,2.9-0.4,5.4-1.3,7.6s-2.2,4.1-3.9,5.6c-1.7,1.5-3.8,2.7-6.3,3.5c-2.5,0.8-5.4,1.2-8.8,1.2
			h-4.3v16.3c0,0.3-0.1,0.5-0.3,0.7c-0.2,0.2-0.5,0.4-0.9,0.5s-0.9,0.2-1.6,0.3c-0.7,0.1-1.5,0.1-2.5,0.1c-1,0-1.8,0-2.5-0.1
			c-0.7-0.1-1.2-0.2-1.6-0.3s-0.7-0.3-0.8-0.5s-0.2-0.4-0.2-0.7v-46c0-1.2,0.3-2.2,1-2.8c0.6-0.6,1.5-0.9,2.6-0.9h12.1
			c1.2,0,2.4,0,3.5,0.1c1.1,0.1,2.4,0.3,3.9,0.6c1.5,0.3,3.1,0.9,4.6,1.7c1.6,0.8,2.9,1.9,4,3.1s2,2.7,2.5,4.4
			C7160.8,977.9,7161.1,979.8,7161.1,981.9z M7150.2,982.6c0-1.8-0.3-3.3-0.9-4.4s-1.4-2-2.3-2.6c-0.9-0.6-1.9-0.9-2.9-1
			c-1-0.1-2.1-0.2-3.1-0.2h-4.4v17.4h4.7c1.7,0,3.1-0.2,4.2-0.7c1.1-0.4,2-1.1,2.7-1.9s1.3-1.8,1.6-2.9
			C7150,985.2,7150.2,983.9,7150.2,982.6z"/>
		<path class="st3" d="M7203.5,1013.4c0,0.8,0,1.4-0.1,1.9c-0.1,0.5-0.2,0.9-0.3,1.2c-0.1,0.3-0.3,0.5-0.5,0.7
			c-0.2,0.1-0.4,0.2-0.7,0.2h-25.7c-0.9,0-1.6-0.3-2.2-0.8c-0.6-0.5-0.9-1.4-0.9-2.5v-44.6c0-1.2,0.3-2,0.9-2.5
			c0.6-0.5,1.3-0.8,2.2-0.8h25.5c0.2,0,0.4,0.1,0.6,0.2c0.2,0.1,0.3,0.4,0.5,0.7c0.1,0.3,0.2,0.8,0.3,1.3c0.1,0.5,0.1,1.2,0.1,2
			c0,0.7,0,1.4-0.1,1.9c-0.1,0.5-0.2,0.9-0.3,1.2c-0.1,0.3-0.3,0.5-0.5,0.7c-0.2,0.1-0.4,0.2-0.6,0.2h-18.3V987h15.5
			c0.2,0,0.5,0.1,0.7,0.2s0.4,0.4,0.5,0.7c0.1,0.3,0.2,0.7,0.3,1.2c0.1,0.5,0.1,1.1,0.1,1.9c0,0.8,0,1.4-0.1,1.9
			c-0.1,0.5-0.2,0.9-0.3,1.2c-0.1,0.3-0.3,0.5-0.5,0.7s-0.4,0.2-0.7,0.2h-15.5v14.4h18.4c0.2,0,0.5,0.1,0.7,0.2
			c0.2,0.1,0.4,0.4,0.5,0.7c0.1,0.3,0.2,0.7,0.3,1.2C7203.5,1012,7203.5,1012.7,7203.5,1013.4z"/>
	</g>
	<g class="st1">
		<path class="st2" d="M6947.6,1077.7c0,3.3-0.4,6.2-1.3,8.7c-0.9,2.5-2.1,4.6-3.7,6.2c-1.6,1.6-3.6,2.9-6,3.7
			c-2.4,0.8-5.2,1.2-8.5,1.2h-8.2c-0.5,0-0.9-0.2-1.3-0.5c-0.4-0.3-0.6-0.8-0.6-1.6V1061c0-0.8,0.2-1.3,0.6-1.6
			c0.4-0.3,0.8-0.5,1.3-0.5h8.7c3.3,0,6.2,0.4,8.5,1.3c2.3,0.9,4.2,2.1,5.8,3.7c1.6,1.6,2.7,3.6,3.5,5.9
			C6947.2,1072.2,6947.6,1074.8,6947.6,1077.7z M6942.2,1077.9c0-2.1-0.3-4-0.8-5.8c-0.5-1.8-1.3-3.4-2.4-4.7
			c-1.1-1.3-2.5-2.3-4.2-3.1c-1.7-0.7-3.9-1.1-6.5-1.1h-5.2v30h5.3c2.5,0,4.5-0.3,6.2-0.9c1.7-0.6,3.1-1.6,4.2-2.8s2-2.9,2.5-4.8
			C6941.9,1082.8,6942.2,1080.5,6942.2,1077.9z"/>
		<path class="st2" d="M6980,1095.4c0,0.4,0,0.7-0.1,0.9c0,0.3-0.1,0.5-0.2,0.7c-0.1,0.2-0.2,0.3-0.3,0.4c-0.1,0.1-0.3,0.1-0.4,0.1
			h-18.5c-0.5,0-0.9-0.2-1.3-0.5c-0.4-0.3-0.6-0.8-0.6-1.6V1061c0-0.8,0.2-1.3,0.6-1.6c0.4-0.3,0.8-0.5,1.3-0.5h18.3
			c0.2,0,0.3,0,0.4,0.1c0.1,0.1,0.2,0.2,0.3,0.4c0.1,0.2,0.1,0.4,0.2,0.7c0,0.3,0.1,0.6,0.1,1c0,0.4,0,0.7-0.1,0.9
			c0,0.3-0.1,0.5-0.2,0.7c-0.1,0.2-0.2,0.3-0.3,0.4c-0.1,0.1-0.3,0.1-0.4,0.1h-15.1v12.1h12.9c0.2,0,0.3,0,0.4,0.1
			c0.1,0.1,0.2,0.2,0.3,0.4c0.1,0.2,0.2,0.4,0.2,0.7c0,0.3,0.1,0.6,0.1,1c0,0.4,0,0.7-0.1,0.9c0,0.3-0.1,0.5-0.2,0.6
			c-0.1,0.2-0.2,0.3-0.3,0.3c-0.1,0.1-0.3,0.1-0.4,0.1h-12.9v13.8h15.3c0.2,0,0.3,0,0.4,0.1c0.1,0.1,0.2,0.2,0.3,0.4
			c0.1,0.2,0.2,0.4,0.2,0.7C6980,1094.7,6980,1095,6980,1095.4z"/>
		<path class="st2" d="M7011.5,1086.7c0,1.8-0.3,3.4-1,4.8c-0.7,1.4-1.6,2.6-2.8,3.6c-1.2,1-2.6,1.7-4.2,2.2
			c-1.6,0.5-3.3,0.7-5.2,0.7c-1.3,0-2.5-0.1-3.6-0.3c-1.1-0.2-2.1-0.5-2.9-0.8c-0.9-0.3-1.6-0.6-2.2-1c-0.6-0.3-1-0.6-1.2-0.9
			c-0.2-0.2-0.4-0.5-0.5-0.9c-0.1-0.4-0.2-0.9-0.2-1.5c0-0.4,0-0.8,0.1-1.1c0-0.3,0.1-0.5,0.2-0.7c0.1-0.2,0.2-0.3,0.3-0.4
			c0.1-0.1,0.3-0.1,0.4-0.1c0.3,0,0.7,0.2,1.2,0.5c0.5,0.3,1.2,0.7,2,1.1c0.8,0.4,1.8,0.8,2.9,1.1c1.1,0.3,2.4,0.5,3.9,0.5
			c1.1,0,2.1-0.1,3.1-0.4c0.9-0.3,1.7-0.7,2.4-1.3c0.7-0.5,1.2-1.2,1.5-2c0.4-0.8,0.5-1.7,0.5-2.7c0-1.1-0.2-2-0.7-2.8
			c-0.5-0.8-1.2-1.5-2-2c-0.8-0.6-1.7-1.1-2.8-1.6c-1-0.5-2.1-1-3.2-1.5c-1.1-0.5-2.2-1.1-3.2-1.7c-1-0.6-2-1.3-2.8-2.2
			c-0.8-0.8-1.5-1.8-2-2.9c-0.5-1.1-0.8-2.5-0.8-4c0-1.6,0.3-3,0.9-4.3c0.6-1.3,1.4-2.3,2.4-3.2c1-0.9,2.3-1.5,3.7-2
			c1.4-0.4,3-0.7,4.7-0.7c0.9,0,1.7,0.1,2.6,0.2c0.9,0.1,1.7,0.3,2.4,0.6c0.8,0.2,1.4,0.5,2,0.8c0.6,0.3,1,0.6,1.2,0.7
			c0.2,0.2,0.3,0.3,0.4,0.4c0.1,0.1,0.1,0.2,0.1,0.4c0,0.2,0.1,0.4,0.1,0.6c0,0.2,0,0.5,0,0.9c0,0.4,0,0.7,0,1
			c0,0.3-0.1,0.5-0.1,0.7s-0.1,0.3-0.3,0.4c-0.1,0.1-0.2,0.1-0.4,0.1c-0.2,0-0.6-0.1-1-0.4c-0.5-0.3-1-0.6-1.7-0.9
			c-0.7-0.3-1.5-0.7-2.4-1c-0.9-0.3-2-0.4-3.1-0.4c-1.1,0-2,0.1-2.8,0.4c-0.8,0.3-1.4,0.7-2,1.1c-0.5,0.5-0.9,1-1.2,1.7
			c-0.3,0.7-0.4,1.4-0.4,2.1c0,1.1,0.2,2,0.7,2.8c0.5,0.8,1.2,1.5,2,2.1c0.8,0.6,1.8,1.1,2.8,1.6c1.1,0.5,2.1,1,3.2,1.5
			c1.1,0.5,2.2,1.1,3.2,1.7c1.1,0.6,2,1.3,2.8,2.1c0.8,0.8,1.5,1.8,2,2.9C7011.2,1083.8,7011.5,1085.2,7011.5,1086.7z"/>
		<path class="st2" d="M7027,1096.7c0,0.2,0,0.3-0.1,0.4s-0.2,0.2-0.4,0.3s-0.5,0.1-0.8,0.2c-0.3,0-0.7,0.1-1.2,0.1
			c-0.5,0-0.9,0-1.2-0.1c-0.3,0-0.6-0.1-0.8-0.2s-0.3-0.2-0.4-0.3s-0.1-0.3-0.1-0.4v-37c0-0.2,0-0.3,0.1-0.4
			c0.1-0.1,0.2-0.2,0.4-0.3c0.2-0.1,0.5-0.1,0.8-0.2c0.3,0,0.7-0.1,1.2-0.1c0.5,0,0.9,0,1.2,0.1c0.3,0,0.6,0.1,0.8,0.2
			c0.2,0.1,0.3,0.2,0.4,0.3s0.1,0.3,0.1,0.4V1096.7z"/>
		<path class="st2" d="M7069.2,1064.2c0,0.4,0,0.7-0.1,1c0,0.3-0.1,0.5-0.2,0.7c-0.1,0.2-0.2,0.3-0.3,0.4c-0.1,0.1-0.2,0.1-0.4,0.1
			c-0.2,0-0.6-0.2-1.2-0.6s-1.3-0.8-2.2-1.3c-0.9-0.5-2.1-0.9-3.4-1.3c-1.3-0.4-2.8-0.6-4.6-0.6c-2.1,0-4,0.4-5.7,1.2
			c-1.7,0.8-3.1,1.8-4.3,3.2c-1.2,1.4-2.1,3-2.7,4.9c-0.6,1.9-0.9,3.9-0.9,6.1c0,2.5,0.3,4.6,1,6.6c0.7,1.9,1.6,3.5,2.8,4.8
			c1.2,1.3,2.7,2.3,4.3,3c1.7,0.7,3.5,1,5.5,1c1.2,0,2.4-0.1,3.6-0.4c1.2-0.3,2.4-0.7,3.4-1.3v-11.2h-8.9c-0.3,0-0.6-0.2-0.8-0.5
			c-0.2-0.3-0.3-0.9-0.3-1.6c0-0.4,0-0.7,0.1-1c0-0.3,0.1-0.5,0.2-0.7c0.1-0.2,0.2-0.3,0.3-0.4s0.3-0.1,0.4-0.1h12.2
			c0.2,0,0.4,0,0.7,0.1c0.2,0.1,0.4,0.2,0.6,0.4s0.3,0.4,0.4,0.7c0.1,0.3,0.1,0.6,0.1,1v14.7c0,0.5-0.1,1-0.3,1.3s-0.6,0.7-1.1,1
			c-0.6,0.3-1.3,0.6-2.2,0.9c-0.9,0.3-1.9,0.6-2.8,0.9c-1,0.2-2,0.4-2.9,0.5s-2,0.2-2.9,0.2c-3,0-5.6-0.5-8-1.4
			c-2.3-0.9-4.3-2.2-5.9-3.9c-1.6-1.7-2.9-3.8-3.7-6.1c-0.9-2.4-1.3-5-1.3-8c0-3.1,0.5-5.8,1.4-8.3c0.9-2.5,2.2-4.6,3.9-6.3
			c1.7-1.7,3.7-3.1,6-4.1c2.4-1,5-1.4,7.8-1.4c1.5,0,2.8,0.1,4.1,0.4c1.3,0.3,2.4,0.6,3.4,0.9s1.8,0.7,2.5,1.1
			c0.7,0.4,1.2,0.7,1.4,1c0.3,0.3,0.4,0.6,0.5,0.9C7069.2,1063.1,7069.2,1063.6,7069.2,1064.2z"/>
		<path class="st2" d="M7110.9,1095.4c0,0.4-0.1,0.7-0.2,1c-0.1,0.3-0.3,0.5-0.5,0.7c-0.2,0.2-0.5,0.3-0.7,0.4
			c-0.3,0.1-0.5,0.1-0.8,0.1h-1.7c-0.5,0-1-0.1-1.4-0.2c-0.4-0.1-0.8-0.3-1.1-0.6s-0.7-0.7-1.1-1.2s-0.7-1.1-1.1-1.9l-11.8-21.9
			c-0.6-1.1-1.2-2.3-1.9-3.6c-0.6-1.2-1.2-2.4-1.7-3.6h-0.1c0,1.4,0.1,2.9,0.1,4.4s0,3,0,4.4v23.3c0,0.1,0,0.3-0.1,0.4
			s-0.2,0.2-0.4,0.3s-0.5,0.1-0.8,0.2c-0.3,0-0.7,0.1-1.2,0.1c-0.5,0-0.9,0-1.2-0.1c-0.3,0-0.6-0.1-0.8-0.2
			c-0.2-0.1-0.3-0.2-0.4-0.3c-0.1-0.1-0.1-0.3-0.1-0.4v-35.6c0-0.8,0.2-1.4,0.7-1.7c0.5-0.3,0.9-0.5,1.5-0.5h2.5
			c0.6,0,1.1,0,1.5,0.1c0.4,0.1,0.8,0.3,1.1,0.5s0.6,0.5,0.9,1c0.3,0.4,0.6,0.9,0.9,1.5l9,16.9c0.6,1,1.1,2,1.6,3c0.5,1,1,2,1.5,2.9
			c0.5,1,1,1.9,1.4,2.8c0.5,0.9,0.9,1.9,1.4,2.8h0c0-1.6-0.1-3.2-0.1-4.9c0-1.7,0-3.3,0-4.9v-20.9c0-0.1,0-0.3,0.1-0.4
			c0.1-0.1,0.2-0.2,0.4-0.3c0.2-0.1,0.5-0.2,0.8-0.2c0.3,0,0.7-0.1,1.3-0.1c0.5,0,0.9,0,1.2,0.1c0.3,0,0.6,0.1,0.8,0.2
			c0.2,0.1,0.3,0.2,0.4,0.3s0.1,0.2,0.1,0.4V1095.4z"/>
	</g>
	<g class="st1">
		<path class="st3" d="M6947.6,1077.7c0,3.3-0.4,6.2-1.3,8.7c-0.9,2.5-2.1,4.6-3.7,6.2c-1.6,1.6-3.6,2.9-6,3.7
			c-2.4,0.8-5.2,1.2-8.5,1.2h-8.2c-0.5,0-0.9-0.2-1.3-0.5c-0.4-0.3-0.6-0.8-0.6-1.6V1061c0-0.8,0.2-1.3,0.6-1.6
			c0.4-0.3,0.8-0.5,1.3-0.5h8.7c3.3,0,6.2,0.4,8.5,1.3c2.3,0.9,4.2,2.1,5.8,3.7c1.6,1.6,2.7,3.6,3.5,5.9
			C6947.2,1072.2,6947.6,1074.8,6947.6,1077.7z M6942.2,1077.9c0-2.1-0.3-4-0.8-5.8c-0.5-1.8-1.3-3.4-2.4-4.7
			c-1.1-1.3-2.5-2.3-4.2-3.1c-1.7-0.7-3.9-1.1-6.5-1.1h-5.2v30h5.3c2.5,0,4.5-0.3,6.2-0.9c1.7-0.6,3.1-1.6,4.2-2.8s2-2.9,2.5-4.8
			C6941.9,1082.8,6942.2,1080.5,6942.2,1077.9z"/>
		<path class="st3" d="M6980,1095.4c0,0.4,0,0.7-0.1,0.9c0,0.3-0.1,0.5-0.2,0.7c-0.1,0.2-0.2,0.3-0.3,0.4c-0.1,0.1-0.3,0.1-0.4,0.1
			h-18.5c-0.5,0-0.9-0.2-1.3-0.5c-0.4-0.3-0.6-0.8-0.6-1.6V1061c0-0.8,0.2-1.3,0.6-1.6c0.4-0.3,0.8-0.5,1.3-0.5h18.3
			c0.2,0,0.3,0,0.4,0.1c0.1,0.1,0.2,0.2,0.3,0.4c0.1,0.2,0.1,0.4,0.2,0.7c0,0.3,0.1,0.6,0.1,1c0,0.4,0,0.7-0.1,0.9
			c0,0.3-0.1,0.5-0.2,0.7c-0.1,0.2-0.2,0.3-0.3,0.4c-0.1,0.1-0.3,0.1-0.4,0.1h-15.1v12.1h12.9c0.2,0,0.3,0,0.4,0.1
			c0.1,0.1,0.2,0.2,0.3,0.4c0.1,0.2,0.2,0.4,0.2,0.7c0,0.3,0.1,0.6,0.1,1c0,0.4,0,0.7-0.1,0.9c0,0.3-0.1,0.5-0.2,0.6
			c-0.1,0.2-0.2,0.3-0.3,0.3c-0.1,0.1-0.3,0.1-0.4,0.1h-12.9v13.8h15.3c0.2,0,0.3,0,0.4,0.1c0.1,0.1,0.2,0.2,0.3,0.4
			c0.1,0.2,0.2,0.4,0.2,0.7C6980,1094.7,6980,1095,6980,1095.4z"/>
		<path class="st3" d="M7011.5,1086.7c0,1.8-0.3,3.4-1,4.8c-0.7,1.4-1.6,2.6-2.8,3.6c-1.2,1-2.6,1.7-4.2,2.2
			c-1.6,0.5-3.3,0.7-5.2,0.7c-1.3,0-2.5-0.1-3.6-0.3c-1.1-0.2-2.1-0.5-2.9-0.8c-0.9-0.3-1.6-0.6-2.2-1c-0.6-0.3-1-0.6-1.2-0.9
			c-0.2-0.2-0.4-0.5-0.5-0.9c-0.1-0.4-0.2-0.9-0.2-1.5c0-0.4,0-0.8,0.1-1.1c0-0.3,0.1-0.5,0.2-0.7c0.1-0.2,0.2-0.3,0.3-0.4
			c0.1-0.1,0.3-0.1,0.4-0.1c0.3,0,0.7,0.2,1.2,0.5c0.5,0.3,1.2,0.7,2,1.1c0.8,0.4,1.8,0.8,2.9,1.1c1.1,0.3,2.4,0.5,3.9,0.5
			c1.1,0,2.1-0.1,3.1-0.4c0.9-0.3,1.7-0.7,2.4-1.3c0.7-0.5,1.2-1.2,1.5-2c0.4-0.8,0.5-1.7,0.5-2.7c0-1.1-0.2-2-0.7-2.8
			c-0.5-0.8-1.2-1.5-2-2c-0.8-0.6-1.7-1.1-2.8-1.6c-1-0.5-2.1-1-3.2-1.5c-1.1-0.5-2.2-1.1-3.2-1.7c-1-0.6-2-1.3-2.8-2.2
			c-0.8-0.8-1.5-1.8-2-2.9c-0.5-1.1-0.8-2.5-0.8-4c0-1.6,0.3-3,0.9-4.3c0.6-1.3,1.4-2.3,2.4-3.2c1-0.9,2.3-1.5,3.7-2
			c1.4-0.4,3-0.7,4.7-0.7c0.9,0,1.7,0.1,2.6,0.2c0.9,0.1,1.7,0.3,2.4,0.6c0.8,0.2,1.4,0.5,2,0.8c0.6,0.3,1,0.6,1.2,0.7
			c0.2,0.2,0.3,0.3,0.4,0.4c0.1,0.1,0.1,0.2,0.1,0.4c0,0.2,0.1,0.4,0.1,0.6c0,0.2,0,0.5,0,0.9c0,0.4,0,0.7,0,1
			c0,0.3-0.1,0.5-0.1,0.7s-0.1,0.3-0.3,0.4c-0.1,0.1-0.2,0.1-0.4,0.1c-0.2,0-0.6-0.1-1-0.4c-0.5-0.3-1-0.6-1.7-0.9
			c-0.7-0.3-1.5-0.7-2.4-1c-0.9-0.3-2-0.4-3.1-0.4c-1.1,0-2,0.1-2.8,0.4c-0.8,0.3-1.4,0.7-2,1.1c-0.5,0.5-0.9,1-1.2,1.7
			c-0.3,0.7-0.4,1.4-0.4,2.1c0,1.1,0.2,2,0.7,2.8c0.5,0.8,1.2,1.5,2,2.1c0.8,0.6,1.8,1.1,2.8,1.6c1.1,0.5,2.1,1,3.2,1.5
			c1.1,0.5,2.2,1.1,3.2,1.7c1.1,0.6,2,1.3,2.8,2.1c0.8,0.8,1.5,1.8,2,2.9C7011.2,1083.8,7011.5,1085.2,7011.5,1086.7z"/>
		<path class="st3" d="M7027,1096.7c0,0.2,0,0.3-0.1,0.4s-0.2,0.2-0.4,0.3s-0.5,0.1-0.8,0.2c-0.3,0-0.7,0.1-1.2,0.1
			c-0.5,0-0.9,0-1.2-0.1c-0.3,0-0.6-0.1-0.8-0.2s-0.3-0.2-0.4-0.3s-0.1-0.3-0.1-0.4v-37c0-0.2,0-0.3,0.1-0.4
			c0.1-0.1,0.2-0.2,0.4-0.3c0.2-0.1,0.5-0.1,0.8-0.2c0.3,0,0.7-0.1,1.2-0.1c0.5,0,0.9,0,1.2,0.1c0.3,0,0.6,0.1,0.8,0.2
			c0.2,0.1,0.3,0.2,0.4,0.3s0.1,0.3,0.1,0.4V1096.7z"/>
		<path class="st3" d="M7069.2,1064.2c0,0.4,0,0.7-0.1,1c0,0.3-0.1,0.5-0.2,0.7c-0.1,0.2-0.2,0.3-0.3,0.4c-0.1,0.1-0.2,0.1-0.4,0.1
			c-0.2,0-0.6-0.2-1.2-0.6s-1.3-0.8-2.2-1.3c-0.9-0.5-2.1-0.9-3.4-1.3c-1.3-0.4-2.8-0.6-4.6-0.6c-2.1,0-4,0.4-5.7,1.2
			c-1.7,0.8-3.1,1.8-4.3,3.2c-1.2,1.4-2.1,3-2.7,4.9c-0.6,1.9-0.9,3.9-0.9,6.1c0,2.5,0.3,4.6,1,6.6c0.7,1.9,1.6,3.5,2.8,4.8
			c1.2,1.3,2.7,2.3,4.3,3c1.7,0.7,3.5,1,5.5,1c1.2,0,2.4-0.1,3.6-0.4c1.2-0.3,2.4-0.7,3.4-1.3v-11.2h-8.9c-0.3,0-0.6-0.2-0.8-0.5
			c-0.2-0.3-0.3-0.9-0.3-1.6c0-0.4,0-0.7,0.1-1c0-0.3,0.1-0.5,0.2-0.7c0.1-0.2,0.2-0.3,0.3-0.4s0.3-0.1,0.4-0.1h12.2
			c0.2,0,0.4,0,0.7,0.1c0.2,0.1,0.4,0.2,0.6,0.4s0.3,0.4,0.4,0.7c0.1,0.3,0.1,0.6,0.1,1v14.7c0,0.5-0.1,1-0.3,1.3s-0.6,0.7-1.1,1
			c-0.6,0.3-1.3,0.6-2.2,0.9c-0.9,0.3-1.9,0.6-2.8,0.9c-1,0.2-2,0.4-2.9,0.5s-2,0.2-2.9,0.2c-3,0-5.6-0.5-8-1.4
			c-2.3-0.9-4.3-2.2-5.9-3.9c-1.6-1.7-2.9-3.8-3.7-6.1c-0.9-2.4-1.3-5-1.3-8c0-3.1,0.5-5.8,1.4-8.3c0.9-2.5,2.2-4.6,3.9-6.3
			c1.7-1.7,3.7-3.1,6-4.1c2.4-1,5-1.4,7.8-1.4c1.5,0,2.8,0.1,4.1,0.4c1.3,0.3,2.4,0.6,3.4,0.9s1.8,0.7,2.5,1.1
			c0.7,0.4,1.2,0.7,1.4,1c0.3,0.3,0.4,0.6,0.5,0.9C7069.2,1063.1,7069.2,1063.6,7069.2,1064.2z"/>
		<path class="st3" d="M7110.9,1095.4c0,0.4-0.1,0.7-0.2,1c-0.1,0.3-0.3,0.5-0.5,0.7c-0.2,0.2-0.5,0.3-0.7,0.4
			c-0.3,0.1-0.5,0.1-0.8,0.1h-1.7c-0.5,0-1-0.1-1.4-0.2c-0.4-0.1-0.8-0.3-1.1-0.6s-0.7-0.7-1.1-1.2s-0.7-1.1-1.1-1.9l-11.8-21.9
			c-0.6-1.1-1.2-2.3-1.9-3.6c-0.6-1.2-1.2-2.4-1.7-3.6h-0.1c0,1.4,0.1,2.9,0.1,4.4s0,3,0,4.4v23.3c0,0.1,0,0.3-0.1,0.4
			s-0.2,0.2-0.4,0.3s-0.5,0.1-0.8,0.2c-0.3,0-0.7,0.1-1.2,0.1c-0.5,0-0.9,0-1.2-0.1c-0.3,0-0.6-0.1-0.8-0.2
			c-0.2-0.1-0.3-0.2-0.4-0.3c-0.1-0.1-0.1-0.3-0.1-0.4v-35.6c0-0.8,0.2-1.4,0.7-1.7c0.5-0.3,0.9-0.5,1.5-0.5h2.5
			c0.6,0,1.1,0,1.5,0.1c0.4,0.1,0.8,0.3,1.1,0.5s0.6,0.5,0.9,1c0.3,0.4,0.6,0.9,0.9,1.5l9,16.9c0.6,1,1.1,2,1.6,3c0.5,1,1,2,1.5,2.9
			c0.5,1,1,1.9,1.4,2.8c0.5,0.9,0.9,1.9,1.4,2.8h0c0-1.6-0.1-3.2-0.1-4.9c0-1.7,0-3.3,0-4.9v-20.9c0-0.1,0-0.3,0.1-0.4
			c0.1-0.1,0.2-0.2,0.4-0.3c0.2-0.1,0.5-0.2,0.8-0.2c0.3,0,0.7-0.1,1.3-0.1c0.5,0,0.9,0,1.2,0.1c0.3,0,0.6,0.1,0.8,0.2
			c0.2,0.1,0.3,0.2,0.4,0.3s0.1,0.2,0.1,0.4V1095.4z"/>
	</g>
	<g class="st1">
		<path class="st4" d="M6853.5,1013.1c0,0.8,0,1.5-0.1,2c-0.1,0.5-0.2,1-0.3,1.3c-0.1,0.4-0.3,0.6-0.5,0.8c-0.2,0.2-0.4,0.2-0.7,0.2
			h-23.5c-0.9,0-1.6-0.3-2.2-0.8c-0.6-0.5-0.9-1.4-0.9-2.5v-46.5c0-0.3,0.1-0.5,0.3-0.7c0.2-0.2,0.5-0.4,0.9-0.5s0.9-0.2,1.6-0.3
			c0.7-0.1,1.5-0.1,2.5-0.1c1,0,1.9,0,2.5,0.1c0.7,0.1,1.2,0.2,1.6,0.3s0.7,0.3,0.9,0.5s0.3,0.4,0.3,0.7v41.2h16.1
			c0.3,0,0.5,0.1,0.7,0.2c0.2,0.1,0.4,0.4,0.5,0.7c0.1,0.3,0.2,0.8,0.3,1.3C6853.4,1011.7,6853.5,1012.4,6853.5,1013.1z"/>
		<path class="st4" d="M6908.3,991.3c0,4.2-0.5,8-1.6,11.4c-1.1,3.3-2.6,6.2-4.7,8.5c-2.1,2.3-4.7,4.1-7.7,5.3
			c-3.1,1.2-6.6,1.8-10.7,1.8c-4,0-7.5-0.5-10.4-1.6c-3-1-5.4-2.6-7.4-4.8c-2-2.1-3.5-4.9-4.4-8.1c-1-3.3-1.5-7.2-1.5-11.7
			c0-4.1,0.5-7.9,1.6-11.2c1.1-3.3,2.6-6.1,4.7-8.4c2.1-2.3,4.7-4.1,7.7-5.3s6.6-1.9,10.7-1.9c3.9,0,7.3,0.5,10.3,1.5
			c3,1,5.4,2.6,7.4,4.7s3.5,4.8,4.5,8.1C6907.7,983,6908.3,986.9,6908.3,991.3z M6897.3,991.9c0-2.7-0.2-5.1-0.6-7.3
			c-0.4-2.2-1.1-4.1-2.2-5.7s-2.4-2.8-4.1-3.6c-1.7-0.9-3.8-1.3-6.3-1.3c-2.6,0-4.7,0.5-6.4,1.4c-1.7,1-3.1,2.2-4.2,3.9
			c-1.1,1.6-1.8,3.5-2.2,5.6c-0.4,2.1-0.7,4.4-0.7,6.8c0,2.8,0.2,5.3,0.6,7.5c0.4,2.2,1.1,4.1,2.1,5.7c1,1.6,2.3,2.8,4,3.6
			c1.7,0.8,3.8,1.2,6.4,1.2c2.6,0,4.7-0.5,6.4-1.4c1.7-0.9,3.1-2.2,4.2-3.9c1.1-1.6,1.8-3.5,2.2-5.7
			C6897.1,996.6,6897.3,994.3,6897.3,991.9z"/>
		<path class="st4" d="M6962.1,974.3c0,0.8,0,1.4-0.1,2c-0.1,0.6-0.2,1-0.3,1.3c-0.1,0.3-0.3,0.6-0.4,0.7s-0.4,0.2-0.6,0.2
			c-0.3,0-0.9-0.2-1.7-0.7c-0.8-0.5-1.8-1-3-1.5s-2.8-1.1-4.5-1.5c-1.8-0.5-3.8-0.7-6.1-0.7c-2.5,0-4.7,0.4-6.7,1.3
			c-2,0.9-3.7,2.1-5.1,3.6s-2.5,3.5-3.3,5.7c-0.8,2.2-1.1,4.6-1.1,7.3c0,2.9,0.4,5.5,1.2,7.7c0.8,2.2,1.9,4.1,3.3,5.6
			c1.4,1.5,3.1,2.6,5,3.4s4.1,1.1,6.5,1.1c1.2,0,2.3-0.1,3.4-0.4c1.1-0.3,2.2-0.7,3.2-1.2v-11.9h-9.7c-0.5,0-0.8-0.3-1.1-0.9
			c-0.3-0.6-0.4-1.6-0.4-3c0-0.7,0-1.4,0.1-1.9c0.1-0.5,0.2-0.9,0.3-1.2c0.1-0.3,0.3-0.5,0.5-0.7c0.2-0.1,0.4-0.2,0.6-0.2h17.3
			c0.4,0,0.8,0.1,1.1,0.2s0.6,0.4,0.9,0.7s0.4,0.6,0.6,1c0.1,0.4,0.2,0.9,0.2,1.4v20.4c0,0.8-0.1,1.5-0.4,2.1
			c-0.3,0.6-0.8,1.1-1.7,1.4s-1.9,0.7-3.2,1.1s-2.6,0.7-3.9,0.9s-2.7,0.5-4.1,0.6c-1.4,0.1-2.8,0.2-4.2,0.2c-4.1,0-7.7-0.6-11-1.8
			c-3.2-1.2-6-2.9-8.2-5.1c-2.2-2.2-4-4.9-5.1-8.1c-1.2-3.2-1.8-6.8-1.8-10.9c0-4.2,0.6-8,1.9-11.3s3.1-6.2,5.4-8.5
			c2.3-2.3,5.1-4.1,8.4-5.4c3.3-1.2,6.9-1.9,11-1.9c2.2,0,4.2,0.2,6.1,0.5s3.4,0.7,4.8,1.1c1.4,0.4,2.5,0.9,3.4,1.4
			c0.9,0.5,1.5,0.9,1.9,1.3c0.4,0.4,0.6,0.9,0.8,1.6C6962,972,6962.1,973,6962.1,974.3z"/>
		<path class="st4" d="M7022.7,991.3c0,4.2-0.5,8-1.6,11.4c-1.1,3.3-2.6,6.2-4.7,8.5c-2.1,2.3-4.7,4.1-7.7,5.3
			c-3.1,1.2-6.6,1.8-10.7,1.8c-4,0-7.5-0.5-10.4-1.6c-3-1-5.4-2.6-7.4-4.8c-2-2.1-3.5-4.9-4.4-8.1c-1-3.3-1.5-7.2-1.5-11.7
			c0-4.1,0.5-7.9,1.6-11.2c1.1-3.3,2.6-6.1,4.7-8.4c2.1-2.3,4.7-4.1,7.7-5.3s6.6-1.9,10.7-1.9c3.9,0,7.3,0.5,10.3,1.5
			c3,1,5.4,2.6,7.4,4.7c2,2.1,3.5,4.8,4.5,8.1C7022.2,983,7022.7,986.9,7022.7,991.3z M7011.8,991.9c0-2.7-0.2-5.1-0.6-7.3
			c-0.4-2.2-1.1-4.1-2.2-5.7s-2.4-2.8-4.1-3.6c-1.7-0.9-3.8-1.3-6.3-1.3c-2.6,0-4.7,0.5-6.4,1.4c-1.7,1-3.1,2.2-4.2,3.9
			c-1.1,1.6-1.8,3.5-2.2,5.6c-0.4,2.1-0.7,4.4-0.7,6.8c0,2.8,0.2,5.3,0.6,7.5c0.4,2.2,1.1,4.1,2.1,5.7c1,1.6,2.3,2.8,4,3.6
			c1.7,0.8,3.8,1.2,6.4,1.2c2.6,0,4.7-0.5,6.4-1.4c1.7-0.9,3.1-2.2,4.2-3.9c1.1-1.6,1.8-3.5,2.2-5.7
			C7011.6,996.6,7011.8,994.3,7011.8,991.9z"/>
		<path class="st4" d="M7067.8,970.6c0,0.8,0,1.4-0.1,2c-0.1,0.5-0.2,1-0.3,1.3c-0.1,0.3-0.3,0.6-0.5,0.7c-0.2,0.2-0.4,0.2-0.7,0.2
			h-12.8v41.3c0,0.3-0.1,0.5-0.3,0.7c-0.2,0.2-0.5,0.4-0.9,0.5s-0.9,0.2-1.6,0.3c-0.7,0.1-1.5,0.1-2.5,0.1s-1.8,0-2.5-0.1
			c-0.7-0.1-1.2-0.2-1.6-0.3s-0.7-0.3-0.8-0.5c-0.2-0.2-0.3-0.4-0.3-0.7v-41.3h-12.8c-0.3,0-0.5-0.1-0.7-0.2
			c-0.2-0.2-0.3-0.4-0.5-0.7c-0.1-0.3-0.2-0.8-0.3-1.3c-0.1-0.5-0.1-1.2-0.1-2c0-0.8,0-1.5,0.1-2c0.1-0.6,0.2-1,0.3-1.3
			c0.1-0.3,0.3-0.6,0.5-0.7c0.2-0.1,0.4-0.2,0.7-0.2h36.1c0.2,0,0.5,0.1,0.7,0.2c0.2,0.1,0.4,0.4,0.5,0.7c0.1,0.3,0.2,0.8,0.3,1.3
			C7067.8,969.1,7067.8,969.8,7067.8,970.6z"/>
		<path class="st4" d="M7098.6,998.1v18c0,0.3-0.1,0.5-0.3,0.7c-0.2,0.2-0.5,0.4-0.9,0.5s-0.9,0.2-1.6,0.3c-0.7,0.1-1.5,0.1-2.5,0.1
			c-1,0-1.9,0-2.5-0.1c-0.7-0.1-1.2-0.2-1.6-0.3c-0.4-0.1-0.7-0.3-0.9-0.5s-0.2-0.4-0.2-0.7v-18l-14-27.9c-0.5-1-0.8-1.7-1-2.3
			c-0.1-0.5-0.1-0.9,0.2-1.2c0.3-0.3,0.9-0.4,1.7-0.5c0.8-0.1,2-0.1,3.4-0.1c1.2,0,2.2,0,2.9,0.1c0.7,0.1,1.3,0.2,1.7,0.3
			s0.7,0.3,0.9,0.6c0.2,0.2,0.4,0.5,0.6,0.9l5.7,12.6c0.6,1.2,1.1,2.5,1.6,3.8c0.5,1.3,1.1,2.8,1.6,4.2h0.1c0.5-1.4,1-2.8,1.5-4.2
			s1-2.6,1.5-3.8l5.6-12.5c0.1-0.4,0.3-0.8,0.5-1c0.2-0.3,0.5-0.5,0.9-0.6s0.9-0.3,1.6-0.3c0.7-0.1,1.6-0.1,2.7-0.1
			c1.5,0,2.7,0,3.5,0.1c0.8,0.1,1.4,0.2,1.7,0.5c0.3,0.3,0.4,0.7,0.2,1.2c-0.2,0.6-0.5,1.3-0.9,2.3L7098.6,998.1z"/>
		<path class="st4" d="M7159.1,981.9c0,2.9-0.4,5.4-1.3,7.6s-2.2,4.1-3.9,5.6c-1.7,1.5-3.8,2.7-6.3,3.5c-2.5,0.8-5.4,1.2-8.8,1.2
			h-4.3v16.3c0,0.3-0.1,0.5-0.3,0.7c-0.2,0.2-0.5,0.4-0.9,0.5s-0.9,0.2-1.6,0.3c-0.7,0.1-1.5,0.1-2.5,0.1c-1,0-1.8,0-2.5-0.1
			c-0.7-0.1-1.2-0.2-1.6-0.3s-0.7-0.3-0.8-0.5s-0.2-0.4-0.2-0.7v-46c0-1.2,0.3-2.2,1-2.8c0.6-0.6,1.5-0.9,2.6-0.9h12.1
			c1.2,0,2.4,0,3.5,0.1c1.1,0.1,2.4,0.3,3.9,0.6c1.5,0.3,3.1,0.9,4.6,1.7c1.6,0.8,2.9,1.9,4,3.1s2,2.7,2.5,4.4
			C7158.8,977.9,7159.1,979.8,7159.1,981.9z M7148.2,982.6c0-1.8-0.3-3.3-0.9-4.4s-1.4-2-2.3-2.6c-0.9-0.6-1.9-0.9-2.9-1
			c-1-0.1-2.1-0.2-3.1-0.2h-4.4v17.4h4.7c1.7,0,3.1-0.2,4.2-0.7c1.1-0.4,2-1.1,2.7-1.9s1.3-1.8,1.6-2.9
			C7148,985.2,7148.2,983.9,7148.2,982.6z"/>
		<path class="st4" d="M7201.5,1013.4c0,0.8,0,1.4-0.1,1.9c-0.1,0.5-0.2,0.9-0.3,1.2c-0.1,0.3-0.3,0.5-0.5,0.7
			c-0.2,0.1-0.4,0.2-0.7,0.2h-25.7c-0.9,0-1.6-0.3-2.2-0.8c-0.6-0.5-0.9-1.4-0.9-2.5v-44.6c0-1.2,0.3-2,0.9-2.5
			c0.6-0.5,1.3-0.8,2.2-0.8h25.5c0.2,0,0.4,0.1,0.6,0.2c0.2,0.1,0.3,0.4,0.5,0.7c0.1,0.3,0.2,0.8,0.3,1.3c0.1,0.5,0.1,1.2,0.1,2
			c0,0.7,0,1.4-0.1,1.9c-0.1,0.5-0.2,0.9-0.3,1.2c-0.1,0.3-0.3,0.5-0.5,0.7c-0.2,0.1-0.4,0.2-0.6,0.2h-18.3V987h15.5
			c0.2,0,0.5,0.1,0.7,0.2s0.4,0.4,0.5,0.7c0.1,0.3,0.2,0.7,0.3,1.2c0.1,0.5,0.1,1.1,0.1,1.9c0,0.8,0,1.4-0.1,1.9
			c-0.1,0.5-0.2,0.9-0.3,1.2c-0.1,0.3-0.3,0.5-0.5,0.7s-0.4,0.2-0.7,0.2h-15.5v14.4h18.4c0.2,0,0.5,0.1,0.7,0.2
			c0.2,0.1,0.4,0.4,0.5,0.7c0.1,0.3,0.2,0.7,0.3,1.2C7201.5,1012,7201.5,1012.7,7201.5,1013.4z"/>
	</g>
	<g class="st1">
		<path class="st3" d="M6853.5,1013.1c0,0.8,0,1.5-0.1,2c-0.1,0.5-0.2,1-0.3,1.3c-0.1,0.4-0.3,0.6-0.5,0.8c-0.2,0.2-0.4,0.2-0.7,0.2
			h-23.5c-0.9,0-1.6-0.3-2.2-0.8c-0.6-0.5-0.9-1.4-0.9-2.5v-46.5c0-0.3,0.1-0.5,0.3-0.7c0.2-0.2,0.5-0.4,0.9-0.5s0.9-0.2,1.6-0.3
			c0.7-0.1,1.5-0.1,2.5-0.1c1,0,1.9,0,2.5,0.1c0.7,0.1,1.2,0.2,1.6,0.3s0.7,0.3,0.9,0.5s0.3,0.4,0.3,0.7v41.2h16.1
			c0.3,0,0.5,0.1,0.7,0.2c0.2,0.1,0.4,0.4,0.5,0.7c0.1,0.3,0.2,0.8,0.3,1.3C6853.4,1011.7,6853.5,1012.4,6853.5,1013.1z"/>
		<path class="st3" d="M6908.3,991.3c0,4.2-0.5,8-1.6,11.4c-1.1,3.3-2.6,6.2-4.7,8.5c-2.1,2.3-4.7,4.1-7.7,5.3
			c-3.1,1.2-6.6,1.8-10.7,1.8c-4,0-7.5-0.5-10.4-1.6c-3-1-5.4-2.6-7.4-4.8c-2-2.1-3.5-4.9-4.4-8.1c-1-3.3-1.5-7.2-1.5-11.7
			c0-4.1,0.5-7.9,1.6-11.2c1.1-3.3,2.6-6.1,4.7-8.4c2.1-2.3,4.7-4.1,7.7-5.3s6.6-1.9,10.7-1.9c3.9,0,7.3,0.5,10.3,1.5
			c3,1,5.4,2.6,7.4,4.7s3.5,4.8,4.5,8.1C6907.7,983,6908.3,986.9,6908.3,991.3z M6897.3,991.9c0-2.7-0.2-5.1-0.6-7.3
			c-0.4-2.2-1.1-4.1-2.2-5.7s-2.4-2.8-4.1-3.6c-1.7-0.9-3.8-1.3-6.3-1.3c-2.6,0-4.7,0.5-6.4,1.4c-1.7,1-3.1,2.2-4.2,3.9
			c-1.1,1.6-1.8,3.5-2.2,5.6c-0.4,2.1-0.7,4.4-0.7,6.8c0,2.8,0.2,5.3,0.6,7.5c0.4,2.2,1.1,4.1,2.1,5.7c1,1.6,2.3,2.8,4,3.6
			c1.7,0.8,3.8,1.2,6.4,1.2c2.6,0,4.7-0.5,6.4-1.4c1.7-0.9,3.1-2.2,4.2-3.9c1.1-1.6,1.8-3.5,2.2-5.7
			C6897.1,996.6,6897.3,994.3,6897.3,991.9z"/>
		<path class="st3" d="M6962.1,974.3c0,0.8,0,1.4-0.1,2c-0.1,0.6-0.2,1-0.3,1.3c-0.1,0.3-0.3,0.6-0.4,0.7s-0.4,0.2-0.6,0.2
			c-0.3,0-0.9-0.2-1.7-0.7c-0.8-0.5-1.8-1-3-1.5s-2.8-1.1-4.5-1.5c-1.8-0.5-3.8-0.7-6.1-0.7c-2.5,0-4.7,0.4-6.7,1.3
			c-2,0.9-3.7,2.1-5.1,3.6s-2.5,3.5-3.3,5.7c-0.8,2.2-1.1,4.6-1.1,7.3c0,2.9,0.4,5.5,1.2,7.7c0.8,2.2,1.9,4.1,3.3,5.6
			c1.4,1.5,3.1,2.6,5,3.4s4.1,1.1,6.5,1.1c1.2,0,2.3-0.1,3.4-0.4c1.1-0.3,2.2-0.7,3.2-1.2v-11.9h-9.7c-0.5,0-0.8-0.3-1.1-0.9
			c-0.3-0.6-0.4-1.6-0.4-3c0-0.7,0-1.4,0.1-1.9c0.1-0.5,0.2-0.9,0.3-1.2c0.1-0.3,0.3-0.5,0.5-0.7c0.2-0.1,0.4-0.2,0.6-0.2h17.3
			c0.4,0,0.8,0.1,1.1,0.2s0.6,0.4,0.9,0.7s0.4,0.6,0.6,1c0.1,0.4,0.2,0.9,0.2,1.4v20.4c0,0.8-0.1,1.5-0.4,2.1
			c-0.3,0.6-0.8,1.1-1.7,1.4s-1.9,0.7-3.2,1.1s-2.6,0.7-3.9,0.9s-2.7,0.5-4.1,0.6c-1.4,0.1-2.8,0.2-4.2,0.2c-4.1,0-7.7-0.6-11-1.8
			c-3.2-1.2-6-2.9-8.2-5.1c-2.2-2.2-4-4.9-5.1-8.1c-1.2-3.2-1.8-6.8-1.8-10.9c0-4.2,0.6-8,1.9-11.3s3.1-6.2,5.4-8.5
			c2.3-2.3,5.1-4.1,8.4-5.4c3.3-1.2,6.9-1.9,11-1.9c2.2,0,4.2,0.2,6.1,0.5s3.4,0.7,4.8,1.1c1.4,0.4,2.5,0.9,3.4,1.4
			c0.9,0.5,1.5,0.9,1.9,1.3c0.4,0.4,0.6,0.9,0.8,1.6C6962,972,6962.1,973,6962.1,974.3z"/>
		<path class="st3" d="M7022.7,991.3c0,4.2-0.5,8-1.6,11.4c-1.1,3.3-2.6,6.2-4.7,8.5c-2.1,2.3-4.7,4.1-7.7,5.3
			c-3.1,1.2-6.6,1.8-10.7,1.8c-4,0-7.5-0.5-10.4-1.6c-3-1-5.4-2.6-7.4-4.8c-2-2.1-3.5-4.9-4.4-8.1c-1-3.3-1.5-7.2-1.5-11.7
			c0-4.1,0.5-7.9,1.6-11.2c1.1-3.3,2.6-6.1,4.7-8.4c2.1-2.3,4.7-4.1,7.7-5.3s6.6-1.9,10.7-1.9c3.9,0,7.3,0.5,10.3,1.5
			c3,1,5.4,2.6,7.4,4.7c2,2.1,3.5,4.8,4.5,8.1C7022.2,983,7022.7,986.9,7022.7,991.3z M7011.8,991.9c0-2.7-0.2-5.1-0.6-7.3
			c-0.4-2.2-1.1-4.1-2.2-5.7s-2.4-2.8-4.1-3.6c-1.7-0.9-3.8-1.3-6.3-1.3c-2.6,0-4.7,0.5-6.4,1.4c-1.7,1-3.1,2.2-4.2,3.9
			c-1.1,1.6-1.8,3.5-2.2,5.6c-0.4,2.1-0.7,4.4-0.7,6.8c0,2.8,0.2,5.3,0.6,7.5c0.4,2.2,1.1,4.1,2.1,5.7c1,1.6,2.3,2.8,4,3.6
			c1.7,0.8,3.8,1.2,6.4,1.2c2.6,0,4.7-0.5,6.4-1.4c1.7-0.9,3.1-2.2,4.2-3.9c1.1-1.6,1.8-3.5,2.2-5.7
			C7011.6,996.6,7011.8,994.3,7011.8,991.9z"/>
		<path class="st3" d="M7067.8,970.6c0,0.8,0,1.4-0.1,2c-0.1,0.5-0.2,1-0.3,1.3c-0.1,0.3-0.3,0.6-0.5,0.7c-0.2,0.2-0.4,0.2-0.7,0.2
			h-12.8v41.3c0,0.3-0.1,0.5-0.3,0.7c-0.2,0.2-0.5,0.4-0.9,0.5s-0.9,0.2-1.6,0.3c-0.7,0.1-1.5,0.1-2.5,0.1s-1.8,0-2.5-0.1
			c-0.7-0.1-1.2-0.2-1.6-0.3s-0.7-0.3-0.8-0.5c-0.2-0.2-0.3-0.4-0.3-0.7v-41.3h-12.8c-0.3,0-0.5-0.1-0.7-0.2
			c-0.2-0.2-0.3-0.4-0.5-0.7c-0.1-0.3-0.2-0.8-0.3-1.3c-0.1-0.5-0.1-1.2-0.1-2c0-0.8,0-1.5,0.1-2c0.1-0.6,0.2-1,0.3-1.3
			c0.1-0.3,0.3-0.6,0.5-0.7c0.2-0.1,0.4-0.2,0.7-0.2h36.1c0.2,0,0.5,0.1,0.7,0.2c0.2,0.1,0.4,0.4,0.5,0.7c0.1,0.3,0.2,0.8,0.3,1.3
			C7067.8,969.1,7067.8,969.8,7067.8,970.6z"/>
		<path class="st3" d="M7098.6,998.1v18c0,0.3-0.1,0.5-0.3,0.7c-0.2,0.2-0.5,0.4-0.9,0.5s-0.9,0.2-1.6,0.3c-0.7,0.1-1.5,0.1-2.5,0.1
			c-1,0-1.9,0-2.5-0.1c-0.7-0.1-1.2-0.2-1.6-0.3c-0.4-0.1-0.7-0.3-0.9-0.5s-0.2-0.4-0.2-0.7v-18l-14-27.9c-0.5-1-0.8-1.7-1-2.3
			c-0.1-0.5-0.1-0.9,0.2-1.2c0.3-0.3,0.9-0.4,1.7-0.5c0.8-0.1,2-0.1,3.4-0.1c1.2,0,2.2,0,2.9,0.1c0.7,0.1,1.3,0.2,1.7,0.3
			s0.7,0.3,0.9,0.6c0.2,0.2,0.4,0.5,0.6,0.9l5.7,12.6c0.6,1.2,1.1,2.5,1.6,3.8c0.5,1.3,1.1,2.8,1.6,4.2h0.1c0.5-1.4,1-2.8,1.5-4.2
			s1-2.6,1.5-3.8l5.6-12.5c0.1-0.4,0.3-0.8,0.5-1c0.2-0.3,0.5-0.5,0.9-0.6s0.9-0.3,1.6-0.3c0.7-0.1,1.6-0.1,2.7-0.1
			c1.5,0,2.7,0,3.5,0.1c0.8,0.1,1.4,0.2,1.7,0.5c0.3,0.3,0.4,0.7,0.2,1.2c-0.2,0.6-0.5,1.3-0.9,2.3L7098.6,998.1z"/>
		<path class="st3" d="M7159.1,981.9c0,2.9-0.4,5.4-1.3,7.6s-2.2,4.1-3.9,5.6c-1.7,1.5-3.8,2.7-6.3,3.5c-2.5,0.8-5.4,1.2-8.8,1.2
			h-4.3v16.3c0,0.3-0.1,0.5-0.3,0.7c-0.2,0.2-0.5,0.4-0.9,0.5s-0.9,0.2-1.6,0.3c-0.7,0.1-1.5,0.1-2.5,0.1c-1,0-1.8,0-2.5-0.1
			c-0.7-0.1-1.2-0.2-1.6-0.3s-0.7-0.3-0.8-0.5s-0.2-0.4-0.2-0.7v-46c0-1.2,0.3-2.2,1-2.8c0.6-0.6,1.5-0.9,2.6-0.9h12.1
			c1.2,0,2.4,0,3.5,0.1c1.1,0.1,2.4,0.3,3.9,0.6c1.5,0.3,3.1,0.9,4.6,1.7c1.6,0.8,2.9,1.9,4,3.1s2,2.7,2.5,4.4
			C7158.8,977.9,7159.1,979.8,7159.1,981.9z M7148.2,982.6c0-1.8-0.3-3.3-0.9-4.4s-1.4-2-2.3-2.6c-0.9-0.6-1.9-0.9-2.9-1
			c-1-0.1-2.1-0.2-3.1-0.2h-4.4v17.4h4.7c1.7,0,3.1-0.2,4.2-0.7c1.1-0.4,2-1.1,2.7-1.9s1.3-1.8,1.6-2.9
			C7148,985.2,7148.2,983.9,7148.2,982.6z"/>
		<path class="st3" d="M7201.5,1013.4c0,0.8,0,1.4-0.1,1.9c-0.1,0.5-0.2,0.9-0.3,1.2c-0.1,0.3-0.3,0.5-0.5,0.7
			c-0.2,0.1-0.4,0.2-0.7,0.2h-25.7c-0.9,0-1.6-0.3-2.2-0.8c-0.6-0.5-0.9-1.4-0.9-2.5v-44.6c0-1.2,0.3-2,0.9-2.5
			c0.6-0.5,1.3-0.8,2.2-0.8h25.5c0.2,0,0.4,0.1,0.6,0.2c0.2,0.1,0.3,0.4,0.5,0.7c0.1,0.3,0.2,0.8,0.3,1.3c0.1,0.5,0.1,1.2,0.1,2
			c0,0.7,0,1.4-0.1,1.9c-0.1,0.5-0.2,0.9-0.3,1.2c-0.1,0.3-0.3,0.5-0.5,0.7c-0.2,0.1-0.4,0.2-0.6,0.2h-18.3V987h15.5
			c0.2,0,0.5,0.1,0.7,0.2s0.4,0.4,0.5,0.7c0.1,0.3,0.2,0.7,0.3,1.2c0.1,0.5,0.1,1.1,0.1,1.9c0,0.8,0,1.4-0.1,1.9
			c-0.1,0.5-0.2,0.9-0.3,1.2c-0.1,0.3-0.3,0.5-0.5,0.7s-0.4,0.2-0.7,0.2h-15.5v14.4h18.4c0.2,0,0.5,0.1,0.7,0.2
			c0.2,0.1,0.4,0.4,0.5,0.7c0.1,0.3,0.2,0.7,0.3,1.2C7201.5,1012,7201.5,1012.7,7201.5,1013.4z"/>
	</g>
	<g class="st1">
		<path class="st4" d="M6945.6,1077.7c0,3.3-0.4,6.2-1.3,8.7c-0.9,2.5-2.1,4.6-3.7,6.2c-1.6,1.6-3.6,2.9-6,3.7
			c-2.4,0.8-5.2,1.2-8.5,1.2h-8.2c-0.5,0-0.9-0.2-1.3-0.5c-0.4-0.3-0.6-0.8-0.6-1.6V1061c0-0.8,0.2-1.3,0.6-1.6
			c0.4-0.3,0.8-0.5,1.3-0.5h8.7c3.3,0,6.2,0.4,8.5,1.3c2.3,0.9,4.2,2.1,5.8,3.7c1.6,1.6,2.7,3.6,3.5,5.9
			C6945.2,1072.2,6945.6,1074.8,6945.6,1077.7z M6940.2,1077.9c0-2.1-0.3-4-0.8-5.8c-0.5-1.8-1.3-3.4-2.4-4.7
			c-1.1-1.3-2.5-2.3-4.2-3.1c-1.7-0.7-3.9-1.1-6.5-1.1h-5.2v30h5.3c2.5,0,4.5-0.3,6.2-0.9c1.7-0.6,3.1-1.6,4.2-2.8s2-2.9,2.5-4.8
			C6939.9,1082.8,6940.2,1080.5,6940.2,1077.9z"/>
		<path class="st4" d="M6978,1095.4c0,0.4,0,0.7-0.1,0.9c0,0.3-0.1,0.5-0.2,0.7c-0.1,0.2-0.2,0.3-0.3,0.4c-0.1,0.1-0.3,0.1-0.4,0.1
			h-18.5c-0.5,0-0.9-0.2-1.3-0.5c-0.4-0.3-0.6-0.8-0.6-1.6V1061c0-0.8,0.2-1.3,0.6-1.6c0.4-0.3,0.8-0.5,1.3-0.5h18.3
			c0.2,0,0.3,0,0.4,0.1c0.1,0.1,0.2,0.2,0.3,0.4c0.1,0.2,0.1,0.4,0.2,0.7c0,0.3,0.1,0.6,0.1,1c0,0.4,0,0.7-0.1,0.9
			c0,0.3-0.1,0.5-0.2,0.7c-0.1,0.2-0.2,0.3-0.3,0.4c-0.1,0.1-0.3,0.1-0.4,0.1h-15.1v12.1h12.9c0.2,0,0.3,0,0.4,0.1
			c0.1,0.1,0.2,0.2,0.3,0.4c0.1,0.2,0.2,0.4,0.2,0.7c0,0.3,0.1,0.6,0.1,1c0,0.4,0,0.7-0.1,0.9c0,0.3-0.1,0.5-0.2,0.6
			c-0.1,0.2-0.2,0.3-0.3,0.3c-0.1,0.1-0.3,0.1-0.4,0.1h-12.9v13.8h15.3c0.2,0,0.3,0,0.4,0.1c0.1,0.1,0.2,0.2,0.3,0.4
			c0.1,0.2,0.2,0.4,0.2,0.7C6978,1094.7,6978,1095,6978,1095.4z"/>
		<path class="st4" d="M7009.5,1086.7c0,1.8-0.3,3.4-1,4.8c-0.7,1.4-1.6,2.6-2.8,3.6c-1.2,1-2.6,1.7-4.2,2.2
			c-1.6,0.5-3.3,0.7-5.2,0.7c-1.3,0-2.5-0.1-3.6-0.3c-1.1-0.2-2.1-0.5-2.9-0.8c-0.9-0.3-1.6-0.6-2.2-1c-0.6-0.3-1-0.6-1.2-0.9
			c-0.2-0.2-0.4-0.5-0.5-0.9c-0.1-0.4-0.2-0.9-0.2-1.5c0-0.4,0-0.8,0.1-1.1c0-0.3,0.1-0.5,0.2-0.7c0.1-0.2,0.2-0.3,0.3-0.4
			c0.1-0.1,0.3-0.1,0.4-0.1c0.3,0,0.7,0.2,1.2,0.5c0.5,0.3,1.2,0.7,2,1.1c0.8,0.4,1.8,0.8,2.9,1.1c1.1,0.3,2.4,0.5,3.9,0.5
			c1.1,0,2.1-0.1,3.1-0.4c0.9-0.3,1.7-0.7,2.4-1.3c0.7-0.5,1.2-1.2,1.5-2c0.4-0.8,0.5-1.7,0.5-2.7c0-1.1-0.2-2-0.7-2.8
			c-0.5-0.8-1.2-1.5-2-2c-0.8-0.6-1.7-1.1-2.8-1.6c-1-0.5-2.1-1-3.2-1.5c-1.1-0.5-2.2-1.1-3.2-1.7c-1-0.6-2-1.3-2.8-2.2
			c-0.8-0.8-1.5-1.8-2-2.9c-0.5-1.1-0.8-2.5-0.8-4c0-1.6,0.3-3,0.9-4.3c0.6-1.3,1.4-2.3,2.4-3.2c1-0.9,2.3-1.5,3.7-2
			c1.4-0.4,3-0.7,4.7-0.7c0.9,0,1.7,0.1,2.6,0.2c0.9,0.1,1.7,0.3,2.4,0.6c0.8,0.2,1.4,0.5,2,0.8c0.6,0.3,1,0.6,1.2,0.7
			c0.2,0.2,0.3,0.3,0.4,0.4c0.1,0.1,0.1,0.2,0.1,0.4c0,0.2,0.1,0.4,0.1,0.6c0,0.2,0,0.5,0,0.9c0,0.4,0,0.7,0,1
			c0,0.3-0.1,0.5-0.1,0.7s-0.1,0.3-0.3,0.4c-0.1,0.1-0.2,0.1-0.4,0.1c-0.2,0-0.6-0.1-1-0.4c-0.5-0.3-1-0.6-1.7-0.9
			c-0.7-0.3-1.5-0.7-2.4-1c-0.9-0.3-2-0.4-3.1-0.4c-1.1,0-2,0.1-2.8,0.4c-0.8,0.3-1.4,0.7-2,1.1c-0.5,0.5-0.9,1-1.2,1.7
			c-0.3,0.7-0.4,1.4-0.4,2.1c0,1.1,0.2,2,0.7,2.8c0.5,0.8,1.2,1.5,2,2.1c0.8,0.6,1.8,1.1,2.8,1.6c1.1,0.5,2.1,1,3.2,1.5
			c1.1,0.5,2.2,1.1,3.2,1.7c1.1,0.6,2,1.3,2.8,2.1c0.8,0.8,1.5,1.8,2,2.9C7009.2,1083.8,7009.5,1085.2,7009.5,1086.7z"/>
		<path class="st4" d="M7025,1096.7c0,0.2,0,0.3-0.1,0.4s-0.2,0.2-0.4,0.3s-0.5,0.1-0.8,0.2c-0.3,0-0.7,0.1-1.2,0.1
			c-0.5,0-0.9,0-1.2-0.1c-0.3,0-0.6-0.1-0.8-0.2s-0.3-0.2-0.4-0.3s-0.1-0.3-0.1-0.4v-37c0-0.2,0-0.3,0.1-0.4
			c0.1-0.1,0.2-0.2,0.4-0.3c0.2-0.1,0.5-0.1,0.8-0.2c0.3,0,0.7-0.1,1.2-0.1c0.5,0,0.9,0,1.2,0.1c0.3,0,0.6,0.1,0.8,0.2
			c0.2,0.1,0.3,0.2,0.4,0.3s0.1,0.3,0.1,0.4V1096.7z"/>
		<path class="st4" d="M7067.2,1064.2c0,0.4,0,0.7-0.1,1c0,0.3-0.1,0.5-0.2,0.7c-0.1,0.2-0.2,0.3-0.3,0.4c-0.1,0.1-0.2,0.1-0.4,0.1
			c-0.2,0-0.6-0.2-1.2-0.6s-1.3-0.8-2.2-1.3c-0.9-0.5-2.1-0.9-3.4-1.3c-1.3-0.4-2.8-0.6-4.6-0.6c-2.1,0-4,0.4-5.7,1.2
			c-1.7,0.8-3.1,1.8-4.3,3.2c-1.2,1.4-2.1,3-2.7,4.9c-0.6,1.9-0.9,3.9-0.9,6.1c0,2.5,0.3,4.6,1,6.6c0.7,1.9,1.6,3.5,2.8,4.8
			c1.2,1.3,2.7,2.3,4.3,3c1.7,0.7,3.5,1,5.5,1c1.2,0,2.4-0.1,3.6-0.4c1.2-0.3,2.4-0.7,3.4-1.3v-11.2h-8.9c-0.3,0-0.6-0.2-0.8-0.5
			c-0.2-0.3-0.3-0.9-0.3-1.6c0-0.4,0-0.7,0.1-1c0-0.3,0.1-0.5,0.2-0.7c0.1-0.2,0.2-0.3,0.3-0.4s0.3-0.1,0.4-0.1h12.2
			c0.2,0,0.4,0,0.7,0.1c0.2,0.1,0.4,0.2,0.6,0.4s0.3,0.4,0.4,0.7c0.1,0.3,0.1,0.6,0.1,1v14.7c0,0.5-0.1,1-0.3,1.3s-0.6,0.7-1.1,1
			c-0.6,0.3-1.3,0.6-2.2,0.9c-0.9,0.3-1.9,0.6-2.8,0.9c-1,0.2-2,0.4-2.9,0.5s-2,0.2-2.9,0.2c-3,0-5.6-0.5-8-1.4
			c-2.3-0.9-4.3-2.2-5.9-3.9c-1.6-1.7-2.9-3.8-3.7-6.1c-0.9-2.4-1.3-5-1.3-8c0-3.1,0.5-5.8,1.4-8.3c0.9-2.5,2.2-4.6,3.9-6.3
			c1.7-1.7,3.7-3.1,6-4.1c2.4-1,5-1.4,7.8-1.4c1.5,0,2.8,0.1,4.1,0.4c1.3,0.3,2.4,0.6,3.4,0.9s1.8,0.7,2.5,1.1
			c0.7,0.4,1.2,0.7,1.4,1c0.3,0.3,0.4,0.6,0.5,0.9C7067.2,1063.1,7067.2,1063.6,7067.2,1064.2z"/>
		<path class="st4" d="M7108.9,1095.4c0,0.4-0.1,0.7-0.2,1c-0.1,0.3-0.3,0.5-0.5,0.7c-0.2,0.2-0.5,0.3-0.7,0.4
			c-0.3,0.1-0.5,0.1-0.8,0.1h-1.7c-0.5,0-1-0.1-1.4-0.2c-0.4-0.1-0.8-0.3-1.1-0.6s-0.7-0.7-1.1-1.2s-0.7-1.1-1.1-1.9l-11.8-21.9
			c-0.6-1.1-1.2-2.3-1.9-3.6c-0.6-1.2-1.2-2.4-1.7-3.6h-0.1c0,1.4,0.1,2.9,0.1,4.4s0,3,0,4.4v23.3c0,0.1,0,0.3-0.1,0.4
			s-0.2,0.2-0.4,0.3s-0.5,0.1-0.8,0.2c-0.3,0-0.7,0.1-1.2,0.1c-0.5,0-0.9,0-1.2-0.1c-0.3,0-0.6-0.1-0.8-0.2
			c-0.2-0.1-0.3-0.2-0.4-0.3c-0.1-0.1-0.1-0.3-0.1-0.4v-35.6c0-0.8,0.2-1.4,0.7-1.7c0.5-0.3,0.9-0.5,1.5-0.5h2.5
			c0.6,0,1.1,0,1.5,0.1c0.4,0.1,0.8,0.3,1.1,0.5s0.6,0.5,0.9,1c0.3,0.4,0.6,0.9,0.9,1.5l9,16.9c0.6,1,1.1,2,1.6,3c0.5,1,1,2,1.5,2.9
			c0.5,1,1,1.9,1.4,2.8c0.5,0.9,0.9,1.9,1.4,2.8h0c0-1.6-0.1-3.2-0.1-4.9c0-1.7,0-3.3,0-4.9v-20.9c0-0.1,0-0.3,0.1-0.4
			c0.1-0.1,0.2-0.2,0.4-0.3c0.2-0.1,0.5-0.2,0.8-0.2c0.3,0,0.7-0.1,1.3-0.1c0.5,0,0.9,0,1.2,0.1c0.3,0,0.6,0.1,0.8,0.2
			c0.2,0.1,0.3,0.2,0.4,0.3s0.1,0.2,0.1,0.4V1095.4z"/>
	</g>
	<g class="st1">
		<path class="st3" d="M6945.6,1077.7c0,3.3-0.4,6.2-1.3,8.7c-0.9,2.5-2.1,4.6-3.7,6.2c-1.6,1.6-3.6,2.9-6,3.7
			c-2.4,0.8-5.2,1.2-8.5,1.2h-8.2c-0.5,0-0.9-0.2-1.3-0.5c-0.4-0.3-0.6-0.8-0.6-1.6V1061c0-0.8,0.2-1.3,0.6-1.6
			c0.4-0.3,0.8-0.5,1.3-0.5h8.7c3.3,0,6.2,0.4,8.5,1.3c2.3,0.9,4.2,2.1,5.8,3.7c1.6,1.6,2.7,3.6,3.5,5.9
			C6945.2,1072.2,6945.6,1074.8,6945.6,1077.7z M6940.2,1077.9c0-2.1-0.3-4-0.8-5.8c-0.5-1.8-1.3-3.4-2.4-4.7
			c-1.1-1.3-2.5-2.3-4.2-3.1c-1.7-0.7-3.9-1.1-6.5-1.1h-5.2v30h5.3c2.5,0,4.5-0.3,6.2-0.9c1.7-0.6,3.1-1.6,4.2-2.8s2-2.9,2.5-4.8
			C6939.9,1082.8,6940.2,1080.5,6940.2,1077.9z"/>
		<path class="st3" d="M6978,1095.4c0,0.4,0,0.7-0.1,0.9c0,0.3-0.1,0.5-0.2,0.7c-0.1,0.2-0.2,0.3-0.3,0.4c-0.1,0.1-0.3,0.1-0.4,0.1
			h-18.5c-0.5,0-0.9-0.2-1.3-0.5c-0.4-0.3-0.6-0.8-0.6-1.6V1061c0-0.8,0.2-1.3,0.6-1.6c0.4-0.3,0.8-0.5,1.3-0.5h18.3
			c0.2,0,0.3,0,0.4,0.1c0.1,0.1,0.2,0.2,0.3,0.4c0.1,0.2,0.1,0.4,0.2,0.7c0,0.3,0.1,0.6,0.1,1c0,0.4,0,0.7-0.1,0.9
			c0,0.3-0.1,0.5-0.2,0.7c-0.1,0.2-0.2,0.3-0.3,0.4c-0.1,0.1-0.3,0.1-0.4,0.1h-15.1v12.1h12.9c0.2,0,0.3,0,0.4,0.1
			c0.1,0.1,0.2,0.2,0.3,0.4c0.1,0.2,0.2,0.4,0.2,0.7c0,0.3,0.1,0.6,0.1,1c0,0.4,0,0.7-0.1,0.9c0,0.3-0.1,0.5-0.2,0.6
			c-0.1,0.2-0.2,0.3-0.3,0.3c-0.1,0.1-0.3,0.1-0.4,0.1h-12.9v13.8h15.3c0.2,0,0.3,0,0.4,0.1c0.1,0.1,0.2,0.2,0.3,0.4
			c0.1,0.2,0.2,0.4,0.2,0.7C6978,1094.7,6978,1095,6978,1095.4z"/>
		<path class="st3" d="M7009.5,1086.7c0,1.8-0.3,3.4-1,4.8c-0.7,1.4-1.6,2.6-2.8,3.6c-1.2,1-2.6,1.7-4.2,2.2
			c-1.6,0.5-3.3,0.7-5.2,0.7c-1.3,0-2.5-0.1-3.6-0.3c-1.1-0.2-2.1-0.5-2.9-0.8c-0.9-0.3-1.6-0.6-2.2-1c-0.6-0.3-1-0.6-1.2-0.9
			c-0.2-0.2-0.4-0.5-0.5-0.9c-0.1-0.4-0.2-0.9-0.2-1.5c0-0.4,0-0.8,0.1-1.1c0-0.3,0.1-0.5,0.2-0.7c0.1-0.2,0.2-0.3,0.3-0.4
			c0.1-0.1,0.3-0.1,0.4-0.1c0.3,0,0.7,0.2,1.2,0.5c0.5,0.3,1.2,0.7,2,1.1c0.8,0.4,1.8,0.8,2.9,1.1c1.1,0.3,2.4,0.5,3.9,0.5
			c1.1,0,2.1-0.1,3.1-0.4c0.9-0.3,1.7-0.7,2.4-1.3c0.7-0.5,1.2-1.2,1.5-2c0.4-0.8,0.5-1.7,0.5-2.7c0-1.1-0.2-2-0.7-2.8
			c-0.5-0.8-1.2-1.5-2-2c-0.8-0.6-1.7-1.1-2.8-1.6c-1-0.5-2.1-1-3.2-1.5c-1.1-0.5-2.2-1.1-3.2-1.7c-1-0.6-2-1.3-2.8-2.2
			c-0.8-0.8-1.5-1.8-2-2.9c-0.5-1.1-0.8-2.5-0.8-4c0-1.6,0.3-3,0.9-4.3c0.6-1.3,1.4-2.3,2.4-3.2c1-0.9,2.3-1.5,3.7-2
			c1.4-0.4,3-0.7,4.7-0.7c0.9,0,1.7,0.1,2.6,0.2c0.9,0.1,1.7,0.3,2.4,0.6c0.8,0.2,1.4,0.5,2,0.8c0.6,0.3,1,0.6,1.2,0.7
			c0.2,0.2,0.3,0.3,0.4,0.4c0.1,0.1,0.1,0.2,0.1,0.4c0,0.2,0.1,0.4,0.1,0.6c0,0.2,0,0.5,0,0.9c0,0.4,0,0.7,0,1
			c0,0.3-0.1,0.5-0.1,0.7s-0.1,0.3-0.3,0.4c-0.1,0.1-0.2,0.1-0.4,0.1c-0.2,0-0.6-0.1-1-0.4c-0.5-0.3-1-0.6-1.7-0.9
			c-0.7-0.3-1.5-0.7-2.4-1c-0.9-0.3-2-0.4-3.1-0.4c-1.1,0-2,0.1-2.8,0.4c-0.8,0.3-1.4,0.7-2,1.1c-0.5,0.5-0.9,1-1.2,1.7
			c-0.3,0.7-0.4,1.4-0.4,2.1c0,1.1,0.2,2,0.7,2.8c0.5,0.8,1.2,1.5,2,2.1c0.8,0.6,1.8,1.1,2.8,1.6c1.1,0.5,2.1,1,3.2,1.5
			c1.1,0.5,2.2,1.1,3.2,1.7c1.1,0.6,2,1.3,2.8,2.1c0.8,0.8,1.5,1.8,2,2.9C7009.2,1083.8,7009.5,1085.2,7009.5,1086.7z"/>
		<path class="st3" d="M7025,1096.7c0,0.2,0,0.3-0.1,0.4s-0.2,0.2-0.4,0.3s-0.5,0.1-0.8,0.2c-0.3,0-0.7,0.1-1.2,0.1
			c-0.5,0-0.9,0-1.2-0.1c-0.3,0-0.6-0.1-0.8-0.2s-0.3-0.2-0.4-0.3s-0.1-0.3-0.1-0.4v-37c0-0.2,0-0.3,0.1-0.4
			c0.1-0.1,0.2-0.2,0.4-0.3c0.2-0.1,0.5-0.1,0.8-0.2c0.3,0,0.7-0.1,1.2-0.1c0.5,0,0.9,0,1.2,0.1c0.3,0,0.6,0.1,0.8,0.2
			c0.2,0.1,0.3,0.2,0.4,0.3s0.1,0.3,0.1,0.4V1096.7z"/>
		<path class="st3" d="M7067.2,1064.2c0,0.4,0,0.7-0.1,1c0,0.3-0.1,0.5-0.2,0.7c-0.1,0.2-0.2,0.3-0.3,0.4c-0.1,0.1-0.2,0.1-0.4,0.1
			c-0.2,0-0.6-0.2-1.2-0.6s-1.3-0.8-2.2-1.3c-0.9-0.5-2.1-0.9-3.4-1.3c-1.3-0.4-2.8-0.6-4.6-0.6c-2.1,0-4,0.4-5.7,1.2
			c-1.7,0.8-3.1,1.8-4.3,3.2c-1.2,1.4-2.1,3-2.7,4.9c-0.6,1.9-0.9,3.9-0.9,6.1c0,2.5,0.3,4.6,1,6.6c0.7,1.9,1.6,3.5,2.8,4.8
			c1.2,1.3,2.7,2.3,4.3,3c1.7,0.7,3.5,1,5.5,1c1.2,0,2.4-0.1,3.6-0.4c1.2-0.3,2.4-0.7,3.4-1.3v-11.2h-8.9c-0.3,0-0.6-0.2-0.8-0.5
			c-0.2-0.3-0.3-0.9-0.3-1.6c0-0.4,0-0.7,0.1-1c0-0.3,0.1-0.5,0.2-0.7c0.1-0.2,0.2-0.3,0.3-0.4s0.3-0.1,0.4-0.1h12.2
			c0.2,0,0.4,0,0.7,0.1c0.2,0.1,0.4,0.2,0.6,0.4s0.3,0.4,0.4,0.7c0.1,0.3,0.1,0.6,0.1,1v14.7c0,0.5-0.1,1-0.3,1.3s-0.6,0.7-1.1,1
			c-0.6,0.3-1.3,0.6-2.2,0.9c-0.9,0.3-1.9,0.6-2.8,0.9c-1,0.2-2,0.4-2.9,0.5s-2,0.2-2.9,0.2c-3,0-5.6-0.5-8-1.4
			c-2.3-0.9-4.3-2.2-5.9-3.9c-1.6-1.7-2.9-3.8-3.7-6.1c-0.9-2.4-1.3-5-1.3-8c0-3.1,0.5-5.8,1.4-8.3c0.9-2.5,2.2-4.6,3.9-6.3
			c1.7-1.7,3.7-3.1,6-4.1c2.4-1,5-1.4,7.8-1.4c1.5,0,2.8,0.1,4.1,0.4c1.3,0.3,2.4,0.6,3.4,0.9s1.8,0.7,2.5,1.1
			c0.7,0.4,1.2,0.7,1.4,1c0.3,0.3,0.4,0.6,0.5,0.9C7067.2,1063.1,7067.2,1063.6,7067.2,1064.2z"/>
		<path class="st3" d="M7108.9,1095.4c0,0.4-0.1,0.7-0.2,1c-0.1,0.3-0.3,0.5-0.5,0.7c-0.2,0.2-0.5,0.3-0.7,0.4
			c-0.3,0.1-0.5,0.1-0.8,0.1h-1.7c-0.5,0-1-0.1-1.4-0.2c-0.4-0.1-0.8-0.3-1.1-0.6s-0.7-0.7-1.1-1.2s-0.7-1.1-1.1-1.9l-11.8-21.9
			c-0.6-1.1-1.2-2.3-1.9-3.6c-0.6-1.2-1.2-2.4-1.7-3.6h-0.1c0,1.4,0.1,2.9,0.1,4.4s0,3,0,4.4v23.3c0,0.1,0,0.3-0.1,0.4
			s-0.2,0.2-0.4,0.3s-0.5,0.1-0.8,0.2c-0.3,0-0.7,0.1-1.2,0.1c-0.5,0-0.9,0-1.2-0.1c-0.3,0-0.6-0.1-0.8-0.2
			c-0.2-0.1-0.3-0.2-0.4-0.3c-0.1-0.1-0.1-0.3-0.1-0.4v-35.6c0-0.8,0.2-1.4,0.7-1.7c0.5-0.3,0.9-0.5,1.5-0.5h2.5
			c0.6,0,1.1,0,1.5,0.1c0.4,0.1,0.8,0.3,1.1,0.5s0.6,0.5,0.9,1c0.3,0.4,0.6,0.9,0.9,1.5l9,16.9c0.6,1,1.1,2,1.6,3c0.5,1,1,2,1.5,2.9
			c0.5,1,1,1.9,1.4,2.8c0.5,0.9,0.9,1.9,1.4,2.8h0c0-1.6-0.1-3.2-0.1-4.9c0-1.7,0-3.3,0-4.9v-20.9c0-0.1,0-0.3,0.1-0.4
			c0.1-0.1,0.2-0.2,0.4-0.3c0.2-0.1,0.5-0.2,0.8-0.2c0.3,0,0.7-0.1,1.3-0.1c0.5,0,0.9,0,1.2,0.1c0.3,0,0.6,0.1,0.8,0.2
			c0.2,0.1,0.3,0.2,0.4,0.3s0.1,0.2,0.1,0.4V1095.4z"/>
	</g>
</g>
</svg>
