<?xml version="1.0" encoding="utf-8"?>
<!-- Generator: Adobe Illustrator 22.0.1, SVG Export Plug-In . SVG Version: 6.00 Build 0)  -->
<svg version="1.1" id="圖層_1" xmlns="http://www.w3.org/2000/svg" xmlns:xlink="http://www.w3.org/1999/xlink" x="0px" y="0px"
	 viewBox="0 0 800 533.3" style="enable-background:new 0 0 800 533.3;" xml:space="preserve">
<style type="text/css">
	.st0{fill:#D6E3F8;}
	.st1{enable-background:new    ;}
	.st2{fill:#584B53;}
	.st3{fill:none;stroke:#584B53;stroke-width:1.1765;}
	.st4{fill:#FEF5EF;}
</style>
<g id="Group_323" transform="translate(-6675 -819)">
	<rect id="Rectangle_37" x="6675" y="819" class="st0" width="800" height="533.3"/>
	<g class="st1">
		<path class="st2" d="M6887.4,1061.1c0,0.9,0,1.8-0.1,2.4s-0.2,1.2-0.4,1.5c-0.1,0.5-0.4,0.7-0.6,0.9c-0.2,0.2-0.5,0.2-0.8,0.2
			h-27.6c-1.1,0-1.9-0.4-2.6-0.9s-1.1-1.6-1.1-2.9v-54.7c0-0.4,0.1-0.6,0.4-0.8c0.2-0.2,0.6-0.5,1.1-0.6s1.1-0.2,1.9-0.4
			s1.8-0.1,2.9-0.1c1.2,0,2.2,0,2.9,0.1c0.8,0.1,1.4,0.2,1.9,0.4c0.5,0.1,0.8,0.4,1.1,0.6c0.2,0.2,0.4,0.5,0.4,0.8v48.5h18.9
			c0.4,0,0.6,0.1,0.8,0.2c0.2,0.1,0.5,0.5,0.6,0.8c0.1,0.4,0.2,0.9,0.4,1.5C6887.2,1059.4,6887.4,1060.2,6887.4,1061.1z"/>
		<path class="st2" d="M6951.8,1035.4c0,4.9-0.6,9.4-1.9,13.4c-1.3,3.9-3.1,7.3-5.5,10c-2.5,2.7-5.5,4.8-9.1,6.2
			c-3.6,1.4-7.8,2.1-12.6,2.1c-4.7,0-8.8-0.6-12.2-1.9c-3.5-1.2-6.4-3.1-8.7-5.6c-2.4-2.5-4.1-5.8-5.2-9.5
			c-1.2-3.9-1.8-8.5-1.8-13.8c0-4.8,0.6-9.3,1.9-13.2s3.1-7.2,5.5-9.9c2.5-2.7,5.5-4.8,9.1-6.2c3.5-1.4,7.8-2.2,12.6-2.2
			c4.6,0,8.6,0.6,12.1,1.8s6.4,3.1,8.7,5.5c2.4,2.5,4.1,5.6,5.3,9.5C6951.1,1025.6,6951.8,1030.2,6951.8,1035.4z M6938.9,1036.1
			c0-3.2-0.2-6-0.7-8.6s-1.3-4.8-2.6-6.7c-1.3-1.9-2.8-3.3-4.8-4.2c-2-1.1-4.5-1.5-7.4-1.5c-3.1,0-5.5,0.6-7.5,1.6
			c-2,1.2-3.6,2.6-4.9,4.6c-1.3,1.9-2.1,4.1-2.6,6.6s-0.8,5.2-0.8,8c0,3.3,0.2,6.2,0.7,8.8c0.5,2.6,1.3,4.8,2.5,6.7
			c1.2,1.9,2.7,3.3,4.7,4.2c2,0.9,4.5,1.4,7.5,1.4s5.5-0.6,7.5-1.6c2-1.1,3.6-2.6,4.9-4.6c1.3-1.9,2.1-4.1,2.6-6.7
			C6938.6,1041.6,6938.9,1038.9,6938.9,1036.1z"/>
		<path class="st2" d="M7015.1,1015.4c0,0.9,0,1.6-0.1,2.4c-0.1,0.7-0.2,1.2-0.4,1.5c-0.1,0.4-0.4,0.7-0.5,0.8s-0.5,0.2-0.7,0.2
			c-0.4,0-1.1-0.2-2-0.8s-2.1-1.2-3.5-1.8s-3.3-1.3-5.3-1.8c-2.1-0.6-4.5-0.8-7.2-0.8c-2.9,0-5.5,0.5-7.9,1.5
			c-2.4,1.1-4.4,2.5-6,4.2s-2.9,4.1-3.9,6.7c-1,2.6-1.3,5.4-1.3,8.6c0,3.4,0.5,6.5,1.4,9.1s2.2,4.8,3.9,6.6c1.6,1.8,3.6,3.1,5.9,4
			c2.2,0.9,4.8,1.3,7.6,1.3c1.4,0,2.7-0.1,4-0.5s2.6-0.8,3.8-1.4v-14h-11.4c-0.6,0-0.9-0.4-1.3-1.1s-0.5-1.9-0.5-3.5
			c0-0.8,0-1.6,0.1-2.2c0.1-0.6,0.2-1.1,0.4-1.4c0.1-0.4,0.4-0.6,0.6-0.8c0.2-0.1,0.5-0.2,0.7-0.2h20.4c0.5,0,0.9,0.1,1.3,0.2
			c0.4,0.1,0.7,0.5,1.1,0.8c0.4,0.4,0.5,0.7,0.7,1.2c0.1,0.5,0.2,1.1,0.2,1.6v24c0,0.9-0.1,1.8-0.5,2.5s-0.9,1.3-2,1.6
			c-1.1,0.4-2.2,0.8-3.8,1.3s-3.1,0.8-4.6,1.1c-1.5,0.2-3.2,0.6-4.8,0.7c-1.6,0.1-3.3,0.2-4.9,0.2c-4.8,0-9.1-0.7-12.9-2.1
			s-7.1-3.4-9.6-6c-2.6-2.6-4.7-5.8-6-9.5c-1.4-3.8-2.1-8-2.1-12.8c0-4.9,0.7-9.4,2.2-13.3c1.5-3.9,3.6-7.3,6.4-10
			c2.7-2.7,6-4.8,9.9-6.4c3.9-1.4,8.1-2.2,12.9-2.2c2.6,0,4.9,0.2,7.2,0.6c2.2,0.4,4,0.8,5.6,1.3s2.9,1.1,4,1.6s1.8,1.1,2.2,1.5
			c0.5,0.5,0.7,1.1,0.9,1.9C7015,1012.7,7015.1,1013.9,7015.1,1015.4z"/>
		<path class="st2" d="M7086.4,1035.4c0,4.9-0.6,9.4-1.9,13.4c-1.3,3.9-3.1,7.3-5.5,10c-2.5,2.7-5.5,4.8-9.1,6.2
			c-3.6,1.4-7.8,2.1-12.6,2.1c-4.7,0-8.8-0.6-12.2-1.9c-3.5-1.2-6.4-3.1-8.7-5.6c-2.4-2.5-4.1-5.8-5.2-9.5
			c-1.2-3.9-1.8-8.5-1.8-13.8c0-4.8,0.6-9.3,1.9-13.2s3.1-7.2,5.5-9.9c2.5-2.7,5.5-4.8,9.1-6.2c3.5-1.4,7.8-2.2,12.6-2.2
			c4.6,0,8.6,0.6,12.1,1.8s6.4,3.1,8.7,5.5s4.1,5.6,5.3,9.5C7085.8,1025.6,7086.4,1030.2,7086.4,1035.4z M7073.6,1036.1
			c0-3.2-0.2-6-0.7-8.6s-1.3-4.8-2.6-6.7c-1.3-1.9-2.8-3.3-4.8-4.2c-2-1.1-4.5-1.5-7.4-1.5c-3.1,0-5.5,0.6-7.5,1.6
			c-2,1.2-3.6,2.6-4.9,4.6c-1.3,1.9-2.1,4.1-2.6,6.6s-0.8,5.2-0.8,8c0,3.3,0.2,6.2,0.7,8.8c0.5,2.6,1.3,4.8,2.5,6.7
			c1.2,1.9,2.7,3.3,4.7,4.2c2,0.9,4.5,1.4,7.5,1.4s5.5-0.6,7.5-1.6c2-1.1,3.6-2.6,4.9-4.6c1.3-1.9,2.1-4.1,2.6-6.7
			C7073.4,1041.6,7073.6,1038.9,7073.6,1036.1z"/>
		<path class="st2" d="M7139.5,1011.1c0,0.9,0,1.6-0.1,2.4c-0.1,0.6-0.2,1.2-0.4,1.5c-0.1,0.4-0.4,0.7-0.6,0.8
			c-0.2,0.2-0.5,0.2-0.8,0.2h-15.1v48.6c0,0.4-0.1,0.6-0.4,0.8c-0.2,0.2-0.6,0.5-1.1,0.6s-1.1,0.2-1.9,0.4c-0.8,0.1-1.8,0.1-2.9,0.1
			c-1.2,0-2.1,0-2.9-0.1s-1.4-0.2-1.9-0.4c-0.5-0.1-0.8-0.4-0.9-0.6c-0.2-0.2-0.4-0.5-0.4-0.8V1016H7095c-0.4,0-0.6-0.1-0.8-0.2
			c-0.2-0.2-0.4-0.5-0.6-0.8c-0.1-0.4-0.2-0.9-0.4-1.5c-0.1-0.6-0.1-1.4-0.1-2.4s0-1.8,0.1-2.4c0.1-0.7,0.2-1.2,0.4-1.5
			c0.1-0.4,0.4-0.7,0.6-0.8s0.5-0.2,0.8-0.2h42.5c0.2,0,0.6,0.1,0.8,0.2c0.2,0.1,0.5,0.5,0.6,0.8s0.2,0.9,0.4,1.5
			S7139.5,1010.1,7139.5,1011.1z"/>
		<path class="st2" d="M7175.7,1043.4v21.2c0,0.4-0.1,0.6-0.4,0.8c-0.2,0.2-0.6,0.5-1.1,0.6s-1.1,0.2-1.9,0.4
			c-0.8,0.1-1.8,0.1-2.9,0.1c-1.2,0-2.2,0-2.9-0.1c-0.8-0.1-1.4-0.2-1.9-0.4c-0.5-0.1-0.8-0.4-1.1-0.6c-0.2-0.2-0.2-0.5-0.2-0.8
			v-21.2l-16.5-32.8c-0.6-1.2-0.9-2-1.2-2.7c-0.1-0.6-0.1-1.1,0.2-1.4s1.1-0.5,2-0.6s2.4-0.1,4-0.1c1.4,0,2.6,0,3.4,0.1
			s1.5,0.2,2,0.4s0.8,0.4,1.1,0.7c0.2,0.2,0.5,0.6,0.7,1.1l6.7,14.8c0.7,1.4,1.3,2.9,1.9,4.5c0.6,1.5,1.3,3.3,1.9,4.9h0.1
			c0.6-1.6,1.2-3.3,1.8-4.9c0.6-1.6,1.2-3.1,1.8-4.5l6.6-14.7c0.1-0.5,0.4-0.9,0.6-1.2c0.2-0.4,0.6-0.6,1.1-0.7
			c0.5-0.1,1.1-0.4,1.9-0.4c0.8-0.1,1.9-0.1,3.2-0.1c1.8,0,3.2,0,4.1,0.1s1.6,0.2,2,0.6c0.4,0.4,0.5,0.8,0.2,1.4
			c-0.2,0.7-0.6,1.5-1.1,2.7L7175.7,1043.4z"/>
		<path class="st2" d="M7246.9,1024.3c0,3.4-0.5,6.4-1.5,8.9c-1.1,2.6-2.6,4.8-4.6,6.6c-2,1.8-4.5,3.2-7.4,4.1s-6.4,1.4-10.4,1.4
			h-5.1v19.2c0,0.4-0.1,0.6-0.4,0.8c-0.2,0.2-0.6,0.5-1.1,0.6s-1.1,0.2-1.9,0.4c-0.8,0.1-1.8,0.1-2.9,0.1c-1.2,0-2.1,0-2.9-0.1
			s-1.4-0.2-1.9-0.4c-0.5-0.1-0.8-0.4-0.9-0.6s-0.2-0.5-0.2-0.8v-54.1c0-1.4,0.4-2.6,1.2-3.3c0.7-0.7,1.8-1.1,3.1-1.1h14.2
			c1.4,0,2.8,0,4.1,0.1c1.3,0.1,2.8,0.4,4.6,0.7c1.8,0.4,3.6,1.1,5.4,2c1.9,0.9,3.4,2.2,4.7,3.6c1.3,1.4,2.4,3.2,2.9,5.2
			C7246.5,1019.6,7246.9,1021.9,7246.9,1024.3z M7234.1,1025.2c0-2.1-0.4-3.9-1.1-5.2s-1.6-2.4-2.7-3.1c-1.1-0.7-2.2-1.1-3.4-1.2
			c-1.2-0.1-2.5-0.2-3.6-0.2h-5.2v20.5h5.5c2,0,3.6-0.2,4.9-0.8c1.3-0.5,2.4-1.3,3.2-2.2c0.8-0.9,1.5-2.1,1.9-3.4
			C7233.8,1028.2,7234.1,1026.7,7234.1,1025.2z"/>
		<path class="st2" d="M7296.8,1061.4c0,0.9,0,1.6-0.1,2.2s-0.2,1.1-0.4,1.4c-0.1,0.4-0.4,0.6-0.6,0.8c-0.2,0.1-0.5,0.2-0.8,0.2
			h-30.2c-1.1,0-1.9-0.4-2.6-0.9s-1.1-1.6-1.1-2.9v-52.5c0-1.4,0.4-2.4,1.1-2.9s1.5-0.9,2.6-0.9h30c0.2,0,0.5,0.1,0.7,0.2
			c0.2,0.1,0.4,0.5,0.6,0.8c0.1,0.4,0.2,0.9,0.4,1.5c0.1,0.6,0.1,1.4,0.1,2.4c0,0.8,0,1.6-0.1,2.2c-0.1,0.6-0.2,1.1-0.4,1.4
			c-0.1,0.4-0.4,0.6-0.6,0.8c-0.2,0.1-0.5,0.2-0.7,0.2h-21.5v14.8h18.2c0.2,0,0.6,0.1,0.8,0.2c0.2,0.1,0.5,0.5,0.6,0.8
			c0.1,0.4,0.2,0.8,0.4,1.4c0.1,0.6,0.1,1.3,0.1,2.2s0,1.6-0.1,2.2c-0.1,0.6-0.2,1.1-0.4,1.4c-0.1,0.4-0.4,0.6-0.6,0.8
			c-0.2,0.2-0.5,0.2-0.8,0.2h-18.2v16.9h21.6c0.2,0,0.6,0.1,0.8,0.2c0.2,0.1,0.5,0.5,0.6,0.8c0.1,0.4,0.2,0.8,0.4,1.4
			C7296.8,1059.8,7296.8,1060.6,7296.8,1061.4z"/>
	</g>
	<g class="st1">
		<path class="st3" d="M6887.4,1061.1c0,0.9,0,1.8-0.1,2.4s-0.2,1.2-0.4,1.5c-0.1,0.5-0.4,0.7-0.6,0.9c-0.2,0.2-0.5,0.2-0.8,0.2
			h-27.6c-1.1,0-1.9-0.4-2.6-0.9s-1.1-1.6-1.1-2.9v-54.7c0-0.4,0.1-0.6,0.4-0.8c0.2-0.2,0.6-0.5,1.1-0.6s1.1-0.2,1.9-0.4
			s1.8-0.1,2.9-0.1c1.2,0,2.2,0,2.9,0.1c0.8,0.1,1.4,0.2,1.9,0.4c0.5,0.1,0.8,0.4,1.1,0.6c0.2,0.2,0.4,0.5,0.4,0.8v48.5h18.9
			c0.4,0,0.6,0.1,0.8,0.2c0.2,0.1,0.5,0.5,0.6,0.8c0.1,0.4,0.2,0.9,0.4,1.5C6887.2,1059.4,6887.4,1060.2,6887.4,1061.1z"/>
		<path class="st3" d="M6951.8,1035.4c0,4.9-0.6,9.4-1.9,13.4c-1.3,3.9-3.1,7.3-5.5,10c-2.5,2.7-5.5,4.8-9.1,6.2
			c-3.6,1.4-7.8,2.1-12.6,2.1c-4.7,0-8.8-0.6-12.2-1.9c-3.5-1.2-6.4-3.1-8.7-5.6c-2.4-2.5-4.1-5.8-5.2-9.5
			c-1.2-3.9-1.8-8.5-1.8-13.8c0-4.8,0.6-9.3,1.9-13.2s3.1-7.2,5.5-9.9c2.5-2.7,5.5-4.8,9.1-6.2c3.5-1.4,7.8-2.2,12.6-2.2
			c4.6,0,8.6,0.6,12.1,1.8s6.4,3.1,8.7,5.5c2.4,2.5,4.1,5.6,5.3,9.5C6951.1,1025.6,6951.8,1030.2,6951.8,1035.4z M6938.9,1036.1
			c0-3.2-0.2-6-0.7-8.6s-1.3-4.8-2.6-6.7c-1.3-1.9-2.8-3.3-4.8-4.2c-2-1.1-4.5-1.5-7.4-1.5c-3.1,0-5.5,0.6-7.5,1.6
			c-2,1.2-3.6,2.6-4.9,4.6c-1.3,1.9-2.1,4.1-2.6,6.6s-0.8,5.2-0.8,8c0,3.3,0.2,6.2,0.7,8.8c0.5,2.6,1.3,4.8,2.5,6.7
			c1.2,1.9,2.7,3.3,4.7,4.2c2,0.9,4.5,1.4,7.5,1.4s5.5-0.6,7.5-1.6c2-1.1,3.6-2.6,4.9-4.6c1.3-1.9,2.1-4.1,2.6-6.7
			C6938.6,1041.6,6938.9,1038.9,6938.9,1036.1z"/>
		<path class="st3" d="M7015.1,1015.4c0,0.9,0,1.6-0.1,2.4c-0.1,0.7-0.2,1.2-0.4,1.5c-0.1,0.4-0.4,0.7-0.5,0.8s-0.5,0.2-0.7,0.2
			c-0.4,0-1.1-0.2-2-0.8s-2.1-1.2-3.5-1.8s-3.3-1.3-5.3-1.8c-2.1-0.6-4.5-0.8-7.2-0.8c-2.9,0-5.5,0.5-7.9,1.5
			c-2.4,1.1-4.4,2.5-6,4.2s-2.9,4.1-3.9,6.7c-1,2.6-1.3,5.4-1.3,8.6c0,3.4,0.5,6.5,1.4,9.1s2.2,4.8,3.9,6.6c1.6,1.8,3.6,3.1,5.9,4
			c2.2,0.9,4.8,1.3,7.6,1.3c1.4,0,2.7-0.1,4-0.5s2.6-0.8,3.8-1.4v-14h-11.4c-0.6,0-0.9-0.4-1.3-1.1s-0.5-1.9-0.5-3.5
			c0-0.8,0-1.6,0.1-2.2c0.1-0.6,0.2-1.1,0.4-1.4c0.1-0.4,0.4-0.6,0.6-0.8c0.2-0.1,0.5-0.2,0.7-0.2h20.4c0.5,0,0.9,0.1,1.3,0.2
			c0.4,0.1,0.7,0.5,1.1,0.8c0.4,0.4,0.5,0.7,0.7,1.2c0.1,0.5,0.2,1.1,0.2,1.6v24c0,0.9-0.1,1.8-0.5,2.5s-0.9,1.3-2,1.6
			c-1.1,0.4-2.2,0.8-3.8,1.3s-3.1,0.8-4.6,1.1c-1.5,0.2-3.2,0.6-4.8,0.7c-1.6,0.1-3.3,0.2-4.9,0.2c-4.8,0-9.1-0.7-12.9-2.1
			s-7.1-3.4-9.6-6c-2.6-2.6-4.7-5.8-6-9.5c-1.4-3.8-2.1-8-2.1-12.8c0-4.9,0.7-9.4,2.2-13.3c1.5-3.9,3.6-7.3,6.4-10
			c2.7-2.7,6-4.8,9.9-6.4c3.9-1.4,8.1-2.2,12.9-2.2c2.6,0,4.9,0.2,7.2,0.6c2.2,0.4,4,0.8,5.6,1.3s2.9,1.1,4,1.6s1.8,1.1,2.2,1.5
			c0.5,0.5,0.7,1.1,0.9,1.9C7015,1012.7,7015.1,1013.9,7015.1,1015.4z"/>
		<path class="st3" d="M7086.4,1035.4c0,4.9-0.6,9.4-1.9,13.4c-1.3,3.9-3.1,7.3-5.5,10c-2.5,2.7-5.5,4.8-9.1,6.2
			c-3.6,1.4-7.8,2.1-12.6,2.1c-4.7,0-8.8-0.6-12.2-1.9c-3.5-1.2-6.4-3.1-8.7-5.6c-2.4-2.5-4.1-5.8-5.2-9.5
			c-1.2-3.9-1.8-8.5-1.8-13.8c0-4.8,0.6-9.3,1.9-13.2s3.1-7.2,5.5-9.9c2.5-2.7,5.5-4.8,9.1-6.2c3.5-1.4,7.8-2.2,12.6-2.2
			c4.6,0,8.6,0.6,12.1,1.8s6.4,3.1,8.7,5.5s4.1,5.6,5.3,9.5C7085.8,1025.6,7086.4,1030.2,7086.4,1035.4z M7073.6,1036.1
			c0-3.2-0.2-6-0.7-8.6s-1.3-4.8-2.6-6.7c-1.3-1.9-2.8-3.3-4.8-4.2c-2-1.1-4.5-1.5-7.4-1.5c-3.1,0-5.5,0.6-7.5,1.6
			c-2,1.2-3.6,2.6-4.9,4.6c-1.3,1.9-2.1,4.1-2.6,6.6s-0.8,5.2-0.8,8c0,3.3,0.2,6.2,0.7,8.8c0.5,2.6,1.3,4.8,2.5,6.7
			c1.2,1.9,2.7,3.3,4.7,4.2c2,0.9,4.5,1.4,7.5,1.4s5.5-0.6,7.5-1.6c2-1.1,3.6-2.6,4.9-4.6c1.3-1.9,2.1-4.1,2.6-6.7
			C7073.4,1041.6,7073.6,1038.9,7073.6,1036.1z"/>
		<path class="st3" d="M7139.5,1011.1c0,0.9,0,1.6-0.1,2.4c-0.1,0.6-0.2,1.2-0.4,1.5c-0.1,0.4-0.4,0.7-0.6,0.8
			c-0.2,0.2-0.5,0.2-0.8,0.2h-15.1v48.6c0,0.4-0.1,0.6-0.4,0.8c-0.2,0.2-0.6,0.5-1.1,0.6s-1.1,0.2-1.9,0.4c-0.8,0.1-1.8,0.1-2.9,0.1
			c-1.2,0-2.1,0-2.9-0.1s-1.4-0.2-1.9-0.4c-0.5-0.1-0.8-0.4-0.9-0.6c-0.2-0.2-0.4-0.5-0.4-0.8V1016H7095c-0.4,0-0.6-0.1-0.8-0.2
			c-0.2-0.2-0.4-0.5-0.6-0.8c-0.1-0.4-0.2-0.9-0.4-1.5c-0.1-0.6-0.1-1.4-0.1-2.4s0-1.8,0.1-2.4c0.1-0.7,0.2-1.2,0.4-1.5
			c0.1-0.4,0.4-0.7,0.6-0.8s0.5-0.2,0.8-0.2h42.5c0.2,0,0.6,0.1,0.8,0.2c0.2,0.1,0.5,0.5,0.6,0.8s0.2,0.9,0.4,1.5
			S7139.5,1010.1,7139.5,1011.1z"/>
		<path class="st3" d="M7175.7,1043.4v21.2c0,0.4-0.1,0.6-0.4,0.8c-0.2,0.2-0.6,0.5-1.1,0.6s-1.1,0.2-1.9,0.4
			c-0.8,0.1-1.8,0.1-2.9,0.1c-1.2,0-2.2,0-2.9-0.1c-0.8-0.1-1.4-0.2-1.9-0.4c-0.5-0.1-0.8-0.4-1.1-0.6c-0.2-0.2-0.2-0.5-0.2-0.8
			v-21.2l-16.5-32.8c-0.6-1.2-0.9-2-1.2-2.7c-0.1-0.6-0.1-1.1,0.2-1.4s1.1-0.5,2-0.6s2.4-0.1,4-0.1c1.4,0,2.6,0,3.4,0.1
			s1.5,0.2,2,0.4s0.8,0.4,1.1,0.7c0.2,0.2,0.5,0.6,0.7,1.1l6.7,14.8c0.7,1.4,1.3,2.9,1.9,4.5c0.6,1.5,1.3,3.3,1.9,4.9h0.1
			c0.6-1.6,1.2-3.3,1.8-4.9c0.6-1.6,1.2-3.1,1.8-4.5l6.6-14.7c0.1-0.5,0.4-0.9,0.6-1.2c0.2-0.4,0.6-0.6,1.1-0.7
			c0.5-0.1,1.1-0.4,1.9-0.4c0.8-0.1,1.9-0.1,3.2-0.1c1.8,0,3.2,0,4.1,0.1s1.6,0.2,2,0.6c0.4,0.4,0.5,0.8,0.2,1.4
			c-0.2,0.7-0.6,1.5-1.1,2.7L7175.7,1043.4z"/>
		<path class="st3" d="M7246.9,1024.3c0,3.4-0.5,6.4-1.5,8.9c-1.1,2.6-2.6,4.8-4.6,6.6c-2,1.8-4.5,3.2-7.4,4.1s-6.4,1.4-10.4,1.4
			h-5.1v19.2c0,0.4-0.1,0.6-0.4,0.8c-0.2,0.2-0.6,0.5-1.1,0.6s-1.1,0.2-1.9,0.4c-0.8,0.1-1.8,0.1-2.9,0.1c-1.2,0-2.1,0-2.9-0.1
			s-1.4-0.2-1.9-0.4c-0.5-0.1-0.8-0.4-0.9-0.6s-0.2-0.5-0.2-0.8v-54.1c0-1.4,0.4-2.6,1.2-3.3c0.7-0.7,1.8-1.1,3.1-1.1h14.2
			c1.4,0,2.8,0,4.1,0.1c1.3,0.1,2.8,0.4,4.6,0.7c1.8,0.4,3.6,1.1,5.4,2c1.9,0.9,3.4,2.2,4.7,3.6c1.3,1.4,2.4,3.2,2.9,5.2
			C7246.5,1019.6,7246.9,1021.9,7246.9,1024.3z M7234.1,1025.2c0-2.1-0.4-3.9-1.1-5.2s-1.6-2.4-2.7-3.1c-1.1-0.7-2.2-1.1-3.4-1.2
			c-1.2-0.1-2.5-0.2-3.6-0.2h-5.2v20.5h5.5c2,0,3.6-0.2,4.9-0.8c1.3-0.5,2.4-1.3,3.2-2.2c0.8-0.9,1.5-2.1,1.9-3.4
			C7233.8,1028.2,7234.1,1026.7,7234.1,1025.2z"/>
		<path class="st3" d="M7296.8,1061.4c0,0.9,0,1.6-0.1,2.2s-0.2,1.1-0.4,1.4c-0.1,0.4-0.4,0.6-0.6,0.8c-0.2,0.1-0.5,0.2-0.8,0.2
			h-30.2c-1.1,0-1.9-0.4-2.6-0.9s-1.1-1.6-1.1-2.9v-52.5c0-1.4,0.4-2.4,1.1-2.9s1.5-0.9,2.6-0.9h30c0.2,0,0.5,0.1,0.7,0.2
			c0.2,0.1,0.4,0.5,0.6,0.8c0.1,0.4,0.2,0.9,0.4,1.5c0.1,0.6,0.1,1.4,0.1,2.4c0,0.8,0,1.6-0.1,2.2c-0.1,0.6-0.2,1.1-0.4,1.4
			c-0.1,0.4-0.4,0.6-0.6,0.8c-0.2,0.1-0.5,0.2-0.7,0.2h-21.5v14.8h18.2c0.2,0,0.6,0.1,0.8,0.2c0.2,0.1,0.5,0.5,0.6,0.8
			c0.1,0.4,0.2,0.8,0.4,1.4c0.1,0.6,0.1,1.3,0.1,2.2s0,1.6-0.1,2.2c-0.1,0.6-0.2,1.1-0.4,1.4c-0.1,0.4-0.4,0.6-0.6,0.8
			c-0.2,0.2-0.5,0.2-0.8,0.2h-18.2v16.9h21.6c0.2,0,0.6,0.1,0.8,0.2c0.2,0.1,0.5,0.5,0.6,0.8c0.1,0.4,0.2,0.8,0.4,1.4
			C7296.8,1059.8,7296.8,1060.6,7296.8,1061.4z"/>
	</g>
	<g class="st1">
		<path class="st2" d="M6995.7,1137.1c0,3.9-0.5,7.3-1.5,10.2s-2.5,5.4-4.4,7.3s-4.2,3.4-7.1,4.4c-2.8,0.9-6.1,1.4-10,1.4h-9.6
			c-0.6,0-1.1-0.2-1.5-0.6c-0.5-0.4-0.7-0.9-0.7-1.9v-40.5c0-0.9,0.2-1.5,0.7-1.9s0.9-0.6,1.5-0.6h10.2c3.9,0,7.3,0.5,10,1.5
			s4.9,2.5,6.8,4.4s3.2,4.2,4.1,6.9C6995.2,1130.6,6995.7,1133.6,6995.7,1137.1z M6989.4,1137.3c0-2.5-0.4-4.7-0.9-6.8
			c-0.6-2.1-1.5-4-2.8-5.5s-2.9-2.7-4.9-3.6c-2-0.8-4.6-1.3-7.6-1.3h-6.1v35.3h6.2c2.9,0,5.3-0.4,7.3-1.1s3.6-1.9,4.9-3.3
			s2.4-3.4,2.9-5.6C6989,1143.1,6989.4,1140.3,6989.4,1137.3z"/>
		<path class="st2" d="M7033.8,1157.9c0,0.5,0,0.8-0.1,1.1c0,0.4-0.1,0.6-0.2,0.8s-0.2,0.4-0.4,0.5c-0.1,0.1-0.4,0.1-0.5,0.1h-21.8
			c-0.6,0-1.1-0.2-1.5-0.6c-0.5-0.4-0.7-0.9-0.7-1.9v-40.5c0-0.9,0.2-1.5,0.7-1.9s0.9-0.6,1.5-0.6h21.5c0.2,0,0.4,0,0.5,0.1
			s0.2,0.2,0.4,0.5c0.1,0.2,0.1,0.5,0.2,0.8c0,0.4,0.1,0.7,0.1,1.2s0,0.8-0.1,1.1c0,0.4-0.1,0.6-0.2,0.8s-0.2,0.4-0.4,0.5
			c-0.1,0.1-0.4,0.1-0.5,0.1h-17.8v14.2h15.2c0.2,0,0.4,0,0.5,0.1s0.2,0.2,0.4,0.5c0.1,0.2,0.2,0.5,0.2,0.8c0,0.4,0.1,0.7,0.1,1.2
			s0,0.8-0.1,1.1c0,0.4-0.1,0.6-0.2,0.7c-0.1,0.2-0.2,0.4-0.4,0.4c-0.1,0.1-0.4,0.1-0.5,0.1h-15.2v16.2h18c0.2,0,0.4,0,0.5,0.1
			s0.2,0.2,0.4,0.5c0.1,0.2,0.2,0.5,0.2,0.8C7033.8,1157.1,7033.8,1157.4,7033.8,1157.9z"/>
		<path class="st2" d="M7070.9,1147.6c0,2.1-0.4,4-1.2,5.6s-1.9,3.1-3.3,4.2c-1.4,1.2-3.1,2-4.9,2.6c-1.9,0.6-3.9,0.8-6.1,0.8
			c-1.5,0-2.9-0.1-4.2-0.4c-1.3-0.2-2.5-0.6-3.4-0.9c-1.1-0.4-1.9-0.7-2.6-1.2c-0.7-0.4-1.2-0.7-1.4-1.1c-0.2-0.2-0.5-0.6-0.6-1.1
			s-0.2-1.1-0.2-1.8c0-0.5,0-0.9,0.1-1.3c0-0.4,0.1-0.6,0.2-0.8s0.2-0.4,0.4-0.5c0.1-0.1,0.4-0.1,0.5-0.1c0.4,0,0.8,0.2,1.4,0.6
			s1.4,0.8,2.4,1.3c0.9,0.5,2.1,0.9,3.4,1.3s2.8,0.6,4.6,0.6c1.3,0,2.5-0.1,3.6-0.5s2-0.8,2.8-1.5c0.8-0.6,1.4-1.4,1.8-2.4
			c0.5-0.9,0.6-2,0.6-3.2c0-1.3-0.2-2.4-0.8-3.3c-0.6-0.9-1.4-1.8-2.4-2.4c-0.9-0.7-2-1.3-3.3-1.9c-1.2-0.6-2.5-1.2-3.8-1.8
			s-2.6-1.3-3.8-2c-1.2-0.7-2.4-1.5-3.3-2.6c-0.9-0.9-1.8-2.1-2.4-3.4s-0.9-2.9-0.9-4.7c0-1.9,0.4-3.5,1.1-5.1
			c0.7-1.5,1.6-2.7,2.8-3.8c1.2-1.1,2.7-1.8,4.4-2.4c1.6-0.5,3.5-0.8,5.5-0.8c1.1,0,2,0.1,3.1,0.2s2,0.4,2.8,0.7
			c0.9,0.2,1.6,0.6,2.4,0.9c0.7,0.4,1.2,0.7,1.4,0.8c0.2,0.2,0.4,0.4,0.5,0.5s0.1,0.2,0.1,0.5c0,0.2,0.1,0.5,0.1,0.7s0,0.6,0,1.1
			s0,0.8,0,1.2s-0.1,0.6-0.1,0.8s-0.1,0.4-0.4,0.5c-0.1,0.1-0.2,0.1-0.5,0.1c-0.2,0-0.7-0.1-1.2-0.5c-0.6-0.4-1.2-0.7-2-1.1
			s-1.8-0.8-2.8-1.2c-1.1-0.4-2.4-0.5-3.6-0.5s-2.4,0.1-3.3,0.5s-1.6,0.8-2.4,1.3c-0.6,0.6-1.1,1.2-1.4,2c-0.4,0.8-0.5,1.6-0.5,2.5
			c0,1.3,0.2,2.4,0.8,3.3c0.6,0.9,1.4,1.8,2.4,2.5s2.1,1.3,3.3,1.9c1.3,0.6,2.5,1.2,3.8,1.8c1.3,0.6,2.6,1.3,3.8,2
			c1.3,0.7,2.4,1.5,3.3,2.5s1.8,2.1,2.4,3.4C7070.5,1144.2,7070.9,1145.9,7070.9,1147.6z"/>
		<path class="st2" d="M7089.1,1159.4c0,0.2,0,0.4-0.1,0.5s-0.2,0.2-0.5,0.4s-0.6,0.1-0.9,0.2c-0.4,0-0.8,0.1-1.4,0.1
			s-1.1,0-1.4-0.1c-0.4,0-0.7-0.1-0.9-0.2c-0.2-0.1-0.4-0.2-0.5-0.4c-0.1-0.1-0.1-0.4-0.1-0.5v-43.5c0-0.2,0-0.4,0.1-0.5
			s0.2-0.2,0.5-0.4c0.2-0.1,0.6-0.1,0.9-0.2c0.4,0,0.8-0.1,1.4-0.1s1.1,0,1.4,0.1c0.4,0,0.7,0.1,0.9,0.2c0.2,0.1,0.4,0.2,0.5,0.4
			s0.1,0.4,0.1,0.5V1159.4z"/>
		<path class="st2" d="M7138.8,1121.2c0,0.5,0,0.8-0.1,1.2c0,0.4-0.1,0.6-0.2,0.8s-0.2,0.4-0.4,0.5c-0.1,0.1-0.2,0.1-0.5,0.1
			c-0.2,0-0.7-0.2-1.4-0.7c-0.7-0.5-1.5-0.9-2.6-1.5s-2.5-1.1-4-1.5c-1.5-0.5-3.3-0.7-5.4-0.7c-2.5,0-4.7,0.5-6.7,1.4
			s-3.6,2.1-5.1,3.8c-1.4,1.6-2.5,3.5-3.2,5.8s-1.1,4.6-1.1,7.2c0,2.9,0.4,5.4,1.2,7.8c0.8,2.2,1.9,4.1,3.3,5.6s3.2,2.7,5.1,3.5
			c2,0.8,4.1,1.2,6.5,1.2c1.4,0,2.8-0.1,4.2-0.5s2.8-0.8,4-1.5v-13.2h-10.5c-0.4,0-0.7-0.2-0.9-0.6c-0.2-0.4-0.4-1.1-0.4-1.9
			c0-0.5,0-0.8,0.1-1.2c0-0.4,0.1-0.6,0.2-0.8s0.2-0.4,0.4-0.5c0.1-0.1,0.4-0.1,0.5-0.1h14.4c0.2,0,0.5,0,0.8,0.1
			c0.2,0.1,0.5,0.2,0.7,0.5c0.2,0.2,0.4,0.5,0.5,0.8c0.1,0.4,0.1,0.7,0.1,1.2v17.3c0,0.6-0.1,1.2-0.4,1.5s-0.7,0.8-1.3,1.2
			c-0.7,0.4-1.5,0.7-2.6,1.1s-2.2,0.7-3.3,1.1c-1.2,0.2-2.4,0.5-3.4,0.6c-1.1,0.1-2.4,0.2-3.4,0.2c-3.5,0-6.6-0.6-9.4-1.6
			c-2.7-1.1-5.1-2.6-6.9-4.6c-1.9-2-3.4-4.5-4.4-7.2c-1.1-2.8-1.5-5.9-1.5-9.4c0-3.6,0.6-6.8,1.6-9.8s2.6-5.4,4.6-7.4
			s4.4-3.6,7.1-4.8c2.8-1.2,5.9-1.6,9.2-1.6c1.8,0,3.3,0.1,4.8,0.5s2.8,0.7,4,1.1s2.1,0.8,2.9,1.3s1.4,0.8,1.6,1.2
			c0.4,0.4,0.5,0.7,0.6,1.1C7138.8,1119.9,7138.8,1120.5,7138.8,1121.2z"/>
		<path class="st2" d="M7187.8,1157.9c0,0.5-0.1,0.8-0.2,1.2c-0.1,0.4-0.4,0.6-0.6,0.8c-0.2,0.2-0.6,0.4-0.8,0.5
			c-0.4,0.1-0.6,0.1-0.9,0.1h-2c-0.6,0-1.2-0.1-1.6-0.2c-0.5-0.1-0.9-0.4-1.3-0.7c-0.4-0.4-0.8-0.8-1.3-1.4s-0.8-1.3-1.3-2.2
			l-13.9-25.8c-0.7-1.3-1.4-2.7-2.2-4.2c-0.7-1.4-1.4-2.8-2-4.2h-0.1c0,1.6,0.1,3.4,0.1,5.2c0,1.8,0,3.5,0,5.2v27.4
			c0,0.1,0,0.4-0.1,0.5s-0.2,0.2-0.5,0.4c-0.2,0.1-0.6,0.1-0.9,0.2c-0.4,0-0.8,0.1-1.4,0.1s-1.1,0-1.4-0.1c-0.4,0-0.7-0.1-0.9-0.2
			c-0.2-0.1-0.4-0.2-0.5-0.4c-0.1-0.1-0.1-0.4-0.1-0.5v-41.9c0-0.9,0.2-1.6,0.8-2c0.6-0.4,1.1-0.6,1.8-0.6h2.9c0.7,0,1.3,0,1.8,0.1
			s0.9,0.4,1.3,0.6s0.7,0.6,1.1,1.2c0.4,0.5,0.7,1.1,1.1,1.8l10.6,19.9c0.7,1.2,1.3,2.4,1.9,3.5s1.2,2.4,1.8,3.4
			c0.6,1.2,1.2,2.2,1.6,3.3c0.6,1.1,1.1,2.2,1.6,3.3l0,0c0-1.9-0.1-3.8-0.1-5.8s0-3.9,0-5.8V1116c0-0.1,0-0.4,0.1-0.5
			s0.2-0.2,0.5-0.4s0.6-0.2,0.9-0.2c0.4,0,0.8-0.1,1.5-0.1c0.6,0,1.1,0,1.4,0.1c0.4,0,0.7,0.1,0.9,0.2c0.2,0.1,0.4,0.2,0.5,0.4
			c0.1,0.1,0.1,0.2,0.1,0.5L7187.8,1157.9L7187.8,1157.9z"/>
	</g>
	<g class="st1">
		<path class="st3" d="M6995.7,1137.1c0,3.9-0.5,7.3-1.5,10.2s-2.5,5.4-4.4,7.3s-4.2,3.4-7.1,4.4c-2.8,0.9-6.1,1.4-10,1.4h-9.6
			c-0.6,0-1.1-0.2-1.5-0.6c-0.5-0.4-0.7-0.9-0.7-1.9v-40.5c0-0.9,0.2-1.5,0.7-1.9s0.9-0.6,1.5-0.6h10.2c3.9,0,7.3,0.5,10,1.5
			s4.9,2.5,6.8,4.4s3.2,4.2,4.1,6.9C6995.2,1130.6,6995.7,1133.6,6995.7,1137.1z M6989.4,1137.3c0-2.5-0.4-4.7-0.9-6.8
			c-0.6-2.1-1.5-4-2.8-5.5s-2.9-2.7-4.9-3.6c-2-0.8-4.6-1.3-7.6-1.3h-6.1v35.3h6.2c2.9,0,5.3-0.4,7.3-1.1s3.6-1.9,4.9-3.3
			s2.4-3.4,2.9-5.6C6989,1143.1,6989.4,1140.3,6989.4,1137.3z"/>
		<path class="st3" d="M7033.8,1157.9c0,0.5,0,0.8-0.1,1.1c0,0.4-0.1,0.6-0.2,0.8s-0.2,0.4-0.4,0.5c-0.1,0.1-0.4,0.1-0.5,0.1h-21.8
			c-0.6,0-1.1-0.2-1.5-0.6c-0.5-0.4-0.7-0.9-0.7-1.9v-40.5c0-0.9,0.2-1.5,0.7-1.9s0.9-0.6,1.5-0.6h21.5c0.2,0,0.4,0,0.5,0.1
			s0.2,0.2,0.4,0.5c0.1,0.2,0.1,0.5,0.2,0.8c0,0.4,0.1,0.7,0.1,1.2s0,0.8-0.1,1.1c0,0.4-0.1,0.6-0.2,0.8s-0.2,0.4-0.4,0.5
			c-0.1,0.1-0.4,0.1-0.5,0.1h-17.8v14.2h15.2c0.2,0,0.4,0,0.5,0.1s0.2,0.2,0.4,0.5c0.1,0.2,0.2,0.5,0.2,0.8c0,0.4,0.1,0.7,0.1,1.2
			s0,0.8-0.1,1.1c0,0.4-0.1,0.6-0.2,0.7c-0.1,0.2-0.2,0.4-0.4,0.4c-0.1,0.1-0.4,0.1-0.5,0.1h-15.2v16.2h18c0.2,0,0.4,0,0.5,0.1
			s0.2,0.2,0.4,0.5c0.1,0.2,0.2,0.5,0.2,0.8C7033.8,1157.1,7033.8,1157.4,7033.8,1157.9z"/>
		<path class="st3" d="M7070.9,1147.6c0,2.1-0.4,4-1.2,5.6s-1.9,3.1-3.3,4.2c-1.4,1.2-3.1,2-4.9,2.6c-1.9,0.6-3.9,0.8-6.1,0.8
			c-1.5,0-2.9-0.1-4.2-0.4c-1.3-0.2-2.5-0.6-3.4-0.9c-1.1-0.4-1.9-0.7-2.6-1.2c-0.7-0.4-1.2-0.7-1.4-1.1c-0.2-0.2-0.5-0.6-0.6-1.1
			s-0.2-1.1-0.2-1.8c0-0.5,0-0.9,0.1-1.3c0-0.4,0.1-0.6,0.2-0.8s0.2-0.4,0.4-0.5c0.1-0.1,0.4-0.1,0.5-0.1c0.4,0,0.8,0.2,1.4,0.6
			s1.4,0.8,2.4,1.3c0.9,0.5,2.1,0.9,3.4,1.3s2.8,0.6,4.6,0.6c1.3,0,2.5-0.1,3.6-0.5s2-0.8,2.8-1.5c0.8-0.6,1.4-1.4,1.8-2.4
			c0.5-0.9,0.6-2,0.6-3.2c0-1.3-0.2-2.4-0.8-3.3c-0.6-0.9-1.4-1.8-2.4-2.4c-0.9-0.7-2-1.3-3.3-1.9c-1.2-0.6-2.5-1.2-3.8-1.8
			s-2.6-1.3-3.8-2c-1.2-0.7-2.4-1.5-3.3-2.6c-0.9-0.9-1.8-2.1-2.4-3.4s-0.9-2.9-0.9-4.7c0-1.9,0.4-3.5,1.1-5.1
			c0.7-1.5,1.6-2.7,2.8-3.8c1.2-1.1,2.7-1.8,4.4-2.4c1.6-0.5,3.5-0.8,5.5-0.8c1.1,0,2,0.1,3.1,0.2s2,0.4,2.8,0.7
			c0.9,0.2,1.6,0.6,2.4,0.9c0.7,0.4,1.2,0.7,1.4,0.8c0.2,0.2,0.4,0.4,0.5,0.5s0.1,0.2,0.1,0.5c0,0.2,0.1,0.5,0.1,0.7s0,0.6,0,1.1
			s0,0.8,0,1.2s-0.1,0.6-0.1,0.8s-0.1,0.4-0.4,0.5c-0.1,0.1-0.2,0.1-0.5,0.1c-0.2,0-0.7-0.1-1.2-0.5c-0.6-0.4-1.2-0.7-2-1.1
			s-1.8-0.8-2.8-1.2c-1.1-0.4-2.4-0.5-3.6-0.5s-2.4,0.1-3.3,0.5s-1.6,0.8-2.4,1.3c-0.6,0.6-1.1,1.2-1.4,2c-0.4,0.8-0.5,1.6-0.5,2.5
			c0,1.3,0.2,2.4,0.8,3.3c0.6,0.9,1.4,1.8,2.4,2.5s2.1,1.3,3.3,1.9c1.3,0.6,2.5,1.2,3.8,1.8c1.3,0.6,2.6,1.3,3.8,2
			c1.3,0.7,2.4,1.5,3.3,2.5s1.8,2.1,2.4,3.4C7070.5,1144.2,7070.9,1145.9,7070.9,1147.6z"/>
		<path class="st3" d="M7089.1,1159.4c0,0.2,0,0.4-0.1,0.5s-0.2,0.2-0.5,0.4s-0.6,0.1-0.9,0.2c-0.4,0-0.8,0.1-1.4,0.1
			s-1.1,0-1.4-0.1c-0.4,0-0.7-0.1-0.9-0.2c-0.2-0.1-0.4-0.2-0.5-0.4c-0.1-0.1-0.1-0.4-0.1-0.5v-43.5c0-0.2,0-0.4,0.1-0.5
			s0.2-0.2,0.5-0.4c0.2-0.1,0.6-0.1,0.9-0.2c0.4,0,0.8-0.1,1.4-0.1s1.1,0,1.4,0.1c0.4,0,0.7,0.1,0.9,0.2c0.2,0.1,0.4,0.2,0.5,0.4
			s0.1,0.4,0.1,0.5V1159.4z"/>
		<path class="st3" d="M7138.8,1121.2c0,0.5,0,0.8-0.1,1.2c0,0.4-0.1,0.6-0.2,0.8s-0.2,0.4-0.4,0.5c-0.1,0.1-0.2,0.1-0.5,0.1
			c-0.2,0-0.7-0.2-1.4-0.7c-0.7-0.5-1.5-0.9-2.6-1.5s-2.5-1.1-4-1.5c-1.5-0.5-3.3-0.7-5.4-0.7c-2.5,0-4.7,0.5-6.7,1.4
			s-3.6,2.1-5.1,3.8c-1.4,1.6-2.5,3.5-3.2,5.8s-1.1,4.6-1.1,7.2c0,2.9,0.4,5.4,1.2,7.8c0.8,2.2,1.9,4.1,3.3,5.6s3.2,2.7,5.1,3.5
			c2,0.8,4.1,1.2,6.5,1.2c1.4,0,2.8-0.1,4.2-0.5s2.8-0.8,4-1.5v-13.2h-10.5c-0.4,0-0.7-0.2-0.9-0.6c-0.2-0.4-0.4-1.1-0.4-1.9
			c0-0.5,0-0.8,0.1-1.2c0-0.4,0.1-0.6,0.2-0.8s0.2-0.4,0.4-0.5c0.1-0.1,0.4-0.1,0.5-0.1h14.4c0.2,0,0.5,0,0.8,0.1
			c0.2,0.1,0.5,0.2,0.7,0.5c0.2,0.2,0.4,0.5,0.5,0.8c0.1,0.4,0.1,0.7,0.1,1.2v17.3c0,0.6-0.1,1.2-0.4,1.5s-0.7,0.8-1.3,1.2
			c-0.7,0.4-1.5,0.7-2.6,1.1s-2.2,0.7-3.3,1.1c-1.2,0.2-2.4,0.5-3.4,0.6c-1.1,0.1-2.4,0.2-3.4,0.2c-3.5,0-6.6-0.6-9.4-1.6
			c-2.7-1.1-5.1-2.6-6.9-4.6c-1.9-2-3.4-4.5-4.4-7.2c-1.1-2.8-1.5-5.9-1.5-9.4c0-3.6,0.6-6.8,1.6-9.8s2.6-5.4,4.6-7.4
			s4.4-3.6,7.1-4.8c2.8-1.2,5.9-1.6,9.2-1.6c1.8,0,3.3,0.1,4.8,0.5s2.8,0.7,4,1.1s2.1,0.8,2.9,1.3s1.4,0.8,1.6,1.2
			c0.4,0.4,0.5,0.7,0.6,1.1C7138.8,1119.9,7138.8,1120.5,7138.8,1121.2z"/>
		<path class="st3" d="M7187.8,1157.9c0,0.5-0.1,0.8-0.2,1.2c-0.1,0.4-0.4,0.6-0.6,0.8c-0.2,0.2-0.6,0.4-0.8,0.5
			c-0.4,0.1-0.6,0.1-0.9,0.1h-2c-0.6,0-1.2-0.1-1.6-0.2c-0.5-0.1-0.9-0.4-1.3-0.7c-0.4-0.4-0.8-0.8-1.3-1.4s-0.8-1.3-1.3-2.2
			l-13.9-25.8c-0.7-1.3-1.4-2.7-2.2-4.2c-0.7-1.4-1.4-2.8-2-4.2h-0.1c0,1.6,0.1,3.4,0.1,5.2c0,1.8,0,3.5,0,5.2v27.4
			c0,0.1,0,0.4-0.1,0.5s-0.2,0.2-0.5,0.4c-0.2,0.1-0.6,0.1-0.9,0.2c-0.4,0-0.8,0.1-1.4,0.1s-1.1,0-1.4-0.1c-0.4,0-0.7-0.1-0.9-0.2
			c-0.2-0.1-0.4-0.2-0.5-0.4c-0.1-0.1-0.1-0.4-0.1-0.5v-41.9c0-0.9,0.2-1.6,0.8-2c0.6-0.4,1.1-0.6,1.8-0.6h2.9c0.7,0,1.3,0,1.8,0.1
			s0.9,0.4,1.3,0.6s0.7,0.6,1.1,1.2c0.4,0.5,0.7,1.1,1.1,1.8l10.6,19.9c0.7,1.2,1.3,2.4,1.9,3.5s1.2,2.4,1.8,3.4
			c0.6,1.2,1.2,2.2,1.6,3.3c0.6,1.1,1.1,2.2,1.6,3.3l0,0c0-1.9-0.1-3.8-0.1-5.8s0-3.9,0-5.8V1116c0-0.1,0-0.4,0.1-0.5
			s0.2-0.2,0.5-0.4s0.6-0.2,0.9-0.2c0.4,0,0.8-0.1,1.5-0.1c0.6,0,1.1,0,1.4,0.1c0.4,0,0.7,0.1,0.9,0.2c0.2,0.1,0.4,0.2,0.5,0.4
			c0.1,0.1,0.1,0.2,0.1,0.5L7187.8,1157.9L7187.8,1157.9z"/>
	</g>
	<g class="st1">
		<path class="st4" d="M6885,1061.1c0,0.9,0,1.8-0.1,2.4s-0.2,1.2-0.4,1.5c-0.1,0.5-0.4,0.7-0.6,0.9c-0.2,0.2-0.5,0.2-0.8,0.2h-27.6
			c-1.1,0-1.9-0.4-2.6-0.9s-1.1-1.6-1.1-2.9v-54.7c0-0.4,0.1-0.6,0.4-0.8c0.2-0.2,0.6-0.5,1.1-0.6s1.1-0.2,1.9-0.4s1.8-0.1,2.9-0.1
			c1.2,0,2.2,0,2.9,0.1c0.8,0.1,1.4,0.2,1.9,0.4c0.5,0.1,0.8,0.4,1.1,0.6c0.2,0.2,0.4,0.5,0.4,0.8v48.5h18.9c0.4,0,0.6,0.1,0.8,0.2
			c0.2,0.1,0.5,0.5,0.6,0.8c0.1,0.4,0.2,0.9,0.4,1.5C6884.9,1059.4,6885,1060.2,6885,1061.1z"/>
		<path class="st4" d="M6949.5,1035.4c0,4.9-0.6,9.4-1.9,13.4c-1.3,3.9-3.1,7.3-5.5,10c-2.5,2.7-5.5,4.8-9.1,6.2
			c-3.6,1.4-7.8,2.1-12.6,2.1c-4.7,0-8.8-0.6-12.2-1.9c-3.5-1.2-6.4-3.1-8.7-5.6c-2.4-2.5-4.1-5.8-5.2-9.5
			c-1.2-3.9-1.8-8.5-1.8-13.8c0-4.8,0.6-9.3,1.9-13.2s3.1-7.2,5.5-9.9c2.5-2.7,5.5-4.8,9.1-6.2c3.5-1.4,7.8-2.2,12.6-2.2
			c4.6,0,8.6,0.6,12.1,1.8s6.4,3.1,8.7,5.5c2.4,2.5,4.1,5.6,5.3,9.5C6948.8,1025.6,6949.5,1030.2,6949.5,1035.4z M6936.5,1036.1
			c0-3.2-0.2-6-0.7-8.6s-1.3-4.8-2.6-6.7c-1.3-1.9-2.8-3.3-4.8-4.2c-2-1.1-4.5-1.5-7.4-1.5c-3.1,0-5.5,0.6-7.5,1.6
			c-2,1.2-3.6,2.6-4.9,4.6c-1.3,1.9-2.1,4.1-2.6,6.6s-0.8,5.2-0.8,8c0,3.3,0.2,6.2,0.7,8.8c0.5,2.6,1.3,4.8,2.5,6.7
			c1.2,1.9,2.7,3.3,4.7,4.2c2,0.9,4.5,1.4,7.5,1.4c3.1,0,5.5-0.6,7.5-1.6c2-1.1,3.6-2.6,4.9-4.6c1.3-1.9,2.1-4.1,2.6-6.7
			C6936.3,1041.6,6936.5,1038.9,6936.5,1036.1z"/>
		<path class="st4" d="M7012.8,1015.4c0,0.9,0,1.6-0.1,2.4c-0.1,0.7-0.2,1.2-0.4,1.5c-0.1,0.4-0.4,0.7-0.5,0.8s-0.5,0.2-0.7,0.2
			c-0.4,0-1.1-0.2-2-0.8s-2.1-1.2-3.5-1.8s-3.3-1.3-5.3-1.8c-2.1-0.6-4.5-0.8-7.2-0.8c-2.9,0-5.5,0.5-7.9,1.5
			c-2.4,1.1-4.4,2.5-6,4.2s-2.9,4.1-3.9,6.7c-1,2.6-1.3,5.4-1.3,8.6c0,3.4,0.5,6.5,1.4,9.1s2.2,4.8,3.9,6.6c1.6,1.8,3.6,3.1,5.9,4
			c2.2,0.9,4.8,1.3,7.6,1.3c1.4,0,2.7-0.1,4-0.5s2.6-0.8,3.8-1.4v-14h-11.4c-0.6,0-0.9-0.4-1.3-1.1s-0.5-1.9-0.5-3.5
			c0-0.8,0-1.6,0.1-2.2c0.1-0.6,0.2-1.1,0.4-1.4c0.1-0.4,0.4-0.6,0.6-0.8c0.2-0.1,0.5-0.2,0.7-0.2h20.4c0.5,0,0.9,0.1,1.3,0.2
			c0.4,0.1,0.7,0.5,1.1,0.8c0.4,0.4,0.5,0.7,0.7,1.2c0.1,0.5,0.2,1.1,0.2,1.6v24c0,0.9-0.1,1.8-0.5,2.5s-0.9,1.3-2,1.6
			c-1.1,0.4-2.2,0.8-3.8,1.3s-3.1,0.8-4.6,1.1c-1.5,0.2-3.2,0.6-4.8,0.7c-1.6,0.1-3.3,0.2-4.9,0.2c-4.8,0-9.1-0.7-12.9-2.1
			s-7.1-3.4-9.6-6c-2.6-2.6-4.7-5.8-6-9.5c-1.4-3.8-2.1-8-2.1-12.8c0-4.9,0.7-9.4,2.2-13.3c1.5-3.9,3.6-7.3,6.4-10s6-4.8,9.9-6.4
			c3.9-1.4,8.1-2.2,12.9-2.2c2.6,0,4.9,0.2,7.2,0.6c2.2,0.4,4,0.8,5.6,1.3s2.9,1.1,4,1.6c1.1,0.6,1.8,1.1,2.2,1.5
			c0.5,0.5,0.7,1.1,0.9,1.9C7012.6,1012.7,7012.8,1013.9,7012.8,1015.4z"/>
		<path class="st4" d="M7084.1,1035.4c0,4.9-0.6,9.4-1.9,13.4c-1.3,3.9-3.1,7.3-5.5,10c-2.5,2.7-5.5,4.8-9.1,6.2
			c-3.6,1.4-7.8,2.1-12.6,2.1c-4.7,0-8.8-0.6-12.2-1.9c-3.5-1.2-6.4-3.1-8.7-5.6c-2.4-2.5-4.1-5.8-5.2-9.5
			c-1.2-3.9-1.8-8.5-1.8-13.8c0-4.8,0.6-9.3,1.9-13.2s3.1-7.2,5.5-9.9c2.5-2.7,5.5-4.8,9.1-6.2c3.5-1.4,7.8-2.2,12.6-2.2
			c4.6,0,8.6,0.6,12.1,1.8s6.4,3.1,8.7,5.5c2.4,2.5,4.1,5.6,5.3,9.5C7083.5,1025.6,7084.1,1030.2,7084.1,1035.4z M7071.2,1036.1
			c0-3.2-0.2-6-0.7-8.6s-1.3-4.8-2.6-6.7c-1.3-1.9-2.8-3.3-4.8-4.2c-2-1.1-4.5-1.5-7.4-1.5c-3.1,0-5.5,0.6-7.5,1.6
			c-2,1.2-3.6,2.6-4.9,4.6c-1.3,1.9-2.1,4.1-2.6,6.6s-0.8,5.2-0.8,8c0,3.3,0.2,6.2,0.7,8.8c0.5,2.6,1.3,4.8,2.5,6.7
			c1.2,1.9,2.7,3.3,4.7,4.2s4.5,1.4,7.5,1.4s5.5-0.6,7.5-1.6c2-1.1,3.6-2.6,4.9-4.6c1.3-1.9,2.1-4.1,2.6-6.7
			C7071,1041.6,7071.2,1038.9,7071.2,1036.1z"/>
		<path class="st4" d="M7137.1,1011.1c0,0.9,0,1.6-0.1,2.4c-0.1,0.6-0.2,1.2-0.4,1.5c-0.1,0.4-0.4,0.7-0.6,0.8
			c-0.2,0.2-0.5,0.2-0.8,0.2h-15.1v48.6c0,0.4-0.1,0.6-0.4,0.8c-0.2,0.2-0.6,0.5-1.1,0.6s-1.1,0.2-1.9,0.4c-0.8,0.1-1.8,0.1-2.9,0.1
			c-1.2,0-2.1,0-2.9-0.1s-1.4-0.2-1.9-0.4c-0.5-0.1-0.8-0.4-0.9-0.6c-0.2-0.2-0.4-0.5-0.4-0.8V1016h-15.1c-0.4,0-0.6-0.1-0.8-0.2
			c-0.2-0.2-0.4-0.5-0.6-0.8c-0.1-0.4-0.2-0.9-0.4-1.5c-0.1-0.6-0.1-1.4-0.1-2.4s0-1.8,0.1-2.4c0.1-0.7,0.2-1.2,0.4-1.5
			c0.1-0.4,0.4-0.7,0.6-0.8s0.5-0.2,0.8-0.2h42.5c0.2,0,0.6,0.1,0.8,0.2c0.2,0.1,0.5,0.5,0.6,0.8s0.2,0.9,0.4,1.5
			S7137.1,1010.1,7137.1,1011.1z"/>
		<path class="st4" d="M7173.4,1043.4v21.2c0,0.4-0.1,0.6-0.4,0.8c-0.2,0.2-0.6,0.5-1.1,0.6s-1.1,0.2-1.9,0.4
			c-0.8,0.1-1.8,0.1-2.9,0.1c-1.2,0-2.2,0-2.9-0.1c-0.8-0.1-1.4-0.2-1.9-0.4c-0.5-0.1-0.8-0.4-1.1-0.6c-0.2-0.2-0.2-0.5-0.2-0.8
			v-21.2l-16.5-32.8c-0.6-1.2-0.9-2-1.2-2.7c-0.1-0.6-0.1-1.1,0.2-1.4s1.1-0.5,2-0.6s2.4-0.1,4-0.1c1.4,0,2.6,0,3.4,0.1
			s1.5,0.2,2,0.4s0.8,0.4,1.1,0.7c0.2,0.2,0.5,0.6,0.7,1.1l6.7,14.8c0.7,1.4,1.3,2.9,1.9,4.5c0.6,1.5,1.3,3.3,1.9,4.9h0.1
			c0.6-1.6,1.2-3.3,1.8-4.9c0.6-1.6,1.2-3.1,1.8-4.5l6.6-14.7c0.1-0.5,0.4-0.9,0.6-1.2c0.2-0.4,0.6-0.6,1.1-0.7
			c0.5-0.1,1.1-0.4,1.9-0.4c0.8-0.1,1.9-0.1,3.2-0.1c1.8,0,3.2,0,4.1,0.1s1.6,0.2,2,0.6c0.4,0.4,0.5,0.8,0.2,1.4
			c-0.2,0.7-0.6,1.5-1.1,2.7L7173.4,1043.4z"/>
		<path class="st4" d="M7244.5,1024.3c0,3.4-0.5,6.4-1.5,8.9c-1.1,2.6-2.6,4.8-4.6,6.6c-2,1.8-4.5,3.2-7.4,4.1s-6.4,1.4-10.4,1.4
			h-5.1v19.2c0,0.4-0.1,0.6-0.4,0.8c-0.2,0.2-0.6,0.5-1.1,0.6s-1.1,0.2-1.9,0.4c-0.8,0.1-1.8,0.1-2.9,0.1c-1.2,0-2.1,0-2.9-0.1
			s-1.4-0.2-1.9-0.4c-0.5-0.1-0.8-0.4-0.9-0.6s-0.2-0.5-0.2-0.8v-54.1c0-1.4,0.4-2.6,1.2-3.3c0.7-0.7,1.8-1.1,3.1-1.1h14.2
			c1.4,0,2.8,0,4.1,0.1c1.3,0.1,2.8,0.4,4.6,0.7c1.8,0.4,3.6,1.1,5.4,2c1.9,0.9,3.4,2.2,4.7,3.6c1.3,1.4,2.4,3.2,2.9,5.2
			C7244.2,1019.6,7244.5,1021.9,7244.5,1024.3z M7231.7,1025.2c0-2.1-0.4-3.9-1.1-5.2s-1.6-2.4-2.7-3.1c-1.1-0.7-2.2-1.1-3.4-1.2
			c-1.2-0.1-2.5-0.2-3.6-0.2h-5.2v20.5h5.5c2,0,3.6-0.2,4.9-0.8c1.3-0.5,2.4-1.3,3.2-2.2s1.5-2.1,1.9-3.4
			C7231.5,1028.2,7231.7,1026.7,7231.7,1025.2z"/>
		<path class="st4" d="M7294.4,1061.4c0,0.9,0,1.6-0.1,2.2s-0.2,1.1-0.4,1.4c-0.1,0.4-0.4,0.6-0.6,0.8c-0.2,0.1-0.5,0.2-0.8,0.2
			h-30.2c-1.1,0-1.9-0.4-2.6-0.9c-0.7-0.6-1.1-1.6-1.1-2.9v-52.5c0-1.4,0.4-2.4,1.1-2.9c0.7-0.6,1.5-0.9,2.6-0.9h30
			c0.2,0,0.5,0.1,0.7,0.2c0.2,0.1,0.4,0.5,0.6,0.8c0.1,0.4,0.2,0.9,0.4,1.5c0.1,0.6,0.1,1.4,0.1,2.4c0,0.8,0,1.6-0.1,2.2
			c-0.1,0.6-0.2,1.1-0.4,1.4c-0.1,0.4-0.4,0.6-0.6,0.8c-0.2,0.1-0.5,0.2-0.7,0.2h-21.5v14.8h18.2c0.2,0,0.6,0.1,0.8,0.2
			c0.2,0.1,0.5,0.5,0.6,0.8c0.1,0.4,0.2,0.8,0.4,1.4c0.1,0.6,0.1,1.3,0.1,2.2s0,1.6-0.1,2.2c-0.1,0.6-0.2,1.1-0.4,1.4
			c-0.1,0.4-0.4,0.6-0.6,0.8c-0.2,0.2-0.5,0.2-0.8,0.2h-18.2v16.9h21.6c0.2,0,0.6,0.1,0.8,0.2s0.5,0.5,0.6,0.8
			c0.1,0.4,0.2,0.8,0.4,1.4C7294.4,1059.8,7294.4,1060.6,7294.4,1061.4z"/>
	</g>
	<g class="st1">
		<path class="st3" d="M6885,1061.1c0,0.9,0,1.8-0.1,2.4s-0.2,1.2-0.4,1.5c-0.1,0.5-0.4,0.7-0.6,0.9c-0.2,0.2-0.5,0.2-0.8,0.2h-27.6
			c-1.1,0-1.9-0.4-2.6-0.9s-1.1-1.6-1.1-2.9v-54.7c0-0.4,0.1-0.6,0.4-0.8c0.2-0.2,0.6-0.5,1.1-0.6s1.1-0.2,1.9-0.4s1.8-0.1,2.9-0.1
			c1.2,0,2.2,0,2.9,0.1c0.8,0.1,1.4,0.2,1.9,0.4c0.5,0.1,0.8,0.4,1.1,0.6c0.2,0.2,0.4,0.5,0.4,0.8v48.5h18.9c0.4,0,0.6,0.1,0.8,0.2
			c0.2,0.1,0.5,0.5,0.6,0.8c0.1,0.4,0.2,0.9,0.4,1.5C6884.9,1059.4,6885,1060.2,6885,1061.1z"/>
		<path class="st3" d="M6949.5,1035.4c0,4.9-0.6,9.4-1.9,13.4c-1.3,3.9-3.1,7.3-5.5,10c-2.5,2.7-5.5,4.8-9.1,6.2
			c-3.6,1.4-7.8,2.1-12.6,2.1c-4.7,0-8.8-0.6-12.2-1.9c-3.5-1.2-6.4-3.1-8.7-5.6c-2.4-2.5-4.1-5.8-5.2-9.5
			c-1.2-3.9-1.8-8.5-1.8-13.8c0-4.8,0.6-9.3,1.9-13.2s3.1-7.2,5.5-9.9c2.5-2.7,5.5-4.8,9.1-6.2c3.5-1.4,7.8-2.2,12.6-2.2
			c4.6,0,8.6,0.6,12.1,1.8s6.4,3.1,8.7,5.5c2.4,2.5,4.1,5.6,5.3,9.5C6948.8,1025.6,6949.5,1030.2,6949.5,1035.4z M6936.5,1036.1
			c0-3.2-0.2-6-0.7-8.6s-1.3-4.8-2.6-6.7c-1.3-1.9-2.8-3.3-4.8-4.2c-2-1.1-4.5-1.5-7.4-1.5c-3.1,0-5.5,0.6-7.5,1.6
			c-2,1.2-3.6,2.6-4.9,4.6c-1.3,1.9-2.1,4.1-2.6,6.6s-0.8,5.2-0.8,8c0,3.3,0.2,6.2,0.7,8.8c0.5,2.6,1.3,4.8,2.5,6.7
			c1.2,1.9,2.7,3.3,4.7,4.2c2,0.9,4.5,1.4,7.5,1.4c3.1,0,5.5-0.6,7.5-1.6c2-1.1,3.6-2.6,4.9-4.6c1.3-1.9,2.1-4.1,2.6-6.7
			C6936.3,1041.6,6936.5,1038.9,6936.5,1036.1z"/>
		<path class="st3" d="M7012.8,1015.4c0,0.9,0,1.6-0.1,2.4c-0.1,0.7-0.2,1.2-0.4,1.5c-0.1,0.4-0.4,0.7-0.5,0.8s-0.5,0.2-0.7,0.2
			c-0.4,0-1.1-0.2-2-0.8s-2.1-1.2-3.5-1.8s-3.3-1.3-5.3-1.8c-2.1-0.6-4.5-0.8-7.2-0.8c-2.9,0-5.5,0.5-7.9,1.5
			c-2.4,1.1-4.4,2.5-6,4.2s-2.9,4.1-3.9,6.7c-1,2.6-1.3,5.4-1.3,8.6c0,3.4,0.5,6.5,1.4,9.1s2.2,4.8,3.9,6.6c1.6,1.8,3.6,3.1,5.9,4
			c2.2,0.9,4.8,1.3,7.6,1.3c1.4,0,2.7-0.1,4-0.5s2.6-0.8,3.8-1.4v-14h-11.4c-0.6,0-0.9-0.4-1.3-1.1s-0.5-1.9-0.5-3.5
			c0-0.8,0-1.6,0.1-2.2c0.1-0.6,0.2-1.1,0.4-1.4c0.1-0.4,0.4-0.6,0.6-0.8c0.2-0.1,0.5-0.2,0.7-0.2h20.4c0.5,0,0.9,0.1,1.3,0.2
			c0.4,0.1,0.7,0.5,1.1,0.8c0.4,0.4,0.5,0.7,0.7,1.2c0.1,0.5,0.2,1.1,0.2,1.6v24c0,0.9-0.1,1.8-0.5,2.5s-0.9,1.3-2,1.6
			c-1.1,0.4-2.2,0.8-3.8,1.3s-3.1,0.8-4.6,1.1c-1.5,0.2-3.2,0.6-4.8,0.7c-1.6,0.1-3.3,0.2-4.9,0.2c-4.8,0-9.1-0.7-12.9-2.1
			s-7.1-3.4-9.6-6c-2.6-2.6-4.7-5.8-6-9.5c-1.4-3.8-2.1-8-2.1-12.8c0-4.9,0.7-9.4,2.2-13.3c1.5-3.9,3.6-7.3,6.4-10s6-4.8,9.9-6.4
			c3.9-1.4,8.1-2.2,12.9-2.2c2.6,0,4.9,0.2,7.2,0.6c2.2,0.4,4,0.8,5.6,1.3s2.9,1.1,4,1.6c1.1,0.6,1.8,1.1,2.2,1.5
			c0.5,0.5,0.7,1.1,0.9,1.9C7012.6,1012.7,7012.8,1013.9,7012.8,1015.4z"/>
		<path class="st3" d="M7084.1,1035.4c0,4.9-0.6,9.4-1.9,13.4c-1.3,3.9-3.1,7.3-5.5,10c-2.5,2.7-5.5,4.8-9.1,6.2
			c-3.6,1.4-7.8,2.1-12.6,2.1c-4.7,0-8.8-0.6-12.2-1.9c-3.5-1.2-6.4-3.1-8.7-5.6c-2.4-2.5-4.1-5.8-5.2-9.5
			c-1.2-3.9-1.8-8.5-1.8-13.8c0-4.8,0.6-9.3,1.9-13.2s3.1-7.2,5.5-9.9c2.5-2.7,5.5-4.8,9.1-6.2c3.5-1.4,7.8-2.2,12.6-2.2
			c4.6,0,8.6,0.6,12.1,1.8s6.4,3.1,8.7,5.5c2.4,2.5,4.1,5.6,5.3,9.5C7083.5,1025.6,7084.1,1030.2,7084.1,1035.4z M7071.2,1036.1
			c0-3.2-0.2-6-0.7-8.6s-1.3-4.8-2.6-6.7c-1.3-1.9-2.8-3.3-4.8-4.2c-2-1.1-4.5-1.5-7.4-1.5c-3.1,0-5.5,0.6-7.5,1.6
			c-2,1.2-3.6,2.6-4.9,4.6c-1.3,1.9-2.1,4.1-2.6,6.6s-0.8,5.2-0.8,8c0,3.3,0.2,6.2,0.7,8.8c0.5,2.6,1.3,4.8,2.5,6.7
			c1.2,1.9,2.7,3.3,4.7,4.2s4.5,1.4,7.5,1.4s5.5-0.6,7.5-1.6c2-1.1,3.6-2.6,4.9-4.6c1.3-1.9,2.1-4.1,2.6-6.7
			C7071,1041.6,7071.2,1038.9,7071.2,1036.1z"/>
		<path class="st3" d="M7137.1,1011.1c0,0.9,0,1.6-0.1,2.4c-0.1,0.6-0.2,1.2-0.4,1.5c-0.1,0.4-0.4,0.7-0.6,0.8
			c-0.2,0.2-0.5,0.2-0.8,0.2h-15.1v48.6c0,0.4-0.1,0.6-0.4,0.8c-0.2,0.2-0.6,0.5-1.1,0.6s-1.1,0.2-1.9,0.4c-0.8,0.1-1.8,0.1-2.9,0.1
			c-1.2,0-2.1,0-2.9-0.1s-1.4-0.2-1.9-0.4c-0.5-0.1-0.8-0.4-0.9-0.6c-0.2-0.2-0.4-0.5-0.4-0.8V1016h-15.1c-0.4,0-0.6-0.1-0.8-0.2
			c-0.2-0.2-0.4-0.5-0.6-0.8c-0.1-0.4-0.2-0.9-0.4-1.5c-0.1-0.6-0.1-1.4-0.1-2.4s0-1.8,0.1-2.4c0.1-0.7,0.2-1.2,0.4-1.5
			c0.1-0.4,0.4-0.7,0.6-0.8s0.5-0.2,0.8-0.2h42.5c0.2,0,0.6,0.1,0.8,0.2c0.2,0.1,0.5,0.5,0.6,0.8s0.2,0.9,0.4,1.5
			S7137.1,1010.1,7137.1,1011.1z"/>
		<path class="st3" d="M7173.4,1043.4v21.2c0,0.4-0.1,0.6-0.4,0.8c-0.2,0.2-0.6,0.5-1.1,0.6s-1.1,0.2-1.9,0.4
			c-0.8,0.1-1.8,0.1-2.9,0.1c-1.2,0-2.2,0-2.9-0.1c-0.8-0.1-1.4-0.2-1.9-0.4c-0.5-0.1-0.8-0.4-1.1-0.6c-0.2-0.2-0.2-0.5-0.2-0.8
			v-21.2l-16.5-32.8c-0.6-1.2-0.9-2-1.2-2.7c-0.1-0.6-0.1-1.1,0.2-1.4s1.1-0.5,2-0.6s2.4-0.1,4-0.1c1.4,0,2.6,0,3.4,0.1
			s1.5,0.2,2,0.4s0.8,0.4,1.1,0.7c0.2,0.2,0.5,0.6,0.7,1.1l6.7,14.8c0.7,1.4,1.3,2.9,1.9,4.5c0.6,1.5,1.3,3.3,1.9,4.9h0.1
			c0.6-1.6,1.2-3.3,1.8-4.9c0.6-1.6,1.2-3.1,1.8-4.5l6.6-14.7c0.1-0.5,0.4-0.9,0.6-1.2c0.2-0.4,0.6-0.6,1.1-0.7
			c0.5-0.1,1.1-0.4,1.9-0.4c0.8-0.1,1.9-0.1,3.2-0.1c1.8,0,3.2,0,4.1,0.1s1.6,0.2,2,0.6c0.4,0.4,0.5,0.8,0.2,1.4
			c-0.2,0.7-0.6,1.5-1.1,2.7L7173.4,1043.4z"/>
		<path class="st3" d="M7244.5,1024.3c0,3.4-0.5,6.4-1.5,8.9c-1.1,2.6-2.6,4.8-4.6,6.6c-2,1.8-4.5,3.2-7.4,4.1s-6.4,1.4-10.4,1.4
			h-5.1v19.2c0,0.4-0.1,0.6-0.4,0.8c-0.2,0.2-0.6,0.5-1.1,0.6s-1.1,0.2-1.9,0.4c-0.8,0.1-1.8,0.1-2.9,0.1c-1.2,0-2.1,0-2.9-0.1
			s-1.4-0.2-1.9-0.4c-0.5-0.1-0.8-0.4-0.9-0.6s-0.2-0.5-0.2-0.8v-54.1c0-1.4,0.4-2.6,1.2-3.3c0.7-0.7,1.8-1.1,3.1-1.1h14.2
			c1.4,0,2.8,0,4.1,0.1c1.3,0.1,2.8,0.4,4.6,0.7c1.8,0.4,3.6,1.1,5.4,2c1.9,0.9,3.4,2.2,4.7,3.6c1.3,1.4,2.4,3.2,2.9,5.2
			C7244.2,1019.6,7244.5,1021.9,7244.5,1024.3z M7231.7,1025.2c0-2.1-0.4-3.9-1.1-5.2s-1.6-2.4-2.7-3.1c-1.1-0.7-2.2-1.1-3.4-1.2
			c-1.2-0.1-2.5-0.2-3.6-0.2h-5.2v20.5h5.5c2,0,3.6-0.2,4.9-0.8c1.3-0.5,2.4-1.3,3.2-2.2s1.5-2.1,1.9-3.4
			C7231.5,1028.2,7231.7,1026.7,7231.7,1025.2z"/>
		<path class="st3" d="M7294.4,1061.4c0,0.9,0,1.6-0.1,2.2s-0.2,1.1-0.4,1.4c-0.1,0.4-0.4,0.6-0.6,0.8c-0.2,0.1-0.5,0.2-0.8,0.2
			h-30.2c-1.1,0-1.9-0.4-2.6-0.9c-0.7-0.6-1.1-1.6-1.1-2.9v-52.5c0-1.4,0.4-2.4,1.1-2.9c0.7-0.6,1.5-0.9,2.6-0.9h30
			c0.2,0,0.5,0.1,0.7,0.2c0.2,0.1,0.4,0.5,0.6,0.8c0.1,0.4,0.2,0.9,0.4,1.5c0.1,0.6,0.1,1.4,0.1,2.4c0,0.8,0,1.6-0.1,2.2
			c-0.1,0.6-0.2,1.1-0.4,1.4c-0.1,0.4-0.4,0.6-0.6,0.8c-0.2,0.1-0.5,0.2-0.7,0.2h-21.5v14.8h18.2c0.2,0,0.6,0.1,0.8,0.2
			c0.2,0.1,0.5,0.5,0.6,0.8c0.1,0.4,0.2,0.8,0.4,1.4c0.1,0.6,0.1,1.3,0.1,2.2s0,1.6-0.1,2.2c-0.1,0.6-0.2,1.1-0.4,1.4
			c-0.1,0.4-0.4,0.6-0.6,0.8c-0.2,0.2-0.5,0.2-0.8,0.2h-18.2v16.9h21.6c0.2,0,0.6,0.1,0.8,0.2s0.5,0.5,0.6,0.8
			c0.1,0.4,0.2,0.8,0.4,1.4C7294.4,1059.8,7294.4,1060.6,7294.4,1061.4z"/>
	</g>
	<g class="st1">
		<path class="st4" d="M6993.4,1137.1c0,3.9-0.5,7.3-1.5,10.2c-1.1,2.9-2.5,5.4-4.4,7.3s-4.2,3.4-7.1,4.4c-2.8,0.9-6.1,1.4-10,1.4
			h-9.6c-0.6,0-1.1-0.2-1.5-0.6c-0.5-0.4-0.7-0.9-0.7-1.9v-40.5c0-0.9,0.2-1.5,0.7-1.9s0.9-0.6,1.5-0.6h10.2c3.9,0,7.3,0.5,10,1.5
			s4.9,2.5,6.8,4.4s3.2,4.2,4.1,6.9C6992.9,1130.6,6993.4,1133.6,6993.4,1137.1z M6987,1137.3c0-2.5-0.4-4.7-0.9-6.8
			c-0.6-2.1-1.5-4-2.8-5.5s-2.9-2.7-4.9-3.6c-2-0.8-4.6-1.3-7.6-1.3h-6.1v35.3h6.2c2.9,0,5.3-0.4,7.3-1.1s3.6-1.9,4.9-3.3
			s2.4-3.4,2.9-5.6C6986.6,1143.1,6987,1140.3,6987,1137.3z"/>
		<path class="st4" d="M7031.5,1157.9c0,0.5,0,0.8-0.1,1.1c0,0.4-0.1,0.6-0.2,0.8s-0.2,0.4-0.4,0.5c-0.1,0.1-0.4,0.1-0.5,0.1h-21.8
			c-0.6,0-1.1-0.2-1.5-0.6c-0.5-0.4-0.7-0.9-0.7-1.9v-40.5c0-0.9,0.2-1.5,0.7-1.9s0.9-0.6,1.5-0.6h21.5c0.2,0,0.4,0,0.5,0.1
			s0.2,0.2,0.4,0.5c0.1,0.2,0.1,0.5,0.2,0.8c0,0.4,0.1,0.7,0.1,1.2s0,0.8-0.1,1.1c0,0.4-0.1,0.6-0.2,0.8s-0.2,0.4-0.4,0.5
			c-0.1,0.1-0.4,0.1-0.5,0.1h-17.8v14.2h15.2c0.2,0,0.4,0,0.5,0.1s0.2,0.2,0.4,0.5c0.1,0.2,0.2,0.5,0.2,0.8c0,0.4,0.1,0.7,0.1,1.2
			s0,0.8-0.1,1.1c0,0.4-0.1,0.6-0.2,0.7c-0.1,0.2-0.2,0.4-0.4,0.4c-0.1,0.1-0.4,0.1-0.5,0.1h-15.2v16.2h18c0.2,0,0.4,0,0.5,0.1
			s0.2,0.2,0.4,0.5c0.1,0.2,0.2,0.5,0.2,0.8C7031.5,1157.1,7031.5,1157.4,7031.5,1157.9z"/>
		<path class="st4" d="M7068.5,1147.6c0,2.1-0.4,4-1.2,5.6s-1.9,3.1-3.3,4.2c-1.4,1.2-3.1,2-4.9,2.6c-1.9,0.6-3.9,0.8-6.1,0.8
			c-1.5,0-2.9-0.1-4.2-0.4c-1.3-0.2-2.5-0.6-3.4-0.9c-1.1-0.4-1.9-0.7-2.6-1.2c-0.7-0.4-1.2-0.7-1.4-1.1c-0.2-0.2-0.5-0.6-0.6-1.1
			s-0.2-1.1-0.2-1.8c0-0.5,0-0.9,0.1-1.3c0-0.4,0.1-0.6,0.2-0.8s0.2-0.4,0.4-0.5c0.1-0.1,0.4-0.1,0.5-0.1c0.4,0,0.8,0.2,1.4,0.6
			s1.4,0.8,2.4,1.3c0.9,0.5,2.1,0.9,3.4,1.3s2.8,0.6,4.6,0.6c1.3,0,2.5-0.1,3.6-0.5s2-0.8,2.8-1.5c0.8-0.6,1.4-1.4,1.8-2.4
			c0.5-0.9,0.6-2,0.6-3.2c0-1.3-0.2-2.4-0.8-3.3c-0.6-0.9-1.4-1.8-2.4-2.4c-0.9-0.7-2-1.3-3.3-1.9c-1.2-0.6-2.5-1.2-3.8-1.8
			c-1.3-0.6-2.6-1.3-3.8-2c-1.2-0.7-2.4-1.5-3.3-2.6c-0.9-0.9-1.8-2.1-2.4-3.4s-0.9-2.9-0.9-4.7c0-1.9,0.4-3.5,1.1-5.1
			c0.7-1.5,1.6-2.7,2.8-3.8c1.2-1.1,2.7-1.8,4.4-2.4c1.6-0.5,3.5-0.8,5.5-0.8c1.1,0,2,0.1,3.1,0.2s2,0.4,2.8,0.7
			c0.9,0.2,1.6,0.6,2.4,0.9c0.7,0.4,1.2,0.7,1.4,0.8c0.2,0.2,0.4,0.4,0.5,0.5s0.1,0.2,0.1,0.5c0,0.2,0.1,0.5,0.1,0.7s0,0.6,0,1.1
			s0,0.8,0,1.2s-0.1,0.6-0.1,0.8s-0.1,0.4-0.4,0.5c-0.1,0.1-0.2,0.1-0.5,0.1c-0.2,0-0.7-0.1-1.2-0.5c-0.6-0.4-1.2-0.7-2-1.1
			s-1.8-0.8-2.8-1.2c-1.1-0.4-2.4-0.5-3.6-0.5c-1.3,0-2.4,0.1-3.3,0.5s-1.6,0.8-2.4,1.3c-0.6,0.6-1.1,1.2-1.4,2
			c-0.4,0.8-0.5,1.6-0.5,2.5c0,1.3,0.2,2.4,0.8,3.3c0.6,0.9,1.4,1.8,2.4,2.5s2.1,1.3,3.3,1.9c1.3,0.6,2.5,1.2,3.8,1.8
			c1.3,0.6,2.6,1.3,3.8,2c1.3,0.7,2.4,1.5,3.3,2.5s1.8,2.1,2.4,3.4C7068.2,1144.2,7068.5,1145.9,7068.5,1147.6z"/>
		<path class="st4" d="M7086.8,1159.4c0,0.2,0,0.4-0.1,0.5s-0.2,0.2-0.5,0.4c-0.2,0.1-0.6,0.1-0.9,0.2c-0.4,0-0.8,0.1-1.4,0.1
			s-1.1,0-1.4-0.1c-0.4,0-0.7-0.1-0.9-0.2c-0.2-0.1-0.4-0.2-0.5-0.4c-0.1-0.1-0.1-0.4-0.1-0.5v-43.5c0-0.2,0-0.4,0.1-0.5
			s0.2-0.2,0.5-0.4c0.2-0.1,0.6-0.1,0.9-0.2c0.4,0,0.8-0.1,1.4-0.1s1.1,0,1.4,0.1c0.4,0,0.7,0.1,0.9,0.2c0.2,0.1,0.4,0.2,0.5,0.4
			s0.1,0.4,0.1,0.5V1159.4z"/>
		<path class="st4" d="M7136.4,1121.2c0,0.5,0,0.8-0.1,1.2c0,0.4-0.1,0.6-0.2,0.8s-0.2,0.4-0.4,0.5c-0.1,0.1-0.2,0.1-0.5,0.1
			s-0.7-0.2-1.4-0.7c-0.7-0.5-1.5-0.9-2.6-1.5s-2.5-1.1-4-1.5c-1.5-0.5-3.3-0.7-5.4-0.7c-2.5,0-4.7,0.5-6.7,1.4s-3.6,2.1-5.1,3.8
			c-1.4,1.6-2.5,3.5-3.2,5.8s-1.1,4.6-1.1,7.2c0,2.9,0.4,5.4,1.2,7.8c0.8,2.2,1.9,4.1,3.3,5.6s3.2,2.7,5.1,3.5
			c2,0.8,4.1,1.2,6.5,1.2c1.4,0,2.8-0.1,4.2-0.5s2.8-0.8,4-1.5v-13.2h-10.5c-0.4,0-0.7-0.2-0.9-0.6c-0.2-0.4-0.4-1.1-0.4-1.9
			c0-0.5,0-0.8,0.1-1.2c0-0.4,0.1-0.6,0.2-0.8c0.1-0.2,0.2-0.4,0.4-0.5c0.1-0.1,0.4-0.1,0.5-0.1h14.4c0.2,0,0.5,0,0.8,0.1
			c0.2,0.1,0.5,0.2,0.7,0.5c0.2,0.2,0.4,0.5,0.5,0.8c0.1,0.4,0.1,0.7,0.1,1.2v17.3c0,0.6-0.1,1.2-0.4,1.5s-0.7,0.8-1.3,1.2
			c-0.7,0.4-1.5,0.7-2.6,1.1s-2.2,0.7-3.3,1.1c-1.2,0.2-2.4,0.5-3.4,0.6c-1.1,0.1-2.4,0.2-3.4,0.2c-3.5,0-6.6-0.6-9.4-1.6
			c-2.7-1.1-5.1-2.6-6.9-4.6c-1.9-2-3.4-4.5-4.4-7.2c-1.1-2.8-1.5-5.9-1.5-9.4c0-3.6,0.6-6.8,1.6-9.8c1.1-2.9,2.6-5.4,4.6-7.4
			s4.4-3.6,7.1-4.8c2.8-1.2,5.9-1.6,9.2-1.6c1.8,0,3.3,0.1,4.8,0.5s2.8,0.7,4,1.1s2.1,0.8,2.9,1.3s1.4,0.8,1.6,1.2
			c0.4,0.4,0.5,0.7,0.6,1.1C7136.4,1119.9,7136.4,1120.5,7136.4,1121.2z"/>
		<path class="st4" d="M7185.5,1157.9c0,0.5-0.1,0.8-0.2,1.2c-0.1,0.4-0.4,0.6-0.6,0.8c-0.2,0.2-0.6,0.4-0.8,0.5
			c-0.4,0.1-0.6,0.1-0.9,0.1h-2c-0.6,0-1.2-0.1-1.6-0.2c-0.5-0.1-0.9-0.4-1.3-0.7c-0.4-0.4-0.8-0.8-1.3-1.4s-0.8-1.3-1.3-2.2
			l-13.9-25.8c-0.7-1.3-1.4-2.7-2.2-4.2c-0.7-1.4-1.4-2.8-2-4.2h-0.1c0,1.6,0.1,3.4,0.1,5.2c0,1.8,0,3.5,0,5.2v27.4
			c0,0.1,0,0.4-0.1,0.5s-0.2,0.2-0.5,0.4c-0.2,0.1-0.6,0.1-0.9,0.2c-0.4,0-0.8,0.1-1.4,0.1s-1.1,0-1.4-0.1c-0.4,0-0.7-0.1-0.9-0.2
			c-0.2-0.1-0.4-0.2-0.5-0.4c-0.1-0.1-0.1-0.4-0.1-0.5v-41.9c0-0.9,0.2-1.6,0.8-2c0.6-0.4,1.1-0.6,1.8-0.6h2.9c0.7,0,1.3,0,1.8,0.1
			s0.9,0.4,1.3,0.6s0.7,0.6,1.1,1.2c0.4,0.5,0.7,1.1,1.1,1.8l10.6,19.9c0.7,1.2,1.3,2.4,1.9,3.5c0.6,1.2,1.2,2.4,1.8,3.4
			c0.6,1.2,1.2,2.2,1.6,3.3c0.6,1.1,1.1,2.2,1.6,3.3l0,0c0-1.9-0.1-3.8-0.1-5.8s0-3.9,0-5.8V1116c0-0.1,0-0.4,0.1-0.5
			s0.2-0.2,0.5-0.4c0.2-0.1,0.6-0.2,0.9-0.2s0.8-0.1,1.5-0.1c0.6,0,1.1,0,1.4,0.1c0.4,0,0.7,0.1,0.9,0.2c0.2,0.1,0.4,0.2,0.5,0.4
			c0.1,0.1,0.1,0.2,0.1,0.5L7185.5,1157.9L7185.5,1157.9z"/>
	</g>
	<g class="st1">
		<path class="st3" d="M6993.4,1137.1c0,3.9-0.5,7.3-1.5,10.2c-1.1,2.9-2.5,5.4-4.4,7.3s-4.2,3.4-7.1,4.4c-2.8,0.9-6.1,1.4-10,1.4
			h-9.6c-0.6,0-1.1-0.2-1.5-0.6c-0.5-0.4-0.7-0.9-0.7-1.9v-40.5c0-0.9,0.2-1.5,0.7-1.9s0.9-0.6,1.5-0.6h10.2c3.9,0,7.3,0.5,10,1.5
			s4.9,2.5,6.8,4.4s3.2,4.2,4.1,6.9C6992.9,1130.6,6993.4,1133.6,6993.4,1137.1z M6987,1137.3c0-2.5-0.4-4.7-0.9-6.8
			c-0.6-2.1-1.5-4-2.8-5.5s-2.9-2.7-4.9-3.6c-2-0.8-4.6-1.3-7.6-1.3h-6.1v35.3h6.2c2.9,0,5.3-0.4,7.3-1.1s3.6-1.9,4.9-3.3
			s2.4-3.4,2.9-5.6C6986.6,1143.1,6987,1140.3,6987,1137.3z"/>
		<path class="st3" d="M7031.5,1157.9c0,0.5,0,0.8-0.1,1.1c0,0.4-0.1,0.6-0.2,0.8s-0.2,0.4-0.4,0.5c-0.1,0.1-0.4,0.1-0.5,0.1h-21.8
			c-0.6,0-1.1-0.2-1.5-0.6c-0.5-0.4-0.7-0.9-0.7-1.9v-40.5c0-0.9,0.2-1.5,0.7-1.9s0.9-0.6,1.5-0.6h21.5c0.2,0,0.4,0,0.5,0.1
			s0.2,0.2,0.4,0.5c0.1,0.2,0.1,0.5,0.2,0.8c0,0.4,0.1,0.7,0.1,1.2s0,0.8-0.1,1.1c0,0.4-0.1,0.6-0.2,0.8s-0.2,0.4-0.4,0.5
			c-0.1,0.1-0.4,0.1-0.5,0.1h-17.8v14.2h15.2c0.2,0,0.4,0,0.5,0.1s0.2,0.2,0.4,0.5c0.1,0.2,0.2,0.5,0.2,0.8c0,0.4,0.1,0.7,0.1,1.2
			s0,0.8-0.1,1.1c0,0.4-0.1,0.6-0.2,0.7c-0.1,0.2-0.2,0.4-0.4,0.4c-0.1,0.1-0.4,0.1-0.5,0.1h-15.2v16.2h18c0.2,0,0.4,0,0.5,0.1
			s0.2,0.2,0.4,0.5c0.1,0.2,0.2,0.5,0.2,0.8C7031.5,1157.1,7031.5,1157.4,7031.5,1157.9z"/>
		<path class="st3" d="M7068.5,1147.6c0,2.1-0.4,4-1.2,5.6s-1.9,3.1-3.3,4.2c-1.4,1.2-3.1,2-4.9,2.6c-1.9,0.6-3.9,0.8-6.1,0.8
			c-1.5,0-2.9-0.1-4.2-0.4c-1.3-0.2-2.5-0.6-3.4-0.9c-1.1-0.4-1.9-0.7-2.6-1.2c-0.7-0.4-1.2-0.7-1.4-1.1c-0.2-0.2-0.5-0.6-0.6-1.1
			s-0.2-1.1-0.2-1.8c0-0.5,0-0.9,0.1-1.3c0-0.4,0.1-0.6,0.2-0.8s0.2-0.4,0.4-0.5c0.1-0.1,0.4-0.1,0.5-0.1c0.4,0,0.8,0.2,1.4,0.6
			s1.4,0.8,2.4,1.3c0.9,0.5,2.1,0.9,3.4,1.3s2.8,0.6,4.6,0.6c1.3,0,2.5-0.1,3.6-0.5s2-0.8,2.8-1.5c0.8-0.6,1.4-1.4,1.8-2.4
			c0.5-0.9,0.6-2,0.6-3.2c0-1.3-0.2-2.4-0.8-3.3c-0.6-0.9-1.4-1.8-2.4-2.4c-0.9-0.7-2-1.3-3.3-1.9c-1.2-0.6-2.5-1.2-3.8-1.8
			c-1.3-0.6-2.6-1.3-3.8-2c-1.2-0.7-2.4-1.5-3.3-2.6c-0.9-0.9-1.8-2.1-2.4-3.4s-0.9-2.9-0.9-4.7c0-1.9,0.4-3.5,1.1-5.1
			c0.7-1.5,1.6-2.7,2.8-3.8c1.2-1.1,2.7-1.8,4.4-2.4c1.6-0.5,3.5-0.8,5.5-0.8c1.1,0,2,0.1,3.1,0.2s2,0.4,2.8,0.7
			c0.9,0.2,1.6,0.6,2.4,0.9c0.7,0.4,1.2,0.7,1.4,0.8c0.2,0.2,0.4,0.4,0.5,0.5s0.1,0.2,0.1,0.5c0,0.2,0.1,0.5,0.1,0.7s0,0.6,0,1.1
			s0,0.8,0,1.2s-0.1,0.6-0.1,0.8s-0.1,0.4-0.4,0.5c-0.1,0.1-0.2,0.1-0.5,0.1c-0.2,0-0.7-0.1-1.2-0.5c-0.6-0.4-1.2-0.7-2-1.1
			s-1.8-0.8-2.8-1.2c-1.1-0.4-2.4-0.5-3.6-0.5c-1.3,0-2.4,0.1-3.3,0.5s-1.6,0.8-2.4,1.3c-0.6,0.6-1.1,1.2-1.4,2
			c-0.4,0.8-0.5,1.6-0.5,2.5c0,1.3,0.2,2.4,0.8,3.3c0.6,0.9,1.4,1.8,2.4,2.5s2.1,1.3,3.3,1.9c1.3,0.6,2.5,1.2,3.8,1.8
			c1.3,0.6,2.6,1.3,3.8,2c1.3,0.7,2.4,1.5,3.3,2.5s1.8,2.1,2.4,3.4C7068.2,1144.2,7068.5,1145.9,7068.5,1147.6z"/>
		<path class="st3" d="M7086.8,1159.4c0,0.2,0,0.4-0.1,0.5s-0.2,0.2-0.5,0.4c-0.2,0.1-0.6,0.1-0.9,0.2c-0.4,0-0.8,0.1-1.4,0.1
			s-1.1,0-1.4-0.1c-0.4,0-0.7-0.1-0.9-0.2c-0.2-0.1-0.4-0.2-0.5-0.4c-0.1-0.1-0.1-0.4-0.1-0.5v-43.5c0-0.2,0-0.4,0.1-0.5
			s0.2-0.2,0.5-0.4c0.2-0.1,0.6-0.1,0.9-0.2c0.4,0,0.8-0.1,1.4-0.1s1.1,0,1.4,0.1c0.4,0,0.7,0.1,0.9,0.2c0.2,0.1,0.4,0.2,0.5,0.4
			s0.1,0.4,0.1,0.5V1159.4z"/>
		<path class="st3" d="M7136.4,1121.2c0,0.5,0,0.8-0.1,1.2c0,0.4-0.1,0.6-0.2,0.8s-0.2,0.4-0.4,0.5c-0.1,0.1-0.2,0.1-0.5,0.1
			s-0.7-0.2-1.4-0.7c-0.7-0.5-1.5-0.9-2.6-1.5s-2.5-1.1-4-1.5c-1.5-0.5-3.3-0.7-5.4-0.7c-2.5,0-4.7,0.5-6.7,1.4s-3.6,2.1-5.1,3.8
			c-1.4,1.6-2.5,3.5-3.2,5.8s-1.1,4.6-1.1,7.2c0,2.9,0.4,5.4,1.2,7.8c0.8,2.2,1.9,4.1,3.3,5.6s3.2,2.7,5.1,3.5
			c2,0.8,4.1,1.2,6.5,1.2c1.4,0,2.8-0.1,4.2-0.5s2.8-0.8,4-1.5v-13.2h-10.5c-0.4,0-0.7-0.2-0.9-0.6c-0.2-0.4-0.4-1.1-0.4-1.9
			c0-0.5,0-0.8,0.1-1.2c0-0.4,0.1-0.6,0.2-0.8c0.1-0.2,0.2-0.4,0.4-0.5c0.1-0.1,0.4-0.1,0.5-0.1h14.4c0.2,0,0.5,0,0.8,0.1
			c0.2,0.1,0.5,0.2,0.7,0.5c0.2,0.2,0.4,0.5,0.5,0.8c0.1,0.4,0.1,0.7,0.1,1.2v17.3c0,0.6-0.1,1.2-0.4,1.5s-0.7,0.8-1.3,1.2
			c-0.7,0.4-1.5,0.7-2.6,1.1s-2.2,0.7-3.3,1.1c-1.2,0.2-2.4,0.5-3.4,0.6c-1.1,0.1-2.4,0.2-3.4,0.2c-3.5,0-6.6-0.6-9.4-1.6
			c-2.7-1.1-5.1-2.6-6.9-4.6c-1.9-2-3.4-4.5-4.4-7.2c-1.1-2.8-1.5-5.9-1.5-9.4c0-3.6,0.6-6.8,1.6-9.8c1.1-2.9,2.6-5.4,4.6-7.4
			s4.4-3.6,7.1-4.8c2.8-1.2,5.9-1.6,9.2-1.6c1.8,0,3.3,0.1,4.8,0.5s2.8,0.7,4,1.1s2.1,0.8,2.9,1.3s1.4,0.8,1.6,1.2
			c0.4,0.4,0.5,0.7,0.6,1.1C7136.4,1119.9,7136.4,1120.5,7136.4,1121.2z"/>
		<path class="st3" d="M7185.5,1157.9c0,0.5-0.1,0.8-0.2,1.2c-0.1,0.4-0.4,0.6-0.6,0.8c-0.2,0.2-0.6,0.4-0.8,0.5
			c-0.4,0.1-0.6,0.1-0.9,0.1h-2c-0.6,0-1.2-0.1-1.6-0.2c-0.5-0.1-0.9-0.4-1.3-0.7c-0.4-0.4-0.8-0.8-1.3-1.4s-0.8-1.3-1.3-2.2
			l-13.9-25.8c-0.7-1.3-1.4-2.7-2.2-4.2c-0.7-1.4-1.4-2.8-2-4.2h-0.1c0,1.6,0.1,3.4,0.1,5.2c0,1.8,0,3.5,0,5.2v27.4
			c0,0.1,0,0.4-0.1,0.5s-0.2,0.2-0.5,0.4c-0.2,0.1-0.6,0.1-0.9,0.2c-0.4,0-0.8,0.1-1.4,0.1s-1.1,0-1.4-0.1c-0.4,0-0.7-0.1-0.9-0.2
			c-0.2-0.1-0.4-0.2-0.5-0.4c-0.1-0.1-0.1-0.4-0.1-0.5v-41.9c0-0.9,0.2-1.6,0.8-2c0.6-0.4,1.1-0.6,1.8-0.6h2.9c0.7,0,1.3,0,1.8,0.1
			s0.9,0.4,1.3,0.6s0.7,0.6,1.1,1.2c0.4,0.5,0.7,1.1,1.1,1.8l10.6,19.9c0.7,1.2,1.3,2.4,1.9,3.5c0.6,1.2,1.2,2.4,1.8,3.4
			c0.6,1.2,1.2,2.2,1.6,3.3c0.6,1.1,1.1,2.2,1.6,3.3l0,0c0-1.9-0.1-3.8-0.1-5.8s0-3.9,0-5.8V1116c0-0.1,0-0.4,0.1-0.5
			s0.2-0.2,0.5-0.4c0.2-0.1,0.6-0.2,0.9-0.2s0.8-0.1,1.5-0.1c0.6,0,1.1,0,1.4,0.1c0.4,0,0.7,0.1,0.9,0.2c0.2,0.1,0.4,0.2,0.5,0.4
			c0.1,0.1,0.1,0.2,0.1,0.5L7185.5,1157.9L7185.5,1157.9z"/>
	</g>
</g>
</svg>
