<svg xmlns="http://www.w3.org/2000/svg" width="37.534" height="33.479" viewBox="0 0 37.534 33.479">
  <path id="Path_1148" data-name="Path 1148" d="M1272.469,1344.27c-.374-1.49-.536-1.449-.909-2.939s-.365-1.492-.739-2.981c-.108-.429.264-.8.651-1.01,1.611-.894,1.6-.906,3.216-1.8a.79.79,0,0,1,.97.078c2,1.619,1.949,1.679,3.946,3.3a1.117,1.117,0,0,0,1.259-.152,25.428,25.428,0,0,1,3.488-1.967,26.076,26.076,0,0,1,3.755-1.359,23.4,23.4,0,0,1,3.895-.864,22.568,22.568,0,0,1,3.985-.037,1.2,1.2,0,0,0,1.082-.709c.768-2,.592-2.063,1.36-4.058s.744-2,1.512-4a1.047,1.047,0,0,1,1.747-.23c.633.755,1.36,1.7,2.068,2.73.644.935,1.349,1.89,1.91,2.85a22.527,22.527,0,0,1,1.514,3.081,38.971,38.971,0,0,1,1.152,7.349,17.724,17.724,0,0,1-.72,3.648,15.4,15.4,0,0,1-1.3,3.455,15.118,15.118,0,0,1-2.076,3.064,16.737,16.737,0,0,1-2.664,2.616,21.082,21.082,0,0,1-3.23,1.905,27.521,27.521,0,0,1-3.516,1.286,22.4,22.4,0,0,1-3.617.746,18.529,18.529,0,0,1-3.689.367,15.019,15.019,0,0,1-3.641-.749,14.623,14.623,0,0,1-3.367-1.563,16.006,16.006,0,0,1-2.694-2.528,19.494,19.494,0,0,1-2.463-2.747,21.811,21.811,0,0,1-1.571-3.342A22.667,22.667,0,0,1,1272.469,1344.27Z" transform="translate(-1270.802 -1325.171)" fill="#fdf4ee"/>
</svg>
