<svg xmlns="http://www.w3.org/2000/svg" width="308.412" height="247.769" viewBox="0 0 308.412 247.769">
  <g id="Group_449" data-name="Group 449" transform="translate(-1162.775 -5341)">
    <g id="Group_444" data-name="Group 444" transform="translate(-1621.114 2620.177)">
      <path id="Path_1149" data-name="Path 1149" d="M3091.6,2843.335c-.329-3.113-2.86-5.84-3.567-8.837-.719-3.051-1.021-6.117-2.1-8.993-1.109-2.94-.8-6.574-2.267-9.27-1.5-2.767-4.095-4.955-5.936-7.4-1.9-2.517-4.8-4.046-7.026-6.153a48.082,48.082,0,0,0-7-5.954c-2.628-1.68-5.533-2.467-8.443-3.546a57.934,57.934,0,0,0-8.727-1.942c-2.606-.408-5.553-1.625-8.941-2-2.839-.313-5.9-.755-9.1-.951-.107-.007-.22-.008-.328-.014-.019-.377-.027-.754-.019-1.13.072-3.158,2.417-6.394,2.118-9.493a81.271,81.271,0,0,0-1.759-9.379c-.678-3.1-3.44-5.583-4.467-8.507-1.054-3-1.707-6.042-3.1-8.8-1.439-2.846-1.6-6.5-3.374-9.018-1.838-2.613-4.687-4.514-6.851-6.706-2.241-2.269-5.337-3.4-7.892-5.138a39.845,39.845,0,0,0-8.228-4.087,55.28,55.28,0,0,0-8.489-1.97c-2.54-.418-5.408-1.622-8.71-2-2.769-.32-5.75-.764-8.876-.964-2.876-.184-5.882-.245-8.928-.258-2.941-.012-5.863,1.251-8.846,1.461s-6.069-.742-8.976-.253a66.75,66.75,0,0,0-8.611,2.387c-2.913.9-5.086,3.1-7.643,4.472-2.673,1.432-6.053,1.648-8.18,3.673s-2.948,5.265-4.845,7.7c-1.8,2.318-4.82,3.868-6.389,6.505a83.483,83.483,0,0,0-3.747,8.246c-1.227,2.706-3.555,5.109-4.512,7.99-.942,2.832-.309,6.195-.961,9.147a84.509,84.509,0,0,0-1.262,8.9c-.276,2.459-1.369,4.907-1.747,7.375a41.534,41.534,0,0,1-5.6,1.052c-2.971.194-6.044-.782-8.944-.325a70.241,70.241,0,0,0-8.613,2.255c-2.927.849-5.144,3-7.716,4.292-2.718,1.366-6.1,1.483-8.255,3.425-2.078,1.871-2.909,5-4.777,7.254-1.791,2.165-4.768,3.512-6.329,5.975a77.132,77.132,0,0,0-3.763,7.776c-1.236,2.555-3.565,4.777-4.533,7.5-.954,2.685-.343,5.928-1.007,8.728a76.255,76.255,0,0,0-1.3,8.466c-.344,2.843-1.906,5.662-1.908,8.528a68.862,68.862,0,0,0,.272,8.739c.368,2.837,2.678,5.355,3.443,8.124a59.179,59.179,0,0,0,2.782,7.863,54.553,54.553,0,0,0,3.527,7.593,47.393,47.393,0,0,0,10.715,13.017c2.209,1.766,5.137,2.481,7.558,3.865a59.19,59.19,0,0,0,7.669,3.26c2.612,1.043,4.709,3.722,7.415,4.432,2.726.714,5.843-.331,8.6.076,2.8.413,5.492,1.931,8.262,2.059a8.447,8.447,0,0,0,2.4-.281c.038,1.143.1,2.28.236,3.389.368,2.983,2.679,5.659,3.439,8.57a64.741,64.741,0,0,0,3.047,8.953,58.047,58.047,0,0,0,4.011,8.6,49.776,49.776,0,0,0,12.428,14.48c2.572,1.927,5.848,2.723,8.655,4.158a61.177,61.177,0,0,0,8.859,3.272c3.036,1,5.675,3.63,8.779,4.209,3.158.589,6.563-.652,9.7-.455,3.233.2,6.432,1.469,9.536,1.308,2.882-.151,5.665-2.163,8.61-2.459,2.894-.291,6.065,1.252,8.959.725,2.872-.523,5.2-3.271,8.011-4.118,2.788-.841,6.2.007,8.872-1.242a53.571,53.571,0,0,0,7.454-4.792,46.053,46.053,0,0,0,6.6-5.248c1.924-1.944,3.239-4.529,4.908-6.837a62.96,62.96,0,0,0,4.746-6.905c1.3-2.419,1.723-5.283,2.767-7.918,1.015-2.564,3.065-4.827,3.818-7.55a41.676,41.676,0,0,0,1.071-6.349,9.856,9.856,0,0,0,2.939.246c2.966-.283,5.637-2.85,8.6-3.361,2.948-.509,6.3.847,9.191.023a65.883,65.883,0,0,0,8.359-3.5,54.7,54.7,0,0,0,8.066-4.1c2.287-1.508,4.055-3.8,6.09-5.744a53.4,53.4,0,0,0,5.817-5.957c1.659-2.17,2.468-4.935,3.862-7.384,1.354-2.38,3.708-4.321,4.792-6.915,1.058-2.533,1.507-5.367,2.289-8.06.875-3.008.235-6.255.7-9.3.468-3.093,3.256-5.981,3.321-9.064A75.907,75.907,0,0,0,3091.6,2843.335Z" fill="#abb5bb"/>
      <path id="Path_1150" data-name="Path 1150" d="M2965.8,2814.68a6.611,6.611,0,0,0-1.014-.236c-.3-.049-.645-.193-1.038-.239-.331-.038-.687-.091-1.061-.115-.343-.022-.7-.03-1.067-.032s-.7.15-1.059.175-.727-.089-1.076-.031a8.039,8.039,0,0,0-1.032.286,5.378,5.378,0,0,0-.915.535c-.32.171-.724.2-.979.44a7.931,7.931,0,0,0-.579.921c-.216.277-.576.462-.764.777a9.791,9.791,0,0,0-.448.986,10.653,10.653,0,0,0-.54.955c-.112.339-.037.741-.115,1.094a16.237,16.237,0,0,1-.377,2.136,9.518,9.518,0,0,0,.033,1.095,8.768,8.768,0,0,0,.412,1.026,7.848,7.848,0,0,0,.364,1.071,7.037,7.037,0,0,0,.481,1.03,5.947,5.947,0,0,0,1.488,1.731,6.79,6.79,0,0,0,1.035.5,7.317,7.317,0,0,0,1.059.391c.363.12.679.434,1.05.5a9.577,9.577,0,0,0,1.159-.055,10.876,10.876,0,0,0,1.139.157c.345-.018.678-.259,1.03-.294s.725.149,1.071.086.622-.391.959-.492.741,0,1.061-.149a6.417,6.417,0,0,0,.892-.573,5.492,5.492,0,0,0,.788-.627,6.567,6.567,0,0,0,.587-.818,7.433,7.433,0,0,0,.567-.824,8.651,8.651,0,0,0,.332-.948,9.161,9.161,0,0,0,.457-.9,9.066,9.066,0,0,0,.173-1.119,9.255,9.255,0,0,0-.06-1.126c.009-.378.289-.765.253-1.135a9.654,9.654,0,0,0-.21-1.122c-.081-.371-.412-.668-.535-1.018a8.464,8.464,0,0,0-.372-1.054,8.646,8.646,0,0,0-.4-1.078,6.973,6.973,0,0,0-.82-.8,5.668,5.668,0,0,0-.943-.614A4.747,4.747,0,0,0,2965.8,2814.68Z" fill="#fff"/>
      <path id="Path_1151" data-name="Path 1151" d="M2943.026,2838.108a6.541,6.541,0,0,0-1.014-.235c-.3-.05-.645-.194-1.038-.24-.331-.038-.687-.091-1.061-.115-.343-.022-.7-.03-1.067-.031s-.7.149-1.059.174-.727-.089-1.076-.03a8.008,8.008,0,0,0-1.032.285,5.414,5.414,0,0,0-.915.535c-.32.172-.724.2-.979.44a8.044,8.044,0,0,0-.579.921c-.216.277-.577.462-.764.778a9.755,9.755,0,0,0-.448.985,10.65,10.65,0,0,0-.54.955c-.112.339-.037.741-.115,1.094a10.2,10.2,0,0,0-.151,1.065,10.052,10.052,0,0,0-.226,1.072,9.468,9.468,0,0,0,.033,1.095,8.733,8.733,0,0,0,.412,1.025,7.812,7.812,0,0,0,.364,1.071,7.025,7.025,0,0,0,.481,1.03,6.462,6.462,0,0,0,.658.935,6.349,6.349,0,0,0,.83.8,6.587,6.587,0,0,0,1.035.5,7.331,7.331,0,0,0,1.059.391c.363.12.679.434,1.05.5a9.573,9.573,0,0,0,1.159-.055,10.631,10.631,0,0,0,1.139.157c.345-.018.678-.259,1.03-.294s.725.149,1.071.086.622-.391.959-.492.741,0,1.061-.149a6.446,6.446,0,0,0,.892-.573,5.49,5.49,0,0,0,.788-.627,6.646,6.646,0,0,0,.587-.817,7.47,7.47,0,0,0,.567-.825,8.581,8.581,0,0,0,.332-.948,9.215,9.215,0,0,0,.457-.9,9.1,9.1,0,0,0,.173-1.118,9.261,9.261,0,0,0-.06-1.127c.009-.377.289-.764.253-1.135a9.705,9.705,0,0,0-.21-1.122c-.081-.371-.412-.668-.535-1.018a8.543,8.543,0,0,0-.372-1.054,8.733,8.733,0,0,0-.4-1.078,6.954,6.954,0,0,0-.82-.8,5.792,5.792,0,0,0-.943-.614A4.792,4.792,0,0,0,2943.026,2838.108Z" fill="#fff"/>
      <path id="Path_1152" data-name="Path 1152" d="M2965.8,2859.536a6.692,6.692,0,0,0-1.014-.235c-.3-.05-.645-.194-1.038-.239-.331-.039-.687-.092-1.061-.116-.343-.022-.7-.029-1.067-.031s-.7.149-1.059.174-.727-.089-1.076-.03a8,8,0,0,0-1.032.285,5.4,5.4,0,0,0-.915.536c-.32.171-.724.2-.979.439a8.1,8.1,0,0,0-.579.921c-.216.277-.576.463-.764.778a9.665,9.665,0,0,0-.448.986,10.5,10.5,0,0,0-.54.954c-.112.339-.037.741-.115,1.094a10.264,10.264,0,0,0-.151,1.065,10.137,10.137,0,0,0-.226,1.072,9.517,9.517,0,0,0,.033,1.095,8.69,8.69,0,0,0,.412,1.025,7.8,7.8,0,0,0,.364,1.071,7.014,7.014,0,0,0,.481,1.03,5.973,5.973,0,0,0,1.488,1.732,6.693,6.693,0,0,0,1.035.5,7.317,7.317,0,0,0,1.059.391c.363.12.679.434,1.05.5a9.527,9.527,0,0,0,1.159-.054,10.868,10.868,0,0,0,1.139.156c.345-.018.678-.259,1.03-.294s.725.15,1.071.087.622-.392.959-.493.741,0,1.061-.148a6.424,6.424,0,0,0,.892-.574,5.484,5.484,0,0,0,.788-.626,6.732,6.732,0,0,0,.587-.818,7.479,7.479,0,0,0,.567-.824,8.7,8.7,0,0,0,.332-.949,9.192,9.192,0,0,0,.457-.9,9.022,9.022,0,0,0,.173-1.118,9.248,9.248,0,0,0-.06-1.126c.009-.378.289-.765.253-1.136a9.64,9.64,0,0,0-.21-1.122c-.081-.37-.412-.668-.535-1.017a8.391,8.391,0,0,0-.372-1.054,8.578,8.578,0,0,0-.4-1.078,6.905,6.905,0,0,0-.82-.8,5.794,5.794,0,0,0-.943-.614A4.859,4.859,0,0,0,2965.8,2859.536Z" fill="#fff"/>
      <g id="Group_443" data-name="Group 443">
        <path id="Path_1153" data-name="Path 1153" d="M2987.841,2838.843a6.518,6.518,0,0,0-1.014-.236c-.3-.049-.644-.193-1.038-.239-.331-.038-.687-.091-1.061-.115-.343-.022-.7-.03-1.066-.032s-.7.15-1.06.175-.727-.089-1.075-.031a7.98,7.98,0,0,0-1.032.286,5.4,5.4,0,0,0-.916.535c-.32.171-.724.2-.978.439a8.012,8.012,0,0,0-.58.922c-.215.277-.576.462-.764.777a10.219,10.219,0,0,0-.448.986,10.64,10.64,0,0,0-.539.955c-.113.339-.037.741-.115,1.094a10.159,10.159,0,0,0-.152,1.065,9.794,9.794,0,0,0-.225,1.071,9.1,9.1,0,0,0,.033,1.095,8.761,8.761,0,0,0,.411,1.026,7.849,7.849,0,0,0,.365,1.071,6.937,6.937,0,0,0,.481,1.03,5.966,5.966,0,0,0,1.487,1.731,6.847,6.847,0,0,0,1.035.5,7.316,7.316,0,0,0,1.059.391c.363.12.679.434,1.05.5a9.555,9.555,0,0,0,1.159-.055,10.617,10.617,0,0,0,1.14.156c.344-.018.677-.258,1.029-.294s.726.15,1.072.087.622-.391.958-.492.742,0,1.061-.149a6.4,6.4,0,0,0,.892-.573,5.492,5.492,0,0,0,.788-.627,6.665,6.665,0,0,0,.588-.818,7.566,7.566,0,0,0,.567-.824,9.2,9.2,0,0,0,.332-.948,9.355,9.355,0,0,0,.457-.9,9.066,9.066,0,0,0,.172-1.119,9.241,9.241,0,0,0-.059-1.126c.008-.378.289-.765.253-1.135a9.656,9.656,0,0,0-.211-1.122c-.081-.371-.411-.668-.534-1.018a8.8,8.8,0,0,0-.372-1.054,8.6,8.6,0,0,0-.4-1.078,6.98,6.98,0,0,0-.82-.8,5.654,5.654,0,0,0-.943-.613A4.711,4.711,0,0,0,2987.841,2838.843Z" fill="#fff"/>
      </g>
    </g>
    <g id="Group_447" data-name="Group 447" transform="matrix(0.995, 0.105, -0.105, 0.995, -762.837, 2600.471)">
      <path id="Path_1154" data-name="Path 1154" d="M2442.915,2753.431a10.521,10.521,0,0,0-1.573-.335c-.468-.07-1-.286-1.609-.35-.511-.053-1.06-.131-1.637-.164-.53-.031-1.083-.041-1.645-.043-.542,0-1.082.229-1.631.263s-1.118-.15-1.654-.071a13.6,13.6,0,0,0-1.6.4,8.823,8.823,0,0,0-1.441.77c-.511.243-1.137.251-1.541.6-.38.326-.534.888-.875,1.281s-.876.6-1.164,1.032a13.66,13.66,0,0,0-.7,1.374,14.147,14.147,0,0,0-.843,1.32,14.6,14.6,0,0,0-.194,1.559,22.133,22.133,0,0,1-.6,3.028,11.661,11.661,0,0,0,.05,1.562c.068.505.5.949.639,1.443a10.052,10.052,0,0,0,.531,1.426,9.463,9.463,0,0,0,.677,1.37,9.182,9.182,0,0,0,.906,1.246,9.48,9.48,0,0,0,1.124,1.07,10.428,10.428,0,0,0,1.4.662,11.349,11.349,0,0,0,1.417.559c.48.18.871.667,1.368.789a15.7,15.7,0,0,0,1.571-.01c.512.071,1,.348,1.511.37s1.031-.317,1.532-.341c.53-.025,1.093.3,1.635.253s1.016-.508,1.549-.594,1.13.165,1.65.025a12.286,12.286,0,0,0,1.511-.6,10.05,10.05,0,0,0,1.464-.7,8.537,8.537,0,0,0,1.084-.977,9.267,9.267,0,0,0,1.044-1.009,10.7,10.7,0,0,0,.7-1.271,11.5,11.5,0,0,0,.87-1.183,12.668,12.668,0,0,0,.42-1.4,11.582,11.582,0,0,0,.128-1.614c.084-.536.586-1.035.6-1.571a12.466,12.466,0,0,0-.132-1.639c-.063-.539-.523-1-.655-1.522a11.821,11.821,0,0,0-.395-1.552,12.692,12.692,0,0,0-.428-1.6,10.925,10.925,0,0,0-1.078-1.248,9.656,9.656,0,0,0-1.261-1.02,8.6,8.6,0,0,0-1.245-1A7.823,7.823,0,0,0,2442.915,2753.431Z" transform="translate(-159.283 -95.444)" fill="#af886a"/>
      <path id="Path_1155" data-name="Path 1155" d="M2304.528,2753.431a10.54,10.54,0,0,0-1.573-.335c-.469-.07-1-.286-1.609-.35-.511-.053-1.06-.131-1.636-.164-.53-.031-1.084-.041-1.645-.043-.542,0-1.082.229-1.632.263s-1.117-.15-1.655-.071a13.647,13.647,0,0,0-1.6.4,8.833,8.833,0,0,0-1.441.77c-.51.243-1.136.251-1.541.6-.38.326-.533.888-.875,1.281s-.876.6-1.164,1.032a13.455,13.455,0,0,0-.7,1.374,14.052,14.052,0,0,0-.844,1.32,14.658,14.658,0,0,0-.194,1.559,12.965,12.965,0,0,0-.246,1.508,12.641,12.641,0,0,0-.357,1.52,11.7,11.7,0,0,0,.049,1.562c.068.505.5.949.639,1.443a10.083,10.083,0,0,0,.531,1.426,9.363,9.363,0,0,0,.677,1.37,9.141,9.141,0,0,0,.906,1.246,9.552,9.552,0,0,0,1.123,1.07,10.392,10.392,0,0,0,1.4.662,11.309,11.309,0,0,0,1.416.559c.48.18.871.667,1.368.789a15.71,15.71,0,0,0,1.572-.01c.512.071,1,.348,1.511.37s1.031-.317,1.532-.341c.531-.025,1.093.3,1.635.253s1.016-.508,1.549-.594,1.131.165,1.651.025a12.317,12.317,0,0,0,1.511-.6,10,10,0,0,0,1.464-.7,8.543,8.543,0,0,0,1.085-.977,9.4,9.4,0,0,0,1.045-1.009,10.8,10.8,0,0,0,.7-1.271,11.6,11.6,0,0,0,.869-1.183,12.512,12.512,0,0,0,.42-1.4,11.582,11.582,0,0,0,.128-1.614c.084-.536.586-1.035.6-1.571a12.509,12.509,0,0,0-.133-1.639c-.062-.539-.522-1-.655-1.522a11.745,11.745,0,0,0-.395-1.552,12.568,12.568,0,0,0-.427-1.6,10.972,10.972,0,0,0-1.078-1.248,9.721,9.721,0,0,0-1.261-1.02,8.594,8.594,0,0,0-1.246-1A7.81,7.81,0,0,0,2304.528,2753.431Z" transform="translate(-51.198 -95.444)" fill="#af886a"/>
      <path id="Path_1156" data-name="Path 1156" d="M2373.317,2631.229a10.581,10.581,0,0,0-1.573-.336c-.469-.07-1-.285-1.609-.349-.51-.053-1.06-.131-1.636-.164-.53-.031-1.083-.041-1.645-.044-.542,0-1.082.229-1.631.263s-1.117-.15-1.654-.07a13.615,13.615,0,0,0-1.6.4,8.831,8.831,0,0,0-1.441.77c-.51.243-1.137.251-1.541.6-.38.327-.533.887-.875,1.281s-.876.6-1.165,1.031a13.533,13.533,0,0,0-.7,1.375,14.138,14.138,0,0,0-.844,1.32,14.674,14.674,0,0,0-.194,1.559,12.87,12.87,0,0,0-.246,1.508,12.689,12.689,0,0,0-.357,1.521,11.733,11.733,0,0,0,.049,1.562c.068.506.5.949.639,1.443a10.1,10.1,0,0,0,.531,1.426,9.4,9.4,0,0,0,.676,1.37,9.17,9.17,0,0,0,.906,1.246,9.572,9.572,0,0,0,1.123,1.07,10.343,10.343,0,0,0,1.4.661,11.254,11.254,0,0,0,1.416.559c.48.18.871.667,1.368.789a15.633,15.633,0,0,0,1.572-.011c.512.071,1,.348,1.511.37s1.031-.317,1.532-.341c.531-.025,1.093.3,1.635.253s1.016-.508,1.549-.595,1.131.165,1.651.025a12.315,12.315,0,0,0,1.511-.6,10,10,0,0,0,1.464-.7,8.524,8.524,0,0,0,1.085-.977,9.431,9.431,0,0,0,1.045-1.008,10.872,10.872,0,0,0,.7-1.272,11.564,11.564,0,0,0,.868-1.183,12.524,12.524,0,0,0,.421-1.4,11.556,11.556,0,0,0,.128-1.614c.084-.537.586-1.036.6-1.571a12.432,12.432,0,0,0-.133-1.639c-.062-.539-.522-1-.654-1.522a11.755,11.755,0,0,0-.395-1.553,12.587,12.587,0,0,0-.428-1.6,10.948,10.948,0,0,0-1.078-1.248,9.719,9.719,0,0,0-1.26-1.02,8.607,8.607,0,0,0-1.246-1A7.807,7.807,0,0,0,2373.317,2631.229Z" transform="translate(-104.925 0)" fill="#af886a"/>
      <path id="Path_1157" data-name="Path 1157" d="M2386.266,2860.256a10.573,10.573,0,0,0-1.573-.336c-.469-.07-1-.285-1.61-.349-.51-.054-1.06-.13-1.636-.165-.53-.031-1.084-.041-1.645-.043-.542,0-1.082.229-1.632.263s-1.117-.15-1.654-.07a13.507,13.507,0,0,0-1.6.4,8.89,8.89,0,0,0-1.441.77c-.51.243-1.136.25-1.541.6-.38.327-.533.888-.875,1.281s-.876.6-1.164,1.032a13.479,13.479,0,0,0-.7,1.374,14.112,14.112,0,0,0-.844,1.32,14.652,14.652,0,0,0-.194,1.559,12.919,12.919,0,0,0-.246,1.508,12.712,12.712,0,0,0-.357,1.52,11.737,11.737,0,0,0,.049,1.562c.068.506.5.95.639,1.443a10.142,10.142,0,0,0,.531,1.427,9.437,9.437,0,0,0,.677,1.37,9.2,9.2,0,0,0,.906,1.246,9.576,9.576,0,0,0,1.123,1.07,10.457,10.457,0,0,0,1.4.661,11.393,11.393,0,0,0,1.416.56c.48.179.871.667,1.368.788a15.488,15.488,0,0,0,1.572-.01c.512.071,1,.348,1.511.37s1.031-.317,1.532-.341c.531-.024,1.093.3,1.635.254s1.016-.508,1.549-.6,1.131.166,1.651.025a12.283,12.283,0,0,0,1.511-.6,10.075,10.075,0,0,0,1.464-.7,8.469,8.469,0,0,0,1.085-.977,9.349,9.349,0,0,0,1.045-1.008,10.825,10.825,0,0,0,.7-1.271,11.647,11.647,0,0,0,.869-1.183,12.532,12.532,0,0,0,.42-1.4,11.364,11.364,0,0,0,.128-1.613c.085-.537.586-1.036.6-1.571a12.471,12.471,0,0,0-.133-1.64c-.062-.539-.522-1-.654-1.522a11.752,11.752,0,0,0-.4-1.553,12.631,12.631,0,0,0-.427-1.6,11.02,11.02,0,0,0-1.078-1.248,9.641,9.641,0,0,0-1.261-1.02,8.55,8.55,0,0,0-1.246-1A7.8,7.8,0,0,0,2386.266,2860.256Z" transform="translate(-115.038 -178.878)" fill="#af886a"/>
      <path id="Path_1158" data-name="Path 1158" d="M2523.844,2860.256a10.573,10.573,0,0,0-1.573-.336c-.469-.07-1-.285-1.609-.349-.51-.054-1.06-.13-1.636-.165-.53-.031-1.083-.041-1.645-.043-.542,0-1.082.229-1.631.263s-1.117-.15-1.654-.07a13.507,13.507,0,0,0-1.6.4,8.88,8.88,0,0,0-1.441.77c-.51.243-1.137.25-1.541.6-.38.327-.533.888-.875,1.281s-.875.6-1.164,1.032a13.578,13.578,0,0,0-.7,1.374,14.112,14.112,0,0,0-.844,1.32,14.715,14.715,0,0,0-.194,1.559,22.236,22.236,0,0,1-.6,3.028,11.82,11.82,0,0,0,.049,1.562c.068.506.5.95.639,1.443a10.264,10.264,0,0,0,.531,1.427,9.488,9.488,0,0,0,.677,1.37,9.225,9.225,0,0,0,.906,1.246,9.615,9.615,0,0,0,1.123,1.07,10.429,10.429,0,0,0,1.4.661,11.393,11.393,0,0,0,1.416.56c.48.179.871.667,1.368.788a15.493,15.493,0,0,0,1.572-.01c.512.071,1,.348,1.511.37s1.031-.317,1.532-.341c.53-.024,1.093.3,1.635.254s1.016-.508,1.549-.6,1.13.166,1.65.025a12.252,12.252,0,0,0,1.511-.6,10.08,10.08,0,0,0,1.464-.7,8.483,8.483,0,0,0,1.085-.977,9.368,9.368,0,0,0,1.044-1.008,10.79,10.79,0,0,0,.7-1.271,11.574,11.574,0,0,0,.869-1.183,12.481,12.481,0,0,0,.42-1.4,11.436,11.436,0,0,0,.128-1.613c.085-.537.586-1.036.6-1.571a12.388,12.388,0,0,0-.133-1.64c-.062-.539-.522-1-.654-1.522a11.713,11.713,0,0,0-.395-1.553,12.551,12.551,0,0,0-.428-1.6,10.894,10.894,0,0,0-1.078-1.248,9.625,9.625,0,0,0-1.261-1.02,8.55,8.55,0,0,0-1.246-1A7.786,7.786,0,0,0,2523.844,2860.256Z" transform="translate(-222.492 -178.878)" fill="#af886a"/>
      <path id="Path_1159" data-name="Path 1159" d="M2238.976,2860.256a10.554,10.554,0,0,0-1.573-.336c-.469-.07-1-.285-1.609-.349-.511-.054-1.06-.13-1.637-.165-.529-.031-1.083-.041-1.645-.043-.542,0-1.082.229-1.631.263s-1.117-.15-1.654-.07a13.5,13.5,0,0,0-1.6.4,8.88,8.88,0,0,0-1.441.77c-.51.243-1.136.25-1.541.6-.38.327-.533.888-.875,1.281s-.876.6-1.164,1.032a13.631,13.631,0,0,0-.7,1.374,14.259,14.259,0,0,0-.843,1.32,14.652,14.652,0,0,0-.194,1.559,22.287,22.287,0,0,1-.6,3.028,11.655,11.655,0,0,0,.05,1.562c.068.506.5.95.639,1.443a10.141,10.141,0,0,0,.531,1.427,9.487,9.487,0,0,0,.677,1.37,9.2,9.2,0,0,0,.906,1.246,9.538,9.538,0,0,0,1.123,1.07,10.426,10.426,0,0,0,1.4.661,11.427,11.427,0,0,0,1.416.56c.48.179.871.667,1.368.788a15.489,15.489,0,0,0,1.572-.01c.512.071,1,.348,1.511.37s1.031-.317,1.532-.341c.53-.024,1.093.3,1.635.254s1.016-.508,1.549-.6,1.13.166,1.651.025a12.31,12.31,0,0,0,1.511-.6,10.075,10.075,0,0,0,1.464-.7,8.449,8.449,0,0,0,1.085-.977,9.268,9.268,0,0,0,1.045-1.008,10.719,10.719,0,0,0,.7-1.271,11.542,11.542,0,0,0,.869-1.183,12.636,12.636,0,0,0,.421-1.4,11.473,11.473,0,0,0,.128-1.613c.084-.537.586-1.036.6-1.571a12.429,12.429,0,0,0-.132-1.64c-.063-.539-.522-1-.654-1.522a11.828,11.828,0,0,0-.395-1.553,12.632,12.632,0,0,0-.428-1.6,10.993,10.993,0,0,0-1.078-1.248,9.625,9.625,0,0,0-1.261-1.02,8.572,8.572,0,0,0-1.246-1A7.806,7.806,0,0,0,2238.976,2860.256Z" transform="translate(0 -178.878)" fill="#af886a"/>
    </g>
  </g>
</svg>
