<svg xmlns="http://www.w3.org/2000/svg" width="342.827" height="148.627" viewBox="0 0 342.827 148.627">
  <g id="bg_r" transform="matrix(0.998, 0.07, -0.07, 0.998, 321.364, -2659.496)" opacity="0.403">
    <g id="Group_391" data-name="Group 391" transform="translate(-125.349 2797.927)">
      <path id="Path_1089" data-name="Path 1089" d="M-125.347,3120.916c-.062-.819,1.269.044,2.155-.542.383-.253.733-.69,1.277-1.014.427-.255.872-.553,1.4-.838.449-.245.662-1.02,1.182-1.28.465-.232,1.255.156,1.776-.082.478-.219.823-.777,1.347-1,.488-.205.922-.6,1.45-.8.5-.19,1.119-.082,1.651-.268.5-.176.816-.985,1.351-1.155.51-.162,1.271.456,1.81.3.516-.148.871-.931,1.412-1.07.52-.133,1.177.241,1.721.116.524-.12,1.01-.46,1.556-.569.528-.106,1.07-.192,1.619-.287.531-.092,1-.659,1.553-.739.534-.078,1.1-.051,1.652-.118.536-.064,1.078-.259,1.63-.312s1.129.352,1.682.314,1.122.661,1.676.636,1.056-.832,1.61-.844,1.094-.42,1.648-.419,1.088.579,1.641.593,1.105-.313,1.658-.287,1.082.247,1.634.286,1.026.779,1.577.829,1.155-.623,1.705-.561,1.062.309,1.61.383,1.142-.255,1.688-.17.932,1.038,1.476,1.134,1.193-.469,1.736-.363,1.067.247,1.607.364,1.134-.044,1.673.083.918.849,1.453.986,1.209-.292,1.742-.146.939.7,1.469.856.9.766,1.433.931,1.053.267,1.578.44,1.228-.226,1.75-.044.9.585,1.417.775c.1.8-.463.239-1.336.8-.379.244-.578.956-1.111,1.271-.42.249-1.216-.06-1.728.221-.441.242-.512,1.264-1.019,1.523-.455.232-1.3-.247-1.8-.005-.466.222-.658,1.1-1.167,1.325-.475.211-1.126.075-1.637.285-.483.2-.809.86-1.323,1.056-.49.187-1.26-.339-1.778-.157-.5.174-.826.888-1.346,1.056-.5.162-1.238-.4-1.761-.245-.506.148-1,.338-1.529.479-.511.136-.9.771-1.433.9-.515.123-1.109-.064-1.641.049s-1.084-.013-1.619.087-1.07.008-1.605.094-.991.54-1.529.612-1.064.051-1.6.108-1.058.094-1.6.138-1.033.567-1.574.6-1.1-.764-1.639-.748-1.052.914-1.594.916-1.074-.2-1.615-.207-1.051-.476-1.592-.5-1.083.251-1.623.212-1.085.111-1.624.058-1.014-.558-1.551-.625-1.1.19-1.639.111-1.13.243-1.663.151-1.051-.259-1.581-.364-.945-.719-1.474-.837-.923-.714-1.448-.844-1.126.113-1.648-.03-1.117.019-1.636-.135-.854-.848-1.37-1.013-1.182.175-1.694,0-1.012-.355-1.52-.543-.778-.948-1.282-1.146-1.276.3-1.775.092S-124.852,3121.135-125.347,3120.916Z" transform="translate(125.349 -3110.949)" fill="#abb5bb"/>
    </g>
    <g id="Group_392" data-name="Group 392" transform="translate(-70.806 2766.036)">
      <path id="Path_1090" data-name="Path 1090" d="M53.755,3016.15c-.062-.821.283-.327,1.172-.914.384-.255.9-.47,1.441-.8.428-.256,1.092-.176,1.618-.462.451-.244.506-1.324,1.028-1.584.467-.232,1.165-.059,1.688-.3.479-.219.828-.8,1.354-1.023.489-.205,1.171.009,1.7-.194.5-.191.887-.731,1.42-.918.5-.177,1.011-.421,1.548-.592.511-.163,1.141.006,1.68-.149.517-.148.914-.809,1.456-.949.522-.134,1.273.624,1.818.5.526-.12.968-.654,1.516-.763.53-.106,1.147.238,1.7.143.533-.092.946-.989,1.5-1.069.535-.079,1.135.227,1.687.161s1.042-.568,1.6-.621,1.105.01,1.66-.028,1.134.734,1.69.708,1.059-1.058,1.614-1.07,1.1.668,1.66.669,1.078.453,1.634.467,1.083-.061,1.638-.034,1.1-.207,1.652-.168,1.142-.538,1.694-.487,1.1.051,1.654.114.951,1.2,1.5,1.279,1.194-.656,1.742-.571,1.08.188,1.626.283.929.96,1.473,1.067,1.292-.853,1.834-.736.995.586,1.535.713,1.109.089,1.646.226.9.858,1.44,1.005,1.063.245,1.594.4.931.676,1.461.841,1.378-.716,1.9-.542.8,1.07,1.319,1.252.583.168,1.1.359c.1.8-.157-.09-1.032.475-.38.245-.329,1.357-.864,1.674-.421.249-1.03.3-1.544.578-.442.242-1.19-.019-1.7.241-.456.232-.854.629-1.363.871-.467.223-.8.8-1.307,1.026-.477.211-1.093.145-1.606.355-.484.2-.788.909-1.3,1.105-.491.187-1.146-.015-1.666.167-.5.174-1.013.336-1.536.5-.5.163-.962.513-1.488.668-.508.149-.969.535-1.5.676-.512.137-1.14-.117-1.671.01-.516.123-1.144-.23-1.678-.117s-.915.881-1.451.98-1.194-.659-1.732-.573-1.03.255-1.57.326-1.049.141-1.589.2-1.056.077-1.6.121-1.029.566-1.572.6-1.071.01-1.615.025-1.072-.312-1.615-.31-1.057-.228-1.6-.241-1.108,1.048-1.65,1.022-1.046-.556-1.588-.6-1.064-.128-1.6-.181-1.119.327-1.658.26-.935-1.068-1.472-1.147-1.223.857-1.758.765-.861-1.227-1.393-1.333-1.056-.127-1.585-.246-1.19.391-1.717.26-1.041-.271-1.565-.414-.875-.83-1.4-.986-1.187.219-1.7.052-1.094-.127-1.606-.3-.961-.515-1.471-.7-1.137-.053-1.642-.252-.657-1.238-1.158-1.448S54.251,3016.37,53.755,3016.15Z" transform="translate(-53.748 -3006.232)" fill="#abb5bb"/>
    </g>
    <g id="Group_393" data-name="Group 393" transform="translate(65.246 2748.715)">
      <path id="Path_1091" data-name="Path 1091" d="M500.5,2959.273c-.062-.821.283-.327,1.172-.914.384-.254.9-.47,1.441-.795.428-.255,1.092-.176,1.618-.461.451-.245.505-1.325,1.028-1.584.467-.233,1.165-.059,1.688-.3.479-.219.828-.8,1.354-1.023.489-.206,1.171.009,1.7-.193.5-.192.887-.732,1.42-.918.505-.177,1.012-.422,1.548-.592.512-.163,1.141.006,1.681-.149.517-.148.914-.809,1.456-.949.522-.133,1.273.625,1.818.5.526-.12.969-.655,1.516-.765.53-.105,1.148.239,1.7.144.532-.092.946-.989,1.5-1.07.535-.078,1.135.228,1.688.161.537-.064,1.042-.567,1.6-.62s1.105.011,1.66-.028,1.134.733,1.69.708,1.058-1.057,1.614-1.07,1.1.669,1.66.67,1.078.454,1.634.467,1.083-.061,1.638-.034,1.1-.207,1.653-.168,1.142-.538,1.694-.487,1.1.052,1.654.114.951,1.2,1.5,1.279,1.194-.656,1.742-.571,1.08.187,1.626.283.929.961,1.473,1.067,1.292-.853,1.834-.735,1,.586,1.535.713,1.109.089,1.646.226.9.858,1.44,1,1.062.246,1.594.4.931.676,1.461.841,1.378-.716,1.9-.542.8,1.07,1.319,1.252.584.168,1.1.359c.1.8-.156-.09-1.032.475-.38.245-.33,1.357-.864,1.674-.421.249-1.03.295-1.544.577-.442.243-1.19-.019-1.7.241-.457.233-.854.63-1.363.872-.468.223-.8.8-1.307,1.026-.477.21-1.093.144-1.607.355-.484.2-.788.909-1.3,1.105-.491.187-1.146-.016-1.666.167-.5.175-1.013.336-1.535.5-.5.162-.962.513-1.488.668-.508.149-.969.535-1.5.676-.512.137-1.14-.117-1.671.01-.516.124-1.144-.229-1.678-.116s-.914.881-1.451.98-1.194-.658-1.732-.573-1.03.255-1.57.326-1.049.141-1.59.2-1.056.077-1.6.121-1.029.567-1.571.6-1.071.009-1.615.025-1.072-.312-1.615-.31-1.057-.229-1.6-.241-1.108,1.048-1.65,1.022-1.046-.556-1.588-.6-1.064-.128-1.6-.181-1.119.327-1.657.26-.935-1.067-1.471-1.147-1.224.857-1.758.765-.86-1.227-1.392-1.333-1.056-.128-1.585-.246-1.19.392-1.717.261-1.041-.271-1.565-.415-.875-.83-1.4-.985-1.187.218-1.7.052-1.094-.128-1.607-.306-.961-.515-1.471-.7-1.137-.053-1.642-.252-.657-1.238-1.158-1.448S501,2959.494,500.5,2959.273Z" transform="translate(-500.493 -2949.355)" fill="#abb5bb"/>
    </g>
    <g id="Group_394" data-name="Group 394" transform="translate(150.213 2713.083)">
      <path id="Path_1092" data-name="Path 1092" d="M779.5,2842.274c-.062-.822.283-.327,1.172-.915.384-.254.9-.47,1.441-.795.428-.255,1.092-.175,1.618-.462.451-.245.505-1.324,1.028-1.584.467-.233,1.165-.06,1.688-.3.479-.219.828-.8,1.354-1.023.489-.205,1.171.009,1.7-.194.5-.191.887-.731,1.42-.918.505-.177,1.012-.421,1.548-.592.512-.163,1.141.006,1.681-.149.517-.148.914-.809,1.456-.949.522-.134,1.273.624,1.818.5.526-.12.968-.653,1.516-.763.53-.106,1.147.238,1.7.143.532-.092.946-.989,1.5-1.07.535-.078,1.135.228,1.688.162.537-.065,1.042-.568,1.6-.621s1.105.011,1.66-.028,1.134.733,1.69.708,1.058-1.058,1.615-1.07,1.1.668,1.66.67,1.078.453,1.634.467,1.083-.061,1.638-.034,1.1-.207,1.653-.168,1.142-.538,1.694-.487,1.1.052,1.654.114.951,1.205,1.5,1.279,1.194-.656,1.742-.571,1.08.187,1.626.283.929.96,1.473,1.067,1.292-.853,1.834-.736,1,.586,1.535.713,1.109.089,1.646.226.9.858,1.439,1,1.062.246,1.594.4.931.676,1.461.841,1.378-.717,1.9-.542.8,1.07,1.319,1.252.583.168,1.1.359c.1.8-.156-.09-1.032.475-.38.246-.33,1.357-.864,1.674-.421.25-1.03.3-1.544.577-.442.243-1.189-.019-1.7.241-.457.233-.854.63-1.363.872-.468.222-.8.8-1.307,1.026-.477.211-1.093.145-1.606.355-.484.2-.788.909-1.3,1.1-.491.187-1.146-.015-1.666.167-.5.175-1.012.337-1.535.5-.5.162-.962.513-1.488.668-.508.149-.969.535-1.5.676-.512.137-1.14-.118-1.671.01-.516.124-1.144-.229-1.678-.116s-.914.881-1.451.98-1.194-.659-1.732-.573-1.03.254-1.569.326-1.049.141-1.59.2-1.056.077-1.6.121-1.029.567-1.571.6-1.071.01-1.615.026-1.072-.312-1.615-.311-1.057-.228-1.6-.24-1.108,1.048-1.65,1.022-1.046-.555-1.587-.6-1.064-.128-1.6-.182-1.119.327-1.657.261-.935-1.067-1.471-1.147-1.223.857-1.758.765-.86-1.227-1.392-1.332-1.056-.128-1.585-.246-1.19.391-1.717.26-1.041-.271-1.565-.414-.875-.831-1.4-.985-1.187.218-1.7.051-1.094-.127-1.606-.305-.961-.515-1.471-.7-1.137-.053-1.642-.252-.657-1.238-1.158-1.448S780,2842.494,779.5,2842.274Z" transform="translate(-779.493 -2832.355)" fill="#abb5bb"/>
    </g>
    <g id="Group_395" data-name="Group 395" transform="translate(119.354 2785.847)">
      <path id="Path_1093" data-name="Path 1093" d="M678.17,3081.2c-.062-.821.283-.327,1.172-.915.384-.253.9-.469,1.441-.795.428-.255,1.092-.175,1.618-.462.451-.245.506-1.324,1.028-1.584.467-.232,1.165-.059,1.688-.3.479-.219.828-.8,1.354-1.023.489-.205,1.171.009,1.7-.194.5-.191.887-.731,1.42-.917.505-.177,1.011-.421,1.548-.592.512-.162,1.141.006,1.681-.149.517-.148.914-.809,1.456-.949.522-.134,1.273.624,1.818.5.526-.12.968-.654,1.516-.763.53-.106,1.147.238,1.7.143.533-.092.946-.989,1.5-1.07.535-.078,1.135.228,1.687.161s1.042-.568,1.6-.621,1.106.01,1.66-.028,1.134.734,1.69.708,1.058-1.058,1.614-1.07,1.1.668,1.66.669,1.078.454,1.634.468,1.083-.061,1.638-.034,1.1-.207,1.653-.168,1.142-.538,1.695-.487,1.1.051,1.654.114.951,1.2,1.5,1.279,1.194-.656,1.742-.571,1.08.188,1.626.283.929.961,1.473,1.067,1.292-.853,1.834-.735,1,.586,1.535.714,1.109.088,1.646.226.9.859,1.439,1,1.062.246,1.594.4.931.676,1.461.841,1.378-.716,1.9-.542.8,1.07,1.319,1.252.583.168,1.1.358c.1.8-.156-.09-1.032.475-.38.245-.33,1.357-.864,1.674-.421.25-1.03.3-1.544.578-.442.242-1.189-.019-1.7.24-.457.233-.854.63-1.362.872-.468.222-.8.8-1.307,1.026-.477.212-1.093.145-1.606.355-.484.2-.788.909-1.3,1.105-.491.188-1.146-.015-1.666.167-.5.175-1.013.336-1.535.5-.5.162-.962.512-1.488.668-.508.149-.969.535-1.5.676-.512.136-1.14-.117-1.671.01-.516.124-1.144-.229-1.678-.116s-.915.88-1.451.98-1.194-.658-1.732-.573-1.03.254-1.57.326-1.049.141-1.59.2-1.055.077-1.6.12-1.029.567-1.571.6-1.071.009-1.615.025-1.072-.313-1.615-.311-1.057-.228-1.6-.24-1.107,1.048-1.65,1.022-1.046-.556-1.588-.6-1.064-.128-1.6-.181-1.119.326-1.658.26-.935-1.068-1.472-1.147-1.223.858-1.758.764-.861-1.227-1.393-1.332-1.056-.128-1.585-.246-1.19.391-1.717.26-1.041-.271-1.565-.414-.875-.831-1.4-.985-1.187.218-1.7.051-1.094-.128-1.607-.3-.961-.515-1.471-.7-1.137-.053-1.642-.252-.657-1.238-1.158-1.448S678.666,3081.422,678.17,3081.2Z" transform="translate(-678.163 -3071.283)" fill="#abb5bb"/>
    </g>
    <g id="Group_396" data-name="Group 396" transform="translate(-108.672 2733.936)">
      <path id="Path_1094" data-name="Path 1094" d="M-70.579,2910.44c-.062-.821.126-.264,1.014-.852.384-.254,1.085-.146,1.631-.471.428-.255.8-.672,1.328-.958.451-.245.779-.788,1.3-1.047.467-.233.777-.871,1.3-1.111.479-.219.918-.625,1.444-.846.489-.206,1.157-.047,1.687-.25.5-.191.96-.55,1.493-.736.505-.177,1.073-.24,1.609-.411.511-.162,1.149.045,1.689-.11.517-.149.88-.928,1.422-1.068.522-.134,1.288.694,1.834.57.526-.12.908-.945,1.456-1.055.53-.106,1.211.576,1.761.48.533-.092,1.033-.372,1.584-.453.535-.078.969-1,1.521-1.062s1.17.659,1.724.605,1.06-.373,1.615-.412,1.1.144,1.654.119,1.083-.186,1.639-.2,1.091-.309,1.647-.308,1.092.232,1.647.247,1.108-.312,1.663-.286,1.038.917,1.592.956,1.094-.095,1.647-.045,1.107-.132,1.659-.07,1.065.267,1.615.34,1.022.5,1.57.584,1.11-.074,1.656.022,1.176-.356,1.721-.25.975.686,1.517.8,1.029.379,1.569.507,1.283-.636,1.82-.5.925.8,1.46.943,1.121.06,1.653.216.983.535,1.513.7,1.237-.258,1.764-.084.783,1.11,1.307,1.292.823.208,1.344.4c.1.8-.13.393-1.005.958-.38.245-.649.858-1.183,1.175-.421.25-1.175.028-1.688.311-.442.242-.684.946-1.193,1.207-.457.232-.981.41-1.49.652-.467.223-1.117.108-1.628.334-.477.211-1.083.15-1.6.36-.484.2-.737,1.023-1.253,1.22-.491.188-1.095.12-1.614.3-.5.175-1.09.1-1.612.266-.5.162-.907.68-1.432.834-.508.149-1.222-.422-1.75-.281-.512.137-.887.819-1.419.946-.516.124-1.091.008-1.625.121s-.907.941-1.443,1.041-1.06.219-1.6.3-1.115-.172-1.655-.1-1.115-.322-1.656-.264-1.035.4-1.577.441-1.083-.177-1.626-.147-1.058.261-1.6.277-1.072-.3-1.615-.3-1.074.5-1.617.489-1.049-.573-1.592-.6-1.07.069-1.611.03-1.054-.172-1.594-.224-1.158.706-1.7.638-1.081-.095-1.618-.175-.948-.881-1.483-.975-1.1.052-1.63-.054-1.012-.393-1.541-.511-.965-.55-1.492-.68-1.122.079-1.646-.064-1.072-.148-1.592-.3-1.062-.2-1.579-.37-.993-.417-1.506-.6-.878-.722-1.387-.91-1.058-.224-1.563-.423-.852-.735-1.352-.945S-70.082,2910.661-70.579,2910.44Z" transform="translate(70.589 -2900.828)" fill="#abb5bb"/>
    </g>
    <g id="Group_397" data-name="Group 397" transform="translate(13.451 2722.98)">
      <path id="Path_1095" data-name="Path 1095" d="M330.426,2874.62c-.071-.819.294-.449,1.112-1.113.359-.292.627-.867,1.139-1.236.4-.293.969-.463,1.468-.788.432-.281,1.073-.288,1.575-.583.45-.265.692-.964,1.2-1.233.466-.248,1.1-.219,1.615-.465.479-.23,1.125-.117,1.644-.34.491-.21.906-.618,1.432-.819.5-.191,1.1-.112,1.631-.29.509-.171.955-.54,1.493-.7.516-.15.913-.8,1.456-.931.523-.13,1.14.084,1.687-.029.528-.109,1-.632,1.546-.723.532-.088,1.189.606,1.742.536.536-.068.989-1,1.544-1.046.538-.047,1.114.128,1.67.1.54-.027,1.1.274,1.659.266.541-.007,1.092-.219,1.648-.207.541.012,1.1-.054,1.655-.022.54.03,1.041.676,1.6.726.539.049,1.094-.057,1.646.011.537.068,1.054.273,1.6.36s1.066.171,1.613.275,1.023.377,1.566.5,1.187-.3,1.725-.168,1.076.21,1.61.362.892.814,1.423.98,1.109.1,1.634.277,1.12.108,1.641.3.813.916,1.329,1.121,1.054.284,1.565.5,1.044.157,1.55.386c.107.8-.4.311-1.207.951-.354.281-.89.453-1.39.814-.4.286-.72.751-1.2,1.073-.42.278-1.007.339-1.491.634-.437.267-.619,1.012-1.107,1.285-.451.252-.978.416-1.471.669-.463.238-.884.61-1.383.844-.474.222-.9.618-1.4.833-.483.206-1.224-.187-1.735.009-.491.188-.8.9-1.321,1.081-.5.17-.99.447-1.512.6-.506.151-1.111.022-1.638.158-.512.132-1.117-.1-1.648.019s-1.016.33-1.551.425-1.035.271-1.573.345-1.041.308-1.582.36-1.056.322-1.6.354-1.083,0-1.625.01-1.07-.52-1.612-.532-1.068.109-1.609.076-1.059-.116-1.6-.17-1.044-.214-1.582-.289-1.069-.044-1.6-.139-1.14.237-1.67.123-.835-1.1-1.361-1.234-1.251.543-1.772.392-.915-.667-1.43-.837-1.121-.037-1.631-.224-.773-.958-1.276-1.162-1.218.145-1.715-.074-.913-.582-1.4-.816-.971-.451-1.454-.7S330.9,2874.882,330.426,2874.62Z" transform="translate(-330.418 -2864.854)" fill="#abb5bb"/>
    </g>
    <g id="Group_398" data-name="Group 398" transform="translate(73.446 2660.854)">
      <path id="Path_1096" data-name="Path 1096" d="M527.426,2670.621c-.07-.82.295-.449,1.113-1.113.359-.292.627-.866,1.139-1.236.4-.292.969-.463,1.468-.788.432-.281,1.073-.287,1.575-.582.45-.265.692-.964,1.2-1.233.466-.248,1.1-.22,1.615-.466.479-.23,1.125-.117,1.644-.34.491-.211.906-.618,1.432-.819.5-.191,1.1-.111,1.631-.29.509-.171.955-.54,1.493-.7.516-.15.913-.8,1.456-.931.522-.129,1.14.084,1.687-.029.528-.109,1-.632,1.546-.724.532-.088,1.188.607,1.742.536.536-.068.989-1,1.544-1.046.538-.048,1.114.128,1.671.1.54-.028,1.1.274,1.659.267.541-.008,1.092-.219,1.648-.207.541.012,1.1-.054,1.655-.022.54.031,1.041.676,1.6.727.539.049,1.094-.057,1.646.011.537.068,1.054.273,1.6.36s1.067.171,1.613.276,1.023.377,1.566.5,1.187-.3,1.725-.168,1.076.21,1.61.362.892.814,1.422.98,1.109.1,1.634.277,1.12.108,1.641.3.813.916,1.329,1.121,1.054.284,1.565.5,1.044.157,1.55.386c.107.8-.4.311-1.207.95-.354.282-.89.453-1.39.814-.4.286-.72.751-1.2,1.073-.42.278-1.007.339-1.491.634-.437.267-.619,1.012-1.107,1.285-.451.253-.978.416-1.471.669-.463.239-.884.61-1.383.844-.474.222-.9.618-1.4.833-.483.206-1.224-.187-1.735.009-.491.188-.8.9-1.321,1.081-.5.17-.99.447-1.512.6-.505.152-1.111.022-1.637.158-.512.132-1.117-.1-1.648.019s-1.016.329-1.551.425-1.035.271-1.573.344-1.041.308-1.581.361-1.056.322-1.6.354-1.083,0-1.625.01-1.069-.52-1.612-.532-1.068.109-1.609.076-1.059-.115-1.6-.17-1.044-.214-1.582-.289-1.069-.045-1.6-.139-1.14.237-1.67.123-.835-1.1-1.361-1.233-1.251.543-1.772.391-.915-.667-1.431-.837-1.121-.037-1.631-.224-.773-.958-1.276-1.162-1.218.145-1.715-.074-.913-.582-1.4-.816-.971-.451-1.454-.7S527.9,2670.883,527.426,2670.621Z" transform="translate(-527.418 -2660.854)" fill="#abb5bb"/>
    </g>
    <g id="Group_399" data-name="Group 399" transform="translate(-0.29 2788.634)">
      <path id="Path_1097" data-name="Path 1097" d="M285.3,3090.095c-.071-.819,1.031-.221,1.849-.885.359-.291.7-.733,1.211-1.1.4-.292.683-.858,1.182-1.183.432-.281,1.063-.3,1.564-.6.451-.265.645-1.052,1.151-1.321.466-.248,1.22.013,1.732-.232.479-.229.946-.518,1.465-.741.491-.21.956-.52,1.482-.72.5-.19,1.162.052,1.694-.126.509-.171.792-1.1,1.331-1.256.517-.15,1.188.216,1.731.081.523-.13,1.035-.335,1.582-.448.528-.11,1.041-.355,1.591-.447.532-.089,1.1-.033,1.648-.1.536-.068,1.091.018,1.647-.031.538-.048,1.057-.489,1.613-.518.54-.027,1.1.148,1.654.14.541-.008,1.089,0,1.646.014.541.012,1.1-.21,1.658-.179.54.031,1.08.252,1.634.3s1.052.387,1.6.456,1.158-.395,1.708-.307.932.986,1.479,1.09,1.26-.714,1.8-.594,1.07.27,1.609.406.959.659,1.493.811.929.686,1.46.852,1.244-.3,1.77-.118.927.66,1.448.853,1.118.14,1.634.346.746,1.047,1.258,1.265,1.313,0,1.819.234c.108.8-.821.085-1.626.724-.354.281-.489.984-.988,1.344-.4.287-.768.7-1.252,1.026-.42.278-.982.4-1.465.7-.437.267-1.073.227-1.561.5-.451.253-.887.548-1.38.8-.463.238-.767.825-1.265,1.06-.473.222-1.155,0-1.66.21-.483.206-.992.331-1.5.527-.491.188-.684,1.228-1.2,1.4-.5.169-1.047.264-1.569.42-.506.151-1.135-.087-1.661.049s-1.012.346-1.543.461-.969.644-1.5.739-1.067.194-1.6.268-1.088.021-1.628.074-1.077.076-1.619.107-1.085-.328-1.627-.318-1.061-.2-1.6-.208-1.059,0-1.6-.032-1.114.51-1.654.456-.961-.94-1.5-1.014-1.073.039-1.607-.056-1.029-.242-1.559-.357-.994-.372-1.52-.506-1.066-.1-1.587-.249-1.05-.189-1.566-.358-1.185.148-1.694-.039-.8-.9-1.3-1.1-1.156-.005-1.653-.224-.974-.451-1.464-.685-.8-.786-1.287-1.034S285.776,3090.356,285.3,3090.095Z" transform="translate(-285.296 -3080.435)" fill="#abb5bb"/>
    </g>
  </g>
</svg>
