<svg xmlns="http://www.w3.org/2000/svg" width="600.384" height="192.967" viewBox="0 0 600.384 192.967">
  <g id="Group_442" data-name="Group 442" transform="translate(934.082 257.07)">
    <g id="Group_440" data-name="Group 440">
      <g id="Group_433" data-name="Group 433">
        <path id="Path_1136" data-name="Path 1136" d="M-848.161-161.459a7.427,7.427,0,0,0-4.527.554c-3.52,2.241-6.995,5.026-11.047,6.2s-8.58,0-12.953,0c-2.969,0-5.929,1-8.683.513a44.058,44.058,0,0,1-8.37-2.427c-2.582-1.011-4.463-3.259-6.725-4.735s-5.515-1.872-7.466-3.825c-1.989-1.987-3.253-4.791-4.81-7.21a45.706,45.706,0,0,1-4.407-7.4c-1.166-2.888-1.577-6.239-2.136-9.533-.514-3.031.451-6.289.451-9.662a52.282,52.282,0,0,1,.527-9,43.946,43.946,0,0,1,2.293-8.72,44.163,44.163,0,0,1,3.568-7.536,40.278,40.278,0,0,1,5.467-6.261c1.929-2.009,2.968-5.053,5.247-6.591,2.257-1.524,5.35-1.654,7.951-2.716a41.315,41.315,0,0,1,8.293-2.91c2.806-.5,5.741-.109,8.8-.109a43.341,43.341,0,0,1,12.705,1.516c4.053,1.229,8.271,2.01,11.791,4.143a6.735,6.735,0,0,0,4.084.9c1.493-.159,2.031-.878,2.991-2.158,1.28-1.706,1.762-2.834,1.442-4.754s-1.087-2.723-2.9-3.684a50.251,50.251,0,0,0-6.829-3.744c-2.374-1.038-4.6-2.417-7.181-3.129a59.087,59.087,0,0,0-8.04-1.159c-2.678-.356-5.307-2.174-8.064-2.174-2.616,0-5.13,1.44-7.619,1.735a57.447,57.447,0,0,0-7.5,1.4,53.634,53.634,0,0,0-7.1,2.724c-3.416,1.4-7.19,1.975-10.172,3.944-3.024,2-5.355,4.911-7.933,7.489s-6.007,4.625-8.022,7.691c-1.972,3-2.692,6.863-4.116,10.317-.985,2.39-2.311,4.716-2.959,7.249a60.622,60.622,0,0,0-.958,7.77,65.287,65.287,0,0,0-.906,7.772,77.278,77.278,0,0,0,.023,8.3c.315,2.8,2.183,5.272,2.832,7.863a52.23,52.23,0,0,0,2.725,7.651c1.469,3.492,2.1,7.324,4.127,10.3,2.09,3.069,5.214,5.266,7.9,7.785a55.6,55.6,0,0,0,8.324,6.792,56.857,56.857,0,0,0,9.514,5.109,57.99,57.99,0,0,0,10.734,3.012,62.33,62.33,0,0,0,11.1,1.03,55.87,55.87,0,0,0,11.093-.709c3.68-.746,6.7-3.459,10.116-4.741s7.375-.767,10.042-2.368c1.705-.96,2.3-3.261,2.674-5.129s.413-4.166-.972-5.874C-844.7-161.241-846.617-161.244-848.161-161.459Z" fill="#584b53"/>
      </g>
      <g id="Group_434" data-name="Group 434">
        <path id="Path_1137" data-name="Path 1137" d="M-768.41-221.715c-3.188-1.906-6.281-3.907-9.9-4.84a44.12,44.12,0,0,0-11.019-1.364,43.306,43.306,0,0,0-10.949,1.484,39.351,39.351,0,0,0-10.244,4.128c-3.165,1.878-6.41,3.758-8.913,6.336a43.546,43.546,0,0,0-6.432,8.888,42.186,42.186,0,0,0-3.389,7.064,45.8,45.8,0,0,0-1.459,7.684,52.177,52.177,0,0,0-.476,7.751c0,2.659.824,5.168,1.2,7.641.4,2.6.37,5.246,1.181,7.643.831,2.455,2.376,4.58,3.643,6.819a42.3,42.3,0,0,0,6.146,8.882,41.339,41.339,0,0,0,8.286,7.1c3.2,1.9,7.06,2.118,10.644,3.051,3.469.9,6.932,1.917,10.762,1.917,3.861,0,7.614.051,11.08-.843a39.418,39.418,0,0,0,10.412-4.118,41.286,41.286,0,0,0,8.455-6.87c2.446-2.548,3.522-6.151,5.324-9.384a39.731,39.731,0,0,0,3.232-6.846,43.184,43.184,0,0,0,2.066-7.345,50.8,50.8,0,0,0,.9-7.643c0-2.656.467-5.321.1-7.792-.389-2.6-2.153-4.836-2.952-7.233-.819-2.458-.635-5.378-1.885-7.622a43.473,43.473,0,0,0-6.546-8.8C-761.624-218.61-765.271-219.836-768.41-221.715Zm4.444,53.549c-1.24,2.321-3.269,4.066-4.952,5.9a28.159,28.159,0,0,1-5.843,4.843,25.79,25.79,0,0,1-6.953,3.2,28.729,28.729,0,0,1-7.615.849,27.2,27.2,0,0,1-7.393-1.508,25.45,25.45,0,0,1-6.889-2.876,27.181,27.181,0,0,1-5.64-4.922,28.626,28.626,0,0,1-4.647-5.917,30.191,30.191,0,0,1-2.94-7.732c-.584-2.611-1.51-5.327-1.51-8.262,0-2.965.928-5.694,1.5-8.305.626-2.835,1.084-5.651,2.39-8.067a29.85,29.85,0,0,1,4.743-6.008,28.48,28.48,0,0,1,6.118-4.425c2.206-1.372,4.043-3.584,6.494-4.264,2.406-.668,5.127-.441,7.77-.441a28.243,28.243,0,0,1,7.522,1.481,25.1,25.1,0,0,1,6.814,3.23,27.861,27.861,0,0,1,5.822,4.667c1.688,1.828,4.213,3.2,5.456,5.5a31.817,31.817,0,0,1,2.779,8.139,40.493,40.493,0,0,1,.566,8.5,37.768,37.768,0,0,1-1.224,8.313C-762.22-173.472-762.671-170.594-763.966-168.166Z" fill="#584b53"/>
      </g>
      <g id="Group_435" data-name="Group 435">
        <path id="Path_1138" data-name="Path 1138" d="M-671.456-222.8c-2.271-1.628-4.518-3.833-7.709-4.573a41.651,41.651,0,0,0-9.046-.6,30.94,30.94,0,0,0-10.987,2.33c-3.52,1.335-7.18,2.457-10.06,4.7a34.419,34.419,0,0,0-7.192,7.852c-.167.246.193.761.036,1.007-.081-3.529-.782-3.527-.782-7.057a5.3,5.3,0,0,0-1.625-4.212,4.967,4.967,0,0,0-4.11-1.779,5.2,5.2,0,0,0-4.171,1.66,5.716,5.716,0,0,0-2.059,4.331c0,4.349-.827,4.349-.827,8.7s.6,4.348.6,8.7-.466,4.349-.466,8.7.408,4.349.408,8.7.861,4.351.861,8.7-1.562,4.349-1.562,8.7,1.609,4.352,1.609,8.705-.963,4.353-.963,8.705a6.453,6.453,0,0,0,2.152,4.5c1.225,1.279,2.6,2.443,4.415,2.443s3.194-1.158,4.421-2.437a6.593,6.593,0,0,0,2.256-4.508c0-4.446.135-4.446.135-8.893s-.608-4.447-.608-8.895-.093-4.447-.093-8.893-.42-4.45-.42-8.9,1.454-4.45,1.454-8.9a17.782,17.782,0,0,1,3.3-10.577c2.24-3.3,4.588-6.318,8.323-8.293a25.622,25.622,0,0,1,12.272-2.747c4.8,0,8.811.435,11.691,2.408a16.716,16.716,0,0,1,6.194,8.093,32.057,32.057,0,0,1,1.691,11.116c0,4.446-.63,4.446-.63,8.892s.207,4.448.207,8.9-.463,4.446-.463,8.893.166,4.449.166,8.9,1.323,4.45,1.323,8.9c0,1.816-.184,3.461.991,4.741a6.545,6.545,0,0,0,4.75,2.286,7.274,7.274,0,0,0,5.1-1.867,7.616,7.616,0,0,0,1.675-5.16c0-4.478.349-4.478.349-8.956s-1.357-4.48-1.357-8.96-.1-4.478-.1-8.957,1.265-4.481,1.265-8.963.019-4.481.019-8.963a58.1,58.1,0,0,0-.939-8.627c-.44-2.962-1.955-5.5-2.872-8.115-.871-2.482-1.039-5.21-2.5-7.2C-666.821-220.3-669.356-221.287-671.456-222.8Z" fill="#584b53"/>
      </g>
      <g id="Group_436" data-name="Group 436">
        <path id="Path_1139" data-name="Path 1139" d="M-601.49-225.714c-3.64,0-3.64,1.047-7.281,1.047s-5.253,2.541-7.771-.087c-2.628-2.744.167-4.27.167-8.07s1.181-3.8,1.181-7.6c0-1.812-1.83-3.006-3-4.286a5.134,5.134,0,0,0-4.093-2.026,6.219,6.219,0,0,0-4.71,1.6c-1.281,1.28-2.615,2.9-2.615,4.71,0,3.8,1.19,3.8,1.19,7.6s2.9,5.7-.155,7.964c-4.112,3.051-5.391.322-10.511.322-1.6,0-3.081-.2-4.306.92a5.66,5.66,0,0,0-1.849,4.313,5.491,5.491,0,0,0,2.068,4c1.224,1.176,2.488,2.514,4.087,2.514,5.12,0,6.8-4.475,10.752-1.216,3.259,2.688.184,4.845.184,9.069s-.648,4.226-.648,8.452-.555,4.227-.555,8.454-.363,4.226-.363,8.451,1.473,4.229,1.473,8.458-.691,4.228-.691,8.457c0,4.907.605,8.827,2.045,11.547s3.906,3.692,6.042,4.864,3.739,3.5,5.927,3.712,4.1-.916,5.595-.916c2.772,0,5.644.42,7.884-.915s2.663-3.572,2.663-5.492c0-1.6.066-3.074-.84-4.088a4.575,4.575,0,0,0-3.148-1.7,7.118,7.118,0,0,0-2.917.657c-.8.375-1.618,1.847-2.682,1.847-1.176,0-2.136-1.886-3.361-2.366s-2.85-.518-3.595-1.8-.888-3.43-.888-5.991c0-4.171-.771-4.171-.771-8.342s1.886-4.172,1.886-8.345-.155-4.173-.155-8.347-1.8-4.172-1.8-8.345.04-4.175.04-8.35-1.9-5.309.841-8.456c2.393-2.744,3.761.941,7.4.941s3.641-.154,7.281-.154a6.659,6.659,0,0,0,4.429-2.173,6.458,6.458,0,0,0,2.121-4.269c0-1.705-1.244-3.093-2.363-4.269A6.057,6.057,0,0,0-601.49-225.714Z" fill="#584b53"/>
      </g>
      <g id="Group_437" data-name="Group 437">
        <path id="Path_1140" data-name="Path 1140" d="M-510.452-226c-1.92,0-3.269.305-4.442,1.529a5.846,5.846,0,0,0-1.7,4.37c0,3.2,1.16,3.5.164,6.534-1.424-2.047-3.042-4.722-5.09-6.509a35.276,35.276,0,0,0-10.673-5.948,36.946,36.946,0,0,0-12.982-2.3,37.249,37.249,0,0,0-10.13,1.46,35.861,35.861,0,0,0-9.514,3.908c-2.927,1.87-5.306,4.61-7.613,7.2a42.09,42.09,0,0,0-6.046,8.478c-1.173,2.253-1.609,4.88-2.372,7.374a47.653,47.653,0,0,0-1.26,7.55,55.2,55.2,0,0,0-.88,7.616,56.162,56.162,0,0,0,.43,7.649c.358,2.6.256,5.29.993,7.684.761,2.475,2.409,4.618,3.574,6.875a41.761,41.761,0,0,0,6.116,8.345c2.306,2.625,4.279,5.656,7.205,7.578s6.361,2.922,9.705,3.868a37.624,37.624,0,0,0,10.272,1.7c4.264,0,8.149-1.462,11.936-3.008a33.973,33.973,0,0,0,9.555-6.063c2.434-2.106,4.4-3.705,5.934-6.059,1.108,3.2,1.174,3.246,1.174,6.634,0,1.816-.239,3.419.936,4.7s2.785,1.533,4.7,1.533a5.593,5.593,0,0,0,4.411-1.735c1.226-1.28,1.221-2.682,1.221-4.5,0-4.408.492-4.408.492-8.816s.56-4.409.56-8.817-.128-4.408-.128-8.816-.318-4.41-.318-8.819-.139-4.411-.139-8.822.429-4.41.429-8.819-.738-4.413-.738-8.825.471-4.413.471-8.825c0-1.813-1-2.8-2.177-4.028A4.986,4.986,0,0,0-510.452-226Zm-18.52,69.033a24.452,24.452,0,0,1-6.963,3.011,27.253,27.253,0,0,1-7.477,1,26.894,26.894,0,0,1-7.447-.841c-2.371-.693-4.015-2.849-6.1-4.256a26.225,26.225,0,0,1-5.649-4.656,29.457,29.457,0,0,1-4-6.188,31.885,31.885,0,0,1-2.732-7.686,39.424,39.424,0,0,1-.45-8.154c0-2.887-.281-5.567.267-8.154a31.454,31.454,0,0,1,2.855-7.633c1.153-2.308,2.007-4.666,3.587-6.5a27.775,27.775,0,0,1,5.4-5.244,24.635,24.635,0,0,1,6.931-2.787,26.641,26.641,0,0,1,7.339-.914c2.614,0,4.9.986,7.221,1.653,2.413.693,4.885,1.063,6.979,2.476a28.031,28.031,0,0,1,5.856,4.719c1.572,1.847,2.086,4.463,3.218,6.777,1.181,2.418,2.533,4.756,3.106,7.483a39.867,39.867,0,0,1,.484,8.12c0,2.89.44,5.714-.1,8.317a34.826,34.826,0,0,1-2.418,8.048c-1.129,2.334-3.4,3.863-4.967,5.72C-525.649-160.74-526.886-158.378-528.972-156.97Z" fill="#584b53"/>
      </g>
      <g id="Group_438" data-name="Group 438">
        <path id="Path_1141" data-name="Path 1141" d="M-420.693-161.872a6.781,6.781,0,0,0-4.628,1.725c-1.016,1.069-1.611,3.228-3.531,4.293a27.693,27.693,0,0,1-5.8,2.106c-2.24.64-5.3.479-8.925.479a30.436,30.436,0,0,1-7.868-1.081,25.632,25.632,0,0,1-7.27-3.131c-2.2-1.394-4.7-2.5-6.409-4.381-1.694-1.858-2.51-4.474-3.729-6.808a31.12,31.12,0,0,1-3.028-7.674c-.575-2.593-1.656-5.346-1.656-8.24s1.426-5.577,2.016-8.173c.626-2.756.675-5.739,1.966-8.157,1.25-2.341,3.614-3.878,5.355-5.741a28.771,28.771,0,0,1,5.759-5.1c2.293-1.419,4.957-1.669,7.584-2.362,2.508-.662,4.948-1.933,7.76-1.933a38.576,38.576,0,0,1,7.408.586c2.452.48,3.975,1.852,5.256,2.492a12.021,12.021,0,0,1,2.995,2.332c.8.8,2.408.644,3.315,1.229a5.92,5.92,0,0,0,3.426.815c1.7,0,2.962-.341,3.87-1.621a7.278,7.278,0,0,0,1.613-4.124,9.213,9.213,0,0,0-3.793-7.2c-2.56-2.026-6.347-3.051-10.72-4.226a50.185,50.185,0,0,0-7.286-1.1c-2.353-.267-4.768-1.62-7.364-1.62s-5.061,1.242-7.466,1.63c-2.548.41-5.2.261-7.514,1.107-2.381.869-4.11,3-6.248,4.328-3.1,1.926-6.636,3.218-9.055,5.815-2.4,2.581-3.331,6.259-5.058,9.5-1.188,2.231-3.331,4.028-4.112,6.447a46.539,46.539,0,0,0-1.438,7.5,52.217,52.217,0,0,0-.7,7.583,53.136,53.136,0,0,0,.942,7.556,47.619,47.619,0,0,0,1.426,7.456c.757,2.432,2.191,4.552,3.344,6.8,1.667,3.255,3.025,6.611,5.362,9.183a38.877,38.877,0,0,0,8.4,6.57c3.14,1.955,6.769,2.615,10.449,3.56,3.447.886,6.94,2.89,10.861,2.89a60,60,0,0,0,7.89-.678c2.713-.359,4.981-2.153,7.357-2.908,4.533-1.44,8.163-2.819,10.831-4.954s5.019-4.01,5.019-6.038c0-1.705-1.162-3.287-2.122-4.463A5.974,5.974,0,0,0-420.693-161.872Z" fill="#584b53"/>
      </g>
      <g id="Group_439" data-name="Group 439">
        <path id="Path_1142" data-name="Path 1142" d="M-363.734-213.13a5.907,5.907,0,0,0,4.187-1.987c1.119-1.12,2.278-2.428,2.278-4.028a6.682,6.682,0,0,0-2.14-4.4c-1.12-1.172-2.62-1.126-4.325-1.126-3.641,0-3.641-.269-7.281-.269s-4.478,2.073-7-.556c-2.629-2.743.738-3.527.738-7.327s-1.874-3.8-1.874-7.6c0-1.812.188-3.29-.985-4.57a5.547,5.547,0,0,0-4.4-1.789c-1.816,0-2.683,1.117-3.964,2.4s-3.41,2.151-3.41,3.963c0,3.8,1.71,3.8,1.71,7.6s1.591,4.575-1.46,6.84c-4.112,3.051-4.557,1.161-9.677,1.161a5.669,5.669,0,0,0-4.182,1.341c-1.227,1.121-2.457,2.472-2.457,4.177a6.349,6.349,0,0,0,2.279,4.287,6.62,6.62,0,0,0,4.36,2.108c5.12,0,6.657-4.177,10.606-.918,3.259,2.688-.668,4.668-.668,8.892s-.231,4.226-.231,8.452.862,4.227.862,8.454-.292,4.226-.292,8.451-.312,4.229-.312,8.458,1.271,4.228,1.271,8.457c0,4.907.424,8.349,1.865,11.069s2.608,4.886,4.744,6.058a16.05,16.05,0,0,0,6.43,1.872c2.186.215,3.991.51,5.486.51a13.587,13.587,0,0,0,7.183-2.394c2.241-1.332,3.311-2.4,3.311-4.315a5.329,5.329,0,0,0-1.06-3.844c-.908-1.012-1.809-1.9-2.875-1.9s-1.808.9-2.608,1.273-1.927-.871-2.991-.871c-1.176,0-2.368.764-3.594.284s-1.841-1.564-2.586-2.845-.819-2.977-.819-5.538c0-4.171.047-4.171.047-8.342s-.013-4.172-.013-8.345-1.157-4.173-1.157-8.347.183-4.172.183-8.345.427-4.175.427-8.35-2.929-5.217-.185-8.365c2.392-2.743,3.658-.113,7.3-.029S-367.375-213.13-363.734-213.13Z" fill="#584b53"/>
      </g>
    </g>
    <path id="Path_1143" data-name="Path 1143" d="M-337.6-67.438c-2.27,2.53-1.8.135-5.2.135s-3.4,1.41-6.8,1.41S-353-64.1-356.4-64.1s-3.4-1.063-6.8-1.063-3.4-.088-6.8-.088-3.4-1.985-6.8-1.985-3.4.942-6.8.942-3.4,1.75-6.794,1.75-3.4-2.175-6.8-2.175-3.4-.026-6.8-.026-3.4-.887-6.8-.887-3.4,3.512-6.8,3.512-3.4-1.141-6.8-1.141-3.4-.333-6.8-.333-3.4-2.435-6.8-2.435-3.4.759-6.8.759-3.4,2.985-6.8,2.985-3.4-1.594-6.8-1.594-3.4-1.153-6.8-1.153-3.4-.828-6.8-.828-3.4.043-6.8.043-3.4.312-6.8.312-3.4,2.583-6.8,2.583-3.4-1.852-6.8-1.852-3.4,2.105-6.8,2.105-3.4-.682-6.8-.682-3.4-1.314-6.8-1.314-3.4.312-6.8.312-3.4,1.565-6.8,1.565-3.4-3.222-6.8-3.222-3.4,2.647-6.8,2.647-3.4-2.205-6.8-2.205-3.4-.435-6.806-.435-3.4,1.473-6.81,1.473-5.156,3.626-7.433,1.094c-2.531-2.815-1.527-4.346-1.527-8.132s2.967-3.785,2.967-7.57-1.936-3.787-1.936-7.575-.019-3.507,2.511-6.325c2.27-2.53,2.007-1.353,5.407-1.353s3.4,2.258,6.8,2.258,3.4-.894,6.8-.894,3.4-3.015,6.8-3.015,3.4,1.508,6.8,1.508,3.4-1.367,6.8-1.367,3.4,2.97,6.795,2.97,3.4-3.69,6.794-3.69,3.4,1.209,6.8,1.209,3.4,2.169,6.8,2.169,3.4.872,6.8.872,3.4-2.838,6.8-2.838,3.4-.136,6.8-.136,3.4,1.926,6.8,1.926,3.4-.618,6.8-.618,3.4-1.384,6.8-1.384,3.4.409,6.8.409,3.4,1.721,6.8,1.721,3.4.4,6.8.4,3.4-1.019,6.8-1.019,3.4-.846,6.8-.846,3.4,1.629,6.8,1.629,3.4-1.858,6.8-1.858,3.4,2.476,6.8,2.476,3.4-2.59,6.8-2.59,3.4-.372,6.8-.372,3.4,3.189,6.8,3.189,3.4-3.675,6.8-3.675,3.4,3.664,6.8,3.664,3.4-2.734,6.8-2.734,3.4-.895,6.8-.895,3.4,1.246,6.8,1.246,3.4-1.724,6.806-1.724,3.4,2.859,6.81,2.859,4.936-3.644,7.213-1.112c2.532,2.815,1.8,4.149,1.8,7.935s-4.148,3.784-4.148,7.569,2.587,3.719,2.908,7.493C-334.756-70.37-335.072-70.256-337.6-67.438Z" fill="#e3ba96"/>
    <g id="Group_441" data-name="Group 441">
      <path id="Path_1144" data-name="Path 1144" d="M-540.968-113.014c-.095,1.489.721,2.977.721,4.514,0,2.977-.769,5.955-.769,8.979,0,1.825.385,3.6.385,5.427,0,1.489-.385,2.977-.385,4.466a27.2,27.2,0,0,0,.769,3.841,33.342,33.342,0,0,1,.48,5.33,13.063,13.063,0,0,1-.48,2.737c-.145.529-.288,1.681-.769,1.97-.768.479-3.216.576-4.177.576-.432,0-1.1-.1-1.2-.625a33.109,33.109,0,0,1-.1-5.762.953.953,0,0,0-.288-.576,15.212,15.212,0,0,0-3.938-.432c-1.921,0-3.313,1.2-4.418,1.2-.816,0-2.5-4.946-2.5-5.762,0-1.345,2.737-.673,3.026-2.4.335-2.017.479-10.709.479-13.686a55.44,55.44,0,0,0-.528-8.931c-.048-.288-.144-.865-.528-.865-.048,0-.913.336-1.1.385-.576-.193-.721-4.61-.721-5.283,0-1.056.145-1.729,1.3-1.729,2.929,0,5.858,1.3,8.835,1.3a19.6,19.6,0,0,0,5.282-.576c.481-.144,2.161-.816,2.449-.816,1.248,0,1.009,3.025,1.009,3.937,0,.528.192,2.5-.577,2.5-.624,0-1.2-.24-1.824-.24a.718.718,0,0,0-.433.192Zm-5.042,13.061a7.664,7.664,0,0,0-.336-2.785,3.736,3.736,0,0,0-1.921-.384c-.624,0-.767.24-.767.816,0,1.873.191,3.218,2.4,3.218a1.639,1.639,0,0,0,.481-.048C-546.01-99.28-546.01-99.76-546.01-99.953Zm-.384,10.373a2.41,2.41,0,0,0,.1-.577c0-2.113.24-3.313-2.112-3.889l-.336.1a2.152,2.152,0,0,0-.145.768A22.09,22.09,0,0,0-548.6-89.1l.384.192c.481-.048.961-.24,1.442-.336Zm-.335-19.16a8.037,8.037,0,0,0,.719-3.169v-.24a2.038,2.038,0,0,0-1.3-.241,2.664,2.664,0,0,0-1.344.337,1.28,1.28,0,0,0-.145.576v1.488a3.606,3.606,0,0,0,.192,1.249l.289.24h1.249Zm31.548-10.564c.048.768-2.353,3.361-2.833,4.466a7.6,7.6,0,0,0-.48,2.353c.143-.913.431-1.681,1.2-1.681.816,0,5.427.72,5.427,1.632,0,.865-4.851,6.867-5.427,8.5.961-.336,2.69-1.777,3.458-1.777.527,0,.815,1.2.912,1.633.24.864,2.065,6.05,2.065,6.146a.521.521,0,0,1-.336.48c-1.009.577-9.124.337-9.316.337-1.489,0-2.977.24-4.466.24a.682.682,0,0,1-.288-.1c-.048-.241-.048-.529-.288-.673-1.153.048-2.258.529-3.41.481-1.3-.1-2.688-.1-3.985-.1-1.921,0-3.793.48-5.666.48-1.585,0-1.729-2.209-1.729-3.506,0-1.777,2.689-.624,3.745-1.344a4.732,4.732,0,0,0,1.009-1.537,3.786,3.786,0,0,0,.576-1.441c0-1.488-4.513-3.841-4.513-5.233,0-.673,2.352-4.371,2.976-4.322h.1a9.734,9.734,0,0,0,.864.624c1.056,0,1.729-6.674,3.314-6.674.767,0,3.409.815,3.409,1.728,0,.192-1.393,3.5-2.306,5.618.433-.912.961-1.872,1.393-1.872.576,0,2.882,1.488,3.841,1.728.817-.24,1.153-1.2,1.778-1.777a3.5,3.5,0,0,1,.815,1.345l.337-.1c1.393-2.4.624-6.195,4.226-6.195.768,0,3.025,0,3.6.433Zm-10.852,25.642c0,2.209-.817,4.37-.817,6.579,0,1.2.384,2.353.384,3.5,0,1.489-6,9.076-7.394,9.076-.769,0-3.986-3.506-3.986-4.322,0-.528,2.017-2.257,2.449-2.833-.817-.432-2.161-.192-2.689-.72a5.668,5.668,0,0,1-.192-2.017c0-3.217-1.248-4.562-1.248-7.2,0-3.17-.673-4.418,2.928-4.418.624,0,1.969-.1,2.4.432.576.721.143,4.562.143,5.619,0,.432-.048,1.248.385,1.536a3.778,3.778,0,0,0,1.44-.384,17.966,17.966,0,0,0,0-3.217c0-1.393-.288-4.994,1.584-4.994C-526.945-97.023-526.033-97.456-526.033-93.662Zm-7.972,9.556a5.13,5.13,0,0,0-.432,1.681,7.725,7.725,0,0,0,1.584-1.489.908.908,0,0,0-.479-.24Zm10.181-17.671a13.829,13.829,0,0,0,1.44-3.554c0-.912-2.545-4.946-3.313-4.946-2.017,0-5.523,6.435-6.387,8.02a5.038,5.038,0,0,1,4.851-3.026c1.343,0,1.343,2.785,2.3,3.554a2.184,2.184,0,0,0,.769.144Zm-8.115-9.412c.047-.1.1-.24.191-.432Zm11.86,28.332c-.1.96.385,2.016.385,3.073,0,1.1-.288,4.658-1.681,4.658-.528,0-2.834-.433-3.122-.913-.528-.912-1.008-4.946-1.056-5.426-.288-3.025-.385-6.2-.385-9.268a21.3,21.3,0,0,1,.289-2.449c.336-2.833.961-2.593,3.458-3.265a8.937,8.937,0,0,1,2.256-.432,1.4,1.4,0,0,1,.432.1,1.01,1.01,0,0,1,.24.72c0,2.353-.576,4.85-.624,7.251.817,0,1.729-6.1,2.785-6.915a2.155,2.155,0,0,1,1.441-.336c.96,0,3.169-.144,3.169,1.152s-.432,2.69-.336,3.986a27.931,27.931,0,0,1,.1,2.833c0,.913-.528,4.706-1.1,5.282-.337.336-1.249.289-1.729.289h-1.729l-.672-.048-.24-.241c0-.24.048-.48.048-.72a.817.817,0,0,0-.048-.336,4.517,4.517,0,0,0-1.585.384l-.288.288Zm1.392-27.564v0Z" fill="#584b53"/>
      <path id="Path_1145" data-name="Path 1145" d="M-500.384-112.87a31.322,31.322,0,0,0,1.872-3.841,23.8,23.8,0,0,1,1.009-2.977.943.943,0,0,1,.816-.433c.913,0,4.8,1.153,4.8,2.161,0,.432-3.361,8.5-3.745,9.652,1.824-1.969,1.872-4.129,3.073-6.242a.841.841,0,0,1,.72-.481c.864,0,5.282,1.873,5.282,2.738,0,1.536-4.561,6.434-5.425,8.019,1.007-.048,2.016-.721,3.024-.721,1.1,0,2.642,6.147,4.082,6.147,1.249,0,6.387-2.785,6.867-3.89a6.286,6.286,0,0,0-2.689-2.785c-1.248.24-2.593,2.449-3.506,2.449s-3.938-3.457-3.938-4.369c0-1.249,5.235-4.9,6.291-6.483,1.345-1.969,2.017-4.9,3.314-6.627a1.188,1.188,0,0,1,1.008-.528c.864,0,5.81,1.248,5.81,2.113,0,.72-.576,1.44-.576,2.161,0,.48.816.432,1.105.432a29.362,29.362,0,0,0,5.042-.384c.288-.048,1.152-.288,1.344-.288.672,0,4.562,1.968,4.37,2.689-.768,3.025-6.434,10.8-6.434,11.188,0,.528,1.2,1.3,1.584,1.633,2.209,1.872,4.034,1.969,6.434,3.169.241.1.624.336.624.624,0,.913-3.361,3.026-3.361,4.514,0,1.2.192,2.449.192,3.65,0,3.073-.576,6.194-.576,9.267,0,1.537.576,2.978.576,4.418,0,.769-1.248.721-1.776.721-.913,0-4.514-.1-5.186-.529a2.931,2.931,0,0,0-.336-.672l-.288-.24a16.385,16.385,0,0,0-4.034-.576,17.921,17.921,0,0,0-3.938.24c-.384.336-.432,1.2-.576,1.728-.336.432-.817.337-1.3.337-5.187,0-4.563-.193-4.563-4.37,0-2.833-.431-5.666-.431-8.5,0-1.441.143-2.882.192-4.322l-.145.192c-1.632-2.5-2.833-2.738-5.81-2.738a2.85,2.85,0,0,0-1.776.385c0,.624,0,2.545.48,2.929h.239c1.1.048,2.209-.912,3.314-.912.1,0,.192.1.288.1a54.23,54.23,0,0,1,2.449,7.971l-.1.432a13.115,13.115,0,0,1-3.889,1.2c-1.489,0-2.257-4.851-2.642-5.907a38.884,38.884,0,0,0-.336,6.242c0,1.921.193,3.842.193,5.811s-.529,1.681-2.257,1.681c-.961,0-3.65.192-3.65-1.249,0-1.2.192-2.4.192-3.6,0-1.777-.528-3.554-.528-5.331,0-1.008.336-2.064.288-3.073v-.144a85.106,85.106,0,0,0-2.065,8.356c-.1.432-.288.624-.72.624-.961,0-4.8-1.345-4.8-2.4,0-1.3.768-2.929,1.008-4.226.336-1.777.336-3.649.721-5.426.144-.576.336-1.152,1.008-1.152,1.345,0,2.641.672,3.937.672.913,0,1.105-1.2,1.105-1.921,0-.336-.432-.336-.624-.336-1.681,0-3.314.432-4.946.432-1.729,0-1.873-3.937-1.873-5.234,0-1.585,2.305-.817,3.362-1.152.576-.192,1.3-1.3,1.632-1.777l.1-.48c-.528-2.113-4.706-5.762-4.706-6.483,0-.624,2.545-4.61,2.978-4.61l.576.433Zm8.307,12.149a2.677,2.677,0,0,0-.817-1.777,5.53,5.53,0,0,0-1.872,1.921,4.631,4.631,0,0,0,1.153.1,5.618,5.618,0,0,0,1.536-.193Zm22.426,6.291c1.248.1,2.545.24,3.793.24a65.165,65.165,0,0,0-6.627-3.6c-.1,0-6.243,3.554-6.435,3.746a23.417,23.417,0,0,0,3.17.192C-473.733-93.854-471.669-94.526-469.651-94.43Zm1.343,7.395c0-1.585-3.84-1.008-4.513-1.008-.912,0-1.777-.1-2.689-.1-.865,0-1.825-.048-1.825,1.057,0,1.392-.432,3.985,1.488,3.985,1.1,0,6.723-.048,7.3-.576a1.009,1.009,0,0,0,.239-.72Zm-8.258-22.858c.576.577,3.169,3.026,3.793,3.026.672,0,2.785-3.217,2.785-3.89,0-.384-.672-.432-.96-.432a32.161,32.161,0,0,0-5.427.48,1.744,1.744,0,0,0-.336.48Z" fill="#584b53"/>
      <path id="Path_1146" data-name="Path 1146" d="M-415.479-112.534a9.933,9.933,0,0,0-2.4-.239,7.955,7.955,0,0,0-1.057.047c1.057,4.8,8.116,4.562,11.717,5.427.432.1,1.009.288,1.009.816,0,.768-2.689,4.946-3.506,4.946-.624,0-1.2-.336-1.825-.336a1.025,1.025,0,0,0-.336.144,14.012,14.012,0,0,0-.144,3.5c0,2.161.241,4.37.241,6.531,0,1.968-.145,3.985-.288,5.954-.193,3.121-2.066,2.017-4.851,2.017a10.033,10.033,0,0,0-1.2.048c1.152.817,6.242,2.977,7.827,3.841a11.586,11.586,0,0,1,3.073,1.969,17.165,17.165,0,0,1-7.01,2.4c-2.593,0-5.859-2.45-8.116-3.6a19.243,19.243,0,0,1-4.274-2.305c1.153-.817,2.641-1.056,3.842-1.729-1.633-.912-5.474-.528-7.251-.528-1.056,0-2.065-.192-3.121-.192a7.089,7.089,0,0,0-1.008.048c.576.576,2.736,1.873,2.928,2.449-.671,1.488-11.957,5.715-12.148,5.762l-1.345.433a2.658,2.658,0,0,1-.864.1c-.913,0-4.61-4.13-4.9-5.042,2.929-2.017,7.922-1.249,11.38-3.074-3.361-.528-5.234.913-5.666-2.641a22.277,22.277,0,0,1-.336-3.073c0-3.217.336-6.387.336-9.6,0-1.152-.192-2.257-.192-3.409,0-1.441,4.321-1.393,5.426-1.393,1.44,0,2.833.192,4.274.192a1.564,1.564,0,0,0,.624-.192v-.144c.048-.624-1.585-2.593-2.065-3.121-.192,0-.239.432-.239.576-1.249.913-11.093,3.457-11.238,3.457-.96,0-2.833-4.033-2.833-4.945.288-.721.624-.865,1.393-1.057.385-.1,11.861-2.5,11.861-2.5,1.729,0-.192,3.793,1.584,3.793,3.121,0,9.268-2.3,9.893-5.81a3.116,3.116,0,0,0-.961-.1c-2.929,0-3.745,3.121-5.474,3.121-.673,0-4.082-1.584-4.082-2.257,0-.432,1.249-1.488,1.585-1.824a36.959,36.959,0,0,0,4.61-6,1.053,1.053,0,0,1,.864-.528c.816,0,3.121,2.305,4.177,2.737a20.825,20.825,0,0,0,4.659.385c1.3,0,2.592-.241,3.889-.241h4.514c1.057,0,4.418.673,5.138,1.393v.192c.1,1.153-3.7,6.146-4.8,6.146a17.6,17.6,0,0,1-3.89-.864l-.048-.336c.193-.432.624-.769.624-1.3Zm-32.364-2.257c-.432-.144-.673-.288-.673-.768,0-.96,1.826-3.985,2.881-3.985,1.105,0,8.644,2.16,8.644,3.169,0,.816-1.969,3.89-2.929,3.89C-440.593-112.485-446.739-114.406-447.843-114.791Zm9.747,21.9h.721c1.345,0,2.641-.192,3.985-.192,1.633,0,3.266.577,4.851.577s3.217.144,4.8.144c.672,0,4.466-.288,4.754-.673l.047-.432V-93.9c-.768-.528-4.082-.528-5.137-.528-1.49,0-3.026.432-4.563.432-1.68,0-3.361-.432-4.994-.432a22.154,22.154,0,0,0-4.081.432c-.385.144-.48.576-.576.912ZM-434.35-89c-.768,0-3.313-.1-3.794.528a7.311,7.311,0,0,0-.1,1.009c0,.336.816.336,1.009.336,3.168,0,6.337-.721,9.507-.721h4.178c1.3,0,2.593.241,3.889.144h.385l.24-.144.048-.336v-.288c-.433-.288-11.045-.528-13.4-.528Zm-3.505-8.884.672.048h4.61c1.392,0,2.833-.144,4.225-.144,2.833,0,6.195.432,8.98.048l.24-.192v-.384l-.048-.288-.288-.192-.72-.048c-1.3-.1-2.593.192-3.889.192h-3.65c-2.257,0-4.418-.624-6.674-.624-.529,0-3.362.144-3.6.576a4.2,4.2,0,0,0-.1.768Zm20.936-5.33c-.96-.864-2.209-1.344-3.169-2.161-.624-.528-1.1-1.3-1.728-1.825a.554.554,0,0,0-.385-.144c-.528,0-2.209,1.585-2.641,2.017-1.152,1.105-3.025,1.057-4.418,1.681,2.593.48,9.22.48,11.284.48A7.784,7.784,0,0,0-416.919-103.218Z" fill="#584b53"/>
      <path id="Path_1147" data-name="Path 1147" d="M-380.369-110.229c0,3.025-1.009,2.642-3.985,2.93-2.018.192-4.178.288-6.2.288a44.949,44.949,0,0,1-5.715-.481c-1.008-.144-2.352,0-2.352-1.392,0-2.5-.576-4.322,2.4-4.322h2.354c1.536,0,3.073.577,4.561.577,2.69,0,5.378-.144,8.068-.144a.957.957,0,0,1,.864,1.008ZM-390.741-77.1c-.1.432-.1.816-.193,1.248a.794.794,0,0,1-.624.241,18.1,18.1,0,0,1-2.256-.289c-3.747-.624-3.074-2.017-3.074-5.57,0-2.161.72-4.274.72-6.483,0-1.056-.191-2.16-.191-3.265,0-1.345,3.649-1.152,4.657-1.152,2.882,0,5.715.1,8.6.1a2.064,2.064,0,0,1,1.3.289c.817.72.384,7.923.384,8.5a13.041,13.041,0,0,0,.048,1.393c2.257-2.449,5.33-10.372,5.33-13.734,0-1.248-2.5-.72-3.361-.72-1.248,0-1.056-3.746-1.056-4.562,0-4.226,4.754-.816,4.754-3.073,0-2.017-.337-3.986-.337-6.051,0-.432.145-1.536-.239-1.92-1.009-1.1-3.89,0-3.89-2.065a16.16,16.16,0,0,1,.144-2.113c.528-4.226,1.056-3.026,4.946-3.026,1.441,0,2.881-.191,4.321-.191,1.681,0,3.314.48,5.042.48,1.249,0,2.5-.192,3.746-.192a11.536,11.536,0,0,1,2.881.336c1.153.336,1.249,4.609,1.249,5.714,0,1.921-.432,3.842-.432,5.763,0,1.872.384,3.745.384,5.618,0,1.969-.384,3.985-.384,5.954a37.4,37.4,0,0,0,.288,6.146c.384,2.353,1.1,4.515,1.1,6.915.433-1.2.241-4.994.96-5.714.961.432,3.6,4.61,3.6,5.714,0,2.113-1.921,7.443-4.562,7.443a12.729,12.729,0,0,1-2.4-.239c-2.112-.721-4.369-5.859-4.609-7.972-.193-1.873.047-3.794-.193-5.714-.384-3.122-1.2-6.819-1.2-9.94v-6.387c0-1.632.288-3.265.288-4.9,0-2.256-.912-1.92-2.977-1.92-1.249,0-1.345,3.649-1.345,4.609,0,.817-.336,4.706.865,4.658.672-.048,1.393-.144,2.064-.144.913,0,.721,2.5.721,3.073a8.624,8.624,0,0,1-.24,2.785c-.816,1.105-3.458-.336-3.794,1.537-.336,1.969-.432,4.082-.672,6.1a22.494,22.494,0,0,1-5.858,12.677c-.433.432-1.393,1.584-2.017,1.584-.528,0-2.594-2.593-3.122-3.121h-.24c-.1.528-.1.672-.528,1.009a33.477,33.477,0,0,1-3.793-.049,20.218,20.218,0,0,0-4.514.288Zm-5.523-26.651a3.677,3.677,0,0,1,.336-2.017c.336-.48,7.684-.576,9.029-.576,1.152,0,5.042.1,5.042,1.585,0,1.008.288,3.793-1.153,3.793-1.2,0-2.449-.192-3.65-.192-2.833,0-5.714.72-8.6.72-1.1,0-1.009-1.68-1.009-2.449Zm.1,6.483c0-.865-.144-2.161,1.057-2.113h8.4c3.266.048,4.851-.721,4.851,2.305,0,2.113.383,3.265-2.114,3.265h-2.064c-2.018,0-4.034-.624-6.051-.624-1.057,0-2.064.192-3.073.192-1.153,0-1.009-1.345-1.009-2.161Zm9.316-16.711c-1.825,0-3.7-.576-5.57-.576-.912,0-1.873.192-2.785.192-.624,0-.912-.192-.912-.865,0-.864-.1-3.025.72-3.5.768-.48,10.228-.432,12.34-.432,1.3,0,1.153,2.881,1.153,3.793C-381.906-113.782-385.651-113.974-386.852-113.974Zm-.864,27.947c0-1.2-1.729-1.152-2.545-1.3l-.48.144a2.957,2.957,0,0,0-.193,1.1,10.185,10.185,0,0,0,.336,2.737,1.55,1.55,0,0,0,1.1.288h.385a1.785,1.785,0,0,0,1.1-.24,4.02,4.02,0,0,0,.288-1.68Z" fill="#584b53"/>
    </g>
  </g>
</svg>
