<svg id="project01_ill3" xmlns="http://www.w3.org/2000/svg" width="253.097" height="256.135" viewBox="0 0 253.097 256.135">
  <path id="Path_962" data-name="Path 962" d="M1605.49,159.082h22.43c3.938,0,6.849-1.109,8.652-3.3,3.281-3.979,2.3-10.682,1.916-12.642-.8-4.124-5.6-26.705-5.646-26.933-.008-.038-.015-.075-.02-.112-4.076-28.226-26.753-49.51-52.746-49.51-37.87,0-50.786,40.332-58.5,64.429-1.335,4.169-2.487,7.768-3.593,10.589-1.242,3.165-4.106,10.47-1.422,14.408,1.387,2.035,4.249,3.067,8.5,3.067h28.418a1.729,1.729,0,0,1,1.292.583,3.117,3.117,0,0,1,1.31-.429,42.179,42.179,0,0,1-17.887-27.015,11.79,11.79,0,1,1,3.631-23.237c36.379,1.533,51.823-20.494,51.975-20.717a1.742,1.742,0,0,1,3.181,1.013c-.012.759-.048,18.682,20.562,19.692.965-.055,7.011-.258,10.922,3.35a10.592,10.592,0,0,1,3.266,8.149,11.808,11.808,0,0,1-10.781,11.749,42.172,42.172,0,0,1-17.667,26.869c.319.211.6.423.863.634A1.729,1.729,0,0,1,1605.49,159.082Zm-27.373-66.93c-.562.352-13.946,8.645-29.526,10.41a1.921,1.921,0,0,1-.2.011,1.741,1.741,0,0,1-.193-3.471c14.775-1.673,27.94-9.818,28.071-9.9a1.741,1.741,0,1,1,1.848,2.951Zm3.125-11.585a82.663,82.663,0,0,1-18.236,8.025A1.741,1.741,0,0,1,1562,85.259a80.73,80.73,0,0,0,17.4-7.643,1.741,1.741,0,1,1,1.848,2.951Z" transform="translate(-1424.278 -63.108)" fill="#d9dbbc"/>
  <path id="Path_963" data-name="Path 963" d="M1482.611,127.544v-3a1.684,1.684,0,0,1,.946-1.514l7.081-3.457-7.081-3.458a1.684,1.684,0,0,1-.946-1.514V99.745a5.485,5.485,0,0,0-5.479-5.479h-56.127a5.486,5.486,0,0,0-5.479,5.479v27.8a5.486,5.486,0,0,0,5.479,5.479h56.127A5.485,5.485,0,0,0,1482.611,127.544Zm-8.242-1.912h-51.18a1.264,1.264,0,0,1,0-2.528h51.18a1.264,1.264,0,0,1,0,2.528Zm0-10.723h-51.18a1.264,1.264,0,0,1,0-2.528h51.18a1.264,1.264,0,0,1,0,2.528Zm0-10.724h-51.18a1.264,1.264,0,1,1,0-2.527h51.18a1.264,1.264,0,1,1,0,2.527Z" transform="translate(-1412.156 -66.465)" fill="#fff"/>
  <path id="Path_964" data-name="Path 964" d="M1587.9,149.125a1.469,1.469,0,1,0,0-2.937c-1.289,0-2.378-.736-2.378-1.609s1.089-1.608,2.378-1.608a1.469,1.469,0,0,0,1.469-1.468v-4.4a1.469,1.469,0,1,0-2.938,0v3.1a4.721,4.721,0,0,0-3.846,4.369C1582.586,147.085,1584.97,149.125,1587.9,149.125Z" transform="translate(-1432.423 -71.484)" fill="#69585f"/>
  <path id="Path_965" data-name="Path 965" d="M1622.606,135.11a11.808,11.808,0,0,0,10.781-11.749,10.592,10.592,0,0,0-3.266-8.149c-3.911-3.609-9.958-3.406-10.922-3.35-20.611-1.01-20.574-18.933-20.562-19.692a1.742,1.742,0,0,0-3.181-1.013c-.152.222-15.6,22.25-51.975,20.717a11.788,11.788,0,1,0-3.631,23.237,42.114,42.114,0,0,0,82.757,0ZM1581.228,165.9a38.852,38.852,0,0,1-38.184-32.776,1.741,1.741,0,0,0-1.72-1.479h-.077l-.208.012c-.059,0-.117.01-.176.01a8.311,8.311,0,1,1,1.968-16.375,1.729,1.729,0,0,0,.335.048c30.13,1.322,46.463-12.42,52.477-18.944,1.3,6.5,6.065,18.136,23.493,18.944a1.831,1.831,0,0,0,.22,0c.053,0,5.392-.349,8.406,2.43a7.169,7.169,0,0,1,2.145,5.59,8.32,8.32,0,0,1-8.311,8.311c-.06,0-.117-.005-.176-.01l-.208-.012a1.744,1.744,0,0,0-1.8,1.478A38.852,38.852,0,0,1,1581.228,165.9Z" transform="translate(-1425.931 -65.996)" fill="#69585f"/>
  <path id="Path_966" data-name="Path 966" d="M1524.582,162.083H1553a1.741,1.741,0,1,0,0-3.481h-28.418c-4.255,0-7.117-1.032-8.5-3.067-2.684-3.938.18-11.243,1.422-14.408,1.106-2.821,2.258-6.421,3.593-10.589,7.717-24.1,20.632-64.429,58.5-64.429,25.992,0,48.67,21.284,52.746,49.51.005.038.012.075.02.112.048.228,4.847,22.809,5.646,26.933.38,1.959,1.365,8.663-1.916,12.642-1.8,2.186-4.714,3.3-8.652,3.3h-22.43a1.741,1.741,0,1,0,0,3.481h22.43c5.028,0,8.843-1.534,11.339-4.561,4.134-5.013,3.229-12.523,2.649-15.519-.794-4.092-5.323-25.409-5.648-26.938-4.343-29.9-28.489-52.437-56.183-52.437-17.566,0-32.141,8.275-43.318,24.594-9.333,13.626-14.632,30.173-18.5,42.256-1.316,4.111-2.453,7.662-3.537,10.425-1.545,3.939-4.76,12.137-1.038,17.6C1515.277,160.54,1519.105,162.083,1524.582,162.083Z" transform="translate(-1423.796 -62.627)" fill="#69585f"/>
  <path id="Path_967" data-name="Path 967" d="M1571.422,125.371h-8.879a1.741,1.741,0,1,0,0,3.482h8.879a1.741,1.741,0,0,0,0-3.482Z" transform="translate(-1429.78 -70.239)" fill="#69585f"/>
  <path id="Path_968" data-name="Path 968" d="M1569.39,177.461a1.742,1.742,0,0,0-1.742,1.741v10.372a1.741,1.741,0,1,0,3.482,0V179.2A1.741,1.741,0,0,0,1569.39,177.461Z" transform="translate(-1430.611 -76.558)" fill="#69585f"/>
  <path id="Path_969" data-name="Path 969" d="M1610.913,193.311a1.741,1.741,0,0,0,1.741-1.741V177.716a1.741,1.741,0,0,0-3.481,0V191.57A1.741,1.741,0,0,0,1610.913,193.311Z" transform="translate(-1435.648 -76.378)" fill="#69585f"/>
  <path id="Path_970" data-name="Path 970" d="M1585.908,209.18c-4.648,0-8.534-2.207-11.548-6.561a24.547,24.547,0,0,1-3.284-6.927,1.741,1.741,0,0,0-3.374.862c.042.161,4.268,16.108,18.206,16.108,13.6,0,21.161-12.874,21.476-13.421a1.741,1.741,0,0,0-3.016-1.739C1604.3,197.619,1597.467,209.18,1585.908,209.18Z" transform="translate(-1430.611 -78.611)" fill="#69585f"/>
  <path id="Path_971" data-name="Path 971" d="M1556.542,198.008a1.737,1.737,0,0,0-2.115-1.259c-.846.214-20.808,5.287-28.281,8.345-11.931,4.881-20.039,13.134-24.1,24.529-.707,1.983-1.208,3.13-1.651,4.141-1.129,2.581-1.876,4.285-4.306,15.178a1.741,1.741,0,0,0,1.321,2.078,1.767,1.767,0,0,0,.381.042,1.742,1.742,0,0,0,1.7-1.362c2.357-10.563,3.049-12.145,4.1-14.541.466-1.063.994-2.27,1.74-4.368,3.764-10.57,11-17.922,22.135-22.475,7.248-2.965,27.613-8.14,27.819-8.193A1.739,1.739,0,0,0,1556.542,198.008Z" transform="translate(-1421.925 -78.891)" fill="#69585f"/>
  <path id="Path_972" data-name="Path 972" d="M1567.4,131.146h0a3.168,3.168,0,0,0-3.158,3.158v4.514a3.168,3.168,0,0,0,3.158,3.158h0a3.168,3.168,0,0,0,3.159-3.158V134.3A3.168,3.168,0,0,0,1567.4,131.146Z" transform="translate(-1430.197 -70.939)" fill="#69585f"/>
  <path id="Path_973" data-name="Path 973" d="M1611.376,125.371H1602.5a1.741,1.741,0,1,0,0,3.482h8.878a1.741,1.741,0,0,0,0-3.482Z" transform="translate(-1434.627 -70.239)" fill="#69585f"/>
  <path id="Path_974" data-name="Path 974" d="M1607.354,131.146a3.168,3.168,0,0,0-3.159,3.158v4.514a3.159,3.159,0,0,0,6.317,0V134.3A3.168,3.168,0,0,0,1607.354,131.146Z" transform="translate(-1435.044 -70.939)" fill="#69585f"/>
  <path id="Path_975" data-name="Path 975" d="M1595.281,153.775a17.527,17.527,0,0,1-16.58,0,1.469,1.469,0,1,0-1.4,2.582,20.5,20.5,0,0,0,19.385,0,1.469,1.469,0,0,0-1.4-2.582Z" transform="translate(-1431.688 -73.663)" fill="#69585f"/>
  <path id="Path_976" data-name="Path 976" d="M1550.972,104.113a1.742,1.742,0,0,0,1.727,1.545,1.921,1.921,0,0,0,.2-.011c15.581-1.765,28.964-10.057,29.526-10.41a1.741,1.741,0,1,0-1.848-2.951c-.131.082-13.3,8.227-28.071,9.9A1.743,1.743,0,0,0,1550.972,104.113Z" transform="translate(-1428.586 -66.193)" fill="#69585f"/>
  <path id="Path_977" data-name="Path 977" d="M1568.759,90.152a1.732,1.732,0,0,0,.5-.075,82.663,82.663,0,0,0,18.236-8.025,1.741,1.741,0,1,0-1.848-2.951,80.73,80.73,0,0,1-17.4,7.643,1.741,1.741,0,0,0,.5,3.408Z" transform="translate(-1430.534 -64.593)" fill="#69585f"/>
  <circle id="Ellipse_16" data-name="Ellipse 16" cx="3.641" cy="3.641" r="3.641" transform="translate(153.38 149.925)" fill="#69585f"/>
  <circle id="Ellipse_17" data-name="Ellipse 17" cx="3.641" cy="3.641" r="3.641" transform="translate(153.38 165.107)" fill="#69585f"/>
  <path id="Path_978" data-name="Path 978" d="M1611.527,203.391a1.741,1.741,0,0,0-1.554,1.91l1.844,17.87-17.888-8.579a1.741,1.741,0,1,0-1.506,3.14l20.691,9.923a1.74,1.74,0,0,0,2.484-1.748l-2.162-20.964A1.737,1.737,0,0,0,1611.527,203.391Z" transform="translate(-1433.496 -79.702)" fill="#69585f"/>
  <path id="Path_979" data-name="Path 979" d="M1559.6,227.756a1.736,1.736,0,0,0,.664-.132l23.879-9.865a1.741,1.741,0,0,0-1.329-3.219l-20.809,8.6,3.949-18.226a1.741,1.741,0,1,0-3.4-.737l-4.653,21.471a1.741,1.741,0,0,0,1.7,2.11Z" transform="translate(-1429.423 -79.632)" fill="#69585f"/>
  <path id="Path_980" data-name="Path 980" d="M1458.811,332.248l-6.39-57.572a8.135,8.135,0,0,1,8.085-9.033h109.313a8.126,8.126,0,0,1,8.086,7.238l6.391,57.573a8.136,8.136,0,0,1-8.087,9.033h6.131a1.74,1.74,0,0,1,1.589-1.843l2.142-.179a11.614,11.614,0,0,0,1.684-7.4l-6.389-57.572a11.605,11.605,0,0,0-11.547-10.336H1460.506a11.617,11.617,0,0,0-11.545,12.9l6.389,57.572a11.575,11.575,0,0,0,3.261,6.854h8.286A8.126,8.126,0,0,1,1458.811,332.248Z" transform="translate(-1416.204 -86.833)" fill="#69585f"/>
  <path id="Path_981" data-name="Path 981" d="M1445.9,350.161a1.741,1.741,0,0,0,0,3.482h20.421a11.582,11.582,0,0,1-8.286-3.482Z" transform="translate(-1415.63 -97.509)" fill="#69585f"/>
  <path id="Path_982" data-name="Path 982" d="M1685.137,331.543H1665.12a3.5,3.5,0,0,0,.036-.362v-3.329l6.179-.518a15.929,15.929,0,0,0,14.324-19.192l-9.356-44c-3.091-13.859-6.585-26.762-9.347-34.517-4.056-11.394-12.163-19.647-24.094-24.529-7.474-3.058-27.436-8.131-28.282-8.345a1.741,1.741,0,0,0-.856,3.374c.2.053,20.569,5.227,27.82,8.193,11.13,4.554,18.37,11.905,22.133,22.475,2.716,7.628,6.166,20.378,9.224,34.089l9.352,43.987a12.447,12.447,0,0,1-11.2,15l-67.4,5.659a11.468,11.468,0,0,1-9.861,5.5h91.35a1.741,1.741,0,1,0,0-3.482Zm-22.947-.362a.6.6,0,0,1-.134.362h-40.874l41.008-3.443Z" transform="translate(-1433.782 -78.891)" fill="#69585f"/>
  <path id="Path_983" data-name="Path 983" d="M1586.207,349.494a11.537,11.537,0,0,0,1.206-1.634l-2.142.179a1.74,1.74,0,0,0-1.589,1.843H1459.953a11.582,11.582,0,0,0,8.286,3.482h109.312A11.627,11.627,0,0,0,1586.207,349.494Z" transform="translate(-1417.546 -97.23)" fill="#69585f"/>
  <path id="Path_984" data-name="Path 984" d="M1485.516,127.078v-1.945l6.527-3.186a3.157,3.157,0,0,0,0-5.675l-6.527-3.185V99.28a8.858,8.858,0,0,0-8.848-8.849H1420.54a8.859,8.859,0,0,0-8.849,8.849v27.8a8.859,8.859,0,0,0,8.849,8.848h56.127A8.858,8.858,0,0,0,1485.516,127.078Zm5.059-7.778h0Zm-75.513,7.778V99.28a5.486,5.486,0,0,1,5.479-5.479h56.127a5.485,5.485,0,0,1,5.479,5.479v14.858a1.684,1.684,0,0,0,.946,1.514l7.081,3.458-7.081,3.457a1.684,1.684,0,0,0-.946,1.514v3a5.485,5.485,0,0,1-5.479,5.479H1420.54A5.486,5.486,0,0,1,1415.061,127.078Z" transform="translate(-1411.691 -66)" fill="#69585f"/>
  <path id="Path_985" data-name="Path 985" d="M1475.253,102.677h-51.18a1.264,1.264,0,0,0,0,2.527h51.18a1.264,1.264,0,0,0,0-2.527Z" transform="translate(-1413.04 -67.486)" fill="#69585f"/>
  <path id="Path_986" data-name="Path 986" d="M1475.253,114.881h-51.18a1.264,1.264,0,0,0,0,2.528h51.18a1.264,1.264,0,0,0,0-2.528Z" transform="translate(-1413.04 -68.966)" fill="#69585f"/>
  <path id="Path_987" data-name="Path 987" d="M1475.253,127.085h-51.18a1.264,1.264,0,0,0,0,2.528h51.18a1.264,1.264,0,0,0,0-2.528Z" transform="translate(-1413.04 -70.447)" fill="#69585f"/>
  <path id="Path_988" data-name="Path 988" d="M1641.577,304.435l-33.058,8.112a1.741,1.741,0,0,0,.413,3.432,1.792,1.792,0,0,0,.417-.05l33.049-8.11a7.783,7.783,0,0,0,5.584-9.987l-8.651-26.453a1.741,1.741,0,0,0-3.31,1.083l8.652,26.452a4.3,4.3,0,0,1-3.1,5.522Z" transform="translate(-1435.408 -87.806)" fill="#69585f"/>
  <path id="Path_989" data-name="Path 989" d="M1475.558,244a1.741,1.741,0,0,0,1.711-2.618L1465.382,221.4a1.741,1.741,0,0,0-2.992,1.78l11.886,19.976A1.738,1.738,0,0,0,1475.558,244Z" transform="translate(-1417.812 -81.786)" fill="#69585f"/>
  <path id="Path_990" data-name="Path 990" d="M1487.117,214.314a1.742,1.742,0,0,0-1.538,1.923l2.576,23.1a1.741,1.741,0,0,0,3.461-.386l-2.576-23.1A1.74,1.74,0,0,0,1487.117,214.314Z" transform="translate(-1420.653 -81.027)" fill="#69585f"/>
  <path id="Path_991" data-name="Path 991" d="M1448.163,236.975a1.741,1.741,0,1,0-2,2.852l19.043,13.33a1.741,1.741,0,0,0,2-2.852Z" transform="translate(-1415.783 -83.74)" fill="#69585f"/>
</svg>
