<svg id="project01_ill2" xmlns="http://www.w3.org/2000/svg" width="256.076" height="215.4" viewBox="0 0 256.076 215.4">
  <path id="Path_914" data-name="Path 914" d="M1260.233,198.6c4.121-3.7,10.06-9.17,10.789-10.194a9.116,9.116,0,0,0,1.838-7.063,4.852,4.852,0,0,0-2.328-3.292c-4.233-2.416-9.3,2.72-9.354,2.771a1.358,1.358,0,0,1-1.892,0c-.04-.04-3.387-3.413-6.9-3.413a4.807,4.807,0,0,0-4.783,3.934,9.115,9.115,0,0,0,1.838,7.064C1250.174,189.431,1256.113,194.9,1260.233,198.6Z" transform="translate(-1051.717 -117.725)" fill="#d9dbbc"/>
  <path id="Path_915" data-name="Path 915" d="M1188.115,216.44l.049.009a.822.822,0,0,1,.113.011,9.466,9.466,0,0,0,10.8-7.87c.1-.575,5.742-30.9,7.866-42.311l.861-4.627a.39.39,0,0,0-.01-.18l-9.673-33.7a.424.424,0,0,0-.26-.277.136.136,0,0,1-.049,0,.372.372,0,0,0-.385.15l-20.635,27.272a4.087,4.087,0,0,1-4,1.565L1152,152.61a4.1,4.1,0,0,1-3.2-2.9l-9.435-32.873a.336.336,0,0,0-.293-.277.379.379,0,0,0-.4.148l-21.154,27.958a.4.4,0,0,0-.072.163s-8.412,45.186-8.789,47.206a.986.986,0,0,1-.03.113l-.01.049a.664.664,0,0,1-.011.118,9.783,9.783,0,0,0,7.787,11.215s68.8,12.36,71.615,12.884A.859.859,0,0,1,1188.115,216.44Zm-60.988-70.65.3-1.672a6.532,6.532,0,1,1,12.857,2.313l-.3,1.662a1.611,1.611,0,0,1-1.868,1.3l-9.7-1.745A1.6,1.6,0,0,1,1127.127,145.79Zm53.1,30.549a1.859,1.859,0,0,1-2.156,1.5l-12.379-2.227c-1.211,1.254-3.622,1.833-6.66,1.6l-.437,2.424a5.614,5.614,0,1,0,11.051,1.988,1.857,1.857,0,1,1,3.655.658,9.32,9.32,0,0,1-17.52,2.507,9.32,9.32,0,0,1-15.548-8.456,1.857,1.857,0,1,1,3.655.658,5.614,5.614,0,1,0,11.051,1.988l.436-2.423c-2.93-.841-4.988-2.225-5.685-3.822l-12.379-2.227a1.857,1.857,0,1,1,.658-3.656l12.02,2.162a12.668,12.668,0,0,1,.84-1.928l-9.891-3.639a1.861,1.861,0,0,1-.127-3.437,1.825,1.825,0,0,1,1.413-.047l11.02,4.054A7.5,7.5,0,0,1,1165.4,166.2l11.744.04a1.831,1.831,0,0,1,1.3.539,1.858,1.858,0,0,1-1.316,3.176l-10.539-.037a12.783,12.783,0,0,1,.116,2.1l12.02,2.162A1.86,1.86,0,0,1,1180.229,176.339Zm5.713-19.968.3-1.671a6.532,6.532,0,1,1,12.857,2.313l-.3,1.662a1.611,1.611,0,0,1-1.868,1.3l-9.7-1.745A1.6,1.6,0,0,1,1185.943,156.371Z" transform="translate(-1034.855 -110.342)" fill="#fff"/>
  <path id="Path_916" data-name="Path 916" d="M1290.867,161.376c4.878-4.383,12.055-10.983,12.935-12.221a11,11,0,0,0,2.211-8.531,6.042,6.042,0,0,0-2.864-4.045c-5.164-2.942-11.276,3.252-11.336,3.314a1.357,1.357,0,0,1-1.891,0c-.048-.049-4.068-4.1-8.324-4.1a5.983,5.983,0,0,0-3.013.788,6.049,6.049,0,0,0-2.864,4.045,11,11,0,0,0,2.21,8.532C1278.814,150.393,1285.988,156.993,1290.867,161.376Z" transform="translate(-1055.124 -112.676)" fill="#d9dbbc"/>
  <path id="Path_917" data-name="Path 917" d="M1100.523,329.7l-9.38-2.063a1.317,1.317,0,0,1-.983-.923c-1.775-6.164-8.812-12.643-17.929-16.507-16.521-7-26.291.917-28.238,2.744a18.869,18.869,0,0,0,.608,4.253,10.8,10.8,0,0,0,4.734-.1,1.318,1.318,0,0,1,.841,2.5,10.137,10.137,0,0,1-3.175.452c-.53,0-1.035-.031-1.5-.073,1.928,4.845,6.294,10.993,16.156,15.172,9.318,3.948,19.286,4.407,24.8,1.142a1.315,1.315,0,0,1,1.419.048l7.616,5.246a1.087,1.087,0,0,0,1.323-.614l4.191-9.891A1.088,1.088,0,0,0,1100.523,329.7Zm-42.251-16.332-1.152.573.677,1.1a1.318,1.318,0,0,1-2.243,1.385l-.8-1.3-1.369.681a1.318,1.318,0,1,1-1.174-2.36l1.153-.574-.677-1.095a1.318,1.318,0,1,1,2.243-1.385l.8,1.3,1.368-.681a1.318,1.318,0,0,1,1.174,2.36Z" transform="translate(-1027.035 -133.491)" fill="#d9dbbc"/>
  <path id="Path_918" data-name="Path 918" d="M1280.684,302.3c18.217-5.562,26.3-22.754,26.235-37.325-.064-13.668-7.073-30.392-26.557-36.336-4.038-1.247-7.105-.972-8.361-.151a1.276,1.276,0,0,0-.655,1.058c-.134,1.852,2.32,2.761,6.376,4.038l.624.2c16.818,5.132,22.88,19.515,22.941,31.262.063,12.484-6.918,27.235-22.657,32.054a1.906,1.906,0,0,1-2.372-1.19,1.745,1.745,0,0,1-.077-.352c-.824.112-1.732.059-2.6.09.481,2.463.935,5,1.356,7.645.06.376.1.753.148,1.13h4.339A1.8,1.8,0,0,1,1280.684,302.3Z" transform="translate(-1054.615 -123.837)" fill="#fff"/>
  <path id="Path_919" data-name="Path 919" d="M1253.93,303.375c-2.608-16.378-6.368-29.157-11.171-37.981-13.669-25.1-33.981-33.491-34.185-33.574a2.2,2.2,0,0,1-1.219-2.857l0-.008a23.932,23.932,0,0,0-3.553-1.75,12.962,12.962,0,0,1-13.1,5.8.852.852,0,0,1-.11-.03l-.055-.01a.84.84,0,0,1-.114-.011l-56.508-10.166v4.79a2.168,2.168,0,0,1,.78-.265,2.195,2.195,0,0,1,2.472,1.882l11.984,88.444a2.2,2.2,0,0,1-2.177,2.492,7.053,7.053,0,0,0-7.052,7.187,7.249,7.249,0,0,0,7.359,6.921H1158.7a11.073,11.073,0,0,1-2.156-6.481,10.266,10.266,0,0,1,7.72-9.932l-6.346-39.529a2.2,2.2,0,0,1,4.338-.7l6.7,41.758a2.2,2.2,0,0,1-2.169,2.546,5.86,5.86,0,0,0-5.854,5.854c0,3.392,2.791,6.481,5.854,6.481h15.682a3.14,3.14,0,0,0,3.132-2.979l-8.464-51.384a2.2,2.2,0,1,1,4.334-.714l7.969,48.377h2.287c-.005-.119-.024-.235-.024-.355a10.781,10.781,0,0,1,4.981-9.109,2.184,2.184,0,0,1,2.263-.056,6.39,6.39,0,0,1,1.829-1.547c-6.308-5.9-10.461-15.856-10.461-27.122,0-15.549,8.007-29.057,19.039-32.121a2.2,2.2,0,0,1,1.176,4.234c-9.168,2.546-15.822,14.274-15.822,27.888,0,15.649,8.713,28.381,19.423,28.381a2.2,2.2,0,1,1,0,4.393,19.511,19.511,0,0,1-13.355-5.653,6.39,6.39,0,0,0-1.829,1.547,2.18,2.18,0,0,1,.111,3.753,6.409,6.409,0,0,0-2.961,5.413c0,3.3,4.281,7.054,8.036,7.054h23.909A25.958,25.958,0,0,0,1247.765,325,26.8,26.8,0,0,0,1253.93,303.375Z" transform="translate(-1037.944 -123.23)" fill="#fff"/>
  <path id="Path_920" data-name="Path 920" d="M1182.5,180.159,1170.482,178a12.783,12.783,0,0,0-.116-2.1l10.539.037a1.857,1.857,0,1,0,.012-3.714l-11.744-.04a7.5,7.5,0,0,0-12.155-2.187L1146,165.937a1.825,1.825,0,0,0-1.413.047,1.86,1.86,0,0,0,.127,3.437l9.891,3.639a12.668,12.668,0,0,0-.84,1.928l-12.02-2.162a1.857,1.857,0,1,0-.658,3.656l12.379,2.227c.7,1.6,2.755,2.981,5.685,3.822l-.436,2.423a5.614,5.614,0,1,1-11.051-1.988,1.857,1.857,0,1,0-3.655-.658,9.32,9.32,0,0,0,15.548,8.456,9.32,9.32,0,0,0,17.52-2.507,1.857,1.857,0,1,0-3.655-.658,5.614,5.614,0,1,1-11.051-1.988l.437-2.424c3.039.233,5.45-.346,6.66-1.6l12.379,2.227a1.857,1.857,0,0,0,.657-3.656Z" transform="translate(-1038.628 -116.319)" fill="#69585f"/>
  <path id="Path_921" data-name="Path 921" d="M1186.942,219.563l.055.01a.847.847,0,0,0,.11.03,13.183,13.183,0,0,0,15.116-10.868c.125-.7,8.652-46.54,8.723-46.914a4.144,4.144,0,0,0-.091-1.887h0l-9.673-33.7a4.107,4.107,0,0,0-7.224-1.345l-20.638,27.273a.385.385,0,0,1-.385.148l-20.766-3.867a.392.392,0,0,1-.308-.279l-9.435-32.87a4.108,4.108,0,0,0-7.225-1.345l-21.155,27.959a4.158,4.158,0,0,0-.762,1.725l-8.789,47.207a.864.864,0,0,0-.013.134l.193.059-.2-.009a.973.973,0,0,0-.03.116,13.547,13.547,0,0,0,10.784,15.528l71.6,12.882A.838.838,0,0,0,1186.942,219.563ZM1108.094,191.8a.664.664,0,0,0,.011-.118l.01-.049a.986.986,0,0,0,.03-.113c.377-2.02,8.789-47.206,8.789-47.206a.4.4,0,0,1,.072-.163l21.154-27.958a.379.379,0,0,1,.4-.148.336.336,0,0,1,.293.277l9.435,32.873a4.1,4.1,0,0,0,3.2,2.9l20.794,3.871a4.087,4.087,0,0,0,4-1.565l20.635-27.272a.372.372,0,0,1,.385-.15.136.136,0,0,0,.049,0,.424.424,0,0,1,.26.277l9.673,33.7a.39.39,0,0,1,.01.18l-.861,4.627c-2.124,11.415-7.762,41.736-7.866,42.311a9.466,9.466,0,0,1-10.8,7.87.822.822,0,0,0-.113-.011l-.049-.009a.859.859,0,0,0-.106-.029c-2.817-.525-71.615-12.884-71.615-12.884A9.783,9.783,0,0,1,1108.094,191.8Z" transform="translate(-1034.343 -109.829)" fill="#69585f"/>
  <path id="Path_922" data-name="Path 922" d="M1142.56,151.156l.3-1.662A6.532,6.532,0,1,0,1130,147.182l-.3,1.672a1.6,1.6,0,0,0,1.291,1.857l9.7,1.745A1.611,1.611,0,0,0,1142.56,151.156Z" transform="translate(-1037.429 -113.406)" fill="#69585f"/>
  <path id="Path_923" data-name="Path 923" d="M1209.5,163.2l.3-1.662a6.532,6.532,0,1,0-12.857-2.313l-.3,1.671a1.6,1.6,0,0,0,1.291,1.858l9.7,1.745A1.611,1.611,0,0,0,1209.5,163.2Z" transform="translate(-1045.549 -114.867)" fill="#69585f"/>
  <path id="Path_924" data-name="Path 924" d="M1254.6,263.955c-14.416-26.477-35.514-35.191-36.4-35.549a2.2,2.2,0,0,0-1.638,4.076c.2.083,20.516,8.471,34.185,33.574,4.8,8.825,8.563,21.6,11.171,37.981a26.8,26.8,0,0,1-6.165,21.624,25.958,25.958,0,0,1-19.717,9.238h-23.909c-3.755,0-8.036-3.758-8.036-7.054a6.409,6.409,0,0,1,2.961-5.413,2.2,2.2,0,1,0-2.373-3.7,10.781,10.781,0,0,0-4.981,9.109c0,6.341,6.8,11.448,12.429,11.448h23.909a30.346,30.346,0,0,0,23.059-10.779,31.194,31.194,0,0,0,7.162-25.168C1263.56,286.473,1259.639,273.221,1254.6,263.955Z" transform="translate(-1045.923 -123.893)" fill="#69585f"/>
  <path id="Path_925" data-name="Path 925" d="M1221.926,326.866a2.2,2.2,0,0,0,0-4.393c-10.709,0-19.423-12.731-19.423-28.381,0-13.613,6.653-25.342,15.822-27.888a2.2,2.2,0,1,0-1.176-4.233c-11.033,3.064-19.039,16.572-19.039,32.121C1198.11,312.163,1208.794,326.866,1221.926,326.866Z" transform="translate(-1045.731 -127.974)" fill="#69585f"/>
  <path id="Path_926" data-name="Path 926" d="M1186.017,286.69a2.2,2.2,0,1,0-4.334.714l8.464,51.384a3.14,3.14,0,0,1-3.132,2.979h-15.682a2.2,2.2,0,1,1,0,4.393h15.682a7.537,7.537,0,0,0,7.528-7.529,2.1,2.1,0,0,0-.029-.357Z" transform="translate(-1042.483 -130.76)" fill="#69585f"/>
  <path id="Path_927" data-name="Path 927" d="M1158.549,334.859h-11.416a7.249,7.249,0,0,1-7.359-6.921,7.053,7.053,0,0,1,7.052-7.187A2.2,2.2,0,0,0,1149,318.26l-11.984-88.444a2.2,2.2,0,1,0-4.354.59l11.683,86.22a11.461,11.461,0,0,0-8.967,11.393,11.663,11.663,0,0,0,11.752,11.234h19.507A10.191,10.191,0,0,1,1158.549,334.859Z" transform="translate(-1037.789 -123.852)" fill="#69585f"/>
  <path id="Path_928" data-name="Path 928" d="M1164.064,335.068a5.86,5.86,0,0,1,5.854-5.854,2.2,2.2,0,0,0,2.17-2.546l-6.7-41.758a2.2,2.2,0,0,0-4.338.7l6.346,39.53a10.266,10.266,0,0,0-7.72,9.932,11.072,11.072,0,0,0,2.156,6.481h8.091C1166.855,341.549,1164.064,338.46,1164.064,335.068Z" transform="translate(-1041.068 -130.543)" fill="#69585f"/>
  <path id="Path_929" data-name="Path 929" d="M1172.413,351.821a2.2,2.2,0,0,0-2.2-2.2h-8.091a10.191,10.191,0,0,0,8.091,4.393A2.2,2.2,0,0,0,1172.413,351.821Z" transform="translate(-1041.366 -138.617)" fill="#69585f"/>
  <path id="Path_930" data-name="Path 930" d="M1076.165,218.962a2.2,2.2,0,0,0,4.183-1.348L1045.99,111.009a2.2,2.2,0,0,0-3.811-.693l-17.008,21.39a2.2,2.2,0,1,0,3.439,2.735l14.455-18.181Z" transform="translate(-1024.693 -109.486)" fill="#69585f"/>
  <path id="Path_931" data-name="Path 931" d="M1100.073,280.277c1.1.328,1.772.482,1.772.482a1.324,1.324,0,0,0,1.372-.519s.4-.558,1.009-1.533a1.318,1.318,0,1,0-2.234-1.4c-.156.25-.3.47-.419.657-.216-.06-.468-.131-.75-.215a1.318,1.318,0,1,0-.75,2.527Z" transform="translate(-1033.723 -129.77)" fill="#69585f"/>
  <path id="Path_932" data-name="Path 932" d="M1080.336,251.428a1.318,1.318,0,0,0,1.224-.827,31.046,31.046,0,0,1,1.313-2.828,1.319,1.319,0,0,0-2.336-1.223c-.541,1.036-1.02,2.068-1.423,3.068a1.319,1.319,0,0,0,1.222,1.81Z" transform="translate(-1031.284 -126.028)" fill="#69585f"/>
  <path id="Path_933" data-name="Path 933" d="M1077.23,257.564c-.034.438-.053.879-.053,1.32a15.214,15.214,0,0,0,.163,2.22,1.318,1.318,0,0,0,1.3,1.123,1.244,1.244,0,0,0,.2-.015,1.316,1.316,0,0,0,1.108-1.5,12.637,12.637,0,0,1-.133-1.831q0-.556.044-1.112a1.318,1.318,0,1,0-2.627-.207Z" transform="translate(-1031.06 -127.302)" fill="#69585f"/>
  <path id="Path_934" data-name="Path 934" d="M1082.938,271.4a1.318,1.318,0,0,0,1.763-1.96,16.766,16.766,0,0,1-2.06-2.194,1.318,1.318,0,0,0-2.085,1.613A19.506,19.506,0,0,0,1082.938,271.4Z" transform="translate(-1031.437 -128.562)" fill="#69585f"/>
  <path id="Path_935" data-name="Path 935" d="M1089.565,276.107c.945.517,1.957,1.017,3.006,1.487a1.318,1.318,0,1,0,1.078-2.406c-.987-.442-1.935-.91-2.82-1.395a1.318,1.318,0,0,0-1.264,2.314Z" transform="translate(-1032.48 -129.399)" fill="#69585f"/>
  <path id="Path_936" data-name="Path 936" d="M1085.971,238.474c-.018.022-.473.544-1.154,1.448a1.318,1.318,0,0,0,2.105,1.586c.223-.3.42-.547.58-.748.253.044.566.1.929.177a1.318,1.318,0,1,0,.529-2.582c-1.109-.227-1.794-.318-1.823-.322A1.309,1.309,0,0,0,1085.971,238.474Z" transform="translate(-1031.955 -125.079)" fill="#69585f"/>
  <path id="Path_937" data-name="Path 937" d="M1106.977,267.6c-.343.948-.742,1.928-1.19,2.912a1.318,1.318,0,0,0,2.4,1.09c.476-1.047.9-2.092,1.269-3.106a1.318,1.318,0,0,0-2.48-.9Z" transform="translate(-1034.517 -128.561)" fill="#69585f"/>
  <path id="Path_938" data-name="Path 938" d="M1106.568,246.444a1.318,1.318,0,0,0-1.831,1.9,12.933,12.933,0,0,1,1.883,2.261,1.318,1.318,0,0,0,2.212-1.434A15.634,15.634,0,0,0,1106.568,246.444Z" transform="translate(-1034.355 -126.056)" fill="#69585f"/>
  <path id="Path_939" data-name="Path 939" d="M1095.719,242.97a31,31,0,0,1,2.856,1.248,1.3,1.3,0,0,0,.589.141,1.318,1.318,0,0,0,.591-2.5,33.469,33.469,0,0,0-3.1-1.356,1.318,1.318,0,1,0-.937,2.464Z" transform="translate(-1033.207 -125.37)" fill="#69585f"/>
  <path id="Path_940" data-name="Path 940" d="M1110.151,261.75a1.319,1.319,0,0,0,1.308-1.168,20.565,20.565,0,0,0,.137-2.322q0-.583-.038-1.158a1.318,1.318,0,0,0-2.631.171c.021.329.032.661.032.989a17.681,17.681,0,0,1-.12,2.018,1.319,1.319,0,0,0,1.16,1.46A1.244,1.244,0,0,0,1110.151,261.75Z" transform="translate(-1034.9 -127.244)" fill="#69585f"/>
  <path id="Path_941" data-name="Path 941" d="M1098.475,269.534l-.017.027-.032-.01a1.318,1.318,0,0,0-.751,2.527c.661.2,1.061.288,1.061.288a1.293,1.293,0,0,0,.294.033,1.328,1.328,0,0,0,1.075-.551s.239-.334.6-.92a1.318,1.318,0,1,0-2.236-1.4Z" transform="translate(-1033.433 -128.826)" fill="#69585f"/>
  <path id="Path_942" data-name="Path 942" d="M1086.715,260.13a6.533,6.533,0,0,1-.071-.984c0-.2.008-.4.024-.6a1.318,1.318,0,1,0-2.628-.2c-.02.266-.031.533-.031.8a9.158,9.158,0,0,0,.1,1.38,1.319,1.319,0,0,0,1.3,1.121,1.272,1.272,0,0,0,.2-.015A1.318,1.318,0,0,0,1086.715,260.13Z" transform="translate(-1031.889 -127.397)" fill="#69585f"/>
  <path id="Path_943" data-name="Path 943" d="M1095.006,269.836a1.317,1.317,0,0,0-.665-1.741c-.559-.25-1.1-.516-1.6-.788a1.317,1.317,0,1,0-1.263,2.313c.56.307,1.16.6,1.783.881a1.317,1.317,0,0,0,1.741-.665Z" transform="translate(-1032.712 -128.612)" fill="#69585f"/>
  <path id="Path_944" data-name="Path 944" d="M1086.392,255.385a1.317,1.317,0,0,0,1.222-.828c.207-.514.455-1.048.737-1.589a1.318,1.318,0,1,0-2.335-1.221,19.749,19.749,0,0,0-.847,1.829,1.32,1.32,0,0,0,1.223,1.809Z" transform="translate(-1032.018 -126.658)" fill="#69585f"/>
  <path id="Path_945" data-name="Path 945" d="M1087.537,266.82a1.318,1.318,0,0,0,1.761-1.961,9.24,9.24,0,0,1-1.127-1.2,1.318,1.318,0,1,0-2.083,1.614A11.791,11.791,0,0,0,1087.537,266.82Z" transform="translate(-1032.108 -128.127)" fill="#69585f"/>
  <path id="Path_946" data-name="Path 946" d="M1089.241,246.951s-.274.315-.693.868a1.318,1.318,0,1,0,2.1,1.588l.123-.162.2.04a1.318,1.318,0,1,0,.529-2.583c-.68-.139-1.095-.192-1.095-.192A1.32,1.32,0,0,0,1089.241,246.951Z" transform="translate(-1032.408 -126.107)" fill="#69585f"/>
  <path id="Path_947" data-name="Path 947" d="M1101.3,267.4a1.315,1.315,0,0,0,1.743-.658c.283-.625.535-1.243.75-1.84a1.318,1.318,0,0,0-2.48-.9c-.192.532-.417,1.087-.672,1.649A1.318,1.318,0,0,0,1101.3,267.4Z" transform="translate(-1033.893 -128.125)" fill="#69585f"/>
  <path id="Path_948" data-name="Path 948" d="M1102.415,258.244c.012.178.018.357.018.541a10,10,0,0,1-.065,1.1,1.318,1.318,0,0,0,1.159,1.46,1.252,1.252,0,0,0,.152.008,1.317,1.317,0,0,0,1.307-1.168,12.354,12.354,0,0,0,.083-1.4c0-.241-.007-.482-.023-.721a1.318,1.318,0,0,0-2.631.173Z" transform="translate(-1034.115 -127.362)" fill="#69585f"/>
  <path id="Path_949" data-name="Path 949" d="M1095.109,250.437c.566.215,1.106.452,1.6.7a1.318,1.318,0,0,0,1.181-2.357,20.108,20.108,0,0,0-1.848-.808,1.318,1.318,0,0,0-.937,2.464Z" transform="translate(-1033.133 -126.275)" fill="#69585f"/>
  <path id="Path_950" data-name="Path 950" d="M1100.115,251.566a1.318,1.318,0,0,0,.034,1.864,6.984,6.984,0,0,1,1.013,1.213,1.318,1.318,0,1,0,2.21-1.438,9.566,9.566,0,0,0-1.394-1.673A1.319,1.319,0,0,0,1100.115,251.566Z" transform="translate(-1033.798 -126.673)" fill="#69585f"/>
  <path id="Path_951" data-name="Path 951" d="M1288.371,227.636a45.233,45.233,0,0,0-7.406-2.975c-.114-.035-.224-.058-.337-.091-4.612-1.356-8.809-1.219-11.272.394a4.846,4.846,0,0,0-2.292,3.809c-.35,4.838,4.827,6.467,8.985,7.777l.637.2c14.893,4.544,20.255,17.335,20.309,27.79.055,11.152-6.118,24.313-20.039,28.576a1.8,1.8,0,0,0-1.219,2.288,1.906,1.906,0,0,0,2.372,1.19c15.739-4.819,22.72-19.57,22.657-32.054-.061-11.747-6.123-26.13-22.941-31.262l-.624-.2c-4.056-1.277-6.509-2.185-6.376-4.038a1.276,1.276,0,0,1,.655-1.058c1.256-.821,4.323-1.1,8.361.151,19.484,5.944,26.493,22.668,26.557,36.336.068,14.571-8.018,31.763-26.235,37.325a1.8,1.8,0,0,0-1.22,2.287,1.888,1.888,0,0,0,1.663,1.271,1.92,1.92,0,0,0,.707-.08c20.035-6.116,28.928-24.9,28.855-40.8C1310.108,251.384,1304.2,235.725,1288.371,227.636Z" transform="translate(-1054.094 -123.334)" fill="#69585f"/>
  <path id="Path_952" data-name="Path 952" d="M1258.99,200.988a1.318,1.318,0,0,0,1.757,0c1.106-.989,10.846-9.717,12.057-11.417a11.725,11.725,0,0,0,2.265-9.159,7.521,7.521,0,0,0-3.6-5.016c-4.7-2.681-9.593.665-11.606,2.361-2.016-1.7-6.9-5.043-11.606-2.361a7.521,7.521,0,0,0-3.595,5.016,11.726,11.726,0,0,0,2.265,9.159C1248.146,191.27,1257.885,200,1258.99,200.988Zm-11.748-20.009a4.807,4.807,0,0,1,4.783-3.934c3.511,0,6.859,3.372,6.9,3.413a1.358,1.358,0,0,0,1.892,0c.051-.052,5.121-5.187,9.354-2.771a4.852,4.852,0,0,1,2.328,3.292,9.116,9.116,0,0,1-1.838,7.063c-.729,1.024-6.668,6.489-10.789,10.194-4.12-3.7-10.059-9.17-10.788-10.193A9.115,9.115,0,0,1,1247.242,180.978Z" transform="translate(-1051.354 -117.359)" fill="#69585f"/>
  <path id="Path_953" data-name="Path 953" d="M1289.625,163.763a1.32,1.32,0,0,0,1.757,0c1.3-1.168,12.788-11.458,14.2-13.444a13.613,13.613,0,0,0,2.638-10.628,8.651,8.651,0,0,0-4.132-5.768c-5.552-3.165-11.354.971-13.588,2.893-2.235-1.922-8.034-6.057-13.588-2.893a8.647,8.647,0,0,0-4.132,5.767,13.618,13.618,0,0,0,2.637,10.629C1276.837,152.3,1288.32,162.6,1289.625,163.763Zm-14.267-23.5a6.049,6.049,0,0,1,2.864-4.045,5.983,5.983,0,0,1,3.013-.788c4.255,0,8.276,4.053,8.324,4.1a1.357,1.357,0,0,0,1.891,0c.06-.062,6.172-6.256,11.336-3.314a6.042,6.042,0,0,1,2.864,4.045,11,11,0,0,1-2.211,8.531c-.88,1.238-8.057,7.838-12.935,12.221-4.879-4.383-12.054-10.983-12.936-12.22A11,11,0,0,1,1275.358,140.258Z" transform="translate(-1054.76 -112.31)" fill="#69585f"/>
  <path id="Path_954" data-name="Path 954" d="M1101.1,326.875a1.345,1.345,0,0,0-.232-.074l-8.78-1.931c-2.307-6.659-9.732-13.437-19.192-17.445-19.924-8.446-31.43,3.6-31.543,3.718a1.315,1.315,0,0,0-.351.827,22.626,22.626,0,0,0,2.1,9.521c2.106,4.75,6.793,11.337,17.162,15.731,9.817,4.161,20.053,4.676,26.423,1.4l7.079,4.875a1.235,1.235,0,0,0,.234.128,3.69,3.69,0,0,0,1.445.3,3.73,3.73,0,0,0,3.432-2.27l4.192-9.892A3.727,3.727,0,0,0,1101.1,326.875Zm-.453,3.85-4.191,9.891a1.087,1.087,0,0,1-1.322.614l-7.617-5.246a1.315,1.315,0,0,0-1.419-.048c-5.515,3.264-15.483,2.806-24.8-1.142-9.862-4.179-14.228-10.327-16.156-15.172a17.062,17.062,0,0,1-2.228-.347,1.318,1.318,0,0,1,.616-2.562c.01,0,.283.065.709.136a18.869,18.869,0,0,1-.608-4.253c1.947-1.827,11.717-9.745,28.238-2.744,9.116,3.864,16.154,10.343,17.929,16.507a1.317,1.317,0,0,0,.983.923l9.38,2.063A1.088,1.088,0,0,1,1100.646,330.725Z" transform="translate(-1026.671 -133.134)" fill="#69585f"/>
  <path id="Path_955" data-name="Path 955" d="M1050.26,320.934a1.318,1.318,0,0,0-.841-2.5,10.8,10.8,0,0,1-4.734.1,22.537,22.537,0,0,0,.9,2.773c.462.042.967.073,1.5.073A10.137,10.137,0,0,0,1050.26,320.934Z" transform="translate(-1027.119 -134.826)" fill="#69585f"/>
  <path id="Path_956" data-name="Path 956" d="M1043.654,318.4a1.318,1.318,0,0,0-.616,2.562,17.071,17.071,0,0,0,2.228.347,22.518,22.518,0,0,1-.9-2.773C1043.937,318.469,1043.663,318.406,1043.654,318.4Z" transform="translate(-1026.796 -134.826)" fill="#69585f"/>
  <path id="Path_957" data-name="Path 957" d="M1057.039,317.331a1.318,1.318,0,1,0,2.243-1.385l-.677-1.1-2.37,1.18Z" transform="translate(-1028.52 -134.399)" fill="#69585f"/>
  <path id="Path_958" data-name="Path 958" d="M1056.1,310.721a1.318,1.318,0,1,0-2.243,1.385l.677,1.095,2.37-1.179Z" transform="translate(-1028.207 -133.822)" fill="#69585f"/>
  <path id="Path_959" data-name="Path 959" d="M1058.719,311.493l-1.368.681,1.39,2.252,1.152-.573a1.318,1.318,0,0,0-1.174-2.36Z" transform="translate(-1028.655 -133.975)" fill="#69585f"/>
  <path id="Path_960" data-name="Path 960" d="M1053.241,314.2a1.318,1.318,0,1,0,1.174,2.36l1.369-.681-1.39-2.253Z" transform="translate(-1028.068 -134.251)" fill="#69585f"/>
  <path id="Path_961" data-name="Path 961" d="M1054.654,313.467l1.39,2.252,2.37-1.18-1.39-2.252Z" transform="translate(-1028.328 -134.088)" fill="#69585f"/>
</svg>
